<svg viewBox="0 0 106 101" fill="none" xmlns="http://www.w3.org/2000/svg">
    <path d="M81.2665 54.1854L81.2665 45.6937L60.0514 45.6937L60.0514 -0.000887961L105.747 -0.000883967L105.747 45.6937L105.746 45.6937L105.746 54.1854C105.746 71.4289 100.785 84.233 90.9991 92.2443C84.2298 97.7859 75.6614 100.596 65.5312 100.596L65.5312 76.1174C71.0303 76.1174 81.2665 76.1174 81.2665 54.1854ZM5.73364 76.1174L5.73364 100.596C15.8633 100.596 24.4317 97.7859 31.201 92.2443C40.9866 84.233 45.9484 71.4284 45.9484 54.1854L45.9484 45.6937L45.9484 -0.000889194L0.254379 -0.000893189L0.254375 45.6937L21.4696 45.6937L21.4695 54.1854C21.469 76.1174 11.2328 76.1174 5.73364 76.1174Z" />
</svg>
