<svg version="1.1" class="dooca-svg" id="dooca-selo" xmlns="http://www.w3.org/2000/svg" xmlns:xlink="http://www.w3.org/1999/xlink" x="0px" y="0px" width="100px"
	 viewBox="0 0 80 80" xml:space="preserve">
<path class="icon" fill-rule="evenodd" clip-rule="evenodd" fill="#777777" d="M60.625,33.25H60v-9.438C60,12.18,50.57,2.75,38.938,2.75
	s-21.063,9.43-21.063,21.063v9.444C14.62,33.324,12,35.979,12,39.25V71c0,3.313,2.687,6,6,6h42.625c3.313,0,6-2.687,6-6V39.25
	C66.625,35.937,63.938,33.25,60.625,33.25z M38.938,6.625c9.354,0,16.938,7.583,16.938,16.938v9.688H22v-9.688
	C22,14.208,29.583,6.625,38.938,6.625z M62.625,71c0,1.104-0.896,2-2,2H18c-1.104,0-2-0.896-2-2V39.125c0-1.104,0.896-2,2-2h42.625
	c1.104,0,2,0.896,2,2V71z M50.622,42.452l3.805,3.919L39.208,62.048l-3.805,3.919l-8.877-9.145l3.804-3.919l5.073,5.226
	L50.622,42.452z"/>
</svg>
