<svg version="1.1" class="dooca-svg" id="googlesafe" xmlns="http://www.w3.org/2000/svg" xmlns:xlink="http://www.w3.org/1999/xlink" x="0px" y="0px" width="100px"
	 viewBox="0 0 315 115" xml:space="preserve">
	 <path class="icon" d="M95.181,20.597c-0.035-1.48-1.092-2.76-2.576-2.96c-6.905-0.946-13.721-2.599-20.396-5.044
	 	c-6.648-2.438-14-5.836-21.935-10.31c-1.006-0.569-1.953-0.569-2.959,0c-7.883,4.474-15.183,7.865-21.883,10.31
	 	c-6.677,2.434-13.491,4.098-20.34,5.044c-1.485,0.207-2.524,1.479-2.69,2.96c-0.656,28.13,5.507,51.144,18.428,69.039
	 	c7.037,9.746,15.845,17.656,26.485,23.683c0.822,0.604,2.107,0.561,3.067,0c10.556-6.129,19.353-13.982,26.378-23.683
	 	C89.698,71.753,95.809,48.728,95.181,20.597z M71.825,86.182c-6.105,8.432-13.767,15.461-23.03,21.11
	 	c-9.271-5.649-16.964-12.658-23.03-21.11C14.008,69.798,8.274,48.837,8.491,23.288c6.472-1.045,12.886-2.799,19.301-5.159
	 	c6.414-2.358,13.435-5.592,21.003-9.703c7.567,4.111,14.531,7.345,20.945,9.703c6.414,2.36,12.887,4.114,19.357,5.159
	 	C89.315,49.003,83.54,69.986,71.825,86.182z M113.78,21.182c-0.346,0.284-0.519,0.661-0.519,1.13s0.211,0.841,0.634,1.117
	 	c0.422,0.276,1.397,0.604,2.927,0.979c1.528,0.377,2.717,0.942,3.563,1.694c0.845,0.753,1.268,1.852,1.268,3.296
	 	s-0.542,2.616-1.625,3.515c-1.084,0.898-2.509,1.348-4.274,1.348c-2.551,0-4.85-0.944-6.893-2.834l2.145-2.628
	 	c1.736,1.521,3.342,2.282,4.815,2.282c0.661,0,1.181-0.143,1.557-0.427c0.377-0.284,0.564-0.668,0.564-1.152
	 	c0-0.483-0.199-0.867-0.6-1.152c-0.399-0.284-1.19-0.572-2.374-0.864c-1.874-0.445-3.246-1.025-4.113-1.74
	 	c-0.868-0.714-1.303-1.836-1.303-3.365c0-1.528,0.549-2.708,1.647-3.537c1.099-0.83,2.471-1.245,4.113-1.245
	 	c1.075,0,2.151,0.185,3.229,0.554c1.073,0.368,2.012,0.891,2.811,1.566l-1.82,2.628c-1.397-1.061-2.843-1.591-4.333-1.591
	 	C114.598,20.755,114.125,20.898,113.78,21.182z M133.75,34.078h-3.25V32.58c-0.893,1.121-1.994,1.682-3.309,1.682
	 	c-1.313,0-2.416-0.38-3.307-1.141c-0.892-0.76-1.337-1.774-1.337-3.042s0.461-2.216,1.383-2.847
	 	c0.922-0.629,2.182-0.945,3.779-0.945h2.582v-0.068c0-1.321-0.7-1.981-2.099-1.981c-0.6,0-1.232,0.118-1.9,0.356
	 	c-0.669,0.238-1.233,0.534-1.694,0.888l-1.544-2.236c1.628-1.183,3.487-1.774,5.577-1.774c1.506,0,2.735,0.377,3.688,1.129
	 	c0.953,0.754,1.431,1.944,1.431,3.573V34.078z M130.27,29.353v-0.6h-2.166c-1.384,0-2.075,0.431-2.075,1.291
	 	c0,0.445,0.165,0.787,0.496,1.025c0.33,0.238,0.804,0.357,1.417,0.357c0.614,0,1.156-0.188,1.625-0.564
	 	C130.036,30.486,130.27,29.983,130.27,29.353z M139.789,20.963v0.83h2.996v2.489h-2.996v9.795h-3.48v-9.795h-1.452v-2.489h1.452
	 	v-0.761c0-1.353,0.411-2.424,1.233-3.216c0.82-0.791,1.844-1.187,3.064-1.187c1.222,0,2.331,0.461,3.33,1.383l-1.244,2.328
	 	c-0.507-0.584-1.067-0.876-1.683-0.876c-0.354,0-0.646,0.127-0.876,0.38C139.904,20.099,139.789,20.472,139.789,20.963z
	 	 M154.516,32.28c-1.397,1.321-3.039,1.98-4.921,1.98c-1.883,0-3.438-0.579-4.667-1.739c-1.229-1.16-1.844-2.716-1.844-4.667
	 	c0-1.952,0.625-3.504,1.878-4.656c1.252-1.152,2.73-1.729,4.437-1.729s3.153,0.516,4.346,1.544c1.189,1.03,1.785,2.443,1.785,4.241
	 	v1.844h-9.034c0.106,0.677,0.461,1.229,1.061,1.659c0.601,0.431,1.275,0.646,2.028,0.646c1.214,0,2.212-0.407,2.996-1.222
	 	L154.516,32.28z M151.197,24.927c-0.477-0.399-1.057-0.599-1.739-0.599c-0.684,0-1.311,0.207-1.878,0.622
	 	c-0.568,0.415-0.899,0.976-0.991,1.682h5.438C151.95,25.895,151.673,25.328,151.197,24.927z M169.197,34.078h-7.053v-16.11h6.271
	 	c1.09,0,2.03,0.13,2.821,0.392c0.791,0.262,1.388,0.615,1.787,1.061c0.722,0.83,1.082,1.767,1.082,2.812
	 	c0,1.26-0.405,2.197-1.221,2.812c-0.277,0.216-0.469,0.35-0.576,0.403c-0.106,0.055-0.301,0.143-0.576,0.266
	 	c0.998,0.215,1.793,0.664,2.386,1.348c0.592,0.685,0.889,1.533,0.889,2.547c0,1.122-0.385,2.113-1.154,2.974
	 	C172.961,33.578,171.41,34.078,169.197,34.078z M165.74,24.49h1.704c0.998,0,1.74-0.107,2.226-0.323
	 	c0.483-0.215,0.725-0.68,0.725-1.394c0-0.715-0.223-1.188-0.668-1.418c-0.444-0.23-1.197-0.346-2.258-0.346h-1.729V24.49
	 	L165.74,24.49z M165.74,31.036h2.465c1.028,0,1.803-0.127,2.315-0.381c0.517-0.253,0.773-0.753,0.773-1.498
	 	c0-0.745-0.273-1.236-0.818-1.476c-0.547-0.237-1.418-0.356-2.617-0.356h-2.119L165.74,31.036L165.74,31.036z M183.049,24.72
	 	c-1.029,0-1.799,0.365-2.305,1.095c-0.509,0.729-0.763,1.694-0.763,2.893v5.37h-3.457v-12.4h3.457v1.636
	 	c0.447-0.507,1.004-0.937,1.672-1.291c0.668-0.353,1.349-0.537,2.039-0.553l0.023,3.25H183.049z M197.061,27.877
	 	c0,1.798-0.621,3.312-1.865,4.54c-1.245,1.23-2.809,1.844-4.69,1.844s-3.445-0.613-4.689-1.844c-1.246-1.229-1.866-2.742-1.866-4.54
	 	c0-1.797,0.62-3.314,1.866-4.552c1.244-1.236,2.808-1.855,4.689-1.855s3.445,0.619,4.69,1.855
	 	C196.439,24.563,197.061,26.081,197.061,27.877z M187.428,27.877c0,1.015,0.287,1.841,0.863,2.478
	 	c0.576,0.639,1.313,0.957,2.213,0.957c0.898,0,1.637-0.318,2.213-0.957c0.576-0.637,0.863-1.463,0.863-2.478
	 	c0-1.014-0.287-1.844-0.863-2.489s-1.314-0.968-2.213-0.968c-0.899,0-1.637,0.322-2.213,0.968S187.428,26.864,187.428,27.877z
	 	 M204.689,34.078h-3.571l-4.218-12.4h3.572l2.42,7.49l2.42-7.49h3.342l2.421,7.49l2.42-7.49h3.596l-4.217,12.399h-3.597
	 	l-2.282-6.753L204.689,34.078z M227.023,30.217c0,1.222-0.448,2.2-1.35,2.938c-0.898,0.737-2.039,1.104-3.422,1.104
	 	c-0.922,0-1.883-0.165-2.881-0.495c-0.998-0.33-1.898-0.817-2.697-1.463l1.521-2.167c1.291,0.999,2.666,1.498,4.125,1.498
	 	c0.447,0,0.8-0.088,1.062-0.266c0.262-0.176,0.393-0.41,0.393-0.702s-0.182-0.562-0.543-0.807c-0.358-0.246-0.883-0.476-1.565-0.691
	 	c-0.685-0.215-1.207-0.399-1.566-0.553c-0.361-0.154-0.772-0.377-1.234-0.669c-0.938-0.584-1.403-1.448-1.403-2.593
	 	s0.461-2.078,1.383-2.801c0.922-0.722,2.111-1.083,3.572-1.083c1.459,0,2.918,0.492,4.379,1.475l-1.291,2.306
	 	c-1.076-0.737-2.148-1.106-3.215-1.106c-1.068,0-1.603,0.292-1.603,0.876c0,0.322,0.168,0.576,0.506,0.761
	 	c0.338,0.184,0.898,0.399,1.685,0.646c0.783,0.245,1.34,0.434,1.67,0.563c0.33,0.131,0.727,0.335,1.188,0.611
	 	C226.592,28.124,227.023,28.996,227.023,30.217z M228.809,20.099c-0.393-0.393-0.588-0.872-0.588-1.44
	 	c0-0.568,0.195-1.049,0.588-1.44c0.394-0.393,0.871-0.588,1.441-0.588c0.567,0,1.049,0.195,1.438,0.588
	 	c0.394,0.392,0.588,0.872,0.588,1.44c0,0.568-0.194,1.048-0.588,1.44c-0.391,0.392-0.871,0.588-1.438,0.588
	 	C229.68,20.687,229.201,20.491,228.809,20.099z M231.979,34.078h-3.457v-12.4h3.457V34.078z M237.555,27.164v6.914h-3.457v-12.4
	 	h3.457v1.383c1.045-1.061,2.221-1.591,3.527-1.591c1.306,0,2.399,0.461,3.282,1.383c0.886,0.922,1.326,2.151,1.326,3.688v7.537
	 	h-3.457v-7.007c0-1.905-0.698-2.857-2.098-2.857c-0.691,0-1.295,0.249-1.809,0.749C237.813,25.461,237.555,26.195,237.555,27.164z
	 	 M256.846,31.98c-1.09,1.214-2.447,1.821-4.068,1.821c-1.62,0-2.987-0.55-4.102-1.648c-1.114-1.098-1.672-2.565-1.672-4.402
	 	c0-1.836,0.574-3.342,1.719-4.517c1.146-1.176,2.453-1.764,3.928-1.764c1.478,0,2.697,0.607,3.666,1.821v-1.637h3.457v10.81
	 	c0,1.105-0.19,2.089-0.576,2.95c-0.385,0.859-0.897,1.536-1.545,2.028c-1.274,1.014-2.78,1.521-4.518,1.521
	 	c-0.922,0-1.863-0.149-2.822-0.449c-0.961-0.3-1.803-0.726-2.522-1.279l1.336-2.604c1.137,0.86,2.34,1.291,3.606,1.291
	 	c1.268,0,2.271-0.315,3.008-0.945C256.477,34.346,256.846,33.348,256.846,31.98z M256.361,27.613c0-0.991-0.274-1.771-0.827-2.34
	 	c-0.556-0.568-1.238-0.853-2.054-0.853c-0.814,0-1.518,0.284-2.106,0.853c-0.593,0.568-0.89,1.345-0.89,2.328
	 	s0.289,1.778,0.865,2.386c0.576,0.606,1.279,0.91,2.109,0.91c0.828,0,1.52-0.3,2.073-0.899
	 	C256.086,29.399,256.361,28.604,256.361,27.613z M75.21,39.81c0,0.89-0.313,1.648-0.937,2.272L50.063,66.296l-4.547,4.549
	 	c-0.627,0.623-1.385,0.937-2.277,0.937c-0.889,0-1.646-0.313-2.272-0.937l-4.548-4.549L24.312,54.188
	 	c-0.626-0.623-0.936-1.383-0.936-2.273s0.31-1.65,0.936-2.273l4.548-4.549c0.623-0.624,1.382-0.936,2.273-0.936
	 	s1.65,0.313,2.272,0.936l9.832,9.865L65.18,32.987c0.623-0.625,1.381-0.936,2.273-0.936c0.89,0,1.646,0.311,2.272,0.936l4.548,4.548
	 	C74.898,38.16,75.21,38.917,75.21,39.81z M155.612,66.561h-24.289v7.207h17.228c-0.853,10.106-9.261,14.418-17.197,14.418
	 	c-10.155,0-19.017-7.99-19.017-19.189c0-10.91,8.446-19.311,19.038-19.311c8.172,0,12.986,5.209,12.986,5.209l5.048-5.227
	 	c0,0-6.479-7.211-18.292-7.211c-15.044,0-26.683,12.696-26.683,26.411c0,13.438,10.947,26.543,27.064,26.543
	 	c14.176,0,24.553-9.711,24.553-24.072c0-3.029-0.439-4.779-0.439-4.779V66.561z M175.508,61.339
	 	c-9.965,0-17.107,7.793-17.107,16.881c0,9.222,6.929,17.158,17.226,17.158c9.324,0,16.961-7.127,16.961-16.961
	 	C192.586,67.145,183.701,61.339,175.508,61.339z M175.586,88.698c-5.433,0-9.719-4.353-9.719-10.375c0-5.896,4.233-10.3,9.739-10.3
	 	c4.902,0,9.547,3.963,9.547,10.349C185.154,84.622,180.529,88.698,175.586,88.698z M212.719,61.339
	 	c-9.967,0-17.109,7.793-17.109,16.881c0,9.222,6.929,17.158,17.228,17.158c9.322,0,16.961-7.127,16.961-16.961
	 	C229.797,67.145,220.912,61.339,212.719,61.339z M212.795,88.698c-5.43,0-9.715-4.353-9.715-10.375c0-5.896,4.229-10.3,9.737-10.3
	 	c4.9,0,9.548,3.963,9.548,10.349C222.365,84.622,217.738,88.698,212.795,88.698z M258.393,65.264
	 	c-2.192-2.363-5.192-3.904-9.176-3.904v-0.002c-9.148,0-16.34,8.014-16.34,17.006c0,10.244,8.338,17.037,16.182,17.037
	 	c4.853,0,7.43-1.924,9.334-4.135v3.354c0,5.873-3.563,9.389-8.945,9.389c-5.198,0-7.807-3.864-8.713-6.059l-6.541,2.733
	 	c2.32,4.906,6.992,10.023,15.31,10.023c9.096,0,16.026-5.73,16.026-17.746V62.38h-7.137V65.264z M249.779,88.71
	 	c-4.877,0-9.413-3.959-9.413-10.248c0-6.532,4.713-10.435,9.514-10.435c4.485,0,9.092,3.83,9.092,10.371
	 	C258.971,85.046,254.375,88.71,249.779,88.71z M298.12,88.691c-4.784,0-6.983-2.621-8.348-5.157l22.82-9.47l-1.187-2.774
	 	c-2.203-5.435-7.346-9.974-14.149-9.974h-0.002c-8.629,0-15.875,6.865-15.875,16.996c0,10.72,8.076,17.078,16.702,17.078
	 	c7.201,0,11.621-3.938,14.261-7.471l-5.886-3.914C304.932,86.376,302.381,88.691,298.12,88.691z M297.553,67.861
	 	c3.11,0,5.348,1.652,6.299,3.636l-15.24,6.371C287.955,72.938,292.627,67.861,297.553,67.861z M270.502,44.216h7.496V94.38h-7.496
	 	V44.216z"/>
	 </svg>
