<svg version="1.1" class="dooca-svg" id="rapidssl" xmlns="http://www.w3.org/2000/svg" xmlns:xlink="http://www.w3.org/1999/xlink" x="0px" y="0px" width="100px"
	 viewBox="0 0 265 150" xml:space="preserve">
	 <path class="icon" d="M53.944,62.936c0,5.083-2.013,8.366-6.036,9.848L55.94,84.13h-8.713l-7.035-10.121h-4.901V84.13h-7.079V52.407
	 	h12.026c4.931,0,8.448,0.833,10.552,2.496C52.893,56.567,53.944,59.245,53.944,62.936z M45.412,66.703
	 	c0.877-0.787,1.316-2.035,1.316-3.744s-0.454-2.882-1.362-3.517c-0.907-0.636-2.496-0.953-4.765-0.953H35.29v9.395h5.174
	 	C42.886,67.883,44.534,67.49,45.412,66.703z M80.676,84.13h-6.399v-2.95c-1.755,2.209-3.926,3.313-6.513,3.313
	 	s-4.758-0.749-6.513-2.247c-1.755-1.497-2.632-3.494-2.632-5.99s0.907-4.364,2.723-5.605c1.815-1.24,4.296-1.861,7.443-1.861h5.083
	 	v-0.136c0-2.602-1.377-3.903-4.13-3.903c-1.181,0-2.429,0.235-3.744,0.704c-1.316,0.469-2.429,1.052-3.336,1.747L59.617,62.8
	 	c3.207-2.33,6.868-3.495,10.983-3.495c2.965,0,5.385,0.742,7.261,2.224c1.876,1.483,2.814,3.828,2.814,7.035L80.676,84.13
	 	L80.676,84.13z M73.822,74.826v-1.18h-4.266c-2.724,0-4.085,0.847-4.085,2.542c0,0.877,0.325,1.551,0.976,2.02
	 	c0.65,0.47,1.581,0.703,2.791,0.703s2.276-0.369,3.2-1.111C73.36,77.059,73.822,76.066,73.822,74.826z M101.098,59.305
	 	c2.843,0,5.378,1.188,7.602,3.563c2.224,2.375,3.335,5.363,3.335,8.963c0,3.601-1.111,6.61-3.335,9.03
	 	c-2.224,2.422-4.826,3.632-7.807,3.632s-5.378-1.195-7.193-3.585v12.025h-6.807V59.713H93.7v2.723
	 	C95.787,60.349,98.253,59.305,101.098,59.305z M93.609,71.944c0,1.982,0.551,3.601,1.656,4.856c1.104,1.257,2.442,1.884,4.017,1.884
	 	c1.572,0,2.949-0.627,4.13-1.884c1.18-1.255,1.77-2.867,1.77-4.833c0-1.966-0.575-3.615-1.725-4.947
	 	c-1.15-1.331-2.526-1.997-4.13-1.997s-2.958,0.658-4.062,1.974C94.16,68.314,93.609,69.963,93.609,71.944z M117.684,56.605
	 	c-0.771-0.771-1.157-1.717-1.157-2.836s0.386-2.065,1.157-2.837c0.772-0.771,1.717-1.157,2.837-1.157
	 	c1.119,0,2.065,0.386,2.837,1.157c0.771,0.772,1.157,1.718,1.157,2.837c0,1.12-0.386,2.065-1.157,2.836s-1.718,1.157-2.837,1.157
	 	C119.4,57.762,118.456,57.376,117.684,56.605z M123.924,84.13h-6.807V59.713h6.807V84.13z M140.148,84.493
	 	c-2.891,0-5.469-1.226-7.737-3.677c-2.27-2.45-3.404-5.491-3.404-9.123c0-3.631,1.104-6.604,3.313-8.918
	 	c2.208-2.314,4.795-3.472,7.761-3.472c2.965,0,5.385,1.044,7.261,3.131V50.456h6.809V84.13h-6.809v-3.222
	 	C145.436,83.298,143.038,84.493,140.148,84.493z M135.859,71.967c0,1.967,0.591,3.578,1.771,4.833
	 	c1.181,1.257,2.558,1.884,4.13,1.884c1.573,0,2.912-0.627,4.018-1.884c1.104-1.255,1.656-2.875,1.656-4.856s-0.553-3.63-1.656-4.947
	 	c-1.104-1.316-2.459-1.974-4.063-1.974s-2.98,0.666-4.13,1.997C136.436,68.352,135.859,70,135.859,71.967z M168.693,58.738
	 	c-0.68,0.56-1.021,1.301-1.021,2.224s0.416,1.657,1.248,2.201c0.832,0.545,2.753,1.188,5.765,1.929
	 	c3.01,0.742,5.348,1.854,7.012,3.336c1.664,1.483,2.496,3.646,2.496,6.49c0,2.846-1.066,5.15-3.199,6.921s-4.939,2.655-8.419,2.655
	 	c-5.022,0-9.546-1.86-13.569-5.583l4.221-5.173c3.42,2.995,6.582,4.493,9.485,4.493c1.3,0,2.321-0.278,3.063-0.84
	 	c0.74-0.56,1.11-1.315,1.11-2.27s-0.394-1.709-1.18-2.269c-0.787-0.56-2.345-1.127-4.675-1.702c-3.691-0.877-6.393-2.02-8.102-3.427
	 	c-1.709-1.407-2.563-3.615-2.563-6.626c0-3.01,1.081-5.333,3.245-6.966c2.162-1.633,4.863-2.451,8.101-2.451
	 	c2.118,0,4.235,0.363,6.354,1.089c2.117,0.726,3.963,1.755,5.535,3.086l-3.584,5.174c-2.754-2.088-5.599-3.131-8.533-3.131
	 	C170.307,57.898,169.375,58.178,168.693,58.738z M197.648,58.738c-0.682,0.56-1.021,1.301-1.021,2.224s0.416,1.657,1.248,2.201
	 	c0.832,0.545,2.753,1.188,5.764,1.929c3.012,0.742,5.348,1.854,7.012,3.336c1.664,1.483,2.496,3.646,2.496,6.49
	 	c0,2.846-1.065,5.15-3.199,6.921c-2.133,1.771-4.938,2.655-8.418,2.655c-5.022,0-9.547-1.86-13.569-5.583l4.222-5.173
	 	c3.418,2.995,6.58,4.493,9.484,4.493c1.3,0,2.32-0.278,3.063-0.84c0.74-0.56,1.111-1.315,1.111-2.27s-0.395-1.709-1.18-2.269
	 	c-0.787-0.56-2.346-1.127-4.676-1.702c-3.69-0.877-6.392-2.02-8.101-3.427c-1.71-1.407-2.563-3.615-2.563-6.626
	 	c0-3.01,1.082-5.333,3.244-6.966c2.164-1.633,4.863-2.451,8.102-2.451c2.118,0,4.236,0.363,6.354,1.089s3.963,1.755,5.537,3.086
	 	l-3.586,5.174c-2.754-2.088-5.598-3.131-8.531-3.131C199.26,57.898,198.329,58.178,197.648,58.738z M219.184,84.13V52.407h7.078
	 	v25.416h13.524v6.308L219.184,84.13L219.184,84.13z M71.339,36.11c0,1.272-0.467,2.292-1.404,3.06
	 	c-0.936,0.768-2.123,1.152-3.563,1.152c-0.961,0-1.961-0.172-3-0.516c-1.041-0.344-1.977-0.852-2.809-1.524l1.584-2.256
	 	c1.344,1.04,2.775,1.56,4.297,1.56c0.463,0,0.83-0.092,1.104-0.276c0.271-0.184,0.408-0.428,0.408-0.732
	 	c0-0.304-0.189-0.584-0.564-0.84c-0.377-0.256-0.92-0.496-1.633-0.72c-0.711-0.224-1.256-0.416-1.631-0.576
	 	c-0.377-0.16-0.805-0.392-1.285-0.696c-0.975-0.608-1.463-1.508-1.463-2.7c0-1.192,0.48-2.164,1.439-2.916
	 	c0.961-0.752,2.199-1.128,3.721-1.128c1.52,0,3.039,0.512,4.559,1.536l-1.344,2.4c-1.119-0.768-2.236-1.152-3.348-1.152
	 	c-1.112,0-1.668,0.304-1.668,0.912c0,0.336,0.176,0.6,0.527,0.792c0.354,0.192,0.938,0.417,1.752,0.672
	 	c0.816,0.256,1.396,0.452,1.74,0.588c0.344,0.136,0.756,0.348,1.236,0.636C70.892,33.93,71.339,34.838,71.339,36.11z M86.483,38.258
	 	c-1.457,1.376-3.164,2.064-5.125,2.064c-1.959,0-3.58-0.604-4.859-1.813s-1.92-2.828-1.92-4.86c0-2.032,0.652-3.648,1.957-4.848
	 	c1.303-1.2,2.844-1.8,4.619-1.8c1.775,0,3.283,0.536,4.523,1.608c1.24,1.072,1.861,2.544,1.861,4.416v1.92h-9.408
	 	c0.111,0.704,0.479,1.28,1.104,1.728c0.623,0.448,1.328,0.672,2.111,0.672c1.264,0,2.305-0.423,3.121-1.272L86.483,38.258z
	 	 M83.026,30.602c-0.496-0.416-1.1-0.624-1.811-0.624c-0.713,0-1.365,0.216-1.957,0.648c-0.592,0.432-0.936,1.016-1.031,1.752h5.664
	 	C83.812,31.61,83.522,31.018,83.026,30.602z M97.524,37.13c1.199,0,2.279-0.6,3.238-1.8l2.137,2.4
	 	c-1.664,1.728-3.465,2.592-5.4,2.592s-3.572-0.612-4.908-1.836c-1.336-1.224-2.004-2.824-2.004-4.8s0.676-3.584,2.029-4.824
	 	c1.352-1.24,2.955-1.86,4.811-1.86c0.928,0,1.869,0.192,2.82,0.576c0.951,0.384,1.789,0.952,2.508,1.704l-1.871,2.448
	 	c-0.416-0.496-0.924-0.88-1.523-1.152c-0.602-0.272-1.197-0.408-1.789-0.408c-0.943,0-1.756,0.308-2.436,0.924
	 	c-0.68,0.616-1.02,1.472-1.02,2.568c0,1.096,0.34,1.948,1.02,2.556C95.815,36.826,96.612,37.13,97.524,37.13z M114.827,34.178v-6.96
	 	h3.623V40.13h-3.623v-1.704c-0.896,1.264-2.053,1.896-3.469,1.896s-2.604-0.444-3.564-1.332c-0.959-0.888-1.439-2.204-1.439-3.948
	 	v-7.824h3.623v7.032c0,1.984,0.729,2.976,2.186,2.976c0.719,0,1.344-0.26,1.871-0.78C114.562,35.926,114.827,35.17,114.827,34.178z
	 	 M129.851,30.386c-1.072,0-1.871,0.38-2.4,1.14c-0.527,0.76-0.791,1.764-0.791,3.012v5.592h-3.6V27.218h3.6v1.704
	 	c0.463-0.528,1.043-0.976,1.74-1.344c0.695-0.368,1.404-0.56,2.123-0.576l0.025,3.384H129.851z M145.307,38.258
	 	c-1.455,1.376-3.164,2.064-5.123,2.064c-1.961,0-3.58-0.604-4.859-1.813c-1.281-1.208-1.92-2.828-1.92-4.86
	 	c0-2.032,0.65-3.648,1.955-4.848c1.305-1.2,2.844-1.8,4.619-1.8c1.776,0,3.285,0.536,4.524,1.608
	 	c1.24,1.072,1.858,2.544,1.858,4.416v1.92h-9.407c0.11,0.704,0.479,1.28,1.104,1.728c0.625,0.448,1.328,0.672,2.112,0.672
	 	c1.265,0,2.304-0.423,3.119-1.272L145.307,38.258z M141.852,30.602c-0.496-0.416-1.101-0.624-1.813-0.624
	 	c-0.711,0-1.363,0.216-1.955,0.648s-0.938,1.016-1.033,1.752h5.664C142.634,31.61,142.348,31.018,141.852,30.602z M155.327,40.322
	 	c-1.529,0-2.894-0.648-4.093-1.944c-1.2-1.296-1.801-2.904-1.801-4.824c0-1.92,0.584-3.492,1.752-4.716
	 	c1.168-1.224,2.535-1.836,4.104-1.836s2.849,0.552,3.84,1.656v-6.336h3.603V40.13h-3.603v-1.704
	 	C158.122,39.69,156.854,40.322,155.327,40.322z M153.061,33.698c0,1.041,0.311,1.893,0.936,2.556
	 	c0.623,0.664,1.352,0.996,2.184,0.996s1.539-0.332,2.123-0.996s0.877-1.52,0.877-2.568s-0.293-1.92-0.877-2.616
	 	c-0.584-0.696-1.299-1.044-2.146-1.044c-0.851,0-1.576,0.352-2.187,1.056C153.361,31.786,153.061,32.658,153.061,33.698z
	 	 M182.313,27.002c1.568,0,2.938,0.612,4.105,1.836c1.167,1.224,1.752,2.796,1.752,4.716c0,1.92-0.6,3.528-1.801,4.824
	 	c-1.199,1.296-2.564,1.944-4.092,1.944c-1.528,0-2.797-0.632-3.805-1.896v1.704h-3.601V22.322h3.601v6.336
	 	C179.466,27.554,180.747,27.002,182.313,27.002z M178.428,33.686c0,1.048,0.29,1.904,0.875,2.568
	 	c0.584,0.664,1.293,0.996,2.125,0.996c0.831,0,1.561-0.332,2.184-0.996c0.625-0.664,0.936-1.516,0.936-2.556
	 	c0-1.04-0.303-1.912-0.912-2.616c-0.607-0.704-1.336-1.056-2.184-1.056s-1.564,0.348-2.148,1.044
	 	C178.718,31.766,178.428,32.638,178.428,33.686z M194.025,45.218c-1.264,0-2.457-0.512-3.575-1.536l1.633-2.664
	 	c0.606,0.592,1.229,0.888,1.871,0.888c0.336,0,0.625-0.164,0.862-0.492c0.24-0.328,0.361-0.676,0.361-1.044
	 	c0-0.368-1.664-4.752-4.992-13.152h3.84l3.146,8.04l3.144-8.04h3.842l-6,15.216c-0.354,0.879-0.9,1.563-1.645,2.052
	 	C195.768,44.974,194.938,45.218,194.025,45.218z M225.354,120.984c-1.4,0-2.58,0.526-3.539,1.584
	 	c-0.961,1.056-1.439,2.332-1.439,3.828s0.479,2.768,1.439,3.814c0.959,1.048,2.139,1.571,3.539,1.571
	 	c1.399,0,2.58-0.523,3.541-1.571c0.959-1.048,1.438-2.318,1.438-3.814s-0.479-2.772-1.438-3.828
	 	C227.934,121.512,226.753,120.984,225.354,120.984z M1.81,104.271v26.938c0,10.249,8.327,18.563,18.595,18.563H244.96
	 	c10.271,0,18.597-8.313,18.597-18.563v-26.938H1.81z M52.715,137.576c0,0.512-0.179,0.945-0.537,1.305
	 	c-0.357,0.357-0.793,0.537-1.305,0.537H32.462c-0.512,0-0.946-0.18-1.305-0.537c-0.358-0.357-0.537-0.793-0.537-1.305v-11.047
	 	c0-0.512,0.179-0.946,0.537-1.305c0.358-0.357,0.793-0.537,1.305-0.537h0.612v-3.683c0-2.354,0.845-4.373,2.533-6.062
	 	c1.688-1.688,3.707-2.53,6.06-2.53c2.354,0,4.373,0.843,6.061,2.53c1.688,1.688,2.531,3.707,2.531,6.062v3.683h0.614
	 	c0.512,0,0.947,0.18,1.305,0.537c0.358,0.357,0.537,0.793,0.537,1.305V137.576z M76.603,133.668
	 	c-1.127,0.936-2.611,1.404-4.451,1.404c-2.656,0-5.049-0.984-7.176-2.952l2.23-2.736c1.809,1.584,3.48,2.376,5.018,2.376
	 	c0.688,0,1.227-0.146,1.619-0.443c0.393-0.297,0.588-0.695,0.588-1.2s-0.207-0.903-0.623-1.199c-0.418-0.296-1.24-0.596-2.473-0.899
	 	c-1.953-0.463-3.381-1.068-4.283-1.813c-0.904-0.744-1.357-1.912-1.357-3.505s0.572-2.819,1.717-3.685
	 	c1.143-0.863,2.572-1.295,4.283-1.295c1.121,0,2.24,0.191,3.361,0.575c1.119,0.384,2.096,0.929,2.928,1.632l-1.896,2.736
	 	c-1.457-1.104-2.961-1.656-4.512-1.656c-0.625,0-1.117,0.148-1.477,0.443c-0.359,0.297-0.539,0.689-0.539,1.177
	 	c0,0.488,0.219,0.876,0.66,1.164c0.439,0.288,1.455,0.628,3.047,1.021c1.592,0.393,2.828,0.979,3.709,1.765
	 	c0.879,0.782,1.318,1.928,1.318,3.432C78.294,131.514,77.731,132.732,76.603,133.668z M85.95,134.88h-3.744v-16.776h3.744V134.88z
	 	 M102.653,121.344h-4.752v13.536h-3.744v-13.536h-4.752v-3.24h13.248V121.344z M118.47,134.88h-12.36v-16.776h12.096v3.336h-8.354
	 	v3.457h7.514v3.191h-7.514v3.48h8.617L118.47,134.88L118.47,134.88z M140.009,133.668c-1.127,0.936-2.61,1.404-4.45,1.404
	 	c-2.657,0-5.05-0.984-7.177-2.952l2.23-2.736c1.809,1.584,3.48,2.376,5.018,2.376c0.688,0,1.228-0.146,1.619-0.443
	 	c0.394-0.297,0.588-0.695,0.588-1.2s-0.207-0.903-0.623-1.199c-0.418-0.296-1.239-0.596-2.473-0.899
	 	c-1.953-0.463-3.381-1.068-4.283-1.813c-0.904-0.744-1.357-1.912-1.357-3.505s0.572-2.819,1.717-3.685
	 	c1.143-0.863,2.573-1.295,4.284-1.295c1.121,0,2.239,0.191,3.36,0.575c1.119,0.384,2.097,0.929,2.929,1.632l-1.896,2.736
	 	c-1.457-1.104-2.961-1.656-4.512-1.656c-0.625,0-1.117,0.148-1.478,0.443c-0.358,0.297-0.539,0.689-0.539,1.177
	 	c0,0.488,0.22,0.876,0.66,1.164c0.438,0.288,1.455,0.628,3.047,1.021c1.593,0.393,2.828,0.979,3.709,1.765
	 	c0.88,0.782,1.318,1.928,1.318,3.432C141.7,131.514,141.139,132.732,140.009,133.668z M157.975,134.88h-12.359v-16.776h12.096v3.336
	 	h-8.354v3.457h7.514v3.191h-7.514v3.48h8.617V134.88z M176.691,132.288c-1.664,1.856-3.967,2.784-6.909,2.784
	 	c-2.466,0-4.533-0.816-6.205-2.448c-1.673-1.632-2.509-3.692-2.509-6.181c0-2.487,0.853-4.563,2.558-6.229
	 	c1.703-1.663,3.761-2.496,6.168-2.496c2.408,0,4.5,0.792,6.274,2.376l-1.942,2.81c-0.752-0.656-1.444-1.108-2.076-1.356
	 	c-0.633-0.248-1.315-0.372-2.053-0.372c-1.424,0-2.623,0.484-3.601,1.452c-0.977,0.968-1.465,2.244-1.465,3.828
	 	s0.469,2.853,1.404,3.804c0.936,0.952,2.053,1.428,3.348,1.428c1.297,0,2.377-0.248,3.24-0.744v-4.606h3.768V132.288
	 	L176.691,132.288z M194.887,127.488c0,2.432-0.673,4.3-2.019,5.604c-1.345,1.305-3.063,1.956-5.158,1.956
	 	c-2.099,0-3.819-0.655-5.174-1.968c-1.353-1.313-2.027-3.176-2.027-5.592v-9.385h3.744v9.264c0,1.345,0.313,2.404,0.937,3.181
	 	c0.625,0.776,1.465,1.164,2.521,1.164s1.892-0.388,2.508-1.164c0.615-0.776,0.925-1.836,0.925-3.181v-9.264h3.744V127.488z
	 	 M209.55,134.88l-3.721-5.353h-2.593v5.353h-3.743v-16.776h6.358c2.609,0,4.469,0.44,5.58,1.32c1.113,0.881,1.668,2.297,1.668,4.248
	 	c0,2.688-1.063,4.424-3.19,5.208l4.248,6H209.55z M231.604,132.564c-1.694,1.654-3.783,2.482-6.264,2.482s-4.568-0.828-6.264-2.482
	 	c-1.695-1.656-2.545-3.717-2.545-6.182c0-2.464,0.85-4.523,2.545-6.18s3.783-2.484,6.264-2.484s4.568,0.828,6.264,2.484
	 	c1.697,1.654,2.545,3.716,2.545,6.18C234.148,128.848,233.303,130.908,231.604,132.564z M208.564,121.824
	 	c-0.479-0.336-1.319-0.504-2.52-0.504h-2.809v4.968h2.736c1.278,0,2.149-0.208,2.614-0.624c0.466-0.416,0.697-1.076,0.697-1.98
	 	C209.286,122.78,209.046,122.16,208.564,121.824z M41.667,116.096c-1.355,0-2.512,0.48-3.472,1.438
	 	c-0.959,0.958-1.438,2.116-1.438,3.472v3.682h9.819v-3.682c0-1.355-0.479-2.514-1.438-3.472S43.021,116.096,41.667,116.096z"/>
	 <path class="bg" fill="none" stroke="#000000" stroke-width="2" stroke-miterlimit="10" d="M20.404,1.271h224.555
	 	c10.27,0,18.598,8.307,18.598,18.563v111.375c0,10.249-8.328,18.563-18.598,18.563H20.404c-10.268,0-18.595-8.313-18.595-18.563
	 	V19.833C1.81,9.577,10.137,1.271,20.404,1.271z"/>
</svg>
