<?xml version="1.0" encoding="utf-8"?>
<!-- Generator: Adobe Illustrator 19.0.0, SVG Export Plug-In . SVG Version: 6.00 Build 0)  -->
<svg version="1.1" id="Camada_1" xmlns="http://www.w3.org/2000/svg" xmlns:xlink="http://www.w3.org/1999/xlink" x="0px" y="0px"
	 viewBox="0 0 256 256" style="enable-background:new 0 0 256 256;" xml:space="preserve">
<path d="M79.3,225.1c-17.3,0-31.3-14-31.3-31.3s14-31.3,31.3-31.3s31.3,14,31.3,31.3S96.6,225.1,79.3,225.1z M79.3,164.5
	c-16.2,0-29.3,13.1-29.3,29.3s13.1,29.3,29.3,29.3s29.3-13.1,29.3-29.3S95.5,164.5,79.3,164.5z M79.3,217.5
	c-13.1,0-23.7-10.6-23.7-23.7s10.6-23.7,23.7-23.7s23.7,10.6,23.7,23.7S92.4,217.5,79.3,217.5z M79.3,171.1
	c-12.5,0-22.7,10.2-22.7,22.7s10.2,22.7,22.7,22.7s22.7-10.2,22.7-22.7S91.8,171.1,79.3,171.1z M79.3,201.3c-4.1,0-7.5-3.4-7.5-7.5
	s3.4-7.5,7.5-7.5s7.5,3.4,7.5,7.5S83.4,201.3,79.3,201.3z M79.3,188.3c-3,0-5.5,2.5-5.5,5.5s2.5,5.5,5.5,5.5s5.5-2.5,5.5-5.5
	S82.3,188.3,79.3,188.3z M79.3,187.8c-0.3,0-0.5-0.2-0.5-0.5v-0.8c0-0.3,0.2-0.5,0.5-0.5s0.5,0.2,0.5,0.5v0.8
	C79.8,187.6,79.6,187.8,79.3,187.8z M79.3,185c-0.3,0-0.5-0.2-0.5-0.5v-2c0-0.3,0.2-0.5,0.5-0.5s0.5,0.2,0.5,0.5v2
	C79.8,184.8,79.6,185,79.3,185z M79.3,181c-0.3,0-0.5-0.2-0.5-0.5v-2c0-0.3,0.2-0.5,0.5-0.5s0.5,0.2,0.5,0.5v2
	C79.8,180.8,79.6,181,79.3,181z M79.3,177c-0.3,0-0.5-0.2-0.5-0.5v-2c0-0.3,0.2-0.5,0.5-0.5s0.5,0.2,0.5,0.5v2
	C79.8,176.8,79.6,177,79.3,177z M79.3,173c-0.3,0-0.5-0.2-0.5-0.5v-2c0-0.3,0.2-0.5,0.5-0.5s0.5,0.2,0.5,0.5v2
	C79.8,172.8,79.6,173,79.3,173z M79.3,217.5c-0.3,0-0.5-0.2-0.5-0.5v-0.8c0-0.3,0.2-0.5,0.5-0.5s0.5,0.2,0.5,0.5v0.8
	C79.8,217.3,79.6,217.5,79.3,217.5z M79.3,214.7c-0.3,0-0.5-0.2-0.5-0.5v-2c0-0.3,0.2-0.5,0.5-0.5s0.5,0.2,0.5,0.5v2
	C79.8,214.5,79.6,214.7,79.3,214.7z M79.3,210.7c-0.3,0-0.5-0.2-0.5-0.5v-2c0-0.3,0.2-0.5,0.5-0.5s0.5,0.2,0.5,0.5v2
	C79.8,210.5,79.6,210.7,79.3,210.7z M79.3,206.7c-0.3,0-0.5-0.2-0.5-0.5v-2c0-0.3,0.2-0.5,0.5-0.5s0.5,0.2,0.5,0.5v2
	C79.8,206.5,79.6,206.7,79.3,206.7z M79.3,202.7c-0.3,0-0.5-0.2-0.5-0.5v-2c0-0.3,0.2-0.5,0.5-0.5s0.5,0.2,0.5,0.5v2
	C79.8,202.5,79.6,202.7,79.3,202.7z M83.8,189.7c-0.1,0-0.3,0-0.4-0.1c-0.2-0.2-0.2-0.5,0-0.7l0.6-0.6c0.2-0.2,0.5-0.2,0.7,0
	s0.2,0.5,0,0.7l-0.6,0.6C84.1,189.7,83.9,189.7,83.8,189.7z M85.8,187.7c-0.1,0-0.3,0-0.4-0.1c-0.2-0.2-0.2-0.5,0-0.7l1.4-1.4
	c0.2-0.2,0.5-0.2,0.7,0s0.2,0.5,0,0.7l-1.4,1.4C86.1,187.7,85.9,187.7,85.8,187.7z M88.6,184.9c-0.1,0-0.3,0-0.4-0.1
	c-0.2-0.2-0.2-0.5,0-0.7l1.4-1.4c0.2-0.2,0.5-0.2,0.7,0s0.2,0.5,0,0.7l-1.4,1.4C88.9,184.8,88.8,184.9,88.6,184.9z M91.5,182
	c-0.1,0-0.3,0-0.4-0.1c-0.2-0.2-0.2-0.5,0-0.7l1.4-1.4c0.2-0.2,0.5-0.2,0.7,0s0.2,0.5,0,0.7l-1.4,1.4C91.7,182,91.6,182,91.5,182z
	 M94.3,179.2c-0.1,0-0.3,0-0.4-0.1c-0.2-0.2-0.2-0.5,0-0.7l1.4-1.4c0.2-0.2,0.5-0.2,0.7,0s0.2,0.5,0,0.7l-1.4,1.4
	C94.5,179.2,94.4,179.2,94.3,179.2z M62.8,210.7c-0.1,0-0.3,0-0.4-0.1c-0.2-0.2-0.2-0.5,0-0.7l0.6-0.6c0.2-0.2,0.5-0.2,0.7,0
	s0.2,0.5,0,0.7l-0.6,0.6C63.1,210.7,62.9,210.7,62.8,210.7z M64.8,208.7c-0.1,0-0.3,0-0.4-0.1c-0.2-0.2-0.2-0.5,0-0.7l1.4-1.4
	c0.2-0.2,0.5-0.2,0.7,0s0.2,0.5,0,0.7l-1.4,1.4C65.1,208.7,64.9,208.7,64.8,208.7z M67.6,205.9c-0.1,0-0.3,0-0.4-0.1
	c-0.2-0.2-0.2-0.5,0-0.7l1.4-1.4c0.2-0.2,0.5-0.2,0.7,0s0.2,0.5,0,0.7l-1.4,1.4C67.9,205.8,67.8,205.9,67.6,205.9z M70.5,203
	c-0.1,0-0.3,0-0.4-0.1c-0.2-0.2-0.2-0.5,0-0.7l1.4-1.4c0.2-0.2,0.5-0.2,0.7,0s0.2,0.5,0,0.7l-1.4,1.4C70.7,203,70.6,203,70.5,203z
	 M73.3,200.2c-0.1,0-0.3,0-0.4-0.1c-0.2-0.2-0.2-0.5,0-0.7l1.4-1.4c0.2-0.2,0.5-0.2,0.7,0s0.2,0.5,0,0.7l-1.4,1.4
	C73.5,200.2,73.4,200.2,73.3,200.2z M102.5,194.3h-2c-0.3,0-0.5-0.2-0.5-0.5s0.2-0.5,0.5-0.5h2c0.3,0,0.5,0.2,0.5,0.5
	S102.8,194.3,102.5,194.3z M98.5,194.3h-2c-0.3,0-0.5-0.2-0.5-0.5s0.2-0.5,0.5-0.5h2c0.3,0,0.5,0.2,0.5,0.5S98.8,194.3,98.5,194.3z
	 M94.5,194.3h-2c-0.3,0-0.5-0.2-0.5-0.5s0.2-0.5,0.5-0.5h2c0.3,0,0.5,0.2,0.5,0.5S94.8,194.3,94.5,194.3z M90.5,194.3h-2
	c-0.3,0-0.5-0.2-0.5-0.5s0.2-0.5,0.5-0.5h2c0.3,0,0.5,0.2,0.5,0.5S90.8,194.3,90.5,194.3z M86.5,194.3h-0.8c-0.3,0-0.5-0.2-0.5-0.5
	s0.2-0.5,0.5-0.5h0.8c0.3,0,0.5,0.2,0.5,0.5S86.8,194.3,86.5,194.3z M72.8,194.3h-2c-0.3,0-0.5-0.2-0.5-0.5s0.2-0.5,0.5-0.5h2
	c0.3,0,0.5,0.2,0.5,0.5S73.1,194.3,72.8,194.3z M68.8,194.3h-2c-0.3,0-0.5-0.2-0.5-0.5s0.2-0.5,0.5-0.5h2c0.3,0,0.5,0.2,0.5,0.5
	S69.1,194.3,68.8,194.3z M64.8,194.3h-2c-0.3,0-0.5-0.2-0.5-0.5s0.2-0.5,0.5-0.5h2c0.3,0,0.5,0.2,0.5,0.5S65.1,194.3,64.8,194.3z
	 M60.8,194.3h-2c-0.3,0-0.5-0.2-0.5-0.5s0.2-0.5,0.5-0.5h2c0.3,0,0.5,0.2,0.5,0.5S61.1,194.3,60.8,194.3z M56.8,194.3H56
	c-0.3,0-0.5-0.2-0.5-0.5s0.2-0.5,0.5-0.5h0.8c0.3,0,0.5,0.2,0.5,0.5S57.1,194.3,56.8,194.3z M95.7,210.7c-0.1,0-0.3,0-0.4-0.1
	l-1.4-1.4c-0.2-0.2-0.2-0.5,0-0.7s0.5-0.2,0.7,0l1.4,1.4c0.2,0.2,0.2,0.5,0,0.7C96,210.7,95.8,210.7,95.7,210.7z M92.9,207.9
	c-0.1,0-0.3,0-0.4-0.1l-1.4-1.4c-0.2-0.2-0.2-0.5,0-0.7s0.5-0.2,0.7,0l1.4,1.4c0.2,0.2,0.2,0.5,0,0.7
	C93.1,207.8,93,207.9,92.9,207.9z M90,205c-0.1,0-0.3,0-0.4-0.1l-1.4-1.4c-0.2-0.2-0.2-0.5,0-0.7s0.5-0.2,0.7,0l1.4,1.4
	c0.2,0.2,0.2,0.5,0,0.7C90.3,205,90.2,205,90,205z M87.2,202.2c-0.1,0-0.3,0-0.4-0.1l-1.4-1.4c-0.2-0.2-0.2-0.5,0-0.7s0.5-0.2,0.7,0
	l1.4,1.4c0.2,0.2,0.2,0.5,0,0.7C87.5,202.2,87.3,202.2,87.2,202.2z M84.4,199.4c-0.1,0-0.3,0-0.4-0.1l-0.6-0.6
	c-0.2-0.2-0.2-0.5,0-0.7s0.5-0.2,0.7,0l0.6,0.6c0.2,0.2,0.2,0.5,0,0.7C84.6,199.3,84.5,199.4,84.4,199.4z M74.7,189.7
	c-0.1,0-0.3,0-0.4-0.1l-1.4-1.4c-0.2-0.2-0.2-0.5,0-0.7s0.5-0.2,0.7,0l1.4,1.4c0.2,0.2,0.2,0.5,0,0.7
	C75,189.7,74.8,189.7,74.7,189.7z M71.9,186.9c-0.1,0-0.3,0-0.4-0.1l-1.4-1.4c-0.2-0.2-0.2-0.5,0-0.7s0.5-0.2,0.7,0l1.4,1.4
	c0.2,0.2,0.2,0.5,0,0.7C72.1,186.8,72,186.9,71.9,186.9z M69,184c-0.1,0-0.3,0-0.4-0.1l-1.4-1.4c-0.2-0.2-0.2-0.5,0-0.7
	s0.5-0.2,0.7,0l1.4,1.4c0.2,0.2,0.2,0.5,0,0.7C69.3,184,69.2,184,69,184z M66.2,181.2c-0.1,0-0.3,0-0.4-0.1l-1.4-1.4
	c-0.2-0.2-0.2-0.5,0-0.7s0.5-0.2,0.7,0l1.4,1.4c0.2,0.2,0.2,0.5,0,0.7C66.5,181.2,66.3,181.2,66.2,181.2z M63.4,178.4
	c-0.1,0-0.3,0-0.4-0.1l-0.6-0.6c-0.2-0.2-0.2-0.5,0-0.7s0.5-0.2,0.7,0l0.6,0.6c0.2,0.2,0.2,0.5,0,0.7
	C63.6,178.3,63.5,178.4,63.4,178.4z M187.8,225.1c-17.3,0-31.3-14-31.3-31.3s14-31.3,31.3-31.3s31.3,14,31.3,31.3
	S205.1,225.1,187.8,225.1z M187.8,164.5c-16.2,0-29.3,13.1-29.3,29.3s13.1,29.3,29.3,29.3s29.3-13.1,29.3-29.3
	S204,164.5,187.8,164.5z M187.8,217.5c-13.1,0-23.7-10.6-23.7-23.7s10.6-23.7,23.7-23.7c13.1,0,23.7,10.6,23.7,23.7
	S200.9,217.5,187.8,217.5z M187.8,171.1c-12.5,0-22.7,10.2-22.7,22.7s10.2,22.7,22.7,22.7s22.7-10.2,22.7-22.7
	S200.3,171.1,187.8,171.1z M187.8,201.3c-4.1,0-7.5-3.4-7.5-7.5s3.4-7.5,7.5-7.5s7.5,3.4,7.5,7.5S191.9,201.3,187.8,201.3z
	 M187.8,188.3c-3,0-5.5,2.5-5.5,5.5s2.5,5.5,5.5,5.5s5.5-2.5,5.5-5.5S190.8,188.3,187.8,188.3z M187.8,187.8c-0.3,0-0.5-0.2-0.5-0.5
	v-0.8c0-0.3,0.2-0.5,0.5-0.5s0.5,0.2,0.5,0.5v0.8C188.3,187.6,188.1,187.8,187.8,187.8z M187.8,185c-0.3,0-0.5-0.2-0.5-0.5v-2
	c0-0.3,0.2-0.5,0.5-0.5s0.5,0.2,0.5,0.5v2C188.3,184.8,188.1,185,187.8,185z M187.8,181c-0.3,0-0.5-0.2-0.5-0.5v-2
	c0-0.3,0.2-0.5,0.5-0.5s0.5,0.2,0.5,0.5v2C188.3,180.8,188.1,181,187.8,181z M187.8,177c-0.3,0-0.5-0.2-0.5-0.5v-2
	c0-0.3,0.2-0.5,0.5-0.5s0.5,0.2,0.5,0.5v2C188.3,176.8,188.1,177,187.8,177z M187.8,173c-0.3,0-0.5-0.2-0.5-0.5v-2
	c0-0.3,0.2-0.5,0.5-0.5s0.5,0.2,0.5,0.5v2C188.3,172.8,188.1,173,187.8,173z M187.8,217.5c-0.3,0-0.5-0.2-0.5-0.5v-0.8
	c0-0.3,0.2-0.5,0.5-0.5s0.5,0.2,0.5,0.5v0.8C188.3,217.3,188.1,217.5,187.8,217.5z M187.8,214.7c-0.3,0-0.5-0.2-0.5-0.5v-2
	c0-0.3,0.2-0.5,0.5-0.5s0.5,0.2,0.5,0.5v2C188.3,214.5,188.1,214.7,187.8,214.7z M187.8,210.7c-0.3,0-0.5-0.2-0.5-0.5v-2
	c0-0.3,0.2-0.5,0.5-0.5s0.5,0.2,0.5,0.5v2C188.3,210.5,188.1,210.7,187.8,210.7z M187.8,206.7c-0.3,0-0.5-0.2-0.5-0.5v-2
	c0-0.3,0.2-0.5,0.5-0.5s0.5,0.2,0.5,0.5v2C188.3,206.5,188.1,206.7,187.8,206.7z M187.8,202.7c-0.3,0-0.5-0.2-0.5-0.5v-2
	c0-0.3,0.2-0.5,0.5-0.5s0.5,0.2,0.5,0.5v2C188.3,202.5,188.1,202.7,187.8,202.7z M192.4,189.7c-0.1,0-0.3,0-0.4-0.1
	c-0.2-0.2-0.2-0.5,0-0.7l0.5-0.5c0.2-0.2,0.5-0.2,0.7,0s0.2,0.5,0,0.7l-0.5,0.5C192.7,189.7,192.5,189.7,192.4,189.7z M194.3,187.7
	c-0.1,0-0.3,0-0.4-0.1c-0.2-0.2-0.2-0.5,0-0.7l1.4-1.4c0.2-0.2,0.5-0.2,0.7,0s0.2,0.5,0,0.7l-1.4,1.4
	C194.6,187.7,194.5,187.7,194.3,187.7z M197.2,184.9c-0.1,0-0.3,0-0.4-0.1c-0.2-0.2-0.2-0.5,0-0.7l1.4-1.4c0.2-0.2,0.5-0.2,0.7,0
	s0.2,0.5,0,0.7l-1.4,1.4C197.4,184.9,197.3,184.9,197.2,184.9z M200,182.1c-0.1,0-0.3,0-0.4-0.1c-0.2-0.2-0.2-0.5,0-0.7l1.4-1.4
	c0.2-0.2,0.5-0.2,0.7,0s0.2,0.5,0,0.7l-1.4,1.4C200.2,182,200.1,182.1,200,182.1z M202.8,179.2c-0.1,0-0.3,0-0.4-0.1
	c-0.2-0.2-0.2-0.5,0-0.7l1.4-1.4c0.2-0.2,0.5-0.2,0.7,0s0.2,0.5,0,0.7l-1.4,1.4C203,179.2,202.9,179.2,202.8,179.2z M171.4,210.7
	c-0.1,0-0.3,0-0.4-0.1c-0.2-0.2-0.2-0.5,0-0.7l0.5-0.5c0.2-0.2,0.5-0.2,0.7,0s0.2,0.5,0,0.7l-0.5,0.5
	C171.7,210.7,171.5,210.7,171.4,210.7z M173.3,208.7c-0.1,0-0.3,0-0.4-0.1c-0.2-0.2-0.2-0.5,0-0.7l1.4-1.4c0.2-0.2,0.5-0.2,0.7,0
	s0.2,0.5,0,0.7l-1.4,1.4C173.6,208.7,173.5,208.7,173.3,208.7z M176.2,205.9c-0.1,0-0.3,0-0.4-0.1c-0.2-0.2-0.2-0.5,0-0.7l1.4-1.4
	c0.2-0.2,0.5-0.2,0.7,0s0.2,0.5,0,0.7l-1.4,1.4C176.4,205.9,176.3,205.9,176.2,205.9z M179,203.1c-0.1,0-0.3,0-0.4-0.1
	c-0.2-0.2-0.2-0.5,0-0.7l1.4-1.4c0.2-0.2,0.5-0.2,0.7,0s0.2,0.5,0,0.7l-1.4,1.4C179.2,203,179.1,203.1,179,203.1z M181.8,200.2
	c-0.1,0-0.3,0-0.4-0.1c-0.2-0.2-0.2-0.5,0-0.7l1.4-1.4c0.2-0.2,0.5-0.2,0.7,0s0.2,0.5,0,0.7l-1.4,1.4
	C182,200.2,181.9,200.2,181.8,200.2z M211,194.3h-2c-0.3,0-0.5-0.2-0.5-0.5s0.2-0.5,0.5-0.5h2c0.3,0,0.5,0.2,0.5,0.5
	S211.3,194.3,211,194.3z M207,194.3h-2c-0.3,0-0.5-0.2-0.5-0.5s0.2-0.5,0.5-0.5h2c0.3,0,0.5,0.2,0.5,0.5S207.3,194.3,207,194.3z
	 M203,194.3h-2c-0.3,0-0.5-0.2-0.5-0.5s0.2-0.5,0.5-0.5h2c0.3,0,0.5,0.2,0.5,0.5S203.3,194.3,203,194.3z M199,194.3h-2
	c-0.3,0-0.5-0.2-0.5-0.5s0.2-0.5,0.5-0.5h2c0.3,0,0.5,0.2,0.5,0.5S199.3,194.3,199,194.3z M195,194.3h-0.7c-0.3,0-0.5-0.2-0.5-0.5
	s0.2-0.5,0.5-0.5h0.7c0.3,0,0.5,0.2,0.5,0.5S195.3,194.3,195,194.3z M181.3,194.3h-2c-0.3,0-0.5-0.2-0.5-0.5s0.2-0.5,0.5-0.5h2
	c0.3,0,0.5,0.2,0.5,0.5S181.6,194.3,181.3,194.3z M177.3,194.3h-2c-0.3,0-0.5-0.2-0.5-0.5s0.2-0.5,0.5-0.5h2c0.3,0,0.5,0.2,0.5,0.5
	S177.6,194.3,177.3,194.3z M173.3,194.3h-2c-0.3,0-0.5-0.2-0.5-0.5s0.2-0.5,0.5-0.5h2c0.3,0,0.5,0.2,0.5,0.5
	S173.6,194.3,173.3,194.3z M169.3,194.3h-2c-0.3,0-0.5-0.2-0.5-0.5s0.2-0.5,0.5-0.5h2c0.3,0,0.5,0.2,0.5,0.5
	S169.6,194.3,169.3,194.3z M165.3,194.3h-0.7c-0.3,0-0.5-0.2-0.5-0.5s0.2-0.5,0.5-0.5h0.7c0.3,0,0.5,0.2,0.5,0.5
	S165.6,194.3,165.3,194.3z M204.2,210.7c-0.1,0-0.3,0-0.4-0.1l-1.4-1.4c-0.2-0.2-0.2-0.5,0-0.7s0.5-0.2,0.7,0l1.4,1.4
	c0.2,0.2,0.2,0.5,0,0.7C204.5,210.7,204.3,210.7,204.2,210.7z M201.4,207.9c-0.1,0-0.3,0-0.4-0.1l-1.4-1.4c-0.2-0.2-0.2-0.5,0-0.7
	s0.5-0.2,0.7,0l1.4,1.4c0.2,0.2,0.2,0.5,0,0.7C201.6,207.8,201.5,207.9,201.4,207.9z M198.6,205c-0.1,0-0.3,0-0.4-0.1l-1.4-1.4
	c-0.2-0.2-0.2-0.5,0-0.7s0.5-0.2,0.7,0l1.4,1.4c0.2,0.2,0.2,0.5,0,0.7C198.8,205,198.7,205,198.6,205z M195.8,202.2
	c-0.1,0-0.3,0-0.4-0.1l-1.4-1.4c-0.2-0.2-0.2-0.5,0-0.7s0.5-0.2,0.7,0l1.4,1.4c0.2,0.2,0.2,0.5,0,0.7
	C196,202.1,195.9,202.2,195.8,202.2z M192.9,199.3c-0.1,0-0.3,0-0.4-0.1l-0.5-0.5c-0.2-0.2-0.2-0.5,0-0.7s0.5-0.2,0.7,0l0.5,0.5
	c0.2,0.2,0.2,0.5,0,0.7C193.2,199.3,193.1,199.3,192.9,199.3z M183.2,189.7c-0.1,0-0.3,0-0.4-0.1l-1.4-1.4c-0.2-0.2-0.2-0.5,0-0.7
	s0.5-0.2,0.7,0l1.4,1.4c0.2,0.2,0.2,0.5,0,0.7C183.5,189.7,183.3,189.7,183.2,189.7z M180.4,186.9c-0.1,0-0.3,0-0.4-0.1l-1.4-1.4
	c-0.2-0.2-0.2-0.5,0-0.7s0.5-0.2,0.7,0l1.4,1.4c0.2,0.2,0.2,0.5,0,0.7C180.6,186.8,180.5,186.9,180.4,186.9z M177.6,184
	c-0.1,0-0.3,0-0.4-0.1l-1.4-1.4c-0.2-0.2-0.2-0.5,0-0.7s0.5-0.2,0.7,0l1.4,1.4c0.2,0.2,0.2,0.5,0,0.7C177.8,184,177.7,184,177.6,184
	z M174.8,181.2c-0.1,0-0.3,0-0.4-0.1l-1.4-1.4c-0.2-0.2-0.2-0.5,0-0.7s0.5-0.2,0.7,0l1.4,1.4c0.2,0.2,0.2,0.5,0,0.7
	C175,181.1,174.9,181.2,174.8,181.2z M171.9,178.3c-0.1,0-0.3,0-0.4-0.1l-0.5-0.5c-0.2-0.2-0.2-0.5,0-0.7s0.5-0.2,0.7,0l0.5,0.5
	c0.2,0.2,0.2,0.5,0,0.7C172.2,178.3,172.1,178.3,171.9,178.3z M160.1,158.6H107c-26.5,0-48.9-19.9-52.1-46.2c-0.2-1.8,0.4-3.7,1.6-5
	c1.2-1.4,3-2.2,4.8-2.2h64.2v2H61.3c-1.3,0-2.5,0.5-3.3,1.5c-0.9,1-1.2,2.2-1.1,3.5c3.1,25.3,24.6,44.4,50.1,44.4h53.1
	c25.5,0,47-19.1,50.1-44.4c0-0.1,0-0.3,0-0.4s0-0.3,0-0.3l-0.3-0.9l1.9-0.6l0.3,0.9c0.1,0.4,0.1,0.8,0.1,1.1c0,0.1,0,0.2,0,0.3v0.1
	C209,138.7,186.6,158.6,160.1,158.6z M99.3,170.2l-0.7-0.7l12.5-12.4l0.7,0.7L99.3,170.2z M103.5,174.5l-0.7-0.7l16.1-16.1l0.7,0.7
	L103.5,174.5z M168.1,170.1l-12.5-12.4l0.7-0.7l12.5,12.4L168.1,170.1z M163.8,174.5l-16.1-16.1l0.7-0.7l16.1,16.1L163.8,174.5z
	 M109.3,195H157v1h-47.7V195z M109.3,189H157v1h-47.7V189z M133.7,107.5 M135.8,97.3l-1-0.1l3.3-60.7c0-1.2-0.4-2.4-1.2-3.2
	c-0.8-0.9-2-1.3-3.2-1.3s-2.3,0.5-3.2,1.3c-0.8,0.9-1.3,2-1.2,3.2l3.2,60.7l-1,0.1l-3.2-60.7c-0.1-1.5,0.5-2.9,1.5-4
	s2.4-1.6,3.9-1.6s2.9,0.6,3.9,1.6c1,1.1,1.6,2.5,1.5,4L135.8,97.3z M132.4,106.2 M209,111.7c-0.1,0-0.1,0-0.2,0l-66.4-3.3v-1
	l66.4,3.3c1.4,0,2.7-0.5,3.7-1.4c0.8-0.8,1.3-1.9,1.3-3s-0.5-2.2-1.3-3c-0.9-0.9-2.3-1.4-3.7-1.4l-66.4,3.2v-1l66.4-3.2
	c1.7-0.1,3.3,0.5,4.4,1.7c1,1,1.6,2.3,1.6,3.7s-0.6,2.7-1.6,3.7C212.1,111.1,210.6,111.7,209,111.7z M133,107.2 M139.7,99.6
	l-0.8-0.5L174,45.5c0.7-1,0.9-2.2,0.7-3.4c-0.3-1.2-1-2.2-2-2.8c-1.1-0.6-2.3-0.8-3.5-0.4c-1.1,0.3-2.1,1.1-2.6,2.1L137,97.9
	l-0.9-0.5l29.5-56.9c0.7-1.3,1.8-2.2,3.2-2.6c1.4-0.4,3-0.2,4.3,0.5s2.2,2,2.5,3.4c0.3,1.5,0,3-0.8,4.2L139.7,99.6z M132.6,106.7
	 M142.2,103.6l-0.4-0.9l57.4-28.6c1.1-0.6,1.9-1.5,2.2-2.7s0.2-2.4-0.4-3.4c-0.6-1.1-1.6-1.8-2.8-2.1c-1.2-0.3-2.4-0.1-3.4,0.6
	l-54.1,34.3l-0.5-0.8l54.1-34.3c1.2-0.8,2.8-1.1,4.2-0.7c1.5,0.4,2.7,1.3,3.4,2.6c0.7,1.3,0.9,2.8,0.5,4.2c-0.4,1.4-1.4,2.6-2.7,3.3
	L142.2,103.6z M133.5,116.2c-5.5,0-10-4.5-10-10s4.5-10,10-10s10,4.5,10,10S139,116.2,133.5,116.2z M133.5,98.2c-4.4,0-8,3.6-8,8
	s3.6,8,8,8s8-3.6,8-8S137.9,98.2,133.5,98.2z M157.5,42.3c-1.3,0-2.6-0.1-3.9-0.2c-0.3,0-0.5-0.3-0.4-0.5c0-0.3,0.3-0.5,0.5-0.4
	c1.3,0.1,2.5,0.2,3.8,0.2h0.1l0,0c0.3,0,0.5,0.2,0.5,0.5s-0.2,0.5-0.5,0.5L157.5,42.3z M161.7,42.1c-0.3,0-0.5-0.2-0.5-0.4
	c0-0.3,0.2-0.5,0.4-0.5c1.3-0.1,2.6-0.3,3.9-0.6c0.3-0.1,0.5,0.1,0.6,0.4c0.1,0.3-0.1,0.5-0.4,0.6C164.4,41.8,163,42,161.7,42.1
	L161.7,42.1z M149.7,41.6L149.7,41.6c-1.4-0.3-2.7-0.6-4-1c-0.3-0.1-0.4-0.4-0.3-0.6c0.1-0.3,0.4-0.4,0.6-0.3c1.2,0.4,2.5,0.7,3.8,1
	c0.3,0.1,0.4,0.3,0.4,0.6C150.2,41.4,150,41.6,149.7,41.6z M142.1,39.1c-0.1,0-0.1,0-0.2,0c-2.3-1-3.5-1.9-3.6-1.9
	c-0.2-0.2-0.3-0.5-0.1-0.7s0.5-0.3,0.7-0.1c0,0,1.2,0.9,3.4,1.9c0.3,0.1,0.4,0.4,0.3,0.7C142.5,39,142.3,39.1,142.1,39.1z M194,65.9
	c-0.1,0-0.1,0-0.2,0c-1.2-0.5-2.4-1.1-3.6-1.8c-0.2-0.1-0.3-0.5-0.2-0.7s0.5-0.3,0.7-0.2c1.2,0.7,2.3,1.3,3.5,1.8
	c0.3,0.1,0.4,0.4,0.3,0.6C194.3,65.7,194.2,65.9,194,65.9z M187.1,61.7c-0.1,0-0.2,0-0.3-0.1c-1-0.8-2-1.7-3-2.7
	c-0.2-0.2-0.2-0.5,0-0.7s0.5-0.2,0.7,0c1,1,2,1.9,2.9,2.7c0.2,0.2,0.2,0.5,0.1,0.7C187.4,61.7,187.3,61.7,187.1,61.7z M181.5,56.1
	c-0.1,0-0.3-0.1-0.4-0.2c-0.8-1-1.7-2-2.5-3.1c-0.2-0.2-0.1-0.5,0.1-0.7s0.5-0.1,0.7,0.1c0.8,1.1,1.7,2.1,2.5,3.1
	c0.2,0.2,0.2,0.5-0.1,0.7C181.7,56,181.6,56.1,181.5,56.1z M176.6,49.7c-0.2,0-0.3-0.1-0.4-0.2c-1.4-2-2.1-3.4-2.1-3.4
	c-0.1-0.2,0-0.5,0.2-0.7c0.2-0.1,0.5,0,0.7,0.2c0,0,0.8,1.4,2.1,3.4c0.2,0.2,0.1,0.5-0.1,0.7C176.8,49.7,176.7,49.7,176.6,49.7z
	 M208.3,101.2c-0.1,0-0.3-0.1-0.4-0.2c-0.8-1-1.6-2.2-2.3-3.3c-0.1-0.2-0.1-0.5,0.2-0.7c0.2-0.1,0.5-0.1,0.7,0.2
	c0.7,1.1,1.5,2.2,2.3,3.2c0.2,0.2,0.1,0.5-0.1,0.7C208.5,101.2,208.4,101.2,208.3,101.2z M204.1,94.4c-0.2,0-0.4-0.1-0.5-0.3
	c-0.6-1.2-1.1-2.4-1.6-3.7c-0.1-0.3,0-0.5,0.3-0.6s0.5,0,0.6,0.3c0.5,1.3,1,2.5,1.5,3.6C204.5,93.9,204.4,94.2,204.1,94.4
	C204.2,94.4,204.1,94.4,204.1,94.4z M201.3,86.9c-0.2,0-0.4-0.1-0.5-0.4c-0.4-1.3-0.7-2.6-0.9-3.9c-0.1-0.3,0.1-0.5,0.4-0.6
	s0.5,0.1,0.6,0.4c0.3,1.3,0.6,2.6,0.9,3.9c0.1,0.3-0.1,0.5-0.3,0.6C201.4,86.9,201.3,86.9,201.3,86.9z M199.7,79.1
	c-0.2,0-0.5-0.2-0.5-0.4c-0.3-2.5-0.3-4-0.3-4.1c0-0.3,0.2-0.5,0.5-0.5l0,0c0.3,0,0.5,0.2,0.5,0.5c0,0,0,1.5,0.3,3.9
	C200.3,78.8,200.1,79.1,199.7,79.1C199.8,79.1,199.7,79.1,199.7,79.1z M58.8,107l-5.5-3.9c-1.2-0.8-2.3-1.9-3.1-3.1L47,95.5l0.8-0.6
	l3.2,4.5c0.8,1.2,1.7,2.1,2.9,2.9l5.5,3.9L58.8,107z M42.9,99c-3.4,0-6.1-2.7-6.1-6.1s2.7-6.1,6.1-6.1s6.1,2.7,6.1,6.1
	S46.3,99,42.9,99z M42.9,88.8c-2.3,0-4.1,1.8-4.1,4.1s1.8,4.1,4.1,4.1s4.1-1.8,4.1-4.1S45.2,88.8,42.9,88.8z M55.2,110.6l-5.5-3.9
	c-2.2-1.6-3.8-3.3-5-5.1l-2.4-3.4l0.8-0.6l2.4,3.4c1.1,1.8,2.7,3.4,4.8,4.9l5.5,3.9L55.2,110.6z"/>
</svg>
