<?xml version="1.0" encoding="utf-8"?>
<!-- Generator: Adobe Illustrator 19.0.0, SVG Export Plug-In . SVG Version: 6.00 Build 0)  -->
<svg version="1.1" id="Camada_1" xmlns="http://www.w3.org/2000/svg" xmlns:xlink="http://www.w3.org/1999/xlink" x="0px" y="0px"
	 viewBox="0 0 256 256" style="enable-background:new 0 0 256 256;" xml:space="preserve">
<path d="M123,32L123,32c0.3,0,0.5-0.3,0.5-0.6c-0.1-1.1-0.1-2.6,0.9-3.6c0.8-0.8,2-1.3,3.6-1.3c0.3,0,0.5-0.2,0.5-0.5
	s-0.2-0.5-0.5-0.5c-2,0-3.4,0.5-4.4,1.6c-0.9,1-1.3,2.5-1.1,4.4C122.5,31.8,122.7,32,123,32z M127.5,107.4h-21.7
	c-0.3,0-0.5,0.2-0.5,0.5s0.2,0.5,0.5,0.5h21.7c0.3,0,0.5-0.2,0.5-0.5S127.8,107.4,127.5,107.4z M127.5,117.8h-21.7
	c-0.3,0-0.5,0.2-0.5,0.5s0.2,0.5,0.5,0.5h21.7c0.3,0,0.5-0.2,0.5-0.5S127.8,117.8,127.5,117.8z M127.5,128.3h-21.7
	c-0.3,0-0.5,0.2-0.5,0.5s0.2,0.5,0.5,0.5h21.7c0.3,0,0.5-0.2,0.5-0.5S127.8,128.3,127.5,128.3z M127.5,138.8h-21.7
	c-0.3,0-0.5,0.2-0.5,0.5s0.2,0.5,0.5,0.5h21.7c0.3,0,0.5-0.2,0.5-0.5S127.8,138.8,127.5,138.8z M127.5,149.3h-21.7
	c-0.3,0-0.5,0.2-0.5,0.5s0.2,0.5,0.5,0.5h21.7c0.3,0,0.5-0.2,0.5-0.5S127.8,149.3,127.5,149.3z M127.5,159.8h-21.7
	c-0.3,0-0.5,0.2-0.5,0.5s0.2,0.5,0.5,0.5h21.7c0.3,0,0.5-0.2,0.5-0.5S127.8,159.8,127.5,159.8z M127.5,170.2h-21.7
	c-0.3,0-0.5,0.2-0.5,0.5s0.2,0.5,0.5,0.5h21.7c0.3,0,0.5-0.2,0.5-0.5S127.8,170.2,127.5,170.2z M127.5,180.7h-21.7
	c-0.3,0-0.5,0.2-0.5,0.5s0.2,0.5,0.5,0.5h21.7c0.3,0,0.5-0.2,0.5-0.5S127.8,180.7,127.5,180.7z M101.2,215h-4
	c-0.3,0-0.5,0.2-0.5,0.5s0.2,0.5,0.5,0.5h4c0.3,0,0.5-0.2,0.5-0.5S101.5,215,101.2,215z M125.2,215h-4c-0.3,0-0.5,0.2-0.5,0.5
	s0.2,0.5,0.5,0.5h4c0.3,0,0.5-0.2,0.5-0.5S125.5,215,125.2,215z M93.2,215h-4c-0.3,0-0.5,0.2-0.5,0.5s0.2,0.5,0.5,0.5h4
	c0.3,0,0.5-0.2,0.5-0.5S93.5,215,93.2,215z M141.2,215h-4c-0.3,0-0.5,0.2-0.5,0.5s0.2,0.5,0.5,0.5h4c0.3,0,0.5-0.2,0.5-0.5
	S141.5,215,141.2,215z M133.2,215h-4c-0.3,0-0.5,0.2-0.5,0.5s0.2,0.5,0.5,0.5h4c0.3,0,0.5-0.2,0.5-0.5S133.5,215,133.2,215z
	 M148.2,215h-3c-0.3,0-0.5,0.2-0.5,0.5s0.2,0.5,0.5,0.5h3c0.3,0,0.5-0.2,0.5-0.5S148.5,215,148.2,215z M117.2,215h-4
	c-0.3,0-0.5,0.2-0.5,0.5s0.2,0.5,0.5,0.5h4c0.3,0,0.5-0.2,0.5-0.5S117.5,215,117.2,215z M109.2,215h-4c-0.3,0-0.5,0.2-0.5,0.5
	s0.2,0.5,0.5,0.5h4c0.3,0,0.5-0.2,0.5-0.5S109.5,215,109.2,215z M168.7,197.9c2.5-5.4,1.8-16.4,0.6-23.1l0,0
	c-1-5.6-1.9-9.6-2.7-12.8c-1.6-6.3-2.4-12.8-2.4-19.3V109c0-9.8-1.3-14.6-3.2-16.9c2.6-0.3,4.6-2.5,4.6-5.2V76.6
	c0-2.9-2.4-5.3-5.3-5.3h-4.6c-2.4,0-4.1-0.6-4.8-1.6c-0.8-1-0.5-2.3-0.3-2.8c2.7-8.2-0.1-15.2-8.3-20.7c-4.9-3.4-4.4-7.4-3.8-12.1
	c0.1-0.7,0.2-1.5,0.2-2.2c0.3-3.6-0.6-6.6-2.4-8.6c-1.9-2-4.7-3-8.4-3c-3.7,0-6.5,1-8.4,3s-2.7,5-2.4,8.6c0.1,0.9,0.2,1.7,0.3,2.6
	c0.5,4.5,1,8.4-3.8,11.7c-8.3,5.8-11,12.5-8.3,20.7c0.2,0.5,0.5,1.8-0.3,2.8s-2.4,1.6-4.9,1.6h-4.4c-3,0-5.3,2.3-5.3,5.3v10.3
	c0,2.7,1.9,4.8,4.5,5.2c-1.9,2.3-3.2,7.1-3.2,16.9v33.8c0,6.6-0.8,13.1-2.4,19.3c-0.8,3.1-1.7,7.2-2.7,12.8
	c-1.2,6.7-1.9,17.8,0.6,23.2c-4.1,1-7.1,4.7-7.1,9v8.4c0,11.2,9.1,20.3,20.3,20.3h55.2c11.2,0,20.4-9.1,20.5-20.3V207
	C176.1,202.5,172.9,198.8,168.7,197.9z M107.1,66.3c-2.4-7.3-0.1-13.2,7.5-18.5c5.8-4,5.2-9.1,4.7-13.6c-0.1-0.8-0.2-1.7-0.3-2.5
	c-0.2-2.1,0-5.1,1.9-7c1.5-1.6,3.8-2.4,6.9-2.4s5.4,0.8,6.9,2.4c1.8,2,2,4.9,1.9,7c-0.1,0.7-0.2,1.4-0.2,2.1
	c-0.6,4.6-1.2,9.9,4.7,14c7.5,5.1,10,11.1,7.5,18.5c-0.5,1.7-0.3,3.3,0.6,4.6c0.1,0.2,0.2,0.3,0.4,0.4h-43.4
	c0.1-0.1,0.2-0.3,0.3-0.4C107.5,69.7,107.7,68,107.1,66.3z M92.4,86.9V76.6c0-1.9,1.4-3.3,3.3-3.3h64.6c1.8,0,3.3,1.5,3.3,3.3v10.3
	c0,1.9-1.4,3.3-3.3,3.3h-3.7H99.3h-3.6C93.8,90.2,92.4,88.8,92.4,86.9z M89.2,197.7c-2.5-4.3-1.9-15.6-0.7-22.5
	c1-5.5,1.9-9.5,2.7-12.6c1.6-6.4,2.4-13,2.4-19.7V109c0-16.8,3.8-16.8,5.6-16.8h57.3c1.7,0,5.6,0,5.6,16.8v33.8
	c0,6.7,0.8,13.3,2.4,19.7c0.8,3.1,1.7,7.1,2.7,12.6c1.2,7,1.8,18.3-0.8,22.5L89.2,197.7L89.2,197.7L89.2,197.7z M174.1,215.4
	c-0.1,10.1-8.4,18.3-18.5,18.3h-55.2c-9.9,0-17.9-7.9-18.3-17.7h3.1c0.3,0,0.5-0.2,0.5-0.5s-0.2-0.5-0.5-0.5h-3.1v-8
	c0-4,3.3-7.3,7.3-7.3h77.4c4,0,7.3,3.3,7.3,7.3L174.1,215.4L174.1,215.4z"/>
</svg>
