<?xml version="1.0" encoding="utf-8"?>
<!-- Generator: Adobe Illustrator 19.0.0, SVG Export Plug-In . SVG Version: 6.00 Build 0)  -->
<svg version="1.1" id="Camada_1" xmlns="http://www.w3.org/2000/svg" xmlns:xlink="http://www.w3.org/1999/xlink" x="0px" y="0px"
	 viewBox="0 0 256 256" style="enable-background:new 0 0 256 256;" xml:space="preserve">
<style type="text/css">

</style>
<path d="M238.2,198.1l-23.9-72.4c-2-6.1-7.5-10.3-13.9-10.7c0.9-4.5,1.3-9.1,1.3-13.6c0.1-40.8-33-73.9-73.7-73.9
	s-73.8,33.1-73.8,73.8c0,4.6,0.5,9.2,1.3,13.6c-6.3,0.4-11.7,4.6-13.8,10.7L17.8,198c-2.4,7.3-1.2,15.2,3.3,21.5
	c4.6,6.3,11.6,9.9,19.4,9.9h174.9c7.8,0,14.8-3.6,19.4-9.9C239.4,213.3,240.6,205.5,238.2,198.1z M141.9,184.6
	c0,7.3-6,13.3-13.3,13.3c-7.3,0-13.3-6-13.3-13.3c0-1.5,0.3-3,0.7-4.5c3.7,3.6,8.4,5.4,13.2,5.4c4.3,0,8.7-1.5,12.2-4.5
	C141.7,182.1,141.9,183.3,141.9,184.6z M141.2,178.6c-6.6,6.6-17.3,6.6-23.9,0l-61.7-61.7c0.3,0,0.6,0,0.9,0h128.6l-0.5,0.5
	c-0.2,0.2-0.2,0.5,0,0.7c0.1,0.1,0.2,0.1,0.4,0.1s0.3,0,0.4-0.1l1.2-1.2h13c1,0,2.1,0.1,3,0.4L141.2,178.6z M69.2,101.3
	c0-32.4,26.4-58.8,58.8-58.8s58.8,26.4,58.8,58.8c0,4.4-0.6,9-1.6,13.6H70.8C69.7,110.6,69.2,106,69.2,101.3z M128,29.5
	c39.6,0,71.8,32.2,71.8,71.8c0,4.6-0.5,9.1-1.3,13.6h-11.3c1-4.6,1.6-9.2,1.6-13.6c0-33.5-27.3-60.8-60.8-60.8s-60.8,27.3-60.8,60.8
	c0,4.7,0.5,9.3,1.5,13.6H57.5c-0.9-4.5-1.3-9-1.3-13.6C56.2,61.8,88.4,29.5,128,29.5z M233.2,218.4c-4.2,5.8-10.7,9.1-17.8,9.1h-0.9
	c4.2-1.6,7.9-4.4,10.7-8.2c4.5-6.2,5.6-13.8,3.3-21l-9.8-29.8c-0.1-0.3-0.4-0.4-0.6-0.3c-0.3,0.1-0.4,0.4-0.3,0.6l9.8,29.7
	c2.3,6.9,1.1,14.2-3.1,20.1c-3.3,4.6-8.1,7.7-13.5,8.8H45.6c-5.4-1.1-10.1-4.2-13.5-8.8c-4.3-5.9-5.4-13.2-3.1-20.1l9.8-29.7
	c0.1-0.3-0.1-0.5-0.3-0.6c-0.3-0.1-0.5,0.1-0.6,0.3l-9.8,29.7c-2.4,7.2-1.2,14.9,3.3,21c2.8,3.8,6.5,6.6,10.7,8.2h-1.4
	c-7.1,0-13.6-3.3-17.8-9.1c-4.2-5.8-5.3-12.9-3.1-19.7l23.9-72.4c1.5-4.5,5.2-7.8,9.6-9l62,62c-0.6,1.7-1,3.5-1,5.2
	c0,7.9,6.4,14.3,14.3,14.3s14.3-6.4,14.3-14.3c0-1.6-0.2-3-0.6-4.3c0.1-0.1,0.2-0.2,0.3-0.3l62.1-62.1c3.6,1.5,6.5,4.5,7.8,8.4
	l23.9,72.4C238.5,205.5,237.4,212.6,233.2,218.4z M107.8,151.3c-0.2-0.2-0.5-0.2-0.7,0s-0.2,0.5,0,0.7l1.4,1.4
	c0.1,0.1,0.2,0.1,0.4,0.1s0.3,0,0.4-0.1c0.2-0.2,0.2-0.5,0-0.7L107.8,151.3z M99.3,142.8c-0.2-0.2-0.5-0.2-0.7,0s-0.2,0.5,0,0.7
	l1.4,1.4c0.1,0.1,0.2,0.1,0.4,0.1s0.3,0,0.4-0.1c0.2-0.2,0.2-0.5,0-0.7L99.3,142.8z M103.6,147c-0.2-0.2-0.5-0.2-0.7,0
	s-0.2,0.5,0,0.7l1.4,1.4c0.1,0.1,0.2,0.1,0.4,0.1s0.3,0,0.4-0.1c0.2-0.2,0.2-0.5,0-0.7L103.6,147z M117,160.4l-0.7-0.7
	c-0.2-0.2-0.5-0.2-0.7,0s-0.2,0.5,0,0.7l0.7,0.7c0.3,0.3,0.5,0.5,0.8,0.7c0.1,0.1,0.2,0.1,0.3,0.1c0.1,0,0.3-0.1,0.4-0.2
	c0.2-0.2,0.2-0.5,0-0.7C117.4,160.9,117.2,160.8,117,160.4z M95.1,138.6c-0.2-0.2-0.5-0.2-0.7,0s-0.2,0.5,0,0.7l1.4,1.4
	c0.1,0.1,0.2,0.1,0.4,0.1s0.3,0,0.4-0.1c0.2-0.2,0.2-0.5,0-0.7L95.1,138.6z M112,155.5c-0.2-0.2-0.5-0.2-0.7,0s-0.2,0.5,0,0.7
	l1.4,1.4c0.1,0.1,0.2,0.1,0.4,0.1s0.3,0,0.4-0.1c0.2-0.2,0.2-0.5,0-0.7L112,155.5z M73.9,117.3c-0.2-0.2-0.5-0.2-0.7,0
	s-0.2,0.5,0,0.7l1.4,1.4c0.1,0.1,0.2,0.1,0.4,0.1s0.3,0,0.4-0.1c0.2-0.2,0.2-0.5,0-0.7L73.9,117.3z M78.1,121.6
	c-0.2-0.2-0.5-0.2-0.7,0s-0.2,0.5,0,0.7l1.4,1.4c0.1,0.1,0.2,0.1,0.4,0.1s0.3,0,0.4-0.1c0.2-0.2,0.2-0.5,0-0.7L78.1,121.6z
	 M86.6,130.1c-0.2-0.2-0.5-0.2-0.7,0s-0.2,0.5,0,0.7l1.4,1.4c0.1,0.1,0.2,0.1,0.4,0.1s0.3,0,0.4-0.1c0.2-0.2,0.2-0.5,0-0.7
	L86.6,130.1z M82.3,125.8c-0.2-0.2-0.5-0.2-0.7,0s-0.2,0.5,0,0.7l1.4,1.4c0.1,0.1,0.2,0.1,0.4,0.1s0.3,0,0.4-0.1
	c0.2-0.2,0.2-0.5,0-0.7L82.3,125.8z M90.8,134.3c-0.2-0.2-0.5-0.2-0.7,0s-0.2,0.5,0,0.7l1.4,1.4c0.1,0.1,0.2,0.1,0.4,0.1
	s0.3,0,0.4-0.1c0.2-0.2,0.2-0.5,0-0.7L90.8,134.3z M122.6,164.3c-0.6-0.2-1.2-0.5-1.8-0.8c-0.2-0.1-0.5,0-0.7,0.2
	c-0.1,0.2,0,0.5,0.2,0.7c0.6,0.3,1.2,0.6,1.9,0.9c0.1,0,0.1,0,0.2,0c0.2,0,0.4-0.1,0.5-0.3C123,164.6,122.9,164.3,122.6,164.3z
	 M169.1,132.9l-1.4,1.4c-0.2,0.2-0.2,0.5,0,0.7c0.1,0.1,0.2,0.1,0.4,0.1c0.2,0,0.3,0,0.4-0.1l1.4-1.4c0.2-0.2,0.2-0.5,0-0.7
	C169.7,132.7,169.3,132.8,169.1,132.9z M164.8,137.3l-1.4,1.4c-0.2,0.2-0.2,0.5,0,0.7c0.1,0.1,0.2,0.1,0.4,0.1s0.3,0,0.4-0.1
	l1.4-1.4c0.2-0.2,0.2-0.5,0-0.7C165.4,137.1,165,137,164.8,137.3z M173.3,128.8l-1.4,1.4c-0.2,0.2-0.2,0.5,0,0.7
	c0.1,0.1,0.2,0.1,0.4,0.1s0.3,0,0.4-0.1l1.4-1.4c0.2-0.2,0.2-0.5,0-0.7C173.9,128.6,173.5,128.5,173.3,128.8z M181.8,120.3l-1.4,1.4
	c-0.2,0.2-0.2,0.5,0,0.7c0.1,0.1,0.2,0.1,0.4,0.1s0.3,0,0.4-0.1l1.4-1.4c0.2-0.2,0.2-0.5,0-0.7C182.4,120.1,182,120,181.8,120.3z
	 M177.6,124.4l-1.4,1.4c-0.2,0.2-0.2,0.5,0,0.7c0.1,0.1,0.2,0.1,0.4,0.1c0.2,0,0.3,0,0.4-0.1l1.4-1.4c0.2-0.2,0.2-0.5,0-0.7
	C178.2,124.2,177.8,124.3,177.6,124.4z M160.6,141.4l-1.4,1.4c-0.2,0.2-0.2,0.5,0,0.7c0.1,0.1,0.2,0.1,0.4,0.1c0.2,0,0.3,0,0.4-0.1
	l1.4-1.4c0.2-0.2,0.2-0.5,0-0.7C161.2,141.2,160.8,141.3,160.6,141.4z M156.3,145.6l-1.4,1.4c-0.2,0.2-0.2,0.5,0,0.7
	c0.1,0.1,0.2,0.1,0.4,0.1s0.3,0,0.4-0.1l1.4-1.4c0.2-0.2,0.2-0.5,0-0.7C156.9,145.4,156.5,145.4,156.3,145.6z M143.6,158.4l-1.4,1.4
	c-0.2,0.2-0.2,0.5,0,0.7c0.1,0.1,0.2,0.1,0.4,0.1c0.2,0,0.3,0,0.4-0.1l1.4-1.4c0.2-0.2,0.2-0.5,0-0.7
	C144.2,158.2,143.8,158.3,143.6,158.4z M139.3,162.4c-0.5,0.4-1.1,0.7-1.6,1c-0.2,0.1-0.3,0.4-0.2,0.7c0.1,0.2,0.3,0.3,0.4,0.3
	c0.1,0,0.2,0,0.2-0.1c0.6-0.3,1.2-0.7,1.7-1.1c0.2-0.2,0.3-0.5,0.1-0.7C139.8,162.3,139.5,162.3,139.3,162.4z M134,164.9
	c-0.6,0.2-1.3,0.3-1.9,0.4c-0.3,0-0.5,0.3-0.4,0.6c0,0.2,0.3,0.4,0.5,0.4h0.1c0.7-0.1,1.3-0.3,2-0.5c0.3-0.1,0.4-0.4,0.3-0.6
	C134.6,165,134.3,164.8,134,164.9z M128.3,165.5c-0.6,0-1.3-0.1-1.9-0.2c-0.3,0-0.5,0.1-0.6,0.4c-0.1,0.3,0.1,0.5,0.4,0.6
	c0.7,0.1,1.4,0.2,2,0.2l0,0c0.3,0,0.5-0.2,0.5-0.5C128.8,165.8,128.5,165.5,128.3,165.5z M152.1,149.9l-1.4,1.4
	c-0.2,0.2-0.2,0.5,0,0.7c0.1,0.1,0.2,0.1,0.4,0.1c0.2,0,0.3,0,0.4-0.1l1.4-1.4c0.2-0.2,0.2-0.5,0-0.7
	C152.7,149.7,152.3,149.8,152.1,149.9z M147.9,154.1l-1.4,1.4c-0.2,0.2-0.2,0.5,0,0.7c0.1,0.1,0.2,0.1,0.4,0.1c0.2,0,0.3,0,0.4-0.1
	l1.4-1.4c0.2-0.2,0.2-0.5,0-0.7S148.1,153.9,147.9,154.1z"/>
</svg>
