<?xml version="1.0" encoding="utf-8"?>
<!-- Generator: Adobe Illustrator 19.0.0, SVG Export Plug-In . SVG Version: 6.00 Build 0)  -->
<svg version="1.1" id="Camada_1" xmlns="http://www.w3.org/2000/svg" xmlns:xlink="http://www.w3.org/1999/xlink" x="0px" y="0px"
	 viewBox="0 0 256 256" style="enable-background:new 0 0 256 256;" xml:space="preserve">
<style type="text/css">
	
</style>
<path d="M127.9,41.2c-48,0-87,39-87,87s39,87,87,87s87-39,87-87S175.9,41.2,127.9,41.2z M116.7,212.4
	c0.2-0.9,0.4-1.8,0.6-2.8l-1-0.2c-0.2,1-0.4,2-0.7,2.9C92.4,209,72.2,196.2,59,178c0.2-0.9,0.4-1.9,0.7-2.8l-1-0.2
	c-0.2,0.7-0.3,1.3-0.5,2c-9.7-13.8-15.5-30.6-15.5-48.8c0-9.8,1.7-19.3,4.8-28.1c0.4-0.3,0.7-0.7,1.1-1l-0.5-0.6
	c6.7-17.8,19.2-32.8,35.1-42.7c16.5,7.1,31.3,16.8,44.1,28.5l0,0l0,0c4.9,4.5,9.5,9.2,13.8,14.3c-0.1,0.1-0.2,0.2-0.4,0.3l0.6,0.8
	c0.1-0.1,0.3-0.2,0.4-0.3c22.4,26.7,35.9,60.6,37,96.7c-14.2,10.7-31.9,17.1-51.1,17.1C124.1,213.2,120.4,212.9,116.7,212.4z
	 M180.9,194.6c-1.4-35.9-15-69.6-37.3-96.3c0.4-0.3,0.8-0.5,1.2-0.8l-0.5-0.9c-0.5,0.3-0.9,0.6-1.3,0.8l0,0
	c-4.3-5-8.9-9.8-13.8-14.3c0.5-0.4,1.1-0.7,1.6-1.1l-0.6-0.8c-0.6,0.4-1.2,0.8-1.8,1.2c-5.3-4.8-11-9.4-17-13.5
	c0.6-0.4,1.2-0.8,1.7-1.2l-0.6-0.8c-0.7,0.5-1.3,0.9-2,1.4c-7.8-5.3-16.2-10-25.1-13.9c12.5-7.2,27-11.4,42.4-11.4
	c1,0,1.9,0,2.9,0.1c-0.2,0.9-0.5,1.8-0.8,2.7l0.9,0.3c0.3-1,0.6-2,0.9-3c18.1,0.8,34.8,7.4,48.3,17.9c-0.7,0.1-1.3,0.2-2,0.3l0.2,1
	c1-0.1,1.9-0.3,2.9-0.4c16.5,13.3,27.9,32.6,30.9,54.6c-0.3-0.5-0.6-0.9-0.9-1.3l-0.8,0.6c0.7,1,1.4,2,2,3c0.3,3.1,0.5,6.2,0.5,9.3
	C212.9,155,200.4,179,180.9,194.6z M58.1,91.5l0.5,0.9c1.1-0.6,2.3-1.2,3.5-1.8l-0.4-0.9C60.5,90.3,59.3,90.9,58.1,91.5z
	 M121.6,59.2l0.7,0.7c0.9-1,1.8-2,2.6-3.1l-0.8-0.6C123.4,57.2,122.5,58.2,121.6,59.2z M126.5,53l0.8,0.5c0.7-1.2,1.4-2.3,2-3.5
	l-0.9-0.4C127.9,50.8,127.2,51.9,126.5,53z M115.7,64.6l0.6,0.8c1.1-0.9,2.1-1.7,3.1-2.6l-0.7-0.7C117.8,62.9,116.8,63.7,115.7,64.6
	z M102.5,73.4l0.5,0.9c1.2-0.7,2.4-1.3,3.5-2l-0.5-0.9C104.8,72,103.7,72.7,102.5,73.4z M80.5,82.9l0.3,0.9c1.3-0.4,2.5-0.9,3.8-1.4
	l-0.3-0.9C83.1,82,81.8,82.4,80.5,82.9z M98.9,75.2c-1.2,0.6-2.4,1.2-3.6,1.7l0.4,0.9c1.2-0.6,2.4-1.2,3.6-1.7L98.9,75.2z
	 M92.1,79.5l-0.4-0.9c-1.2,0.5-2.4,1-3.7,1.5l0.4,0.9C89.7,80.5,90.9,80,92.1,79.5z M51.3,95.8l0.6,0.8c1-0.8,2.1-1.5,3.3-2.2
	l-0.5-0.8C53.5,94.3,52.3,95,51.3,95.8z M75.4,85.6c0.5-0.2,1.1-0.3,1.6-0.5l-0.3-1c-0.5,0.2-1.1,0.3-1.6,0.5
	c-0.8,0.2-1.5,0.5-2.2,0.7l0.3,1C74,86,74.7,85.8,75.4,85.6z M69.5,87.6l-0.3-0.9c-1.3,0.5-2.5,1-3.7,1.5l0.4,0.9
	C67,88.5,68.2,88,69.5,87.6z M91.3,115.7l0.8,0.7c0.9-1,1.8-2,2.7-3l-0.7-0.7C93.1,113.7,92.2,114.7,91.3,115.7z M86.2,121.9
	l0.8,0.6c0.8-1,1.7-2.1,2.5-3.1l-0.8-0.6C87.8,119.8,87,120.8,86.2,121.9z M81.3,128.2l0.8,0.6c0.8-1.1,1.6-2.1,2.4-3.2l-0.8-0.6
	C82.9,126.1,82.1,127.2,81.3,128.2z M117.4,90.8c-0.5,0.4-1.1,0.9-1.6,1.3s-1,0.8-1.5,1.3l0.6,0.8c0.5-0.4,1-0.8,1.5-1.2
	c0.5-0.4,1.1-0.9,1.6-1.3L117.4,90.8z M158.7,66.5c-1.2,0.5-2.5,0.9-3.7,1.5l0.4,0.9c1.2-0.5,2.5-1,3.7-1.4L158.7,66.5z M124.3,86.7
	l-0.6-0.8c-1.1,0.8-2.1,1.6-3.2,2.4l0.6,0.8C122.2,88.3,123.2,87.5,124.3,86.7z M76.8,134.8l0.8,0.5c0.7-1.1,1.5-2.2,2.2-3.3
	l-0.8-0.6C78.2,132.6,77.5,133.7,76.8,134.8z M108.2,98.6l0.7,0.7c1-0.9,2-1.8,3-2.6l-0.7-0.8C110.2,96.9,109.2,97.7,108.2,98.6z
	 M102.4,104.1l0.7,0.7c0.9-0.9,1.9-1.8,2.9-2.8l-0.7-0.7C104.3,102.3,103.3,103.2,102.4,104.1z M96.7,109.8l0.7,0.7
	c0.9-1,1.8-1.9,2.8-2.9l-0.7-0.7C98.6,107.9,97.6,108.8,96.7,109.8z M62.3,163.5l0.9,0.3c0.4-1.2,0.9-2.5,1.4-3.7l-0.9-0.4
	C63.2,161,62.8,162.2,62.3,163.5z M174.1,62.1c-1.3,0.3-2.6,0.5-3.9,0.9l0.2,1c1.3-0.3,2.6-0.6,3.9-0.9L174.1,62.1z M72.5,141.7
	l0.9,0.5c0.7-1.1,1.3-2.3,2-3.4l-0.9-0.5C73.9,139.4,73.2,140.5,72.5,141.7z M133.6,79.1l0.5,0.8c1.1-0.7,2.3-1.4,3.4-2.1L137,77
	C135.9,77.6,134.8,78.3,133.6,79.1z M140.5,75l0.5,0.9c1.2-0.7,2.3-1.3,3.5-1.9l-0.5-1C142.9,73.6,141.7,74.3,140.5,75z M59.8,171.1
	l1,0.3c0.4-1.3,0.8-2.5,1.2-3.8l-1-0.3C60.6,168.5,60.2,169.8,59.8,171.1z M65.3,156l0.9,0.4c0.5-1.2,1.1-2.4,1.6-3.6l-0.9-0.4
	C66.4,153.6,65.8,154.8,65.3,156z M151.7,70.4l-0.4-0.9c-1.2,0.5-2.4,1.1-3.6,1.7l0.4,0.9C149.3,71.5,150.5,71,151.7,70.4z
	 M68.7,148.7l0.9,0.5c0.6-1.2,1.2-2.3,1.9-3.5l-0.9-0.5C69.9,146.4,69.3,147.6,68.7,148.7z M166.3,64c-1.3,0.4-2.6,0.8-3.8,1.2
	l0.3,1c1.3-0.4,2.5-0.8,3.8-1.2L166.3,64z M205.5,109.6c0.9,1,1.7,2,2.5,3.1l0.8-0.6c-0.8-1.1-1.7-2.1-2.6-3.1L205.5,109.6z
	 M147.9,94.8l0.4,0.9c1.2-0.5,2.4-1,3.7-1.5l-0.3-0.9C150.4,93.7,149.1,94.2,147.9,94.8z M155.5,92l0.3,1c1.3-0.3,2.6-0.6,3.9-0.9
	l-0.2-1C158.1,91.4,156.8,91.7,155.5,92z M134.9,104.3l0.7,0.7c0.9-1,1.8-1.9,2.8-2.8l-0.7-0.7C136.8,102.3,135.8,103.3,134.9,104.3
	z M163.5,90.6l0.1,1c1.3-0.1,2.6-0.2,4-0.2v-1C166.2,90.4,164.8,90.4,163.5,90.6z M130.3,110.9l0.9,0.5c0.7-1.2,1.4-2.3,2.1-3.3
	l-0.8-0.6C131.7,108.5,130.9,109.7,130.3,110.9z M199.9,104c1,0.9,1.9,1.8,2.9,2.7l0.7-0.7c-1-1-1.9-1.9-2.9-2.8L199.9,104z
	 M126.9,118.2l0.9,0.3c0.5-1.3,1-2.5,1.5-3.7l-0.9-0.4C127.9,115.7,127.4,116.9,126.9,118.2z M193.6,99.1c1.1,0.7,2.2,1.5,3.2,2.3
	l0.6-0.8c-1.1-0.8-2.2-1.6-3.3-2.4L193.6,99.1z M171.5,91.4c1.3,0.1,2.6,0.2,3.9,0.5l0.2-1c-1.3-0.2-2.7-0.4-4-0.5L171.5,91.4z
	 M179.3,92.7c1.3,0.3,2.5,0.7,3.8,1.1l0.3-0.9c-1.3-0.4-2.6-0.8-3.9-1.2L179.3,92.7z M117.1,205.5l1,0.2c0.2-1.3,0.4-2.6,0.6-4
	l-1-0.1C117.6,202.9,117.4,204.2,117.1,205.5z M186.7,95.3c1.2,0.5,2.4,1.1,3.5,1.8l0.5-0.9c-1.2-0.7-2.4-1.3-3.6-1.8L186.7,95.3z
	 M119.7,181.7l1,0.1c0.1-1.3,0.2-2.6,0.3-4l-1-0.1C119.9,179.1,119.8,180.4,119.7,181.7z M120.2,173.7l1,0.1c0.1-1.3,0.1-2.6,0.2-4
	h-1C120.4,171.1,120.3,172.4,120.2,173.7z M118.3,197.6l1,0.1c0.2-1.3,0.3-2.6,0.4-4l-1-0.1C118.6,195,118.4,196.3,118.3,197.6z
	 M119.1,189.7l1,0.1c0.1-1.3,0.2-2.6,0.3-4l-1-0.1C119.3,187,119.2,188.4,119.1,189.7z M120.6,165.7h1c0.1-1.3,0.1-2.6,0.2-4h-1
	C120.7,163.1,120.7,164.4,120.6,165.7z M120.9,157.7h1c0.1-1.4,0.1-2.7,0.2-4l-1-0.1C121,155,121,156.4,120.9,157.7z M122,141.8
	l1,0.1c0.1-1.4,0.3-2.7,0.5-4l-1-0.1C122.4,139.1,122.2,140.4,122,141.8z M124.7,125.9l1,0.2c0.3-1.3,0.7-2.6,1-3.8l-1-0.3
	C125.3,123.3,125,124.6,124.7,125.9z M123.1,133.8l1,0.2c0.2-1.3,0.5-2.7,0.7-3.9l-1-0.2C123.6,131.1,123.3,132.5,123.1,133.8z
	 M121.3,149.7l1,0.1c0.1-1.4,0.2-2.7,0.3-4l-1-0.1C121.5,147,121.4,148.4,121.3,149.7z"/>
</svg>
