<?xml version="1.0" encoding="utf-8"?>
<!-- Generator: Adobe Illustrator 19.0.0, SVG Export Plug-In . SVG Version: 6.00 Build 0)  -->
<svg version="1.1" id="Camada_1" xmlns="http://www.w3.org/2000/svg" xmlns:xlink="http://www.w3.org/1999/xlink" x="0px" y="0px"
	 viewBox="0 0 256 256" style="enable-background:new 0 0 256 256;" xml:space="preserve">
<style type="text/css">
	
</style>
<path id="XMLID_1_" d="M103.5,213.8L103.5,213.8c-0.3,0-0.4-0.2-0.5-0.4l-13.6-68.2l-4.2-20.8c-0.1-0.3,0.1-0.5,0.4-0.6
	s0.5,0.1,0.6,0.4l4.2,20.8l13.3,66.5l32-87.6c0.1-0.2,0.3-0.3,0.5-0.3l0,0c0.2,0,0.4,0.1,0.5,0.3l22.1,58.2c0.1,0.3,0,0.5-0.3,0.6
	c-0.3,0.1-0.5,0-0.6-0.3l-21.6-56.9l-32.1,88C103.9,213.7,103.7,213.8,103.5,213.8z M134.4,225.8L134.4,225.8
	c-0.2,0-0.4-0.1-0.5-0.3l-34.4-99.7L91,148.7c-0.1,0.3-0.4,0.4-0.6,0.3c-0.3-0.1-0.4-0.4-0.3-0.6l9-24.2c0.1-0.2,0.2-0.3,0.5-0.3
	c0.2,0,0.4,0.1,0.5,0.3l34.5,99.7l30.2-76.1c0.1-0.3,0.4-0.4,0.6-0.3c0.3,0.1,0.4,0.4,0.3,0.6L135,225.5
	C134.8,225.7,134.6,225.8,134.4,225.8z M151.1,218.2c-0.2,0-0.4-0.1-0.5-0.3l-33.1-92.1l-19.9,55.8c-0.1,0.3-0.4,0.4-0.6,0.3
	c-0.3-0.1-0.4-0.4-0.3-0.6l20.4-57.1c0.1-0.2,0.3-0.3,0.5-0.3l0,0c0.2,0,0.4,0.1,0.5,0.3l33,91.7l18.4-91.9c0.1-0.3,0.3-0.4,0.6-0.4
	c0.3,0.1,0.4,0.3,0.4,0.6l-18.8,93.7C151.5,218,151.4,218.2,151.1,218.2L151.1,218.2z M117,225.8L117,225.8c-0.2,0-0.4-0.1-0.5-0.3
	l-26.2-77.4c-0.1-0.3,0.1-0.5,0.3-0.6c0.3-0.1,0.5,0.1,0.6,0.3l25.8,76.1l37.6-100c0.1-0.2,0.3-0.3,0.5-0.3c0.2,0,0.4,0.1,0.5,0.3
	l10,23.9c0.1,0.3,0,0.5-0.3,0.7c-0.3,0.1-0.5,0-0.7-0.3l-9.5-22.7l-37.7,100.1C117.4,225.7,117.2,225.8,117,225.8z M174.3,125h-93
	c-3.5,0-6.4-2.9-6.4-6.4s2.9-6.4,6.4-6.4h92.9c3.5,0,6.4,2.9,6.4,6.4C180.6,122.2,177.8,125,174.3,125z M81.3,114.2
	c-2.4,0-4.4,2-4.4,4.4s2,4.4,4.4,4.4h93c2.4,0,4.3-1.9,4.3-4.4c0-2.4-2-4.4-4.4-4.4H81.3z M204,149.7H51.5c-4.3,0-7.9-3.6-7.9-7.9
	V38.9c0-4.3,3.6-7.9,7.9-7.9H204c4.3,0,7.9,3.6,7.9,7.9v102.8c0.1,2.1-0.7,4.1-2.2,5.6C208.2,148.9,206.2,149.7,204,149.7z M51.5,33
	c-3.2,0-5.9,2.7-5.9,5.9v102.9c0,3.2,2.7,5.9,5.9,5.9H204c1.7,0,3.2-0.6,4.3-1.8c1.1-1.1,1.6-2.6,1.6-4.2V38.9
	c0-3.2-2.7-5.9-5.9-5.9H51.5z M195.5,138.5h-3v-1h3c0.3,0,0.6,0,0.9-0.1l0.2,1C196.2,138.5,195.9,138.5,195.5,138.5z M188.5,138.5
	h-4v-1h4V138.5z M180.5,138.5h-4v-1h4V138.5z M172.5,138.5h-4v-1h4V138.5z M164.5,138.5h-4v-1h4V138.5z M156.5,138.5h-4v-1h4V138.5z
	 M148.5,138.5h-4v-1h4V138.5z M140.5,138.5h-4v-1h4V138.5z M132.5,138.5h-4v-1h4V138.5z M124.5,138.5h-4v-1h4V138.5z M116.5,138.5
	h-4v-1h4V138.5z M108.5,138.5h-4v-1h4V138.5z M100.5,138.5h-4v-1h4V138.5z M92.5,138.5h-4v-1h4V138.5z M84.5,138.5h-4v-1h4V138.5z
	 M76.5,138.5h-4v-1h4V138.5z M68.5,138.5h-4v-1h4V138.5z M60.5,138.5h-2.6c-0.5,0-1.1-0.1-1.6-0.2l0.3-1c0.4,0.1,0.8,0.2,1.3,0.2
	h2.6C60.5,137.5,60.5,138.5,60.5,138.5z M200,135.8l-0.9-0.5c0.4-0.6,0.5-1.3,0.5-2v-1.6h1v1.6C200.7,134.2,200.5,135.1,200,135.8z
	 M53.2,135.4c-0.3-0.7-0.5-1.4-0.5-2.1v-2.1h1v2.1c0,0.6,0.1,1.1,0.4,1.7L53.2,135.4z M200.7,127.7h-1v-4h1V127.7z M53.7,127.2h-1
	v-4h1V127.2z M200.7,119.7h-1v-4h1V119.7z M53.7,119.2h-1v-4h1V119.2z M200.7,111.7h-1v-4h1V111.7z M53.7,111.2h-1v-4h1V111.2z
	 M200.7,103.7h-1v-4h1V103.7z M53.7,103.2h-1v-4h1V103.2z M200.7,95.7h-1v-4h1V95.7z M53.7,95.2h-1v-4h1V95.2z M200.7,87.7h-1v-4h1
	V87.7z M53.7,87.2h-1v-4h1V87.2z M200.7,79.7h-1v-4h1V79.7z M53.7,79.2h-1v-4h1V79.2z M200.7,71.7h-1v-4h1V71.7z M53.7,71.2h-1v-4h1
	V71.2z M200.7,63.7h-1v-4h1V63.7z M53.7,63.2h-1v-4h1V63.2z M200.7,55.7h-1v-4h1V55.7z M53.7,55.2h-1v-4h1V55.2z M200.7,47.7h-1
	v-3.4c0-0.2,0-0.3-0.1-0.5l1-0.2c0,0.2,0.1,0.4,0.1,0.7V47.7z M53.7,47.2h-1v-1.9c0-0.8,0.2-1.5,0.5-2.2l0.9,0.4
	c-0.3,0.6-0.4,1.2-0.4,1.8V47.2z M56.8,41.3l-0.3-1c0.5-0.1,0.9-0.2,1.4-0.2h2.7v1h-2.7C57.5,41.1,57.1,41.2,56.8,41.3z M197.5,41.2
	c-0.3-0.1-0.6-0.1-0.9-0.1h-4v-1h4c0.4,0,0.8,0.1,1.2,0.2L197.5,41.2z M188.6,41.1h-4v-1h4V41.1z M180.6,41.1h-4v-1h4V41.1z
	 M172.6,41.1h-4v-1h4V41.1z M164.6,41.1h-4v-1h4V41.1z M156.6,41.1h-4v-1h4V41.1z M148.6,41.1h-4v-1h4V41.1z M140.6,41.1h-4v-1h4
	V41.1z M132.6,41.1h-4v-1h4V41.1z M124.6,41.1h-4v-1h4V41.1z M116.6,41.1h-4v-1h4V41.1z M108.6,41.1h-4v-1h4V41.1z M100.6,41.1h-4
	v-1h4V41.1z M92.6,41.1h-4v-1h4V41.1z M84.6,41.1h-4v-1h4V41.1z M76.6,41.1h-4v-1h4V41.1z M68.6,41.1h-4v-1h4V41.1z M88.9,113.4h-1
	v-46c0-2.8,2.3-5.1,5.1-5.1h69.4c2.8,0,5.1,2.3,5.1,5.1v45.9h-1V67.4c0-2.3-1.8-4.1-4.1-4.1H93c-2.3,0-4.1,1.8-4.1,4.1V113.4z
	 M158.9,112.5h-1V74.3c0-1.3-1.1-2.4-2.4-2.4h-55.4c-1.3,0-2.4,1.1-2.4,2.4v38.1h-1V74.3c0-1.9,1.5-3.4,3.4-3.4h55.4
	c1.9,0,3.4,1.5,3.4,3.4V112.5z"/>
</svg>
