<?xml version="1.0" encoding="utf-8"?>
<!-- Generator: Adobe Illustrator 19.0.0, SVG Export Plug-In . SVG Version: 6.00 Build 0)  -->
<svg version="1.1" id="Camada_1" xmlns="http://www.w3.org/2000/svg" xmlns:xlink="http://www.w3.org/1999/xlink" x="0px" y="0px"
	 viewBox="0 0 256 256" style="enable-background:new 0 0 256 256;" xml:space="preserve">
<style type="text/css">
	
</style>
<path d="M24.2,193.5c0.9,1,1.9,1.9,3,2.8l0.6-0.8c-1-0.8-2-1.8-2.9-2.7L24.2,193.5z M63.6,126c-1.3-0.3-2.6-0.6-4-0.8
	l-0.2,1c1.3,0.2,2.6,0.5,3.9,0.8L63.6,126z M45.1,205.1c1.3,0.3,2.7,0.5,4,0.6l0.1-1c-1.3-0.1-2.6-0.3-3.9-0.6L45.1,205.1z
	 M68.6,201.9l0.4,0.9c1.2-0.5,2.5-1.1,3.7-1.7l-0.5-0.9C71,200.8,69.8,201.4,68.6,201.9z M53.4,204.9h-0.2v1h0.2
	c1.3,0,2.6-0.1,3.8-0.2l-0.1-1C55.9,204.8,54.6,204.9,53.4,204.9z M32.4,130.5c-1.1,0.7-2.3,1.5-3.4,2.3l0.6,0.8
	c1-0.8,2.1-1.5,3.3-2.2L32.4,130.5z M30.3,198.7c1.1,0.8,2.3,1.5,3.4,2.1l0.5-0.9c-1.1-0.6-2.3-1.3-3.4-2.1L30.3,198.7z M37.4,202.6
	c1.2,0.5,2.5,1,3.8,1.4l0.3-1c-1.2-0.4-2.5-0.8-3.7-1.4L37.4,202.6z M39.7,127.1c-1.3,0.5-2.5,1-3.7,1.6l0.4,0.9
	c1.2-0.6,2.4-1.1,3.6-1.5L39.7,127.1z M47.5,125.1c-1.3,0.2-2.7,0.5-4,0.8l0.2,1c1.3-0.3,2.6-0.6,3.9-0.8L47.5,125.1z M26.6,136.1
	l-0.7-0.7c-1,0.9-1.9,1.9-2.8,2.9l0.7,0.7C24.7,138,25.6,137,26.6,136.1z M14.8,156.3l-1-0.2c-0.3,1.3-0.5,2.6-0.7,4l1,0.1
	C14.3,158.9,14.5,157.6,14.8,156.3z M55.5,125.8l0.1-1c-1.3-0.1-2.7-0.1-4,0v1C52.9,125.7,54.2,125.7,55.5,125.8z M13.8,165.3
	c0-0.4,0-0.8,0-1.2h-1c0,0.4,0,0.8,0,1.2c0,0.9,0,1.9,0.1,2.8l1-0.1C13.8,167.1,13.8,166.2,13.8,165.3z M17.4,148.8l-0.9-0.4
	c-0.6,1.2-1.1,2.5-1.5,3.8l0.9,0.3C16.3,151.3,16.8,150,17.4,148.8z M21.3,142l-0.8-0.6c-0.8,1.1-1.5,2.2-2.2,3.4l0.9,0.5
	C19.8,144.2,20.6,143.1,21.3,142z M13.4,172.2c0.2,1.3,0.5,2.7,0.9,4l1-0.3c-0.3-1.3-0.6-2.6-0.9-3.9L13.4,172.2z M19.2,187.2
	c0.7,1.1,1.5,2.2,2.3,3.3l0.8-0.6c-0.8-1-1.6-2.1-2.3-3.2L19.2,187.2z M15.5,179.9c0.5,1.3,1,2.5,1.6,3.7l0.9-0.5
	c-0.6-1.2-1.1-2.4-1.6-3.6L15.5,179.9z M61,204.2l0.2,1c1.3-0.3,2.6-0.6,3.9-1l-0.3-1C63.6,203.6,62.3,203.9,61,204.2z M89.4,184
	l-0.9-0.5c-0.6,1.2-1.3,2.3-2,3.4l0.8,0.5C88.1,186.4,88.8,185.2,89.4,184z M90.5,148.8c-0.5-1.2-1.2-2.4-1.8-3.6l-0.9,0.5
	c0.7,1.1,1.3,2.3,1.8,3.5L90.5,148.8z M86.5,141.8c-0.8-1.1-1.6-2.2-2.5-3.2l-0.8,0.7c0.9,1,1.7,2,2.4,3.1L86.5,141.8z M71.2,128.8
	c-1.2-0.6-2.5-1.1-3.7-1.6l-0.3,0.9c1.2,0.5,2.5,1,3.6,1.5L71.2,128.8z M85,190.8l-0.8-0.6c-0.8,1-1.7,2-2.6,2.9l0.7,0.7
	C83.2,192.9,84.1,191.9,85,190.8z M92.4,172.4l1,0.2c0.2-1.3,0.4-2.7,0.5-4l-1-0.1C92.8,169.8,92.6,171.1,92.4,172.4z M93,156.5
	c-0.3-1.3-0.7-2.6-1.1-3.9l-1,0.3c0.4,1.2,0.8,2.5,1,3.8L93,156.5z M90.2,180l0.9,0.4c0.5-1.2,0.9-2.5,1.3-3.8l-1-0.3
	C91.1,177.5,90.7,178.8,90.2,180z M75.5,198.2l0.6,0.8c1.1-0.8,2.2-1.6,3.2-2.4l-0.6-0.8C77.7,196.6,76.6,197.4,75.5,198.2z
	 M93,164.6h1c0-1.3-0.1-2.7-0.3-4l-1,0.1C92.9,161.9,93,163.2,93,164.6z M217.8,119.4l3.3-10.1h6c1.2,0,2.2,1,2.2,2.2
	s0.5,2.4,1.4,3.2l0.8,0.7c0.4,0.4,1,0.3,1.4-0.1c0.4-0.4,0.3-1-0.1-1.4l-0.8-0.7c-0.5-0.4-0.8-1-0.8-1.6c0-2.3-1.9-4.2-4.2-4.2
	h-35.3c-4.6,0-9.1,1.4-13.1,4.1l-11,7.6l-2.7-3.3l5.3-18.3c2,0.3,3.7,0.5,5.2,0.5c4.2,0,6.9-1.4,11.1-4.8c3.3-2.7,4.4-4.4,3.9-5.8
	c-0.6-1.5-2.7-1.7-4.6-1.7H153c-3.4,0-5.6,0.8-6.4,2.3c-0.5,0.9-0.5,2,0.1,2.8c1.3,2.1,5.9,3.2,17.2,5.6c0.3,0.1,0.6,0.1,0.9,0.2
	l-15.1,51.8l-14.5-7.3c-17.9-9.5-31.5-25.3-36.3-42.3c-0.7-2.5-2-10.2-2.7-14.8c-0.2-1.2-0.4-2.2-0.5-2.8l1.5-4.5l1.5,0.5l0,0
	c0.2,0,0.3,0.1,0.5,0.1c0.8,0,1.5-0.5,1.7-1.2l0.9-2.7c0.2-0.5,0.2-0.9,0-1.4c-0.2-0.4-0.6-0.8-1.1-0.9l-1.3-0.4l1.1-3.3
	c0.8-2.4,2.2-6.5-2.9-8.4c-2.6-1-3.8-1.8-4.1-2.7c-0.2-0.6,0-1.4,0.6-2.4c1.2-1.9,2.3-3.8,3.3-5.2c0.9-1.3,1.6-1.3,2.3-1.1
	c0.2,1.5,1.7,2.1,4.1,3c8.5,3.1,10.5,3.8,11.7,2.2l0.3-0.3c0.5-0.6,0.6-0.8,0.8-1.8c0.3-1.7-0.4-3-2.2-3.9l-9.4-3.3
	c-1.4-0.4-2.6-0.3-3.6,0.3c-3.3-1.1-5.2-0.9-6.6,0.9c-2.5,3.1-3.8,5.2-4.7,6.8L89.8,52c-1.1,1.8-1.5,3.6-1,5.2s1.8,3,3.8,4
	c3.6,1.7,3.4,2.2,2.9,3.9c-0.5,1.8-1,3.5-1.2,3.9l-1.6-0.5c-0.5-0.2-0.9-0.2-1.4,0c-0.4,0.2-0.8,0.6-0.9,1.1l-0.9,2.7
	c-0.2,0.5-0.2,0.9,0,1.4c0.2,0.4,0.6,0.8,1.1,0.9l1.2,0.4l-14.4,43.1c-7.2-3.8-15-5.6-23.8-5.6c-6.3,0-12.3,1-17.8,3.1
	c-0.5,0.2-0.8,0.8-0.6,1.3s0.8,0.8,1.3,0.6c5.4-2,11.1-2.9,17.2-2.9c8.5,0,16,1.8,23,5.5h0.1l-1,2.9c-6.9-3.7-14.7-5.7-22.7-5.7
	c-26.7,0-48.4,21.7-48.4,48.4c0,26.7,21.7,48.4,48.4,48.4s48.4-21.7,48.4-48.4c0-15.9-7.8-30.8-20.9-39.8l1-2.9
	c10.1,6.5,17.3,16.1,20.8,27.9c0.1,0.4,0.5,0.7,1,0.7c0.1,0,0.2,0,0.3,0c0.5-0.2,0.8-0.7,0.7-1.2c-3.7-12.3-11.2-22.4-21.8-29.2
	c-0.1-0.1-0.2-0.1-0.3-0.1l1.7-5l51.5,48.6l0.1,0.1c-0.2,0.9-0.3,1.8-0.3,2.8c0,6.3,5,11.4,11.2,11.7v7.8H142
	c-1.4,0-2.5,1.1-2.5,2.5v3.1c0,1.4,1.1,2.5,2.5,2.5h10.2c1.4,0,2.5-1.1,2.5-2.5v-3.1c0-1.4-1.1-2.5-2.5-2.5h-4.7v-7.8
	c2.9-0.1,5.5-1.3,7.5-3.2c4.8,22.2,24.3,38.1,47.3,38.1c26.7,0,48.4-21.7,48.4-48.4C250.9,144,237,125.8,217.8,119.4z M104.8,44.2
	l9.4,3.3c1.4,0.6,1.9,1.5,1.6,2.7c-0.1,0.7-0.2,0.8-0.6,1.3l-0.3,0.3c-0.8,1-3.3,0.1-10.6-2.6c-2.4-0.9-3.3-1.4-3.5-2.2l0,0l1.3-2.7
	C102.9,43.9,103.8,43.8,104.8,44.2z M96.6,65.1c0.7-2.3,0.4-3.2-3.5-5.1c-1.8-0.9-2.9-2-3.3-3.4c-0.5-1.6,0.2-3.3,0.9-4.4l0.3-0.5
	c0.9-1.5,2.2-3.6,4.7-6.7c1-1.2,2.2-1.7,5.3-0.7l-0.9,1.9c-1.1-0.3-2.2-0.3-3.4,1.5c-1,1.4-2.1,3.3-3.3,5.2c-0.8,1.3-1,2.3-0.6,3.2
	c0.5,1.4,2.2,2.3,4.7,3.3c3.9,1.5,3.3,4.1,2.3,7.2l-1,3.1l-1.4-0.6l-1.7-0.5C95.7,68,96.2,66.6,96.6,65.1z M152.9,189.1v3.1
	c0,0.2-0.3,0.5-0.5,0.5h-10.2c-0.2,0-0.5-0.3-0.5-0.5v-3.1c0-0.2,0.3-0.5,0.5-0.5h10.2C152.6,188.6,152.9,188.9,152.9,189.1z
	 M179.8,113c3.6-2.4,7.7-3.7,11.9-3.7h28.4l-3.2,9.8c-4.5-1.4-9.4-2.2-14.4-2.2c-10.4,0-20.3,3.3-28.8,9.5l-4.9-5.9L179.8,113z
	 M158.8,168.3c0-0.4,0.1-0.8,0.1-1.2c0-0.4,0-0.8-0.1-1.2l37.4-1.5c0,0.3-0.1,0.6-0.1,0.9c0,0.5,0.1,1,0.2,1.5L158.8,168.3z
	 M138.5,159.3l-52.4-49.4L92,92.1c0.6,3.3,1.1,6.3,1.6,7.9c5.2,18.5,19.8,35.6,39.1,45.7l15.4,7.8l-0.5,2c-0.1,0-0.2,0-0.4,0
	C143.8,155.4,140.7,156.9,138.5,159.3z M154.7,158.1c-0.6-0.5-1.2-0.9-1.8-1.2l10.4-36.1l7,8.5C161.8,136.8,156.3,147,154.7,158.1z
	 M171.6,130.8l3.7,4.5c-0.3,0.3-0.7,0.6-1,1l0.7,0.7c0.3-0.3,0.6-0.6,1-0.9l21.3,25.8c-0.3,0.5-0.5,0.9-0.7,1.5l-33.5,1.3
	c0-1.1,0.1-2.2,0.2-3.3l-1-0.1c-0.1,1.1-0.2,2.3-0.2,3.5l-3.3,0.1c-0.4-1.8-1.1-3.5-2.2-4.9C157.7,148.7,163.1,138.4,171.6,130.8z
	 M202.6,160.9c2.4,0,4.4,2,4.4,4.4s-2,4.4-4.4,4.4c-2.4,0-4.4-2-4.4-4.4S200.2,160.9,202.6,160.9z M202.6,158.9
	c-0.7,0-1.3,0.1-1.9,0.3l-21.3-25.9c0.9-0.7,1.8-1.3,2.8-1.9l-0.5-0.9c-1,0.6-2,1.3-2.9,1.9l-3.7-4.6c8.1-5.9,17.6-9,27.5-9
	c4.8,0,9.4,0.7,13.8,2.1L204,159C203.5,159,203.1,158.9,202.6,158.9z M148.3,89.5c0-0.1-0.2-0.4,0-0.8c0.2-0.3,1-1.3,4.7-1.3h32.8
	c2.3,0,2.7,0.4,2.7,0.4c0,0.1-0.1,1-3.3,3.6c-6.2,5.1-8.2,5.4-20.9,2.7C155.9,92.3,149.2,90.9,148.3,89.5z M91.1,73.3
	c-0.2-0.1-0.4-0.2-0.5-0.4c-0.1-0.2-0.1-0.4,0-0.6l0.9-2.7c0.1-0.2,0.2-0.4,0.4-0.5c0.2-0.1,0.4-0.1,0.6,0l8,2.6
	c0.2,0.1,0.4,0.2,0.5,0.4c0.1,0.2,0.1,0.4,0,0.6l-0.9,2.7c-0.1,0.3-0.5,0.6-1,0.5l-1.5-0.5l0,0l-5.3-1.7l0,0L91.1,73.3z M99.8,165.3
	c0,25.6-20.8,46.4-46.4,46.4S7,190.9,7,165.3s20.8-46.4,46.4-46.4c7.8,0,15.4,1.9,22,5.6l-3.3,9.9c-2.9,7-7.2,13.7-12.7,20l-4.3,4.8
	c-0.6-0.2-1.1-0.2-1.7-0.2c-3.5,0-6.4,2.9-6.4,6.4s2.9,6.4,6.4,6.4s6.4-2.9,6.4-6.4c0-0.9-0.2-1.7-0.5-2.5l4.3-4.8
	c5.8-6.5,10.4-13.7,13.7-21.6l0.7-2.2c0.9,0.7,1.7,1.4,2.5,2.2l0.7-0.7c-0.9-0.9-1.9-1.7-2.9-2.4l1.9-5.8
	C92.5,136.2,99.8,150.3,99.8,165.3z M57.8,165.3c0,2.4-2,4.4-4.4,4.4s-4.4-2-4.4-4.4s2-4.4,4.4-4.4S57.8,162.9,57.8,165.3z
	 M136.1,163.2l-52.3-49.3l-7.4,22.2c-3.3,7.7-7.8,14.9-13.5,21.3l-4,4.5c-0.6-1-1.6-1.8-2.7-2.3l4-4.5c5.6-6.3,9.9-13.1,12.9-20.3
	l5.2-15.6l0,0c0.1-0.1,0.1-0.2,0.1-0.3L93,75l3.3,1.1l-1.6,4.7v0.1c0.1,0.6,0.3,1.6,0.5,2.9c0.8,4.6,2,12.4,2.7,15
	c4.9,17.3,18.6,33.3,36.8,42.9l15.5,7.9l15.4-53.1c1.2,0.3,2.4,0.5,3.4,0.7l-5.4,18.7l3.4,4.1c0,0.2,0.1,0.3,0.2,0.4
	c0.1,0.2,0.3,0.3,0.5,0.4l31.9,38.9c-0.7,0.4-1.4,0.9-1.9,1.5l-34.9-42.4L152,156.4c-1.1-0.5-2.2-0.8-3.4-0.9l0.7-2.6l-16.2-8.2
	c-19-10-33.4-26.9-38.6-45.1c-0.4-1.7-1.1-5.1-1.7-8.7l-0.5-3L85,110.1l52.9,49.9c-0.7,0.9-1.2,1.9-1.6,3L136.1,163.2z M146.7,170.1
	c-1.5-0.2-2.6-1.5-2.6-3.1c0-1.7,1.4-3.1,3.1-3.1c1.7,0,3.1,1.4,3.1,3.1c0,1.5-1.1,2.8-2.6,3v-3.4h-1
	C146.7,166.6,146.7,170.1,146.7,170.1z M147.7,176.8v-5.6c2-0.3,3.6-2,3.6-4c0-2.3-1.8-4.1-4.1-4.1s-4.1,1.8-4.1,4.1
	c0,2.1,1.6,3.8,3.6,4v5.6c-5.1-0.3-9.2-4.5-9.2-9.7c0-5.3,4.4-9.7,9.7-9.7c5.3,0,9.7,4.4,9.7,9.7
	C156.9,172.3,152.8,176.5,147.7,176.8z M202.5,211.7c-22.5,0-41.7-16-45.6-38c0.9-1.3,1.5-2.8,1.8-4.4l3.6-0.1c0.1,1,0.2,2,0.4,3
	l1-0.2c-0.2-0.9-0.3-1.9-0.4-2.9l33.4-1.3c1,2.3,3.2,3.9,5.9,3.9c3.5,0,6.4-2.9,6.4-6.4c0-2.7-1.7-5-4.1-6l12.3-38
	c18.4,6.2,31.7,23.6,31.7,44C248.9,190.9,228.1,211.7,202.5,211.7z M172.3,139.8l-0.8-0.6c-0.9,1-1.7,2.1-2.4,3.2l0.8,0.6
	C170.6,141.9,171.4,140.9,172.3,139.8z M167.8,146.4l-0.9-0.5c-0.6,1.2-1.2,2.4-1.8,3.6l0.9,0.4
	C166.6,148.7,167.2,147.5,167.8,146.4z M164.8,153.6l-1-0.3c-0.4,1.3-0.7,2.6-1,3.9l1,0.2C164,156.2,164.4,154.9,164.8,153.6z
	 M200.8,124.7v1c1.3-0.1,2.6,0,3.9,0l0.1-1C203.5,124.7,202.2,124.7,200.8,124.7z M185.2,128.6l0.4,0.9c1.2-0.6,2.4-1.1,3.6-1.5
	l-0.3-0.9C187.7,127.5,186.4,128,185.2,128.6z M208.9,125.2l-0.2,1c1.3,0.2,2.6,0.5,3.9,0.8l0.3-1
	C211.6,125.7,210.2,125.4,208.9,125.2z M192.8,125.9l0.2,1c1.3-0.3,2.6-0.6,3.9-0.8l-0.1-1C195.5,125.3,194.1,125.6,192.8,125.9z
	 M233.4,190.2l0.8,0.6c0.8-1,1.6-2.1,2.4-3.3l-0.8-0.5C235.1,188.1,234.3,189.2,233.4,190.2z M223.5,131.6c1.1,0.7,2.2,1.4,3.2,2.2
	l0.6-0.8c-1.1-0.8-2.2-1.6-3.3-2.3L223.5,131.6z M227.9,195.8l0.6,0.8c1-0.9,2-1.8,3-2.7l-0.7-0.7
	C229.9,194.1,228.9,195,227.9,195.8z M230.4,135.7l-0.7,0.7c1,0.9,1.9,1.9,2.7,2.8l0.8-0.7C232.3,137.6,231.4,136.6,230.4,135.7z
	 M221.4,200.2l0.5,0.9c1.2-0.6,2.4-1.3,3.5-2.1l-0.6-0.8C223.7,198.9,222.5,199.6,221.4,200.2z M216.4,128.2c1.2,0.5,2.5,1,3.6,1.6
	l0.4-0.9c-1.2-0.6-2.5-1.1-3.7-1.6L216.4,128.2z M235.7,141.8l-0.8,0.6c0.8,1.1,1.5,2.2,2.1,3.3l0.9-0.5
	C237.2,144,236.5,142.9,235.7,141.8z M163.5,176.1c0.4,1.3,0.8,2.6,1.3,3.8l0.9-0.4c-0.5-1.2-0.9-2.5-1.2-3.8L163.5,176.1z
	 M243.2,164.5h-1c0,0.3,0,0.5,0,0.8c0,1.1,0,2.1-0.1,3.2l1,0.1c0.1-1.1,0.1-2.2,0.1-3.3C243.2,165,243.2,164.8,243.2,164.5z
	 M240.7,176.3l1,0.3c0.4-1.3,0.7-2.6,0.9-3.9l-1-0.2C241.3,173.7,241,175,240.7,176.3z M237.8,183.6l0.9,0.5
	c0.6-1.2,1.2-2.4,1.7-3.7l-0.9-0.4C238.9,181.2,238.4,182.4,237.8,183.6z M214.1,203.2l0.3,1c1.3-0.4,2.6-0.8,3.8-1.4l-0.4-0.9
	C216.6,202.4,215.3,202.8,214.1,203.2z M170.7,190.4c0.8,1.1,1.7,2.1,2.7,3l0.7-0.7c-0.9-0.9-1.8-1.9-2.6-3L170.7,190.4z
	 M176.4,196.3c1,0.9,2.1,1.7,3.2,2.5l0.6-0.8c-1.1-0.7-2.1-1.6-3.1-2.4L176.4,196.3z M166.4,183.6c0.6,1.2,1.3,2.4,2,3.5l0.8-0.5
	c-0.7-1.1-1.4-2.3-2-3.4L166.4,183.6z M183,200.9c1.2,0.7,2.4,1.3,3.6,1.8l0.4-0.9c-1.2-0.5-2.4-1.1-3.5-1.7L183,200.9z
	 M198.4,205.7c1.3,0.1,2.7,0.2,4,0.2v-1c-1.3,0-2.6-0.1-3.9-0.2L198.4,205.7z M241.2,152.6c-0.4-1.3-0.9-2.5-1.5-3.8l-0.9,0.4
	c0.5,1.2,1,2.4,1.4,3.7L241.2,152.6z M242.9,160.5c-0.2-1.3-0.4-2.7-0.7-4l-1,0.2c0.3,1.3,0.5,2.6,0.7,3.9L242.9,160.5z
	 M206.3,204.7l0.1,1c1.3-0.1,2.7-0.3,4-0.6l-0.2-1C209,204.4,207.7,204.6,206.3,204.7z M190.4,204c1.3,0.4,2.6,0.7,3.9,1l0.2-1
	c-1.3-0.3-2.6-0.6-3.8-1L190.4,204z"/>
</svg>
