<?xml version="1.0" encoding="utf-8"?>
<!-- Generator: Adobe Illustrator 19.0.0, SVG Export Plug-In . SVG Version: 6.00 Build 0)  -->
<svg version="1.1" id="Camada_1" xmlns="http://www.w3.org/2000/svg" xmlns:xlink="http://www.w3.org/1999/xlink" x="0px" y="0px"
	 viewBox="0 0 256 256" style="enable-background:new 0 0 256 256;" xml:space="preserve">
<path d="M69.6,68.1c1.4,0.1,2.7,0.2,4,0.3l0,0c0.3,0,0.5-0.2,0.5-0.5s-0.2-0.5-0.5-0.5c-1.3-0.1-2.6-0.2-4-0.3
	c-0.3,0-0.5,0.2-0.5,0.5C69.2,67.9,69.4,68.1,69.6,68.1z M53.7,67.2c1.4,0.1,2.7,0.1,4,0.2l0,0c0.3,0,0.5-0.2,0.5-0.5
	s-0.2-0.5-0.5-0.5c-1.3-0.1-2.6-0.1-4-0.2c-0.3,0-0.5,0.2-0.5,0.5S53.4,67.2,53.7,67.2z M101.4,71.8c1.4,0.2,2.7,0.5,3.9,0.7h0.1
	c0.2,0,0.4-0.2,0.5-0.4c0.1-0.3-0.1-0.5-0.4-0.6c-1.3-0.2-2.6-0.5-3.9-0.7c-0.3,0-0.5,0.1-0.6,0.4C100.9,71.5,101.1,71.8,101.4,71.8
	z M61.7,67.6c1.4,0.1,2.7,0.2,4,0.2l0,0c0.3,0,0.5-0.2,0.5-0.5s-0.2-0.5-0.5-0.5c-1.3-0.1-2.6-0.2-4-0.2c-0.3,0-0.5,0.2-0.5,0.5
	S61.4,67.6,61.7,67.6z M93.5,70.6c1.4,0.2,2.7,0.4,3.9,0.6h0.1c0.2,0,0.5-0.2,0.5-0.4c0-0.3-0.1-0.5-0.4-0.6c-1.3-0.2-2.6-0.4-4-0.6
	c-0.3,0-0.5,0.2-0.6,0.4C93,70.3,93.2,70.6,93.5,70.6z M85.5,69.6c1.4,0.2,2.7,0.3,4,0.5c0,0,0,0,0.1,0c0.2,0,0.5-0.2,0.5-0.4
	c0-0.3-0.2-0.5-0.4-0.6c-1.3-0.2-2.6-0.3-4-0.5c-0.3,0-0.5,0.2-0.6,0.4C85.1,69.3,85.3,69.6,85.5,69.6z M77.6,68.8
	c1.4,0.1,2.7,0.3,4,0.4c0,0,0,0,0.1,0c0.3,0,0.5-0.2,0.5-0.4c0-0.3-0.2-0.5-0.4-0.5c-1.3-0.1-2.6-0.3-4-0.4c-0.3,0-0.5,0.2-0.5,0.5
	C77.1,68.5,77.3,68.7,77.6,68.8z M109.2,73.3c1.4,0.3,2.7,0.6,3.9,0.9h0.1c0.2,0,0.4-0.2,0.5-0.4c0.1-0.3-0.1-0.5-0.4-0.6
	c-1.2-0.3-2.5-0.6-3.9-0.9c-0.3-0.1-0.5,0.1-0.6,0.4S108.9,73.3,109.2,73.3z M45.7,67c1.4,0,2.7,0.1,4,0.1l0,0
	c0.3,0,0.5-0.2,0.5-0.5s-0.2-0.5-0.5-0.5c-1.3,0-2.6-0.1-4-0.1c-0.3,0-0.5,0.2-0.5,0.5S45.4,67,45.7,67z M93.5,93.8
	c1.4,0.2,2.7,0.4,3.9,0.6h0.1c0.2,0,0.5-0.2,0.5-0.4c0-0.3-0.1-0.5-0.4-0.6c-1.3-0.2-2.6-0.4-4-0.6c-0.3,0-0.5,0.2-0.6,0.4
	C93,93.5,93.2,93.8,93.5,93.8z M69.6,91.3c1.4,0.1,2.7,0.2,4,0.3l0,0c0.3,0,0.5-0.2,0.5-0.5s-0.2-0.5-0.5-0.5
	c-1.3-0.1-2.6-0.2-4-0.3c-0.3,0-0.5,0.2-0.5,0.5S69.4,91.3,69.6,91.3z M85.5,92.8c1.4,0.2,2.7,0.3,4,0.5c0,0,0,0,0.1,0
	c0.2,0,0.5-0.2,0.5-0.4c0-0.3-0.2-0.5-0.4-0.6c-1.3-0.2-2.6-0.3-4-0.5c-0.3,0-0.5,0.2-0.6,0.4C85.1,92.5,85.3,92.8,85.5,92.8z
	 M53.7,90.4c1.4,0.1,2.7,0.1,4,0.2l0,0c0.3,0,0.5-0.2,0.5-0.5s-0.2-0.5-0.5-0.5c-1.3-0.1-2.6-0.1-4-0.2c-0.3,0-0.5,0.2-0.5,0.5
	C53.2,90.2,53.4,90.4,53.7,90.4z M101.4,95c1.4,0.2,2.7,0.5,3.9,0.7h0.1c0.2,0,0.4-0.2,0.5-0.4c0.1-0.3-0.1-0.5-0.4-0.6
	c-1.3-0.2-2.6-0.5-3.9-0.7c-0.3,0-0.5,0.1-0.6,0.4C100.9,94.7,101.1,95,101.4,95z M109.2,96.5c1.4,0.3,2.7,0.6,3.9,0.9h0.1
	c0.2,0,0.4-0.2,0.5-0.4c0.1-0.3-0.1-0.5-0.4-0.6c-1.2-0.3-2.5-0.6-3.9-0.9c-0.3-0.1-0.5,0.1-0.6,0.4S108.9,96.5,109.2,96.5z
	 M77.6,92c1.4,0.1,2.7,0.3,4,0.4c0,0,0,0,0.1,0c0.3,0,0.5-0.2,0.5-0.4c0-0.3-0.2-0.5-0.4-0.5c-1.3-0.1-2.6-0.3-4-0.4
	c-0.3,0-0.5,0.2-0.5,0.5C77.1,91.7,77.3,91.9,77.6,92z M61.7,90.8c1.4,0.1,2.7,0.2,4,0.2l0,0c0.3,0,0.5-0.2,0.5-0.5S66,90,65.7,90
	c-1.3-0.1-2.6-0.2-4-0.2c-0.3,0-0.5,0.2-0.5,0.5C61.2,90.6,61.4,90.8,61.7,90.8z M45.7,90.2c1.4,0,2.7,0.1,4,0.1l0,0
	c0.3,0,0.5-0.2,0.5-0.5s-0.2-0.5-0.5-0.5c-1.3,0-2.6-0.1-4-0.1c-0.3,0-0.5,0.2-0.5,0.5S45.4,90.2,45.7,90.2z M85.5,116.1
	c1.4,0.2,2.7,0.3,4,0.5c0,0,0,0,0.1,0c0.2,0,0.5-0.2,0.5-0.4c0-0.3-0.2-0.5-0.4-0.6c-1.3-0.2-2.6-0.3-4-0.5c-0.3,0-0.5,0.2-0.6,0.4
	C85.1,115.8,85.3,116.1,85.5,116.1z M93.5,117.1c1.4,0.2,2.7,0.4,3.9,0.6h0.1c0.2,0,0.5-0.2,0.5-0.4c0-0.3-0.1-0.5-0.4-0.6
	c-1.3-0.2-2.6-0.4-4-0.6c-0.3,0-0.5,0.2-0.6,0.4C93,116.8,93.2,117.1,93.5,117.1z M101.4,118.3c1.4,0.2,2.7,0.5,3.9,0.7h0.1
	c0.2,0,0.4-0.2,0.5-0.4c0.1-0.3-0.1-0.5-0.4-0.6c-1.3-0.2-2.6-0.5-3.9-0.7c-0.3,0-0.5,0.1-0.6,0.4
	C100.9,118,101.1,118.3,101.4,118.3z M109.2,119.8c1.4,0.3,2.7,0.6,3.9,0.9h0.1c0.2,0,0.4-0.2,0.5-0.4c0.1-0.3-0.1-0.5-0.4-0.6
	c-1.2-0.3-2.5-0.6-3.9-0.9c-0.3-0.1-0.5,0.1-0.6,0.4S108.9,119.8,109.2,119.8z M69.6,114.6c1.4,0.1,2.7,0.2,4,0.3l0,0
	c0.3,0,0.5-0.2,0.5-0.5s-0.2-0.5-0.5-0.5c-1.3-0.1-2.6-0.2-4-0.3c-0.3,0-0.5,0.2-0.5,0.5S69.4,114.6,69.6,114.6z M45.7,113.5
	c1.4,0,2.7,0.1,4,0.1l0,0c0.3,0,0.5-0.2,0.5-0.5s-0.2-0.5-0.5-0.5c-1.3,0-2.6-0.1-4-0.1c-0.3,0-0.5,0.2-0.5,0.5
	S45.4,113.5,45.7,113.5z M53.7,113.7c1.4,0.1,2.7,0.1,4,0.2l0,0c0.3,0,0.5-0.2,0.5-0.5s-0.2-0.5-0.5-0.5c-1.3-0.1-2.6-0.1-4-0.2
	c-0.3,0-0.5,0.2-0.5,0.5S53.4,113.7,53.7,113.7z M77.6,115.3c1.4,0.1,2.7,0.3,4,0.4c0,0,0,0,0.1,0c0.3,0,0.5-0.2,0.5-0.4
	c0-0.3-0.2-0.5-0.4-0.5c-1.3-0.1-2.6-0.3-4-0.4c-0.3,0-0.5,0.2-0.5,0.5C77.1,115,77.3,115.2,77.6,115.3z M61.7,114.1
	c1.4,0.1,2.7,0.2,4,0.2l0,0c0.3,0,0.5-0.2,0.5-0.5s-0.2-0.5-0.5-0.5c-1.3-0.1-2.6-0.2-4-0.2c-0.3,0-0.5,0.2-0.5,0.5
	S61.4,114.1,61.7,114.1z M61.7,137.3c1.4,0.1,2.7,0.2,4,0.2l0,0c0.3,0,0.5-0.2,0.5-0.5s-0.2-0.5-0.5-0.5c-1.3-0.1-2.6-0.2-4-0.2
	c-0.3,0-0.5,0.2-0.5,0.5C61.2,137.1,61.4,137.3,61.7,137.3z M53.7,136.9c1.4,0.1,2.7,0.1,4,0.2l0,0c0.3,0,0.5-0.2,0.5-0.5
	s-0.2-0.5-0.5-0.5c-1.3-0.1-2.6-0.1-4-0.2c-0.3,0-0.5,0.2-0.5,0.5S53.4,136.9,53.7,136.9z M105.5,141.3c-1.3-0.2-2.6-0.5-3.9-0.7
	c-0.3,0-0.5,0.1-0.6,0.4c0,0.3,0.1,0.5,0.4,0.6c1.4,0.2,2.7,0.5,3.9,0.7h0.1c0.2,0,0.4-0.2,0.5-0.4
	C105.9,141.6,105.7,141.3,105.5,141.3z M45.7,136.7c1.4,0,2.7,0.1,4,0.1l0,0c0.3,0,0.5-0.2,0.5-0.5s-0.2-0.5-0.5-0.5
	c-1.3,0-2.6-0.1-4-0.1c-0.3,0-0.5,0.2-0.5,0.5S45.4,136.7,45.7,136.7z M109.2,143c1.4,0.3,2.7,0.6,3.9,0.9h0.1
	c0.2,0,0.4-0.2,0.5-0.4c0.1-0.3-0.1-0.5-0.4-0.6c-1.2-0.3-2.5-0.6-3.9-0.9c-0.3-0.1-0.5,0.1-0.6,0.4
	C108.7,142.7,108.9,143,109.2,143z M93.5,140.3c1.4,0.2,2.7,0.4,3.9,0.6h0.1c0.2,0,0.5-0.2,0.5-0.4c0-0.3-0.1-0.5-0.4-0.6
	c-1.3-0.2-2.6-0.4-4-0.6c-0.3,0-0.5,0.2-0.6,0.4S93.2,140.3,93.5,140.3z M77.6,138.5c1.4,0.1,2.7,0.3,4,0.4c0,0,0,0,0.1,0
	c0.3,0,0.5-0.2,0.5-0.4c0-0.3-0.2-0.5-0.4-0.5c-1.3-0.1-2.6-0.3-4-0.4c-0.3,0-0.5,0.2-0.5,0.5S77.3,138.4,77.6,138.5z M85.5,139.3
	c1.4,0.2,2.7,0.3,4,0.5c0,0,0,0,0.1,0c0.2,0,0.5-0.2,0.5-0.4c0-0.3-0.2-0.5-0.4-0.6c-1.3-0.2-2.6-0.3-4-0.5c-0.3,0-0.5,0.2-0.6,0.4
	C85.1,139,85.3,139.3,85.5,139.3z M69.6,137.8c1.4,0.1,2.7,0.2,4,0.3l0,0c0.3,0,0.5-0.2,0.5-0.5s-0.2-0.5-0.5-0.5
	c-1.3-0.1-2.6-0.2-4-0.3c-0.3,0-0.5,0.2-0.5,0.5C69.2,137.6,69.4,137.8,69.6,137.8z M85.5,162.6c1.4,0.2,2.7,0.3,4,0.5
	c0,0,0,0,0.1,0c0.2,0,0.5-0.2,0.5-0.4c0-0.3-0.2-0.5-0.4-0.6c-1.3-0.2-2.6-0.3-4-0.5c-0.3,0-0.5,0.2-0.6,0.4
	C85.1,162.3,85.3,162.6,85.5,162.6z M53.7,160.2c1.4,0.1,2.7,0.1,4,0.2l0,0c0.3,0,0.5-0.2,0.5-0.5s-0.2-0.5-0.5-0.5
	c-1.3-0.1-2.6-0.1-4-0.2c-0.3,0-0.5,0.2-0.5,0.5S53.4,160.2,53.7,160.2z M45.7,160c1.4,0,2.7,0.1,4,0.1l0,0c0.3,0,0.5-0.2,0.5-0.5
	s-0.2-0.5-0.5-0.5c-1.3,0-2.6-0.1-4-0.1c-0.3,0-0.5,0.2-0.5,0.5S45.4,160,45.7,160z M77.6,161.8c1.4,0.1,2.7,0.3,4,0.4
	c0,0,0,0,0.1,0c0.3,0,0.5-0.2,0.5-0.4c0-0.3-0.2-0.5-0.4-0.5c-1.3-0.1-2.6-0.3-4-0.4c-0.3,0-0.5,0.2-0.5,0.5S77.3,161.7,77.6,161.8z
	 M61.7,160.6c1.4,0.1,2.7,0.2,4,0.2l0,0c0.3,0,0.5-0.2,0.5-0.5s-0.2-0.5-0.5-0.5c-1.3-0.1-2.6-0.2-4-0.2c-0.3,0-0.5,0.2-0.5,0.5
	S61.4,160.6,61.7,160.6z M101.4,164.8c1.4,0.2,2.7,0.5,3.9,0.7h0.1c0.2,0,0.4-0.2,0.5-0.4c0.1-0.3-0.1-0.5-0.4-0.6
	c-1.3-0.2-2.6-0.5-3.9-0.7c-0.3,0-0.5,0.1-0.6,0.4C100.9,164.5,101.1,164.8,101.4,164.8z M69.6,161.1c1.4,0.1,2.7,0.2,4,0.3l0,0
	c0.3,0,0.5-0.2,0.5-0.5s-0.2-0.5-0.5-0.5c-1.3-0.1-2.6-0.2-4-0.3c-0.3,0-0.5,0.2-0.5,0.5C69.2,160.9,69.4,161.1,69.6,161.1z
	 M109.2,166.3c1.4,0.3,2.7,0.6,3.9,0.9h0.1c0.2,0,0.4-0.2,0.5-0.4c0.1-0.3-0.1-0.5-0.4-0.6c-1.2-0.3-2.5-0.6-3.9-0.9
	c-0.3-0.1-0.5,0.1-0.6,0.4C108.7,166,108.9,166.3,109.2,166.3z M93.5,163.6c1.4,0.2,2.7,0.4,3.9,0.6h0.1c0.2,0,0.5-0.2,0.5-0.4
	c0-0.3-0.1-0.5-0.4-0.6c-1.3-0.2-2.6-0.4-4-0.6c-0.3,0-0.5,0.2-0.6,0.4C93,163.3,93.2,163.6,93.5,163.6z M198.3,67.4L198.3,67.4
	c1.3-0.1,2.7-0.1,4-0.2c0.3,0,0.5-0.2,0.5-0.5s-0.2-0.5-0.5-0.5c-1.4,0.1-2.7,0.1-4,0.2c-0.3,0-0.5,0.2-0.5,0.5
	C197.8,67.2,198,67.4,198.3,67.4z M142.8,74.2L142.8,74.2c1.3-0.3,2.6-0.6,4-0.9c0.3-0.1,0.4-0.3,0.4-0.6c-0.1-0.3-0.3-0.4-0.6-0.4
	c-1.4,0.3-2.7,0.6-3.9,0.9c-0.3,0.1-0.4,0.3-0.4,0.6C142.4,74.1,142.6,74.2,142.8,74.2z M190.3,67.8L190.3,67.8
	c1.3-0.1,2.7-0.2,4-0.2c0.3,0,0.5-0.3,0.5-0.5c0-0.3-0.2-0.5-0.5-0.5c-1.4,0.1-2.7,0.2-4,0.2c-0.3,0-0.5,0.3-0.5,0.5
	C189.8,67.6,190.1,67.8,190.3,67.8z M150.6,72.6C150.7,72.6,150.7,72.6,150.6,72.6c1.3-0.2,2.7-0.5,4-0.7c0.3,0,0.5-0.3,0.4-0.6
	c0-0.3-0.3-0.5-0.6-0.4c-1.4,0.2-2.7,0.5-3.9,0.7c-0.3,0.1-0.4,0.3-0.4,0.6C150.2,72.4,150.4,72.6,150.6,72.6z M166.4,70.1
	C166.5,70.1,166.5,70.1,166.4,70.1c1.3-0.2,2.7-0.3,4-0.5c0.3,0,0.5-0.3,0.4-0.6c0-0.3-0.3-0.5-0.6-0.4c-1.4,0.2-2.7,0.3-4,0.5
	c-0.3,0-0.5,0.3-0.4,0.6C166,69.9,166.2,70.1,166.4,70.1z M158.5,71.2C158.5,71.2,158.6,71.2,158.5,71.2c1.3-0.2,2.7-0.4,4-0.6
	c0.3,0,0.5-0.3,0.4-0.6c0-0.3-0.3-0.5-0.6-0.4c-1.4,0.2-2.7,0.4-4,0.6c-0.3,0-0.5,0.3-0.4,0.6C158.1,71,158.3,71.2,158.5,71.2z
	 M182.3,68.4C182.4,68.4,182.4,68.4,182.3,68.4c1.3-0.1,2.7-0.2,4-0.3c0.3,0,0.5-0.3,0.5-0.5c0-0.3-0.3-0.5-0.5-0.5
	c-1.4,0.1-2.7,0.2-4,0.3c-0.3,0-0.5,0.3-0.5,0.5C181.9,68.2,182.1,68.4,182.3,68.4z M206.3,67.1L206.3,67.1c1.3,0,2.7-0.1,4-0.1
	c0.3,0,0.5-0.2,0.5-0.5s-0.2-0.5-0.5-0.5c-1.4,0-2.7,0.1-4,0.1c-0.3,0-0.5,0.2-0.5,0.5S206,67.1,206.3,67.1z M174.4,69.2L174.4,69.2
	c1.3-0.1,2.7-0.3,4-0.4c0.3,0,0.5-0.3,0.5-0.5c0-0.3-0.3-0.5-0.5-0.5c-1.4,0.1-2.7,0.3-4,0.4c-0.3,0-0.5,0.3-0.4,0.5
	C173.9,69,174.1,69.2,174.4,69.2z M158.5,94.4C158.5,94.4,158.6,94.4,158.5,94.4c1.3-0.2,2.7-0.4,4-0.6c0.3,0,0.5-0.3,0.4-0.6
	c0-0.3-0.3-0.5-0.6-0.4c-1.4,0.2-2.7,0.4-4,0.6c-0.3,0-0.5,0.3-0.4,0.6C158.1,94.2,158.3,94.4,158.5,94.4z M166.4,93.3
	C166.5,93.3,166.5,93.3,166.4,93.3c1.3-0.2,2.7-0.3,4-0.5c0.3,0,0.5-0.3,0.4-0.6c0-0.3-0.3-0.5-0.6-0.4c-1.4,0.2-2.7,0.3-4,0.5
	c-0.3,0-0.5,0.3-0.4,0.6C166,93.1,166.2,93.3,166.4,93.3z M182.3,91.6C182.4,91.6,182.4,91.6,182.3,91.6c1.3-0.1,2.7-0.2,4-0.3
	c0.3,0,0.5-0.3,0.5-0.5c0-0.3-0.3-0.5-0.5-0.5c-1.4,0.1-2.7,0.2-4,0.3c-0.3,0-0.5,0.3-0.5,0.5C181.9,91.4,182.1,91.6,182.3,91.6z
	 M174.4,92.4L174.4,92.4c1.3-0.1,2.7-0.3,4-0.4c0.3,0,0.5-0.3,0.5-0.5c0-0.3-0.3-0.5-0.5-0.5c-1.4,0.1-2.7,0.3-4,0.4
	c-0.3,0-0.5,0.3-0.4,0.5C173.9,92.2,174.1,92.4,174.4,92.4z M190.3,91L190.3,91c1.3-0.1,2.7-0.2,4-0.2c0.3,0,0.5-0.3,0.5-0.5
	c0-0.3-0.2-0.5-0.5-0.5c-1.4,0.1-2.7,0.2-4,0.2c-0.3,0-0.5,0.3-0.5,0.5C189.8,90.8,190.1,91,190.3,91z M198.3,90.6L198.3,90.6
	c1.3-0.1,2.7-0.1,4-0.2c0.3,0,0.5-0.2,0.5-0.5s-0.2-0.5-0.5-0.5c-1.4,0.1-2.7,0.1-4,0.2c-0.3,0-0.5,0.2-0.5,0.5S198,90.6,198.3,90.6
	z M142.8,97.4L142.8,97.4c1.3-0.3,2.6-0.6,4-0.9c0.3-0.1,0.4-0.3,0.4-0.6c-0.1-0.3-0.3-0.4-0.6-0.4c-1.4,0.3-2.7,0.6-3.9,0.9
	c-0.3,0.1-0.4,0.3-0.4,0.6C142.4,97.3,142.6,97.4,142.8,97.4z M206.3,90.3L206.3,90.3c1.3,0,2.7-0.1,4-0.1c0.3,0,0.5-0.2,0.5-0.5
	s-0.2-0.5-0.5-0.5c-1.4,0-2.7,0.1-4,0.1c-0.3,0-0.5,0.2-0.5,0.5C205.8,90.1,206,90.3,206.3,90.3z M150.6,95.8
	C150.7,95.8,150.7,95.8,150.6,95.8c1.3-0.2,2.7-0.5,4-0.7c0.3,0,0.5-0.3,0.4-0.6c0-0.3-0.3-0.5-0.6-0.4c-1.4,0.2-2.7,0.5-3.9,0.7
	c-0.3,0.1-0.4,0.3-0.4,0.6C150.2,95.6,150.4,95.8,150.6,95.8z M142.8,120.7L142.8,120.7c1.3-0.3,2.6-0.6,4-0.9
	c0.3-0.1,0.4-0.3,0.4-0.6c-0.1-0.3-0.3-0.4-0.6-0.4c-1.4,0.3-2.7,0.6-3.9,0.9c-0.3,0.1-0.4,0.3-0.4,0.6
	C142.4,120.6,142.6,120.7,142.8,120.7z M158.5,117.7C158.5,117.7,158.6,117.7,158.5,117.7c1.3-0.2,2.7-0.4,4-0.6
	c0.3,0,0.5-0.3,0.4-0.6c0-0.3-0.3-0.5-0.6-0.4c-1.4,0.2-2.7,0.4-4,0.6c-0.3,0-0.5,0.3-0.4,0.6C158.1,117.5,158.3,117.7,158.5,117.7z
	 M182.3,114.9C182.4,114.9,182.4,114.9,182.3,114.9c1.3-0.1,2.7-0.2,4-0.3c0.3,0,0.5-0.3,0.5-0.5c0-0.3-0.3-0.5-0.5-0.5
	c-1.4,0.1-2.7,0.2-4,0.3c-0.3,0-0.5,0.3-0.5,0.5C181.9,114.7,182.1,114.9,182.3,114.9z M174.4,115.7L174.4,115.7
	c1.3-0.1,2.7-0.3,4-0.4c0.3,0,0.5-0.3,0.5-0.5c0-0.3-0.3-0.5-0.5-0.5c-1.4,0.1-2.7,0.3-4,0.4c-0.3,0-0.5,0.3-0.4,0.5
	C173.9,115.5,174.1,115.7,174.4,115.7z M206.3,113.6L206.3,113.6c1.3,0,2.7-0.1,4-0.1c0.3,0,0.5-0.2,0.5-0.5s-0.2-0.5-0.5-0.5
	c-1.4,0-2.7,0.1-4,0.1c-0.3,0-0.5,0.2-0.5,0.5S206,113.6,206.3,113.6z M190.3,114.3L190.3,114.3c1.3-0.1,2.7-0.2,4-0.2
	c0.3,0,0.5-0.3,0.5-0.5c0-0.3-0.2-0.5-0.5-0.5c-1.4,0.1-2.7,0.2-4,0.2c-0.3,0-0.5,0.3-0.5,0.5C189.8,114.1,190.1,114.3,190.3,114.3z
	 M198.3,113.9L198.3,113.9c1.3-0.1,2.7-0.1,4-0.2c0.3,0,0.5-0.2,0.5-0.5s-0.2-0.5-0.5-0.5c-1.4,0.1-2.7,0.1-4,0.2
	c-0.3,0-0.5,0.2-0.5,0.5C197.8,113.7,198,113.9,198.3,113.9z M166.4,116.6C166.5,116.6,166.5,116.6,166.4,116.6
	c1.3-0.2,2.7-0.3,4-0.5c0.3,0,0.5-0.3,0.4-0.6c0-0.3-0.3-0.5-0.6-0.4c-1.4,0.2-2.7,0.3-4,0.5c-0.3,0-0.5,0.3-0.4,0.6
	C166,116.4,166.2,116.6,166.4,116.6z M150.6,119.1C150.7,119.1,150.7,119.1,150.6,119.1c1.3-0.2,2.7-0.5,4-0.7
	c0.3,0,0.5-0.3,0.4-0.6c0-0.3-0.3-0.5-0.6-0.4c-1.4,0.2-2.7,0.5-3.9,0.7c-0.3,0.1-0.4,0.3-0.4,0.6
	C150.2,118.9,150.4,119.1,150.6,119.1z M190.3,137.5L190.3,137.5c1.3-0.1,2.7-0.2,4-0.2c0.3,0,0.5-0.3,0.5-0.5
	c0-0.3-0.2-0.5-0.5-0.5c-1.4,0.1-2.7,0.2-4,0.2c-0.3,0-0.5,0.3-0.5,0.5C189.8,137.3,190.1,137.5,190.3,137.5z M206.3,136.8
	L206.3,136.8c1.3,0,2.7-0.1,4-0.1c0.3,0,0.5-0.2,0.5-0.5s-0.2-0.5-0.5-0.5c-1.4,0-2.7,0.1-4,0.1c-0.3,0-0.5,0.2-0.5,0.5
	S206,136.8,206.3,136.8z M198.3,137.1L198.3,137.1c1.3-0.1,2.7-0.1,4-0.2c0.3,0,0.5-0.2,0.5-0.5s-0.2-0.5-0.5-0.5
	c-1.4,0.1-2.7,0.1-4,0.2c-0.3,0-0.5,0.2-0.5,0.5S198,137.1,198.3,137.1z M182.3,138.1C182.4,138.1,182.4,138.1,182.3,138.1
	c1.3-0.1,2.7-0.2,4-0.3c0.3,0,0.5-0.3,0.5-0.5c0-0.3-0.3-0.5-0.5-0.5c-1.4,0.1-2.7,0.2-4,0.3c-0.3,0-0.5,0.3-0.5,0.5
	C181.9,137.9,182.1,138.1,182.3,138.1z M150.6,142.3C150.7,142.3,150.7,142.3,150.6,142.3c1.3-0.2,2.7-0.5,4-0.7
	c0.3,0,0.5-0.3,0.4-0.6c0-0.3-0.3-0.5-0.6-0.4c-1.4,0.2-2.7,0.5-3.9,0.7c-0.3,0.1-0.5,0.3-0.4,0.6
	C150.2,142.1,150.4,142.3,150.6,142.3z M142.8,143.9L142.8,143.9c1.3-0.3,2.6-0.6,4-0.9c0.3-0.1,0.4-0.3,0.4-0.6
	c-0.1-0.3-0.3-0.4-0.6-0.4c-1.4,0.3-2.7,0.6-3.9,0.9c-0.3,0.1-0.4,0.3-0.4,0.6C142.4,143.8,142.6,143.9,142.8,143.9z M158.5,140.9
	C158.5,140.9,158.6,140.9,158.5,140.9c1.3-0.2,2.7-0.4,4-0.6c0.3,0,0.5-0.3,0.4-0.6c0-0.3-0.3-0.5-0.6-0.4c-1.4,0.2-2.7,0.4-4,0.6
	c-0.3,0-0.5,0.3-0.4,0.6C158.1,140.7,158.3,140.9,158.5,140.9z M166.4,139.8C166.5,139.8,166.5,139.8,166.4,139.8
	c1.3-0.2,2.7-0.3,4-0.5c0.3,0,0.5-0.3,0.4-0.6c0-0.3-0.3-0.5-0.6-0.4c-1.4,0.2-2.7,0.3-4,0.5c-0.3,0-0.5,0.3-0.4,0.6
	C166,139.6,166.2,139.8,166.4,139.8z M174.4,138.9L174.4,138.9c1.3-0.1,2.7-0.3,4-0.4c0.3,0,0.5-0.3,0.5-0.5c0-0.3-0.3-0.5-0.5-0.5
	c-1.4,0.1-2.7,0.3-4,0.4c-0.3,0-0.5,0.3-0.4,0.5C173.9,138.7,174.1,138.9,174.4,138.9z M142.8,167.2L142.8,167.2
	c1.3-0.3,2.6-0.6,4-0.9c0.3-0.1,0.4-0.3,0.4-0.6c-0.1-0.3-0.3-0.4-0.6-0.4c-1.4,0.3-2.7,0.6-3.9,0.9c-0.3,0.1-0.4,0.3-0.4,0.6
	C142.4,167.1,142.6,167.2,142.8,167.2z M150.6,165.6C150.7,165.6,150.7,165.6,150.6,165.6c1.3-0.2,2.7-0.5,4-0.7
	c0.3,0,0.5-0.3,0.4-0.6s-0.3-0.5-0.6-0.4c-1.4,0.2-2.7,0.5-3.9,0.7c-0.3,0.1-0.5,0.3-0.4,0.6C150.2,165.4,150.4,165.6,150.6,165.6z
	 M206.3,160.1L206.3,160.1c1.3,0,2.7-0.1,4-0.1c0.3,0,0.5-0.2,0.5-0.5s-0.2-0.5-0.5-0.5c-1.4,0-2.7,0.1-4,0.1
	c-0.3,0-0.5,0.2-0.5,0.5S206,160.1,206.3,160.1z M174.4,162.2L174.4,162.2c1.3-0.1,2.7-0.3,4-0.4c0.3,0,0.5-0.3,0.5-0.5
	c0-0.3-0.3-0.5-0.5-0.5c-1.4,0.1-2.7,0.3-4,0.4c-0.3,0-0.5,0.3-0.4,0.5C173.9,162,174.1,162.2,174.4,162.2z M190.3,160.9
	L190.3,160.9c1.3-0.1,2.7-0.2,4-0.2c0.3,0,0.5-0.3,0.5-0.5c0-0.3-0.2-0.5-0.5-0.5c-1.4,0.1-2.7,0.2-4,0.2c-0.3,0-0.5,0.3-0.5,0.5
	S190.1,160.9,190.3,160.9z M182.3,161.4C182.4,161.4,182.4,161.4,182.3,161.4c1.3-0.1,2.7-0.2,4-0.3c0.3,0,0.5-0.3,0.5-0.5
	c0-0.3-0.3-0.5-0.5-0.5c-1.4,0.1-2.7,0.2-4,0.3c-0.3,0-0.5,0.3-0.5,0.5C181.9,161.2,182.1,161.4,182.3,161.4z M158.5,164.2
	C158.5,164.2,158.6,164.2,158.5,164.2c1.3-0.2,2.7-0.4,4-0.6c0.3,0,0.5-0.3,0.4-0.6c0-0.3-0.3-0.5-0.6-0.4c-1.4,0.2-2.7,0.4-4,0.6
	c-0.3,0-0.5,0.3-0.4,0.6C158.1,164,158.3,164.2,158.5,164.2z M198.3,160.4L198.3,160.4c1.3-0.1,2.7-0.1,4-0.2c0.3,0,0.5-0.2,0.5-0.5
	s-0.2-0.5-0.5-0.5c-1.4,0.1-2.7,0.1-4,0.2c-0.3,0-0.5,0.2-0.5,0.5S198,160.4,198.3,160.4z M166.4,163.1
	C166.5,163.1,166.5,163.1,166.4,163.1c1.3-0.2,2.7-0.3,4-0.5c0.3,0,0.5-0.3,0.4-0.6c0-0.3-0.3-0.5-0.6-0.4c-1.4,0.2-2.7,0.3-4,0.5
	c-0.3,0-0.5,0.3-0.4,0.6C166,162.9,166.2,163.1,166.4,163.1z M231.7,60.2h-6.5V53c0-1.5-0.6-2.9-1.7-3.9c-1-1-2.4-1.5-3.9-1.5
	c-63.5,0.5-88.1,10.3-91.7,11.9c-3.6-1.6-28.2-11.4-91.7-11.9c-1.4-0.1-2.8,0.5-3.9,1.5c-1.1,1-1.7,2.4-1.7,3.9v7.3h-6.7
	c-4.1,0-7.5,3.4-7.5,7.5v129.6c0,4.1,3.4,7.5,7.5,7.5h81.4c0.2,0,0.4,0.2,0.4,0.4c0,2,1.7,3.7,3.7,3.7H146c2,0,3.7-1.7,3.7-3.7h0.1
	V205c0.1-0.1,0.2-0.1,0.3-0.1h81.4c4.1,0,7.5-3.4,7.5-7.5V67.7C239.2,63.6,235.8,60.2,231.7,60.2z M219.7,49.6
	c0.9,0,1.8,0.3,2.4,0.9c0.7,0.6,1,1.5,1,2.5v124c0,1.8-1.6,3.4-3.4,3.4c-59.4,0.4-84.8,9-90.8,11.5V61.3
	C133,59.6,158.2,50.1,219.7,49.6z M134.6,192.1c10.6-3.3,36-9.1,83.2-9.6v2.4c0,2.2-1.6,3.9-3.6,3.9
	C169.7,189,145.3,190.9,134.6,192.1z M41.8,188.7c-2,0-3.6-1.8-3.6-3.9v-2.4c47.1,0.5,72.5,6.3,83.2,9.6
	C110.7,190.9,86.2,189,41.8,188.7z M32.8,53c0-1,0.4-1.8,1-2.5c0.6-0.6,1.4-0.9,2.3-0.9h0.1c61.5,0.5,86.8,10,90.7,11.7v130.6
	c-6-2.4-31.4-11-90.8-11.5c-1.8,0-3.4-1.6-3.4-3.4L32.8,53L32.8,53z M105.5,202.9H24.1c-3,0-5.5-2.5-5.5-5.5V67.8
	c0-3,2.5-5.5,5.5-5.5h6.7V177c0,3,2.4,5.4,5.4,5.4c0.3,0,0.7,0,1,0v2.4c0,2.7,2.1,4.9,4.6,4.9c29.7,0.2,50.4,1.1,64.1,2v11.2
	C105.8,202.9,105.6,202.9,105.5,202.9z M146.2,207h-36.6c-1,0-1.7-0.7-1.7-1.7v-13.4c9.4,0.7,15.2,1.3,18,1.7
	c1.1,0.4,1.7,0.7,1.7,0.7l0,0c0.1,0.1,0.3,0.1,0.4,0.1l0,0l0,0l0,0l0,0c0.1,0,0.3,0,0.4-0.1c0,0,0,0,0.1,0c0,0,0.6-0.3,1.7-0.7
	c2.8-0.4,8.5-1,17.9-1.7v12.7c-0.1,0.2-0.1,0.4-0.1,0.7C147.9,206.3,147.2,207,146.2,207z M237.2,197.4c0,3-2.5,5.5-5.5,5.5h-81.4
	c-0.1,0-0.2,0-0.3,0v-11.2c13.7-0.9,34.4-1.9,64.2-2.1c2.5,0,4.6-2.2,4.6-4.9v-2.4c0.3,0,0.7,0,1,0c3,0,5.4-2.4,5.4-5.4V62.2h6.5
	c3,0,5.5,2.5,5.5,5.5C237.2,67.7,237.2,197.4,237.2,197.4z"/>
</svg>
