<?xml version="1.0" encoding="utf-8"?>
<!-- Generator: Adobe Illustrator 19.0.0, SVG Export Plug-In . SVG Version: 6.00 Build 0)  -->
<svg version="1.1" id="Camada_1" xmlns="http://www.w3.org/2000/svg" xmlns:xlink="http://www.w3.org/1999/xlink" x="0px" y="0px"
	 viewBox="0 0 256 256" style="enable-background:new 0 0 256 256;" xml:space="preserve">
<style type="text/css">
	
</style>
<g>
	<path d="M146.5,79.4c-3.8-4.6-7.1-8.6-7.1-16.5V28.7h0.4c1.6,0,2.9-1.3,2.9-2.9v-4.3c0-1.6-1.3-2.9-2.9-2.9H138l1-5.2
		c0.1-0.8-0.1-1.6-0.6-2.2s-1.2-0.9-2-0.9h-17.2c-0.8,0-1.5,0.4-2,1s-0.7,1.4-0.6,2.2l1,5.2h-1.7c-1.6,0-2.9,1.3-2.9,2.9v4.3
		c0,1.6,1.3,2.9,2.9,2.9h0.3V63c0,7.9-3.3,11.9-7.1,16.5c-5.1,6.2-11,13.1-11,31.2v126.1c0,7.1,1.6,10.2,11.1,10.2h37.2
		c9.5,0,11.1-3.1,11.1-10.2V110.6C157.5,92.6,151.7,85.6,146.5,79.4z M118.6,13c0-0.2,0-0.4,0.2-0.6c0.1-0.2,0.3-0.2,0.5-0.2h17.2
		c0.2,0,0.4,0.1,0.5,0.2c0.1,0.2,0.2,0.4,0.1,0.6l-1,5.6h-16.4L118.6,13z M114,25.8v-4.3c0-1,0.9-1.9,1.9-1.9h23.9
		c1,0,1.9,0.9,1.9,1.9v4.3c0,1.1-0.8,1.9-1.9,1.9h-23.9C114.9,27.7,114,26.8,114,25.8z M155.5,236.7c0,6.1-0.7,8.2-9.1,8.2h-37.2
		c-8.3,0-9.1-2.2-9.1-8.2V110.6c0-17.4,5.6-24.1,10.5-30c3.9-4.7,7.6-9.1,7.6-17.7V28.7h19.2v34.2c0,8.7,3.7,13.1,7.6,17.8
		c4.9,5.9,10.5,12.6,10.5,29.9C155.5,110.6,155.5,236.7,155.5,236.7z"/>
	<rect x="107.5" y="213.8" width="1" height="18.3"/>
	<rect x="123.4" y="34.2" width="1" height="18.3"/>
	<path d="M108.5,111.7c0-14.4,4.6-20,8.7-24.9l0.7-0.8l-0.8-0.6l-0.7,0.8c-4.2,5-8.9,10.7-8.9,25.5v22.4h1
		C108.5,134.1,108.5,111.7,108.5,111.7z"/>
	<path d="M108,164.8c-0.3,0-0.5,0.2-0.5,0.5v4c0,0.3,0.2,0.5,0.5,0.5s0.5-0.2,0.5-0.5v-4
		C108.5,165,108.3,164.8,108,164.8z"/>
	<path d="M108,148.8c-0.3,0-0.5,0.2-0.5,0.5v4c0,0.3,0.2,0.5,0.5,0.5s0.5-0.2,0.5-0.5v-4
		C108.5,149,108.3,148.8,108,148.8z"/>
	<path d="M108,156.8c-0.3,0-0.5,0.2-0.5,0.5v4c0,0.3,0.2,0.5,0.5,0.5s0.5-0.2,0.5-0.5v-4
		C108.5,157,108.3,156.8,108,156.8z"/>
	<path d="M114.7,203h-4c-0.3,0-0.5,0.2-0.5,0.5s0.2,0.5,0.5,0.5h4c0.3,0,0.5-0.2,0.5-0.5S115,203,114.7,203z"/>
	<path d="M112,143.9c0-0.3-0.2-0.5-0.5-0.5h-1.4c-1.1,0-2.1,0.7-2.5,1.7c-0.1,0.3,0,0.5,0.3,0.6c0.1,0,0.1,0,0.2,0
		c0.2,0,0.4-0.1,0.5-0.3c0.2-0.6,0.8-1.1,1.5-1.1h1.4C111.8,144.4,112,144.2,112,143.9z"/>
	<path d="M108,196.8c-0.3,0-0.5,0.2-0.5,0.5v4c0,0.3,0.2,0.5,0.5,0.5s0.5-0.2,0.5-0.5v-4
		C108.5,197,108.3,196.8,108,196.8z"/>
	<path d="M108,188.8c-0.3,0-0.5,0.2-0.5,0.5v4c0,0.3,0.2,0.5,0.5,0.5s0.5-0.2,0.5-0.5v-4
		C108.5,189,108.3,188.8,108,188.8z"/>
	<path d="M120,143.9c0-0.3-0.2-0.5-0.5-0.5h-4c-0.3,0-0.5,0.2-0.5,0.5s0.2,0.5,0.5,0.5h4
		C119.8,144.4,120,144.2,120,143.9z"/>
	<path d="M108,172.8c-0.3,0-0.5,0.2-0.5,0.5v4c0,0.3,0.2,0.5,0.5,0.5s0.5-0.2,0.5-0.5v-4
		C108.5,173,108.3,172.8,108,172.8z"/>
	<path d="M108,180.8c-0.3,0-0.5,0.2-0.5,0.5v4c0,0.3,0.2,0.5,0.5,0.5s0.5-0.2,0.5-0.5v-4
		C108.5,181,108.3,180.8,108,180.8z"/>
	<path d="M148.8,151c-0.3,0-0.5,0.2-0.5,0.5v4c0,0.3,0.2,0.5,0.5,0.5s0.5-0.2,0.5-0.5v-4
		C149.3,151.2,149.1,151,148.8,151z"/>
	<path d="M148.8,175c-0.3,0-0.5,0.2-0.5,0.5v4c0,0.3,0.2,0.5,0.5,0.5s0.5-0.2,0.5-0.5v-4
		C149.3,175.2,149.1,175,148.8,175z"/>
	<path d="M148.8,183c-0.3,0-0.5,0.2-0.5,0.5v4c0,0.3,0.2,0.5,0.5,0.5s0.5-0.2,0.5-0.5v-4
		C149.3,183.2,149.1,183,148.8,183z"/>
	<path d="M148.8,191c-0.3,0-0.5,0.2-0.5,0.5v4c0,0.3,0.2,0.5,0.5,0.5s0.5-0.2,0.5-0.5v-4
		C149.3,191.2,149.1,191,148.8,191z"/>
	<path d="M122.7,203h-4c-0.3,0-0.5,0.2-0.5,0.5s0.2,0.5,0.5,0.5h4c0.3,0,0.5-0.2,0.5-0.5S123,203,122.7,203z"/>
	<path d="M142.2,203.5c0,0.3,0.2,0.5,0.5,0.5h4c0.3,0,0.5-0.2,0.5-0.5s-0.2-0.5-0.5-0.5h-4
		C142.4,203,142.2,203.2,142.2,203.5z"/>
	<path d="M148.8,159c-0.3,0-0.5,0.2-0.5,0.5v4c0,0.3,0.2,0.5,0.5,0.5s0.5-0.2,0.5-0.5v-4
		C149.3,159.2,149.1,159,148.8,159z"/>
	<path d="M147.3,144.5c0.6,0.3,1,0.8,1,1.5v1.5c0,0.3,0.2,0.5,0.5,0.5s0.5-0.2,0.5-0.5V146c0-1.1-0.6-2-1.6-2.4
		c-0.3-0.1-0.5,0-0.7,0.3C146.9,144.1,147,144.4,147.3,144.5z"/>
	<path d="M148.8,167c-0.3,0-0.5,0.2-0.5,0.5v4c0,0.3,0.2,0.5,0.5,0.5s0.5-0.2,0.5-0.5v-4
		C149.3,167.2,149.1,167,148.8,167z"/>
	<path d="M136,143.9c0-0.3-0.2-0.5-0.5-0.5h-4c-0.3,0-0.5,0.2-0.5,0.5s0.2,0.5,0.5,0.5h4
		C135.8,144.4,136,144.2,136,143.9z"/>
	<path d="M130.7,203h-4c-0.3,0-0.5,0.2-0.5,0.5s0.2,0.5,0.5,0.5h4c0.3,0,0.5-0.2,0.5-0.5S131,203,130.7,203z"/>
	<path d="M128,143.9c0-0.3-0.2-0.5-0.5-0.5h-4c-0.3,0-0.5,0.2-0.5,0.5s0.2,0.5,0.5,0.5h4
		C127.8,144.4,128,144.2,128,143.9z"/>
	<path d="M148.8,199c-0.3,0-0.5,0.2-0.5,0.5v1.8c0,0.6-0.3,1.1-0.8,1.5c-0.2,0.1-0.3,0.5-0.1,0.7
		c0.1,0.1,0.3,0.2,0.4,0.2c0.1,0,0.2,0,0.3-0.1c0.8-0.5,1.2-1.4,1.2-2.3v-1.8C149.3,199.2,149.1,199,148.8,199z"/>
	<path d="M144,143.9c0-0.3-0.2-0.5-0.5-0.5h-4c-0.3,0-0.5,0.2-0.5,0.5s0.2,0.5,0.5,0.5h4
		C143.8,144.4,144,144.2,144,143.9z"/>
	<path d="M138.7,203h-4c-0.3,0-0.5,0.2-0.5,0.5s0.2,0.5,0.5,0.5h4c0.3,0,0.5-0.2,0.5-0.5S139,203,138.7,203z"/>
</g>
</svg>
