<?xml version="1.0" encoding="utf-8"?>
<!-- Generator: Adobe Illustrator 19.0.0, SVG Export Plug-In . SVG Version: 6.00 Build 0)  -->
<svg version="1.1" id="Camada_1" xmlns="http://www.w3.org/2000/svg" xmlns:xlink="http://www.w3.org/1999/xlink" x="0px" y="0px"
	 viewBox="0 0 256 256" style="enable-background:new 0 0 256 256;" xml:space="preserve">
<style type="text/css">
	
</style>
<g>
	<path d="M248.8,156c-0.6-1.2-1.6-2.1-2.9-2.4l-66.3-16.8c-6.8-13.9-18.5-33.1-36.4-46.7
		c-18.1-13.8-38.5-18.8-60.8-14.9c0.5-1.1,0.7-2.3,0.3-3.4c-0.3-1.2-1.1-2.3-2.3-2.9c-1.1-0.6-2.4-0.8-3.7-0.5l-9.4,2.5
		c-2.5,0.6-4.1,3.3-3.4,5.9c0.3,1.2,1.1,2.1,2,2.8c-41.9,15.1-52.3,52.3-54.5,64c-0.4,1.7,0.1,3.3,1.4,4.5
		c5.1,4.6,8.3,13.8,10.3,21.8c-2.2,0.3-7.5,0.8-14,0.5c-1.3,0-2.4,1.1-2.4,2.5L8,183.8c0.2,1.1,1,1.9,2.1,1.9
		c0.7,0.1,1.8,0.1,3.6,0.1c2.7,0,7-0.2,13-1l0,0c37.3-4.3,66.2-10.4,88.2-16.8c33.3,14.7,58.7,20,77.9,20
		c37.1,0,51.3-19.5,55.8-27.9C249.3,158.7,249.3,157.3,248.8,156z M177.7,137.3c-2.6,2.2-14.8,11.8-43.4,22.2
		c-11.9-45.8-27.2-65.7-38-74.3c-6.4-5.1-11.9-7-15.7-7.6c5.7-1.1,11.2-1.7,16.4-1.7C140.3,75.9,165.6,112.6,177.7,137.3z M62,177.7
		c-2.8-9.3-21.3-76.6,9.8-97.9c1.1-0.3,2.3-0.7,3.5-1c0.7-0.2,1.3-0.3,2-0.5c3.3,0.1,10.2,1.2,18.4,7.8
		c10.7,8.5,25.8,28.3,37.6,73.8C115.9,166,92.6,172.4,62,177.7z M68,72.8l9.4-2.5c0.2-0.1,0.5-0.1,0.7-0.1c1.3,0,2.5,0.9,2.8,2.1
		c0.2,0.7,0.1,1.5-0.3,2.2s-1,1.1-1.7,1.3l0,0l-9.4,2.5c-1.5,0.4-3.1-0.5-3.5-2S66.5,73.1,68,72.8z M10.4,183.5h-0.1
		c-0.1,0-0.2,0-0.2-0.2l-1.3-10.6c0-0.2,0.2-0.5,0.4-0.5c6.9,0.3,12.4-0.2,14.5-0.5c1.1,4.9,1.7,9.2,1.9,11.1
		C16.5,183.9,11.9,183.7,10.4,183.5z M14.3,146.5L14.3,146.5c-0.7-0.7-1-1.6-0.8-2.6c2.2-11.6,12.8-49,55.4-63.2
		c-12.3,10.1-17.7,29.5-15.6,56.5c1.5,19,6.3,36.1,7.6,40.7c-10.3,1.7-21.4,3.3-33.4,4.7C26.8,176.4,23.6,154.9,14.3,146.5z
		 M246.9,159c-4.3,8.1-18,26.9-54,26.9c-18.5,0-42.9-5-74.9-18.9c3.6-1.1,6.9-2.1,10.1-3.2h0.1v-0.1l0,0v0.1v-0.1
		c34.2-11.4,48-22.6,50.7-25.1l61.5,15.7c-0.1,0.2,0,0.4,0.2,0.6c0.1,0.1,0.2,0.1,0.3,0.1c0.2,0,0.3-0.1,0.4-0.2
		c0-0.1,0.1-0.1,0.1-0.2l3.8,1c0.7,0.2,1.3,0.6,1.6,1.3C247.3,157.6,247.3,158.4,246.9,159z"/>
	<path d="M157.4,172.5c-1.3-0.3-2.5-0.7-3.9-1c-0.3-0.1-0.5,0.1-0.6,0.3c-0.1,0.3,0.1,0.5,0.3,0.6
		c1.3,0.4,2.6,0.7,3.9,1h0.1c0.2,0,0.4-0.1,0.5-0.4C157.9,172.9,157.7,172.6,157.4,172.5z"/>
	<path d="M165.2,174.3c-1.3-0.3-2.6-0.6-3.9-0.9c-0.3-0.1-0.5,0.1-0.6,0.4c-0.1,0.3,0.1,0.5,0.4,0.6
		c1.3,0.3,2.6,0.6,3.9,0.9h0.1c0.2,0,0.4-0.2,0.5-0.4C165.6,174.7,165.5,174.4,165.2,174.3z"/>
	<path d="M149.7,170.4c-1.3-0.4-2.5-0.8-3.8-1.2c-0.3-0.1-0.5,0.1-0.6,0.3c-0.1,0.2,0.1,0.5,0.3,0.6
		c1.3,0.4,2.6,0.8,3.8,1.2h0.1c0.2,0,0.4-0.1,0.5-0.4C150.2,170.7,150,170.4,149.7,170.4z"/>
	<path d="M134.6,165.2c-1.2-0.5-2.5-0.9-3.7-1.4c-0.3-0.1-0.5,0-0.6,0.3c-0.1,0.3,0,0.5,0.3,0.6c1.3,0.5,2.5,1,3.7,1.4
		c0.1,0,0.1,0,0.2,0c0.2,0,0.4-0.1,0.5-0.3C135,165.6,134.9,165.3,134.6,165.2z"/>
	<path d="M142.2,167.9c-1.2-0.4-2.5-0.9-3.8-1.3c-0.3-0.1-0.5,0-0.6,0.3s0,0.5,0.3,0.6c1.3,0.5,2.5,0.9,3.8,1.3
		c0.1,0,0.1,0,0.2,0c0.2,0,0.4-0.1,0.5-0.3C142.6,168.3,142.4,168,142.2,167.9z"/>
	<path d="M219.9,171.8c-1.2,0.5-2.4,1-3.7,1.5c-0.3,0.1-0.4,0.4-0.3,0.6c0.1,0.2,0.3,0.3,0.5,0.3c0.1,0,0.1,0,0.2,0
		c1.3-0.5,2.5-1,3.7-1.5c0.3-0.1,0.4-0.4,0.3-0.7S220.2,171.7,219.9,171.8z"/>
	<path d="M212.5,174.5c-1.2,0.4-2.5,0.7-3.8,1c-0.3,0.1-0.4,0.3-0.4,0.6c0.1,0.2,0.3,0.4,0.5,0.4h0.1
		c1.3-0.3,2.6-0.6,3.9-1c0.3-0.1,0.4-0.4,0.3-0.6C213,174.6,212.7,174.4,212.5,174.5z"/>
	<path d="M226.9,168c-1.1,0.7-2.3,1.4-3.4,2c-0.2,0.1-0.3,0.4-0.2,0.7c0.1,0.2,0.3,0.3,0.4,0.3c0.1,0,0.2,0,0.2-0.1
		c1.2-0.6,2.4-1.3,3.5-2c0.2-0.1,0.3-0.5,0.2-0.7C227.4,168,227.1,167.9,226.9,168z"/>
	<path d="M233.2,163.2c-1,0.9-2,1.7-3,2.5c-0.2,0.2-0.3,0.5-0.1,0.7c0.1,0.1,0.2,0.2,0.4,0.2c0.1,0,0.2,0,0.3-0.1
		c1.1-0.8,2.1-1.7,3.1-2.6c0.2-0.2,0.2-0.5,0-0.7C233.7,163,233.4,163,233.2,163.2z"/>
	<path d="M238.5,157.4c-0.8,1-1.6,2.1-2.5,3c-0.2,0.2-0.2,0.5,0,0.7c0.1,0.1,0.2,0.1,0.3,0.1c0.1,0,0.3-0.1,0.4-0.2
		c0.9-1,1.8-2,2.6-3.1c0.2-0.2,0.1-0.5-0.1-0.7C239,157.1,238.7,157.2,238.5,157.4z"/>
	<path d="M188.9,177.3c-1.3,0-2.6-0.1-4-0.2c-0.3,0-0.5,0.2-0.5,0.5s0.2,0.5,0.5,0.5c1.3,0.1,2.7,0.1,4,0.2l0,0
		c0.3,0,0.5-0.2,0.5-0.5S189.2,177.3,188.9,177.3z"/>
	<path d="M204.7,176.2c-1.3,0.2-2.6,0.4-3.9,0.5c-0.3,0-0.5,0.3-0.4,0.6c0,0.3,0.2,0.4,0.5,0.4c0,0,0,0,0.1,0
		c1.3-0.1,2.7-0.3,4-0.5c0.3,0,0.5-0.3,0.4-0.6C205.3,176.4,205,176.2,204.7,176.2z"/>
	<path d="M180.9,176.8c-1.3-0.1-2.6-0.3-4-0.4c-0.3,0-0.5,0.2-0.6,0.4c0,0.3,0.2,0.5,0.4,0.6c1.4,0.2,2.7,0.3,4,0.4l0,0
		c0.3,0,0.5-0.2,0.5-0.5C181.4,177.1,181.2,176.8,180.9,176.8z"/>
	<path d="M173,175.8c-1.3-0.2-2.6-0.4-3.9-0.7c-0.3,0-0.5,0.1-0.6,0.4c0,0.3,0.1,0.5,0.4,0.6c1.3,0.2,2.7,0.5,4,0.7h0.1
		c0.2,0,0.5-0.2,0.5-0.4C173.5,176.1,173.3,175.8,173,175.8z"/>
	<path d="M196.8,177.1c-1.3,0.1-2.6,0.1-4,0.2c-0.3,0-0.5,0.2-0.5,0.5s0.2,0.5,0.5,0.5l0,0c1.4,0,2.7-0.1,4-0.2
		c0.3,0,0.5-0.3,0.5-0.5C197.3,177.3,197.1,177.1,196.8,177.1z"/>
</g>
</svg>
