<?xml version="1.0" encoding="utf-8"?>
<!-- Generator: Adobe Illustrator 19.0.0, SVG Export Plug-In . SVG Version: 6.00 Build 0)  -->
<svg version="1.1" id="Camada_1" xmlns="http://www.w3.org/2000/svg" xmlns:xlink="http://www.w3.org/1999/xlink" x="0px" y="0px"
	 viewBox="0 0 256 256" style="enable-background:new 0 0 256 256;" xml:space="preserve">
<style type="text/css">
	
</style>
<g>
	<path d="M159.2,137.4c10.2-3.7,16.5-9,20.4-13.7c7.7-9.5,8.9-20.6,7.5-27.2c-2.6-12.8-8.1-37.3-15.1-57.3
		c-6.8-19.4-14.1-21-22.2-21H106c-8.1,0-15.4,1.6-22.2,21c-5.2,14.7-10.3,34-15,57.3c-1.4,6.7-0.2,17.8,7.5,27.3
		c4.1,5,11,10.6,22.3,14.3l-22.8,95.8c-0.2,1,0,1.9,0.6,2.7c0.6,0.7,1.5,1.2,2.5,1.2c1.4,0,2.7-1,3-2.2l15-53.5l32.2-20.8l32.2,20.7
		l15,53.5c0.3,1.3,1.5,2.3,3,2.3c1,0,1.9-0.4,2.5-1.2c0.6-0.7,0.8-1.7,0.6-2.7L159.2,137.4z M77.8,122.5c-7.3-8.9-8.4-19.4-7.1-25.6
		c4.7-23.2,9.8-42.4,15-57.1c6.9-19.6,14.1-19.6,20.4-19.6h43.8c6.3,0,13.5,0,20.4,19.6c6.9,19.9,12.4,44.3,15,57.1
		c1.3,6.2,0.2,16.6-7.1,25.5c-6.6,8.1-20.7,17.8-50.2,17.8C98.4,140.2,84.4,130.6,77.8,122.5z M127.8,142.2c8.4,0,15.5-0.8,21.7-2.1
		l1.6,5.7L129,160l-22.1-14.2l1.5-5.3C114,141.6,120.4,142.2,127.8,142.2z M79.8,235c-0.1,0.4-0.5,0.7-1,0.7c-0.4,0-0.7-0.1-0.9-0.4
		c-0.2-0.3-0.3-0.6-0.2-1l22.8-95.6c1.9,0.6,3.9,1,6,1.5L79.8,235z M97.2,180.5l9.5-33.7l21.4,13.8L97.2,180.5z M129.9,160.6
		l21.4-13.8l9.4,33.6L129.9,160.6z M180.1,235.3c-0.2,0.3-0.5,0.4-0.9,0.4c-0.5,0-0.9-0.3-1-0.8l-26.8-95.2c2.1-0.5,4-1,5.9-1.6
		l23,96.2C180.4,234.7,180.3,235,180.1,235.3z"/>
	<path d="M134.5,102.2c-1.3,0-2.6,0-4-0.1v1c1.4,0,2.7,0,4,0.1V102.2z"/>
	<path d="M142.5,102.4c-1.3-0.1-2.6-0.1-4-0.2v1c1.4,0,2.7,0.1,4,0.2V102.4z"/>
	<path d="M166.3,106.2c-1-0.5-2.3-0.9-3.9-1.3l-0.3,1c1.5,0.4,2.7,0.8,3.7,1.3L166.3,106.2z"/>
	<path d="M158.5,104.1c-1.2-0.2-2.6-0.4-4-0.6l-0.1,1c1.4,0.2,2.7,0.4,3.9,0.6L158.5,104.1z"/>
	<path d="M150.5,103c-1.3-0.1-2.6-0.2-4-0.3l-0.1,1c1.4,0.1,2.7,0.2,4,0.3L150.5,103z"/>
	<path d="M126.5,103.1v-1c-1.4,0-2.7,0-4,0v1C123.8,103.1,125.1,103.1,126.5,103.1z"/>
	<path d="M102.6,104.3l-0.1-1c-1.4,0.2-2.7,0.4-4,0.6l0.2,1C99.9,104.7,101.2,104.5,102.6,104.3z"/>
	<path d="M94.8,105.6l-0.2-1c-1.5,0.4-2.8,0.7-3.9,1.2l0.4,0.9C92.1,106.4,93.4,106,94.8,105.6z"/>
	<path d="M118.5,103.2v-1c-1.4,0-2.7,0.1-4,0.1v1C115.8,103.3,117.2,103.3,118.5,103.2z"/>
	<path d="M110.6,103.6l-0.1-1c-1.4,0.1-2.7,0.2-4,0.3l0.1,1C107.8,103.8,109.2,103.7,110.6,103.6z"/>
	<path d="M176.5,113.7c0.1-0.2,0-0.5-0.2-0.7c-0.2-0.1-0.5,0-0.7,0.2c-5.1,9.3-17.6,20.3-47.7,20.3
		s-42.5-11.1-47.7-20.3c-0.1-0.2-0.4-0.3-0.7-0.2c-0.2,0.1-0.3,0.4-0.2,0.7c5.3,9.5,17.9,20.9,48.5,20.9S171.3,123.3,176.5,113.7z"
		/>
</g>
</svg>
