<?xml version="1.0" encoding="utf-8"?>
<!-- Generator: Adobe Illustrator 19.0.0, SVG Export Plug-In . SVG Version: 6.00 Build 0)  -->
<svg version="1.1" id="Camada_1" xmlns="http://www.w3.org/2000/svg" xmlns:xlink="http://www.w3.org/1999/xlink" x="0px" y="0px"
	 viewBox="0 0 256 256" style="enable-background:new 0 0 256 256;" xml:space="preserve">
<style type="text/css">
	
</style>
<path d="M28.1,104.6c-3.9,0-7,3.1-7,7s3.1,7,7,7s7-3.1,7-7S32,104.6,28.1,104.6z M28.1,117.6c-3.3,0-6-2.7-6-6
	s2.7-6,6-6s6,2.7,6,6S31.4,117.6,28.1,117.6z M228.3,104.6c-3.9,0-7,3.1-7,7s3.1,7,7,7c3.9,0,7-3.1,7-7S232.2,104.6,228.3,104.6z
	 M228.3,117.6c-3.3,0-6-2.7-6-6s2.7-6,6-6s6,2.7,6,6S231.6,117.6,228.3,117.6z M178.9,94.3c0.1,0,0.3,0,0.4-0.1l1.4-1.4
	c0.2-0.2,0.2-0.5,0-0.7s-0.5-0.2-0.7,0l-1.4,1.4c-0.2,0.2-0.2,0.5,0,0.7C178.6,94.3,178.7,94.3,178.9,94.3z M176,97.2
	c0.1,0,0.3,0,0.4-0.1l1.4-1.4c0.2-0.2,0.2-0.5,0-0.7s-0.5-0.2-0.7,0l-1.4,1.4c-0.2,0.2-0.2,0.5,0,0.7
	C175.8,97.1,175.9,97.2,176,97.2z M165.5,106.5l-1.4,1.4c-0.2,0.2-0.2,0.5,0,0.7c0.1,0.1,0.2,0.1,0.4,0.1c0.1,0,0.3,0,0.4-0.1
	l1.4-1.4c0.2-0.2,0.2-0.5,0-0.7C166,106.3,165.7,106.3,165.5,106.5z M162.6,109.3l-1.4,1.4c-0.2,0.2-0.2,0.5,0,0.7
	c0.1,0.1,0.2,0.1,0.4,0.1c0.1,0,0.3,0,0.4-0.1l1.4-1.4c0.2-0.2,0.2-0.5,0-0.7C163.2,109.1,162.8,109.1,162.6,109.3z M80.9,99.5
	c-0.5,0.6-0.8,1.4-0.8,2.3c0,0.8,0.2,1.5,0.7,2.1l-1.1,1.1c-0.2,0.2-0.2,0.5,0,0.7c0.1,0.1,0.2,0.1,0.4,0.1c0.1,0,0.3,0,0.4-0.1
	l1.1-1.1c0.7,0.6,1.5,0.9,2.5,0.9c0.9,0,1.7-0.3,2.4-0.8l1,1c0.1,0.1,0.2,0.1,0.4,0.1s0.3,0,0.4-0.1c0.2-0.2,0.2-0.5,0-0.7l-1-1
	c0.5-0.6,0.7-1.4,0.7-2.2c0-0.9-0.3-1.8-0.9-2.4l1.1-1.1c0.2-0.2,0.2-0.5,0-0.7s-0.5-0.2-0.7,0l-1.1,1.1C85.8,98.3,85,98,84.2,98
	c-0.9,0-1.7,0.3-2.3,0.8l-1.3-1.3c-0.2-0.2-0.5-0.2-0.7,0s-0.2,0.5,0,0.7L80.9,99.5z M83.9,99c0.7,0,1.3,0.3,1.8,0.7
	c0,0,0,0.1,0.1,0.1c0,0,0.1,0.1,0.2,0.1c0.5,0.5,0.8,1.2,0.8,1.9c0,1.5-1.3,2.8-2.8,2.8s-2.8-1.3-2.8-2.8S82.4,99,83.9,99z M75.4,94
	c0.1,0.1,0.2,0.1,0.4,0.1c0.1,0,0.3,0,0.4-0.1c0.2-0.2,0.2-0.5,0-0.7l-1.4-1.4c-0.2-0.2-0.5-0.2-0.7,0s-0.2,0.5,0,0.7L75.4,94z
	 M78.2,96.8c0.1,0.1,0.2,0.1,0.4,0.1c0.1,0,0.3,0,0.4-0.1c0.2-0.2,0.2-0.5,0-0.7l-1.4-1.4c-0.2-0.2-0.5-0.2-0.7,0s-0.2,0.5,0,0.7
	L78.2,96.8z M89.4,106.5c-0.2-0.2-0.5-0.2-0.7,0s-0.2,0.5,0,0.7l1.4,1.4c0.1,0.1,0.2,0.1,0.4,0.1s0.3,0,0.4-0.1
	c0.2-0.2,0.2-0.5,0-0.7L89.4,106.5z M92.2,109.3c-0.2-0.2-0.5-0.2-0.7,0s-0.2,0.5,0,0.7l1.4,1.4c0.1,0.1,0.2,0.1,0.4,0.1
	s0.3,0,0.4-0.1c0.2-0.2,0.2-0.5,0-0.7L92.2,109.3z M245.1,93.8c-4.9-4.7-11.3-7.1-18.1-6.9c-9.9,0.4-18.2,6.6-21.9,15.3V71.6
	c0-9.2-7.4-16.6-16.6-16.6H67.3c-9.2,0-16.6,7.4-16.6,16.6v30.6c-3.7-8.7-12-14.9-21.9-15.3c-6.8-0.2-13.2,2.2-18,6.9
	c-4.9,4.7-7.6,11-7.6,17.8c0,10,5.9,18.8,15.1,22.8v39.5c0,9,6.9,16.4,15.8,17.1c-1,1-1.6,2.4-1.6,4c0,3.3,2.6,5.9,5.9,5.9h8.4
	c3.3,0,5.9-2.6,5.9-5.9c0-1.5-0.6-2.9-1.5-3.9h152.9c-0.9,1-1.5,2.4-1.5,3.9c0,3.3,2.6,5.9,5.9,5.9h8.4c3.3,0,5.9-2.6,5.9-5.9
	c0-1.5-0.6-2.9-1.5-3.9c9.1-0.5,16.3-8,16.3-17.2v-39.5c9.1-3.8,15.1-12.9,15.1-22.8C252.7,104.8,250,98.5,245.1,93.8z M52.8,142.1
	v-11.3c0-2.9,2.4-5.3,5.3-5.3h64c2.9,0,5.3,2.4,5.3,5.3v25.9H66.6c-7.6,0-13.8-6.2-13.8-13.8V142.1z M128.4,130.8
	c0-2.9,2.4-5.3,5.3-5.3h64c2.9,0,5.3,2.4,5.3,5.3c0,0.2,0.1,0.3,0.2,0.4v10.9v0.8c0,7.6-6.2,13.8-13.8,13.8h-61V130.8z M52.8,71.6
	c0-8.1,6.5-14.6,14.6-14.6h121.2c8.1,0,14.6,6.5,14.6,14.6v40.6v15.5c-1.1-1.9-3.1-3.2-5.5-3.2h-64c-2.6,0-4.8,1.6-5.8,3.8
	c-1-2.3-3.2-3.8-5.8-3.8h-64c-2.2,0-4.2,1.2-5.3,2.9v-15.2V71.6z M50.8,195c0,2.2-1.7,3.9-3.9,3.9h-8.4c-2.2,0-3.9-1.8-3.9-3.9
	s1.7-3.9,3.9-3.9h8.4C49.1,191.1,50.8,192.8,50.8,195z M216.9,198.9h-8.4c-2.2,0-3.9-1.8-3.9-3.9s1.8-3.9,3.9-3.9h8.4
	c2.2,0,3.9,1.8,3.9,3.9S219.1,198.9,216.9,198.9z M236.2,132.8c-0.4,0.1-0.6,0.5-0.6,0.9v40.2c0,8.4-6.8,15.2-15.2,15.2h-3.5h-8.4
	H46.9h-8.4h-2.9c-8.4,0-15.2-6.8-15.2-15.2v-40.2c0-0.4-0.3-0.8-0.6-0.9C11,129.3,5.3,121,5.3,111.6c0-6.2,2.5-12,7-16.4
	c4.3-4.1,9.8-6.4,15.7-6.4c0.3,0,0.6,0,0.9,0c12.3,0.5,21.9,10.7,21.9,23.3V142v0.8c0,8.7,7.1,15.8,15.8,15.8h122.8
	c8.7,0,15.8-7.1,15.8-15.8V142v-29.9c0-12.6,9.6-22.8,21.9-23.3c6.2-0.2,12.1,2,16.6,6.3s7,10.1,7,16.4
	C250.7,120.9,244.9,129.4,236.2,132.8z M113.2,72.7c0.1,0,0.3,0,0.4-0.1l1.4-1.4c0.2-0.2,0.2-0.5,0-0.7c-0.2-0.2-0.5-0.2-0.7,0
	l-1.4,1.4c-0.2,0.2-0.2,0.5,0,0.7C113,72.7,113.1,72.7,113.2,72.7z M110.4,75.6c0.1,0,0.3,0,0.4-0.1l1.4-1.4c0.2-0.2,0.2-0.5,0-0.7
	s-0.5-0.2-0.7,0l-1.4,1.4c-0.2,0.2-0.2,0.5,0,0.7C110.2,75.5,110.3,75.6,110.4,75.6z M94.6,91.4c0.1,0,0.3,0,0.4-0.1l1.4-1.4
	c0.2-0.2,0.2-0.5,0-0.7s-0.5-0.2-0.7,0l-1.4,1.4c-0.2,0.2-0.2,0.5,0,0.7C94.3,91.4,94.5,91.4,94.6,91.4z M101.3,83.5l-1.4,1.4
	c-0.2,0.2-0.2,0.5,0,0.7c0.1,0.1,0.2,0.1,0.4,0.1s0.3,0,0.4-0.1l1.4-1.4c0.2-0.2,0.2-0.5,0-0.7S101.5,83.3,101.3,83.5z M91.8,94.2
	c0.1,0,0.3,0,0.4-0.1l1.4-1.4c0.2-0.2,0.2-0.5,0-0.7s-0.5-0.2-0.7,0l-1.4,1.4c-0.2,0.2-0.2,0.5,0,0.7C91.5,94.2,91.6,94.2,91.8,94.2
	z M98.5,86.3l-1.4,1.4c-0.2,0.2-0.2,0.5,0,0.7c0.1,0.1,0.2,0.1,0.4,0.1s0.3,0,0.4-0.1l1.4-1.4c0.2-0.2,0.2-0.5,0-0.7
	S98.7,86.1,98.5,86.3z M88.9,97.1c0.1,0,0.3,0,0.4-0.1l1.4-1.4c0.2-0.2,0.2-0.5,0-0.7s-0.5-0.2-0.7,0l-1.4,1.4
	c-0.2,0.2-0.2,0.5,0,0.7C88.7,97,88.8,97.1,88.9,97.1z M75.4,109.3l-1.4,1.4c-0.2,0.2-0.2,0.5,0,0.7c0.1,0.1,0.2,0.1,0.4,0.1
	c0.1,0,0.3,0,0.4-0.1l1.4-1.4c0.2-0.2,0.2-0.5,0-0.7C76,109.1,75.6,109.1,75.4,109.3z M78.3,106.5l-1.4,1.4c-0.2,0.2-0.2,0.5,0,0.7
	c0.1,0.1,0.2,0.1,0.4,0.1c0.1,0,0.3,0,0.4-0.1l1.4-1.4c0.2-0.2,0.2-0.5,0-0.7C78.8,106.3,78.5,106.3,78.3,106.5z M154,75.6
	c0.1,0,0.3,0,0.4-0.1l1.4-1.4c0.2-0.2,0.2-0.5,0-0.7s-0.5-0.2-0.7,0l-1.4,1.4c-0.2,0.2-0.2,0.5,0,0.7
	C153.8,75.5,153.9,75.6,154,75.6z M156.8,72.7c0.1,0,0.3,0,0.4-0.1l1.4-1.4c0.2-0.2,0.2-0.5,0-0.7c-0.2-0.2-0.5-0.2-0.7,0l-1.4,1.4
	c-0.2,0.2-0.2,0.5,0,0.7C156.6,72.7,156.7,72.7,156.8,72.7z M142.1,86.3l-1.4,1.4c-0.2,0.2-0.2,0.5,0,0.7c0.1,0.1,0.2,0.1,0.4,0.1
	c0.2,0,0.3,0,0.4-0.1l1.4-1.4c0.2-0.2,0.2-0.5,0-0.7C142.7,86.1,142.3,86.1,142.1,86.3z M135.4,94.2c0.1,0,0.3,0,0.4-0.1l1.4-1.4
	c0.2-0.2,0.2-0.5,0-0.7c-0.2-0.2-0.5-0.2-0.7,0l-1.4,1.4c-0.2,0.2-0.2,0.5,0,0.7C135.1,94.2,135.2,94.2,135.4,94.2z M144.9,83.5
	l-1.4,1.4c-0.2,0.2-0.2,0.5,0,0.7c0.1,0.1,0.2,0.1,0.4,0.1c0.2,0,0.3,0,0.4-0.1l1.4-1.4c0.2-0.2,0.2-0.5,0-0.7
	C145.5,83.3,145.1,83.3,144.9,83.5z M132.5,97.1c0.1,0,0.3,0,0.4-0.1l1.4-1.4c0.2-0.2,0.2-0.5,0-0.7s-0.5-0.2-0.7,0l-1.4,1.4
	c-0.2,0.2-0.2,0.5,0,0.7C132.3,97,132.4,97.1,132.5,97.1z M138.2,91.4c0.1,0,0.3,0,0.4-0.1l1.4-1.4c0.2-0.2,0.2-0.5,0-0.7
	c-0.2-0.2-0.5-0.2-0.7,0l-1.4,1.4c-0.2,0.2-0.2,0.5,0,0.7C137.9,91.4,138.1,91.4,138.2,91.4z M119,109.3l-1.4,1.4
	c-0.2,0.2-0.2,0.5,0,0.7c0.1,0.1,0.2,0.1,0.4,0.1c0.1,0,0.3,0,0.4-0.1l1.4-1.4c0.2-0.2,0.2-0.5,0-0.7
	C119.6,109.1,119.2,109.1,119,109.3z M121.9,106.5l-1.4,1.4c-0.2,0.2-0.2,0.5,0,0.7c0.1,0.1,0.2,0.1,0.4,0.1c0.1,0,0.3,0,0.4-0.1
	l1.4-1.4c0.2-0.2,0.2-0.5,0-0.7C122.4,106.3,122.1,106.3,121.9,106.5z M146,78c-0.5,0.6-0.8,1.4-0.8,2.2c0,2.1,1.7,3.8,3.8,3.8
	s3.8-1.7,3.8-3.8c0-0.9-0.3-1.7-0.8-2.4l1-1c0.2-0.2,0.2-0.5,0-0.7s-0.5-0.2-0.7,0l-1,1c-0.6-0.5-1.4-0.7-2.2-0.7
	c-0.9,0-1.7,0.3-2.4,0.8l-1.1-1.1c-0.2-0.2-0.5-0.2-0.7,0c-0.2,0.2-0.2,0.5,0,0.7L146,78z M150.7,78c0,0.1,0.1,0.2,0.1,0.2
	c0.1,0.1,0.2,0.1,0.3,0.1c0.4,0.5,0.7,1.1,0.7,1.8c0,1.5-1.3,2.8-2.8,2.8s-2.8-1.3-2.8-2.8s1.3-2.8,2.8-2.8
	C149.7,77.4,150.2,77.6,150.7,78z M140.6,72.6c0.1,0.1,0.2,0.1,0.4,0.1c0.1,0,0.3,0,0.4-0.1c0.2-0.2,0.2-0.5,0-0.7l-1.4-1.4
	c-0.2-0.2-0.5-0.2-0.7,0s-0.2,0.5,0,0.7L140.6,72.6z M143.4,75.4c0.1,0.1,0.2,0.1,0.4,0.1c0.1,0,0.3,0,0.4-0.1
	c0.2-0.2,0.2-0.5,0-0.7l-1.4-1.4c-0.2-0.2-0.5-0.2-0.7,0c-0.2,0.2-0.2,0.5,0,0.7L143.4,75.4z M153,83.5c-0.2-0.2-0.5-0.2-0.7,0
	s-0.2,0.5,0,0.7l1.4,1.4c0.1,0.1,0.2,0.1,0.4,0.1c0.2,0,0.3,0,0.4-0.1c0.2-0.2,0.2-0.5,0-0.7L153,83.5z M155.8,86.3
	c-0.2-0.2-0.5-0.2-0.7,0c-0.2,0.2-0.2,0.5,0,0.7l1.4,1.4c0.1,0.1,0.2,0.1,0.4,0.1s0.3,0,0.4-0.1c0.2-0.2,0.2-0.5,0-0.7L155.8,86.3z
	 M167.8,99.7c-0.4,0.6-0.7,1.3-0.7,2.1c0,0.8,0.3,1.6,0.8,2.2l-1,1c-0.2,0.2-0.2,0.5,0,0.7c0.1,0.1,0.2,0.1,0.4,0.1
	c0.1,0,0.3,0,0.4-0.1l1-1c0.6,0.5,1.5,0.8,2.4,0.8c0.8,0,1.5-0.2,2.1-0.7c0,0.1,0.1,0.2,0.1,0.2l0.7,0.7c0.1,0.1,0.2,0.1,0.4,0.1
	c0.1,0,0.3,0,0.4-0.1c0.2-0.2,0.2-0.5,0-0.7l-0.7-0.7l-0.1-0.1c0.6-0.7,1-1.6,1-2.5s-0.3-1.7-0.8-2.3l1.1-1.1c0.2-0.2,0.2-0.5,0-0.7
	s-0.5-0.2-0.7,0l-1.1,1.1c-0.6-0.5-1.4-0.8-2.3-0.8c-0.9,0-1.8,0.4-2.5,0.9l-1.3-1.3c-0.2-0.2-0.5-0.2-0.7,0s-0.2,0.5,0,0.7
	L167.8,99.7z M170.9,99c0.7,0,1.4,0.3,1.9,0.7c0,0,0,0.1,0.1,0.1c0.1,0,0.1,0.1,0.1,0.1c0.4,0.5,0.7,1.1,0.7,1.9
	c0,1.5-1.3,2.8-2.8,2.8s-2.8-1.3-2.8-2.8S169.4,99,170.9,99z M157.9,89.1c-0.2,0.2-0.2,0.5,0,0.7l1.4,1.4c0.1,0.1,0.2,0.1,0.4,0.1
	s0.3,0,0.4-0.1c0.2-0.2,0.2-0.5,0-0.7l-1.4-1.4C158.5,89,158.1,89,157.9,89.1z M162.2,94.1c0.1,0.1,0.2,0.1,0.4,0.1
	c0.2,0,0.3,0,0.4-0.1c0.2-0.2,0.2-0.5,0-0.7l-1.4-1.4c-0.2-0.2-0.5-0.2-0.7,0c-0.2,0.2-0.2,0.5,0,0.7L162.2,94.1z M165,96.9
	c0.1,0.1,0.2,0.1,0.4,0.1c0.2,0,0.3,0,0.4-0.1c0.2-0.2,0.2-0.5,0-0.7l-1.4-1.4c-0.2-0.2-0.5-0.2-0.7,0s-0.2,0.5,0,0.7L165,96.9z
	 M176.7,108.7c0.1,0.1,0.2,0.1,0.4,0.1c0.1,0,0.3,0,0.4-0.1c0.2-0.2,0.2-0.5,0-0.7l-1.4-1.4c-0.2-0.2-0.5-0.2-0.7,0
	c-0.2,0.2-0.2,0.5,0,0.7L176.7,108.7z M179.5,111.5c0.1,0.1,0.2,0.1,0.4,0.1c0.1,0,0.3,0,0.4-0.1c0.2-0.2,0.2-0.5,0-0.7l-1.4-1.4
	c-0.2-0.2-0.5-0.2-0.7,0s-0.2,0.5,0,0.7L179.5,111.5z M102.1,77.6c-0.5,0.6-0.8,1.5-0.8,2.4c0,2.1,1.7,3.8,3.8,3.8
	c2.1,0,3.8-1.7,3.8-3.8c0-0.8-0.2-1.5-0.6-2.1l1.1-1.1c0.2-0.2,0.2-0.5,0-0.7s-0.5-0.2-0.7,0l-1,1c-0.7-0.6-1.5-1-2.5-1
	c-0.8,0-1.6,0.3-2.2,0.7l-1.1-1.1c-0.2-0.2-0.5-0.2-0.7,0s-0.2,0.5,0,0.7L102.1,77.6z M107.1,78.1c0,0.1,0.1,0.1,0.1,0.2
	c0,0,0,0,0.1,0c0.4,0.5,0.6,1.1,0.6,1.7c0,1.5-1.3,2.8-2.8,2.8s-2.8-1.3-2.8-2.8s1.3-2.8,2.8-2.8C105.9,77.2,106.6,77.5,107.1,78.1z
	 M96.8,72.3c0.1,0.1,0.2,0.1,0.4,0.1s0.3,0,0.4-0.1c0.2-0.2,0.2-0.5,0-0.7l-1.4-1.4c-0.2-0.2-0.5-0.2-0.7,0s-0.2,0.5,0,0.7
	L96.8,72.3z M99.6,75.1c0.1,0.1,0.2,0.1,0.4,0.1s0.3,0,0.4-0.1c0.2-0.2,0.2-0.5,0-0.7L99,73c-0.2-0.2-0.5-0.2-0.7,0s-0.2,0.5,0,0.7
	L99.6,75.1z M109.4,83.5c-0.2-0.2-0.5-0.2-0.7,0s-0.2,0.5,0,0.7l1.4,1.4c0.1,0.1,0.2,0.1,0.4,0.1s0.3,0,0.4-0.1
	c0.2-0.2,0.2-0.5,0-0.7L109.4,83.5z M114.3,89.1c-0.2,0.2-0.2,0.5,0,0.7l1.4,1.4c0.1,0.1,0.2,0.1,0.4,0.1c0.2,0,0.3,0,0.4-0.1
	c0.2-0.2,0.2-0.5,0-0.7l-1.4-1.4C114.9,89,114.5,89,114.3,89.1z M112.2,86.3c-0.2-0.2-0.5-0.2-0.7,0s-0.2,0.5,0,0.7l1.4,1.4
	c0.1,0.1,0.2,0.1,0.4,0.1s0.3,0,0.4-0.1c0.2-0.2,0.2-0.5,0-0.7L112.2,86.3z M118.6,94.1c0.1,0.1,0.2,0.1,0.4,0.1s0.3,0,0.4-0.1
	c0.2-0.2,0.2-0.5,0-0.7L118,92c-0.2-0.2-0.5-0.2-0.7,0c-0.2,0.2-0.2,0.5,0,0.7L118.6,94.1z M124.2,99.7c-0.4,0.6-0.6,1.3-0.6,2.1
	c0,0.8,0.3,1.6,0.7,2.2l-1,1.1c-0.2,0.2-0.2,0.5,0,0.7c0.1,0.1,0.2,0.1,0.4,0.1c0.1,0,0.3,0,0.4-0.1l1-1c0.7,0.5,1.5,0.9,2.4,0.9
	c0.8,0,1.5-0.2,2.1-0.6l0.8,0.8c0.1,0.1,0.2,0.1,0.4,0.1s0.3,0,0.4-0.1c0.2-0.2,0.2-0.5,0-0.7l-0.8-0.8c0.6-0.7,1-1.5,1-2.5
	c0-0.9-0.3-1.7-0.8-2.4l1.1-1.1c0.2-0.2,0.2-0.5,0-0.7c-0.2-0.2-0.5-0.2-0.7,0l-1.1,1.1c-0.6-0.5-1.4-0.7-2.2-0.7
	c-1,0-1.8,0.4-2.5,1l-1.3-1.3c-0.2-0.2-0.5-0.2-0.7,0c-0.2,0.2-0.2,0.5,0,0.7L124.2,99.7z M127.4,99c1.5,0,2.8,1.3,2.8,2.8
	s-1.3,2.8-2.8,2.8c-0.8,0-1.4-0.3-1.9-0.8c0-0.1-0.1-0.1-0.1-0.2c0,0-0.1,0-0.1-0.1c-0.4-0.5-0.7-1.1-0.7-1.8
	C124.6,100.3,125.9,99,127.4,99z M121.4,96.9c0.1,0.1,0.2,0.1,0.4,0.1s0.3,0,0.4-0.1c0.2-0.2,0.2-0.5,0-0.7l-1.4-1.4
	c-0.2-0.2-0.5-0.2-0.7,0c-0.2,0.2-0.2,0.5,0,0.7L121.4,96.9z M134.5,110l1.4,1.4c0.1,0.1,0.2,0.1,0.4,0.1s0.3,0,0.4-0.1
	c0.2-0.2,0.2-0.5,0-0.7l-1.4-1.4c-0.2-0.2-0.5-0.2-0.7,0C134.4,109.5,134.3,109.8,134.5,110z M131.7,107.2l1.4,1.4
	c0.1,0.1,0.2,0.1,0.4,0.1c0.2,0,0.3,0,0.4-0.1c0.2-0.2,0.2-0.5,0-0.7l-1.4-1.4c-0.2-0.2-0.5-0.2-0.7,0S131.5,107,131.7,107.2z"/>
</svg>
