<?xml version="1.0" encoding="utf-8"?>
<!-- Generator: Adobe Illustrator 19.0.0, SVG Export Plug-In . SVG Version: 6.00 Build 0)  -->
<svg version="1.1" id="Camada_1" xmlns="http://www.w3.org/2000/svg" xmlns:xlink="http://www.w3.org/1999/xlink" x="0px" y="0px"
	 viewBox="0 0 256 256" style="enable-background:new 0 0 256 256;" xml:space="preserve">
<style type="text/css">
	
</style>
<path d="M190.8,205.3c-1.5-14.9-10-41.6-17.6-65.2c-3.5-11-6.9-21.3-9.3-30c-5.2-18.3-1.3-29.6,1.4-37.2
	c0.7-1.9,1.2-3.6,1.6-5c0.2-0.5,4.7-13.5,2.4-28.4l-0.1-0.5c-0.1-0.6-0.2-1.2-0.3-1.7c-0.8-6.2,0.8-8.4,2.3-10.5
	c1-1.4,2.1-2.9,2.4-5.4c0.4-3,0-5.2-0.3-6.6l0.4-0.1l-0.8-1.1c-0.1-0.2-0.1-0.3-0.1-0.3h-0.1c-7.2-9.1-24.3-8.1-25.1-8.1l-2.2,0.1
	l0.2,0.2c-2,0.4-4.2,1.3-6.4,2.3c-3.2,1.4-6.6,2.9-9.7,2.9c-3.2,0-6.8-1.5-10.2-3c-2.1-0.9-4.1-1.7-5.9-2.2l0.1-0.1l-2-0.3
	c-0.8-0.1-20-2.5-25.5,8l0,0h-0.1c0,0-0.2,0.3-0.4,0.9l-0.1,0.2l0,0c-0.4,1.3-0.9,3.6-0.5,7c0.3,2.4,1.1,3.6,1.7,4.8
	c1,1.7,2,3.4,1.2,10l0,0c-1.6,8.1-2.9,16.1,2.4,33.9V70c0.1,0.2,9.1,20.2,2.4,39.9c-1.2,3.6-2.8,7.9-4.6,12.9
	c-8.2,22.7-20.6,57-22.4,83.6c-1.8,26-2.1,32.9,0.3,35.5c1,1.1,2.3,1.3,3.4,1.3c1.3,0.1,2.6,0.2,4,0.3c3.5,0.3,7.3,0.7,11.8-0.1
	c0,1,0.2,2.3,1.2,3.3c1.1,1.1,3.1,1.6,5.9,1.5c7.6-0.2,7.6,0,7.8,1.8c0.1,0.7,0.6,1.7,2.4,2.2c3.2,1,10.1,0.4,13.5-1.7
	c0.5,1,1.3,1.6,1.9,1.8s1.2,0.4,1.9,0.4c1.7,0,3.7-0.7,5.7-2.1c4.6-3.1,8.2-3.6,11-1.7c3,2,9.3,4.4,13.5,3.2c1.2-0.3,2.2-1,2.9-1.9
	c1.5,0.6,3.8,0.7,6.1-1.9c1.9-2.1,4.8-1.1,7.9-0.2c1.1,0.3,2.2,0.7,3.3,0.9c2.8,0.5,5.1-0.8,6.3-2.2c1-1.3,1.4-2.7,0.9-4
	c0.2-0.4,2.8-1.3,8-0.8c1,0.1,2-0.3,2.8-1.1C193.2,236.3,191.7,214.5,190.8,205.3z M171.4,15.5c0.3,1.1,0.6,3,0.3,5.6
	c-0.3,2-1.1,3.1-2.1,4.5c-0.6,0.8-1.1,1.6-1.6,2.6c-0.1-3.1,0-6.5,0.4-10.4C169.4,16.8,170.3,16,171.4,15.5z M112.2,7l0.4-0.5
	c1.8,0.3,4,1.2,6.3,2.2c3.3,1.4,7.1,3,10.6,3c3.4,0,6.8-1.5,10.1-2.9c2.5-1.1,4.8-2.1,6.9-2.4l0.5,0.5c0.6,0.6,1.1,1.4,1.5,2.2
	c-2.5,0.3-5.2,1.5-8.1,2.7c-3.6,1.6-7.3,3.2-10.9,3.2c-3.6,0-7.5-1.7-11.3-3.3c-2.7-1.2-5.3-2.2-7.5-2.6
	C111.1,8.4,111.6,7.6,112.2,7z M110.3,10.2c2.2,0.3,4.8,1.4,7.5,2.6c3.9,1.7,7.9,3.4,11.7,3.4c3.8,0,7.6-1.7,11.3-3.3
	c2.9-1.3,5.6-2.4,8.1-2.7c1,2.8,0.9,6.4-0.4,9.6c-2.7,6.4-9.6,10-18.8,10c-9.3,0-16.1-3.7-18.8-10C109.4,16.6,109.3,13,110.3,10.2z
	 M109.6,7.1c-2.3,3.6-2.6,8.8-0.7,13.4c3,7.2,10.6,11.3,20.7,11.3s17.7-4.1,20.7-11.3c1.9-4.6,1.6-9.7-0.6-13.3
	c4.4,0,15.3,0.7,20.7,6.5c-4.4,2.1-6.8,7.4-9.5,13.4c-0.6,1.4-1.3,2.8-2,4.3c-2.7,5.8-9.5,10.5-15.8,11c-3.6,0.3-8.7-0.7-12.7-6.8
	l-0.8-1.3l-0.8,1.3c-4,6.1-9.1,7.1-12.7,6.8c-6.3-0.4-13.1-5.2-15.9-11c-0.6-1.4-1.2-2.8-1.8-4.1c-2.8-6.4-5.2-12-9.9-14.1
	C93.1,6.7,105,6.8,109.6,7.1z M87.1,21.2c-0.4-3,0.1-5.1,0.4-6.1c0.9,0.4,1.7,0.9,2.4,1.6c0.1,0.7,0.3,4.9-0.3,10.6
	c-0.3-0.8-0.7-1.4-1-2C87.9,24.1,87.4,23.1,87.1,21.2z M92.3,69.4c-5.4-18-3.8-25.7-2.1-33.8c0.2-0.8,0.3-1.6,0.5-2.4
	c1.2-5.9,1.4-11,1.3-14.1c1.6,2.4,3,5.6,4.5,9c0.6,1.4,1.2,2.8,1.9,4.2c3.1,6.6,10.5,11.7,17.5,12.2c0.4,0,0.8,0,1.2,0
	c3.7,0,8.5-1.3,12.5-6.6c4.4,5.8,9.8,6.8,13.7,6.5c7.1-0.5,14.4-5.6,17.5-12.1c0.7-1.5,1.3-2.9,2-4.3c1.1-2.5,2.2-4.9,3.4-6.9
	c-0.5,6.7,0.1,11.9,0.8,16.5c0,0.1,0,0.2,0,0.4l0,0c0.1,0.5,0.1,1,0.2,1.4l0.1,0.5c2.1,14.4-2.3,27.3-2.4,27.5
	c-0.4,1.5-0.9,3.1-1.6,4.9c-1.9,5.3-4.4,12.5-4,22.6c-3.7,0.5-15.3,1.7-30.7,1.7c-15.5,0-27.5-1.3-31.2-1.7
	C97.5,81.3,92.8,70.5,92.3,69.4z M160.4,104.4l-14.6,5.3c-11.4,3.3-23.5,3.3-34.9,0l-14.7-4.3c0.7-3.2,1-6.4,1.1-9.4
	c3.9,0.5,15.9,1.7,31.3,1.7s27-1.3,30.8-1.7C159.5,98.5,159.8,101.3,160.4,104.4z M186.8,239.9c-0.5,0.5-0.9,0.5-1.2,0.5
	c-1.9-0.2-8.1-0.6-9.8,1.5c-0.4,0.6-0.5,1.3-0.3,2c0.2,0.5,0,1.2-0.6,1.9c-0.8,1-2.4,1.9-4.4,1.5c-0.9-0.2-2-0.5-3.1-0.8
	c-3.4-1.1-7.2-2.3-10,0.7c-2.3,2.6-4.1,1.3-4.3,1.1l-0.6-0.5c-0.1-0.6-0.2-1.3-0.3-1.9c0-0.3-0.3-0.5-0.6-0.4
	c-0.3,0-0.5,0.3-0.4,0.6c0.1,0.8,0.2,1.7,0.3,2.6l-0.1,0.1c-0.4,0.9-1.1,1.4-2.1,1.7c-3.4,1-9.1-1.1-11.8-2.9
	c-3.4-2.4-7.9-1.8-13.2,1.7c-2.3,1.5-4.5,2.1-5.7,1.5c-0.7-0.3-1.1-0.9-1.2-1.9l-0.4-2.2l-0.5,0.6c-0.1-1.2-0.3-2.5-0.3-3.8
	c0-0.3-0.3-0.5-0.5-0.5c-0.3,0-0.5,0.3-0.5,0.5c0.1,1.3,0.2,2.7,0.4,4c0,0.2,0.2,0.4,0.4,0.4l-0.3,0.4c-1.6,1.9-8.4,3-12,2.3
	c-1.2-0.2-1.6-0.6-1.6-0.7c-0.4-3.9-2.8-3.8-9.8-3.6c-2.2,0.1-3.8-0.3-4.5-1c-0.6-0.6-0.6-1.4-0.6-2.2c0-0.3,0-0.7,0-0.9l-0.1-1.1
	l-0.5,0.1c0-1.1,0-2.2,0-3.2c0-0.3-0.2-0.5-0.5-0.5l0,0c-0.3,0-0.5,0.2-0.5,0.5c0,1.1,0,2.3,0,3.4c-4.5,1-8.3,0.6-12,0.2
	c-1.4-0.1-2.7-0.3-4.1-0.3c-1.1,0-1.6-0.2-2-0.7c-1.9-2.1-1.4-11.5,0.2-34.1c1.8-26.4,14.2-60.5,22.3-83.1c1.8-5,3.4-9.3,4.6-13
	c0.4-1.2,0.7-2.3,1-3.5l14.6,4.3c5.9,1.7,11.9,2.5,18,2.5c6.1,0,12.2-0.8,18.1-2.5l14.4-5.2c0.3,1.4,0.7,2.8,1.1,4.3
	c2.5,8.7,5.8,19.1,9.3,30.1c7.5,23.5,16.1,50.1,17.5,64.8C190.6,223.4,189.8,236.9,186.8,239.9z M86.2,229.7L86.2,229.7
	c-0.3,0-0.5,0.2-0.5,0.5c0,1.3,0,2.6-0.1,4c0,0.3,0.2,0.5,0.5,0.5l0,0c0.3,0,0.5-0.2,0.5-0.5c0-1.4,0-2.7,0.1-4
	C86.7,229.9,86.5,229.7,86.2,229.7z M87,213.7c-0.3,0-0.5,0.2-0.5,0.5c-0.1,1.3-0.2,2.6-0.3,4c0,0.3,0.2,0.5,0.5,0.5l0,0
	c0.3,0,0.5-0.2,0.5-0.5c0.1-1.4,0.2-2.7,0.3-4C87.5,213.9,87.3,213.7,87,213.7z M88.7,197.8c-0.3,0-0.5,0.2-0.6,0.4
	c-0.2,1.3-0.4,2.6-0.5,4c0,0.3,0.2,0.5,0.4,0.6c0,0,0,0,0.1,0c0.2,0,0.5-0.2,0.5-0.4c0.2-1.4,0.3-2.7,0.5-4
	C89.2,198.1,89,197.8,88.7,197.8z M95.6,166.6c-0.3-0.1-0.5,0.1-0.6,0.3l-0.1,0.3c-0.3,1.1-0.6,2.3-1,3.5c-0.1,0.3,0.1,0.5,0.4,0.6
	h0.1c0.2,0,0.4-0.1,0.5-0.4c0.3-1.2,0.6-2.4,1-3.5l0.1-0.3C96.1,167,95.9,166.7,95.6,166.6z M86.5,221.7c-0.3,0-0.5,0.2-0.5,0.5
	c-0.1,1.3-0.1,2.6-0.2,4c0,0.3,0.2,0.5,0.5,0.5l0,0c0.3,0,0.5-0.2,0.5-0.5c0-1.4,0.1-2.7,0.2-4C87,221.9,86.8,221.7,86.5,221.7z
	 M99.2,151.1c-0.3,0-0.5,0.1-0.6,0.4c-0.2,1.3-0.4,2.5-0.7,3.9c-0.1,0.3,0.1,0.5,0.4,0.6h0.1c0.2,0,0.4-0.2,0.5-0.4
	c0.3-1.4,0.5-2.7,0.7-4C99.7,151.4,99.5,151.1,99.2,151.1z M99.8,143.1c-0.3,0-0.5,0.2-0.5,0.5c0,1.3-0.1,2.6-0.2,3.9
	c0,0.3,0.2,0.5,0.5,0.5l0,0c0.3,0,0.5-0.2,0.5-0.5c0.1-1.4,0.2-2.7,0.2-4C100.3,143.3,100.1,143.1,99.8,143.1z M97.7,158.9
	c-0.3-0.1-0.5,0.1-0.6,0.4c-0.3,1.3-0.6,2.5-1,3.9c-0.1,0.3,0.1,0.5,0.4,0.6h0.1c0.2,0,0.4-0.1,0.5-0.4c0.4-1.3,0.7-2.6,1-3.9
	C98.1,159.2,98,159,97.7,158.9z M93.6,174.3c-0.3-0.1-0.5,0.1-0.6,0.4c-0.3,1.3-0.7,2.5-1,3.9c-0.1,0.3,0.1,0.5,0.4,0.6h0.1
	c0.2,0,0.4-0.2,0.5-0.4c0.3-1.3,0.6-2.6,1-3.9C94,174.7,93.8,174.4,93.6,174.3z M90,189.9c-0.3,0-0.5,0.1-0.6,0.4
	c-0.2,1.3-0.5,2.6-0.7,3.9c0,0.3,0.1,0.5,0.4,0.6h0.1c0.2,0,0.5-0.2,0.5-0.4c0.2-1.3,0.4-2.7,0.7-3.9C90.5,190.2,90.3,190,90,189.9z
	 M91.7,182.1c-0.3-0.1-0.5,0.1-0.6,0.4c-0.3,1.3-0.6,2.6-0.8,3.9c-0.1,0.3,0.1,0.5,0.4,0.6h0.1c0.2,0,0.4-0.2,0.5-0.4
	c0.3-1.3,0.6-2.6,0.8-3.9C92.1,182.4,91.9,182.2,91.7,182.1z M87.7,205.7c-0.3,0-0.5,0.2-0.6,0.4c-0.1,1.3-0.3,2.6-0.4,4
	c0,0.3,0.2,0.5,0.5,0.5l0,0c0.3,0,0.5-0.2,0.5-0.5c0.1-1.4,0.3-2.7,0.4-4C88.2,206,88,205.8,87.7,205.7z M176.3,236L176.3,236
	c-0.3,0-0.5,0.2-0.5,0.5c0,0.6,0,1.3,0,2s0,1.3,0,2c0,0.3,0.2,0.5,0.5,0.5l0,0c0.3,0,0.5-0.2,0.5-0.5c0-0.7,0-1.4,0-2
	c0-0.7,0-1.3,0-2C176.8,236.2,176.6,236,176.3,236z M173.8,200.6c-0.2-1.4-0.5-2.7-0.7-3.9c0-0.3-0.3-0.5-0.6-0.4
	c-0.3,0-0.5,0.3-0.4,0.6c0.2,1.2,0.5,2.5,0.7,3.9c0,0.2,0.3,0.4,0.5,0.4h0.1C173.7,201.1,173.9,200.8,173.8,200.6z M174.6,209
	c0.3,0,0.5-0.3,0.4-0.6c-0.2-1.4-0.4-2.7-0.6-4c0-0.3-0.3-0.5-0.6-0.4c-0.3,0-0.5,0.3-0.4,0.6c0.2,1.3,0.4,2.6,0.6,3.9
	C174.1,208.9,174.3,209.1,174.6,209C174.6,209.1,174.6,209.1,174.6,209z M172.4,192.7c-0.2-1.4-0.5-2.6-0.7-3.9
	c0-0.3-0.3-0.5-0.6-0.4c-0.3,0-0.5,0.3-0.4,0.6c0.2,1.3,0.4,2.6,0.7,4c0,0.2,0.3,0.4,0.5,0.4h0.1C172.3,193.2,172.4,193,172.4,192.7
	z M170.8,185.4c0.3,0,0.5-0.3,0.5-0.5c-0.1-1.4-0.2-2.6-0.2-3.9c0-0.3-0.2-0.5-0.5-0.5c-0.3,0-0.5,0.2-0.5,0.5c0,1.3,0.1,2.6,0.2,4
	C170.3,185.2,170.5,185.4,170.8,185.4L170.8,185.4z M175.5,217c0.3,0,0.5-0.3,0.5-0.5c-0.1-1.4-0.3-2.7-0.4-4c0-0.3-0.3-0.5-0.6-0.4
	c-0.3,0-0.5,0.3-0.4,0.6c0.1,1.3,0.3,2.6,0.4,4C175,216.8,175.2,217,175.5,217L175.5,217z M176.3,233L176.3,233
	c0.3,0,0.5-0.2,0.5-0.5c0-1.4-0.1-2.7-0.1-4c0-0.3-0.2-0.5-0.5-0.5s-0.5,0.2-0.5,0.5c0,1.3,0.1,2.6,0.1,4
	C175.8,232.7,176,233,176.3,233z M176,225c0.3,0,0.5-0.2,0.5-0.5c-0.1-1.4-0.2-2.7-0.2-4c0-0.3-0.3-0.5-0.5-0.5
	c-0.3,0-0.5,0.3-0.5,0.5c0.1,1.3,0.2,2.6,0.2,4C175.5,224.8,175.7,225,176,225L176,225z M115.5,232.1L115.5,232.1
	c0.3,0,0.5-0.2,0.5-0.5c0-1.3,0-2.7,0.1-4c0-0.3-0.2-0.5-0.5-0.5c-0.2,0-0.5,0.2-0.5,0.5c0,1.3-0.1,2.7-0.1,4
	C115,231.9,115.2,232.1,115.5,232.1z M115.5,235.1L115.5,235.1c-0.3,0-0.5,0.2-0.5,0.5c0,1.3,0.1,2.7,0.1,4c0,0.3,0.2,0.5,0.5,0.5
	l0,0c0.3,0,0.5-0.2,0.5-0.5c-0.1-1.3-0.1-2.7-0.1-4C116,235.3,115.8,235.1,115.5,235.1z M116.1,219.1c-0.3,0-0.5,0.2-0.5,0.5
	c-0.1,1.3-0.2,2.7-0.3,4c0,0.3,0.2,0.5,0.5,0.5l0,0c0.3,0,0.5-0.2,0.5-0.5c0.1-1.3,0.2-2.7,0.3-4
	C116.6,219.4,116.4,219.2,116.1,219.1z M117.9,203.2c-0.3,0-0.5,0.2-0.6,0.4c-0.2,1.3-0.4,2.6-0.5,4c0,0.3,0.2,0.5,0.4,0.6
	c0,0,0,0,0.1,0c0.2,0,0.5-0.2,0.5-0.4c0.2-1.3,0.3-2.6,0.5-4C118.3,203.5,118.2,203.3,117.9,203.2z M126,155.9
	c-0.3,0-0.5,0.1-0.6,0.4c-0.2,1.3-0.4,2.6-0.6,3.9c0,0.3,0.1,0.5,0.4,0.6h0.1c0.2,0,0.5-0.2,0.5-0.4c0.2-1.3,0.4-2.7,0.6-4
	C126.5,156.2,126.3,156,126,155.9z M124.8,163.8c-0.3-0.1-0.5,0.1-0.6,0.4c-0.2,1.3-0.5,2.6-0.7,3.9c0,0.3,0.1,0.5,0.4,0.6h0.1
	c0.2,0,0.4-0.2,0.5-0.4c0.2-1.3,0.5-2.6,0.7-3.9C125.2,164.1,125,163.9,124.8,163.8z M123.3,171.7c-0.3-0.1-0.5,0.1-0.6,0.4L122,176
	c-0.1,0.3,0.1,0.5,0.4,0.6h0.1c0.2,0,0.4-0.2,0.5-0.4l0.7-3.9C123.8,172,123.6,171.8,123.3,171.7z M127,148c-0.3,0-0.5,0.2-0.5,0.4
	c-0.1,1.3-0.3,2.6-0.4,4c0,0.3,0.2,0.5,0.4,0.6c0,0,0,0,0.1,0c0.2,0,0.5-0.2,0.5-0.4c0.2-1.4,0.3-2.7,0.5-4
	C127.5,148.3,127.3,148,127,148z M116.9,211.2c-0.3,0-0.5,0.2-0.6,0.4c-0.1,1.3-0.3,2.7-0.4,4c0,0.3,0.2,0.5,0.5,0.5l0,0
	c0.3,0,0.5-0.2,0.5-0.5c0.1-1.3,0.3-2.6,0.4-4C117.3,211.5,117.1,211.2,116.9,211.2z M119.1,195.3c-0.3,0-0.5,0.1-0.6,0.4
	c-0.2,1.3-0.4,2.6-0.6,4c0,0.3,0.1,0.5,0.4,0.6h0.1c0.2,0,0.5-0.2,0.5-0.4c0.2-1.3,0.4-2.6,0.6-3.9
	C119.5,195.6,119.4,195.4,119.1,195.3z M127.4,140c-0.3,0-0.5,0.2-0.5,0.5c0,1.2,0,2.6-0.1,4c0,0.3,0.2,0.5,0.5,0.5l0,0
	c0.3,0,0.5-0.2,0.5-0.5c0.1-1.4,0.1-2.8,0.1-4C127.9,140.2,127.7,140,127.4,140z M120.4,187.5c-0.3-0.1-0.5,0.1-0.6,0.4
	c-0.2,1.3-0.5,2.6-0.7,3.9c0,0.3,0.1,0.5,0.4,0.6h0.1c0.2,0,0.5-0.2,0.5-0.4c0.2-1.3,0.5-2.6,0.7-3.9
	C120.9,187.8,120.7,187.5,120.4,187.5z M121.9,179.6c-0.3-0.1-0.5,0.1-0.6,0.4c-0.2,1.3-0.5,2.6-0.7,3.9c0,0.3,0.1,0.5,0.4,0.6h0.1
	c0.2,0,0.4-0.2,0.5-0.4c0.2-1.3,0.5-2.6,0.7-3.9C122.3,179.9,122.1,179.6,121.9,179.6z M150,218.6L150,218.6c0.3,0,0.5-0.2,0.5-0.5
	c0-1.4,0-2.7,0.1-4c0-0.3-0.2-0.5-0.5-0.5l0,0c-0.3,0-0.5,0.2-0.5,0.5c0,1.3-0.1,2.6-0.1,4C149.5,218.4,149.7,218.6,150,218.6z
	 M152.1,189.8c-0.3,0-0.5,0.2-0.5,0.4c-0.1,1.3-0.3,2.6-0.4,4c0,0.3,0.2,0.5,0.4,0.5c0,0,0,0,0.1,0c0.3,0,0.5-0.2,0.5-0.4
	c0.1-1.3,0.3-2.6,0.4-4C152.6,190,152.4,189.8,152.1,189.8z M151,237.6c-0.3,0-0.5,0.3-0.5,0.5c0.1,1.3,0.3,2.6,0.4,4
	c0,0.3,0.2,0.4,0.5,0.4c0,0,0,0,0.1,0c0.3,0,0.5-0.3,0.4-0.6c-0.2-1.4-0.3-2.7-0.4-4C151.5,237.8,151.2,237.6,151,237.6z
	 M150.7,234.6c0.3,0,0.5-0.3,0.5-0.5c-0.1-1.4-0.2-2.7-0.3-4c0-0.3-0.2-0.5-0.5-0.5c-0.3,0-0.5,0.3-0.5,0.5c0.1,1.3,0.2,2.6,0.3,4
	C150.2,234.4,150.4,234.6,150.7,234.6L150.7,234.6z M152.7,181.8c-0.3,0-0.5,0.2-0.5,0.5c-0.1,1.4-0.2,2.7-0.3,4
	c0,0.3,0.2,0.5,0.5,0.5l0,0c0.3,0,0.5-0.2,0.5-0.5c0.1-1.3,0.2-2.6,0.3-4C153.2,182,153,181.8,152.7,181.8z M152.9,173.8
	c-0.3,0-0.5,0.2-0.5,0.5v0.3c0,1.3,0,2.5-0.1,3.7c0,0.3,0.2,0.5,0.5,0.5l0,0c0.3,0,0.5-0.2,0.5-0.5c0-1.2,0.1-2.5,0.1-3.8v-0.3
	C153.4,174,153.2,173.8,152.9,173.8z M151.5,158.4c0.2,1.4,0.3,2.7,0.4,4c0,0.3,0.2,0.5,0.5,0.5l0,0c0.3,0,0.5-0.3,0.5-0.5
	c-0.1-1.3-0.2-2.6-0.4-4c0-0.3-0.3-0.5-0.6-0.4C151.6,157.9,151.4,158.1,151.5,158.4z M151.5,154.9L151.5,154.9
	c0.3,0,0.5-0.3,0.5-0.6c-0.2-1.3-0.4-2.6-0.6-4c0-0.3-0.3-0.5-0.6-0.4c-0.3,0-0.5,0.3-0.4,0.6c0.2,1.4,0.4,2.7,0.6,3.9
	C151,154.7,151.2,154.9,151.5,154.9z M152.2,166.3c0.1,1.4,0.1,2.7,0.2,4c0,0.3,0.2,0.5,0.5,0.5l0,0c0.3,0,0.5-0.2,0.5-0.5
	c0-1.3-0.1-2.6-0.2-4c0-0.3-0.3-0.5-0.5-0.5C152.4,165.8,152.1,166.1,152.2,166.3z M150.2,210.7L150.2,210.7c0.3,0,0.5-0.2,0.5-0.5
	c0.1-1.4,0.2-2.7,0.2-4c0-0.3-0.2-0.5-0.5-0.5c-0.3,0-0.5,0.2-0.5,0.5c-0.1,1.3-0.2,2.6-0.2,4C149.7,210.4,149.9,210.6,150.2,210.7z
	 M150.8,202.7L150.8,202.7c0.3,0,0.5-0.2,0.5-0.5c0.1-1.4,0.3-2.7,0.4-4c0-0.3-0.2-0.5-0.4-0.5c-0.3,0-0.5,0.2-0.5,0.4
	c-0.1,1.3-0.3,2.6-0.4,4C150.3,202.4,150.5,202.6,150.8,202.7z M150.2,226.6c0.3,0,0.5-0.2,0.5-0.5c-0.1-1.4-0.1-2.7-0.1-4
	c0-0.3-0.2-0.5-0.5-0.5c-0.3,0-0.5,0.2-0.5,0.5c0,1.3,0.1,2.6,0.1,4C149.7,226.4,149.9,226.6,150.2,226.6L150.2,226.6z"/>
</svg>
