<?xml version="1.0" encoding="utf-8"?>
<!-- Generator: Adobe Illustrator 19.0.0, SVG Export Plug-In . SVG Version: 6.00 Build 0)  -->
<svg version="1.1" id="Camada_1" xmlns="http://www.w3.org/2000/svg" xmlns:xlink="http://www.w3.org/1999/xlink" x="0px" y="0px"
	 viewBox="0 0 256 256" style="enable-background:new 0 0 256 256;" xml:space="preserve">
<style type="text/css">
	
</style>
<path d="M15.7,98c-3.3,0-6.8,1.1-6.8,3s3.5,3,6.8,3s6.8-1.1,6.8-3S19,98,15.7,98z M15.7,103c-3.6,0-5.8-1.2-5.8-2
	s2.2-2,5.8-2s5.8,1.2,5.8,2S19.3,103,15.7,103z M240.3,98c-3.3,0-6.8,1.1-6.8,3s3.5,3,6.8,3s6.8-1.1,6.8-3S243.6,98,240.3,98z
	 M240.3,103c-3.6,0-5.8-1.2-5.8-2s2.2-2,5.8-2c3.6,0,5.8,1.2,5.8,2S243.9,103,240.3,103z M249.3,90.6L249.3,90.6
	c-6.6-1.5-24.5-5.1-48.5-5.1c-17.5,0-34.4,2-47.8,5.5c-5.3,1.4-10.1,3.2-14.3,4.7c-4.7,1.8-8.5,3.2-10.9,3.2
	c-2.4,0-6.1-1.4-10.9-3.2c-4.2-1.6-9-3.3-14.3-4.7c-13.7-3.6-30.6-5.5-47.8-5.5c-25.7,0-43.7,3.9-48.6,5.1c-1.8,0.5-3.1,2.3-3.1,4.4
	l0.6,11.9c0.1,1.9,1.2,3.4,2.9,3.9c4.9,1.4,7.4,13.9,9.3,23c0.6,3.1,1.3,6.1,1.9,8.2c0.1,0.4,0.2,0.8,0.4,1.3
	c2.5,8.8,7.7,27,45.2,27c37.9,0,44-15.5,50-30.6l0.7-1.7c1.7-4.2,2.9-8,4-11.4c3.2-9.6,4.9-14.3,9.7-14.3s6.6,4.7,9.8,14.6
	c1.1,3.3,2.3,7,3.9,11.1l0.6,1.6c5.9,15.1,12,30.7,50,30.7c37.7,0,42.8-18.4,45.2-27.2l0.3-1.1c0.6-2.2,1.2-5.1,1.9-8.2
	c1.9-9.1,4.5-21.6,9.4-23.1c1.7-0.5,2.9-2.2,2.9-3.9l0.6-11.8C252.8,93,251.4,91.2,249.3,90.6z M250.5,94.9l-0.6,12
	c0,0.9-0.6,1.8-1.5,2c-6,1.8-8.6,14.4-10.8,24.6c-0.6,3.1-1.2,5.9-1.8,8l-0.3,1.1c-2.5,9-7.1,25.7-43.3,25.7
	c-36.6,0-42.2-14.3-48.1-29.4l-0.6-1.6c-1.6-4-2.8-7.7-3.8-11c-3.1-9.6-5.2-16-11.7-16c-6.4,0-8.5,6.2-11.6,15.7
	c-1.1,3.4-2.3,7.2-4,11.3l-0.7,1.7c-5.7,14.4-11.6,29.3-48.1,29.3c-36,0-40.7-16.6-43.3-25.6c-0.1-0.5-0.3-0.9-0.4-1.3
	c-0.6-2.1-1.2-5-1.8-8.1c-2.1-10.1-4.7-22.8-10.7-24.5c-0.8-0.3-1.4-1.1-1.5-2.1L5.3,94.9c0-1.1,0.7-2.2,1.6-2.4
	c4.8-1.2,22.6-5.1,48.1-5.1c17,0,33.7,1.9,47.2,5.5c5.2,1.4,10,3.1,14.1,4.7c4.9,1.8,8.8,3.3,11.5,3.3s6.6-1.4,11.5-3.3
	c4.2-1.5,8.9-3.3,14.1-4.7c13.1-3.5,29.9-5.5,47.2-5.5c23.8,0,41.5,3.5,48.1,5.1C250,92.9,250.6,93.8,250.5,94.9z M57.1,161.5
	c1.3,0.1,2.6,0.2,4,0.2v1c-1.4-0.1-2.7-0.1-4-0.3V161.5z M69.1,161.7v1c-1.2,0.1-2.5,0.1-3.8,0.1h-0.2v-1h0.2
	C66.6,161.8,67.8,161.8,69.1,161.7z M91.2,98.3c-1.2-0.3-2.5-0.6-3.9-0.9l0.2-1c1.3,0.3,2.7,0.6,3.9,0.9L91.2,98.3z M77,160.9l0.2,1
	c-1.3,0.2-2.6,0.4-4,0.5l-0.1-1C74.4,161.3,75.7,161.1,77,160.9z M59.5,95.5c-1.2,0-2.6,0.1-4,0.1v-1c1.4,0,2.8-0.1,4-0.1V95.5z
	 M83.4,96.7c-1.3-0.2-2.6-0.4-3.9-0.6l0.1-1c1.3,0.2,2.7,0.4,4,0.6L83.4,96.7z M75.5,95.8c-1.3-0.1-2.6-0.2-4-0.3v-1
	c1.3,0.1,2.7,0.2,4,0.3V95.8z M67.5,95.4c-1.3,0-2.5,0-3.8,0h-0.2v-1h0.2c1.3,0,2.6,0,3.8,0V95.4z M110.1,115.3v0.3
	c0,1.2-0.1,2.4-0.2,3.7l-1-0.1c0.1-1.3,0.2-2.5,0.2-3.6v-0.3H110.1z M108.4,123.2l1,0.2c-0.2,1.3-0.5,2.6-0.8,4l-1-0.2
	C108,125.7,108.2,124.4,108.4,123.2z M104.9,136.6l0.9,0.3c-0.5,1.4-0.9,2.6-1.4,3.8l-0.9-0.4C104,139.2,104.5,138,104.9,136.6z
	 M91.7,155.6l0.5,0.8c-1.1,0.7-2.3,1.4-3.5,2l-0.4-0.9C89.5,157,90.6,156.3,91.7,155.6z M84.6,159l0.3,0.9c-1.2,0.4-2.5,0.8-3.9,1.1
	l-0.2-1C82.1,159.8,83.4,159.5,84.6,159z M101.9,144l0.9,0.5c-0.6,1.2-1.3,2.4-2,3.5l-0.8-0.5C100.7,146.3,101.3,145.2,101.9,144z
	 M97.6,150.5l0.8,0.7c-0.9,1-1.9,2-2.9,2.9l-0.7-0.8C95.8,152.4,96.8,151.5,97.6,150.5z M106.7,130.9l1,0.3
	c-0.3,1.3-0.7,2.5-1.1,3.9l-1-0.3C106,133.4,106.3,132.1,106.7,130.9z M25.5,128.1l-1,0.1c-0.2-1.3-0.4-2.7-0.5-4l1-0.1
	C25.1,125.4,25.3,126.8,25.5,128.1z M26.1,132c0.3,1.3,0.5,2.6,0.9,3.9l-1,0.2c-0.3-1.3-0.6-2.6-0.9-3.9L26.1,132z M24.7,120.2h-1
	c0-0.9-0.1-1.7-0.1-2.6c0-0.5,0-1,0-1.5h1c0,0.5,0,1,0,1.4C24.6,118.5,24.7,119.3,24.7,120.2z M28.1,139.7c0.4,1.4,0.8,2.6,1.2,3.8
	l-0.9,0.3c-0.4-1.2-0.8-2.4-1.3-3.8L28.1,139.7z M32.2,99.4l-0.4-0.9c1.1-0.5,2.4-1,3.8-1.4l0.3,1C34.5,98.5,33.2,98.9,32.2,99.4z
	 M105.5,104.6c-0.8-0.7-1.9-1.5-3.2-2.2l0.5-0.9c1.4,0.7,2.5,1.5,3.4,2.3L105.5,104.6z M26.9,104.7l-0.9-0.4
	c0.6-1.4,1.4-2.5,2.3-3.4l0.7,0.7C28.2,102.4,27.5,103.5,26.9,104.7z M24.9,112.3l-1-0.1c0.2-1.4,0.4-2.8,0.7-4l1,0.2
	C25.3,109.6,25.1,110.9,24.9,112.3z M49.3,160.3c1.2,0.3,2.5,0.5,3.9,0.7l-0.1,1c-1.4-0.2-2.7-0.4-4-0.7L49.3,160.3z M108.8,111.4
	c-0.2-1.4-0.6-2.6-1.1-3.7l0.9-0.4c0.5,1.1,0.9,2.5,1.2,3.9L108.8,111.4z M51.6,95.8c-1.3,0.1-2.6,0.2-4,0.3l-0.1-1
	c1.3-0.1,2.7-0.2,4-0.3L51.6,95.8z M41.9,157.8c1.1,0.5,2.4,1,3.7,1.4l-0.3,1c-1.3-0.4-2.6-0.9-3.8-1.5L41.9,157.8z M35.4,153.4
	c0.9,0.9,1.9,1.7,3,2.5l-0.6,0.8c-1.1-0.8-2.2-1.6-3.2-2.6L35.4,153.4z M43.6,96.5c-1.4,0.2-2.7,0.4-3.9,0.6l-0.2-1
	c1.2-0.2,2.6-0.5,4-0.6L43.6,96.5z M30.9,147.1c0.6,1.2,1.3,2.3,2,3.4l-0.8,0.6c-0.8-1.1-1.5-2.2-2.1-3.5L30.9,147.1z M95.3,98.5
	c1.3,0.4,2.6,0.9,3.8,1.4l-0.4,0.9c-1.2-0.5-2.4-0.9-3.7-1.3L95.3,98.5z M173,159.7c1.2,0.4,2.5,0.7,3.8,1l-0.2,1
	c-1.4-0.3-2.7-0.6-3.9-1L173,159.7z M176.9,95.4l0.1,1c-1.3,0.2-2.7,0.3-3.9,0.6l-0.2-1C174.2,95.7,175.5,95.5,176.9,95.4z
	 M180.8,161.3c1.3,0.2,2.6,0.3,3.9,0.4l-0.1,1c-1.4-0.1-2.7-0.2-4-0.4L180.8,161.3z M192.6,161.9v1c-0.6,0-1.3,0-2,0
	c-0.7,0-1.4,0-2.1,0v-1C190,161.9,191.3,161.9,192.6,161.9z M184.9,94.7v1c-1.3,0.1-2.7,0.2-4,0.3l-0.1-1
	C182.2,94.9,183.5,94.8,184.9,94.7z M165.8,156.6c1.1,0.6,2.3,1.2,3.5,1.7l-0.4,0.9c-1.3-0.5-2.5-1.1-3.6-1.8L165.8,156.6z
	 M159.5,151.9c0.9,0.9,1.9,1.8,2.9,2.6l-0.6,0.8c-1.1-0.8-2.1-1.7-3-2.7L159.5,151.9z M161.4,99.6c-1.3,0.4-2.6,0.9-3.7,1.3
	l-0.4-0.9c1.2-0.5,2.5-0.9,3.8-1.3L161.4,99.6z M169.1,97.6c-1.3,0.3-2.6,0.6-3.9,0.9l-0.2-1c1.3-0.3,2.6-0.6,3.9-0.9L169.1,97.6z
	 M229.8,132.5l1,0.2c-0.3,1.3-0.6,2.6-0.9,3.9l-1-0.2C229.2,135.1,229.5,133.8,229.8,132.5z M200.6,161.4l0.1,1
	c-1.3,0.1-2.6,0.3-4,0.3l-0.1-1C198,161.7,199.3,161.5,200.6,161.4z M221.7,152.3l0.8,0.7c-0.9,1-1.9,2-2.9,2.8L219,155
	C219.9,154.2,220.9,153.3,221.7,152.3z M228.4,138.2l1,0.3c-0.4,1.5-0.8,2.7-1.2,3.9l-0.9-0.3C227.6,140.8,228,139.6,228.4,138.2z
	 M208.4,160l0.3,1c-1.2,0.3-2.6,0.6-3.9,0.9l-0.2-1C205.8,160.6,207.1,160.3,208.4,160z M215.7,157.2l0.5,0.9
	c-1.1,0.6-2.4,1.2-3.7,1.7l-0.4-0.9C213.4,158.3,214.6,157.8,215.7,157.2z M231,124.7l1,0.1c-0.1,1.3-0.3,2.6-0.5,4l-1-0.2
	C230.7,127.3,230.8,126,231,124.7z M225.8,145.7l0.9,0.4c-0.6,1.3-1.2,2.5-1.9,3.6l-0.9-0.5C224.7,148.1,225.3,146.9,225.8,145.7z
	 M188.9,95.6v-1c1.2,0,2.4,0,3.5,0h0.5v1h-0.5C191.2,95.6,190.1,95.6,188.9,95.6z M200.9,95.8c-1.4,0-2.8-0.1-4-0.1v-1
	c1.3,0,2.6,0.1,4,0.1V95.8z M232.4,116.7c0,0.3,0,0.6,0,0.9c0,1,0,2.1-0.1,3.2l-1-0.1c0.1-1.1,0.1-2.1,0.1-3.1c0-0.3,0-0.6,0-0.9
	H232.4z M231.1,112.8c-0.1-1.4-0.3-2.7-0.6-3.9l1-0.2c0.3,1.2,0.5,2.6,0.6,4L231.1,112.8z M208.8,96.3c-1.3-0.1-2.7-0.2-4-0.3l0.1-1
	c1.3,0.1,2.7,0.2,4,0.3L208.8,96.3z M229.3,105.2c-0.6-1.3-1.3-2.4-2-3.2l0.7-0.7c0.9,0.9,1.6,2.1,2.2,3.5L229.3,105.2z M224.2,99.8
	c-1-0.5-2.3-1-3.6-1.4l0.3-1c1.4,0.4,2.7,0.9,3.8,1.5L224.2,99.8z M216.7,97.4c-1.2-0.2-2.5-0.5-3.9-0.7l0.1-1
	c1.4,0.2,2.7,0.4,4,0.7L216.7,97.4z M150.8,104.6l-0.6-0.8c0.9-0.8,2.1-1.5,3.4-2.2l0.5,0.9C152.8,103.2,151.7,103.9,150.8,104.6z
	 M149.3,130.8c0.3,1.2,0.7,2.5,1.1,3.8l-1,0.3c-0.4-1.3-0.8-2.6-1.1-3.9L149.3,130.8z M151.6,138.4c0.5,1.3,1,2.5,1.5,3.7l-0.9,0.4
	c-0.5-1.2-1-2.4-1.5-3.7L151.6,138.4z M154.9,145.6c0.7,1.2,1.4,2.3,2.1,3.3l-0.8,0.6c-0.8-1.1-1.5-2.2-2.2-3.4L154.9,145.6z
	 M147,119.1l-1,0.1c-0.1-1.2-0.2-2.3-0.2-3.3c0-0.2,0-0.5,0-0.7h1c0,0.2,0,0.5,0,0.7C146.9,116.8,146.9,117.9,147,119.1z
	 M147.3,111.2l-1-0.2c0.3-1.5,0.7-2.8,1.3-3.9l0.9,0.5C148,108.6,147.6,109.9,147.3,111.2z M148.3,126.9l-1,0.2
	c-0.3-1.4-0.6-2.7-0.8-4l1-0.2C147.7,124.3,148,125.6,148.3,126.9z M90.5,108.9c0.2,0.1,0.3,0.4,0.2,0.7l-23.3,40.8
	c-0.1,0.2-0.3,0.3-0.4,0.3s-0.2,0-0.2-0.1c-0.2-0.1-0.3-0.4-0.2-0.7l23.3-40.8C90,108.8,90.3,108.7,90.5,108.9z M94.4,124.1
	l-14.2,24.8c-0.1,0.2-0.3,0.3-0.4,0.3s-0.2,0-0.2-0.1c-0.2-0.1-0.3-0.4-0.2-0.7l14.2-24.8c0.1-0.2,0.4-0.3,0.7-0.2
	C94.5,123.6,94.6,123.9,94.4,124.1z M213.8,108.9c0.2,0.1,0.3,0.4,0.2,0.7l-23.3,40.8c-0.1,0.2-0.3,0.3-0.4,0.3
	c-0.1,0-0.2,0-0.2-0.1c-0.2-0.1-0.3-0.4-0.2-0.7l23.3-40.8C213.3,108.8,213.6,108.7,213.8,108.9z M217.7,124.1l-14.2,24.8
	c-0.1,0.2-0.3,0.3-0.4,0.3c-0.1,0-0.2,0-0.2-0.1c-0.2-0.1-0.3-0.4-0.2-0.7l14.2-24.8c0.1-0.2,0.4-0.3,0.7-0.2
	C217.8,123.6,217.9,123.9,217.7,124.1z"/>
</svg>
