<?xml version="1.0" encoding="utf-8"?>
<!-- Generator: Adobe Illustrator 19.0.0, SVG Export Plug-In . SVG Version: 6.00 Build 0)  -->
<svg version="1.1" id="Camada_1" xmlns="http://www.w3.org/2000/svg" xmlns:xlink="http://www.w3.org/1999/xlink" x="0px" y="0px"
	 viewBox="0 0 256 256" style="enable-background:new 0 0 256 256;" xml:space="preserve">
<style type="text/css">
	
</style>
<path d="M174.3,30.4c-0.7-0.8-1.7-1.3-2.8-1.3H84.4c-1.1,0-2.1,0.5-2.8,1.2c-0.7,0.8-1,1.9-0.9,3
	c2.1,16.2,4.1,36.8,5.9,59.7c2.8,35.3,5.2,80.4,5.9,93.4c0.2,3.1,1.9,5.8,4.5,7.2v24.7c0,4.7,4,8.7,8.7,8.7h43.9
	c4.7,0,8.7-4,8.7-8.7v-24.4c2.9-1.3,4.9-4.1,5.1-7.5c0.7-13,3.1-58.1,5.9-93.4c1.8-22.9,3.8-43.5,5.9-59.7
	C175.3,32.3,175,31.2,174.3,30.4z M149.6,224.9h-43.9c-3.6,0-6.7-3.1-6.7-6.7v-2.3h57.3v2.3C156.3,221.8,153.2,224.9,149.6,224.9z
	 M156.3,214.9h-18.8c0-0.5,0-1-0.1-1.5c0-0.3-0.3-0.5-0.6-0.4c-0.3,0-0.5,0.3-0.4,0.6c0.1,0.4,0.1,0.9,0.1,1.4h-17.8
	c0-0.6,0.1-1.2,0.2-1.8c0.1-0.3-0.1-0.5-0.4-0.6s-0.5,0.1-0.6,0.4c-0.1,0.7-0.2,1.3-0.2,2H99v-20.6c0.7,0.2,1.4,0.3,2.2,0.3h53.5
	c0.5,0,1.1-0.1,1.6-0.1C156.3,194.6,156.3,214.9,156.3,214.9z M173.2,33.1c-2.1,16.2-4.1,36.9-5.9,59.7c-2.8,35.3-5.2,80.4-5.9,93.4
	c-0.2,3.6-3.1,6.3-6.7,6.3h-53.5c-3.6,0-6.5-2.8-6.7-6.4c-0.7-13-3.1-58.1-5.9-93.4c-1.8-22.9-3.8-43.5-5.9-59.7
	c-0.1-0.5,0.1-1,0.4-1.4s0.8-0.6,1.3-0.6h1.4v9.4c0,0.3,0.2,0.5,0.5,0.5s0.5-0.2,0.5-0.5V31h3.9v9.4c0,0.3,0.2,0.5,0.5,0.5
	s0.5-0.2,0.5-0.5V31h3.9v9.4c0,0.3,0.2,0.5,0.5,0.5s0.5-0.2,0.5-0.5V31h3.9v9.4c0,0.3,0.2,0.5,0.5,0.5s0.5-0.2,0.5-0.5V31h3.9v9.4
	c0,0.3,0.2,0.5,0.5,0.5s0.5-0.2,0.5-0.5V31h3.9v9.4c0,0.3,0.2,0.5,0.5,0.5s0.5-0.2,0.5-0.5V31h3.9v9.4c0,0.3,0.2,0.5,0.5,0.5
	s0.5-0.2,0.5-0.5V31h3.9v9.4c0,0.3,0.2,0.5,0.5,0.5s0.5-0.2,0.5-0.5V31h3.9v9.4c0,0.3,0.2,0.5,0.5,0.5s0.5-0.2,0.5-0.5V31h3.9v9.4
	c0,0.3,0.2,0.5,0.5,0.5c0.3,0,0.5-0.2,0.5-0.5V31h3.9v9.4c0,0.3,0.2,0.5,0.5,0.5s0.5-0.2,0.5-0.5V31h3.9v9.4c0,0.3,0.2,0.5,0.5,0.5
	c0.3,0,0.5-0.2,0.5-0.5V31h3.9v9.4c0,0.3,0.2,0.5,0.5,0.5s0.5-0.2,0.5-0.5V31h3.9v9.4c0,0.3,0.2,0.5,0.5,0.5s0.5-0.2,0.5-0.5V31h3.9
	v9.4c0,0.3,0.2,0.5,0.5,0.5c0.3,0,0.5-0.2,0.5-0.5V31h3.9v9.4c0,0.3,0.2,0.5,0.5,0.5s0.5-0.2,0.5-0.5V31h3.9v9.4
	c0,0.3,0.2,0.5,0.5,0.5c0.3,0,0.5-0.2,0.5-0.5V31h4v9.4c0,0.3,0.2,0.5,0.5,0.5c0.3,0,0.5-0.2,0.5-0.5V31h1.3c0.5,0,0.9,0.2,1.3,0.6
	C173.1,32.1,173.3,32.6,173.2,33.1z M136.8,211.4c0.1,0.3,0,0.5-0.3,0.6c-0.1,0-0.1,0-0.2,0c-0.2,0-0.4-0.1-0.5-0.3
	c-0.2-0.6-0.5-1.1-0.9-1.7c-0.2-0.2-0.1-0.5,0.1-0.7s0.5-0.1,0.7,0.1C136.2,210.1,136.6,210.7,136.8,211.4z M134.5,207.9
	c0.2,0.2,0.2,0.5,0,0.7c-0.1,0.1-0.2,0.2-0.4,0.2c-0.1,0-0.3,0-0.3-0.1c-0.5-0.4-1-0.8-1.5-1.2c-0.2-0.1-0.3-0.5-0.2-0.7
	c0.1-0.2,0.5-0.3,0.7-0.2C133.4,207,134,207.4,134.5,207.9z M131.2,206.3c-0.1,0.2-0.3,0.3-0.5,0.3c-0.1,0-0.1,0-0.2,0
	c-0.6-0.2-1.2-0.4-1.8-0.4c-0.3,0-0.5-0.3-0.4-0.6c0-0.3,0.3-0.5,0.6-0.4c0.7,0.1,1.4,0.3,2,0.5C131.2,205.8,131.3,206,131.2,206.3z
	 M123.5,206.5c0.1,0.2,0,0.5-0.2,0.7c-0.6,0.3-1.1,0.7-1.5,1.1c-0.1,0.1-0.2,0.1-0.3,0.1s-0.3-0.1-0.4-0.2c-0.2-0.2-0.2-0.5,0-0.7
	c0.5-0.5,1.1-0.9,1.7-1.2C123,206.2,123.3,206.3,123.5,206.5z M127.3,205.6c0,0.3-0.2,0.5-0.5,0.5c-0.6,0.1-1.3,0.2-1.9,0.4h-0.1
	c-0.2,0-0.4-0.1-0.5-0.4c-0.1-0.3,0.1-0.5,0.3-0.6c0.7-0.2,1.4-0.3,2.1-0.4C127.1,205.1,127.3,205.3,127.3,205.6z M120.3,209
	c0.2,0.2,0.3,0.5,0.1,0.7c-0.4,0.5-0.7,1.1-1,1.6c-0.1,0.2-0.3,0.3-0.5,0.3c-0.1,0-0.1,0-0.2,0c-0.3-0.1-0.4-0.4-0.2-0.7
	c0.3-0.6,0.6-1.2,1.1-1.8C119.8,208.9,120.1,208.8,120.3,209z M102.4,147.4c0.6,10.9,1.3,21.8,1.6,28.1c0,0.3-0.2,0.5-0.5,0.5l0,0
	c-0.3,0-0.5-0.2-0.5-0.5c-0.3-6.3-1-17.2-1.6-28.1c0-0.3,0.2-0.5,0.5-0.5C102.2,146.9,102.4,147.1,102.4,147.4z M95.1,59.8
	c0.5,4.5,1.7,13.7,3,27.7c0,0.3-0.2,0.5-0.5,0.5l0,0c-0.3,0-0.5-0.2-0.5-0.5c-1.3-14-2.4-23.3-3-27.7l-0.1-1c0-0.3,0.2-0.5,0.4-0.6
	c0.3,0,0.5,0.2,0.6,0.4L95.1,59.8z M109.1,138.5c0.2,0.2,0.2,0.5,0.1,0.7c-0.1,0.1-0.2,0.2-0.4,0.2c-0.1,0-0.2,0-0.3-0.1
	c-1-0.9-2-1.8-2.9-2.8c-0.2-0.2-0.2-0.5,0-0.7s0.5-0.2,0.7,0C107.2,136.7,108.2,137.6,109.1,138.5z M103.9,132.6
	c0.2,0.2,0.1,0.5-0.1,0.7c-0.1,0.1-0.2,0.1-0.3,0.1c-0.2,0-0.3-0.1-0.4-0.2c-0.8-1.1-1.4-2.3-2-3.5c-0.1-0.2,0-0.5,0.2-0.7
	c0.3-0.1,0.5,0,0.7,0.2C102.5,130.4,103.2,131.5,103.9,132.6z M104.8,98.8c0.2,0.2,0.3,0.5,0.1,0.7c-0.8,1-1.5,2.1-2.1,3.3
	c-0.1,0.2-0.3,0.3-0.4,0.3s-0.2,0-0.2-0.1c-0.2-0.1-0.3-0.4-0.2-0.7c0.7-1.2,1.4-2.3,2.2-3.4C104.2,98.6,104.6,98.6,104.8,98.8z
	 M98.9,109.8c0.3-1.3,0.7-2.6,1.2-3.9c0.1-0.3,0.4-0.4,0.6-0.3c0.3,0.1,0.4,0.4,0.3,0.6c-0.5,1.2-0.9,2.5-1.2,3.8
	c-0.1,0.2-0.3,0.4-0.5,0.4h-0.1C99,110.4,98.8,110.1,98.9,109.8z M98.6,118.4c-0.3,0-0.5-0.2-0.5-0.5c0-0.4,0-0.8,0-1.2
	c0-1,0-1.9,0.1-2.9c0-0.3,0.3-0.5,0.5-0.4c0.3,0,0.5,0.3,0.4,0.5c-0.1,0.9-0.1,1.8-0.1,2.8c0,0.4,0,0.8,0,1.2
	C99.1,118.1,98.9,118.4,98.6,118.4L98.6,118.4z M100.5,125.6c0.1,0.3-0.1,0.5-0.3,0.6c-0.1,0-0.1,0-0.2,0c-0.2,0-0.4-0.1-0.5-0.3
	c-0.4-1.3-0.8-2.6-1-3.9c0-0.3,0.1-0.5,0.4-0.6c0.3,0,0.5,0.1,0.6,0.4C99.8,123.1,100.1,124.3,100.5,125.6z M155.5,126.9
	c-0.5,1.3-1,2.5-1.7,3.7c-0.1,0.2-0.3,0.3-0.4,0.3c-0.1,0-0.2,0-0.2-0.1c-0.2-0.1-0.3-0.4-0.2-0.7c0.6-1.2,1.2-2.4,1.6-3.6
	c0.1-0.3,0.4-0.4,0.6-0.3C155.4,126.4,155.6,126.7,155.5,126.9z M146.5,93.8c0.2,0.2,0.2,0.5,0.1,0.7c-0.1,0.1-0.2,0.2-0.4,0.2
	c-0.1,0-0.2,0-0.3-0.1c-1-0.8-2.1-1.6-3.2-2.3c-0.2-0.1-0.3-0.5-0.2-0.7s0.5-0.3,0.7-0.2C144.3,92.2,145.4,93,146.5,93.8z
	 M151.5,133.4c0.2,0.2,0.3,0.5,0.1,0.7c-0.8,1.1-1.7,2.1-2.6,3.1c-0.1,0.1-0.2,0.2-0.4,0.2c-0.1,0-0.3,0-0.3-0.1
	c-0.2-0.2-0.2-0.5,0-0.7c0.9-0.9,1.8-2,2.5-3C151,133.3,151.3,133.2,151.5,133.4z M146.1,139.2c0.2,0.2,0.1,0.5-0.1,0.7
	c-1.1,0.8-2.2,1.6-3.4,2.3c-0.1,0-0.2,0.1-0.3,0.1c-0.2,0-0.3-0.1-0.4-0.2c-0.1-0.2-0.1-0.5,0.2-0.7c1.1-0.7,2.2-1.4,3.2-2.2
	C145.6,139,145.9,139,146.1,139.2z M152,99.8c0.2,0.2,0.1,0.5-0.1,0.7c-0.1,0.1-0.2,0.1-0.3,0.1c-0.2,0-0.3-0.1-0.4-0.2
	c-0.7-1.1-1.6-2.1-2.5-3.1c-0.2-0.2-0.2-0.5,0-0.7s0.5-0.2,0.7,0C150.4,97.6,151.2,98.7,152,99.8z M156.7,110.9
	c0.3,1.3,0.4,2.7,0.5,4c0,0.3-0.2,0.5-0.5,0.5l0,0c-0.3,0-0.5-0.2-0.5-0.5c-0.1-1.3-0.2-2.6-0.5-3.9c-0.1-0.3,0.1-0.5,0.4-0.6
	C156.4,110.5,156.7,110.6,156.7,110.9z M155.4,107.6c-0.1,0-0.1,0-0.2,0c-0.2,0-0.4-0.1-0.5-0.3c-0.4-1.2-0.9-2.4-1.5-3.6
	c-0.1-0.2,0-0.5,0.2-0.7c0.2-0.1,0.5,0,0.7,0.2c0.6,1.2,1.2,2.5,1.6,3.7C155.8,107.3,155.6,107.5,155.4,107.6z M139.8,90.2
	c-0.1,0.2-0.3,0.3-0.5,0.3c-0.1,0-0.1,0-0.2,0c-1.2-0.5-2.4-1-3.7-1.3c-0.3-0.1-0.4-0.4-0.3-0.6c0.1-0.3,0.3-0.4,0.6-0.3
	c1.3,0.4,2.6,0.8,3.8,1.4C139.8,89.7,139.9,90,139.8,90.2z M157.2,119c-0.1,1.4-0.3,2.7-0.6,4c-0.1,0.2-0.3,0.4-0.5,0.4H156
	c-0.3-0.1-0.4-0.3-0.4-0.6c0.3-1.3,0.5-2.6,0.6-3.9c0-0.3,0.3-0.5,0.5-0.5C157,118.5,157.2,118.7,157.2,119z M116,143.4
	c-0.1,0.2-0.3,0.3-0.5,0.3c-0.1,0-0.1,0-0.2,0c-1.2-0.6-2.4-1.2-3.6-2c-0.2-0.1-0.3-0.5-0.2-0.7c0.1-0.2,0.5-0.3,0.7-0.2
	c1.1,0.7,2.3,1.3,3.4,1.9C116,142.8,116.1,143.1,116,143.4z M117.5,89.4c0.1,0.3,0,0.5-0.3,0.6c-1.2,0.5-2.4,1-3.5,1.7
	c-0.1,0-0.2,0.1-0.2,0.1c-0.2,0-0.3-0.1-0.4-0.3c-0.1-0.2-0.1-0.5,0.2-0.7c1.2-0.7,2.4-1.3,3.7-1.7C117.1,89,117.4,89.2,117.5,89.4z
	 M110.5,93.2c0.2,0.2,0.1,0.5-0.1,0.7c-1,0.8-2,1.7-3,2.6c-0.1,0.1-0.2,0.1-0.4,0.1s-0.3,0-0.4-0.1c-0.2-0.2-0.2-0.5,0-0.7
	c1-1,2-1.9,3.1-2.7C110,93,110.3,93,110.5,93.2z M123.7,145.5c0,0.2-0.3,0.4-0.5,0.4h-0.1c-1.3-0.2-2.7-0.5-4-0.9
	c-0.3-0.1-0.4-0.4-0.3-0.6c0.1-0.3,0.4-0.4,0.6-0.3c1.3,0.4,2.5,0.7,3.8,0.9C123.5,145,123.7,145.3,123.7,145.5z M125.3,87.7
	c0,0.3-0.2,0.5-0.4,0.5c-1.3,0.1-2.6,0.3-3.9,0.7h-0.1c-0.2,0-0.4-0.2-0.5-0.4c-0.1-0.3,0.1-0.5,0.4-0.6c1.3-0.3,2.7-0.5,4-0.7
	C125,87.2,125.3,87.4,125.3,87.7z M139.3,143.4c0.1,0.3,0,0.5-0.3,0.7c-1.2,0.5-2.5,1-3.9,1.3H135c-0.2,0-0.4-0.1-0.5-0.4
	s0.1-0.5,0.4-0.6c1.3-0.3,2.5-0.8,3.7-1.3C138.9,143,139.2,143.1,139.3,143.4z M132.2,87.9c0,0.3-0.2,0.4-0.5,0.4c0,0,0,0-0.1,0
	c-1.3-0.2-2.6-0.3-3.9-0.3c-0.3,0-0.5-0.2-0.5-0.5s0.2-0.5,0.5-0.5c1.4,0,2.7,0.1,4.1,0.3C132,87.4,132.2,87.7,132.2,87.9z
	 M131.6,145.5c0,0.3-0.2,0.5-0.4,0.6c-1.2,0.1-2.3,0.2-3.5,0.2h-0.6c-0.3,0-0.5-0.2-0.5-0.5s0.2-0.5,0.5-0.5h0.5
	c1.1,0,2.3-0.1,3.4-0.2C131.4,145.1,131.6,145.3,131.6,145.5z"/>
</svg>
