<?xml version="1.0" encoding="utf-8"?>
<!-- Generator: Adobe Illustrator 19.0.0, SVG Export Plug-In . SVG Version: 6.00 Build 0)  -->
<svg version="1.1" id="Camada_1" xmlns="http://www.w3.org/2000/svg" xmlns:xlink="http://www.w3.org/1999/xlink" x="0px" y="0px"
	 viewBox="0 0 256 256" style="enable-background:new 0 0 256 256;" xml:space="preserve">
<style type="text/css">
	
</style>
<path d="M147.7,157.8c0.1,0,0.1,0,0.2-0.1c0.1,0,0.1-0.1,0.1-0.2c0.5-0.4,0.9-0.9,1.1-1.4c6.6-12.4,9.7-23.7,11.1-31
	c0.1-0.6,0.1-1.2,0-1.8l0.3-0.1c0.3-0.1,0.4-0.4,0.3-0.6c-0.1-0.3-0.4-0.4-0.6-0.3l-0.3,0.1c-0.2-0.5-0.6-1-1-1.5
	c-7.8-7.6-22-15.8-29.8-20c-0.5-0.2-1-0.4-1.5-0.5v-0.7c0-0.3-0.2-0.5-0.5-0.5l0,0c-0.3,0-0.5,0.2-0.5,0.5v0.7
	c-0.6,0-1.1,0.2-1.6,0.4c-9.7,4.3-21.9,15.5-26.8,20.1c-0.4,0.4-0.8,0.9-1,1.4h-0.1c-0.3-0.1-0.5,0-0.6,0.3s0,0.5,0.3,0.6h0.1
	c-0.1,0.6-0.1,1.2,0,1.8c2.4,14.4,9.3,27.8,11.4,31.5c0.5,1,1.5,1.8,2.7,2.2c3.8,1.1,8.7,1.5,13.7,1.5c9.6,0,19.4-1.5,21-1.7
	C146.4,158.5,147.1,158.2,147.7,157.8z M111.6,156.9c-0.7-0.2-1.3-0.7-1.5-1.2c-2-3.7-8.8-16.8-11.2-30.9c-0.1-0.9,0.1-1.7,0.8-2.3
	l0,0c4.8-4.5,16.8-15.5,26.3-19.7c0.3-0.2,0.6-0.2,1-0.2c0.4,0,0.9,0.1,1.3,0.3c6.2,3.3,21.4,11.9,29.3,19.6
	c0.6,0.6,0.9,1.5,0.7,2.4c-1.4,7.2-4.4,18.3-10.9,30.4c-0.4,0.7-1.1,1.2-2,1.4C143,157,122.2,160.1,111.6,156.9z M193.1,185.5
	c13.6-15.3,21.9-35.5,21.9-57.6c0-2.8-0.1-5.6-0.4-8.4c0-0.1,0-0.1,0-0.2s0-0.1,0-0.2c-1.2-11.5-4.6-22.3-9.8-32.1
	c0-0.2-0.1-0.3-0.2-0.5c0,0,0,0-0.1-0.1c-11.8-21.6-32.4-37.7-57-43.4c-0.1,0-0.2-0.1-0.4-0.1c-0.2-0.1-0.3-0.1-0.5,0
	c-6-1.3-12.3-2-18.7-2c-48,0-87,39-87,87c0,22.2,8.3,42.4,22.1,57.8c0.3,0.6,0.5,0.9,0.5,0.9c0.2,0.3,0.4,0.4,0.7,0.4
	c9.2,9.9,20.7,17.7,33.7,22.5c0.1,0.1,0.3,0.2,0.5,0.2c0.1,0,0.1,0,0.2,0c9.2,3.3,19.1,5.1,29.3,5.1c10.8,0,21.2-2,30.7-5.6h0.1
	c12.9-4.9,24.4-12.8,33.5-22.8c0.1,0,0.2-0.1,0.2-0.2C192.6,186.2,192.8,186,193.1,185.5z M191.2,82.8c6.4,0,10.7,3.9,11.7,4.9
	c5.2,9.7,8.6,20.5,9.7,32c-0.1,7.2-4.4,12.7-6.4,14.9c-4.5-11.1-13.2-20.8-15-22.8C192.1,102.5,191.4,86.9,191.2,82.8z M147,45.1
	c7,2.9,10.1,9.8,11,12.4c-13,2.4-28.1,8-31.1,9.2c-7.1-5-23.1-7.9-27.8-8.7c1.5-2.9,5.8-10.2,11.2-13.2c5.7-1.2,11.6-1.9,17.7-1.9
	C134.5,42.9,140.9,43.7,147,45.1z M53.1,88c0.1-0.1,5.4-5.1,12.8-5.1c-0.2,4.2-1,19.7,0,29c-1.8,2-10.5,11.7-15.1,22.8
	c-2.3-2.2-7.4-8-7.3-15.6c0-0.2,0-0.3-0.1-0.4c1.2-10.9,4.5-21.3,9.4-30.6C53,88.1,53,88.1,53.1,88z M64.8,184.6
	c-0.7-1.6-1.8-5.1-1.1-10.4c4.1,2.4,17.3,9.6,26.8,10.1c1.6,2.6,9.1,14.5,18.2,21.4c-1.9,0.9-5.7,2.4-9.6,2.1
	C85.8,203,74,194.9,64.8,184.6z M104,209.4c3.9-0.9,6.9-2.7,7.1-2.8c0.1,0,0.1-0.1,0.2-0.2c0.7,0.1,1.7,0.3,3,0.5c0,0,0,0,0.1,0
	c0.2,0,0.5-0.2,0.5-0.4c0-0.3-0.2-0.5-0.4-0.6c-1.3-0.2-2.3-0.4-3-0.5c-0.1-0.2-0.2-0.4-0.4-0.5c-10-6.9-18.7-21.3-19.2-22.1
	l1.9-2.6c0.2-0.2,0.1-0.5-0.1-0.7s-0.5-0.1-0.7,0.1l-1.9,2.6l0,0c-10.6-0.2-27.4-10.4-27.6-10.6c-0.2-0.1-0.3-0.1-0.5-0.1
	c-0.3-0.6-0.8-1.5-1.5-2.8c-0.1-0.2-0.4-0.3-0.7-0.2c-0.2,0.1-0.3,0.4-0.2,0.7c0.6,1.2,1.2,2.2,1.5,2.8c-0.1,0.1-0.1,0.2-0.1,0.3
	c-0.7,3.4-0.6,6.3-0.3,8.5c-11.7-14.5-18.6-33-18.6-53c0-0.4,0-0.8,0-1.2c2.5,6.3,7.4,10.3,7.6,10.5c0.2,0.1,0.4,0.2,0.6,0.2
	c0.1,0,0.2,0,0.3,0c0.3-0.1,0.6-0.3,0.7-0.6c4.5-12.1,15-23.3,15.5-23.8l2.8,1c0.1,0,0.1,0,0.2,0c0.2,0,0.4-0.1,0.5-0.3
	c0.1-0.3,0-0.5-0.3-0.6l-2.9-1c-1.2-10.3,0-29.8,0-30s-0.1-0.4-0.2-0.6c0.4-0.5,1-1.4,1.9-2.4c0.2-0.2,0.2-0.5-0.1-0.7
	c-0.2-0.2-0.5-0.2-0.7,0.1c-1,1.2-1.7,2-2.1,2.6c-4.9-0.3-8.9,1.5-11.7,3.1c11.1-18.3,28.9-32.1,50-38c-5.1,4.8-8.4,11.9-8.6,12.3
	c-0.1,0.3-0.1,0.6,0,0.9s0.4,0.5,0.7,0.5c0.2,0,21.2,3.2,28.7,8.9c0.1,0,0.1,0.1,0.2,0.1v3.1c0,0.3,0.2,0.5,0.5,0.5l0,0
	c0.3,0,0.5-0.2,0.5-0.5v-3.2c2.2-0.8,18.5-7.1,32.1-9.4c0.3,0,0.5-0.2,0.7-0.4c0.2-0.2,0.2-0.5,0.1-0.8c-0.1-0.3-1.7-6.6-6.8-11.3
	c19.6,6.2,36.2,19.3,46.9,36.5c-2.5-1.4-6-2.7-10.3-2.5l0,0c-0.4-0.6-1-1.4-2-2.5c-0.2-0.2-0.5-0.2-0.7-0.1
	c-0.2,0.2-0.2,0.5-0.1,0.7c0.9,1.1,1.5,1.9,1.9,2.4c-0.1,0.2-0.1,0.3-0.1,0.5s1.2,19.8,0,30.1c0,0,0,0,0,0.1l-2.3,1
	c-0.3,0.1-0.4,0.4-0.3,0.6c0.1,0.2,0.3,0.3,0.5,0.3c0.1,0,0.1,0,0.2,0l2.6-0.9c1.4,1.5,11.1,12.2,15.3,23.7c0.1,0.3,0.4,0.5,0.7,0.6
	c0.1,0,0.2,0,0.3,0c0.2,0,0.5-0.1,0.7-0.2c0.2-0.2,4.2-3.7,6.5-9.5c0,0.1,0,0.2,0,0.3c0,19.5-6.6,37.5-17.7,51.8
	c0.3-2,0.3-4.4-0.2-7.3c0-0.1,0-0.2-0.1-0.2c0.3-0.6,0.9-1.6,1.5-2.9c0.1-0.2,0-0.5-0.2-0.7c-0.2-0.1-0.5,0-0.7,0.2
	c-0.6,1.2-1.1,2.2-1.5,2.8c-0.2,0-0.4,0-0.6,0.1c-0.2,0.1-16.6,10.1-27.2,10.5l-1.9-2.6c-0.2-0.2-0.5-0.3-0.7-0.1
	c-0.2,0.2-0.3,0.5-0.1,0.7l1.7,2.3c-0.1,0.1-0.1,0.1-0.2,0.2c-0.1,0.2-9,15.1-19.2,22.2c-0.2,0.1-0.3,0.3-0.4,0.5
	c-1.1,0.2-2.3,0.4-3.4,0.5c-0.3,0-0.5,0.3-0.4,0.6c0,0.3,0.2,0.4,0.5,0.4c0,0,0,0,0.1,0c1.1-0.1,2.3-0.3,3.4-0.5
	c0.1,0.1,0.2,0.2,0.3,0.2c0.2,0.1,3.1,1.7,7,2.5c-7.9,2.4-16.3,3.8-25,3.8C119.7,212.9,111.6,211.7,104,209.4z M158,207.4
	c-3.8,0.4-7.6-0.9-9.6-1.8c9-6.9,16.6-18.8,18.1-21.3c9.5-0.4,22.6-7.7,26.8-10.1c0.7,5.4-0.9,8.6-1.7,10
	C182.5,194.4,171,202.5,158,207.4z M86.2,119c-0.1,0.2-0.3,0.3-0.5,0.3c-0.1,0-0.1,0-0.2,0l-3.8-1.3c-0.3-0.1-0.4-0.4-0.3-0.6
	s0.4-0.4,0.6-0.3l3.8,1.3C86.2,118.4,86.3,118.7,86.2,119z M93.8,121.6c-0.1,0.2-0.3,0.3-0.5,0.3c-0.1,0-0.1,0-0.2,0l-3.8-1.3
	c-0.3-0.1-0.4-0.4-0.3-0.6s0.4-0.4,0.6-0.3l3.8,1.3C93.7,121.1,93.8,121.4,93.8,121.6z M78.7,116.3c-0.1,0.2-0.3,0.3-0.5,0.3
	c-0.1,0-0.1,0-0.2,0l-3.8-1.3c-0.3-0.1-0.4-0.4-0.3-0.6c0.1-0.3,0.4-0.4,0.6-0.3l3.8,1.3C78.6,115.7,78.8,116,78.7,116.3z
	 M75.3,73.3c-1,0.9-2,1.8-2.9,2.7c-0.1,0.1-0.2,0.1-0.4,0.1c-0.1,0-0.3,0-0.4-0.1c-0.2-0.2-0.2-0.5,0-0.7c0.9-0.9,1.9-1.9,2.9-2.8
	c0.2-0.2,0.5-0.2,0.7,0C75.5,72.8,75.5,73.1,75.3,73.3z M77.6,70.7c-0.2-0.2-0.1-0.5,0.1-0.7c1-0.8,2.1-1.6,3.2-2.4
	c0.2-0.2,0.5-0.1,0.7,0.1s0.1,0.5-0.1,0.7c-1.1,0.8-2.1,1.6-3.2,2.4c-0.1,0.1-0.2,0.1-0.3,0.1C77.9,70.9,77.7,70.8,77.6,70.7z
	 M88.4,63.3c0.1,0.2,0.1,0.5-0.2,0.7c-1.1,0.7-2.3,1.4-3.4,2.1c-0.1,0.1-0.2,0.1-0.3,0.1c-0.2,0-0.3-0.1-0.4-0.2
	c-0.2-0.2-0.1-0.5,0.1-0.7c1.1-0.7,2.3-1.4,3.4-2.1C87.9,63,88.2,63.1,88.4,63.3z M95.2,60.3c-1.2,0.6-2.4,1.2-3.5,1.8
	c-0.1,0-0.2,0.1-0.2,0.1c-0.2,0-0.4-0.1-0.4-0.3c-0.1-0.2,0-0.5,0.2-0.7c1.2-0.6,2.4-1.2,3.6-1.8c0.2-0.1,0.5,0,0.7,0.2
	C95.5,59.9,95.4,60.2,95.2,60.3z M127.5,83.8v4c0,0.3-0.2,0.5-0.5,0.5l0,0c-0.3,0-0.5-0.2-0.5-0.5v-4c0-0.3,0.2-0.5,0.5-0.5l0,0
	C127.3,83.3,127.5,83.5,127.5,83.8z M127.6,91.8v4c0,0.3-0.2,0.5-0.5,0.5l0,0c-0.3,0-0.5-0.2-0.5-0.5v-4c0-0.3,0.2-0.5,0.5-0.5l0,0
	C127.4,91.3,127.6,91.5,127.6,91.8z M126.5,79.8v-4c0-0.3,0.2-0.5,0.5-0.5l0,0c0.3,0,0.5,0.2,0.5,0.5v4c0,0.3-0.2,0.5-0.5,0.5l0,0
	C126.7,80.3,126.5,80.1,126.5,79.8z M51.9,143.2L51.9,143.2c-0.3,0-0.5-0.2-0.6-0.4c-0.2-1.4-0.4-2.7-0.5-4c0-0.3,0.2-0.5,0.5-0.5
	s0.5,0.2,0.5,0.5c0.1,1.3,0.3,2.6,0.5,3.9C52.4,142.9,52.2,143.1,51.9,143.2z M56.6,157.9c0.1,0.3,0,0.5-0.3,0.6c-0.1,0-0.1,0-0.2,0
	c-0.2,0-0.4-0.1-0.5-0.3c-0.5-1.3-0.9-2.5-1.3-3.8c-0.1-0.3,0.1-0.5,0.3-0.6c0.3-0.1,0.5,0.1,0.6,0.3
	C55.7,155.4,56.1,156.7,56.6,157.9z M59.7,165.3c0.1,0.3,0,0.5-0.2,0.7c-0.1,0-0.1,0-0.2,0c-0.2,0-0.4-0.1-0.5-0.3
	c-0.6-1.2-1.1-2.4-1.6-3.7c-0.1-0.3,0-0.5,0.3-0.7c0.3-0.1,0.5,0,0.7,0.3C58.6,162.8,59.1,164.1,59.7,165.3z M54.1,150.4
	c0.1,0.3-0.1,0.5-0.3,0.6h-0.1c-0.2,0-0.4-0.1-0.5-0.4c-0.4-1.3-0.7-2.6-1-3.9c-0.1-0.3,0.1-0.5,0.4-0.6s0.5,0.1,0.6,0.4
	C53.4,147.8,53.7,149.1,54.1,150.4z M107.8,160.2c0.2,0.2,0.3,0.5,0.1,0.7l-2.4,3.2c-0.1,0.1-0.3,0.2-0.4,0.2s-0.2,0-0.3-0.1
	c-0.2-0.2-0.3-0.5-0.1-0.7l2.4-3.2C107.3,160.1,107.6,160,107.8,160.2z M103.1,166.6c0.2,0.2,0.3,0.5,0.1,0.7l-2.4,3.2
	c-0.1,0.1-0.3,0.2-0.4,0.2s-0.2,0-0.3-0.1c-0.2-0.2-0.3-0.5-0.1-0.7l2.4-3.2C102.5,166.5,102.9,166.5,103.1,166.6z M98.4,173.1
	c0.2,0.2,0.3,0.5,0.1,0.7l-2.4,3.2c-0.1,0.1-0.3,0.2-0.4,0.2s-0.2,0-0.3-0.1c-0.2-0.2-0.3-0.5-0.1-0.7l2.4-3.2
	C97.8,173,98.1,172.9,98.4,173.1z M183.4,114.6c0.1,0.3,0,0.5-0.3,0.6l-3.8,1.3c-0.1,0-0.1,0-0.2,0c-0.2,0-0.4-0.1-0.5-0.3
	c-0.1-0.3,0-0.5,0.3-0.6l3.8-1.3C183.1,114.2,183.3,114.3,183.4,114.6z M171.5,118.3l3.8-1.3c0.3-0.1,0.5,0,0.6,0.3
	c0.1,0.3,0,0.5-0.3,0.6l-3.8,1.3c-0.1,0-0.1,0-0.2,0c-0.2,0-0.4-0.1-0.5-0.3C171.1,118.7,171.2,118.4,171.5,118.3z M163.9,121
	l3.8-1.3c0.3-0.1,0.5,0,0.6,0.3c0.1,0.3,0,0.5-0.3,0.6l-3.8,1.3c-0.1,0-0.1,0-0.2,0c-0.2,0-0.4-0.1-0.5-0.3
	C163.5,121.4,163.7,121.1,163.9,121z M175.6,68.2c-0.2-0.2-0.3-0.5-0.1-0.7s0.5-0.3,0.7-0.1c1.1,0.8,2.2,1.6,3.2,2.5
	c0.2,0.2,0.2,0.5,0.1,0.7c-0.1,0.1-0.2,0.2-0.4,0.2c-0.1,0-0.2,0-0.3-0.1C177.8,69.8,176.7,69,175.6,68.2z M181.8,73.2
	c-0.2-0.2-0.2-0.5,0-0.7s0.5-0.2,0.7,0c1,0.9,2,1.9,2.9,2.8c0.2,0.2,0.2,0.5,0,0.7c-0.1,0.1-0.2,0.1-0.3,0.1c-0.1,0-0.3-0.1-0.4-0.2
	C183.7,75.1,182.8,74.1,181.8,73.2z M168.8,63.2c0.1-0.2,0.4-0.3,0.7-0.2c1.2,0.7,2.3,1.4,3.4,2.1c0.2,0.2,0.3,0.5,0.1,0.7
	c-0.1,0.1-0.3,0.2-0.4,0.2c-0.1,0-0.2,0-0.3-0.1c-1.1-0.7-2.2-1.4-3.4-2.1C168.7,63.7,168.7,63.4,168.8,63.2z M161.8,59.4
	c0.1-0.2,0.4-0.3,0.7-0.2c1.2,0.6,2.4,1.2,3.6,1.8c0.2,0.1,0.3,0.4,0.2,0.7c-0.1,0.2-0.3,0.3-0.4,0.3c-0.1,0-0.2,0-0.2-0.1
	c-1.1-0.6-2.3-1.2-3.5-1.8C161.7,59.9,161.6,59.6,161.8,59.4z M203,150.4c0.4-1.3,0.7-2.6,1-3.8c0.1-0.3,0.3-0.4,0.6-0.4
	c0.3,0.1,0.4,0.3,0.4,0.6c-0.3,1.3-0.6,2.6-1,3.9c-0.1,0.2-0.3,0.4-0.5,0.4h-0.1C203.1,150.9,202.9,150.6,203,150.4z M204.8,142.6
	c0.2-1.3,0.4-2.7,0.5-3.9c0-0.3,0.3-0.5,0.5-0.5c0.3,0,0.5,0.3,0.5,0.5c-0.1,1.3-0.3,2.6-0.5,4c0,0.2-0.3,0.4-0.5,0.4h-0.1
	C204.9,143.1,204.7,142.9,204.8,142.6z M200.5,157.9c0.5-1.3,0.9-2.5,1.3-3.8c0.1-0.3,0.4-0.4,0.6-0.3c0.3,0.1,0.4,0.4,0.3,0.6
	c-0.4,1.2-0.9,2.5-1.3,3.8c-0.1,0.2-0.3,0.3-0.5,0.3c-0.1,0-0.1,0-0.2,0C200.5,158.5,200.4,158.2,200.5,157.9z M197.4,165.3
	c0.6-1.2,1.1-2.4,1.6-3.6c0.1-0.3,0.4-0.4,0.7-0.3s0.4,0.4,0.3,0.7c-0.5,1.2-1.1,2.5-1.6,3.7c-0.1,0.2-0.3,0.3-0.5,0.3
	c-0.1,0-0.1,0-0.2,0C197.4,165.8,197.3,165.5,197.4,165.3z M162.1,176.4c0.2,0.2,0.1,0.5-0.1,0.7c-0.1,0.1-0.2,0.1-0.3,0.1
	c-0.2,0-0.3-0.1-0.4-0.2l-2.4-3.2c-0.2-0.2-0.1-0.5,0.1-0.7s0.5-0.1,0.7,0.1L162.1,176.4z M152.7,163.5c0.2,0.2,0.1,0.5-0.1,0.7
	c-0.1,0.1-0.2,0.1-0.3,0.1c-0.2,0-0.3-0.1-0.4-0.2l-2.4-3.2c-0.2-0.2-0.1-0.5,0.1-0.7c0.2-0.2,0.5-0.1,0.7,0.1L152.7,163.5z
	 M157.4,170c0.2,0.2,0.1,0.5-0.1,0.7c-0.1,0.1-0.2,0.1-0.3,0.1c-0.2,0-0.3-0.1-0.4-0.2l-2.4-3.2c-0.2-0.2-0.1-0.5,0.1-0.7
	s0.5-0.1,0.7,0.1L157.4,170z M130.8,207.4c0,0.3-0.2,0.5-0.5,0.5c-0.9,0-1.8,0-2.6,0c-0.5,0-0.9,0-1.4,0c-0.3,0-0.5-0.2-0.5-0.5
	s0.2-0.5,0.5-0.5c1.3,0,2.6,0,4,0l0,0C130.6,206.9,130.8,207.1,130.8,207.4z M138.8,206.8c0,0.3-0.2,0.5-0.5,0.5
	c-1.3,0.1-2.7,0.2-4,0.3l0,0c-0.3,0-0.5-0.2-0.5-0.5s0.2-0.5,0.5-0.5c1.3-0.1,2.7-0.2,4-0.3C138.5,206.4,138.8,206.6,138.8,206.8z
	 M122.8,207.3c0,0.3-0.2,0.5-0.5,0.5l0,0c-1.4-0.1-2.7-0.2-4-0.3c-0.3,0-0.5-0.3-0.5-0.5c0-0.3,0.3-0.5,0.5-0.5
	c1.3,0.1,2.6,0.2,4,0.3C122.6,206.8,122.8,207,122.8,207.3z"/>
</svg>
