<?xml version="1.0" encoding="utf-8"?>
<!-- Generator: Adobe Illustrator 19.0.0, SVG Export Plug-In . SVG Version: 6.00 Build 0)  -->
<svg version="1.1" id="Camada_1" xmlns="http://www.w3.org/2000/svg" xmlns:xlink="http://www.w3.org/1999/xlink" x="0px" y="0px"
	 viewBox="0 0 256 256" style="enable-background:new 0 0 256 256;" xml:space="preserve">
<style type="text/css">
	
</style>
<path d="M191.7,120.6h-40.9v-7.4c0-2.4-1.9-4.3-4.3-4.3h-16.7c0.6-5.9,5.6-10.6,11.7-10.6c10.4,0,18.9-8.5,18.9-18.9
	s-8.5-18.9-18.9-18.9c-6.5,0-11.8-5.3-11.8-11.8s5.3-11.8,11.8-11.8v-2c-7.6,0-13.8,6.2-13.8,13.8s6.2,13.8,13.8,13.8
	c9.3,0,16.9,7.6,16.9,16.9s-7.6,16.9-16.9,16.9c-7.2,0-13.1,5.6-13.7,12.6h-18.1c-2.4,0-4.3,1.9-4.3,4.3v7.4H64.3
	c-27.7,0-50.2,22.5-50.2,50.2S36.6,221,64.3,221c13.5,0,26.2-5.3,35.6-14.9h56c9.4,9.6,22.1,14.9,35.6,14.9
	c27.7,0,50.2-22.5,50.2-50.2S219.3,120.6,191.7,120.6z M107.4,113.2c0-1.2,1.1-2.3,2.3-2.3h36.8c1.2,0,2.3,1.1,2.3,2.3v7.4h-41.4
	V113.2z M191.5,219c-13.1,0-25.4-5.2-34.5-14.6l-0.3-0.3H99.1l-0.3,0.3c-9.1,9.4-21.4,14.6-34.5,14.6c-26.6,0-48.2-21.6-48.2-48.2
	s21.6-48.2,48.2-48.2h127.4c26.5,0,48,21.6,48,48.2S218.1,219,191.5,219z M68.7,202.1c-1.3,0.2-2.6,0.3-3.9,0.3
	c-0.3,0-0.5,0.2-0.5,0.5s0.2,0.5,0.5,0.5l0,0c1.4,0,2.7-0.1,4-0.3c0.3,0,0.5-0.3,0.4-0.6C69.2,202.2,69,202.1,68.7,202.1z
	 M60.8,202.2c-1.3-0.1-2.6-0.4-3.9-0.7c-0.3-0.1-0.5,0.1-0.6,0.4s0.1,0.5,0.4,0.6c1.3,0.3,2.7,0.5,4,0.7c0,0,0,0,0.1,0
	c0.3,0,0.5-0.2,0.5-0.4C61.3,202.5,61.1,202.3,60.8,202.2z M41.9,148.6c0.9-0.9,1.9-1.8,2.9-2.6c0.2-0.2,0.3-0.5,0.1-0.7
	s-0.5-0.3-0.7-0.1c-1.1,0.8-2.1,1.7-3,2.7c-0.2,0.2-0.2,0.5,0,0.7c0.1,0.1,0.2,0.1,0.4,0.1S41.8,148.7,41.9,148.6z M43.1,194.3
	c-0.2-0.2-0.5-0.2-0.7,0s-0.2,0.5,0,0.7c1,0.9,2.1,1.7,3.2,2.5c0.1,0.1,0.2,0.1,0.3,0.1c0.2,0,0.3-0.1,0.4-0.2
	c0.2-0.2,0.1-0.5-0.1-0.7C45.2,196,44.1,195.2,43.1,194.3z M53.2,200.4c-1.2-0.5-2.4-1-3.6-1.6c-0.2-0.1-0.5,0-0.7,0.2
	c-0.1,0.2,0,0.5,0.2,0.7c1.2,0.6,2.4,1.2,3.7,1.7c0.1,0,0.1,0,0.2,0c0.2,0,0.4-0.1,0.5-0.3C53.6,200.8,53.4,200.5,53.2,200.4z
	 M76.3,200c-1.2,0.5-2.5,0.9-3.7,1.3c-0.3,0.1-0.4,0.3-0.4,0.6c0.1,0.2,0.3,0.4,0.5,0.4h0.1c1.3-0.4,2.6-0.8,3.8-1.3
	c0.3-0.1,0.4-0.4,0.3-0.7C76.8,200,76.5,199.9,76.3,200z M83.1,196.1c-1,0.8-2.2,1.5-3.3,2.2c-0.2,0.1-0.3,0.4-0.2,0.7
	c0.1,0.2,0.3,0.3,0.4,0.3s0.2,0,0.2-0.1c1.2-0.7,2.3-1.4,3.4-2.2c0.2-0.2,0.3-0.5,0.1-0.7S83.3,196,83.1,196.1z M96.1,168.1
	c-0.3,0-0.5,0.3-0.5,0.5c0.1,0.7,0.1,1.5,0.1,2.2c0,0.6,0,1.1,0,1.7c0,0.3,0.2,0.5,0.5,0.5l0,0c0.3,0,0.5-0.2,0.5-0.5
	c0-0.6,0-1.2,0-1.7c0-0.8,0-1.6-0.1-2.3C96.6,168.3,96.3,168.1,96.1,168.1z M93.5,183.7c-0.3-0.1-0.5,0-0.7,0.2
	c-0.5,1.2-1.2,2.4-1.9,3.5c-0.1,0.2-0.1,0.5,0.2,0.7c0.1,0.1,0.2,0.1,0.3,0.1c0.2,0,0.3-0.1,0.4-0.2c0.7-1.1,1.4-2.4,1.9-3.6
	C93.9,184.2,93.8,183.9,93.5,183.7z M95.8,176.1c-0.3,0-0.5,0.1-0.6,0.4c-0.2,1.3-0.5,2.6-0.9,3.8c-0.1,0.3,0.1,0.5,0.3,0.6h0.1
	c0.2,0,0.4-0.1,0.5-0.4c0.4-1.3,0.7-2.6,1-3.9C96.2,176.4,96.1,176.1,95.8,176.1z M93.1,157.6c0.1,0,0.1,0,0.2,0
	c0.2-0.1,0.4-0.4,0.2-0.7c-0.6-1.2-1.2-2.4-2-3.5c-0.1-0.2-0.5-0.3-0.7-0.1c-0.2,0.1-0.3,0.5-0.1,0.7c0.7,1.1,1.4,2.3,1.9,3.4
	C92.7,157.5,92.9,157.6,93.1,157.6z M88.7,190.7c-0.8,1-1.7,2-2.7,2.9c-0.2,0.2-0.2,0.5,0,0.7c0.1,0.1,0.2,0.2,0.4,0.2
	c0.1,0,0.3,0,0.3-0.1c1-0.9,1.9-1.9,2.7-3c0.2-0.2,0.1-0.5-0.1-0.7C89.2,190.4,88.9,190.5,88.7,190.7z M95.6,165.2
	C95.6,165.2,95.7,165.2,95.6,165.2c0.4-0.1,0.5-0.3,0.5-0.6c-0.3-1.3-0.6-2.6-1-3.9c-0.1-0.3-0.4-0.4-0.6-0.3
	c-0.3,0.1-0.4,0.4-0.3,0.6c0.4,1.2,0.8,2.5,1,3.8C95.1,165,95.4,165.2,95.6,165.2z M63.1,139.4c1.7-0.1,3.4,0,5,0.2c0,0,0,0,0.1,0
	c0.2,0,0.5-0.2,0.5-0.4c0-0.3-0.2-0.5-0.4-0.6c-1.7-0.2-3.5-0.3-5.2-0.2c-0.3,0-0.5,0.2-0.5,0.5S62.8,139.5,63.1,139.4z M72,140.4
	c1.3,0.3,2.5,0.7,3.7,1.2c0.1,0,0.1,0,0.2,0c0.2,0,0.4-0.1,0.5-0.3c0.1-0.3,0-0.5-0.3-0.6c-1.3-0.5-2.6-0.9-3.9-1.2
	c-0.3-0.1-0.5,0.1-0.6,0.4C71.6,140,71.7,140.3,72,140.4z M88.4,150.7c0.1,0.1,0.2,0.2,0.4,0.2c0.1,0,0.2,0,0.3-0.1
	c0.2-0.2,0.2-0.5,0.1-0.7c-0.9-1-1.8-2-2.8-2.9c-0.2-0.2-0.5-0.2-0.7,0s-0.2,0.5,0,0.7C86.6,148.7,87.5,149.7,88.4,150.7z
	 M47.9,143.9c0.1,0,0.2,0,0.3-0.1c1.1-0.7,2.3-1.3,3.5-1.8c0.3-0.1,0.4-0.4,0.3-0.7c-0.1-0.3-0.4-0.4-0.7-0.3
	c-1.2,0.5-2.4,1.2-3.6,1.8c-0.2,0.1-0.3,0.4-0.2,0.7C47.5,143.8,47.7,143.9,47.9,143.9z M38,188.4c-0.2-0.2-0.5-0.3-0.7-0.1
	c-0.2,0.2-0.3,0.5-0.1,0.7c0.8,1.1,1.6,2.2,2.5,3.2c0.1,0.1,0.2,0.2,0.4,0.2c0.1,0,0.2,0,0.3-0.1c0.2-0.2,0.2-0.5,0.1-0.7
	C39.5,190.5,38.7,189.5,38,188.4z M79.3,143.2c1.1,0.6,2.3,1.3,3.3,2.1c0.1,0.1,0.2,0.1,0.3,0.1c0.2,0,0.3-0.1,0.4-0.2
	c0.2-0.2,0.1-0.5-0.1-0.7c-1.1-0.8-2.3-1.5-3.4-2.2c-0.2-0.1-0.5,0-0.7,0.2S79.1,143.1,79.3,143.2z M55.2,140.7L55.2,140.7
	c1.4-0.4,2.6-0.7,3.9-0.9c0.3,0,0.5-0.3,0.4-0.6c0-0.3-0.3-0.5-0.6-0.4c-1.3,0.2-2.7,0.5-4,0.9c-0.3,0.1-0.4,0.4-0.3,0.6
	C54.8,140.5,55,140.7,55.2,140.7z M32.8,173.7c0-0.3-0.3-0.5-0.5-0.5c-0.3,0-0.5,0.3-0.5,0.5c0.1,1.3,0.3,2.7,0.6,4
	c0.1,0.2,0.3,0.4,0.5,0.4H33c0.3-0.1,0.4-0.3,0.4-0.6C33.1,176.3,32.9,175,32.8,173.7z M34.5,181.4c-0.1-0.3-0.4-0.4-0.6-0.3
	c-0.3,0.1-0.4,0.4-0.3,0.6c0.4,1.3,1,2.5,1.6,3.7c0.1,0.2,0.3,0.3,0.4,0.3c0.1,0,0.2,0,0.2-0.1c0.2-0.1,0.3-0.4,0.2-0.7
	C35.4,183.8,34.9,182.6,34.5,181.4z M39.3,151.6c0.2-0.2,0.1-0.5-0.1-0.7c-0.2-0.2-0.5-0.1-0.7,0.1c-0.8,1.1-1.6,2.2-2.3,3.4
	c-0.1,0.2-0.1,0.5,0.2,0.7c0.1,0,0.2,0.1,0.3,0.1c0.2,0,0.3-0.1,0.4-0.2C37.8,153.7,38.5,152.6,39.3,151.6z M34,162
	c0.4-1.3,0.8-2.5,1.3-3.7c0.1-0.3,0-0.5-0.3-0.7c-0.3-0.1-0.5,0-0.7,0.3c-0.5,1.2-1,2.5-1.4,3.8c-0.1,0.3,0.1,0.5,0.3,0.6h0.1
	C33.7,162.4,33.9,162.2,34,162z M32.2,170.3L32.2,170.3c0.3,0,0.5-0.2,0.5-0.5c0-1.3,0.2-2.6,0.4-3.9c0-0.3-0.1-0.5-0.4-0.6
	c-0.3,0-0.5,0.1-0.6,0.4c-0.2,1.3-0.3,2.7-0.4,4C31.7,170,31.9,170.2,32.2,170.3z M87,165.9c-0.1-2.2-1.9-3.9-4-3.9h-9.9v-9.9
	c0-2.2-1.8-4-4-4h-9.8c-2.2,0-4,1.8-4,4v9.9h-9.9c-2.2,0-4,1.8-4,4v9.8c0,2.2,1.8,4,4,4h9.9v9.9c0,2.2,1.8,4,4,4h9.8
	c2.2,0,4-1.8,4-4v-9.9H83c2.2,0,4-1.8,4-4V165.9z M85,175.8c0,1.1-0.9,2-2,2H71.1v11.9c0,1.1-0.9,2-2,2h-9.8c-1.1,0-2-0.9-2-2v-11.9
	H45.4c-1.1,0-2-0.9-2-2V166c0-1.1,0.9-2,2-2h11.9v-11.9c0-1.1,0.9-2,2-2h9.8c1.1,0,2,0.9,2,2V164H83c1.1,0,1.9,0.9,2,2V175.8z
	 M64.2,164.8c-3.4,0-6.1,2.7-6.1,6.1s2.7,6.1,6.1,6.1s6.1-2.7,6.1-6.1C70.3,167.5,67.6,164.8,64.2,164.8z M64.2,176
	c-2.8,0-5.1-2.3-5.1-5.1c0-2.8,2.3-5.1,5.1-5.1s5.1,2.3,5.1,5.1C69.3,173.7,67,176,64.2,176z M137.8,165.6c-2-2-5.3-2-7.3,0L119,177
	c-2,2-2,5.3,0,7.3l0.2,0.2c1,1,2.3,1.5,3.7,1.5s2.7-0.5,3.7-1.5l11.4-11.4c1-1,1.6-2.3,1.6-3.7c0-1.4-0.6-2.7-1.6-3.7L137.8,165.6z
	 M137.3,172.4l-11.4,11.4c-1.6,1.6-4.3,1.6-5.9,0l-0.2-0.2c-1.6-1.6-1.6-4.3,0-5.9l11.4-11.4c0.8-0.8,1.9-1.2,2.9-1.2
	c1.1,0,2.1,0.4,2.9,1.2l0.2,0.2c0.8,0.8,1.3,1.8,1.3,2.9S138.1,171.7,137.3,172.4z M137.8,142.2c-2-2-5.3-2-7.3,0L119,153.6
	c-2,2-2,5.3,0,7.3l0.2,0.2c1,1,2.3,1.5,3.7,1.5c1.3,0,2.7-0.5,3.7-1.5l11.4-11.4c1-1,1.6-2.3,1.6-3.7c0-1.4-0.6-2.7-1.6-3.7
	L137.8,142.2z M137.3,149l-11.4,11.4c-1.6,1.6-4.3,1.6-5.9,0l-0.2-0.2c-1.6-1.6-1.6-4.3,0-5.9l11.4-11.4c0.8-0.8,1.9-1.2,2.9-1.2
	c1.1,0,2.1,0.4,2.9,1.2l0.2,0.2c0.8,0.8,1.3,1.8,1.3,2.9C138.5,147.2,138.1,148.3,137.3,149z M225.6,149.3c-0.1-0.2-0.5-0.3-0.7-0.2
	c-0.2,0.1-0.3,0.5-0.2,0.7c0.7,1.1,1.3,2.3,1.9,3.5c0.1,0.2,0.3,0.3,0.4,0.3s0.1,0,0.2-0.1c0.2-0.1,0.4-0.4,0.2-0.7
	C227,151.7,226.3,150.5,225.6,149.3z M230,179.9c-0.3-0.1-0.5,0.1-0.6,0.4c-0.3,1.3-0.7,2.5-1.2,3.8c-0.1,0.3,0,0.5,0.3,0.6
	c0.1,0,0.1,0,0.2,0c0.2,0,0.4-0.1,0.5-0.3c0.5-1.3,0.9-2.6,1.2-3.9C230.4,180.2,230.2,180,230,179.9z M231.1,172
	c-0.3,0-0.5,0.2-0.5,0.5c-0.1,1.3-0.2,2.6-0.4,3.9c0,0.3,0.1,0.5,0.4,0.6h0.1c0.2,0,0.5-0.2,0.5-0.4c0.2-1.3,0.3-2.7,0.4-4
	C231.6,172.2,231.3,172,231.1,172z M222.4,194.3c-0.8,1-1.7,2-2.6,3c-0.2,0.2-0.2,0.5,0,0.7c0.1,0.1,0.2,0.1,0.3,0.1
	c0.1,0,0.3-0.1,0.4-0.2c0.9-1,1.8-2,2.6-3.1c0.2-0.2,0.1-0.5-0.1-0.7C222.9,194.1,222.6,194.1,222.4,194.3z M227.3,187.4
	c-0.2-0.1-0.5,0-0.7,0.2c-0.6,1.2-1.2,2.3-1.9,3.4c-0.1,0.2-0.1,0.5,0.2,0.7c0.1,0.1,0.2,0.1,0.3,0.1c0.2,0,0.3-0.1,0.4-0.2
	c0.7-1.1,1.4-2.3,2-3.5C227.6,187.8,227.5,187.5,227.3,187.4z M163.4,197c-0.2-0.2-0.5-0.2-0.7,0s-0.2,0.5,0,0.7
	c0.9,1,1.9,1.9,2.9,2.8c0.1,0.1,0.2,0.1,0.3,0.1c0.1,0,0.3-0.1,0.4-0.2c0.2-0.2,0.2-0.5,0-0.7C165.2,198.9,164.3,198,163.4,197z
	 M158.6,190.8c-0.1-0.2-0.5-0.3-0.7-0.2c-0.2,0.1-0.3,0.5-0.2,0.7c0.7,1.1,1.5,2.3,2.3,3.3c0.1,0.1,0.2,0.2,0.4,0.2
	c0.1,0,0.2,0,0.3-0.1c0.2-0.2,0.3-0.5,0.1-0.7C160,193,159.2,191.9,158.6,190.8z M163.4,143.5c0.1,0,0.3-0.1,0.4-0.2
	c0.9-0.9,1.9-1.9,2.9-2.7c0.2-0.2,0.2-0.5,0.1-0.7c-0.2-0.2-0.5-0.2-0.7-0.1c-1,0.9-2,1.8-3,2.8c-0.2,0.2-0.2,0.5,0,0.7
	C163.1,143.5,163.2,143.5,163.4,143.5z M169.4,138.4c0.1,0,0.2,0,0.3-0.1c1.1-0.7,2.2-1.4,3.4-2.1c0.2-0.1,0.3-0.4,0.2-0.7
	c-0.1-0.2-0.4-0.3-0.7-0.2c-1.2,0.6-2.3,1.4-3.5,2.1c-0.2,0.2-0.3,0.5-0.1,0.7C169.1,138.3,169.3,138.4,169.4,138.4z M158.1,149.7
	c0.1,0.1,0.2,0.1,0.3,0.1c0.2,0,0.3-0.1,0.4-0.2c0.7-1.1,1.5-2.2,2.3-3.2c0.2-0.2,0.1-0.5-0.1-0.7s-0.5-0.1-0.7,0.1
	c-0.8,1.1-1.6,2.2-2.3,3.3C157.8,149.3,157.9,149.6,158.1,149.7z M172.6,204.3c-1.1-0.6-2.3-1.4-3.3-2.1c-0.2-0.2-0.5-0.1-0.7,0.1
	c-0.2,0.2-0.1,0.5,0.1,0.7c1.1,0.8,2.2,1.5,3.4,2.2c0.1,0,0.2,0.1,0.2,0.1c0.2,0,0.3-0.1,0.4-0.3C173,204.8,172.9,204.5,172.6,204.3
	z M210.5,204.5c-1.1,0.6-2.3,1.2-3.5,1.7c-0.3,0.1-0.4,0.4-0.3,0.7c0.1,0.2,0.3,0.3,0.5,0.3c0.1,0,0.1,0,0.2,0
	c1.2-0.5,2.5-1.1,3.6-1.8c0.2-0.1,0.3-0.4,0.2-0.7C211,204.4,210.7,204.4,210.5,204.5z M203.2,207.6c-1.3,0.4-2.5,0.7-3.8,1
	c-0.3,0.1-0.4,0.3-0.4,0.6c0,0.2,0.3,0.4,0.5,0.4h0.1c1.3-0.3,2.6-0.6,3.9-1c0.3-0.1,0.4-0.4,0.3-0.6
	C203.7,207.8,203.5,207.5,203.2,207.6z M216.9,200c-1,0.8-2,1.7-3.1,2.4c-0.2,0.2-0.3,0.5-0.1,0.7c0.1,0.1,0.3,0.2,0.4,0.2
	s0.2,0,0.3-0.1c1.1-0.8,2.2-1.6,3.2-2.5c0.2-0.2,0.2-0.5,0.1-0.7C217.5,199.8,217.1,199.8,216.9,200z M195.5,209.1
	c-1.2,0.1-2.5,0.2-3.8,0.2h-0.2c-0.3,0-0.5,0.2-0.5,0.5s0.2,0.5,0.5,0.5h0.2l0,0c1.3,0,2.6-0.1,3.8-0.2c0.3,0,0.5-0.3,0.5-0.5
	C196,209.3,195.7,209.1,195.5,209.1z M179.9,207.5c-1.2-0.4-2.5-0.9-3.7-1.4c-0.3-0.1-0.5,0-0.7,0.3c-0.1,0.3,0,0.5,0.3,0.7
	c1.2,0.5,2.5,1,3.8,1.4c0.1,0,0.1,0,0.2,0c0.2,0,0.4-0.1,0.5-0.3C180.3,207.8,180.1,207.6,179.9,207.5z M152.4,172.6
	c0.3,0,0.5-0.2,0.5-0.5c0-0.6,0-1.1,0-1.7c0-0.7,0-1.5,0.1-2.2c0-0.3-0.2-0.5-0.5-0.5s-0.5,0.2-0.5,0.5c0,0.8-0.1,1.5-0.1,2.3
	c0,0.6,0,1.2,0,1.8C151.8,172.4,152.1,172.6,152.4,172.6C152.3,172.6,152.4,172.6,152.4,172.6z M187.6,209.1
	c-1.3-0.1-2.6-0.3-3.9-0.6c-0.3-0.1-0.5,0.1-0.6,0.4c-0.1,0.3,0.1,0.5,0.4,0.6c1.3,0.3,2.7,0.5,4,0.6c0,0,0,0,0.1,0
	c0.3,0,0.5-0.2,0.5-0.4C188.1,209.4,187.9,209.1,187.6,209.1z M153.7,159.8c-0.3-0.1-0.5,0.1-0.6,0.4c-0.3,1.3-0.6,2.6-0.8,4
	c0,0.3,0.1,0.5,0.4,0.6h0.1c0.2,0,0.5-0.2,0.5-0.4c0.2-1.3,0.5-2.6,0.8-3.9C154.2,160.1,154,159.8,153.7,159.8z M217.1,140.9
	c0.1,0.1,0.2,0.1,0.3,0.1c0.1,0,0.3-0.1,0.4-0.2c0.2-0.2,0.2-0.5-0.1-0.7c-1-0.9-2.1-1.7-3.2-2.5c-0.2-0.2-0.5-0.1-0.7,0.1
	s-0.1,0.5,0.1,0.7C215,139.2,216.1,140.1,217.1,140.9z M229.4,160.7c0.1,0.2,0.3,0.4,0.5,0.4h0.1c0.3-0.1,0.4-0.3,0.4-0.6
	c-0.3-1.3-0.7-2.6-1.2-3.9c-0.1-0.3-0.4-0.4-0.6-0.3c-0.3,0.1-0.4,0.4-0.3,0.6C228.7,158.2,229.1,159.4,229.4,160.7z M222.5,146.6
	c0.1,0.1,0.2,0.2,0.4,0.2c0.1,0,0.2,0,0.3-0.1c0.2-0.2,0.3-0.5,0.1-0.7c-0.8-1.1-1.7-2.1-2.6-3.1c-0.2-0.2-0.5-0.2-0.7,0
	s-0.2,0.5,0,0.7C220.8,144.6,221.7,145.6,222.5,146.6z M230.2,164.6c0.2,1.3,0.3,2.6,0.4,3.9c0,0.3,0.2,0.5,0.5,0.5l0,0
	c0.3,0,0.5-0.2,0.5-0.5c-0.1-1.3-0.2-2.7-0.4-4c0-0.3-0.3-0.5-0.6-0.4C230.3,164.1,230.1,164.3,230.2,164.6z M156.7,152.3
	c-0.2-0.1-0.5,0-0.7,0.2c-0.6,1.2-1.1,2.5-1.6,3.7c-0.1,0.3,0,0.5,0.3,0.6c0.1,0,0.1,0,0.2,0c0.2,0,0.4-0.1,0.5-0.3
	c0.5-1.2,1-2.4,1.6-3.6C157,152.8,156.9,152.5,156.7,152.3z M199.5,132.3c1.3,0.3,2.6,0.6,3.8,1h0.1c0.2,0,0.4-0.1,0.5-0.4
	c0.1-0.3-0.1-0.5-0.3-0.6c-1.3-0.4-2.6-0.7-3.9-1c-0.3-0.1-0.5,0.1-0.6,0.4C199.1,132,199.3,132.2,199.5,132.3z M191.7,131.5
	c1.3,0,2.6,0.1,3.9,0.2c0,0,0,0,0.1,0c0.3,0,0.5-0.2,0.5-0.5s-0.2-0.5-0.4-0.5c-1.3-0.1-2.7-0.2-4-0.2c-0.3,0-0.5,0.2-0.5,0.5
	S191.4,131.5,191.7,131.5z M176.5,134.6c0.1,0,0.1,0,0.2,0c1.2-0.5,2.5-1,3.7-1.3c0.3-0.1,0.4-0.4,0.3-0.6c-0.1-0.3-0.4-0.4-0.6-0.3
	c-1.3,0.4-2.6,0.9-3.8,1.4c-0.3,0.1-0.4,0.4-0.3,0.7C176.1,134.4,176.3,134.6,176.5,134.6z M184.1,132.2
	C184.1,132.2,184.2,132.2,184.1,132.2c1.4-0.3,2.7-0.4,4-0.6c0.3,0,0.5-0.3,0.5-0.5c0-0.3-0.3-0.5-0.5-0.5c-1.3,0.1-2.7,0.3-4,0.6
	c-0.3,0.1-0.4,0.3-0.4,0.6C183.7,132.1,183.9,132.2,184.1,132.2z M155.1,183.7c-0.1-0.3-0.4-0.4-0.6-0.3s-0.4,0.4-0.3,0.6
	c0.5,1.3,1,2.5,1.6,3.7c0.1,0.2,0.3,0.3,0.5,0.3c0.1,0,0.1,0,0.2,0c0.2-0.1,0.4-0.4,0.2-0.7C156.1,186.1,155.6,184.9,155.1,183.7z
	 M153.2,176c0-0.3-0.3-0.5-0.6-0.4c-0.3,0-0.5,0.3-0.4,0.6c0.2,1.3,0.5,2.7,0.8,4c0.1,0.2,0.3,0.4,0.5,0.4h0.1
	c0.3-0.1,0.4-0.3,0.4-0.6C153.7,178.6,153.4,177.3,153.2,176z M207.1,134.7c1.2,0.5,2.4,1.1,3.5,1.7c0.1,0,0.2,0.1,0.2,0.1
	c0.2,0,0.3-0.1,0.4-0.3c0.1-0.2,0-0.5-0.2-0.7c-1.2-0.7-2.4-1.3-3.6-1.8c-0.3-0.1-0.5,0-0.7,0.3
	C206.7,134.2,206.8,134.5,207.1,134.7z M176.7,179.1l21.3-21.3c1.9-1.9,3-4.4,3-7.1s-1-5.3-3-7.3l-0.2-0.2c-4-3.9-10.4-3.9-14.3,0
	l-21.3,21.3c-3.9,4-3.9,10.4,0,14.3l0.2,0.2c2,1.9,4.6,2.9,7.2,2.9C172.1,182,174.7,181,176.7,179.1z M163.1,178.3l-0.2-0.2
	c-3.5-3.5-3.5-9.3,0-12.9l21.3-21.2c1.8-1.8,4.1-2.6,6.4-2.6c2.3,0,4.7,0.9,6.5,2.6l0.2,0.2c1.8,1.8,2.7,4.1,2.7,6.5s-1,4.7-2.7,6.3
	L176,178.3C172.4,181.9,166.7,181.9,163.1,178.3z M221,161.7c-4-3.9-10.4-3.9-14.3,0l-21.3,21.4c-3.9,4-3.9,10.4,0,14.3l0.2,0.2
	c2,1.9,4.6,2.9,7.2,2.9c2.6,0,5.2-1,7.1-2.9l21.3-21.3c3.9-3.9,3.9-10.4,0-14.3L221,161.7z M220.5,175.5l-21.3,21.3
	c-3.5,3.5-9.3,3.5-12.9,0l-0.2-0.2c-3.5-3.5-3.5-9.3,0-12.9l21.3-21.3c1.8-1.8,4.1-2.6,6.4-2.6s4.7,0.9,6.5,2.6l0.2,0.2
	C224,166.1,224,172.1,220.5,175.5z M169.6,164.1c-4,0-7.2,3.2-7.2,7.2s3.2,7.2,7.2,7.2s7.2-3.2,7.2-7.2S173.6,164.1,169.6,164.1z
	 M169.6,176.5c-2.9,0-5.2-2.3-5.2-5.2s2.3-5.2,5.2-5.2c2.9,0,5.2,2.3,5.2,5.2S172.5,176.5,169.6,176.5z M190.2,158
	c4,0,7.2-3.2,7.2-7.2s-3.2-7.2-7.2-7.2s-7.2,3.2-7.2,7.2S186.2,158,190.2,158z M190.2,145.6c2.9,0,5.2,2.3,5.2,5.2s-2.3,5.2-5.2,5.2
	c-2.9,0-5.2-2.3-5.2-5.2S187.3,145.6,190.2,145.6z M193.1,182.9c-4,0-7.2,3.2-7.2,7.2s3.2,7.2,7.2,7.2s7.2-3.2,7.2-7.2
	S197.1,182.9,193.1,182.9z M193.1,195.3c-2.9,0-5.2-2.3-5.2-5.2s2.3-5.2,5.2-5.2c2.9,0,5.2,2.3,5.2,5.2S196,195.3,193.1,195.3z
	 M213.6,162.4c-4,0-7.2,3.2-7.2,7.2s3.2,7.2,7.2,7.2s7.2-3.2,7.2-7.2S217.6,162.4,213.6,162.4z M213.6,174.8c-2.9,0-5.2-2.3-5.2-5.2
	s2.3-5.2,5.2-5.2c2.9,0,5.2,2.3,5.2,5.2S216.5,174.8,213.6,174.8z"/>
</svg>
