<?xml version="1.0" encoding="utf-8"?>
<!-- Generator: Adobe Illustrator 19.0.0, SVG Export Plug-In . SVG Version: 6.00 Build 0)  -->
<svg version="1.1" id="Camada_1" xmlns="http://www.w3.org/2000/svg" xmlns:xlink="http://www.w3.org/1999/xlink" x="0px" y="0px"
	 viewBox="0 0 256 256" style="enable-background:new 0 0 256 256;" xml:space="preserve">
<style type="text/css">
	
</style>
<g>
	<path d="M117.6,155c-0.2-0.1-0.5,0-0.7,0.2c-0.6,1.1-1.3,2.2-2.3,3.1c-0.2,0.2-0.2,0.5,0,0.7c0.1,0.1,0.2,0.2,0.4,0.2
		c0.1,0,0.3,0,0.3-0.1c1-1,1.8-2.1,2.5-3.3C117.9,155.4,117.8,155.1,117.6,155z"/>
	<path d="M111.5,160.5c-1.2,0.5-2.4,0.9-3.7,1c-0.3,0-0.5,0.3-0.5,0.5c0,0.3,0.2,0.5,0.5,0.5l0,0c1.4-0.1,2.7-0.5,4-1.1
		c0.3-0.1,0.4-0.4,0.2-0.7C112.1,160.5,111.8,160.4,111.5,160.5z"/>
	<path d="M100.7,139.5c-1.2,0.7-2.3,1.6-3.2,2.6c-0.2,0.2-0.2,0.5,0.1,0.7c0.1,0.1,0.2,0.1,0.3,0.1
		c0.1,0,0.3-0.1,0.4-0.2c0.8-1,1.8-1.8,2.9-2.4c0.2-0.1,0.3-0.4,0.2-0.7C101.2,139.5,100.9,139.4,100.7,139.5z"/>
	<path d="M96,145.5c-0.3-0.1-0.5,0-0.6,0.3c-0.5,1.3-0.8,2.7-0.8,4.1c0,0.3,0.2,0.5,0.5,0.5l0,0c0.3,0,0.5-0.2,0.5-0.5
		c0-1.3,0.3-2.5,0.8-3.7C96.4,145.8,96.2,145.6,96,145.5z"/>
	<path d="M244.8,27.2c-1.3-1.6-3.6-4.9-3.8-8.7c-0.1-1.3-1.2-2.3-2.4-2.3l0,0c-3.8-0.2-7.1-2.5-8.7-3.8
		c-0.9-0.8-2.3-0.7-3.2,0.1l-27.2,26.4c-0.4,0.4-0.7,1-0.4,2c1.3,3.6-2,6.2-2.2,6.4L136,106.8c-16.5-12.7-33.1-13.6-44.5-2.3
		c-4.4,4.4-6.9,9.2-9.3,13.9c-4.6,8.9-8.5,16.6-24.6,19.3c-16.3,2.8-36.4,13.8-41.9,31.2c-4.9,15.5,2.1,32.8,20.8,51.5
		c14.8,14.8,28.8,22.3,41.7,22.3c3.4,0,6.7-0.5,9.9-1.5c17.5-5.6,28.4-25.6,31.1-41.9c2.8-16.1,10.4-20,19.3-24.6
		c4.7-2.4,9.5-4.9,13.9-9.3c11.3-11.3,10.4-27.8-2.1-44.3L209.9,60c0,0,2.7-3.4,6.3-2.1c0.7,0.3,1.5,0.1,2-0.4l26.4-27.1
		C245.5,29.5,245.6,28.2,244.8,27.2z M197.6,48c0,0,0.1-0.1,0.4-0.3l1,1l-83.7,83.7c-0.9-0.5-1.9-0.8-2.9-1.1L197.6,48z
		 M125.5,150.2c0,10.3-8.4,18.7-18.7,18.7c-2.8,0-5.4-0.6-7.7-1.7l18.8-18.8c0.1,0.6,0.2,1.2,0.2,1.8c0,0.5,0,0.9-0.1,1.4
		c0,0.3,0.2,0.5,0.4,0.6c0,0,0,0,0.1,0c0.2,0,0.5-0.2,0.5-0.4c0.1-0.5,0.1-1,0.1-1.5c0-0.9-0.1-1.8-0.3-2.6c0,0,0,0,0-0.1l5-5
		C124.9,144.8,125.5,147.4,125.5,150.2z M68.2,196.7l-1.4-1.4l6.8-6.8l1.4,1.4L68.2,196.7z M75.7,190.7l8.5,8.5
		c0.5,0.5,0.8,1.1,0.8,1.8s-0.3,1.3-0.8,1.8L81,206c-0.4,0.5-1,0.7-1.7,0.7s-1.4-0.3-1.9-0.8l-8.5-8.5L75.7,190.7z M51.1,179.6
		c-0.5-0.5-0.8-1.1-0.8-1.8c0-0.7,0.3-1.3,0.8-1.8l3.2-3.2c0.5-0.5,1.2-0.8,1.8-0.8c0.6,0,1.3,0.3,1.8,0.8l8.5,8.5l-6.8,6.8
		L51.1,179.6z M67.1,182.1l1.4,1.4l-6.8,6.8l-1.4-1.4L67.1,182.1z M100.6,159.6c-0.2-0.2-0.5-0.1-0.7,0.1s-0.1,0.5,0.1,0.7
		c0,0,0.1,0,0.1,0.1l-4.6,4.6c-0.5-0.4-1.1-0.9-1.6-1.3l21.2-21.2c0.5,0.5,0.9,1.1,1.3,1.6l-15.6,15.6
		C100.7,159.7,100.6,159.7,100.6,159.6z M93.2,164.5c0.5,0.5,1,0.9,1.6,1.3l-21.3,21.3l-1.4-1.4L93.2,164.5z M71.3,184.9l-1.4-1.4
		l21.3-21.3c0.4,0.5,0.9,1.1,1.3,1.6L71.3,184.9z M117.1,143.5c-0.4-0.6-0.8-1.1-1.3-1.6l4.5-4.5c0.5,0.5,0.9,1,1.3,1.6L117.1,143.5
		z M115.1,141.2c-0.2-0.2-0.4-0.4-0.6-0.5c-0.2-0.2-0.5-0.1-0.7,0.1s-0.1,0.5,0.1,0.7c0.2,0.1,0.4,0.3,0.5,0.5l-21.2,21
		c-0.5-0.5-0.9-1-1.3-1.6l4.6-4.6c0.2,0.2,0.3,0.5,0.5,0.7c0.1,0.1,0.2,0.2,0.4,0.2c0.1,0,0.2,0,0.3-0.1c0.2-0.2,0.3-0.5,0.1-0.7
		c-0.2-0.3-0.4-0.5-0.6-0.8l20.9-20.9c0.5,0.4,1.1,0.9,1.6,1.3L115.1,141.2z M96.7,155.3c-0.3-0.5-0.5-1.1-0.7-1.7
		c0-0.1-0.1-0.2-0.2-0.3l14-14c0.3,0.1,0.5,0.1,0.8,0.2c0.1,0,0.1,0,0.2,0c0.2,0,0.4-0.1,0.5-0.3c0.1-0.3,0-0.5-0.3-0.6
		c-0.1,0-0.2-0.1-0.3-0.1l4.9-4.9c0.6,0.3,1.2,0.7,1.8,1.1L96.7,155.3z M109.5,138.2c-1.6-0.4-3.3-0.4-4.9-0.1
		c-0.3,0.1-0.5,0.3-0.4,0.6c0,0.3,0.3,0.4,0.6,0.4c1.3-0.2,2.6-0.2,3.9,0l-18.8,18.8c-1.1-2.4-1.7-5-1.7-7.7
		c0-10.3,8.4-18.7,18.7-18.7c2.8,0,5.4,0.6,7.7,1.7L109.5,138.2z M95.1,154c0.2,0.7,0.5,1.4,0.9,2l-4.7,4.7
		c-0.4-0.6-0.7-1.2-1.1-1.8L95.1,154z M90.6,161.4l-21.4,21.4l-1.4-1.4l21.7-21.7C89.8,160.2,90.2,160.8,90.6,161.4z M69.2,184.2
		l1.4,1.4l-6.8,6.8l-1.4-1.4L69.2,184.2z M71.3,186.4l1.4,1.4l-6.8,6.8l-1.4-1.4L71.3,186.4z M74.2,187.8l21.4-21.4
		c0.6,0.4,1.2,0.8,1.8,1.1l-21.7,21.7L74.2,187.8z M96.3,165.7l4.7-4.7c0.6,0.3,1.3,0.6,2,0.9l-4.9,4.9
		C97.5,166.4,96.9,166.1,96.3,165.7z M103.8,161.1c-0.7-0.2-1.4-0.5-2.1-0.8l20.6-20.6c0.4,0.6,0.7,1.2,1.1,1.8L103.8,161.1z
		 M123,139l83.2-83.2l1.4,1.4l-83.5,83.5C123.8,140.2,123.4,139.6,123,139z M122.4,138.2c-0.4-0.5-0.9-1.1-1.3-1.6L204,53.7l1.4,1.4
		L122.4,138.2z M120.4,135.9c-0.5-0.5-1-0.9-1.6-1.3l83.1-83.1l1.4,1.4L120.4,135.9z M118,134c-0.6-0.4-1.2-0.8-1.8-1.1l83.5-83.5
		l1.4,1.4L118,134z M151,164c-4.2,4.2-8.9,6.6-13.4,8.9c-9,4.6-17.5,8.9-20.4,26c-2.6,15.7-13.1,35-29.8,40.3
		c-14.7,4.7-31.4-2.1-49.6-20.3c-18.1-18.1-25-34.8-20.3-49.5c5.3-16.6,24.6-27.1,40.4-29.8c17.1-2.9,21.4-11.4,26-20.4
		c2.3-4.5,4.7-9.2,8.9-13.4c10.6-10.5,26.1-9.6,41.7,2.3l-23.3,22.8l0.1,0.1c-1.5-0.3-3-0.6-4.6-0.6c-10.9,0-19.7,8.8-19.7,19.7
		c0,3,0.7,5.9,1.9,8.5l-22,22l-8.5-8.5c-1.4-1.4-3.6-1.4-5,0l-3.2,3.2c-0.7,0.7-1,1.6-1,2.5s0.4,1.8,1,2.5l26.3,26.3
		c0.7,0.7,1.6,1,2.5,1h0.1c0.9,0,1.8-0.4,2.4-1l3.2-3.2c0.7-0.7,1-1.6,1-2.5s-0.4-1.8-1-2.5l-8.5-8.5l22-22c2.6,1.2,5.4,1.9,8.5,1.9
		c10.9,0,19.7-8.8,19.7-19.7c0-1.6-0.2-3.2-0.6-4.7l0.2,0.2l22.7-23.2C160.6,138.1,161.4,153.6,151,164z M125.7,144.8
		c-0.3-1-0.7-2.1-1.2-3L208.3,58l1.1,1.1c-0.1,0.2-0.2,0.3-0.2,0.3L125.7,144.8z M243.9,29.7l-26.4,27.1c-0.2,0.2-0.6,0.3-1,0.2
		c-2.9-1-5.2,0.4-6.5,1.5L198.5,47c1.1-1.3,2.4-3.6,1.4-6.4c-0.2-0.5,0-0.8,0.2-1l27.2-26.4c0.5-0.5,1.3-0.5,1.8-0.1
		c1.7,1.4,5.2,3.8,9.3,4c0.7,0,1.3,0.7,1.4,1.4c0.2,4.1,2.6,7.6,4,9.3C244.5,28.4,244.4,29.1,243.9,29.7z"/>
	<path d="M229,23c0-0.9-0.4-1.7-1-2.3c-0.6-0.6-1.4-0.9-2.3-0.9c-0.9,0-1.7,0.4-2.3,1l-15.9,17
		c-0.6,0.6-0.9,1.4-0.9,2.3s0.4,1.7,1,2.3c0.6,0.6,1.4,0.9,2.2,0.9c0.9,0,1.7-0.3,2.4-1l15.9-17C228.7,24.7,229,23.9,229,23z
		 M227.3,24.7l-15.9,17c-0.9,0.9-2.3,0.9-3.2,0.1c-0.4-0.4-0.7-1-0.7-1.6s0.2-1.2,0.6-1.6l15.9-17c0.4-0.4,1-0.7,1.6-0.7
		c0,0,0,0,0.1,0c0.6,0,1.1,0.2,1.6,0.6c0.4,0.4,0.7,1,0.7,1.6S227.8,24.2,227.3,24.7z"/>
	<path d="M234,28c-0.9,0-1.7,0.3-2.3,0.9l-17,15.9c-1.3,1.3-1.3,3.3-0.1,4.6c0.6,0.6,1.4,1,2.3,1h0.1
		c0.9,0,1.6-0.3,2.2-0.9l17-15.9c0.6-0.6,1-1.4,1-2.3s-0.3-1.7-0.9-2.3C235.7,28.4,234.8,28,234,28z M235.5,32.9l-17,15.9
		c-0.4,0.4-1,0.6-1.6,0.6c-0.6,0-1.2-0.3-1.6-0.7c-0.8-0.9-0.8-2.3,0.1-3.2l17-15.9c0.4-0.4,1-0.6,1.5-0.6c0,0,0,0,0.1,0
		c0.6,0,1.2,0.3,1.6,0.7c0.4,0.4,0.6,1,0.6,1.6C236.2,32,235.9,32.5,235.5,32.9z"/>
</g>
</svg>
