<?xml version="1.0" encoding="utf-8"?>
<!-- Generator: Adobe Illustrator 19.0.0, SVG Export Plug-In . SVG Version: 6.00 Build 0)  -->
<svg version="1.1" id="Camada_1" xmlns="http://www.w3.org/2000/svg" xmlns:xlink="http://www.w3.org/1999/xlink" x="0px" y="0px"
	 viewBox="0 0 256 256" style="enable-background:new 0 0 256 256;" xml:space="preserve">
<style type="text/css">
	
</style>
<g>
	<path d="M40.7,205c0.1,0.2,0.3,0.4,0.5,0.4h0.1c0.3-0.1,0.4-0.3,0.4-0.6l-1-3.9c-0.1-0.3-0.3-0.4-0.6-0.4
		c-0.3,0.1-0.4,0.3-0.4,0.6L40.7,205z"/>
	<path d="M38.6,197.2c0.1,0.2,0.3,0.4,0.5,0.4h0.1c0.3-0.1,0.4-0.3,0.4-0.6l-1-3.9c-0.1-0.3-0.3-0.4-0.6-0.4
		c-0.3,0.1-0.4,0.3-0.4,0.6L38.6,197.2z"/>
	<path d="M30.3,162.2c-0.1-0.3-0.3-0.4-0.6-0.4c-0.3,0.1-0.4,0.3-0.4,0.6l1,3.9c0.1,0.2,0.3,0.4,0.5,0.4h0.1
		c0.3-0.1,0.4-0.3,0.4-0.6L30.3,162.2z"/>
	<path d="M35.5,185.6l1,3.9c0.1,0.2,0.3,0.4,0.5,0.4h0.1c0.3-0.1,0.4-0.3,0.4-0.6l-1-3.9c-0.1-0.3-0.3-0.4-0.6-0.4
		C35.6,185.1,35.4,185.4,35.5,185.6z"/>
	<path d="M32.3,169.9c-0.1-0.3-0.3-0.4-0.6-0.4c-0.3,0.1-0.4,0.3-0.4,0.6l1,3.9c0.1,0.2,0.3,0.4,0.5,0.4h0.1
		c0.3-0.1,0.4-0.3,0.4-0.6L32.3,169.9z"/>
	<path d="M34.4,177.7c-0.1-0.3-0.3-0.4-0.6-0.4c-0.3,0.1-0.4,0.3-0.4,0.6l1,3.9c0.1,0.2,0.3,0.4,0.5,0.4H35
		c0.3-0.1,0.4-0.3,0.4-0.6L34.4,177.7z"/>
	<path d="M220.8,144.2L220.8,144.2c0.7-2.4,0.4-4.9-0.9-7c-1.2-2.1-3.2-3.6-5.5-4.2l-5.5-1.5c0.6-4.4,1-8.5,1-12.5
		c0-12.6-2.8-24.8-8.4-36.3c2.9-3.3,3.3-8.2,0.8-12c-16.5-25.2-44.3-40.3-74.2-40.3c-30,0-57.7,15-74.1,40.2
		c-2.5,3.8-2,8.6,0.7,11.9c-5.6,11.6-8.5,23.8-8.5,36.5c0,4,0.3,8.2,1,12.5l-5.5,1.5c-2.3,0.6-4.3,2.1-5.5,4.2s-1.5,4.6-0.9,6.9v0.1
		c-10.7,7.1-15,25-10.2,42.8c4.9,17.9,17.5,31.2,30.3,31.9v0.1c0.6,2.3,2.1,4.3,4.2,5.5c1.4,0.8,3,1.2,4.5,1.2
		c0.8,0,1.6-0.1,2.4-0.3l16.7-4.5c1.8-0.5,3.3-1.6,4.2-3.2c0.9-1.6,1.1-3.5,0.5-5.2l-0.3-1c1.4-0.4,2.6-1.3,3.3-2.6
		c0.8-1.3,1-3,0.6-4.4l-17.6-65.7c-0.4-1.5-1.3-2.8-2.7-3.6c-1.3-0.7-2.8-1-4.2-0.6l-0.3-1.2c-0.9-3.6-4.7-5.8-8.3-4.8l-4.4,1.2
		c-0.5-3.6-0.7-7.2-0.7-10.7c0-11.8,2.6-22.9,7.6-33c0.5,0.1,1.1,0.1,1.6,0.1c3.4,0,6.5-1.7,8.3-4.5c12.7-19.5,34.2-31.1,57.5-31.1
		s44.8,11.6,57.5,31.2c2,2.9,5.2,4.5,8.4,4.5c0.5,0,0.9,0,1.4-0.1c5,10.1,7.5,21.2,7.5,32.9c0,3.6-0.3,7.2-0.7,10.7l-4.4-1.2
		c-1.8-0.5-3.6-0.2-5.2,0.7c-1.6,0.9-2.7,2.4-3.2,4.1l-0.3,1.2c-1.4-0.3-2.9-0.1-4.2,0.6c-1.4,0.8-2.3,2.1-2.7,3.6l-17.6,65.7
		c-0.4,1.5-0.2,3.1,0.6,4.4c0.7,1.3,1.9,2.2,3.3,2.6l-0.3,1c-0.6,1.8-0.4,3.6,0.5,5.2s2.4,2.8,4.2,3.2l16.7,4.5
		c0.8,0.2,1.6,0.3,2.4,0.3c1.6,0,3.1-0.4,4.5-1.2c2.1-1.2,3.6-3.2,4.2-5.5v-0.1c12.8-0.7,25.4-14,30.3-31.9
		C235.8,169.1,231.5,151.2,220.8,144.2z M43.7,212.5c0-0.1,0-0.2,0-0.2l-1-3.7c-0.1-0.3-0.3-0.4-0.6-0.4c-0.3,0.1-0.4,0.3-0.4,0.6
		l0.7,2.8c-6.9-5.4-12.7-14.4-15.6-25.2c-2.9-10.7-2.3-21.5,0.9-29.6l0.5,1.7c0.1,0.2,0.3,0.4,0.5,0.4h0.1c0.3-0.1,0.4-0.3,0.4-0.6
		l-0.8-2.9c1.8-3.8,4.2-7,7.3-9.2l19,70.6C50.9,216.5,47.2,215,43.7,212.5z M70.6,136c1.1,0.7,1.9,1.7,2.2,3l17.6,65.7
		c0.3,1.2,0.2,2.6-0.5,3.7c-0.6,1-1.6,1.8-2.7,2.1l-20.1-75C68.3,135.2,69.6,135.3,70.6,136z M58.7,130.4c0.4-0.1,0.8-0.2,1.2-0.2
		c2.1,0,4.1,1.4,4.6,3.5l21.2,79.2c0.4,1.3,0.3,2.6-0.4,3.7c-0.6,1.1-1.7,1.9-2.9,2.3l-16.7,4.5c-1.8,0.5-3.7,0.3-5.4-0.7
		c-1.6-1-2.8-2.5-3.3-4.3l-20.1-74.9c-0.5-1.8-0.3-3.7,0.7-5.4c1-1.6,2.5-2.8,4.3-3.3L58.7,130.4z M52.1,118.9c0,3.6,0.3,7.3,0.8,11
		l-4.8,1.3c-0.6-4.3-0.9-8.3-0.9-12.3c0-12.4,2.8-24.4,8.3-35.8c0.5,0.4,0.9,0.8,1.5,1.2c0.9,0.6,1.8,1,2.8,1.3
		C54.7,95.9,52.1,107,52.1,118.9z M187.2,80.5c-13.1-20.1-35.2-32.1-59.1-32.1c-24,0-46.1,12-59.1,32.1c-1.5,2.2-3.9,3.5-6.7,3.5
		c-1.5,0-3-0.5-4.4-1.3c-3.7-2.4-4.7-7.4-2.3-11.1C71.7,47,98.7,32.4,128.1,32.4c29.3,0,56.4,14.7,72.6,39.3
		c2.4,3.7,1.4,8.6-2.3,11.1C194.6,85.2,189.8,84.1,187.2,80.5z M196.4,85.7c1.1-0.3,2.1-0.7,3.1-1.3c0.5-0.3,0.9-0.7,1.3-1.1
		c5.4,11.2,8.1,23.2,8.1,35.5c0,3.9-0.3,8-0.9,12.3l-4.8-1.3c0.5-3.7,0.8-7.3,0.8-11C203.9,107.1,201.4,95.9,196.4,85.7z
		 M166.1,208.3c-0.6-1.1-0.8-2.4-0.5-3.7l17.6-65.7c0.3-1.3,1.1-2.3,2.2-3c1-0.6,2.3-0.8,3.4-0.5l-20.1,75
		C167.6,210.1,166.7,209.3,166.1,208.3z M195.6,222.7c-1.7,1-3.6,1.2-5.4,0.7l-16.7-4.5l0,0c-1.2-0.3-2.3-1.1-2.9-2.3
		c-0.6-1.1-0.7-2.4-0.3-3.7l21.2-79.2c0.3-1.2,1.1-2.3,2.2-2.9c0.7-0.4,1.6-0.6,2.4-0.6c0.4,0,0.8,0.1,1.2,0.2l16.7,4.5
		c1.8,0.5,3.3,1.6,4.3,3.3c1,1.7,1.2,3.6,0.7,5.4l-20.1,74.9C198.4,220.3,197.2,221.8,195.6,222.7z M229.1,186.4
		c-2.9,10.8-8.7,19.8-15.6,25.2l0.7-2.8c0.1-0.3-0.1-0.5-0.4-0.6s-0.5,0.1-0.6,0.4l-1,3.7c0,0.1,0,0.2,0,0.2c-3.5,2.5-7.2,4-11,4.3
		l19-70.6c3,2.2,5.5,5.3,7.3,9.2l-0.8,2.9c-0.1,0.3,0.1,0.5,0.4,0.6h0.1c0.2,0,0.4-0.1,0.5-0.4l0.5-1.7
		C231.5,165,232,175.7,229.1,186.4z"/>
	<path d="M218.1,192.8c-0.3-0.1-0.5,0.1-0.6,0.4l-1,3.9c-0.1,0.3,0.1,0.5,0.4,0.6h0.1c0.2,0,0.4-0.1,0.5-0.4l1-3.9
		C218.5,193.1,218.3,192.8,218.1,192.8z"/>
	<path d="M220.1,185c-0.3-0.1-0.5,0.1-0.6,0.4l-1,3.9c-0.1,0.3,0.1,0.5,0.4,0.6h0.1c0.2,0,0.4-0.1,0.5-0.4l1-3.9
		C220.6,185.4,220.4,185.1,220.1,185z"/>
	<path d="M216,200.5c-0.3-0.1-0.5,0.1-0.6,0.4l-1,3.9c-0.1,0.3,0.1,0.5,0.4,0.6h0.1c0.2,0,0.4-0.1,0.5-0.4l1-3.9
		C216.4,200.8,216.3,200.6,216,200.5z"/>
	<path d="M224.3,169.6c-0.3-0.1-0.5,0.1-0.6,0.4l-1,3.9c-0.1,0.3,0.1,0.5,0.4,0.6h0.1c0.2,0,0.4-0.1,0.5-0.4l1-3.9
		C224.7,169.9,224.6,169.6,224.3,169.6z"/>
	<path d="M226.4,161.8c-0.3-0.1-0.5,0.1-0.6,0.4l-1,3.9c-0.1,0.3,0.1,0.5,0.4,0.6h0.1c0.2,0,0.4-0.1,0.5-0.4l1-3.9
		C226.8,162.2,226.6,161.9,226.4,161.8z"/>
	<path d="M222.2,177.3c-0.3-0.1-0.5,0.1-0.6,0.4l-1,3.9c-0.1,0.3,0.1,0.5,0.4,0.6h0.1c0.2,0,0.4-0.1,0.5-0.4l1-3.9
		C222.6,177.6,222.5,177.4,222.2,177.3z"/>
</g>
</svg>
