<?xml version="1.0" encoding="utf-8"?>
<!-- Generator: Adobe Illustrator 19.0.0, SVG Export Plug-In . SVG Version: 6.00 Build 0)  -->
<svg version="1.1" id="Camada_1" xmlns="http://www.w3.org/2000/svg" xmlns:xlink="http://www.w3.org/1999/xlink" x="0px" y="0px"
	 viewBox="0 0 256 256" style="enable-background:new 0 0 256 256;" xml:space="preserve">
<style type="text/css">
	
</style>
<g>
	<path d="M218.3,180.2l-11.9-59.7c-0.9-4.3-2.1-8.6-3.6-12.7v-0.1l0,0c-2.4-6.5-5.5-12.7-9.2-18.3l0,0l-0.3-0.4
		c-36-57.1-102.9-39-106-38l0,0c-15.8,4.3-27.7,5.4-34.8,5.6c-1.8,0-3.4,1.1-4.1,2.7c-0.7,1.7-0.3,3.7,1,5.1c1,1,2,2.1,2.9,3.2l0,0
		c2.7,11.4,0.4,22,0,23.4c-13.1,19.5-16.6,42.5-9.5,63.2c4.5,13.2,8,21.9,9.6,25.9c1.7,4.1,5.2,7.1,9.4,8.2l133.5,36
		c0.7,0.2,1.4,0.3,2.1,0.3c2.8,0,5.4-1.4,7-3.7l8.6-13C218.1,199.8,220.1,189.7,218.3,180.2z M50.1,60.1c0.4-0.9,1.2-1.5,2.3-1.5
		c7.3-0.2,19.3-1.3,35.3-5.6l0.9-0.2l0,0c7.6-2,66.9-15.6,101,34.5c-7.2-3.3-14.1-7.3-20.8-11.8c-8.5-5.6-26.3-14.9-49.8-14.2
		c-37.6,1.2-47.5,29.4-48.2,40.2c-0.3,3.8-1.2,7.2-2.8,10.3c-0.3,0.6-1,0.7-1.4,0.6c-0.2-0.1-0.9-0.3-0.9-1.3
		c0.7-11.6-0.3-33.2-15.1-48.2C49.8,62.1,49.8,60.9,50.1,60.1z M63.8,99.8c-3.4-6.2-7.6-8.4-9.5-9.1c0.6-2.6,1.9-10.4,0.6-19.4
		C60.9,80.5,63.1,91,63.8,99.8z M211.2,206.7l-8.6,13c-1.5,2.2-4.3,3.3-6.9,2.6l-133.5-36c-3.6-0.9-6.6-3.5-8-7
		c-1.6-4-5.1-12.6-9.6-25.7c-6.8-20-3.5-42.2,9-61c1.8,0.6,7.1,3.3,10.3,12.4H64c0,2.2,0,4.3-0.2,6.1c-0.1,1.5,0.8,2.9,2.3,3.3
		c0.3,0.1,0.7,0.1,1,0.1c1.2,0,2.2-0.6,2.8-1.7c1.7-3.3,2.7-7.1,3-11.1c0.6-10.3,10.1-37.3,46.2-38.4c22.9-0.7,40.3,8.4,48.6,13.8
		c7.4,5,15.2,9.3,23.1,12.9l1.1,0.5l-0.1,0.1c3.5,5.3,6.5,11.1,8.8,17.1h-1.8v1h2.2c1.4,4,2.6,8,3.4,12.2l11.9,59.7
		C218.1,189.6,216.2,199.1,211.2,206.7z"/>
	<path d="M110,123.3l1,0.1c0.2-1.3,0.5-2.5,1-3.7l-0.9-0.4C110.5,120.6,110.2,122,110,123.3z"/>
	<path d="M113,115.8l0.8,0.6c0.7-1.1,1.6-2,2.6-2.9l-0.7-0.7C114.6,113.6,113.7,114.6,113,115.8z"/>
	<path d="M118.8,140.1l-0.5,0.8c0.7,0.4,1.4,0.8,2.2,1.2c0.5,0.2,0.9,0.4,1.3,0.7l0.5-0.9c-0.5-0.3-0.9-0.5-1.4-0.8
		C120.2,140.9,119.5,140.5,118.8,140.1z"/>
	<path d="M130,159.7l-0.8,0.5c0.8,1.2,1.7,2.2,2.8,3l0.6-0.8C131.6,161.7,130.7,160.8,130,159.7z"/>
	<path d="M128.3,152.3h-1v1.6c0,0.9,0.1,1.7,0.3,2.5l1-0.2c-0.2-0.8-0.3-1.5-0.3-2.3V152.3z"/>
	<path d="M125.5,144.7l-0.8,0.7c0.8,1,1.5,2.1,1.9,3.3l0.9-0.3C127.1,147,126.4,145.7,125.5,144.7z"/>
	<path d="M112.5,135.2c0.7,1.2,1.6,2.2,2.5,3.2l0.7-0.7c-0.9-0.9-1.7-1.9-2.4-3L112.5,135.2z"/>
	<rect x="166.8" y="107.7" width="4" height="1"/>
	<rect x="134.8" y="107.7" width="4" height="1"/>
	<rect x="182.8" y="107.7" width="4" height="1"/>
	<path d="M128.6,108.7h2.2v-1h-2.2c-0.6,0-1.2,0-1.8,0.1l0.1,1C127.4,108.7,128,108.7,128.6,108.7z"/>
	<path d="M123,109.6l-0.3-1c-1.3,0.4-2.6,1-3.7,1.7l0.5,0.9C120.6,110.5,121.8,110,123,109.6z"/>
	<path d="M109.9,127.5c0.1,1.4,0.4,2.7,0.9,4l0.9-0.3c-0.4-1.2-0.7-2.5-0.8-3.8L109.9,127.5z"/>
	<rect x="174.8" y="107.7" width="4" height="1"/>
	<rect x="190.8" y="107.7" width="4" height="1"/>
	<rect x="166.6" y="173.5" transform="matrix(0.9624 0.2715 -0.2715 0.9624 53.5637 -39.2316)" width="4" height="1"/>
	<rect x="182" y="177.7" transform="matrix(0.9624 0.2717 -0.2717 0.9624 55.3427 -43.2776)" width="4" height="1"/>
	<rect x="174.3" y="175.6" transform="matrix(0.9624 0.2717 -0.2717 0.9624 54.4695 -41.2647)" width="4" height="1"/>
	<rect x="189.6" y="180" transform="matrix(0.9624 0.2717 -0.2717 0.9624 56.241 -45.2799)" width="4" height="1"/>
	<rect x="197.3" y="182.1" transform="matrix(0.9624 0.2717 -0.2717 0.9624 57.1141 -47.2928)" width="4" height="1"/>
	<rect x="212.8" y="186.4" transform="matrix(0.9624 0.2717 -0.2717 0.9624 58.8602 -51.3184)" width="4" height="1"/>
	<rect x="205.1" y="184.3" transform="matrix(0.9624 0.2717 -0.2717 0.9624 57.9872 -49.3056)" width="4" height="1"/>
	<polygon points="135.9,164.7 135.8,165.2 139.6,166.3 139.8,165.3 136,164.2 	"/>
	<rect x="142.8" y="107.7" width="4" height="1"/>
	<rect x="150.8" y="107.7" width="4" height="1"/>
	<rect x="143.5" y="166.9" transform="matrix(0.9624 0.2715 -0.2715 0.9624 50.9217 -33.2076)" width="4" height="1"/>
	<rect x="151.2" y="169.1" transform="matrix(0.9624 0.2715 -0.2715 0.9624 51.794 -35.2192)" width="4" height="1"/>
	<rect x="158.9" y="171.2" transform="matrix(0.9624 0.2715 -0.2715 0.9624 52.6663 -37.2309)" width="4" height="1"/>
	<rect x="158.8" y="107.7" width="4" height="1"/>
	<path d="M129,118.1c-4.1,0-7.5,3.4-7.5,7.5s3.4,7.5,7.5,7.5c4.1,0,7.5-3.4,7.5-7.5S133.1,118.1,129,118.1z M129,132.1
		c-3.6,0-6.5-2.9-6.5-6.5s2.9-6.5,6.5-6.5c3.6,0,6.5,2.9,6.5,6.5S132.6,132.1,129,132.1z"/>
	<path d="M185.1,119.7l-24.6,43.1c-0.1,0.2-0.1,0.5,0.2,0.7c0.1,0,0.2,0.1,0.2,0.1c0.2,0,0.3-0.1,0.4-0.3l24.6-43.1
		c0.1-0.2,0.1-0.5-0.2-0.7C185.5,119.3,185.2,119.4,185.1,119.7z"/>
	<path d="M193.2,133.5c-0.2-0.1-0.5-0.1-0.7,0.2l-14,24.6c-0.1,0.2-0.1,0.5,0.2,0.7c0.1,0,0.2,0.1,0.2,0.1
		c0.2,0,0.3-0.1,0.4-0.3l14-24.6C193.6,133.9,193.5,133.6,193.2,133.5z"/>
</g>
</svg>
