<?xml version="1.0" encoding="utf-8"?>
<!-- Generator: Adobe Illustrator 19.0.0, SVG Export Plug-In . SVG Version: 6.00 Build 0)  -->
<svg version="1.1" id="Camada_1" xmlns="http://www.w3.org/2000/svg" xmlns:xlink="http://www.w3.org/1999/xlink" x="0px" y="0px"
	 viewBox="0 0 256 256" style="enable-background:new 0 0 256 256;" xml:space="preserve">
<style type="text/css">
	
</style>
<path d="M183.6,57c-19-45.3-51.9-45.1-69.6-45h-0.3c-1.5,0-2.9,0.7-3.8,1.9c-1.9,2.5-4.6,5-10.6,5
	c-6.1,0-9.7-3.9-11.3-6.3c-0.7-1-1.9-1.6-3.1-1.6h-9.2c-2.1,0-3.8,1.7-3.8,3.8v25c0,2,1.7,3.8,3.7,3.9l9.3-0.1
	c1.4-0.1,2.5-0.9,3.2-2c2.7-5.1,6.4-7.2,10.7-6.4c7.5,1.4,10,12.6,10.8,17.4c0.3,1.8,1.8,3,3.6,3h1.3v49.7c0,1.1-0.1,2.1-0.2,3.2
	l-3.8,42.4v0.3c-0.1,1.1-0.2,2.2-0.2,3.3v76.3c0,7.9,6.5,14.4,14.4,14.4s14.4-6.5,14.4-14.4V154c0-1,0-2.2-0.1-3.2l-3.4-42.2
	c-0.1-1-0.1-2-0.1-3V55.7h0.5c1.9,0,3.5-1.5,3.6-3.5c0.2-3.9,1.2-12.9,6.6-12.9c7.5,0,21.5,11.8,31.3,21.9c0.7,0.8,1.6,1.2,2.6,1.2
	c0.8,0,1.6-0.2,2.2-0.7C183.8,60.4,184.3,58.6,183.6,57z M137.1,150.9c0.1,1,0.1,2,0.1,3v7l-24.8,24.9v-21l23.9-23.9L137.1,150.9z
	 M137.2,205.6l-24.8,24.8v-20.9l24.8-24.8V205.6z M137.2,183.3l-24.8,24.8v-20.9l24.8-24.9V183.3z M124.8,243.1
	c-6.5,0-11.8-5-12.3-11.3l24.7-24.7v23.7C137.2,237.5,131.6,243.1,124.8,243.1z M133.7,108.7l2.5,30.9l-23.8,23.8v-9
	c0-1.1,0.1-2.1,0.2-3.2l3.8-42.4v-0.3c0.1-1.1,0.2-2.2,0.2-3.3V55.5h17v49.9C133.6,106.5,133.6,107.7,133.7,108.7z M181.2,59.9
	c-0.7,0.5-1.6,0.4-2.2-0.2c-5.1-5.3-22.5-22.5-32.7-22.5c-5.1,0-8.2,5.4-8.6,14.8c-0.1,0.9-0.8,1.6-1.6,1.6h-22.8
	c-0.8,0-1.5-0.6-1.6-1.4c-0.8-5.2-3.7-17.4-12.4-19c-3.7-0.7-8.9,0.1-12.9,7.4c-0.4,0.8-1.2,0.9-1.5,1l-9.1,0.1
	c-0.9-0.1-1.8-1-1.8-1.9v-25c0-1,0.8-1.8,1.8-1.8H85c0.2,0,0.3,0,0.5,0.1v3.1h1v-2.4c1.8,2.7,5.9,7.1,12.9,7.1
	c6.9,0,10.1-3.1,12.2-5.8c0.5-0.7,1.4-1.1,2.2-1.1h0.3c18.4-0.1,49.3-0.3,67.7,43.8C182.1,58.5,181.9,59.4,181.2,59.9z M85.5,20.2h1
	v4h-1V20.2z M85.5,36.2h1v4h-1V36.2z M85.5,28.2h1v4h-1V28.2z"/>
</svg>
