<?xml version="1.0" encoding="utf-8"?>
<!-- Generator: Adobe Illustrator 19.0.0, SVG Export Plug-In . SVG Version: 6.00 Build 0)  -->
<svg version="1.1" id="Camada_1" xmlns="http://www.w3.org/2000/svg" xmlns:xlink="http://www.w3.org/1999/xlink" x="0px" y="0px"
	 viewBox="0 0 256 256" style="enable-background:new 0 0 256 256;" xml:space="preserve">
<style type="text/css">
	
</style>
<path d="M215.4,144.9l-23.8-20.8c-13.5-11.8-33.8-11.8-47.4-0.1l-35.1,30.4c-13-10.5-31.8-10.7-44.9-0.3l-23.9,18.8
	c-0.2,0.2-0.3,0.5-0.1,0.7c0.1,0.1,0.2,0.2,0.4,0.2c0.1,0,0.2,0,0.3-0.1l23.9-18.8c12.9-10.1,31.4-9.9,44,0.6l0,0l0,0l35.6,29.2
	c0.1,0.1,0.2,0.1,0.3,0.1c0.1,0,0.3-0.1,0.4-0.2c0.2-0.2,0.1-0.5-0.1-0.7l-35-28.8l35-30.3c13.1-11.4,32.9-11.3,46,0.1l23.8,20.8
	c0.2,0.2,0.5,0.2,0.7,0C215.7,145.4,215.6,145.1,215.4,144.9z M92.5,104.3c0-9.4-7.6-17-17-17s-17,7.6-17,17s7.6,17,17,17
	S92.5,113.7,92.5,104.3z M75.5,119.3c-8.3,0-15-6.7-15-15s6.7-15,15-15s15,6.7,15,15S83.8,119.3,75.5,119.3z M75.5,82.8
	c0.3,0,0.5-0.2,0.5-0.5v-9.8c0-0.3-0.2-0.5-0.5-0.5S75,72.2,75,72.5v9.8C75,82.6,75.2,82.8,75.5,82.8z M75,126.5v9.8
	c0,0.3,0.2,0.5,0.5,0.5s0.5-0.2,0.5-0.5v-9.8c0-0.3-0.2-0.5-0.5-0.5S75,126.2,75,126.5z M91.1,89.3c0.1,0,0.3,0,0.4-0.1l7-7
	c0.2-0.2,0.2-0.5,0-0.7s-0.5-0.2-0.7,0l-7,7c-0.2,0.2-0.2,0.5,0,0.7C90.8,89.3,91,89.3,91.1,89.3z M59.5,119.6l-7,7
	c-0.2,0.2-0.2,0.5,0,0.7c0.1,0.1,0.2,0.1,0.4,0.1s0.3,0,0.4-0.1l7-7c0.2-0.2,0.2-0.5,0-0.7S59.7,119.5,59.5,119.6z M97.1,104.4
	c0,0.3,0.2,0.5,0.5,0.5h9.8c0.3,0,0.5-0.2,0.5-0.5s-0.2-0.5-0.5-0.5h-9.8C97.3,103.9,97.1,104.1,97.1,104.4z M43.6,104.9h9.8
	c0.3,0,0.5-0.2,0.5-0.5s-0.2-0.5-0.5-0.5h-9.8c-0.3,0-0.5,0.2-0.5,0.5S43.3,104.9,43.6,104.9z M97.7,127.4c0.1,0.1,0.2,0.1,0.4,0.1
	s0.3,0,0.4-0.1c0.2-0.2,0.2-0.5,0-0.7l-7-7c-0.2-0.2-0.5-0.2-0.7,0s-0.2,0.5,0,0.7L97.7,127.4z M60.3,89.2c0.2-0.2,0.2-0.5,0-0.7
	l-7-7c-0.2-0.2-0.5-0.2-0.7,0s-0.2,0.5,0,0.7l7,7c0.1,0.1,0.2,0.1,0.4,0.1S60.2,89.3,60.3,89.2z M229.9,47h-204c-5,0-9,4-9,9v144
	c0,5,4,9,9,9h204c5,0,9-4,9-9V56C238.9,51,234.9,47,229.9,47z M236.9,200c0,3.9-3.1,7-7,7h-204c-3.9,0-7-3.1-7-7V56c0-3.9,3.1-7,7-7
	h204c3.9,0,7,3.1,7,7C236.9,56,236.9,200,236.9,200z M27.9,67.6c0.3,0,0.5-0.2,0.5-0.5v-4c0-0.3-0.2-0.5-0.5-0.5s-0.5,0.2-0.5,0.5v4
	C27.4,67.4,27.6,67.6,27.9,67.6z M52.5,58.5h4c0.3,0,0.5-0.2,0.5-0.5s-0.2-0.5-0.5-0.5h-4c-0.3,0-0.5,0.2-0.5,0.5
	S52.2,58.5,52.5,58.5z M44.5,58.5h4c0.3,0,0.5-0.2,0.5-0.5s-0.2-0.5-0.5-0.5h-4c-0.3,0-0.5,0.2-0.5,0.5S44.2,58.5,44.5,58.5z
	 M27.9,75.6c0.3,0,0.5-0.2,0.5-0.5v-4c0-0.3-0.2-0.5-0.5-0.5s-0.5,0.2-0.5,0.5v4C27.4,75.4,27.6,75.6,27.9,75.6z M27.9,147.6
	c0.3,0,0.5-0.2,0.5-0.5v-4c0-0.3-0.2-0.5-0.5-0.5s-0.5,0.2-0.5,0.5v4C27.4,147.4,27.6,147.6,27.9,147.6z M27.9,139.6
	c0.3,0,0.5-0.2,0.5-0.5v-4c0-0.3-0.2-0.5-0.5-0.5s-0.5,0.2-0.5,0.5v4C27.4,139.4,27.6,139.6,27.9,139.6z M27.9,155.6
	c0.3,0,0.5-0.2,0.5-0.5v-4c0-0.3-0.2-0.5-0.5-0.5s-0.5,0.2-0.5,0.5v4C27.4,155.4,27.6,155.6,27.9,155.6z M27.9,171.6
	c0.3,0,0.5-0.2,0.5-0.5v-4c0-0.3-0.2-0.5-0.5-0.5s-0.5,0.2-0.5,0.5v4C27.4,171.4,27.6,171.6,27.9,171.6z M27.9,163.6
	c0.3,0,0.5-0.2,0.5-0.5v-4c0-0.3-0.2-0.5-0.5-0.5s-0.5,0.2-0.5,0.5v4C27.4,163.4,27.6,163.6,27.9,163.6z M27.9,131.6
	c0.3,0,0.5-0.2,0.5-0.5v-4c0-0.3-0.2-0.5-0.5-0.5s-0.5,0.2-0.5,0.5v4C27.4,131.4,27.6,131.6,27.9,131.6z M27.9,99.6
	c0.3,0,0.5-0.2,0.5-0.5v-4c0-0.3-0.2-0.5-0.5-0.5s-0.5,0.2-0.5,0.5v4C27.4,99.4,27.6,99.6,27.9,99.6z M27.9,107.6
	c0.3,0,0.5-0.2,0.5-0.5v-4c0-0.3-0.2-0.5-0.5-0.5s-0.5,0.2-0.5,0.5v4C27.4,107.4,27.6,107.6,27.9,107.6z M27.9,83.6
	c0.3,0,0.5-0.2,0.5-0.5v-4c0-0.3-0.2-0.5-0.5-0.5s-0.5,0.2-0.5,0.5v4C27.4,83.4,27.6,83.6,27.9,83.6z M60.5,58.5h4
	c0.3,0,0.5-0.2,0.5-0.5s-0.2-0.5-0.5-0.5h-4c-0.3,0-0.5,0.2-0.5,0.5S60.2,58.5,60.5,58.5z M27.9,91.6c0.3,0,0.5-0.2,0.5-0.5v-4
	c0-0.3-0.2-0.5-0.5-0.5s-0.5,0.2-0.5,0.5v4C27.4,91.4,27.6,91.6,27.9,91.6z M27.9,115.6c0.3,0,0.5-0.2,0.5-0.5v-4
	c0-0.3-0.2-0.5-0.5-0.5s-0.5,0.2-0.5,0.5v4C27.4,115.4,27.6,115.6,27.9,115.6z M27.9,123.6c0.3,0,0.5-0.2,0.5-0.5v-4
	c0-0.3-0.2-0.5-0.5-0.5s-0.5,0.2-0.5,0.5v4C27.4,123.4,27.6,123.6,27.9,123.6z M188.5,58.5h4c0.3,0,0.5-0.2,0.5-0.5
	s-0.2-0.5-0.5-0.5h-4c-0.3,0-0.5,0.2-0.5,0.5S188.2,58.5,188.5,58.5z M172.5,58.5h4c0.3,0,0.5-0.2,0.5-0.5s-0.2-0.5-0.5-0.5h-4
	c-0.3,0-0.5,0.2-0.5,0.5S172.2,58.5,172.5,58.5z M180.5,58.5h4c0.3,0,0.5-0.2,0.5-0.5s-0.2-0.5-0.5-0.5h-4c-0.3,0-0.5,0.2-0.5,0.5
	S180.2,58.5,180.5,58.5z M156.5,58.5h4c0.3,0,0.5-0.2,0.5-0.5s-0.2-0.5-0.5-0.5h-4c-0.3,0-0.5,0.2-0.5,0.5S156.2,58.5,156.5,58.5z
	 M148.5,58.5h4c0.3,0,0.5-0.2,0.5-0.5s-0.2-0.5-0.5-0.5h-4c-0.3,0-0.5,0.2-0.5,0.5S148.2,58.5,148.5,58.5z M196.5,58.5h4
	c0.3,0,0.5-0.2,0.5-0.5s-0.2-0.5-0.5-0.5h-4c-0.3,0-0.5,0.2-0.5,0.5S196.2,58.5,196.5,58.5z M212.5,58.5h4c0.3,0,0.5-0.2,0.5-0.5
	s-0.2-0.5-0.5-0.5h-4c-0.3,0-0.5,0.2-0.5,0.5S212.2,58.5,212.5,58.5z M204.5,58.5h4c0.3,0,0.5-0.2,0.5-0.5s-0.2-0.5-0.5-0.5h-4
	c-0.3,0-0.5,0.2-0.5,0.5S204.2,58.5,204.5,58.5z M27.9,179.6c0.3,0,0.5-0.2,0.5-0.5v-4c0-0.3-0.2-0.5-0.5-0.5s-0.5,0.2-0.5,0.5v4
	C27.4,179.4,27.6,179.6,27.9,179.6z M140.5,58.5h4c0.3,0,0.5-0.2,0.5-0.5s-0.2-0.5-0.5-0.5h-4c-0.3,0-0.5,0.2-0.5,0.5
	S140.2,58.5,140.5,58.5z M92.5,58.5h4c0.3,0,0.5-0.2,0.5-0.5s-0.2-0.5-0.5-0.5h-4c-0.3,0-0.5,0.2-0.5,0.5S92.2,58.5,92.5,58.5z
	 M84.5,58.5h4c0.3,0,0.5-0.2,0.5-0.5s-0.2-0.5-0.5-0.5h-4c-0.3,0-0.5,0.2-0.5,0.5S84.2,58.5,84.5,58.5z M68.5,58.5h4
	c0.3,0,0.5-0.2,0.5-0.5s-0.2-0.5-0.5-0.5h-4c-0.3,0-0.5,0.2-0.5,0.5S68.2,58.5,68.5,58.5z M76.5,58.5h4c0.3,0,0.5-0.2,0.5-0.5
	s-0.2-0.5-0.5-0.5h-4c-0.3,0-0.5,0.2-0.5,0.5S76.2,58.5,76.5,58.5z M100.5,58.5h4c0.3,0,0.5-0.2,0.5-0.5s-0.2-0.5-0.5-0.5h-4
	c-0.3,0-0.5,0.2-0.5,0.5S100.2,58.5,100.5,58.5z M132.5,58.5h4c0.3,0,0.5-0.2,0.5-0.5s-0.2-0.5-0.5-0.5h-4c-0.3,0-0.5,0.2-0.5,0.5
	S132.2,58.5,132.5,58.5z M108.5,58.5h4c0.3,0,0.5-0.2,0.5-0.5s-0.2-0.5-0.5-0.5h-4c-0.3,0-0.5,0.2-0.5,0.5S108.2,58.5,108.5,58.5z
	 M124.5,58.5h4c0.3,0,0.5-0.2,0.5-0.5s-0.2-0.5-0.5-0.5h-4c-0.3,0-0.5,0.2-0.5,0.5S124.2,58.5,124.5,58.5z M116.5,58.5h4
	c0.3,0,0.5-0.2,0.5-0.5s-0.2-0.5-0.5-0.5h-4c-0.3,0-0.5,0.2-0.5,0.5S116.2,58.5,116.5,58.5z M164.5,58.5h4c0.3,0,0.5-0.2,0.5-0.5
	s-0.2-0.5-0.5-0.5h-4c-0.3,0-0.5,0.2-0.5,0.5S164.2,58.5,164.5,58.5z M227.9,171.8c-0.3,0-0.5,0.2-0.5,0.5v4c0,0.3,0.2,0.5,0.5,0.5
	c0.3,0,0.5-0.2,0.5-0.5v-4C228.4,172,228.2,171.8,227.9,171.8z M227.9,179.8c-0.3,0-0.5,0.2-0.5,0.5v4c0,0.3,0.2,0.5,0.5,0.5
	c0.3,0,0.5-0.2,0.5-0.5v-4C228.4,180,228.2,179.8,227.9,179.8z M227.9,163.8c-0.3,0-0.5,0.2-0.5,0.5v4c0,0.3,0.2,0.5,0.5,0.5
	c0.3,0,0.5-0.2,0.5-0.5v-4C228.4,164,228.2,163.8,227.9,163.8z M227.9,155.8c-0.3,0-0.5,0.2-0.5,0.5v4c0,0.3,0.2,0.5,0.5,0.5
	c0.3,0,0.5-0.2,0.5-0.5v-4C228.4,156,228.2,155.8,227.9,155.8z M227.9,187.8c-0.3,0-0.5,0.2-0.5,0.5v4c0,0.3,0.2,0.5,0.5,0.5
	c0.3,0,0.5-0.2,0.5-0.5v-4C228.4,188,228.2,187.8,227.9,187.8z M203.9,197.5h-4c-0.3,0-0.5,0.2-0.5,0.5s0.2,0.5,0.5,0.5h4
	c0.3,0,0.5-0.2,0.5-0.5S204.2,197.5,203.9,197.5z M227.9,147.8c-0.3,0-0.5,0.2-0.5,0.5v4c0,0.3,0.2,0.5,0.5,0.5
	c0.3,0,0.5-0.2,0.5-0.5v-4C228.4,148,228.2,147.8,227.9,147.8z M211.9,197.5h-4c-0.3,0-0.5,0.2-0.5,0.5s0.2,0.5,0.5,0.5h4
	c0.3,0,0.5-0.2,0.5-0.5S212.2,197.5,211.9,197.5z M219.9,197.5h-4c-0.3,0-0.5,0.2-0.5,0.5s0.2,0.5,0.5,0.5h4c0.3,0,0.5-0.2,0.5-0.5
	S220.2,197.5,219.9,197.5z M224.4,58.5L224.4,58.5c0.3,0,0.5-0.2,0.6-0.4c0,0,0,0,0-0.1c0-0.2-0.2-0.5-0.4-0.5c-0.2,0-0.4,0-0.6,0
	h-3.4c-0.3,0-0.5,0.2-0.5,0.5s0.2,0.5,0.5,0.5h3.4C224.1,58.5,224.2,58.5,224.4,58.5z M195.9,197.5h-4c-0.3,0-0.5,0.2-0.5,0.5
	s0.2,0.5,0.5,0.5h4c0.3,0,0.5-0.2,0.5-0.5S196.2,197.5,195.9,197.5z M227.5,195.7c-0.2-0.2-0.5-0.1-0.7,0.1c-0.7,1-1.8,1.6-2.9,1.6
	c-0.3,0-0.5,0.2-0.5,0.5s0.2,0.5,0.5,0.5c1.5,0,3-0.8,3.8-2.1c0.1-0.1,0.1-0.3,0.1-0.4S227.6,195.8,227.5,195.7z M227.9,75.8
	c-0.3,0-0.5,0.2-0.5,0.5v4c0,0.3,0.2,0.5,0.5,0.5c0.3,0,0.5-0.2,0.5-0.5v-4C228.4,76,228.2,75.8,227.9,75.8z M227.9,139.8
	c-0.3,0-0.5,0.2-0.5,0.5v4c0,0.3,0.2,0.5,0.5,0.5c0.3,0,0.5-0.2,0.5-0.5v-4C228.4,140,228.2,139.8,227.9,139.8z M227.9,67.8
	c-0.3,0-0.5,0.2-0.5,0.5v4c0,0.3,0.2,0.5,0.5,0.5c0.3,0,0.5-0.2,0.5-0.5v-4C228.4,68,228.2,67.8,227.9,67.8z M227.3,59.9
	c-0.1,0.1-0.2,0.2-0.3,0.3c0,0.1,0,0.3,0,0.4c0.2,0.5,0.3,1,0.3,1.5v2.3c0,0.3,0.2,0.5,0.5,0.5s0.5-0.2,0.5-0.5l0,0V62
	c0-0.7-0.1-1.3-0.4-1.9C227.9,59.9,227.6,59.8,227.3,59.9z M227.9,91.8c-0.3,0-0.5,0.2-0.5,0.5v4c0,0.3,0.2,0.5,0.5,0.5
	c0.3,0,0.5-0.2,0.5-0.5v-4C228.4,92,228.2,91.8,227.9,91.8z M227.9,83.8c-0.3,0-0.5,0.2-0.5,0.5v4c0,0.3,0.2,0.5,0.5,0.5
	c0.3,0,0.5-0.2,0.5-0.5v-4C228.4,84,228.2,83.8,227.9,83.8z M227.9,131.8c-0.3,0-0.5,0.2-0.5,0.5v4c0,0.3,0.2,0.5,0.5,0.5
	c0.3,0,0.5-0.2,0.5-0.5v-4C228.4,132,228.2,131.8,227.9,131.8z M227.9,123.8c-0.3,0-0.5,0.2-0.5,0.5v4c0,0.3,0.2,0.5,0.5,0.5
	c0.3,0,0.5-0.2,0.5-0.5v-4C228.4,124,228.2,123.8,227.9,123.8z M227.9,115.8c-0.3,0-0.5,0.2-0.5,0.5v4c0,0.3,0.2,0.5,0.5,0.5
	c0.3,0,0.5-0.2,0.5-0.5v-4C228.4,116,228.2,115.8,227.9,115.8z M227.9,99.8c-0.3,0-0.5,0.2-0.5,0.5v4c0,0.3,0.2,0.5,0.5,0.5
	c0.3,0,0.5-0.2,0.5-0.5v-4C228.4,100,228.2,99.8,227.9,99.8z M227.9,107.8c-0.3,0-0.5,0.2-0.5,0.5v4c0,0.3,0.2,0.5,0.5,0.5
	c0.3,0,0.5-0.2,0.5-0.5v-4C228.4,108,228.2,107.8,227.9,107.8z M123.9,197.5h-4c-0.3,0-0.5,0.2-0.5,0.5s0.2,0.5,0.5,0.5h4
	c0.3,0,0.5-0.2,0.5-0.5S124.2,197.5,123.9,197.5z M91.9,197.5h-4c-0.3,0-0.5,0.2-0.5,0.5s0.2,0.5,0.5,0.5h4c0.3,0,0.5-0.2,0.5-0.5
	S92.2,197.5,91.9,197.5z M59.9,197.5h-4c-0.3,0-0.5,0.2-0.5,0.5s0.2,0.5,0.5,0.5h4c0.3,0,0.5-0.2,0.5-0.5S60.2,197.5,59.9,197.5z
	 M67.9,197.5h-4c-0.3,0-0.5,0.2-0.5,0.5s0.2,0.5,0.5,0.5h4c0.3,0,0.5-0.2,0.5-0.5S68.2,197.5,67.9,197.5z M75.9,197.5h-4
	c-0.3,0-0.5,0.2-0.5,0.5s0.2,0.5,0.5,0.5h4c0.3,0,0.5-0.2,0.5-0.5S76.2,197.5,75.9,197.5z M83.9,197.5h-4c-0.3,0-0.5,0.2-0.5,0.5
	s0.2,0.5,0.5,0.5h4c0.3,0,0.5-0.2,0.5-0.5S84.2,197.5,83.9,197.5z M51.9,197.5h-4c-0.3,0-0.5,0.2-0.5,0.5s0.2,0.5,0.5,0.5h4
	c0.3,0,0.5-0.2,0.5-0.5C52.4,197.7,52.2,197.5,51.9,197.5z M28.4,194v-2.9c0-0.3-0.2-0.5-0.5-0.5s-0.5,0.2-0.5,0.5v2.9
	c0,0.4,0.1,0.9,0.2,1.3c0.1,0.2,0.3,0.4,0.5,0.4h0.1c0.3-0.1,0.4-0.4,0.3-0.6C28.4,194.7,28.4,194.3,28.4,194z M32.5,58.5
	c0.3,0,0.5-0.2,0.5-0.5s-0.2-0.5-0.5-0.5h-0.6c-1.3,0-2.6,0.6-3.4,1.6c-0.2,0.2-0.2,0.5,0,0.7c0.1,0.1,0.2,0.1,0.3,0.1
	c0.2,0,0.3-0.1,0.4-0.2c0.7-0.8,1.6-1.2,2.6-1.2H32.5z M43.9,197.5h-4c-0.3,0-0.5,0.2-0.5,0.5s0.2,0.5,0.5,0.5h4
	c0.3,0,0.5-0.2,0.5-0.5S44.2,197.5,43.9,197.5z M35.9,197.5h-4c-0.3,0-0.7,0-1-0.1s-0.5,0.1-0.6,0.3v0.1c0,0.2,0.1,0.4,0.4,0.5
	c0.4,0.1,0.8,0.2,1.3,0.2h4c0.3,0,0.5-0.2,0.5-0.5C36.4,197.7,36.2,197.5,35.9,197.5z M41,58c0-0.3-0.2-0.5-0.5-0.5h-4
	c-0.3,0-0.5,0.2-0.5,0.5s0.2,0.5,0.5,0.5h4C40.7,58.5,41,58.3,41,58z M163.9,197.5h-4c-0.3,0-0.5,0.2-0.5,0.5s0.2,0.5,0.5,0.5h4
	c0.3,0,0.5-0.2,0.5-0.5S164.2,197.5,163.9,197.5z M147.9,197.5h-4c-0.3,0-0.5,0.2-0.5,0.5s0.2,0.5,0.5,0.5h4c0.3,0,0.5-0.2,0.5-0.5
	S148.2,197.5,147.9,197.5z M187.9,197.5h-4c-0.3,0-0.5,0.2-0.5,0.5s0.2,0.5,0.5,0.5h4c0.3,0,0.5-0.2,0.5-0.5
	S188.2,197.5,187.9,197.5z M155.9,197.5h-4c-0.3,0-0.5,0.2-0.5,0.5s0.2,0.5,0.5,0.5h4c0.3,0,0.5-0.2,0.5-0.5
	S156.2,197.5,155.9,197.5z M179.9,197.5h-4c-0.3,0-0.5,0.2-0.5,0.5s0.2,0.5,0.5,0.5h4c0.3,0,0.5-0.2,0.5-0.5
	S180.2,197.5,179.9,197.5z M99.9,197.5h-4c-0.3,0-0.5,0.2-0.5,0.5s0.2,0.5,0.5,0.5h4c0.3,0,0.5-0.2,0.5-0.5S100.2,197.5,99.9,197.5z
	 M171.9,197.5h-4c-0.3,0-0.5,0.2-0.5,0.5s0.2,0.5,0.5,0.5h4c0.3,0,0.5-0.2,0.5-0.5S172.2,197.5,171.9,197.5z M115.9,197.5h-4
	c-0.3,0-0.5,0.2-0.5,0.5s0.2,0.5,0.5,0.5h4c0.3,0,0.5-0.2,0.5-0.5S116.2,197.5,115.9,197.5z M107.9,197.5h-4c-0.3,0-0.5,0.2-0.5,0.5
	s0.2,0.5,0.5,0.5h4c0.3,0,0.5-0.2,0.5-0.5S108.2,197.5,107.9,197.5z M27.9,187.6c0.3,0,0.5-0.2,0.5-0.5v-4c0-0.3-0.2-0.5-0.5-0.5
	s-0.5,0.2-0.5,0.5v4C27.4,187.4,27.6,187.6,27.9,187.6z M131.9,197.5h-4c-0.3,0-0.5,0.2-0.5,0.5s0.2,0.5,0.5,0.5h4
	c0.3,0,0.5-0.2,0.5-0.5S132.2,197.5,131.9,197.5z M139.9,197.5h-4c-0.3,0-0.5,0.2-0.5,0.5s0.2,0.5,0.5,0.5h4c0.3,0,0.5-0.2,0.5-0.5
	S140.2,197.5,139.9,197.5z"/>
</svg>
