<?xml version="1.0" encoding="utf-8"?>
<!-- Generator: Adobe Illustrator 19.0.0, SVG Export Plug-In . SVG Version: 6.00 Build 0)  -->
<svg version="1.1" id="Camada_1" xmlns="http://www.w3.org/2000/svg" xmlns:xlink="http://www.w3.org/1999/xlink" x="0px" y="0px"
	 viewBox="0 0 256 256" style="enable-background:new 0 0 256 256;" xml:space="preserve">
<style type="text/css">
	
</style>
<path d="M252.1,182c-0.7-0.8-1.8-1.3-3-1.3h-18.8V63.9c0-4.8-3.9-8.7-8.7-8.7h-187c-4.8,0-8.7,3.9-8.7,8.7v116.8h-19
	c-2.3,0-4.1,1.8-4.1,4.1v5.8c0,5.6,4.6,10.2,10.2,10.2h229.8c5.6,0,10.2-4.6,10.2-10.2v-5.7C253.1,183.8,252.8,182.8,252.1,182z
	 M27.9,63.9c0-3.7,3-6.7,6.7-6.7h187c3.7,0,6.7,3,6.7,6.7v116.8h-68.4c-2.1,0-3.8,1.7-3.8,3.8c0,2-1.5,3.5-3.5,3.5h-49.2
	c-2,0-3.5-1.5-3.5-3.5c0-2.1-1.7-3.8-3.8-3.8H27.9V63.9z M251,184.7v5.9c0,4.5-3.7,8.2-8.2,8.2H13c-4.5,0-8.2-3.7-8.2-8.2v-5.8
	c0-1.1,1-2.1,2.1-2.1h89.2c1,0,1.8,0.8,1.8,1.8c0,3,2.5,5.5,5.5,5.5h49.2c3,0,5.5-2.5,5.5-5.5c0-1,0.8-1.8,1.8-1.8h89.2
	c0.6,0,1.1,0.2,1.5,0.7C250.9,183.7,251.1,184.2,251,184.7z M166.8,64.4h4c0.3,0,0.5-0.2,0.5-0.5s-0.2-0.5-0.5-0.5h-4
	c-0.3,0-0.5,0.2-0.5,0.5S166.5,64.4,166.8,64.4z M150.8,64.4h4c0.3,0,0.5-0.2,0.5-0.5s-0.2-0.5-0.5-0.5h-4c-0.3,0-0.5,0.2-0.5,0.5
	S150.5,64.4,150.8,64.4z M158.8,64.4h4c0.3,0,0.5-0.2,0.5-0.5s-0.2-0.5-0.5-0.5h-4c-0.3,0-0.5,0.2-0.5,0.5S158.5,64.4,158.8,64.4z
	 M213,176.1h4c0.3,0,0.5-0.2,0.5-0.5s-0.2-0.5-0.5-0.5h-4c-0.3,0-0.5,0.2-0.5,0.5S212.7,176.1,213,176.1z M214.8,64.4h4
	c0.3,0,0.6,0.1,0.9,0.2c0.1,0,0.1,0,0.2,0c0.2,0,0.4-0.1,0.5-0.3c0.1-0.3,0-0.5-0.3-0.6c-0.4-0.1-0.8-0.2-1.2-0.2h-4
	c-0.3,0-0.5,0.2-0.5,0.5S214.5,64.4,214.8,64.4z M190.8,64.4h4c0.3,0,0.5-0.2,0.5-0.5s-0.2-0.5-0.5-0.5h-4c-0.3,0-0.5,0.2-0.5,0.5
	S190.5,64.4,190.8,64.4z M206.8,64.4h4c0.3,0,0.5-0.2,0.5-0.5s-0.2-0.5-0.5-0.5h-4c-0.3,0-0.5,0.2-0.5,0.5S206.5,64.4,206.8,64.4z
	 M198.8,64.4h4c0.3,0,0.5-0.2,0.5-0.5s-0.2-0.5-0.5-0.5h-4c-0.3,0-0.5,0.2-0.5,0.5S198.5,64.4,198.8,64.4z M182.8,64.4h4
	c0.3,0,0.5-0.2,0.5-0.5s-0.2-0.5-0.5-0.5h-4c-0.3,0-0.5,0.2-0.5,0.5S182.5,64.4,182.8,64.4z M174.8,64.4h4c0.3,0,0.5-0.2,0.5-0.5
	s-0.2-0.5-0.5-0.5h-4c-0.3,0-0.5,0.2-0.5,0.5S174.5,64.4,174.8,64.4z M149,176.1h4c0.3,0,0.5-0.2,0.5-0.5s-0.2-0.5-0.5-0.5h-4
	c-0.3,0-0.5,0.2-0.5,0.5S148.7,176.1,149,176.1z M125,176.1h4c0.3,0,0.5-0.2,0.5-0.5s-0.2-0.5-0.5-0.5h-4c-0.3,0-0.5,0.2-0.5,0.5
	S124.7,176.1,125,176.1z M118.8,64.4h4c0.3,0,0.5-0.2,0.5-0.5s-0.2-0.5-0.5-0.5h-4c-0.3,0-0.5,0.2-0.5,0.5S118.5,64.4,118.8,64.4z
	 M117,176.1h4c0.3,0,0.5-0.2,0.5-0.5s-0.2-0.5-0.5-0.5h-4c-0.3,0-0.5,0.2-0.5,0.5S116.7,176.1,117,176.1z M110.8,64.4h4
	c0.3,0,0.5-0.2,0.5-0.5s-0.2-0.5-0.5-0.5h-4c-0.3,0-0.5,0.2-0.5,0.5S110.5,64.4,110.8,64.4z M126.8,64.4h4c0.3,0,0.5-0.2,0.5-0.5
	s-0.2-0.5-0.5-0.5h-4c-0.3,0-0.5,0.2-0.5,0.5S126.5,64.4,126.8,64.4z M141,176.1h4c0.3,0,0.5-0.2,0.5-0.5s-0.2-0.5-0.5-0.5h-4
	c-0.3,0-0.5,0.2-0.5,0.5S140.7,176.1,141,176.1z M142.8,64.4h4c0.3,0,0.5-0.2,0.5-0.5s-0.2-0.5-0.5-0.5h-4c-0.3,0-0.5,0.2-0.5,0.5
	S142.5,64.4,142.8,64.4z M133,176.1h4c0.3,0,0.5-0.2,0.5-0.5s-0.2-0.5-0.5-0.5h-4c-0.3,0-0.5,0.2-0.5,0.5S132.7,176.1,133,176.1z
	 M134.8,64.4h4c0.3,0,0.5-0.2,0.5-0.5s-0.2-0.5-0.5-0.5h-4c-0.3,0-0.5,0.2-0.5,0.5S134.5,64.4,134.8,64.4z M221.9,87.7
	c0.3,0,0.5-0.2,0.5-0.5v-4c0-0.3-0.2-0.5-0.5-0.5c-0.3,0-0.5,0.2-0.5,0.5v4C221.4,87.5,221.6,87.7,221.9,87.7z M201,175.1h-4
	c-0.3,0-0.5,0.2-0.5,0.5s0.2,0.5,0.5,0.5h4c0.3,0,0.5-0.2,0.5-0.5S201.2,175.1,201,175.1z M209,175.1h-4c-0.3,0-0.5,0.2-0.5,0.5
	s0.2,0.5,0.5,0.5h4c0.3,0,0.5-0.2,0.5-0.5S209.2,175.1,209,175.1z M221.9,79.7c0.3,0,0.5-0.2,0.5-0.5v-4c0-0.3-0.2-0.5-0.5-0.5
	c-0.3,0-0.5,0.2-0.5,0.5v4C221.4,79.5,221.6,79.7,221.9,79.7z M193,175.1h-4c-0.3,0-0.5,0.2-0.5,0.5s0.2,0.5,0.5,0.5h4
	c0.3,0,0.5-0.2,0.5-0.5S193.2,175.1,193,175.1z M221.9,71.7c0.3,0,0.5-0.2,0.5-0.5v-4c0-0.3-0.2-0.5-0.5-0.5c-0.3,0-0.5,0.2-0.5,0.5
	v4C221.4,71.5,221.6,71.7,221.9,71.7z M185,175.1h-4c-0.3,0-0.5,0.2-0.5,0.5s0.2,0.5,0.5,0.5h4c0.3,0,0.5-0.2,0.5-0.5
	S185.2,175.1,185,175.1z M169,175.1h-4c-0.3,0-0.5,0.2-0.5,0.5s0.2,0.5,0.5,0.5h4c0.3,0,0.5-0.2,0.5-0.5S169.2,175.1,169,175.1z
	 M220.4,175.2c0.1,0.1,0.2,0.2,0.4,0.2c0.1,0,0.2,0,0.3-0.1c0.8-0.7,1.3-1.7,1.3-2.7v-1.3c0-0.3-0.2-0.5-0.5-0.5
	c-0.3,0-0.5,0.2-0.5,0.5v1.3c0,0.8-0.3,1.5-0.9,2C220.3,174.7,220.2,175,220.4,175.2z M177,175.1h-4c-0.3,0-0.5,0.2-0.5,0.5
	s0.2,0.5,0.5,0.5h4c0.3,0,0.5-0.2,0.5-0.5S177.2,175.1,177,175.1z M109,176.1h4c0.3,0,0.5-0.2,0.5-0.5s-0.2-0.5-0.5-0.5h-4
	c-0.3,0-0.5,0.2-0.5,0.5S108.7,176.1,109,176.1z M161,175.1h-4c-0.3,0-0.5,0.2-0.5,0.5s0.2,0.5,0.5,0.5h4c0.3,0,0.5-0.2,0.5-0.5
	S161.2,175.1,161,175.1z M221.9,143.7c0.3,0,0.5-0.2,0.5-0.5v-4c0-0.3-0.2-0.5-0.5-0.5c-0.3,0-0.5,0.2-0.5,0.5v4
	C221.4,143.5,221.6,143.7,221.9,143.7z M221.9,151.7c0.3,0,0.5-0.2,0.5-0.5v-4c0-0.3-0.2-0.5-0.5-0.5c-0.3,0-0.5,0.2-0.5,0.5v4
	C221.4,151.5,221.6,151.7,221.9,151.7z M221.9,159.7c0.3,0,0.5-0.2,0.5-0.5v-4c0-0.3-0.2-0.5-0.5-0.5c-0.3,0-0.5,0.2-0.5,0.5v4
	C221.4,159.5,221.6,159.7,221.9,159.7z M221.9,167.7c0.3,0,0.5-0.2,0.5-0.5v-4c0-0.3-0.2-0.5-0.5-0.5c-0.3,0-0.5,0.2-0.5,0.5v4
	C221.4,167.5,221.6,167.7,221.9,167.7z M221.9,127.7c0.3,0,0.5-0.2,0.5-0.5v-4c0-0.3-0.2-0.5-0.5-0.5c-0.3,0-0.5,0.2-0.5,0.5v4
	C221.4,127.5,221.6,127.7,221.9,127.7z M221.9,103.7c0.3,0,0.5-0.2,0.5-0.5v-4c0-0.3-0.2-0.5-0.5-0.5c-0.3,0-0.5,0.2-0.5,0.5v4
	C221.4,103.5,221.6,103.7,221.9,103.7z M221.9,119.7c0.3,0,0.5-0.2,0.5-0.5v-4c0-0.3-0.2-0.5-0.5-0.5c-0.3,0-0.5,0.2-0.5,0.5v4
	C221.4,119.5,221.6,119.7,221.9,119.7z M221.9,95.7c0.3,0,0.5-0.2,0.5-0.5v-4c0-0.3-0.2-0.5-0.5-0.5c-0.3,0-0.5,0.2-0.5,0.5v4
	C221.4,95.5,221.6,95.7,221.9,95.7z M221.9,135.7c0.3,0,0.5-0.2,0.5-0.5v-4c0-0.3-0.2-0.5-0.5-0.5c-0.3,0-0.5,0.2-0.5,0.5v4
	C221.4,135.5,221.6,135.7,221.9,135.7z M221.9,111.7c0.3,0,0.5-0.2,0.5-0.5v-4c0-0.3-0.2-0.5-0.5-0.5c-0.3,0-0.5,0.2-0.5,0.5v4
	C221.4,111.5,221.6,111.7,221.9,111.7z M57,175.1h-4c-0.3,0-0.5,0.2-0.5,0.5s0.2,0.5,0.5,0.5h4c0.3,0,0.5-0.2,0.5-0.5
	S57.2,175.1,57,175.1z M58.8,63.4h-4c-0.3,0-0.5,0.2-0.5,0.5s0.2,0.5,0.5,0.5h4c0.3,0,0.5-0.2,0.5-0.5S59.1,63.4,58.8,63.4z
	 M65,175.1h-4c-0.3,0-0.5,0.2-0.5,0.5s0.2,0.5,0.5,0.5h4c0.3,0,0.5-0.2,0.5-0.5S65.2,175.1,65,175.1z M50.8,63.4h-4
	c-0.3,0-0.5,0.2-0.5,0.5s0.2,0.5,0.5,0.5h4c0.3,0,0.5-0.2,0.5-0.5S51.1,63.4,50.8,63.4z M49,175.1h-4c-0.3,0-0.5,0.2-0.5,0.5
	s0.2,0.5,0.5,0.5h4c0.3,0,0.5-0.2,0.5-0.5S49.2,175.1,49,175.1z M34.7,64.7c-0.5,0.6-0.9,1.5-0.9,2.3v1.8c0,0.3,0.2,0.5,0.5,0.5
	s0.5-0.2,0.5-0.5V67c0-0.6,0.2-1.2,0.6-1.7c0.2-0.2,0.2-0.5-0.1-0.7C35.2,64.4,34.9,64.5,34.7,64.7z M66.8,63.4h-4
	c-0.3,0-0.5,0.2-0.5,0.5s0.2,0.5,0.5,0.5h4c0.3,0,0.5-0.2,0.5-0.5S67.1,63.4,66.8,63.4z M42.8,63.4h-4c-0.3,0-0.5,0.2-0.5,0.5
	s0.2,0.5,0.5,0.5h4c0.3,0,0.5-0.2,0.5-0.5S43.1,63.4,42.8,63.4z M41,175.1h-3.5c-0.2,0-0.3,0-0.4,0c-0.3-0.1-0.5,0.1-0.6,0.4
	c0,0.3,0.1,0.5,0.4,0.6c0.2,0,0.4,0.1,0.6,0.1H41c0.3,0,0.5-0.2,0.5-0.5S41.2,175.1,41,175.1z M89,175.1h-4c-0.3,0-0.5,0.2-0.5,0.5
	s0.2,0.5,0.5,0.5h4c0.3,0,0.5-0.2,0.5-0.5S89.2,175.1,89,175.1z M90.8,63.4h-4c-0.3,0-0.5,0.2-0.5,0.5s0.2,0.5,0.5,0.5h4
	c0.3,0,0.5-0.2,0.5-0.5S91.1,63.4,90.8,63.4z M97.5,175.6c0-0.3-0.2-0.5-0.5-0.5h-4c-0.3,0-0.5,0.2-0.5,0.5s0.2,0.5,0.5,0.5h4
	C97.2,176.1,97.5,175.9,97.5,175.6z M102.8,64.4h4c0.3,0,0.5-0.2,0.5-0.5s-0.2-0.5-0.5-0.5h-4c-0.3,0-0.5,0.2-0.5,0.5
	S102.5,64.4,102.8,64.4z M73,175.1h-4c-0.3,0-0.5,0.2-0.5,0.5s0.2,0.5,0.5,0.5h4c0.3,0,0.5-0.2,0.5-0.5S73.2,175.1,73,175.1z
	 M82.8,63.4h-4c-0.3,0-0.5,0.2-0.5,0.5s0.2,0.5,0.5,0.5h4c0.3,0,0.5-0.2,0.5-0.5S83.1,63.4,82.8,63.4z M81,175.1h-4
	c-0.3,0-0.5,0.2-0.5,0.5s0.2,0.5,0.5,0.5h4c0.3,0,0.5-0.2,0.5-0.5S81.2,175.1,81,175.1z M74.8,63.4h-4c-0.3,0-0.5,0.2-0.5,0.5
	s0.2,0.5,0.5,0.5h4c0.3,0,0.5-0.2,0.5-0.5S75.1,63.4,74.8,63.4z M34.4,85.3c0.3,0,0.5-0.2,0.5-0.5v-4c0-0.3-0.2-0.5-0.5-0.5
	s-0.5,0.2-0.5,0.5v4C33.9,85.1,34.1,85.3,34.4,85.3z M34.4,93.3c0.3,0,0.5-0.2,0.5-0.5v-4c0-0.3-0.2-0.5-0.5-0.5s-0.5,0.2-0.5,0.5v4
	C33.9,93.1,34.1,93.3,34.4,93.3z M34.4,101.3c0.3,0,0.5-0.2,0.5-0.5v-4c0-0.3-0.2-0.5-0.5-0.5s-0.5,0.2-0.5,0.5v4
	C33.9,101.1,34.1,101.3,34.4,101.3z M34.4,109.3c0.3,0,0.5-0.2,0.5-0.5v-4c0-0.3-0.2-0.5-0.5-0.5s-0.5,0.2-0.5,0.5v4
	C33.9,109.1,34.1,109.3,34.4,109.3z M34.4,77.3c0.3,0,0.5-0.2,0.5-0.5v-4c0-0.3-0.2-0.5-0.5-0.5s-0.5,0.2-0.5,0.5v4
	C33.9,77.1,34.1,77.3,34.4,77.3z M101,176.1h4c0.3,0,0.5-0.2,0.5-0.5s-0.2-0.5-0.5-0.5h-4c-0.3,0-0.5,0.2-0.5,0.5
	S100.7,176.1,101,176.1z M34.4,117.3c0.3,0,0.5-0.2,0.5-0.5v-4c0-0.3-0.2-0.5-0.5-0.5s-0.5,0.2-0.5,0.5v4
	C33.9,117.1,34.1,117.3,34.4,117.3z M94.8,64.4h4c0.3,0,0.5-0.2,0.5-0.5s-0.2-0.5-0.5-0.5h-4c-0.3,0-0.5,0.2-0.5,0.5
	S94.5,64.4,94.8,64.4z M34.4,125.3c0.3,0,0.5-0.2,0.5-0.5v-4c0-0.3-0.2-0.5-0.5-0.5s-0.5,0.2-0.5,0.5v4
	C33.9,125.1,34.1,125.3,34.4,125.3z M34.4,165.3c0.3,0,0.5-0.2,0.5-0.5v-4c0-0.3-0.2-0.5-0.5-0.5s-0.5,0.2-0.5,0.5v4
	C33.9,165.1,34.1,165.3,34.4,165.3z M34.9,168.8c0-0.3-0.2-0.5-0.5-0.5s-0.5,0.2-0.5,0.5v3.7c0,0.1,0,0.3,0,0.4
	c0,0.3,0.2,0.4,0.5,0.4c0,0,0,0,0.1,0c0.3,0,0.5-0.3,0.4-0.6c0-0.1,0-0.2,0-0.3V168.8z M34.4,157.3c0.3,0,0.5-0.2,0.5-0.5v-4
	c0-0.3-0.2-0.5-0.5-0.5s-0.5,0.2-0.5,0.5v4C33.9,157.1,34.1,157.3,34.4,157.3z M34.4,141.3c0.3,0,0.5-0.2,0.5-0.5v-4
	c0-0.3-0.2-0.5-0.5-0.5s-0.5,0.2-0.5,0.5v4C33.9,141.1,34.1,141.3,34.4,141.3z M34.4,133.3c0.3,0,0.5-0.2,0.5-0.5v-4
	c0-0.3-0.2-0.5-0.5-0.5s-0.5,0.2-0.5,0.5v4C33.9,133.1,34.1,133.3,34.4,133.3z M34.4,149.3c0.3,0,0.5-0.2,0.5-0.5v-4
	c0-0.3-0.2-0.5-0.5-0.5s-0.5,0.2-0.5,0.5v4C33.9,149.1,34.1,149.3,34.4,149.3z M194.9,86l-41.3,72.5c-0.1,0.2-0.1,0.5,0.2,0.7
	c0.1,0,0.2,0.1,0.2,0.1c0.2,0,0.3-0.1,0.4-0.3l41.3-72.5c0.1-0.2,0.1-0.5-0.2-0.7C195.3,85.6,195,85.7,194.9,86z M176.9,153.7
	c0.1,0,0.2,0.1,0.2,0.1c0.2,0,0.3-0.1,0.4-0.3l28.1-49.4c0.1-0.2,0.1-0.5-0.2-0.7c-0.2-0.1-0.5-0.1-0.7,0.2L176.6,153
	C176.5,153.3,176.6,153.6,176.9,153.7z M57.8,188c-0.3,0-0.5,0.2-0.5,0.5v4c0,0.3,0.2,0.5,0.5,0.5s0.5-0.2,0.5-0.5v-4
	C58.3,188.2,58.1,188,57.8,188z M67.8,188c-0.3,0-0.5,0.2-0.5,0.5v4c0,0.3,0.2,0.5,0.5,0.5s0.5-0.2,0.5-0.5v-4
	C68.3,188.2,68.1,188,67.8,188z M77.8,188c-0.3,0-0.5,0.2-0.5,0.5v4c0,0.3,0.2,0.5,0.5,0.5s0.5-0.2,0.5-0.5v-4
	C78.3,188.2,78.1,188,77.8,188z M87.8,188c-0.3,0-0.5,0.2-0.5,0.5v4c0,0.3,0.2,0.5,0.5,0.5s0.5-0.2,0.5-0.5v-4
	C88.3,188.2,88.1,188,87.8,188z M167.8,188c-0.3,0-0.5,0.2-0.5,0.5v4c0,0.3,0.2,0.5,0.5,0.5s0.5-0.2,0.5-0.5v-4
	C168.3,188.2,168.1,188,167.8,188z M177.8,188c-0.3,0-0.5,0.2-0.5,0.5v4c0,0.3,0.2,0.5,0.5,0.5s0.5-0.2,0.5-0.5v-4
	C178.3,188.2,178.1,188,177.8,188z M187.8,188c-0.3,0-0.5,0.2-0.5,0.5v4c0,0.3,0.2,0.5,0.5,0.5s0.5-0.2,0.5-0.5v-4
	C188.3,188.2,188.1,188,187.8,188z M197.8,188c-0.3,0-0.5,0.2-0.5,0.5v4c0,0.3,0.2,0.5,0.5,0.5s0.5-0.2,0.5-0.5v-4
	C198.3,188.2,198.1,188,197.8,188z M215,187c-1.9,0-3.5,1.6-3.5,3.5s1.6,3.5,3.5,3.5s3.5-1.6,3.5-3.5S216.9,187,215,187z M215,193
	c-1.4,0-2.5-1.1-2.5-2.5s1.1-2.5,2.5-2.5s2.5,1.1,2.5,2.5S216.4,193,215,193z"/>
</svg>
