<?xml version="1.0" encoding="utf-8"?>
<!-- Generator: Adobe Illustrator 19.0.0, SVG Export Plug-In . SVG Version: 6.00 Build 0)  -->
<svg version="1.1" id="Camada_1" xmlns="http://www.w3.org/2000/svg" xmlns:xlink="http://www.w3.org/1999/xlink" x="0px" y="0px"
	 viewBox="0 0 256 256" style="enable-background:new 0 0 256 256;" xml:space="preserve">
<style type="text/css">
	
</style>
<path d="M88.9,63.8H67.1c-3.2,0-6.1,2.2-7.3,5.7C54.6,84.6,41.5,153,41.5,225.3v1h73v-1c0-72.5-12.9-139.9-18.2-155.8
	C95.2,66.1,92.3,63.8,88.9,63.8z M43.5,224.3c0.1-71.7,13-139.3,18.1-154.2c1-2.6,3.1-4.3,5.5-4.3h21.8c2.5,0,4.7,1.7,5.5,4.3
	c5.3,15.7,18,82.3,18.1,154.2H43.5z M70,86.3c-0.3-0.1-0.5,0.1-0.6,0.3C65.2,99.7,55,155.2,55,215.1c0,0.3,0.2,0.5,0.5,0.5
	s0.5-0.2,0.5-0.5C56,155.3,66.1,100,70.4,87C70.4,86.7,70.2,86.4,70,86.3z M209.2,157.5h-8V137c0-2.6-2.2-4.8-4.8-4.8h-1.6v-14.4
	c0-2.6-2.2-4.8-4.8-4.8h-1.6V34c0-1.8-1-3.3-2.6-4c-1.6-0.7-3.5-0.3-4.8,1l-21.6,21.6c-0.8,0.7-1.4,1.9-1.4,3.1V113h-1.5
	c-2.6,0-4.8,2.2-4.8,4.8v14.4h-1.6c-2.6,0-4.8,2.2-4.8,4.8v20.5h-8.1c-2.9,0-5.3,2.4-5.3,5.3v63.6h82.6v-63.6
	C214.5,159.9,212.1,157.5,209.2,157.5z M160,55.7c0-0.6,0.3-1.2,0.7-1.6l21.7-21.7c0.8-0.8,1.9-0.8,2.6-0.5c0.9,0.4,1.4,1.2,1.4,2.1
	v79H160V55.7z M152.7,117.8c0-2,1.8-3.8,3.8-3.8H190c2,0,3.8,1.8,3.8,3.8v14.4h-41.1V117.8z M146.3,137c0-2,1.8-3.8,3.8-3.8h46.3
	c2,0,3.8,1.8,3.8,3.8v20.5h-53.9C146.3,157.5,146.3,137,146.3,137z M212.5,224.4h-78.6v-61.6c0-1.8,1.5-3.3,3.3-3.3h22.2v3.1
	c0,0.3,0.2,0.5,0.5,0.5c0.3,0,0.5-0.2,0.5-0.5v-3.1h25.8v3.1c0,0.3,0.2,0.5,0.5,0.5s0.5-0.2,0.5-0.5v-3.1h22c1.8,0,3.3,1.5,3.3,3.3
	V224.4z M159.9,198.1c-0.3,0-0.5,0.2-0.5,0.5v4c0,0.3,0.2,0.5,0.5,0.5c0.3,0,0.5-0.2,0.5-0.5v-4
	C160.4,198.3,160.2,198.1,159.9,198.1z M159.9,206.1c-0.3,0-0.5,0.2-0.5,0.5v4c0,0.3,0.2,0.5,0.5,0.5c0.3,0,0.5-0.2,0.5-0.5v-4
	C160.4,206.3,160.2,206.1,159.9,206.1z M159.9,190.1c-0.3,0-0.5,0.2-0.5,0.5v4c0,0.3,0.2,0.5,0.5,0.5c0.3,0,0.5-0.2,0.5-0.5v-4
	C160.4,190.3,160.2,190.1,159.9,190.1z M159.9,182.1c-0.3,0-0.5,0.2-0.5,0.5v4c0,0.3,0.2,0.5,0.5,0.5c0.3,0,0.5-0.2,0.5-0.5v-4
	C160.4,182.3,160.2,182.1,159.9,182.1z M159.9,166.1c-0.3,0-0.5,0.2-0.5,0.5v4c0,0.3,0.2,0.5,0.5,0.5c0.3,0,0.5-0.2,0.5-0.5v-4
	C160.4,166.3,160.2,166.1,159.9,166.1z M159.9,174.1c-0.3,0-0.5,0.2-0.5,0.5v4c0,0.3,0.2,0.5,0.5,0.5c0.3,0,0.5-0.2,0.5-0.5v-4
	C160.4,174.3,160.2,174.1,159.9,174.1z M168.4,60.6c-0.3,0-0.5,0.2-0.5,0.5v42.3c0,0.3,0.2,0.5,0.5,0.5c0.3,0,0.5-0.2,0.5-0.5V61.1
	C168.9,60.8,168.7,60.6,168.4,60.6z M186.7,166.1c-0.3,0-0.5,0.2-0.5,0.5v4c0,0.3,0.2,0.5,0.5,0.5s0.5-0.2,0.5-0.5v-4
	C187.2,166.3,187,166.1,186.7,166.1z M186.7,182.1c-0.3,0-0.5,0.2-0.5,0.5v4c0,0.3,0.2,0.5,0.5,0.5s0.5-0.2,0.5-0.5v-4
	C187.2,182.3,187,182.1,186.7,182.1z M186.7,174.1c-0.3,0-0.5,0.2-0.5,0.5v4c0,0.3,0.2,0.5,0.5,0.5s0.5-0.2,0.5-0.5v-4
	C187.2,174.3,187,174.1,186.7,174.1z M186.7,206.1c-0.3,0-0.5,0.2-0.5,0.5v4c0,0.3,0.2,0.5,0.5,0.5s0.5-0.2,0.5-0.5v-4
	C187.2,206.3,187,206.1,186.7,206.1z M186.7,198.1c-0.3,0-0.5,0.2-0.5,0.5v4c0,0.3,0.2,0.5,0.5,0.5s0.5-0.2,0.5-0.5v-4
	C187.2,198.3,187,198.1,186.7,198.1z M186.7,190.1c-0.3,0-0.5,0.2-0.5,0.5v4c0,0.3,0.2,0.5,0.5,0.5s0.5-0.2,0.5-0.5v-4
	C187.2,190.3,187,190.1,186.7,190.1z"/>
</svg>
