<?xml version="1.0" encoding="utf-8"?>
<!-- Generator: Adobe Illustrator 19.0.0, SVG Export Plug-In . SVG Version: 6.00 Build 0)  -->
<svg version="1.1" id="Camada_1" xmlns="http://www.w3.org/2000/svg" xmlns:xlink="http://www.w3.org/1999/xlink" x="0px" y="0px"
	 viewBox="0 0 256 256" style="enable-background:new 0 0 256 256;" xml:space="preserve">
<style type="text/css">
	
</style>
<path d="M137.1,220.6c0.1,0,0.1,0,0.2,0c0.2,0,0.4-0.1,0.5-0.3c0.6-1.2,1.1-2.5,1.4-3.9c0.1-0.3-0.1-0.5-0.4-0.6
	s-0.5,0.1-0.6,0.4c-0.3,1.3-0.7,2.5-1.3,3.7C136.8,220.2,136.9,220.5,137.1,220.6z M128.8,196.8c1.2,0.6,2.3,1.3,3.3,2.1
	c0.1,0.1,0.2,0.1,0.3,0.1c0.1,0,0.3-0.1,0.4-0.2c0.2-0.2,0.1-0.5-0.1-0.7c-1.1-0.9-2.2-1.6-3.5-2.2c-0.2-0.1-0.5,0-0.7,0.2
	C128.5,196.4,128.6,196.7,128.8,196.8z M138.6,212.4c0,0.3,0.2,0.5,0.5,0.5c0.3,0,0.5-0.2,0.5-0.5c0-1.4-0.2-2.7-0.4-4
	c-0.1-0.3-0.3-0.4-0.6-0.4c-0.3,0.1-0.4,0.3-0.4,0.6C138.5,209.8,138.6,211.1,138.6,212.4z M120.8,194.6c0,0.3,0.2,0.5,0.5,0.5
	c1.3,0,2.6,0.1,3.9,0.4h0.1c0.2,0,0.4-0.2,0.5-0.4c0.1-0.3-0.1-0.5-0.4-0.6c-1.3-0.3-2.7-0.5-4.1-0.5
	C121,194.1,120.8,194.3,120.8,194.6z M113.7,196.8c0.1,0,0.1,0,0.2,0c1.2-0.6,2.4-1,3.7-1.3c0.3-0.1,0.4-0.3,0.4-0.6
	c-0.1-0.3-0.3-0.4-0.6-0.4c-1.3,0.3-2.6,0.7-3.9,1.3c-0.2,0.1-0.4,0.4-0.2,0.7C113.3,196.7,113.5,196.8,113.7,196.8z M105.7,219.8
	c-0.1-0.3-0.4-0.4-0.7-0.2c-0.2,0.1-0.4,0.4-0.2,0.7c0.6,1.2,1.3,2.4,2.2,3.5c0.1,0.1,0.2,0.2,0.4,0.2c0.1,0,0.2,0,0.3-0.1
	c0.2-0.2,0.3-0.5,0.1-0.7C106.9,222.1,106.2,221,105.7,219.8z M110.6,198.8c0.2-0.2,0.3-0.5,0.1-0.7c-0.2-0.2-0.5-0.3-0.7-0.1
	c-1.1,0.8-2.1,1.8-2.9,2.9c-0.2,0.2-0.1,0.5,0.1,0.7c0.1,0.1,0.2,0.1,0.3,0.1c0.1,0,0.3-0.1,0.4-0.2
	C108.6,200.5,109.6,199.6,110.6,198.8z M113.7,228c-1.2-0.6-2.3-1.3-3.3-2.1c-0.2-0.2-0.5-0.1-0.7,0.1s-0.1,0.5,0.1,0.7
	c1.1,0.9,2.2,1.6,3.5,2.2c0.1,0,0.1,0.1,0.2,0.1c0.2,0,0.4-0.1,0.5-0.3C114.1,228.4,114,228.1,113.7,228z M104,212.3
	c0-0.3-0.2-0.5-0.5-0.5s-0.5,0.3-0.5,0.5c0,1.3,0.1,2.7,0.4,4c0.1,0.2,0.3,0.4,0.5,0.4h0.1c0.3-0.1,0.4-0.3,0.4-0.6
	C104.1,214.9,104,213.7,104,212.3z M121.2,229.7c-1.3,0-2.6-0.2-3.9-0.4c-0.3-0.1-0.5,0.1-0.6,0.4c-0.1,0.3,0.1,0.5,0.4,0.6
	c1.3,0.3,2.7,0.5,4.1,0.5l0,0c0.3,0,0.5-0.2,0.5-0.5C121.7,229.9,121.5,229.7,121.2,229.7z M105.5,204.1c-0.2-0.1-0.5,0-0.7,0.2
	c-0.6,1.2-1.1,2.5-1.4,3.9c-0.1,0.3,0.1,0.5,0.4,0.6h0.1c0.2,0,0.4-0.2,0.5-0.4c0.3-1.3,0.7-2.5,1.3-3.7
	C105.9,204.6,105.8,204.3,105.5,204.1z M134.8,223.2c-0.8,1-1.7,1.9-2.8,2.7c-0.2,0.2-0.3,0.5-0.1,0.7c0.1,0.1,0.2,0.2,0.4,0.2
	c0.1,0,0.2,0,0.3-0.1c1.1-0.9,2-1.8,2.9-2.9c0.2-0.2,0.1-0.5-0.1-0.7C135.3,223,135,223,134.8,223.2z M136.9,204.9
	c0.1,0.2,0.3,0.3,0.5,0.3c0.1,0,0.1,0,0.2,0c0.2-0.1,0.4-0.4,0.2-0.7c-0.6-1.2-1.3-2.4-2.2-3.5c-0.2-0.2-0.5-0.3-0.7-0.1
	c-0.2,0.2-0.3,0.5-0.1,0.7C135.6,202.6,136.3,203.7,136.9,204.9z M128.8,228c-1.2,0.6-2.4,1-3.7,1.3c-0.3,0.1-0.4,0.3-0.4,0.6
	c0.1,0.2,0.3,0.4,0.5,0.4h0.1c1.3-0.3,2.6-0.8,3.9-1.3c0.2-0.1,0.4-0.4,0.2-0.7C129.3,228,129,227.9,128.8,228z M121.3,225.2
	c7.1,0,12.8-5.7,12.8-12.8c0-7.1-5.7-12.8-12.8-12.8c-7.1,0-12.8,5.7-12.8,12.8S114.2,225.2,121.3,225.2z M120.8,201.6v7
	c0,0.3,0.2,0.5,0.5,0.5c0.3,0,0.5-0.2,0.5-0.5v-7c5.7,0.3,10.3,5,10.3,10.8c0,6-4.8,10.8-10.8,10.8s-10.8-4.8-10.8-10.8
	C110.5,206.6,115.1,201.9,120.8,201.6z M121.3,186.9c1.9,0,3.5-1.6,3.5-3.5s-1.6-3.5-3.5-3.5c-1.9,0-3.5,1.6-3.5,3.5
	S119.4,186.9,121.3,186.9z M121.3,180.9c1.4,0,2.5,1.1,2.5,2.5s-1.1,2.5-2.5,2.5c-1.4,0-2.5-1.1-2.5-2.5S119.9,180.9,121.3,180.9z
	 M107.9,186.9c1.9,0,3.5-1.6,3.5-3.5s-1.6-3.5-3.5-3.5s-3.5,1.6-3.5,3.5S106,186.9,107.9,186.9z M107.9,180.9c1.4,0,2.5,1.1,2.5,2.5
	s-1.1,2.5-2.5,2.5s-2.5-1.1-2.5-2.5S106.5,180.9,107.9,180.9z M134.6,186.9c1.9,0,3.5-1.6,3.5-3.5s-1.6-3.5-3.5-3.5
	c-1.9,0-3.5,1.6-3.5,3.5S132.7,186.9,134.6,186.9z M134.6,180.9c1.4,0,2.5,1.1,2.5,2.5s-1.1,2.5-2.5,2.5c-1.4,0-2.5-1.1-2.5-2.5
	S133.2,180.9,134.6,180.9z M185,51.1l-19.8-8.9V31.6c0-5.7-4.6-10.3-10.3-10.3h-21.2v-2c0-2.9-2.3-5.2-5.2-5.2h-13
	c-2.9,0-5.2,2.3-5.2,5.2v2H87.9c-5.7,0-10.3,4.6-10.3,10.3v5.2h-6c-2.6,0-4.6,2-4.6,4.6v5.9c0,1.2,0.5,2.4,1.3,3.3l9.2,9.2l0.1-0.1
	v51.7c0,6.8,1.4,13.6,4.1,19.9L95.6,164c0.8,1.8,2.1,3.3,3.7,4.4c-3.1,0.8-5.8,2.9-7.4,5.9L73.3,211c-0.8,1.5-1.2,3.4-1.2,5.1v14.3
	c-0.1,3,1.1,5.9,3.2,8c2.1,2.2,5,3.4,8.1,3.4h75.8c6.3,0,11.4-5.1,11.4-11.4v-14.2c0-1.7-0.4-3.6-1.2-5.2l-18.7-36.8
	c-1.5-2.9-4.1-5-7.2-5.8c1.6-1,2.9-2.6,3.7-4.4l13.9-32.7c1.5-3.6,2.6-7.2,3.2-10.9l20.7-9c2-1,3.3-3,3.3-5.1V56.2
	C188.3,53.9,187,51.9,185,51.1z M165.2,54.1l11.1,4.9c0.8,0.3,1.4,1.2,1.4,2.1v40.4c0,0.9-0.5,1.7-1.4,2.1l-11.1,4.8V54.1z
	 M112.3,19.3c0-1.7,1.5-3.2,3.2-3.2h13c1.7,0,3.2,1.5,3.2,3.2v2h-19.4C112.3,21.3,112.3,19.3,112.3,19.3z M69.1,49.8
	c-0.7-0.7-1.1-1.6-1.1-2.5v-5.9c0-2,1.6-3.6,3.6-3.6h6v20.6L69.1,49.8z M140.5,170c3.6,0,6.8,2,8.4,5.2l18.7,36.8
	c0.6,1.3,1,2.8,1,4.3v14.2c0,5.2-4.2,9.4-9.4,9.4H83.4c-2.5,0-4.9-1-6.7-2.8c-1.7-1.8-2.7-4.1-2.6-6.6v-14.3c0-1.4,0.4-3,1-4.2
	l18.6-36.7c1.6-3.2,4.9-5.2,8.4-5.2L140.5,170L140.5,170z M159.3,130.5l-11.1,26.2c-0.6,0.7-1.3,1.4-2.1,1.9l0.6,0.8
	c0.2-0.1,0.4-0.3,0.6-0.4l-1.8,4.2c-1.2,2.9-4.1,4.8-7.2,4.8h-33.6c-3,0-5.9-1.9-7.2-4.8l-2.1-5l0.3-0.3c-0.3-0.2-0.5-0.5-0.7-0.7
	l-11.3-26.6c-2.6-6-3.9-12.6-3.9-19.1V35h3.6c0.3,0,0.5-0.2,0.5-0.5S83.7,34,83.4,34h-3.6v-2.3c0-4.6,3.7-8.3,8.3-8.3h67
	c4.6,0,8.3,3.7,8.3,8.3V34h-4c-0.3,0-0.5,0.2-0.5,0.5s0.2,0.5,0.5,0.5h4v76.5c0,2.5-0.2,5.1-0.6,7.6l-0.4,0.2l0.2,0.6
	C161.8,123.4,160.8,127,159.3,130.5z M186.3,106.3c0,1.4-0.8,2.7-2.1,3.3l-19.5,8.5c0.3-2.2,0.5-4.4,0.5-6.7v-1.8l11.5-5
	c1.2-0.6,2-1.7,2-3.1V61.1c0-1.3-0.8-2.6-2-3.1l-11.5-5v-8.6l19,8.5c1.3,0.5,2.1,1.8,2.1,3.3C186.3,56.2,186.3,106.3,186.3,106.3z
	 M95.6,51.3c0,0.3,0.2,0.5,0.5,0.5h21.7c0.3,0,0.5-0.2,0.5-0.5s-0.2-0.5-0.5-0.5H96.1C95.8,50.8,95.6,51,95.6,51.3z M117.8,61.2
	H96.1c-0.3,0-0.5,0.2-0.5,0.5s0.2,0.5,0.5,0.5h21.7c0.3,0,0.5-0.2,0.5-0.5S118.1,61.2,117.8,61.2z M117.8,71.7H96.1
	c-0.3,0-0.5,0.2-0.5,0.5s0.2,0.5,0.5,0.5h21.7c0.3,0,0.5-0.2,0.5-0.5S118.1,71.7,117.8,71.7z M117.8,82.2H96.1
	c-0.3,0-0.5,0.2-0.5,0.5s0.2,0.5,0.5,0.5h21.7c0.3,0,0.5-0.2,0.5-0.5S118.1,82.2,117.8,82.2z M117.8,92.7H96.1
	c-0.3,0-0.5,0.2-0.5,0.5s0.2,0.5,0.5,0.5h21.7c0.3,0,0.5-0.2,0.5-0.5S118.1,92.7,117.8,92.7z M117.8,103.2H96.1
	c-0.3,0-0.5,0.2-0.5,0.5s0.2,0.5,0.5,0.5h21.7c0.3,0,0.5-0.2,0.5-0.5S118.1,103.2,117.8,103.2z M118.3,114.1c0-0.3-0.2-0.5-0.5-0.5
	H96.1c-0.3,0-0.5,0.2-0.5,0.5s0.2,0.5,0.5,0.5h21.7C118.1,114.6,118.3,114.4,118.3,114.1z M114.6,160.3h4v1h-4V160.3z M122.6,160.3
	h4v1h-4V160.3z M98.9,159.8l-0.3,0.9c1.2,0.4,2.4,0.6,3.6,0.6h0.5v-1h-0.5C101,160.3,99.9,160.1,98.9,159.8z M106.6,160.3h4v1h-4
	V160.3z M130.6,160.3h4v1h-4V160.3z M140.5,160.3h-1.9v1h1.9c0.7,0,1.5-0.1,2.2-0.2l-0.2-1C141.8,160.2,141.2,160.3,140.5,160.3z
	 M155.2,33.9h-4c-0.3,0-0.5,0.2-0.5,0.5s0.2,0.5,0.5,0.5h4c0.3,0,0.5-0.2,0.5-0.5S155.5,33.9,155.2,33.9z M139.7,34.4
	c0-0.3-0.2-0.5-0.5-0.5h-4c-0.3,0-0.5,0.2-0.5,0.5s0.2,0.5,0.5,0.5h4C139.5,34.9,139.7,34.7,139.7,34.4z M147.2,33.9h-4
	c-0.3,0-0.5,0.2-0.5,0.5s0.2,0.5,0.5,0.5h4c0.3,0,0.5-0.2,0.5-0.5S147.5,33.9,147.2,33.9z M131.7,34.4c0-0.3-0.2-0.5-0.5-0.5h-4
	c-0.3,0-0.5,0.2-0.5,0.5s0.2,0.5,0.5,0.5h4C131.5,34.9,131.7,34.7,131.7,34.4z M103.2,34.9h4c0.3,0,0.5-0.2,0.5-0.5
	s-0.2-0.5-0.5-0.5h-4c-0.3,0-0.5,0.2-0.5,0.5S102.9,34.9,103.2,34.9z M111.2,34.9h4c0.3,0,0.5-0.2,0.5-0.5s-0.2-0.5-0.5-0.5h-4
	c-0.3,0-0.5,0.2-0.5,0.5S110.9,34.9,111.2,34.9z M99.7,34.4c0-0.3-0.2-0.5-0.5-0.5h-4c-0.3,0-0.5,0.2-0.5,0.5s0.2,0.5,0.5,0.5h4
	C99.5,34.9,99.7,34.7,99.7,34.4z M123.7,34.4c0-0.3-0.2-0.5-0.5-0.5h-4c-0.3,0-0.5,0.2-0.5,0.5s0.2,0.5,0.5,0.5h4
	C123.5,34.9,123.7,34.7,123.7,34.4z M91.2,33.9h-4c-0.3,0-0.5,0.2-0.5,0.5s0.2,0.5,0.5,0.5h4c0.3,0,0.5-0.2,0.5-0.5
	S91.5,33.9,91.2,33.9z"/>
</svg>
