<?xml version="1.0" encoding="utf-8"?>
<!-- Generator: Adobe Illustrator 19.0.0, SVG Export Plug-In . SVG Version: 6.00 Build 0)  -->
<svg version="1.1" id="Camada_1" xmlns="http://www.w3.org/2000/svg" xmlns:xlink="http://www.w3.org/1999/xlink" x="0px" y="0px"
	 viewBox="0 0 256 256" style="enable-background:new 0 0 256 256;" xml:space="preserve">
<style type="text/css">
	
</style>
<path d="M246.2,150.4c-0.2-2-1.5-3.6-3.3-4.4c0.6-5.2-0.6-9.5-3.5-12.7c-5.2-5.6-15.6-8-31-6.9
	c-15.1,1-21.9-0.8-29.8-4.8c-2.9-1.5-12.3-8.1-23.2-15.9l0.5-0.6c0.3-0.4,0.3-1.1-0.2-1.4c-0.4-0.3-1.1-0.3-1.4,0.2l-0.5,0.7
	c-2.3-1.7-4.7-3.4-7.1-5.1l0.7-0.9c0.3-0.4,0.3-1.1-0.2-1.4c-0.4-0.3-1.1-0.3-1.4,0.2l-0.8,1c-2.4-1.7-4.8-3.5-7.1-5.2l0.7-0.8
	c0.3-0.4,0.3-1.1-0.2-1.4c-0.4-0.3-1.1-0.3-1.4,0.2l-0.7,0.9c-2.5-1.8-4.9-3.6-7.2-5.3l0.7-0.9c0.3-0.4,0.3-1.1-0.2-1.4
	c-0.4-0.3-1.1-0.3-1.4,0.2l-0.7,0.9c-1.1-0.8-2.1-1.6-3.1-2.3c-2.1-1.6-4.9-1.6-7-0.2c-1.4,0.9-3,2.1-4.9,3.4
	c-9,6.4-22.6,16.1-37.2,17.5c-13.1,1.3-30.2-4.6-41.4-8.5c-3.5-1.2-6.5-2.3-8.7-2.8c-2.2-0.6-4.6,0.3-6,2.2
	c-10.5,14.1-8,31.3-6.2,36.2c1.3,3.7,3.2,5.9,4.4,6.9l-2,2.1c-2,2.1-2.9,4.8-2.7,7.7l1.7,20.7c0.3,2.5,2.4,4.5,4.9,4.5h52.3
	c2.7,0,4.9-2.2,4.9-4.9v-7c8.9,0.2,20.3,2.3,33.4,4.7c19.4,3.6,43.5,8.1,70.3,8.1c36.2,0,56.7-9.7,63.8-13.8c1.7-1,2.7-2.9,2.6-5
	L246.2,150.4z M208.5,128.4c14.5-1,24.7,1.2,29.4,6.3c2.7,2.9,3.7,6.9,2.9,11.9l-0.1,0.8l0.2,0.1c-2.7,2.5-17,13.6-56.4,13.6
	c-41.2,0-67.2-6-88.2-10.9c-4.4-1-8.5-2-12.5-2.8c-4.6-1-9.3-2-14-2.9c0.9-2.9,5.6-14.7,25.5-18.3c21.4-3.9,49.4,3.6,49.7,3.7
	l0.4,0.1l0.3-0.2c0.4-0.2,10.2-5.5,13.6-18.8c8.5,6,15.8,11,18.3,12.4C185.7,127.5,193,129.5,208.5,128.4z M14.8,130.2
	c-1.6-4.7-4-21,6-34.4c0.9-1.2,2.4-1.8,3.8-1.4c2.1,0.6,5.1,1.6,8.6,2.8c11.4,4,28.7,9.9,42.3,8.6c11-1,21.3-6.6,29.7-12
	c0.1,0,0.1,0,0.2,0s0.3-0.1,0.4-0.2s0.1-0.2,0.1-0.3c2.9-1.9,5.5-3.8,7.8-5.5c1.8-1.3,3.4-2.5,4.8-3.4c1.4-1,3.3-0.9,4.8,0.2
	c0.6,0.4,1.6,1.2,3,2.3l-1.8,2.3c-0.5-0.2-1-0.4-1.6-0.4c-2.2,0-4,1.8-4,4s1.8,4,4,4c2.2,0,4-1.8,4-4c0-0.9-0.3-1.7-0.8-2.4L128,88
	c2,1.5,4.4,3.3,7.2,5.3l-2.3,2.9c-0.5-0.2-1-0.3-1.5-0.3c-2.2,0-4,1.8-4,4s1.8,4,4,4c2.2,0,4-1.8,4-4c0-1-0.3-1.8-0.9-2.5l2.3-2.9
	c2.2,1.6,4.7,3.4,7.2,5.2l-2.6,3.3c-0.5-0.2-0.9-0.3-1.5-0.3c-2.2,0-4,1.8-4,4s1.8,4,4,4c2.2,0,4-1.8,4-4c0-1-0.4-1.8-0.9-2.5
	l2.6-3.3c2.3,1.7,4.7,3.4,7.1,5.1l-2.8,3.6c-0.4-0.2-0.9-0.3-1.4-0.3c-2.2,0-4,1.8-4,4s1.8,4,4,4s4-1.8,4-4c0-1-0.4-1.9-0.9-2.5
	l2.8-3.6c1.3,0.9,2.6,1.9,3.9,2.8l-0.5-0.1c-2.6,11.4-10.7,16.8-12.4,17.9c-1.4-0.4-6.2-1.6-12.8-2.7c0-0.1,0-0.2,0-0.2
	c-0.1-0.3-0.4-0.4-0.6-0.3s-0.3,0.2-0.3,0.4c-10.2-1.7-24.2-3-36.3-0.8c-21.3,3.9-26.3,16.9-27.1,19.9c-17.8-3.5-35.4-6.5-47.5-6.7
	l0,0l-1-0.6C19.3,136.7,16.5,134.9,14.8,130.2z M124.8,92.9c0,1.1-0.9,2-2,2c-1.1,0-2-0.9-2-2s0.9-2,2-2c0.1,0,0.2,0,0.3,0l-1.1,1.3
	c-0.3,0.4-0.3,1.1,0.2,1.4c0.2,0.1,0.4,0.2,0.6,0.2c0.3,0,0.6-0.1,0.8-0.4l1.1-1.4C124.7,92.4,124.8,92.6,124.8,92.9z M133.3,100
	c0,1.1-0.9,2-2,2c-1.1,0-2-0.9-2-2s0.9-2,2-2h0.1l-1,1.3c-0.3,0.4-0.3,1.1,0.2,1.4c0.2,0.1,0.4,0.2,0.6,0.2c0.3,0,0.6-0.1,0.8-0.4
	l1.1-1.4C133.2,99.4,133.3,99.7,133.3,100z M141.8,106.9c0,1.1-0.9,2-2,2c-1.1,0-2-0.9-2-2s0.9-2,2-2h0.1l-0.9,1.2
	c-0.3,0.4-0.3,1.1,0.2,1.4c0.2,0.1,0.4,0.2,0.6,0.2c0.3,0,0.6-0.1,0.8-0.4l1-1.3C141.7,106.3,141.8,106.6,141.8,106.9z M150.3,113.5
	c0,1.1-0.9,2-2,2c-1.1,0-2-0.9-2-2s0.9-2,2-2h0.1l-1,1.3c-0.3,0.4-0.3,1.1,0.2,1.4c0.2,0.1,0.4,0.2,0.6,0.2c0.3,0,0.6-0.1,0.8-0.4
	l1.1-1.4C150.2,112.9,150.3,113.2,150.3,113.5z M243,158c-7,4.1-27.1,13.6-62.8,13.6c-26.7,0-50.7-4.5-70-8.1
	c-13.7-2.5-25.5-4.7-34.7-4.7h-1v9c0,1.6-1.3,2.9-2.9,2.9H19.3c-1.5,0-2.8-1.2-2.9-2.7l-1.7-20.7c-0.2-2.3,0.6-4.5,2.1-6.1l2.6-2.8
	c15.6,0.1,41.2,5.1,64.2,10c4,0.9,8.1,1.8,12.5,2.8c21,4.9,47.1,10.9,88.4,10.9c42.3,0,55.8-12.5,57.5-14.3c1.2,0.4,2.1,1.5,2.2,2.8
	l0.4,4.4C244.7,156.2,244,157.4,243,158z M130.8,123.1c0.1,0.2,0.3,0.4,0.5,0.4h0.1c0.3-0.1,0.4-0.4,0.3-0.6
	c-0.2-0.6-0.4-1.3-0.7-1.9c-0.1-0.3-0.4-0.4-0.6-0.3c-0.3,0.1-0.4,0.4-0.3,0.6C130.4,121.8,130.6,122.5,130.8,123.1z M128.5,117.6
	c0.1,0.2,0.3,0.3,0.4,0.3c0.1,0,0.2,0,0.2-0.1c0.2-0.1,0.3-0.4,0.2-0.7c-0.3-0.6-0.7-1.2-1-1.8c-0.1-0.2-0.4-0.3-0.7-0.2
	c-0.2,0.1-0.3,0.5-0.2,0.7C127.9,116.5,128.2,117.1,128.5,117.6z M125.3,112.6c0.1,0.1,0.3,0.2,0.4,0.2c0.1,0,0.2,0,0.3-0.1
	c0.2-0.2,0.3-0.5,0.1-0.7c-0.4-0.5-0.8-1.1-1.2-1.6c-0.2-0.2-0.5-0.3-0.7-0.1c-0.2,0.2-0.3,0.5-0.1,0.7
	C124.5,111.6,124.9,112.1,125.3,112.6z M108.3,96c0.1,0.1,0.2,0.1,0.3,0.1c0.2,0,0.3-0.1,0.4-0.2c0.2-0.2,0.1-0.5-0.1-0.7
	c-0.6-0.4-1.1-0.9-1.6-1.2c-0.2-0.2-0.5-0.1-0.7,0.1s-0.1,0.5,0.1,0.7C107.2,95.2,107.7,95.6,108.3,96z M113,99.7
	c0.1,0.1,0.2,0.1,0.3,0.1c0.1,0,0.3-0.1,0.4-0.2c0.2-0.2,0.2-0.5-0.1-0.7c-0.5-0.4-1-0.9-1.5-1.3c-0.2-0.2-0.5-0.1-0.7,0.1
	s-0.1,0.5,0.1,0.7C111.9,98.9,112.4,99.3,113,99.7z M117.4,103.7c0.1,0.1,0.2,0.1,0.3,0.1c0.1,0,0.3-0.1,0.4-0.2
	c0.2-0.2,0.2-0.5,0-0.7c-0.5-0.5-1-0.9-1.5-1.4c-0.2-0.2-0.5-0.2-0.7,0s-0.2,0.5,0,0.7C116.4,102.8,116.9,103.3,117.4,103.7z
	 M121.6,108c0.1,0.1,0.2,0.2,0.4,0.2c0.1,0,0.2,0,0.3-0.1c0.2-0.2,0.2-0.5,0-0.7c-0.5-0.5-0.9-1-1.4-1.5c-0.2-0.2-0.5-0.2-0.7,0
	s-0.2,0.5,0,0.7C120.7,107,121.1,107.5,121.6,108z"/>
</svg>
