<?xml version="1.0" encoding="utf-8"?>
<!-- Generator: Adobe Illustrator 19.0.0, SVG Export Plug-In . SVG Version: 6.00 Build 0)  -->
<svg version="1.1" id="Camada_1" xmlns="http://www.w3.org/2000/svg" xmlns:xlink="http://www.w3.org/1999/xlink" x="0px" y="0px"
	 viewBox="0 0 256 256" style="enable-background:new 0 0 256 256;" xml:space="preserve">
<style type="text/css">
	
</style>
<path d="M229.6,91.4h-22.2c-3-41.2-37.4-73.9-79.4-73.9s-76.5,32.7-79.4,74H26.4c-3.1,0-5.6,2.5-5.6,5.6
	s2.5,5.6,5.6,5.6H31c2.8,49.2,42,88.2,90.7,91.3v28.6h-31c-7.9,0-14.3,6.2-14.8,13.9h-0.2v2H181v-2h-0.1c-0.5-7.7-7-13.9-14.8-13.9
	h-31.8V194c48.7-3.1,87.9-42.1,90.7-91.4h4.6c3.1,0,5.6-2.5,5.6-5.6S232.7,91.4,229.6,91.4z M128,176.7c42,0,76.6-32.8,79.4-74.1
	h9.2c-2.9,46.7-41.7,83.2-88.6,83.2c-46.8,0-85.6-36.5-88.6-83.1h9.2C51.5,144,86,176.7,128,176.7z M128,19.5
	c42.8,0,77.6,34.8,77.6,77.6s-34.8,77.6-77.6,77.6s-77.6-34.8-77.6-77.6S85.2,19.5,128,19.5z M21.8,97.1c0-2.5,2.1-4.6,4.6-4.6h22.1
	c-0.1,1.5-0.1,3.1-0.1,4.6s0.1,3.1,0.1,4.6H26.4C23.9,101.7,21.8,99.6,21.8,97.1z M179.9,236.5H76.8c0.5-7.2,6.5-12.9,13.8-12.9H166
	C173.4,223.6,179.4,229.3,179.9,236.5z M132.3,222.6h-8.6v-28.5c1.4,0.1,2.9,0.1,4.3,0.1c1.4,0,2.9,0,4.3-0.1
	C132.3,194.1,132.3,222.6,132.3,222.6z M128,192.2c-50.5,0-92.1-39.3-95-89.5h5.4c3,47.2,42.2,84.1,89.6,84.1s86.7-37,89.6-84.2h5.4
	C220.1,152.9,178.4,192.2,128,192.2z M229.6,101.6h-22.1c0.1-1.5,0.1-3,0.1-4.5c0-1.6-0.1-3.1-0.2-4.7h22.2c2.5,0,4.6,2.1,4.6,4.6
	S232.1,101.6,229.6,101.6z M192.4,87c-0.2-1.3-0.5-2.6-0.7-3.9l-1,0.2c0.3,1.3,0.5,2.6,0.7,3.9L192.4,87z M181.6,132.5l0.8,0.6
	c0.7-1.1,1.4-2.3,2.1-3.4l-0.9-0.5C183,130.2,182.3,131.4,181.6,132.5z M190.7,79.2c-0.4-1.3-0.8-2.6-1.2-3.8l-0.9,0.3
	c0.4,1.2,0.8,2.5,1.2,3.8L190.7,79.2z M188,71.6c-0.5-1.2-1.1-2.4-1.7-3.6l-0.9,0.4c0.6,1.2,1.1,2.4,1.7,3.6L188,71.6z M176.8,138.8
	l0.8,0.6c0.9-1,1.7-2.1,2.5-3.1l-0.8-0.6C178.5,136.7,177.7,137.8,176.8,138.8z M185.5,125.6l0.9,0.4c0.6-1.2,1.2-2.4,1.7-3.7
	l-0.9-0.4C186.7,123.2,186.1,124.4,185.5,125.6z M180,57.8c-0.8-1.1-1.7-2.1-2.5-3.1l-0.8,0.7c0.8,1,1.7,2,2.5,3.1L180,57.8z
	 M158.5,153.6l0.5,0.9c1.2-0.6,2.3-1.3,3.5-2l-0.5-0.8C160.8,152.3,159.7,153,158.5,153.6z M168.9,46.3c-1-0.8-2.1-1.7-3.2-2.4
	l-0.6,0.8c1.1,0.8,2.1,1.6,3.2,2.4L168.9,46.3z M165.2,149.4l0.6,0.8c1.1-0.8,2.2-1.6,3.2-2.4l-0.6-0.8
	C167.3,147.9,166.3,148.7,165.2,149.4z M174.8,51.7c-0.9-1-1.9-1.9-2.9-2.8l-0.7,0.7c1,0.9,1.9,1.8,2.8,2.7L174.8,51.7z
	 M171.4,144.5l0.7,0.7c1-0.9,1.9-1.8,2.9-2.8l-0.7-0.7C173.3,142.6,172.3,143.6,171.4,144.5z M97.4,154.7c1.2,0.6,2.4,1.2,3.6,1.8
	l0.4-0.9c-1.2-0.5-2.4-1.1-3.5-1.8L97.4,154.7z M90.5,150.5c1.1,0.8,2.2,1.5,3.4,2.2l0.5-0.9c-1.1-0.7-2.2-1.4-3.3-2.2L90.5,150.5z
	 M162.3,41.6c-1.1-0.7-2.3-1.4-3.5-2l-0.5,0.9c1.2,0.6,2.3,1.3,3.4,2L162.3,41.6z M104.7,158c1.2,0.5,2.5,0.9,3.8,1.3l0.3-1
	c-1.3-0.4-2.5-0.8-3.7-1.3L104.7,158z M78.6,139.7c0.9,1,1.8,2,2.7,3L82,142c-0.9-0.9-1.8-1.9-2.7-2.9L78.6,139.7z M84.3,145.4
	c1,0.9,2,1.8,3.1,2.6l0.6-0.8c-1-0.8-2-1.7-3-2.6L84.3,145.4z M112.3,160.4c1.3,0.3,2.6,0.6,3.9,0.8l0.2-1c-1.3-0.2-2.6-0.5-3.9-0.8
	L112.3,160.4z M190.8,110.7l1,0.2c0.3-1.3,0.5-2.6,0.7-3.9l-1-0.2C191.3,108.1,191,109.4,190.8,110.7z M191.9,102.9l1,0.1
	c0.1-1.3,0.2-2.7,0.2-4h-1C192.1,100.3,192.1,101.6,191.9,102.9z M192.2,95h1c0-1.3-0.1-2.7-0.2-4l-1,0.1
	C192,92.4,192.1,93.7,192.2,95z M120.2,161.8c1.3,0.2,2.7,0.3,4,0.4l0.1-1c-1.3-0.1-2.6-0.2-3.9-0.3L120.2,161.8z M188.6,118.3
	l0.9,0.3c0.4-1.2,0.8-2.5,1.2-3.8l-1-0.3C189.4,115.8,189,117.1,188.6,118.3z M128.2,161.3v1c1.3,0,2.7,0,4-0.1l-0.1-1
	C130.9,161.2,129.5,161.3,128.2,161.3z M184.4,64.4c-0.7-1.2-1.4-2.3-2.1-3.4l-0.8,0.6c0.7,1.1,1.4,2.2,2.1,3.4L184.4,64.4z
	 M66.1,79.8l-1-0.3c-0.4,1.3-0.7,2.6-1,3.9l1,0.2C65.5,82.4,65.8,81.1,66.1,79.8z M87.5,47.3l-0.6-0.8c-1,0.8-2.1,1.7-3,2.6l0.7,0.7
	C85.5,49,86.5,48.1,87.5,47.3z M76.6,58.7l-0.8-0.6c-0.8,1.1-1.6,2.2-2.3,3.3l0.8,0.5C75,60.8,75.8,59.7,76.6,58.7z M81.7,52.7
	L81,52c-0.9,1-1.8,2-2.7,3l0.8,0.6C79.9,54.6,80.8,53.6,81.7,52.7z M73.8,133.3c0.7,1.1,1.5,2.2,2.3,3.3l0.8-0.6
	c-0.8-1-1.6-2.1-2.3-3.2L73.8,133.3z M63.8,97.1c0-0.6,0-1.1,0-1.7h-1c0,0.6,0,1.1,0,1.7c0,0.8,0,1.6,0,2.3h1
	C63.8,98.6,63.8,97.9,63.8,97.1z M64.5,87.6l-1-0.1c-0.2,1.3-0.4,2.7-0.5,4l1,0.1C64.2,90.2,64.3,88.9,64.5,87.6z M72.2,65.3
	l-0.9-0.5c-0.7,1.2-1.3,2.4-1.9,3.5l0.9,0.4C70.9,67.6,71.6,66.4,72.2,65.3z M64.1,103.3l-1,0.1c0.1,1.3,0.3,2.7,0.5,4l1-0.2
	C64.4,106,64.2,104.6,64.1,103.3z M69.7,126.4c0.6,1.2,1.2,2.4,1.9,3.5l0.9-0.5c-0.7-1.1-1.3-2.3-1.9-3.5L69.7,126.4z M66.6,119.1
	c0.4,1.2,0.9,2.5,1.5,3.7l0.9-0.4c-0.5-1.2-1-2.4-1.4-3.7L66.6,119.1z M64.4,111.3c0.3,1.3,0.6,2.6,1,3.9l1-0.3
	c-0.4-1.3-0.7-2.5-1-3.8L64.4,111.3z M68.7,72.4L67.8,72c-0.5,1.2-1,2.5-1.4,3.8l0.9,0.3C67.8,74.8,68.2,73.6,68.7,72.4z
	 M136.2,161.8c1.3-0.2,2.7-0.4,4-0.6l-0.2-1c-1.3,0.2-2.6,0.4-3.9,0.6L136.2,161.8z M151.4,156.9l0.4,0.9c1.2-0.5,2.5-1,3.7-1.6
	l-0.4-0.9C153.8,155.9,152.6,156.4,151.4,156.9z M147.7,34.9c-1.3-0.4-2.6-0.8-3.9-1.1l-0.2,1c1.3,0.3,2.6,0.7,3.8,1.1L147.7,34.9z
	 M140,33c-1.3-0.2-2.6-0.4-4-0.6l-0.1,1c1.3,0.2,2.6,0.4,3.9,0.6L140,33z M93.9,42.7l-0.5-0.8c-1.1,0.7-2.2,1.5-3.3,2.2l0.6,0.8
	C91.7,44.1,92.8,43.4,93.9,42.7z M128,32.9c1.3,0,2.6,0,3.9,0.1l0.1-1c-1.3-0.1-2.7-0.1-4-0.1h-0.4v1H128z M143.8,159.3l0.2,1
	c1.3-0.3,2.6-0.7,3.9-1.1l-0.3-1C146.4,158.6,145.1,159,143.8,159.3z M155.2,37.8c-1.2-0.6-2.5-1.1-3.7-1.6l-0.4,0.9
	c1.2,0.5,2.5,1,3.6,1.5L155.2,37.8z M115.8,34.1l-0.2-1c-1.3,0.3-2.6,0.5-3.9,0.9l0.2,1C113.2,34.6,114.5,34.3,115.8,34.1z
	 M100.8,38.9l-0.4-0.9c-1.2,0.6-2.4,1.2-3.6,1.8l0.5,0.9C98.4,40.1,99.6,39.5,100.8,38.9z M108.2,36l-0.3-1
	c-1.3,0.4-2.5,0.9-3.8,1.4l0.4,0.9C105.7,36.9,106.9,36.4,108.2,36z M123.6,33l-0.1-1c-1.3,0.1-2.7,0.2-4,0.4l0.1,1
	C121,33.3,122.3,33.1,123.6,33z M131.6,48.3l-44.5,78c-0.1,0.2-0.1,0.5,0.2,0.7c0.1,0,0.2,0.1,0.2,0.1c0.2,0,0.3-0.1,0.4-0.3
	l44.5-78c0.1-0.2,0.1-0.5-0.2-0.7S131.7,48,131.6,48.3z M81.4,100.3c0.1,0,0.2,0.1,0.2,0.1c0.2,0,0.3-0.1,0.4-0.3l27.2-47.5
	c0.1-0.2,0.1-0.5-0.2-0.7c-0.2-0.1-0.5-0.1-0.7,0.2L81.1,99.6C81,99.9,81.1,100.2,81.4,100.3z"/>
</svg>
