<?xml version="1.0" encoding="utf-8"?>
<!-- Generator: Adobe Illustrator 19.0.0, SVG Export Plug-In . SVG Version: 6.00 Build 0)  -->
<svg version="1.1" id="Camada_1" xmlns="http://www.w3.org/2000/svg" xmlns:xlink="http://www.w3.org/1999/xlink" x="0px" y="0px"
	 viewBox="0 0 256 256" style="enable-background:new 0 0 256 256;" xml:space="preserve">
<style type="text/css">
	
</style>
<path d="M145.6,146.9c0.1,0,0.2,0.1,0.2,0.1c0.2,0,0.3-0.1,0.4-0.3l53.7-94.2c0.1-0.2,0.1-0.5-0.2-0.7
	c-0.2-0.1-0.5-0.1-0.7,0.2l-53.7,94.2C145.2,146.5,145.3,146.8,145.6,146.9z M212.5,75c-0.2-0.1-0.5-0.1-0.7,0.2l-36.5,64.1
	c-0.1,0.2-0.1,0.5,0.2,0.7c0.1,0,0.2,0.1,0.2,0.1c0.2,0,0.3-0.1,0.4-0.3l36.5-64.1C212.9,75.4,212.8,75.1,212.5,75z M233.9,29.3
	H22.1c-6,0-10.8,4.8-10.8,10.8v139.7c0,6,4.8,10.8,10.8,10.8H104v9.2c0,14.2-5.2,15.8-9.1,15.8h-3.1c-3,0-5.6,2.6-5.6,5.6
	s2.6,5.6,5.6,5.6h72.3c3,0,5.6-2.6,5.6-5.6s-2.6-5.6-5.6-5.6H161c-3.9,0-9.1-1.6-9.1-15.8v-9.2h81.9c6,0,10.9-4.8,10.9-10.8V40.1
	C244.7,34.1,239.9,29.3,233.9,29.3z M164.1,217.6c2,0,3.6,1.6,3.6,3.6s-1.6,3.6-3.6,3.6H91.8c-2,0-3.6-1.6-3.6-3.6s1.6-3.6,3.6-3.6
	H164.1z M154.8,215.6h-53.6c3.3-2.6,4.9-7.8,4.9-15.8v-9.2H150v9.2C149.9,207.8,151.5,213,154.8,215.6z M242.7,179.8
	c0,4.9-4,8.8-8.9,8.8H22.1c-4.9,0-8.8-3.9-8.8-8.8V40.1c0-4.9,3.9-8.8,8.8-8.8h211.8c4.9,0,8.8,3.9,8.8,8.8
	C242.7,40.1,242.7,179.8,242.7,179.8z M19.3,110.2c0.3,0,0.5-0.2,0.5-0.5v-4c0-0.3-0.2-0.5-0.5-0.5s-0.5,0.2-0.5,0.5v4
	C18.8,110,19,110.2,19.3,110.2z M74.1,159.5h-4c-0.3,0-0.5,0.2-0.5,0.5s0.2,0.5,0.5,0.5h4c0.3,0,0.5-0.2,0.5-0.5
	S74.4,159.5,74.1,159.5z M26.1,159.5h-4c-0.3,0-0.5,0.2-0.5,0.5s0.2,0.5,0.5,0.5h4c0.3,0,0.5-0.2,0.5-0.5S26.4,159.5,26.1,159.5z
	 M32.7,37.6c0-0.3-0.2-0.5-0.5-0.5h-4c-0.3,0-0.5,0.2-0.5,0.5s0.2,0.5,0.5,0.5h4C32.5,38.1,32.7,37.9,32.7,37.6z M19.3,118.2
	c0.3,0,0.5-0.2,0.5-0.5v-4c0-0.3-0.2-0.5-0.5-0.5s-0.5,0.2-0.5,0.5v4C18.8,118,19,118.2,19.3,118.2z M19.3,126.2
	c0.3,0,0.5-0.2,0.5-0.5v-4c0-0.3-0.2-0.5-0.5-0.5s-0.5,0.2-0.5,0.5v4C18.8,126,19,126.2,19.3,126.2z M19.3,150.2
	c0.3,0,0.5-0.2,0.5-0.5v-4c0-0.3-0.2-0.5-0.5-0.5s-0.5,0.2-0.5,0.5v4C18.8,150,19,150.2,19.3,150.2z M19.3,134.2
	c0.3,0,0.5-0.2,0.5-0.5v-4c0-0.3-0.2-0.5-0.5-0.5s-0.5,0.2-0.5,0.5v4C18.8,134,19,134.2,19.3,134.2z M19.8,153.7
	c0-0.3-0.2-0.5-0.5-0.5s-0.5,0.2-0.5,0.5v3.8c0,0.1,0,0.2,0,0.3c0,0.3,0.2,0.5,0.5,0.5l0,0c0.3,0,0.5-0.3,0.5-0.5c0-0.1,0-0.1,0-0.2
	V153.7z M56.7,37.6c0-0.3-0.2-0.5-0.5-0.5h-4c-0.3,0-0.5,0.2-0.5,0.5s0.2,0.5,0.5,0.5h4C56.5,38.1,56.7,37.9,56.7,37.6z M64.7,37.6
	c0-0.3-0.2-0.5-0.5-0.5h-4c-0.3,0-0.5,0.2-0.5,0.5s0.2,0.5,0.5,0.5h4C64.5,38.1,64.7,37.9,64.7,37.6z M58.1,159.5h-4
	c-0.3,0-0.5,0.2-0.5,0.5s0.2,0.5,0.5,0.5h4c0.3,0,0.5-0.2,0.5-0.5S58.4,159.5,58.1,159.5z M72.7,37.6c0-0.3-0.2-0.5-0.5-0.5h-4
	c-0.3,0-0.5,0.2-0.5,0.5s0.2,0.5,0.5,0.5h4C72.5,38.1,72.7,37.9,72.7,37.6z M34.1,159.5h-4c-0.3,0-0.5,0.2-0.5,0.5s0.2,0.5,0.5,0.5
	h4c0.3,0,0.5-0.2,0.5-0.5S34.4,159.5,34.1,159.5z M66.1,159.5h-4c-0.3,0-0.5,0.2-0.5,0.5s0.2,0.5,0.5,0.5h4c0.3,0,0.5-0.2,0.5-0.5
	S66.4,159.5,66.1,159.5z M42.1,159.5h-4c-0.3,0-0.5,0.2-0.5,0.5s0.2,0.5,0.5,0.5h4c0.3,0,0.5-0.2,0.5-0.5S42.4,159.5,42.1,159.5z
	 M40.7,37.6c0-0.3-0.2-0.5-0.5-0.5h-4c-0.3,0-0.5,0.2-0.5,0.5s0.2,0.5,0.5,0.5h4C40.5,38.1,40.7,37.9,40.7,37.6z M50.1,159.5h-4
	c-0.3,0-0.5,0.2-0.5,0.5s0.2,0.5,0.5,0.5h4c0.3,0,0.5-0.2,0.5-0.5S50.4,159.5,50.1,159.5z M48.7,37.6c0-0.3-0.2-0.5-0.5-0.5h-4
	c-0.3,0-0.5,0.2-0.5,0.5s0.2,0.5,0.5,0.5h4C48.5,38.1,48.7,37.9,48.7,37.6z M24.2,38.1c0.3,0,0.5-0.2,0.5-0.5s-0.2-0.5-0.5-0.5h-2.4
	c-0.6,0-1.3,0.2-1.8,0.6c-0.2,0.2-0.3,0.5-0.1,0.7c0.1,0.1,0.3,0.2,0.4,0.2c0.1,0,0.2,0,0.3-0.1c0.3-0.2,0.7-0.4,1.2-0.4L24.2,38.1
	L24.2,38.1z M164.2,38.1h4c0.3,0,0.5-0.2,0.5-0.5s-0.2-0.5-0.5-0.5h-4c-0.3,0-0.5,0.2-0.5,0.5S163.9,38.1,164.2,38.1z M172.2,38.1h4
	c0.3,0,0.5-0.2,0.5-0.5s-0.2-0.5-0.5-0.5h-4c-0.3,0-0.5,0.2-0.5,0.5S171.9,38.1,172.2,38.1z M156.2,38.1h4c0.3,0,0.5-0.2,0.5-0.5
	s-0.2-0.5-0.5-0.5h-4c-0.3,0-0.5,0.2-0.5,0.5S155.9,38.1,156.2,38.1z M180.2,38.1h4c0.3,0,0.5-0.2,0.5-0.5s-0.2-0.5-0.5-0.5h-4
	c-0.3,0-0.5,0.2-0.5,0.5S179.9,38.1,180.2,38.1z M19.3,102.2c0.3,0,0.5-0.2,0.5-0.5v-4c0-0.3-0.2-0.5-0.5-0.5s-0.5,0.2-0.5,0.5v4
	C18.8,102,19,102.2,19.3,102.2z M212.2,38.1h4c0.3,0,0.5-0.2,0.5-0.5s-0.2-0.5-0.5-0.5h-4c-0.3,0-0.5,0.2-0.5,0.5
	S211.9,38.1,212.2,38.1z M132.2,38.1h4c0.3,0,0.5-0.2,0.5-0.5s-0.2-0.5-0.5-0.5h-4c-0.3,0-0.5,0.2-0.5,0.5S131.9,38.1,132.2,38.1z
	 M204.2,38.1h4c0.3,0,0.5-0.2,0.5-0.5s-0.2-0.5-0.5-0.5h-4c-0.3,0-0.5,0.2-0.5,0.5S203.9,38.1,204.2,38.1z M188.2,38.1h4
	c0.3,0,0.5-0.2,0.5-0.5s-0.2-0.5-0.5-0.5h-4c-0.3,0-0.5,0.2-0.5,0.5S187.9,38.1,188.2,38.1z M196.2,38.1h4c0.3,0,0.5-0.2,0.5-0.5
	s-0.2-0.5-0.5-0.5h-4c-0.3,0-0.5,0.2-0.5,0.5S195.9,38.1,196.2,38.1z M148.2,38.1h4c0.3,0,0.5-0.2,0.5-0.5s-0.2-0.5-0.5-0.5h-4
	c-0.3,0-0.5,0.2-0.5,0.5S147.9,38.1,148.2,38.1z M19.3,86.2c0.3,0,0.5-0.2,0.5-0.5v-4c0-0.3-0.2-0.5-0.5-0.5s-0.5,0.2-0.5,0.5v4
	C18.8,86,19,86.2,19.3,86.2z M19.3,78.2c0.3,0,0.5-0.2,0.5-0.5v-4c0-0.3-0.2-0.5-0.5-0.5s-0.5,0.2-0.5,0.5v4
	C18.8,78,19,78.2,19.3,78.2z M19.3,70.2c0.3,0,0.5-0.2,0.5-0.5v-4c0-0.3-0.2-0.5-0.5-0.5s-0.5,0.2-0.5,0.5v4
	C18.8,70,19,70.2,19.3,70.2z M19.3,94.2c0.3,0,0.5-0.2,0.5-0.5v-4c0-0.3-0.2-0.5-0.5-0.5s-0.5,0.2-0.5,0.5v4
	C18.8,94,19,94.2,19.3,94.2z M19.3,46.2c0.3,0,0.5-0.2,0.5-0.5v-4c0-0.3-0.2-0.5-0.5-0.5s-0.5,0.2-0.5,0.5v4
	C18.8,46,19,46.2,19.3,46.2z M19.3,62.2c0.3,0,0.5-0.2,0.5-0.5v-4c0-0.3-0.2-0.5-0.5-0.5s-0.5,0.2-0.5,0.5v4
	C18.8,62,19,62.2,19.3,62.2z M125.6,160c0,0.3,0.2,0.5,0.5,0.5h4c0.3,0,0.5-0.2,0.5-0.5s-0.2-0.5-0.5-0.5h-4
	C125.8,159.5,125.6,159.7,125.6,160z M124.2,38.1h4c0.3,0,0.5-0.2,0.5-0.5s-0.2-0.5-0.5-0.5h-4c-0.3,0-0.5,0.2-0.5,0.5
	S123.9,38.1,124.2,38.1z M19.3,54.2c0.3,0,0.5-0.2,0.5-0.5v-4c0-0.3-0.2-0.5-0.5-0.5s-0.5,0.2-0.5,0.5v4C18.8,54,19,54.2,19.3,54.2z
	 M19.3,142.2c0.3,0,0.5-0.2,0.5-0.5v-4c0-0.3-0.2-0.5-0.5-0.5s-0.5,0.2-0.5,0.5v4C18.8,142,19,142.2,19.3,142.2z M236.6,141.8
	c-0.3,0-0.5,0.2-0.5,0.5v4c0,0.3,0.2,0.5,0.5,0.5c0.3,0,0.5-0.2,0.5-0.5v-4C237.1,142,236.9,141.8,236.6,141.8z M236.6,149.8
	c-0.3,0-0.5,0.2-0.5,0.5v4c0,0.3,0.2,0.5,0.5,0.5c0.3,0,0.5-0.2,0.5-0.5v-4C237.1,150,236.9,149.8,236.6,149.8z M236.6,117.8
	c-0.3,0-0.5,0.2-0.5,0.5v4c0,0.3,0.2,0.5,0.5,0.5c0.3,0,0.5-0.2,0.5-0.5v-4C237.1,118,236.9,117.8,236.6,117.8z M236.6,133.8
	c-0.3,0-0.5,0.2-0.5,0.5v4c0,0.3,0.2,0.5,0.5,0.5c0.3,0,0.5-0.2,0.5-0.5v-4C237.1,134,236.9,133.8,236.6,133.8z M236.6,157.8
	c-0.3-0.1-0.5,0.1-0.6,0.3c-0.3,0.8-1,1.4-1.9,1.4h-4c-0.3,0-0.5,0.2-0.5,0.5s0.2,0.5,0.5,0.5h4c1.3,0,2.5-0.8,2.9-2.1
	C237,158.2,236.9,157.9,236.6,157.8z M236.6,125.8c-0.3,0-0.5,0.2-0.5,0.5v4c0,0.3,0.2,0.5,0.5,0.5c0.3,0,0.5-0.2,0.5-0.5v-4
	C237.1,126,236.9,125.8,236.6,125.8z M218.1,159.5h-4c-0.3,0-0.5,0.2-0.5,0.5s0.2,0.5,0.5,0.5h4c0.3,0,0.5-0.2,0.5-0.5
	S218.4,159.5,218.1,159.5z M210.1,159.5h-4c-0.3,0-0.5,0.2-0.5,0.5s0.2,0.5,0.5,0.5h4c0.3,0,0.5-0.2,0.5-0.5
	S210.4,159.5,210.1,159.5z M202.1,159.5h-4c-0.3,0-0.5,0.2-0.5,0.5s0.2,0.5,0.5,0.5h4c0.3,0,0.5-0.2,0.5-0.5
	S202.4,159.5,202.1,159.5z M224.7,37.6c0-0.3-0.2-0.5-0.5-0.5h-4c-0.3,0-0.5,0.2-0.5,0.5s0.2,0.5,0.5,0.5h4
	C224.5,38.1,224.7,37.9,224.7,37.6z M232.7,37.6c0-0.3-0.2-0.5-0.5-0.5h-4c-0.3,0-0.5,0.2-0.5,0.5s0.2,0.5,0.5,0.5h4
	C232.5,38.1,232.7,37.9,232.7,37.6z M226.1,159.5h-4c-0.3,0-0.5,0.2-0.5,0.5s0.2,0.5,0.5,0.5h4c0.3,0,0.5-0.2,0.5-0.5
	S226.4,159.5,226.1,159.5z M236.6,53.8c-0.3,0-0.5,0.2-0.5,0.5v4c0,0.3,0.2,0.5,0.5,0.5c0.3,0,0.5-0.2,0.5-0.5v-4
	C237.1,54,236.9,53.8,236.6,53.8z M236.6,61.8c-0.3,0-0.5,0.2-0.5,0.5v4c0,0.3,0.2,0.5,0.5,0.5c0.3,0,0.5-0.2,0.5-0.5v-4
	C237.1,62,236.9,61.8,236.6,61.8z M236.6,45.8c-0.3,0-0.5,0.2-0.5,0.5v4c0,0.3,0.2,0.5,0.5,0.5c0.3,0,0.5-0.2,0.5-0.5v-4
	C237.1,46,236.9,45.8,236.6,45.8z M235.7,38.1c-0.2,0.2-0.2,0.5,0,0.7c0.3,0.4,0.5,0.8,0.5,1.3v2.2c0,0.3,0.2,0.5,0.5,0.5
	s0.5-0.2,0.5-0.5v-2.2c0-0.7-0.3-1.4-0.7-2C236.2,37.9,235.9,37.9,235.7,38.1z M236.6,69.8c-0.3,0-0.5,0.2-0.5,0.5v4
	c0,0.3,0.2,0.5,0.5,0.5c0.3,0,0.5-0.2,0.5-0.5v-4C237.1,70,236.9,69.8,236.6,69.8z M236.6,93.8c-0.3,0-0.5,0.2-0.5,0.5v4
	c0,0.3,0.2,0.5,0.5,0.5c0.3,0,0.5-0.2,0.5-0.5v-4C237.1,94,236.9,93.8,236.6,93.8z M236.6,77.8c-0.3,0-0.5,0.2-0.5,0.5v4
	c0,0.3,0.2,0.5,0.5,0.5c0.3,0,0.5-0.2,0.5-0.5v-4C237.1,78,236.9,77.8,236.6,77.8z M236.6,109.8c-0.3,0-0.5,0.2-0.5,0.5v4
	c0,0.3,0.2,0.5,0.5,0.5c0.3,0,0.5-0.2,0.5-0.5v-4C237.1,110,236.9,109.8,236.6,109.8z M236.6,101.8c-0.3,0-0.5,0.2-0.5,0.5v4
	c0,0.3,0.2,0.5,0.5,0.5c0.3,0,0.5-0.2,0.5-0.5v-4C237.1,102,236.9,101.8,236.6,101.8z M236.6,85.8c-0.3,0-0.5,0.2-0.5,0.5v4
	c0,0.3,0.2,0.5,0.5,0.5c0.3,0,0.5-0.2,0.5-0.5v-4C237.1,86,236.9,85.8,236.6,85.8z M106.1,159.5h-4c-0.3,0-0.5,0.2-0.5,0.5
	s0.2,0.5,0.5,0.5h4c0.3,0,0.5-0.2,0.5-0.5S106.4,159.5,106.1,159.5z M80.7,37.6c0-0.3-0.2-0.5-0.5-0.5h-4c-0.3,0-0.5,0.2-0.5,0.5
	s0.2,0.5,0.5,0.5h4C80.5,38.1,80.7,37.9,80.7,37.6z M98.1,159.5h-4c-0.3,0-0.5,0.2-0.5,0.5s0.2,0.5,0.5,0.5h4c0.3,0,0.5-0.2,0.5-0.5
	S98.4,159.5,98.1,159.5z M104.7,37.6c0-0.3-0.2-0.5-0.5-0.5h-4c-0.3,0-0.5,0.2-0.5,0.5s0.2,0.5,0.5,0.5h4
	C104.5,38.1,104.7,37.9,104.7,37.6z M112.7,37.6c0-0.3-0.2-0.5-0.5-0.5h-4c-0.3,0-0.5,0.2-0.5,0.5s0.2,0.5,0.5,0.5h4
	C112.5,38.1,112.7,37.9,112.7,37.6z M114.1,159.5h-4c-0.3,0-0.5,0.2-0.5,0.5s0.2,0.5,0.5,0.5h4c0.3,0,0.5-0.2,0.5-0.5
	S114.4,159.5,114.1,159.5z M120.7,37.6c0-0.3-0.2-0.5-0.5-0.5h-4c-0.3,0-0.5,0.2-0.5,0.5s0.2,0.5,0.5,0.5h4
	C120.5,38.1,120.7,37.9,120.7,37.6z M82.1,159.5h-4c-0.3,0-0.5,0.2-0.5,0.5s0.2,0.5,0.5,0.5h4c0.3,0,0.5-0.2,0.5-0.5
	S82.4,159.5,82.1,159.5z M96.7,37.6c0-0.3-0.2-0.5-0.5-0.5h-4c-0.3,0-0.5,0.2-0.5,0.5s0.2,0.5,0.5,0.5h4
	C96.5,38.1,96.7,37.9,96.7,37.6z M88.7,37.6c0-0.3-0.2-0.5-0.5-0.5h-4c-0.3,0-0.5,0.2-0.5,0.5s0.2,0.5,0.5,0.5h4
	C88.5,38.1,88.7,37.9,88.7,37.6z M90.1,159.5h-4c-0.3,0-0.5,0.2-0.5,0.5s0.2,0.5,0.5,0.5h4c0.3,0,0.5-0.2,0.5-0.5
	S90.4,159.5,90.1,159.5z M194.1,159.5h-4c-0.3,0-0.5,0.2-0.5,0.5s0.2,0.5,0.5,0.5h4c0.3,0,0.5-0.2,0.5-0.5S194.4,159.5,194.1,159.5z
	 M162.1,159.5h-4c-0.3,0-0.5,0.2-0.5,0.5s0.2,0.5,0.5,0.5h4c0.3,0,0.5-0.2,0.5-0.5S162.4,159.5,162.1,159.5z M170.1,159.5h-4
	c-0.3,0-0.5,0.2-0.5,0.5s0.2,0.5,0.5,0.5h4c0.3,0,0.5-0.2,0.5-0.5S170.4,159.5,170.1,159.5z M186.1,159.5h-4c-0.3,0-0.5,0.2-0.5,0.5
	s0.2,0.5,0.5,0.5h4c0.3,0,0.5-0.2,0.5-0.5S186.4,159.5,186.1,159.5z M154.1,159.5h-4c-0.3,0-0.5,0.2-0.5,0.5s0.2,0.5,0.5,0.5h4
	c0.3,0,0.5-0.2,0.5-0.5S154.4,159.5,154.1,159.5z M178.1,159.5h-4c-0.3,0-0.5,0.2-0.5,0.5s0.2,0.5,0.5,0.5h4c0.3,0,0.5-0.2,0.5-0.5
	S178.4,159.5,178.1,159.5z M144.7,37.6c0-0.3-0.2-0.5-0.5-0.5h-4c-0.3,0-0.5,0.2-0.5,0.5s0.2,0.5,0.5,0.5h4
	C144.5,38.1,144.7,37.9,144.7,37.6z M138.1,159.5h-4c-0.3,0-0.5,0.2-0.5,0.5s0.2,0.5,0.5,0.5h4c0.3,0,0.5-0.2,0.5-0.5
	S138.4,159.5,138.1,159.5z M146.1,159.5h-4c-0.3,0-0.5,0.2-0.5,0.5s0.2,0.5,0.5,0.5h4c0.3,0,0.5-0.2,0.5-0.5
	S146.4,159.5,146.1,159.5z M122.1,159.5h-4c-0.3,0-0.5,0.2-0.5,0.5s0.2,0.5,0.5,0.5h4c0.3,0,0.5-0.2,0.5-0.5
	S122.4,159.5,122.1,159.5z M128,168.6c-3,0-5.5,2.5-5.5,5.5s2.5,5.5,5.5,5.5s5.5-2.5,5.5-5.5S131,168.6,128,168.6z M128,178.6
	c-2.5,0-4.5-2-4.5-4.5s2-4.5,4.5-4.5s4.5,2,4.5,4.5S130.5,178.6,128,178.6z"/>
</svg>
