<?xml version="1.0" encoding="utf-8"?>
<!-- Generator: Adobe Illustrator 19.0.0, SVG Export Plug-In . SVG Version: 6.00 Build 0)  -->
<svg version="1.1" id="Camada_1" xmlns="http://www.w3.org/2000/svg" xmlns:xlink="http://www.w3.org/1999/xlink" x="0px" y="0px"
	 viewBox="0 0 256 256" style="enable-background:new 0 0 256 256;" xml:space="preserve">
<style type="text/css">
	
</style>
<path d="M75.2,176.8c-12.5-12.8-19.4-29.8-19.4-48c0-1.5,0-3,0.1-4.4c0-0.3-0.2-0.5-0.5-0.5s-0.5,0.2-0.5,0.5
	c-0.1,1.4-0.1,3-0.1,4.4c0,18.4,7,35.7,19.6,48.6c0.1,0.1,0.2,0.2,0.4,0.2c0.1,0,0.3,0,0.3-0.1C75.3,177.3,75.4,176.9,75.2,176.8z
	 M250.7,110.1c-2.3-1.8-5.6-1.6-7.6,0.6l-4.8,5.3c-3.2,3-7.4,4.6-12,4.6h-6.4v-0.1c0-1.7-0.1-3.4-0.2-5.2h8.5c4.2,0,7.6-3.2,7.6-7.2
	v-4.9c0-4-3.4-7.2-7.5-7.2h-11.8c-13.8-17.2-38.4-29.3-67.8-33.3c1.2-1.5,1.9-3.4,1.9-5.4c0-5-4.2-9-9.4-9h-26.7c-5.2,0-9.4,4-9.4,9
	c0,2,0.7,3.9,1.9,5.4c-28.9,4-54.1,16.4-67.7,33.3H27.5c-4.1,0-7.5,3.3-7.5,7.2v4.9c0,4,3.4,7.2,7.5,7.2h8.6
	c-0.1,1.7-0.2,3.4-0.2,5.2v0.1h-6.2c-4.6,0-8.8-1.6-12-4.6l-4.9-5.4c-1.9-2.2-5.3-2.4-7.6-0.6c-1.1,0.9-1.8,2.1-1.9,3.5
	c-0.1,1.4,0.3,2.7,1.3,3.8l5,5.5c0.1,0.2,0.3,0.3,0.4,0.4c5.3,4.9,12.2,7.6,19.6,7.6h6.8c2.2,21.3,11,41,25.4,56.4
	c-3.3,0.4-5.8,3-5.8,6.2v8.7c0,3.5,3,6.3,6.6,6.3h130.5c1.8,0,3.6-0.7,4.8-2c1.2-1.2,1.8-2.7,1.7-4.3v-8.7c0-3.2-2.5-5.8-5.6-6.2
	c14.4-15.5,23.2-35.2,25.4-56.4h7c7.3,0,14.2-2.7,19.6-7.7c0.1-0.1,0.3-0.2,0.4-0.4l5-5.5c1-1.1,1.4-2.4,1.3-3.8
	C252.5,112.3,251.8,111,250.7,110.1z M114.5,50.4h26.7c4.1,0,7.4,3.1,7.4,7s-3.3,7-7.4,7h-26.7c-4.1,0-7.4-3.1-7.4-7
	S110.4,50.4,114.5,50.4z M108.3,64.6l-0.1-0.5c1.7,1.4,3.8,2.3,6.2,2.3h26.7c2.1,0,4.1-0.7,5.7-1.9c28.4,3.6,53.2,15.4,67,31.6h-172
	C55.6,80,80.2,68.3,108.3,64.6z M22,108.2v-4.9c0-2.8,2.5-5.2,5.5-5.2h200.8c3,0,5.5,2.3,5.5,5.2v4.9c0,2.8-2.6,5.2-5.6,5.2H27.5
	C24.5,113.4,22,111.1,22,108.2z M29.6,129c-6.9,0-13.4-2.6-18.3-7.2l-0.1-0.1c0,0,0,0-0.1-0.1l-5-5.5c-0.6-0.7-0.9-1.5-0.8-2.3
	c0.1-0.8,0.5-1.6,1.2-2.1c1.5-1.2,3.6-1,4.8,0.4l5,5.5c3.5,3.3,8.3,5.2,13.4,5.2h6.2c0,2.1,0.2,4.2,0.3,6.3L29.6,129L29.6,129z
	 M197.6,193.6v8.7c0,1-0.4,2-1.1,2.8c-0.9,0.9-2.1,1.4-3.4,1.4H62.6c-2.5,0-4.6-1.9-4.6-4.3v-8.7c0-2.4,2.1-4.3,4.6-4.3H193
	C195.5,189.3,197.6,191.2,197.6,193.6z M191.3,187.3H64.6C47.4,169.7,38,146,38,120.6c0-1.8,0.1-3.4,0.2-5.2h179.5
	c0.1,1.6,0.2,3.4,0.2,5.2C217.9,145.8,208.4,169.5,191.3,187.3z M249.9,116.1l-5,5.5l-0.1,0.1l-0.1,0.1c-5,4.7-11.5,7.2-18.3,7.2
	h-6.9c0.2-2.1,0.3-4.2,0.3-6.3h6.4c5.1,0,9.8-1.8,13.4-5.2l4.9-5.4c1.2-1.4,3.3-1.6,4.8-0.4c0.7,0.5,1.1,1.3,1.2,2.1
	C250.7,114.6,250.4,115.5,249.9,116.1z M182.1,105.3h-4c-0.3,0-0.5,0.2-0.5,0.5s0.2,0.5,0.5,0.5h4c0.3,0,0.5-0.2,0.5-0.5
	S182.4,105.3,182.1,105.3z M190.1,105.3h-4c-0.3,0-0.5,0.2-0.5,0.5s0.2,0.5,0.5,0.5h4c0.3,0,0.5-0.2,0.5-0.5
	S190.4,105.3,190.1,105.3z M198.1,105.3h-4c-0.3,0-0.5,0.2-0.5,0.5s0.2,0.5,0.5,0.5h4c0.3,0,0.5-0.2,0.5-0.5
	S198.4,105.3,198.1,105.3z M158.1,105.3h-4c-0.3,0-0.5,0.2-0.5,0.5s0.2,0.5,0.5,0.5h4c0.3,0,0.5-0.2,0.5-0.5
	S158.4,105.3,158.1,105.3z M142.1,105.3h-4c-0.3,0-0.5,0.2-0.5,0.5s0.2,0.5,0.5,0.5h4c0.3,0,0.5-0.2,0.5-0.5
	S142.4,105.3,142.1,105.3z M134.1,105.3h-4c-0.3,0-0.5,0.2-0.5,0.5s0.2,0.5,0.5,0.5h4c0.3,0,0.5-0.2,0.5-0.5
	S134.4,105.3,134.1,105.3z M150.1,105.3h-4c-0.3,0-0.5,0.2-0.5,0.5s0.2,0.5,0.5,0.5h4c0.3,0,0.5-0.2,0.5-0.5
	S150.4,105.3,150.1,105.3z M174.1,105.3h-4c-0.3,0-0.5,0.2-0.5,0.5s0.2,0.5,0.5,0.5h4c0.3,0,0.5-0.2,0.5-0.5
	S174.4,105.3,174.1,105.3z M206.1,105.3h-4c-0.3,0-0.5,0.2-0.5,0.5s0.2,0.5,0.5,0.5h4c0.3,0,0.5-0.2,0.5-0.5
	S206.4,105.3,206.1,105.3z M166.1,105.3h-4c-0.3,0-0.5,0.2-0.5,0.5s0.2,0.5,0.5,0.5h4c0.3,0,0.5-0.2,0.5-0.5
	S166.4,105.3,166.1,105.3z M214.1,105.3h-4c-0.3,0-0.5,0.2-0.5,0.5s0.2,0.5,0.5,0.5h4c0.3,0,0.5-0.2,0.5-0.5
	S214.4,105.3,214.1,105.3z M226.7,105.3h-0.6c-0.3,0-0.5,0.2-0.5,0.5s0.2,0.5,0.5,0.5h0.6c0.3,0,0.5-0.2,0.5-0.5
	S227,105.3,226.7,105.3z M222.1,105.3h-4c-0.3,0-0.5,0.2-0.5,0.5s0.2,0.5,0.5,0.5h4c0.3,0,0.5-0.2,0.5-0.5S222.4,105.3,222.1,105.3z
	 M174.1,197.5h-4c-0.3,0-0.5,0.2-0.5,0.5s0.2,0.5,0.5,0.5h4c0.3,0,0.5-0.2,0.5-0.5S174.4,197.5,174.1,197.5z M190.1,197.5h-4
	c-0.3,0-0.5,0.2-0.5,0.5s0.2,0.5,0.5,0.5h4c0.3,0,0.5-0.2,0.5-0.5S190.4,197.5,190.1,197.5z M166.1,197.5h-4c-0.3,0-0.5,0.2-0.5,0.5
	s0.2,0.5,0.5,0.5h4c0.3,0,0.5-0.2,0.5-0.5S166.4,197.5,166.1,197.5z M182.1,197.5h-4c-0.3,0-0.5,0.2-0.5,0.5s0.2,0.5,0.5,0.5h4
	c0.3,0,0.5-0.2,0.5-0.5S182.4,197.5,182.1,197.5z M134.1,197.5h-4c-0.3,0-0.5,0.2-0.5,0.5s0.2,0.5,0.5,0.5h4c0.3,0,0.5-0.2,0.5-0.5
	S134.4,197.5,134.1,197.5z M158.1,197.5h-4c-0.3,0-0.5,0.2-0.5,0.5s0.2,0.5,0.5,0.5h4c0.3,0,0.5-0.2,0.5-0.5
	S158.4,197.5,158.1,197.5z M142.1,197.5h-4c-0.3,0-0.5,0.2-0.5,0.5s0.2,0.5,0.5,0.5h4c0.3,0,0.5-0.2,0.5-0.5
	S142.4,197.5,142.1,197.5z M150.1,197.5h-4c-0.3,0-0.5,0.2-0.5,0.5s0.2,0.5,0.5,0.5h4c0.3,0,0.5-0.2,0.5-0.5
	S150.4,197.5,150.1,197.5z"/>
</svg>
