<?xml version="1.0" encoding="utf-8"?>
<!-- Generator: Adobe Illustrator 19.0.0, SVG Export Plug-In . SVG Version: 6.00 Build 0)  -->
<svg version="1.1" id="Camada_1" xmlns="http://www.w3.org/2000/svg" xmlns:xlink="http://www.w3.org/1999/xlink" x="0px" y="0px"
	 viewBox="0 0 256 256" style="enable-background:new 0 0 256 256;" xml:space="preserve">
<style type="text/css">
	
</style>
<path d="M180.5,91.5V77.8c0-4.5-3.6-8.1-8.1-8.1h-5.1V42c0-4.1-3.3-7.4-7.4-7.4h-16.3c-4.1,0-7.4,3.3-7.4,7.4v9.9
	c-21.9,0.2-43.8,9.3-60.2,24.9c-16.8,16-26.1,36.7-26.4,58.5c-10.8,0.6-19.4,11.4-19.4,24.6c0,13.6,9.2,24.6,20.4,24.6
	s20.4-11,20.4-24.6c0-13.2-8.6-23.9-19.4-24.6c0.6-43.2,39.8-80.9,84.6-81.4v15.8h-5.1c-4.5,0-8.1,3.6-8.1,8.1v13.6
	c-26.6,11.2-45.3,37.6-45.3,68.2c0,24.1,11.8,46.8,31.6,60.7c1.6,1.1,3.6,1.8,5.5,1.8l74.3-0.3c2.1-0.1,3.9-0.7,5.4-1.8
	c19.8-14.1,31.5-37,31.2-61.4C225.3,128.5,206.7,102.6,180.5,91.5z M69,159.9c0,12.5-8.3,22.6-18.4,22.6s-18.4-10.1-18.4-22.6
	s8.3-22.6,18.4-22.6S69,147.4,69,159.9z M165.3,57.8c-2.3-0.5-4-2.5-4-4.9s1.7-4.4,4-4.9V57.8z M138.2,42c0-2.9,2.5-5.4,5.4-5.4
	h16.3c2.9,0,5.4,2.5,5.4,5.4v5c-2.8,0.5-5,3-5,5.9s2.2,5.4,5,5.9v10.9h-27.1V42z M124,77.8c0-3.9,3.2-7.1,7.1-7.1h41.3
	c3.9,0,7.1,3.2,7.1,7.1v13.3c-8.6-3.5-18-5.5-27.8-5.5c-0.1,0-0.3,0-0.4,0c-9.6,0-18.8,2-27.3,5.4V77.8z M193.3,218.4L193.3,218.4
	c-1.2,0.8-2.7,1.3-4.3,1.4l-74.2,0.3c-1.5,0-3.1-0.5-4.3-1.4c-19.3-13.5-30.8-35.6-30.8-59.1c0-39.5,32.1-71.8,71.6-72
	c0.1,0,0.2,0,0.4,0c39.3,0,71.5,31.8,72,71C224,182.4,212.6,204.7,193.3,218.4z M151.7,104.9v1c29.6,0,53.7,24.1,53.7,53.7h1
	C206.4,129.4,181.9,104.9,151.7,104.9z M174.8,52.9h2c0.3,0,0.5-0.2,0.5-0.5s-0.2-0.5-0.5-0.5h-2c-0.3,0-0.5,0.2-0.5,0.5
	S174.5,52.9,174.8,52.9z M189.5,52.9h4.2c0.3,0,0.5-0.2,0.5-0.5s-0.2-0.5-0.5-0.5h-4.2c-0.3,0-0.5,0.2-0.5,0.5
	S189.2,52.9,189.5,52.9z M181,52.9h4.2c0.3,0,0.5-0.2,0.5-0.5s-0.2-0.5-0.5-0.5H181c-0.3,0-0.5,0.2-0.5,0.5S180.7,52.9,181,52.9z
	 M197.9,52.9h4.2c0.3,0,0.5-0.2,0.5-0.5s-0.2-0.5-0.5-0.5h-4.2c-0.3,0-0.5,0.2-0.5,0.5S197.7,52.9,197.9,52.9z M206.4,52.9h2
	c0.3,0,0.5-0.2,0.5-0.5s-0.2-0.5-0.5-0.5h-2c-0.3,0-0.5,0.2-0.5,0.5S206.1,52.9,206.4,52.9z M174.8,47.8c0.1,0,0.1,0,0.2,0l1.9-0.7
	c0.3-0.1,0.4-0.4,0.3-0.6c-0.1-0.3-0.4-0.4-0.6-0.3l-1.9,0.7c-0.3,0.1-0.4,0.4-0.3,0.6C174.4,47.7,174.6,47.8,174.8,47.8z M181,45.4
	c0.1,0,0.1,0,0.2,0l4.4-1.7c0.3-0.1,0.4-0.4,0.3-0.6c-0.1-0.3-0.4-0.4-0.7-0.3l-4.4,1.7c-0.3,0.1-0.4,0.4-0.3,0.6
	C180.6,45.3,180.8,45.4,181,45.4z M189.7,41.9c0.1,0,0.1,0,0.2,0l4.4-1.7c0.3-0.1,0.4-0.4,0.3-0.6c-0.1-0.3-0.4-0.4-0.7-0.3
	l-4.4,1.7c-0.3,0.1-0.4,0.4-0.3,0.6C189.3,41.8,189.5,41.9,189.7,41.9z M198.5,38.4c0.1,0,0.1,0,0.2,0l1.8-0.7
	c0.3-0.1,0.4-0.4,0.3-0.6c-0.1-0.2-0.4-0.4-0.6-0.3l-1.8,0.7c-0.3,0.1-0.4,0.4-0.3,0.6C198.1,38.3,198.3,38.4,198.5,38.4z
	 M176.9,57.7L175,57c-0.3-0.1-0.5,0-0.6,0.3c-0.1,0.3,0,0.5,0.3,0.6l1.9,0.7c0.1,0,0.1,0,0.2,0c0.2,0,0.4-0.1,0.5-0.3
	C177.3,58.1,177.1,57.8,176.9,57.7z M180.8,60.5l4.4,1.7c0.1,0,0.1,0,0.2,0c0.2,0,0.4-0.1,0.5-0.3c0.1-0.3,0-0.5-0.3-0.6l-4.4-1.7
	c-0.3-0.1-0.5,0-0.6,0.3C180.4,60.1,180.6,60.4,180.8,60.5z M194.3,64.7l-4.4-1.7c-0.3-0.1-0.5,0-0.6,0.3c-0.1,0.3,0,0.5,0.3,0.6
	l4.4,1.7c0.1,0,0.1,0,0.2,0c0.2,0,0.4-0.1,0.5-0.3C194.7,65.1,194.6,64.8,194.3,64.7z M198.7,66.4c-0.3-0.1-0.5,0-0.6,0.3
	c-0.1,0.3,0,0.5,0.3,0.6l1.8,0.7c0.1,0,0.1,0,0.2,0c0.2,0,0.4-0.1,0.5-0.3c0.1-0.3,0-0.5-0.3-0.6L198.7,66.4z M103.4,161.1
	c-0.5,0.4-1,0.8-1.5,1.3c-0.2,0.2-0.2,0.5,0,0.7c0.1,0.1,0.2,0.1,0.4,0.1s0.3,0,0.4-0.1c0.5-0.5,0.9-0.9,1.5-1.3
	c0.2-0.2,0.2-0.5,0.1-0.7C103.9,161,103.6,160.9,103.4,161.1z M173.6,166.7c-1.2-0.2-2.4-0.5-3.6-1c-0.3-0.1-0.5,0-0.7,0.3
	c-0.1,0.3,0,0.5,0.3,0.7c1.2,0.5,2.5,0.9,3.8,1c0,0,0,0,0.1,0c0.2,0,0.5-0.2,0.5-0.4C174.1,167,173.9,166.7,173.6,166.7z M181,165.7
	c-1.2,0.5-2.4,0.8-3.6,0.9c-0.3,0-0.5,0.3-0.4,0.6c0,0.3,0.2,0.4,0.5,0.4c0,0,0,0,0.1,0c1.3-0.2,2.6-0.5,3.9-1
	c0.3-0.1,0.4-0.4,0.3-0.7C181.5,165.8,181.2,165.6,181,165.7z M131.8,166.7c-1.2-0.2-2.4-0.5-3.6-1c-0.3-0.1-0.5,0-0.7,0.3
	c-0.1,0.3,0,0.5,0.3,0.7c1.2,0.5,2.5,0.9,3.9,1c0,0,0,0,0.1,0c0.2,0,0.5-0.2,0.5-0.4C132.3,167,132.1,166.7,131.8,166.7z
	 M118.6,159.3c-1.2-0.5-2.5-0.9-3.8-1.1c-0.3,0-0.5,0.2-0.6,0.4c0,0.3,0.2,0.5,0.4,0.6c1.2,0.2,2.4,0.5,3.6,1c0.1,0,0.1,0,0.2,0
	c0.2,0,0.4-0.1,0.5-0.3C119,159.7,118.9,159.4,118.6,159.3z M110.8,158.2c-1.3,0.2-2.6,0.5-3.9,1c-0.3,0.1-0.4,0.4-0.3,0.6
	s0.3,0.3,0.5,0.3c0.1,0,0.1,0,0.2,0c1.2-0.5,2.4-0.8,3.6-0.9c0.3,0,0.5-0.3,0.4-0.6S111.1,158.1,110.8,158.2z M139.1,165.7
	c-1.2,0.5-2.4,0.8-3.6,0.9c-0.3,0-0.5,0.3-0.4,0.6c0,0.3,0.2,0.4,0.5,0.4c0,0,0,0,0.1,0c1.3-0.2,2.6-0.5,3.9-1
	c0.3-0.1,0.4-0.4,0.3-0.7C139.7,165.8,139.4,165.6,139.1,165.7z M123.7,162.7l-0.3-0.3c-0.4-0.4-0.8-0.8-1.3-1.1
	c-0.2-0.2-0.5-0.1-0.7,0.1s-0.1,0.5,0.1,0.7c0.4,0.3,0.8,0.7,1.2,1.1l0.3,0.3c0.4,0.4,0.9,0.8,1.4,1.2c0.1,0.1,0.2,0.1,0.3,0.1
	c0.2,0,0.3-0.1,0.4-0.2c0.2-0.2,0.1-0.5-0.1-0.7C124.5,163.5,124.1,163.1,123.7,162.7z M152.6,158.3c-1.3,0.2-2.6,0.5-3.8,1
	c-0.3,0.1-0.4,0.4-0.3,0.7c0.1,0.2,0.3,0.3,0.5,0.3c0.1,0,0.1,0,0.2,0c1.1-0.5,2.4-0.8,3.6-1c0.3,0,0.5-0.3,0.4-0.6
	C153.1,158.4,152.8,158.3,152.6,158.3z M160.4,159.3c-1.2-0.5-2.5-0.8-3.9-1c-0.3,0-0.5,0.2-0.6,0.4c0,0.3,0.2,0.5,0.4,0.6
	c1.2,0.2,2.5,0.5,3.6,0.9c0.1,0,0.1,0,0.2,0c0.2,0,0.4-0.1,0.5-0.3C160.8,159.7,160.7,159.4,160.4,159.3z M145.3,161.4
	c-0.5,0.4-0.9,0.8-1.3,1.2l-0.2,0.2c-0.4,0.4-0.9,0.8-1.4,1.2c-0.2,0.2-0.3,0.5-0.1,0.7c0.1,0.1,0.2,0.2,0.4,0.2
	c0.1,0,0.2,0,0.3-0.1c0.5-0.4,1-0.8,1.5-1.3l0.2-0.2c0.4-0.4,0.8-0.8,1.2-1.1c0.2-0.2,0.3-0.5,0.1-0.7
	C145.8,161.2,145.5,161.2,145.3,161.4z M165.5,162.6c-0.5-0.5-1-1-1.6-1.4c-0.2-0.2-0.5-0.1-0.7,0.1s-0.1,0.5,0.1,0.7
	c0.5,0.4,1,0.8,1.5,1.3c0.5,0.4,0.9,0.9,1.4,1.3c0.1,0.1,0.2,0.1,0.3,0.1s0.3-0.1,0.4-0.2c0.2-0.2,0.1-0.5-0.1-0.7
	C166.3,163.5,165.9,163.1,165.5,162.6z M185.6,162.4L185.6,162.4c-0.3,0.3-0.5,0.5-0.8,0.7c-0.2,0.2-0.4,0.4-0.7,0.6
	c-0.2,0.2-0.3,0.5-0.1,0.7c0.1,0.1,0.2,0.2,0.4,0.2c0.1,0,0.2,0,0.3-0.1c0.3-0.2,0.5-0.4,0.7-0.6c0.2-0.2,0.4-0.4,0.7-0.6l0.1-0.1
	c0.2-0.2,0.2-0.5,0-0.7C186.2,162.2,185.8,162.3,185.6,162.4z"/>
</svg>
