<?xml version="1.0" encoding="utf-8"?>
<!-- Generator: Adobe Illustrator 19.0.0, SVG Export Plug-In . SVG Version: 6.00 Build 0)  -->
<svg version="1.1" id="Camada_1" xmlns="http://www.w3.org/2000/svg" xmlns:xlink="http://www.w3.org/1999/xlink" x="0px" y="0px"
	 viewBox="0 0 256 256" style="enable-background:new 0 0 256 256;" xml:space="preserve">
<style type="text/css">
	
</style>
<path d="M218.5,40.3h-44.1v-1.5c0-1.2-0.9-2.1-2.1-2.1h-43.7c-1.2,0-2.1,0.9-2.1,2.1v1.5h-8.9c-2.6,0-4.9,1.7-5.7,4
	l-20.4,0.9c-2.4,0.1-4.4,1.8-4.9,4H65.8c-3.2,0-6.3,1-8.8,2.9l-4.5,3.3c-3.4,2.5-5.6,6.5-5.9,10.7H25.3c-0.7,0-1.3,0.2-1.9,0.7
	l-2,1.8c-0.6,0.5-1,1.3-1,2.1c0,0.9,0.3,1.7,1,2.3l2,1.8c0.5,0.5,1.2,0.7,2,0.7h21.3c0.4,4.3,2.5,8.3,6,10.8l4.6,3.4
	c2.6,1.8,5.6,2.8,8.7,2.8h20.7c0.6,2.1,2.5,3.8,4.9,3.9l20.3,0.9c0.6,2.2,2.5,3.9,4.9,4.3l1.9,3c0.9,1.5,1.4,3.2,1.4,5.2v4.5
	c0,3.7,3.1,6.8,6.8,6.8h5.7c1.1,1.8,3,2.9,5.3,2.9h3.7c2.1,0,3.9,1.6,4.1,3.6L150,163c0.5,4.1-2.2,8-6.3,8.8l-12.1,2.4
	c-4.7,1-8,5-8,9.8v26.2c0,5.5,4.4,9.9,9.9,9.9h55.7c5.5,0,9.9-4.4,9.9-9.9v-31c0-3.2-1.5-6.2-4.1-8.1c-0.5-0.4-1.2-0.7-1.8-1
	c-2-1.1-4.3-2.3-4.4-4.4l-8.1-60.9c-0.3-2.1,0.4-4.2,1.8-5.8c1.4-1.6,3.4-2.5,5.5-2.5h30.6c9.8,0,17.7-7.9,17.7-17.7V58
	C236.2,48.2,228.3,40.3,218.5,40.3z M24,67.6c0.4-0.3,0.8-0.5,1.3-0.5h21.2c0,0.1,0,0.2,0,0.3v2.8h-25c0.1-0.3,0.3-0.6,0.6-0.8
	L24,67.6z M25.3,74.5c-0.5,0-1-0.2-1.3-0.5l-2-1.8c-0.3-0.3-0.5-0.6-0.6-1h25.1v3.1c0,0.1,0,0.1,0,0.2L25.3,74.5L25.3,74.5z
	 M58.4,88.1l-4.6-3.4c-3.3-2.4-5.3-6.3-5.3-10.4v-6.9c0-4.1,1.9-8,5.2-10.4l4.5-3.3c1-0.7,2-1.3,3.1-1.7v3.4h1v-3.7
	c1.1-0.3,2.3-0.5,3.5-0.5h20.6v39.3H65.9C63.2,90.5,60.6,89.7,58.4,88.1z M88.4,91.2V50.4c0-1.7,1.4-3.1,3.1-3.2l20-0.9
	c0,0,0,0,0,0.1v48.9l-20-0.9C89.8,94.3,88.4,92.9,88.4,91.2z M127.5,38.8c0-0.6,0.5-1.1,1.1-1.1h43.7c0.6,0,1.1,0.5,1.1,1.1v1.5
	h-45.9C127.5,40.3,127.5,38.8,127.5,38.8z M126.8,119c-2.6,0-4.8-2.2-4.8-4.8v-4.5c0-2.3-0.6-4.5-1.8-6.2l-1.2-1.9h0.5
	c6.6,0,12,5.4,12,12v4.1c0,0.4,0,0.9,0.1,1.3H126.8z M189.2,218.1h-55.7c-4.4,0-7.9-3.5-7.9-7.9v-18.8h71.5v18.8
	C197.1,214.6,193.6,218.1,189.2,218.1z M234.2,78.8c0,8.7-7,15.7-15.7,15.7h-30.6c-2.7,0-5.2,1.1-7,3.2c-1.8,2-2.6,4.7-2.3,7.4
	l7.8,58.5l-2.9-0.7l-0.2,1l3.2,0.8l0.2,1.3c0.3,3.2,3.3,4.8,5.5,5.9c0.6,0.3,1.2,0.6,1.6,0.9c2.1,1.5,3.3,4,3.3,6.5v11.2h-71.5V184
	c0-3.8,2.6-7,6.4-7.8l12.1-2.4c5.1-1,8.6-5.8,7.9-11l-4.4-35.5c-0.4-3.1-3-5.4-6.1-5.4h-3.7c-2.4,0-4.2-1.8-4.2-4.2v-4.1
	c0-7.7-6.3-14-14-14h-2c-2.3,0-4.1-1.7-4.1-4V46.4c0-2.3,1.8-4.1,4.1-4.1h100.9c8.7,0,15.7,7,15.7,15.7V78.8z M218.2,57.7h-26.5
	c-0.3,0-0.5,0.2-0.5,0.5s0.2,0.5,0.5,0.5h26.5c0.3,0,0.5-0.2,0.5-0.5S218.5,57.7,218.2,57.7z M218.2,63.1h-26.5
	c-0.3,0-0.5,0.2-0.5,0.5s0.2,0.5,0.5,0.5h26.5c0.3,0,0.5-0.2,0.5-0.5S218.5,63.1,218.2,63.1z M218.2,68.6h-26.5
	c-0.3,0-0.5,0.2-0.5,0.5s0.2,0.5,0.5,0.5h26.5c0.3,0,0.5-0.2,0.5-0.5S218.5,68.6,218.2,68.6z M167.6,89v-1c-1.5,0-2.9,0.4-4,1.2
	l0.6,0.8C165.1,89.4,166.3,89,167.6,89z M171.6,88h4v1h-4V88z M175.8,161l-0.3,1c0.1,0,0.3,0.1,0.4,0.1l3.5,0.8l0.2-1l-3.5-0.8
	C176,161.1,175.9,161.1,175.8,161z M169,147.9l1-0.2l0.7,3.9l-1,0.2L169,147.9z M171.3,155.7l-1,0.2v0.2c0.2,1.3,0.8,2.6,1.6,3.6
	l0.8-0.6c-0.8-0.9-1.2-2-1.4-3.1V155.7z M167.6,140l1-0.2l0.7,3.9l-1,0.2L167.6,140z M166.3,132.2l1-0.2l0.7,3.9l-1,0.2L166.3,132.2
	z M179.6,88h4v1h-4V88z M161.2,95.3c0-0.9,0.2-1.7,0.5-2.5l-0.9-0.4c-0.4,0.9-0.6,1.9-0.6,2.9c0,0.4,0,0.8,0.1,1.2v0.1l0.5-0.1
	l0.5-0.2C161.2,96.1,161.2,95.7,161.2,95.3z M187.6,88v1h2.7c0.4,0,0.8,0,1.2,0.1l0.2-1c-0.4-0.1-0.9-0.1-1.3-0.1H187.6z M195.4,90
	l-0.7,0.7c0.3,0.3,0.6,0.7,0.9,1l1.4,2.1l0.8-0.6l-1.4-2.1C196.1,90.8,195.8,90.4,195.4,90z M161,100.6l1-0.2l0.7,3.9l-1,0.2
	L161,100.6z M162.3,108.5l1-0.2l0.7,3.9l-1,0.2L162.3,108.5z M163.7,116.4l1-0.2l0.7,3.9l-1,0.2L163.7,116.4z M165,124.3l1-0.2
	l0.7,3.9l-1,0.2L165,124.3z M178.1,197h-34.3c-1.5,0-2.8,1.3-2.8,2.8s1.3,2.8,2.8,2.8h34.3c0.8,0,1.6-0.3,2.1-0.9
	c0.5-0.5,0.7-1.2,0.7-1.9C180.9,198.3,179.6,197,178.1,197z M179.5,201c-0.4,0.4-0.9,0.6-1.4,0.6h-34.3c-1,0-1.8-0.8-1.8-1.8
	s0.8-1.8,1.8-1.8h34.3c1,0,1.8,0.8,1.8,1.8C179.9,200.2,179.8,200.7,179.5,201z M178.1,206.3h-34.3c-1.5,0-2.8,1.3-2.8,2.8
	s1.3,2.8,2.8,2.8h34.3c0.8,0,1.6-0.3,2.1-0.9c0.5-0.5,0.7-1.2,0.7-1.9C180.9,207.6,179.6,206.3,178.1,206.3z M179.5,210.3
	c-0.3,0.4-0.9,0.6-1.4,0.6h-34.3c-1,0-1.8-0.8-1.8-1.8s0.8-1.8,1.8-1.8h34.3c1,0,1.8,0.8,1.8,1.8
	C179.9,209.7,179.7,210.1,179.5,210.3z M61.3,75.4h1v4h-1V75.4z M61.3,83.4h1v4h-1V83.4z M61.3,59.4h1v4h-1V59.4z M61.3,67.4h1v4h-1
	V67.4z M139.8,88c-3.1,0-5.7,2.6-5.7,5.7s2.6,5.7,5.7,5.7c3.1,0,5.7-2.6,5.7-5.7S142.9,88,139.8,88z M139.8,97.4
	c-2,0-3.7-1.7-3.7-3.7s1.7-3.7,3.7-3.7s3.7,1.7,3.7,3.7C143.5,95.7,141.8,97.4,139.8,97.4z"/>
</svg>
