<?xml version="1.0" encoding="utf-8"?>
<!-- Generator: Adobe Illustrator 19.0.0, SVG Export Plug-In . SVG Version: 6.00 Build 0)  -->
<svg version="1.1" id="Camada_1" xmlns="http://www.w3.org/2000/svg" xmlns:xlink="http://www.w3.org/1999/xlink" x="0px" y="0px"
	 viewBox="0 0 256 256" style="enable-background:new 0 0 256 256;" xml:space="preserve">
<style type="text/css">
	
</style>
<path d="M164.8,73.7c3,0,5.4-2.4,5.4-5.4V55.2c0-3-2.4-5.4-5.4-5.4H163V39.6c0-19.3-15.7-35-35-35s-35,15.7-35,35v10.2
	h-1.8c-3,0-5.4,2.4-5.4,5.4v13.1c0,3,2.4,5.4,5.4,5.4H93v107.9h-1.8c-3,0-5.4,2.4-5.4,5.4v13.1c0,3,2.4,5.4,5.4,5.4H93v11.4
	c0,19.3,15.7,35,35,35s35-15.7,35-35v-11.4h1.8c3,0,5.4-2.4,5.4-5.4V187c0-3-2.4-5.4-5.4-5.4H163V73.7H164.8z M168.2,55.2v13.1
	c0,1.8-1.6,3.4-3.4,3.4h-6.6c-1.8,0-3.4-1.6-3.4-3.4V55.2c0-1.8,1.6-3.4,3.4-3.4h6.6C166.6,51.8,168.2,53.4,168.2,55.2z M95,39.6
	c0-18.2,14.8-33,33-33s33,14.8,33,33v10.2h-2.8c-3,0-5.4,2.4-5.4,5.4v3h-34.9c0-0.9,0.2-1.7,0.6-2.4c0.1-0.2,0-0.5-0.2-0.7
	c-0.2-0.1-0.5,0-0.7,0.2c-0.5,0.9-0.7,1.9-0.7,2.9h-13.7v-3c0-3-2.4-5.4-5.4-5.4H95V39.6z M152.8,64.3h-13.7v-2.9
	c0-0.3-0.2-0.5-0.5-0.5c-0.3,0-0.5,0.2-0.5,0.5v2.9h-20.2v-0.9c0-0.3-0.2-0.5-0.5-0.5c-0.3,0-0.5,0.2-0.5,0.5v0.9h-13.7v-5.1h13.7
	v0.2c0,0.3,0.2,0.5,0.5,0.5c0.3,0,0.5-0.2,0.5-0.5v-0.2h34.9V64.3z M87.8,68.3V55.2c0-1.8,1.6-3.4,3.4-3.4h6.6
	c1.8,0,3.4,1.6,3.4,3.4v13.1c0,1.8-1.6,3.4-3.4,3.4h-6.6C89.4,71.7,87.8,70.1,87.8,68.3z M87.8,200.1V187c0-1.8,1.6-3.4,3.4-3.4h6.6
	c1.8,0,3.4,1.6,3.4,3.4v13.1c0,1.8-1.6,3.4-3.4,3.4h-6.6C89.4,203.5,87.8,201.9,87.8,200.1z M161,216.9c0,18.2-14.8,33-33,33
	s-33-14.8-33-33v-11.4h2.8c3,0,5.4-2.4,5.4-5.4v-3h34.9v0.1c0,0.8-0.2,1.6-0.6,2.4c-0.1,0.2,0,0.5,0.2,0.7c0.1,0,0.2,0.1,0.2,0.1
	c0.2,0,0.4-0.1,0.4-0.3c0.5-0.9,0.7-1.8,0.7-2.8v-0.1h13.7v3c0,3,2.4,5.4,5.4,5.4h2.8L161,216.9L161,216.9z M103.2,191h13.7v3.1
	c0,0.3,0.2,0.5,0.5,0.5c0.3,0,0.5-0.2,0.5-0.5V191h20.2v0.9c0,0.3,0.2,0.5,0.5,0.5c0.3,0,0.5-0.2,0.5-0.5V191h13.7v5.1h-13.7v-0.2
	c0-0.3-0.2-0.5-0.5-0.5c-0.3,0-0.5,0.2-0.5,0.5v0.2h-34.9V191z M168.2,187v13.1c0,1.8-1.6,3.4-3.4,3.4h-6.6c-1.8,0-3.4-1.6-3.4-3.4
	V187c0-1.8,1.6-3.4,3.4-3.4h6.6C166.6,183.6,168.2,185.2,168.2,187z M161,181.6h-2.8c-3,0-5.4,2.4-5.4,5.4v3h-13.7v-2.1
	c0-0.3-0.2-0.5-0.5-0.5c-0.3,0-0.5,0.2-0.5,0.5v2.1h-20.2c-0.1-0.2-0.2-0.4-0.5-0.4s-0.4,0.2-0.5,0.4h-13.7v-3c0-3-2.4-5.4-5.4-5.4
	H95V73.7h2.8c3,0,5.4-2.4,5.4-5.4v-3h13.7v2.1c0,0.3,0.2,0.5,0.5,0.5c0.3,0,0.5-0.2,0.5-0.5v-2.1h20.2v0.1c0,0.3,0.2,0.5,0.5,0.5
	s0.5-0.2,0.5-0.5v-0.1h13.7v3c0,3,2.4,5.4,5.4,5.4h2.8C161,73.7,161,181.6,161,181.6z M129,53.1h4c0.3,0,0.5-0.2,0.5-0.5
	s-0.2-0.5-0.5-0.5h-4c-0.3,0-0.5,0.2-0.5,0.5S128.7,53.1,129,53.1z M138.6,68.9c-0.3,0-0.5,0.2-0.5,0.5v3.3c0,0.2,0,0.4,0,0.6
	c0,0.3,0.2,0.5,0.4,0.6c0,0,0,0,0.1,0c0.2,0,0.5-0.2,0.5-0.4c0-0.2,0-0.5,0-0.8v-3.3C139.1,69.1,138.9,68.9,138.6,68.9z M136.4,76.4
	c-0.9,0.8-2.1,1.2-3.3,1.3l0,0l0,0h-4c-0.3,0-0.5,0.2-0.5,0.5s0.2,0.5,0.5,0.5h4l0,0l0,0l0,0c1.5,0,2.9-0.5,4-1.5
	c0.2-0.2,0.2-0.5,0.1-0.7C136.9,76.3,136.6,76.3,136.4,76.4z M138,57.5c0,0.2,0.3,0.4,0.5,0.4c0,0,0,0,0.1,0c0.3,0,0.5-0.3,0.4-0.6
	c-0.2-1.5-0.9-2.8-2-3.7c-0.2-0.2-0.5-0.2-0.7,0.1c-0.2,0.2-0.2,0.5,0.1,0.7C137.3,55.1,137.9,56.3,138,57.5z M120.9,78.3
	c0.7,0.3,1.4,0.4,2.1,0.4h2c0.3,0,0.5-0.2,0.5-0.5s-0.2-0.5-0.5-0.5h-2c-0.6,0-1.2-0.1-1.8-0.3c-0.3-0.1-0.5,0-0.6,0.3
	C120.5,77.9,120.6,78.2,120.9,78.3z M117.9,72.6v-1.2c0-0.3-0.2-0.5-0.5-0.5s-0.5,0.2-0.5,0.5v1.2c0,1,0.3,2,0.7,2.9
	c0.1,0.2,0.3,0.3,0.4,0.3c0.1,0,0.2,0,0.2-0.1c0.2-0.1,0.3-0.4,0.2-0.7C118.1,74.3,117.9,73.5,117.9,72.6z M125,52.1h-2
	c-0.7,0-1.5,0.1-2.1,0.4c-0.3,0.1-0.4,0.4-0.3,0.6c0.1,0.2,0.3,0.3,0.5,0.3c0.1,0,0.1,0,0.2,0c0.6-0.2,1.2-0.3,1.8-0.3h2
	c0.3,0,0.5-0.2,0.5-0.5S125.3,52.1,125,52.1z M128,69.2c1,0,1.8,0.8,1.8,1.8s-0.8,1.8-1.8,1.8s-1.8-0.8-1.8-1.8S127,69.2,128,69.2z
	 M137.7,179.6c-0.2,0.1-0.3,0.4-0.2,0.7c0.4,0.7,0.6,1.6,0.6,2.4v1.2c0,0.3,0.2,0.5,0.5,0.5c0.3,0,0.5-0.2,0.5-0.5v-1.2
	c0-1-0.3-2-0.7-2.9C138.2,179.5,137.9,179.4,137.7,179.6z M117.5,181.6c-0.3,0-0.5,0.2-0.5,0.4c0,0.2,0,0.4,0,0.6v3.4
	c0,0.3,0.2,0.5,0.5,0.5s0.5-0.2,0.5-0.5v-3.4c0-0.2,0-0.4,0-0.5C118,181.9,117.8,181.6,117.5,181.6z M134.9,201.9
	c-0.6,0.2-1.2,0.4-1.9,0.4h-1.9c-0.3,0-0.5,0.2-0.5,0.5s0.2,0.5,0.5,0.5h1.9c0.8,0,1.5-0.1,2.2-0.4c0.3-0.1,0.4-0.4,0.3-0.6
	C135.4,202,135.1,201.8,134.9,201.9z M135.1,177c-0.7-0.3-1.4-0.4-2.1-0.4h-2c-0.3,0-0.5,0.2-0.5,0.5s0.2,0.5,0.5,0.5h2
	c0.6,0,1.2,0.1,1.8,0.3c0.1,0,0.1,0,0.2,0c0.2,0,0.4-0.1,0.5-0.3C135.5,177.4,135.4,177.1,135.1,177z M118,198
	c0-0.3-0.3-0.5-0.6-0.4c-0.3,0-0.5,0.3-0.4,0.6c0.2,1.4,1,2.8,2.1,3.7c0.1,0.1,0.2,0.1,0.3,0.1c0.1,0,0.3-0.1,0.4-0.2
	c0.2-0.2,0.1-0.5-0.1-0.7C118.8,200.3,118.2,199.2,118,198z M127.5,177.1c0-0.3-0.2-0.5-0.5-0.5h-4h-0.1h-0.1
	c-1.5,0.1-2.9,0.6-3.9,1.6c-0.2,0.2-0.2,0.5,0,0.7c0.1,0.1,0.2,0.2,0.4,0.2c0.1,0,0.2,0,0.3-0.1c0.9-0.8,2.1-1.3,3.3-1.4h0.1h0.1h4
	C127.3,177.6,127.5,177.4,127.5,177.1z M127.1,202.3h-4c-0.3,0-0.5,0.2-0.5,0.5s0.2,0.5,0.5,0.5h4c0.3,0,0.5-0.2,0.5-0.5
	S127.4,202.3,127.1,202.3z M128,182.5c1,0,1.8,0.8,1.8,1.8s-0.8,1.8-1.8,1.8s-1.8-0.8-1.8-1.8S127,182.5,128,182.5z M101.7,40.2
	c0.3,0,0.5-0.2,0.5-0.5c0-14.2,11.6-25.8,25.8-25.8c0.3,0,0.5-0.2,0.5-0.5s-0.2-0.5-0.5-0.5c-14.8,0-26.8,12-26.8,26.8
	C101.2,40,101.4,40.2,101.7,40.2z"/>
</svg>
