<?xml version="1.0" encoding="utf-8"?>
<!-- Generator: Adobe Illustrator 19.0.0, SVG Export Plug-In . SVG Version: 6.00 Build 0)  -->
<svg version="1.1" id="Camada_1" xmlns="http://www.w3.org/2000/svg" xmlns:xlink="http://www.w3.org/1999/xlink" x="0px" y="0px"
	 viewBox="0 0 256 256" style="enable-background:new 0 0 256 256;" xml:space="preserve">
<style type="text/css">
	
</style>
<path d="M163.1,12.9H92.8C79.7,12.9,69,23.6,69,36.7v182.6c0,13.1,10.7,23.8,23.8,23.8h70.4c13.1,0,23.7-10.7,23.7-23.8
	V36.7C186.9,23.6,176.2,12.9,163.1,12.9z M184.9,219.3c0,12-9.7,21.8-21.7,21.8H92.8c-12,0-21.8-9.8-21.8-21.8V36.7
	c0-12,9.8-21.8,21.8-21.8h70.3c12,0,21.8,9.8,21.8,21.8C184.9,36.7,184.9,219.3,184.9,219.3z M75.8,87.3c-0.3,0-0.5,0.2-0.5,0.5v4
	c0,0.3,0.2,0.5,0.5,0.5s0.5-0.2,0.5-0.5v-4C76.3,87.5,76.1,87.3,75.8,87.3z M75.8,127.3c-0.3,0-0.5,0.2-0.5,0.5v4
	c0,0.3,0.2,0.5,0.5,0.5s0.5-0.2,0.5-0.5v-4C76.3,127.5,76.1,127.3,75.8,127.3z M75.8,79.3c-0.3,0-0.5,0.2-0.5,0.5v4
	c0,0.3,0.2,0.5,0.5,0.5s0.5-0.2,0.5-0.5v-4C76.3,79.5,76.1,79.3,75.8,79.3z M75.8,111.3c-0.3,0-0.5,0.2-0.5,0.5v4
	c0,0.3,0.2,0.5,0.5,0.5s0.5-0.2,0.5-0.5v-4C76.3,111.5,76.1,111.3,75.8,111.3z M75.8,95.3c-0.3,0-0.5,0.2-0.5,0.5v4
	c0,0.3,0.2,0.5,0.5,0.5s0.5-0.2,0.5-0.5v-4C76.3,95.5,76.1,95.3,75.8,95.3z M168.9,36.2c0.3,0,0.5-0.2,0.5-0.5s-0.2-0.5-0.5-0.5h-4
	c-0.3,0-0.5,0.2-0.5,0.5s0.2,0.5,0.5,0.5H168.9z M75.8,119.3c-0.3,0-0.5,0.2-0.5,0.5v4c0,0.3,0.2,0.5,0.5,0.5s0.5-0.2,0.5-0.5v-4
	C76.3,119.5,76.1,119.3,75.8,119.3z M75.8,71.3c-0.3,0-0.5,0.2-0.5,0.5v4c0,0.3,0.2,0.5,0.5,0.5s0.5-0.2,0.5-0.5v-4
	C76.3,71.5,76.1,71.3,75.8,71.3z M89.4,35.7c0-0.3-0.2-0.5-0.5-0.5h-4c-0.3,0-0.5,0.2-0.5,0.5s0.2,0.5,0.5,0.5h4
	C89.1,36.2,89.4,36,89.4,35.7z M89.6,214.6h-4c-0.3,0-0.5,0.2-0.5,0.5s0.2,0.5,0.5,0.5h4c0.3,0,0.5-0.2,0.5-0.5
	S89.9,214.6,89.6,214.6z M81.6,214.6h-3.2c-0.2,0-0.4,0-0.6-0.1c-0.3-0.1-0.5,0.1-0.6,0.3c-0.1,0.3,0.1,0.5,0.3,0.6
	c0.3,0.1,0.6,0.2,0.9,0.2h3.2c0.3,0,0.5-0.2,0.5-0.5S81.9,214.6,81.6,214.6z M78.4,36.2h2.5c0.3,0,0.5-0.2,0.5-0.5s-0.2-0.5-0.5-0.5
	h-2.5c-0.6,0-1.2,0.2-1.7,0.5c-0.2,0.2-0.3,0.5-0.1,0.7c0.1,0.1,0.3,0.2,0.4,0.2s0.2,0,0.3-0.1C77.6,36.3,78,36.2,78.4,36.2z
	 M75.8,39.3c-0.3,0-0.5,0.2-0.5,0.5v4c0,0.3,0.2,0.5,0.5,0.5s0.5-0.2,0.5-0.5v-4C76.3,39.5,76.1,39.3,75.8,39.3z M75.8,63.3
	c-0.3,0-0.5,0.2-0.5,0.5v4c0,0.3,0.2,0.5,0.5,0.5s0.5-0.2,0.5-0.5v-4C76.3,63.5,76.1,63.3,75.8,63.3z M75.8,55.3
	c-0.3,0-0.5,0.2-0.5,0.5v4c0,0.3,0.2,0.5,0.5,0.5s0.5-0.2,0.5-0.5v-4C76.3,55.5,76.1,55.3,75.8,55.3z M75.8,47.3
	c-0.3,0-0.5,0.2-0.5,0.5v4c0,0.3,0.2,0.5,0.5,0.5s0.5-0.2,0.5-0.5v-4C76.3,47.5,76.1,47.3,75.8,47.3z M75.8,103.3
	c-0.3,0-0.5,0.2-0.5,0.5v4c0,0.3,0.2,0.5,0.5,0.5s0.5-0.2,0.5-0.5v-4C76.3,103.5,76.1,103.3,75.8,103.3z M108.9,36.2h4
	c0.3,0,0.5-0.2,0.5-0.5s-0.2-0.5-0.5-0.5h-4c-0.3,0-0.5,0.2-0.5,0.5S108.6,36.2,108.9,36.2z M75.8,207.3c-0.3,0-0.5,0.2-0.5,0.5v4
	c0,0.3,0.2,0.5,0.5,0.5s0.5-0.2,0.5-0.5v-4C76.3,207.5,76.1,207.3,75.8,207.3z M92.9,36.2h4c0.3,0,0.5-0.2,0.5-0.5s-0.2-0.5-0.5-0.5
	h-4c-0.3,0-0.5,0.2-0.5,0.5S92.6,36.2,92.9,36.2z M116.9,35.2c-0.3,0-0.5,0.2-0.5,0.5s0.2,0.5,0.5,0.5h4c0.3,0,0.5-0.2,0.5-0.5
	s-0.2-0.5-0.5-0.5H116.9z M100.9,36.2h4c0.3,0,0.5-0.2,0.5-0.5s-0.2-0.5-0.5-0.5h-4c-0.3,0-0.5,0.2-0.5,0.5S100.6,36.2,100.9,36.2z
	 M148.9,36.2h4c0.3,0,0.5-0.2,0.5-0.5s-0.2-0.5-0.5-0.5h-4c-0.3,0-0.5,0.2-0.5,0.5S148.6,36.2,148.9,36.2z M156.9,36.2h4
	c0.3,0,0.5-0.2,0.5-0.5s-0.2-0.5-0.5-0.5h-4c-0.3,0-0.5,0.2-0.5,0.5S156.6,36.2,156.9,36.2z M140.9,36.2h4c0.3,0,0.5-0.2,0.5-0.5
	s-0.2-0.5-0.5-0.5h-4c-0.3,0-0.5,0.2-0.5,0.5S140.6,36.2,140.9,36.2z M132.9,35.2c-0.3,0-0.5,0.2-0.5,0.5s0.2,0.5,0.5,0.5h4
	c0.3,0,0.5-0.2,0.5-0.5s-0.2-0.5-0.5-0.5H132.9z M75.8,175.3c-0.3,0-0.5,0.2-0.5,0.5v4c0,0.3,0.2,0.5,0.5,0.5s0.5-0.2,0.5-0.5v-4
	C76.3,175.5,76.1,175.3,75.8,175.3z M75.8,159.3c-0.3,0-0.5,0.2-0.5,0.5v4c0,0.3,0.2,0.5,0.5,0.5s0.5-0.2,0.5-0.5v-4
	C76.3,159.5,76.1,159.3,75.8,159.3z M75.8,151.3c-0.3,0-0.5,0.2-0.5,0.5v4c0,0.3,0.2,0.5,0.5,0.5s0.5-0.2,0.5-0.5v-4
	C76.3,151.5,76.1,151.3,75.8,151.3z M75.8,167.3c-0.3,0-0.5,0.2-0.5,0.5v4c0,0.3,0.2,0.5,0.5,0.5s0.5-0.2,0.5-0.5v-4
	C76.3,167.5,76.1,167.3,75.8,167.3z M75.8,143.3c-0.3,0-0.5,0.2-0.5,0.5v4c0,0.3,0.2,0.5,0.5,0.5s0.5-0.2,0.5-0.5v-4
	C76.3,143.5,76.1,143.3,75.8,143.3z M75.8,199.3c-0.3,0-0.5,0.2-0.5,0.5v4c0,0.3,0.2,0.5,0.5,0.5s0.5-0.2,0.5-0.5v-4
	C76.3,199.5,76.1,199.3,75.8,199.3z M75.8,191.3c-0.3,0-0.5,0.2-0.5,0.5v4c0,0.3,0.2,0.5,0.5,0.5s0.5-0.2,0.5-0.5v-4
	C76.3,191.5,76.1,191.3,75.8,191.3z M75.8,135.3c-0.3,0-0.5,0.2-0.5,0.5v4c0,0.3,0.2,0.5,0.5,0.5s0.5-0.2,0.5-0.5v-4
	C76.3,135.5,76.1,135.3,75.8,135.3z M75.8,183.3c-0.3,0-0.5,0.2-0.5,0.5v4c0,0.3,0.2,0.5,0.5,0.5s0.5-0.2,0.5-0.5v-4
	C76.3,183.5,76.1,183.3,75.8,183.3z M124.9,35.2c-0.3,0-0.5,0.2-0.5,0.5s0.2,0.5,0.5,0.5h4c0.3,0,0.5-0.2,0.5-0.5s-0.2-0.5-0.5-0.5
	H124.9z M180.2,117c-0.3,0-0.5,0.2-0.5,0.5v4c0,0.3,0.2,0.5,0.5,0.5s0.5-0.2,0.5-0.5v-4C180.7,117.2,180.5,117,180.2,117z
	 M180.2,133c-0.3,0-0.5,0.2-0.5,0.5v4c0,0.3,0.2,0.5,0.5,0.5s0.5-0.2,0.5-0.5v-4C180.7,133.2,180.5,133,180.2,133z M180.2,173
	c-0.3,0-0.5,0.2-0.5,0.5v4c0,0.3,0.2,0.5,0.5,0.5s0.5-0.2,0.5-0.5v-4C180.7,173.2,180.5,173,180.2,173z M180.2,109
	c-0.3,0-0.5,0.2-0.5,0.5v4c0,0.3,0.2,0.5,0.5,0.5s0.5-0.2,0.5-0.5v-4C180.7,109.2,180.5,109,180.2,109z M180.2,149
	c-0.3,0-0.5,0.2-0.5,0.5v4c0,0.3,0.2,0.5,0.5,0.5s0.5-0.2,0.5-0.5v-4C180.7,149.2,180.5,149,180.2,149z M180.2,157
	c-0.3,0-0.5,0.2-0.5,0.5v4c0,0.3,0.2,0.5,0.5,0.5s0.5-0.2,0.5-0.5v-4C180.7,157.2,180.5,157,180.2,157z M180.2,141
	c-0.3,0-0.5,0.2-0.5,0.5v4c0,0.3,0.2,0.5,0.5,0.5s0.5-0.2,0.5-0.5v-4C180.7,141.2,180.5,141,180.2,141z M180.2,165
	c-0.3,0-0.5,0.2-0.5,0.5v4c0,0.3,0.2,0.5,0.5,0.5s0.5-0.2,0.5-0.5v-4C180.7,165.2,180.5,165,180.2,165z M180.2,101
	c-0.3,0-0.5,0.2-0.5,0.5v4c0,0.3,0.2,0.5,0.5,0.5s0.5-0.2,0.5-0.5v-4C180.7,101.2,180.5,101,180.2,101z M180.2,125
	c-0.3,0-0.5,0.2-0.5,0.5v4c0,0.3,0.2,0.5,0.5,0.5s0.5-0.2,0.5-0.5v-4C180.7,125.2,180.5,125,180.2,125z M179.7,38.3v3.2
	c0,0.3,0.2,0.5,0.5,0.5s0.5-0.2,0.5-0.5v-3.2c0-0.3-0.1-0.6-0.2-1c-0.1-0.3-0.4-0.4-0.6-0.3c-0.3,0.1-0.4,0.4-0.3,0.6
	C179.7,37.9,179.7,38.1,179.7,38.3z M180.2,45c-0.3,0-0.5,0.2-0.5,0.5v4c0,0.3,0.2,0.5,0.5,0.5s0.5-0.2,0.5-0.5v-4
	C180.7,45.2,180.5,45,180.2,45z M173.6,214.6c-0.3,0-0.5,0.2-0.5,0.5s0.2,0.5,0.5,0.5h4c1.2,0,2.4-0.8,2.9-1.9
	c0.1-0.3,0-0.5-0.3-0.7c-0.3-0.1-0.5,0-0.7,0.3c-0.3,0.8-1.1,1.3-1.9,1.3L173.6,214.6L173.6,214.6z M180.2,53
	c-0.3,0-0.5,0.2-0.5,0.5v4c0,0.3,0.2,0.5,0.5,0.5s0.5-0.2,0.5-0.5v-4C180.7,53.2,180.5,53,180.2,53z M180.2,61
	c-0.3,0-0.5,0.2-0.5,0.5v4c0,0.3,0.2,0.5,0.5,0.5s0.5-0.2,0.5-0.5v-4C180.7,61.2,180.5,61,180.2,61z M180.2,93
	c-0.3,0-0.5,0.2-0.5,0.5v4c0,0.3,0.2,0.5,0.5,0.5s0.5-0.2,0.5-0.5v-4C180.7,93.2,180.5,93,180.2,93z M180.2,77
	c-0.3,0-0.5,0.2-0.5,0.5v4c0,0.3,0.2,0.5,0.5,0.5s0.5-0.2,0.5-0.5v-4C180.7,77.2,180.5,77,180.2,77z M180.2,85
	c-0.3,0-0.5,0.2-0.5,0.5v4c0,0.3,0.2,0.5,0.5,0.5s0.5-0.2,0.5-0.5v-4C180.7,85.2,180.5,85,180.2,85z M180.2,69
	c-0.3,0-0.5,0.2-0.5,0.5v4c0,0.3,0.2,0.5,0.5,0.5s0.5-0.2,0.5-0.5v-4C180.7,69.2,180.5,69,180.2,69z M97.6,214.6h-4
	c-0.3,0-0.5,0.2-0.5,0.5s0.2,0.5,0.5,0.5h4c0.3,0,0.5-0.2,0.5-0.5S97.9,214.6,97.6,214.6z M153.6,214.6h-4c-0.3,0-0.5,0.2-0.5,0.5
	s0.2,0.5,0.5,0.5h4c0.3,0,0.5-0.2,0.5-0.5S153.9,214.6,153.6,214.6z M161.6,214.6h-4c-0.3,0-0.5,0.2-0.5,0.5s0.2,0.5,0.5,0.5h4
	c0.3,0,0.5-0.2,0.5-0.5S161.9,214.6,161.6,214.6z M145.6,214.6h-4c-0.3,0-0.5,0.2-0.5,0.5s0.2,0.5,0.5,0.5h4c0.3,0,0.5-0.2,0.5-0.5
	S145.9,214.6,145.6,214.6z M129.6,215.6c0.3,0,0.5-0.2,0.5-0.5s-0.2-0.5-0.5-0.5h-4c-0.3,0-0.5,0.2-0.5,0.5s0.2,0.5,0.5,0.5H129.6z
	 M137.6,215.6c0.3,0,0.5-0.2,0.5-0.5s-0.2-0.5-0.5-0.5h-4c-0.3,0-0.5,0.2-0.5,0.5s0.2,0.5,0.5,0.5H137.6z M105.6,214.6h-4
	c-0.3,0-0.5,0.2-0.5,0.5s0.2,0.5,0.5,0.5h4c0.3,0,0.5-0.2,0.5-0.5S105.9,214.6,105.6,214.6z M180.2,181c-0.3,0-0.5,0.2-0.5,0.5v4
	c0,0.3,0.2,0.5,0.5,0.5s0.5-0.2,0.5-0.5v-4C180.7,181.2,180.5,181,180.2,181z M117.6,215.6h4c0.3,0,0.5-0.2,0.5-0.5
	s-0.2-0.5-0.5-0.5h-4c-0.3,0-0.5,0.2-0.5,0.5S117.3,215.6,117.6,215.6z M180.2,197c-0.3,0-0.5,0.2-0.5,0.5v4c0,0.3,0.2,0.5,0.5,0.5
	s0.5-0.2,0.5-0.5v-4C180.7,197.2,180.5,197,180.2,197z M169.6,214.6h-4c-0.3,0-0.5,0.2-0.5,0.5s0.2,0.5,0.5,0.5h4
	c0.3,0,0.5-0.2,0.5-0.5S169.9,214.6,169.6,214.6z M180.2,189c-0.3,0-0.5,0.2-0.5,0.5v4c0,0.3,0.2,0.5,0.5,0.5s0.5-0.2,0.5-0.5v-4
	C180.7,189.2,180.5,189,180.2,189z M180.2,205c-0.3,0-0.5,0.2-0.5,0.5v4c0,0.3,0.2,0.5,0.5,0.5s0.5-0.2,0.5-0.5v-4
	C180.7,205.2,180.5,205,180.2,205z M177.4,35.7c0-0.3-0.2-0.5-0.5-0.5h-4c-0.3,0-0.5,0.2-0.5,0.5s0.2,0.5,0.5,0.5h4
	C177.1,36.2,177.4,36,177.4,35.7z M114.1,215.1c0-0.3-0.2-0.5-0.5-0.5h-4c-0.3,0-0.5,0.2-0.5,0.5s0.2,0.5,0.5,0.5h4
	C113.9,215.6,114.1,215.4,114.1,215.1z M137.4,222.2h-18.7c-3.5,0-6.4,2.9-6.4,6.4s2.9,6.4,6.4,6.4h18.7c3.5,0,6.4-2.9,6.4-6.4
	S140.9,222.2,137.4,222.2z M137.4,234h-18.7c-3,0-5.4-2.4-5.4-5.4s2.4-5.4,5.4-5.4h18.7c3,0,5.4,2.4,5.4,5.4
	C142.8,231.5,140.3,234,137.4,234z M118,25.8h20c1.3,0,2.4-1.1,2.4-2.4v-0.5c0-1.3-1.1-2.4-2.4-2.4h-20c-1.3,0-2.4,1.1-2.4,2.4v0.5
	C115.6,24.7,116.7,25.8,118,25.8z M116.6,22.9c0-0.7,0.5-1.4,1.4-1.4h20c0.7,0,1.4,0.5,1.4,1.4v0.5c0,0.7-0.7,1.4-1.4,1.4h-20
	c-0.7,0-1.4-0.5-1.4-1.4V22.9z M166,21.5c-2.3,0-4.1,1.8-4.1,4.1s1.8,4.1,4.1,4.1s4.1-1.8,4.1-4.1S168.3,21.5,166,21.5z M166,28.7
	c-1.7,0-3.1-1.4-3.1-3.1s1.4-3.1,3.1-3.1s3.1,1.4,3.1,3.1S167.7,28.7,166,28.7z M167.2,69.5c-0.2-0.1-0.5-0.1-0.7,0.2l-75,131.4
	c-0.1,0.2-0.1,0.5,0.2,0.7c0.1,0,0.2,0.1,0.2,0.1c0.2,0,0.3-0.1,0.4-0.3l75-131.4C167.6,69.9,167.5,69.6,167.2,69.5z M165.3,116.4
	c-0.2-0.1-0.5-0.1-0.7,0.2l-45.7,80c-0.1,0.2-0.1,0.5,0.2,0.7c0.1,0,0.2,0.1,0.2,0.1c0.2,0,0.3-0.1,0.4-0.3l45.7-80
	C165.7,116.8,165.6,116.5,165.3,116.4z"/>
</svg>
