<?xml version="1.0" encoding="utf-8"?>
<!-- Generator: Adobe Illustrator 19.0.0, SVG Export Plug-In . SVG Version: 6.00 Build 0)  -->
<svg version="1.1" id="Camada_1" xmlns="http://www.w3.org/2000/svg" xmlns:xlink="http://www.w3.org/1999/xlink" x="0px" y="0px"
	 viewBox="0 0 256 256" style="enable-background:new 0 0 256 256;" xml:space="preserve">
<style type="text/css">
	
</style>
<path d="M201.4,107.6c-21,0-38,17-38,38s17,38,38,38s38-17,38-38S222.4,107.6,201.4,107.6z M201.4,181.6
	c-19.9,0-36-16.1-36-36s16.1-36,36-36s36,16.1,36,36S221.3,181.6,201.4,181.6z M201.4,114.1c-17.4,0-31.5,14.1-31.5,31.5
	s14.1,31.5,31.5,31.5s31.5-14.1,31.5-31.5S218.8,114.1,201.4,114.1z M201.4,176.1c-16.8,0-30.5-13.7-30.5-30.5s13.7-30.5,30.5-30.5
	s30.5,13.7,30.5,30.5S218.2,176.1,201.4,176.1z M201.4,133.2c-6.8,0-12.4,5.6-12.4,12.4s5.6,12.4,12.4,12.4
	c6.8,0,12.4-5.6,12.4-12.4C213.8,138.8,208.2,133.2,201.4,133.2z M201.4,156c-5.7,0-10.4-4.7-10.4-10.4s4.7-10.4,10.4-10.4
	c5.7,0,10.4,4.7,10.4,10.4S207.1,156,201.4,156z M55,107.6c-21,0-38,17-38,38s17,38,38,38s38-17,38-38S76,107.6,55,107.6z M55,181.6
	c-19.9,0-36-16.1-36-36s16.1-36,36-36s36,16.1,36,36S74.9,181.6,55,181.6z M55,114.1c-17.4,0-31.5,14.1-31.5,31.5
	s14.1,31.5,31.5,31.5s31.5-14.1,31.5-31.5S72.4,114.1,55,114.1z M55,176.1c-16.8,0-30.5-13.7-30.5-30.5s13.7-30.5,30.5-30.5
	s30.5,13.7,30.5,30.5S71.8,176.1,55,176.1z M55,133.2c-6.8,0-12.4,5.6-12.4,12.4S48.2,158,55,158s12.4-5.6,12.4-12.4
	C67.4,138.8,61.8,133.2,55,133.2z M55,156c-5.7,0-10.4-4.7-10.4-10.4s4.7-10.4,10.4-10.4s10.4,4.7,10.4,10.4S60.7,156,55,156z
	 M201.6,96.9h-2.9l-10.8-16.1c-7.8-11.5-20.8-18.4-34.7-18.4h-50.1c-13.9,0-26.9,6.9-34.7,18.4L57.6,96.9h-3.5
	c-26.9,0-48.7,21.8-48.7,48.7c0,26.9,21.8,48.7,48.7,48.7h147.5c26.8,0,48.6-21.8,48.7-48.7C250.3,118.7,228.5,96.9,201.6,96.9z
	 M69.2,81.4c7.6-11.3,20.3-18,33.9-18h50.1c13.6,0,26.3,6.7,33.9,18l10.4,15.5h-12.7l-6.5-9.7c-5.7-8.4-15.1-13.3-25.1-13.3h-50.1
	c-10.2,0-19.6,5-25.1,13.3l-6.5,9.7H58.8L69.2,81.4z M73.9,96.9l5.8-8.5c5.2-7.8,14-12.5,23.5-12.5h50.1c9.4,0,18.2,4.7,23.5,12.5
	l5.8,8.5H73.9z M201.6,192.3H54.1c-25.8,0-46.7-20.9-46.7-46.7c0-25.8,20.9-46.7,46.7-46.7h147.5c25.8,0,46.7,20.9,46.7,46.7
	C248.2,171.3,227.3,192.3,201.6,192.3z M140.5,164.9h-25.3c-3.3,0-5.9,2.6-5.9,5.9v0.5c0,3.3,2.6,5.9,5.9,5.9h25.3
	c3.3,0,5.9-2.6,5.9-5.9v-0.5C146.4,167.5,143.8,164.9,140.5,164.9z M133.4,165.9v10.3h-11.1v-10.3H133.4z M110.3,171.3v-0.5
	c0-2.7,2.2-4.9,4.9-4.9h6.1v10.3h-6.1C112.5,176.2,110.3,174,110.3,171.3z M145.4,171.3c0,2.7-2.2,4.9-4.9,4.9h-6.1v-10.3h6.1
	c2.7,0,4.9,2.2,4.9,4.9V171.3z M136.1,114.6h2c0.3,0,0.5-0.2,0.5-0.5s-0.2-0.5-0.5-0.5h-2c-0.3,0-0.5,0.2-0.5,0.5
	S135.8,114.6,136.1,114.6z M130.1,114.6h2c0.3,0,0.5-0.2,0.5-0.5s-0.2-0.5-0.5-0.5h-2c-0.3,0-0.5,0.2-0.5,0.5
	S129.8,114.6,130.1,114.6z M124.1,114.6h2c0.3,0,0.5-0.2,0.5-0.5s-0.2-0.5-0.5-0.5h-2c-0.3,0-0.5,0.2-0.5,0.5
	S123.8,114.6,124.1,114.6z M118.1,114.6h2c0.3,0,0.5-0.2,0.5-0.5s-0.2-0.5-0.5-0.5h-2c-0.3,0-0.5,0.2-0.5,0.5
	S117.8,114.6,118.1,114.6z M163.8,104.6c0.1,0,0.2,0,0.2-0.1l1.8-1c0.2-0.1,0.3-0.4,0.2-0.7c-0.1-0.2-0.4-0.3-0.7-0.2l-1.8,1
	c-0.2,0.1-0.3,0.4-0.2,0.7C163.5,104.5,163.7,104.6,163.8,104.6z M112,114.4c0.7,0.1,1.4,0.2,2.1,0.2l0,0c0.3,0,0.5-0.2,0.5-0.5
	s-0.2-0.5-0.5-0.5c-0.6,0-1.3-0.1-1.9-0.2c-0.3,0-0.5,0.1-0.6,0.4C111.5,114,111.7,114.3,112,114.4z M142.1,114.6L142.1,114.6
	c0.7,0,1.4-0.1,2.1-0.2c0.3,0,0.5-0.3,0.4-0.6c0-0.3-0.3-0.5-0.6-0.4c-0.6,0.1-1.3,0.2-1.9,0.2c-0.3,0-0.5,0.3-0.5,0.5
	C141.6,114.4,141.9,114.6,142.1,114.6z M169.1,101.7c0.1,0,0.2,0,0.2-0.1l1.8-1c0.2-0.1,0.3-0.4,0.2-0.7c-0.1-0.2-0.4-0.3-0.7-0.2
	l-1.8,1c-0.2,0.1-0.3,0.4-0.2,0.7C168.8,101.6,168.9,101.7,169.1,101.7z M154.8,108.4l-1.8,1c-0.2,0.1-0.3,0.4-0.2,0.7
	c0.1,0.2,0.3,0.3,0.4,0.3c0.1,0,0.2,0,0.2-0.1l1.8-1c0.2-0.1,0.3-0.4,0.2-0.7C155.3,108.4,155,108.3,154.8,108.4z M103.2,109.4
	l-1.8-1c-0.2-0.1-0.5,0-0.7,0.2c-0.1,0.2,0,0.5,0.2,0.7l1.8,1c0.1,0,0.2,0.1,0.2,0.1c0.2,0,0.3-0.1,0.4-0.3
	C103.5,109.8,103.4,109.5,103.2,109.4z M97.9,106.5l-1.8-1c-0.2-0.1-0.5,0-0.7,0.2s0,0.5,0.2,0.7l1.8,1c0.1,0,0.2,0.1,0.2,0.1
	c0.2,0,0.3-0.1,0.4-0.3C98.2,107,98.1,106.7,97.9,106.5z M149.5,111.3l-0.8,0.4c-0.3,0.2-0.6,0.3-0.9,0.5c-0.3,0.1-0.4,0.4-0.3,0.7
	c0.1,0.2,0.3,0.3,0.5,0.3c0.1,0,0.1,0,0.2,0c0.3-0.1,0.7-0.3,1-0.5l0.8-0.4c0.2-0.1,0.3-0.4,0.2-0.7
	C150,111.3,149.7,111.2,149.5,111.3z M90.4,103.6l1.8,1c0.1,0,0.2,0.1,0.2,0.1c0.2,0,0.3-0.1,0.4-0.3c0.1-0.2,0-0.5-0.2-0.7l-1.8-1
	c-0.2-0.1-0.5,0-0.7,0.2C90,103.2,90.1,103.5,90.4,103.6z M106.2,112.2l0.8,0.4c0.3,0.2,0.6,0.3,1,0.5c0.1,0,0.1,0,0.2,0
	c0.2,0,0.4-0.1,0.5-0.3c0.1-0.3,0-0.5-0.2-0.7c-0.3-0.1-0.6-0.3-0.9-0.5l-0.8-0.5c-0.2-0.1-0.5,0-0.7,0.2
	C105.9,111.8,106,112.1,106.2,112.2z M85.1,100.7l1.8,1c0.1,0,0.2,0.1,0.2,0.1c0.2,0,0.3-0.1,0.4-0.3c0.1-0.2,0-0.5-0.2-0.7l-1.8-1
	c-0.2-0.1-0.5,0-0.7,0.2C84.7,100.3,84.8,100.6,85.1,100.7z M160.1,105.6l-1.8,1c-0.2,0.1-0.3,0.4-0.2,0.7c0.1,0.2,0.3,0.3,0.4,0.3
	s0.2,0,0.2-0.1l1.8-1c0.2-0.1,0.3-0.4,0.2-0.7C160.6,105.5,160.3,105.4,160.1,105.6z M144,128.2h-32.4c-2.1,0-4,1-5.1,2.8
	c-1.1,1.7-1.2,3.9-0.3,5.7l6.3,13.6c1,2.1,3.2,3.5,5.4,3.5h19.8c2.3,0,4.5-1.4,5.4-3.5l6.3-13.6c0.9-1.8,0.8-4-0.3-5.7
	C148,129.3,146.1,128.2,144,128.2z M147.6,135.9l-6.3,13.6c-0.6,1.4-2,2.3-3.6,2.3h-19.8c-1.5,0-3-1-3.6-2.3l-6.3-13.6
	c-0.6-1.2-0.5-2.7,0.2-3.8c0.7-1.2,2-1.9,3.4-1.9H144c1.4,0,2.6,0.7,3.4,1.9C148.1,133.3,148.2,134.6,147.6,135.9z"/>
</svg>
