<?xml version="1.0" encoding="utf-8"?>
<!-- Generator: Adobe Illustrator 19.0.0, SVG Export Plug-In . SVG Version: 6.00 Build 0)  -->
<svg version="1.1" id="Camada_1" xmlns="http://www.w3.org/2000/svg" xmlns:xlink="http://www.w3.org/1999/xlink" x="0px" y="0px"
	 viewBox="0 0 256 256" style="enable-background:new 0 0 256 256;" xml:space="preserve">
<style type="text/css">
	
</style>
<path d="M193.7,17.9H62.3c-5.3,0-9.8,4.5-9.8,9.8v200.6c0,5.3,4.5,9.8,9.8,9.8h131.4c5.4,0,9.8-4.4,9.8-9.8V27.7
	C203.5,22.4,199,17.9,193.7,17.9z M201.5,228.3c0,4.3-3.5,7.8-7.8,7.8H62.3c-4.2,0-7.8-3.6-7.8-7.8V27.7c0-4.2,3.6-7.8,7.8-7.8
	h131.4c4.2,0,7.8,3.6,7.8,7.8V228.3z M60,74.5c-0.3,0-0.5,0.2-0.5,0.5v4c0,0.3,0.2,0.5,0.5,0.5s0.5-0.2,0.5-0.5v-4
	C60.5,74.7,60.3,74.5,60,74.5z M60,82.5c-0.3,0-0.5,0.2-0.5,0.5v4c0,0.3,0.2,0.5,0.5,0.5s0.5-0.2,0.5-0.5v-4
	C60.5,82.7,60.3,82.5,60,82.5z M60,66.5c-0.3,0-0.5,0.2-0.5,0.5v4c0,0.3,0.2,0.5,0.5,0.5s0.5-0.2,0.5-0.5v-4
	C60.5,66.7,60.3,66.5,60,66.5z M60,114.5c-0.3,0-0.5,0.2-0.5,0.5v4c0,0.3,0.2,0.5,0.5,0.5s0.5-0.2,0.5-0.5v-4
	C60.5,114.7,60.3,114.5,60,114.5z M60,90.5c-0.3,0-0.5,0.2-0.5,0.5v4c0,0.3,0.2,0.5,0.5,0.5s0.5-0.2,0.5-0.5v-4
	C60.5,90.7,60.3,90.5,60,90.5z M60,58.5c-0.3,0-0.5,0.2-0.5,0.5v4c0,0.3,0.2,0.5,0.5,0.5s0.5-0.2,0.5-0.5v-4
	C60.5,58.7,60.3,58.5,60,58.5z M60,122.5c-0.3,0-0.5,0.2-0.5,0.5v4c0,0.3,0.2,0.5,0.5,0.5s0.5-0.2,0.5-0.5v-4
	C60.5,122.7,60.3,122.5,60,122.5z M60,98.5c-0.3,0-0.5,0.2-0.5,0.5v4c0,0.3,0.2,0.5,0.5,0.5s0.5-0.2,0.5-0.5v-4
	C60.5,98.7,60.3,98.5,60,98.5z M60,106.5c-0.3,0-0.5,0.2-0.5,0.5v4c0,0.3,0.2,0.5,0.5,0.5s0.5-0.2,0.5-0.5v-4
	C60.5,106.7,60.3,106.5,60,106.5z M62.2,36.5c0.3,0,0.5-0.3,0.4-0.6s-0.3-0.5-0.6-0.4c-1.4,0.2-2.5,1.6-2.5,3.1V39
	c0,0.3,0.2,0.5,0.5,0.5s0.5-0.2,0.5-0.5v-0.4C60.5,37.6,61.2,36.7,62.2,36.5z M78.6,36c0-0.3-0.2-0.5-0.5-0.5h-4
	c-0.3,0-0.5,0.2-0.5,0.5s0.2,0.5,0.5,0.5h4C78.4,36.5,78.6,36.3,78.6,36z M81.5,218.1h-4c-0.3,0-0.5,0.2-0.5,0.5s0.2,0.5,0.5,0.5h4
	c0.3,0,0.5-0.2,0.5-0.5S81.8,218.1,81.5,218.1z M86.6,36c0-0.3-0.2-0.5-0.5-0.5h-4c-0.3,0-0.5,0.2-0.5,0.5s0.2,0.5,0.5,0.5h4
	C86.4,36.5,86.6,36.3,86.6,36z M73.5,218.1h-4c-0.3,0-0.5,0.2-0.5,0.5s0.2,0.5,0.5,0.5h4c0.3,0,0.5-0.2,0.5-0.5
	S73.8,218.1,73.5,218.1z M60,42.5c-0.3,0-0.5,0.2-0.5,0.5v4c0,0.3,0.2,0.5,0.5,0.5s0.5-0.2,0.5-0.5v-4C60.5,42.7,60.3,42.5,60,42.5z
	 M70.6,36c0-0.3-0.2-0.5-0.5-0.5h-4c-0.3,0-0.5,0.2-0.5,0.5s0.2,0.5,0.5,0.5h4C70.4,36.5,70.6,36.3,70.6,36z M60,50.5
	c-0.3,0-0.5,0.2-0.5,0.5v4c0,0.3,0.2,0.5,0.5,0.5s0.5-0.2,0.5-0.5v-4C60.5,50.7,60.3,50.5,60,50.5z M60,130.5
	c-0.3,0-0.5,0.2-0.5,0.5v4c0,0.3,0.2,0.5,0.5,0.5s0.5-0.2,0.5-0.5v-4C60.5,130.7,60.3,130.5,60,130.5z M65.5,218.1h-3
	c-0.3,0-0.5-0.1-0.8-0.2c-0.2-0.1-0.5,0-0.7,0.2s0,0.5,0.2,0.7c0.4,0.2,0.8,0.3,1.2,0.3h3c0.3,0,0.5-0.2,0.5-0.5
	S65.8,218.1,65.5,218.1z M129.6,36c0,0.3,0.2,0.5,0.5,0.5h4c0.3,0,0.5-0.2,0.5-0.5s-0.2-0.5-0.5-0.5h-4
	C129.8,35.5,129.6,35.7,129.6,36z M138.1,36.5h4c0.3,0,0.5-0.2,0.5-0.5s-0.2-0.5-0.5-0.5h-4c-0.3,0-0.5,0.2-0.5,0.5
	S137.8,36.5,138.1,36.5z M89.5,218.1h-4c-0.3,0-0.5,0.2-0.5,0.5s0.2,0.5,0.5,0.5h4c0.3,0,0.5-0.2,0.5-0.5S89.8,218.1,89.5,218.1z
	 M122.1,36.5h4c0.3,0,0.5-0.2,0.5-0.5s-0.2-0.5-0.5-0.5h-4c-0.3,0-0.5,0.2-0.5,0.5S121.8,36.5,122.1,36.5z M146.1,36.5h4
	c0.3,0,0.5-0.2,0.5-0.5s-0.2-0.5-0.5-0.5h-4c-0.3,0-0.5,0.2-0.5,0.5S145.8,36.5,146.1,36.5z M114.1,36.5h4c0.3,0,0.5-0.2,0.5-0.5
	s-0.2-0.5-0.5-0.5h-4c-0.3,0-0.5,0.2-0.5,0.5S113.8,36.5,114.1,36.5z M170.1,36.5h4c0.3,0,0.5-0.2,0.5-0.5s-0.2-0.5-0.5-0.5h-4
	c-0.3,0-0.5,0.2-0.5,0.5S169.8,36.5,170.1,36.5z M178.1,36.5h4c0.3,0,0.5-0.2,0.5-0.5s-0.2-0.5-0.5-0.5h-4c-0.3,0-0.5,0.2-0.5,0.5
	S177.8,36.5,178.1,36.5z M194.2,35.6c-0.3-0.1-0.5,0.1-0.6,0.4c-0.1,0.3,0.1,0.5,0.4,0.6c0.9,0.2,1.6,1.1,1.6,2.1v0.5
	c0,0.3,0.2,0.5,0.5,0.5c0.3,0,0.5-0.2,0.5-0.5v-0.5C196.6,37.2,195.6,35.9,194.2,35.6z M125.5,218.1c-0.3,0-0.5,0.2-0.5,0.5
	s0.2,0.5,0.5,0.5h4c0.3,0,0.5-0.2,0.5-0.5s-0.2-0.5-0.5-0.5H125.5z M162.1,36.5h4c0.3,0,0.5-0.2,0.5-0.5s-0.2-0.5-0.5-0.5h-4
	c-0.3,0-0.5,0.2-0.5,0.5S161.8,36.5,162.1,36.5z M60,170.5c-0.3,0-0.5,0.2-0.5,0.5v4c0,0.3,0.2,0.5,0.5,0.5s0.5-0.2,0.5-0.5v-4
	C60.5,170.7,60.3,170.5,60,170.5z M60,162.5c-0.3,0-0.5,0.2-0.5,0.5v4c0,0.3,0.2,0.5,0.5,0.5s0.5-0.2,0.5-0.5v-4
	C60.5,162.7,60.3,162.5,60,162.5z M60,154.5c-0.3,0-0.5,0.2-0.5,0.5v4c0,0.3,0.2,0.5,0.5,0.5s0.5-0.2,0.5-0.5v-4
	C60.5,154.7,60.3,154.5,60,154.5z M60,138.5c-0.3,0-0.5,0.2-0.5,0.5v4c0,0.3,0.2,0.5,0.5,0.5s0.5-0.2,0.5-0.5v-4
	C60.5,138.7,60.3,138.5,60,138.5z M60,146.5c-0.3,0-0.5,0.2-0.5,0.5v4c0,0.3,0.2,0.5,0.5,0.5s0.5-0.2,0.5-0.5v-4
	C60.5,146.7,60.3,146.5,60,146.5z M60,186.5c-0.3,0-0.5,0.2-0.5,0.5v4c0,0.3,0.2,0.5,0.5,0.5s0.5-0.2,0.5-0.5v-4
	C60.5,186.7,60.3,186.5,60,186.5z M60,202.5c-0.3,0-0.5,0.2-0.5,0.5v4c0,0.3,0.2,0.5,0.5,0.5s0.5-0.2,0.5-0.5v-4
	C60.5,202.7,60.3,202.5,60,202.5z M60,194.5c-0.3,0-0.5,0.2-0.5,0.5v4c0,0.3,0.2,0.5,0.5,0.5s0.5-0.2,0.5-0.5v-4
	C60.5,194.7,60.3,194.5,60,194.5z M60,210.5c-0.3,0-0.5,0.2-0.5,0.5v4c0,0.3,0.2,0.5,0.5,0.5s0.5-0.2,0.5-0.5v-4
	C60.5,210.7,60.3,210.5,60,210.5z M60,178.5c-0.3,0-0.5,0.2-0.5,0.5v4c0,0.3,0.2,0.5,0.5,0.5s0.5-0.2,0.5-0.5v-4
	C60.5,178.7,60.3,178.5,60,178.5z M154.1,36.5h4c0.3,0,0.5-0.2,0.5-0.5s-0.2-0.5-0.5-0.5h-4c-0.3,0-0.5,0.2-0.5,0.5
	S153.8,36.5,154.1,36.5z M196.1,138.6c-0.3,0-0.5,0.2-0.5,0.5v4c0,0.3,0.2,0.5,0.5,0.5c0.3,0,0.5-0.2,0.5-0.5v-4
	C196.6,138.9,196.4,138.6,196.1,138.6z M196.1,146.6c-0.3,0-0.5,0.2-0.5,0.5v4c0,0.3,0.2,0.5,0.5,0.5c0.3,0,0.5-0.2,0.5-0.5v-4
	C196.6,146.9,196.4,146.6,196.1,146.6z M196.1,130.6c-0.3,0-0.5,0.2-0.5,0.5v4c0,0.3,0.2,0.5,0.5,0.5c0.3,0,0.5-0.2,0.5-0.5v-4
	C196.6,130.9,196.4,130.6,196.1,130.6z M196.1,154.6c-0.3,0-0.5,0.2-0.5,0.5v4c0,0.3,0.2,0.5,0.5,0.5c0.3,0,0.5-0.2,0.5-0.5v-4
	C196.6,154.9,196.4,154.6,196.1,154.6z M196.1,114.6c-0.3,0-0.5,0.2-0.5,0.5v4c0,0.3,0.2,0.5,0.5,0.5c0.3,0,0.5-0.2,0.5-0.5v-4
	C196.6,114.9,196.4,114.6,196.1,114.6z M196.1,122.6c-0.3,0-0.5,0.2-0.5,0.5v4c0,0.3,0.2,0.5,0.5,0.5c0.3,0,0.5-0.2,0.5-0.5v-4
	C196.6,122.9,196.4,122.6,196.1,122.6z M196.1,178.6c-0.3,0-0.5,0.2-0.5,0.5v4c0,0.3,0.2,0.5,0.5,0.5c0.3,0,0.5-0.2,0.5-0.5v-4
	C196.6,178.9,196.4,178.6,196.1,178.6z M196.1,186.6c-0.3,0-0.5,0.2-0.5,0.5v4c0,0.3,0.2,0.5,0.5,0.5c0.3,0,0.5-0.2,0.5-0.5v-4
	C196.6,186.9,196.4,186.6,196.1,186.6z M196.1,194.6c-0.3,0-0.5,0.2-0.5,0.5v4c0,0.3,0.2,0.5,0.5,0.5c0.3,0,0.5-0.2,0.5-0.5v-4
	C196.6,194.9,196.4,194.6,196.1,194.6z M196.1,162.6c-0.3,0-0.5,0.2-0.5,0.5v4c0,0.3,0.2,0.5,0.5,0.5c0.3,0,0.5-0.2,0.5-0.5v-4
	C196.6,162.9,196.4,162.6,196.1,162.6z M196.1,170.6c-0.3,0-0.5,0.2-0.5,0.5v4c0,0.3,0.2,0.5,0.5,0.5c0.3,0,0.5-0.2,0.5-0.5v-4
	C196.6,170.9,196.4,170.6,196.1,170.6z M196.1,66.6c-0.3,0-0.5,0.2-0.5,0.5v4c0,0.3,0.2,0.5,0.5,0.5c0.3,0,0.5-0.2,0.5-0.5v-4
	C196.6,66.9,196.4,66.6,196.1,66.6z M196.1,58.6c-0.3,0-0.5,0.2-0.5,0.5v4c0,0.3,0.2,0.5,0.5,0.5c0.3,0,0.5-0.2,0.5-0.5v-4
	C196.6,58.9,196.4,58.6,196.1,58.6z M196.1,50.6c-0.3,0-0.5,0.2-0.5,0.5v4c0,0.3,0.2,0.5,0.5,0.5c0.3,0,0.5-0.2,0.5-0.5v-4
	C196.6,50.9,196.4,50.6,196.1,50.6z M196.1,42.6c-0.3,0-0.5,0.2-0.5,0.5v4c0,0.3,0.2,0.5,0.5,0.5c0.3,0,0.5-0.2,0.5-0.5v-4
	C196.6,42.9,196.4,42.6,196.1,42.6z M196.1,98.6c-0.3,0-0.5,0.2-0.5,0.5v4c0,0.3,0.2,0.5,0.5,0.5c0.3,0,0.5-0.2,0.5-0.5v-4
	C196.6,98.9,196.4,98.6,196.1,98.6z M196.1,106.6c-0.3,0-0.5,0.2-0.5,0.5v4c0,0.3,0.2,0.5,0.5,0.5c0.3,0,0.5-0.2,0.5-0.5v-4
	C196.6,106.9,196.4,106.6,196.1,106.6z M196.1,90.6c-0.3,0-0.5,0.2-0.5,0.5v4c0,0.3,0.2,0.5,0.5,0.5c0.3,0,0.5-0.2,0.5-0.5v-4
	C196.6,90.9,196.4,90.6,196.1,90.6z M196.1,82.6c-0.3,0-0.5,0.2-0.5,0.5v4c0,0.3,0.2,0.5,0.5,0.5c0.3,0,0.5-0.2,0.5-0.5v-4
	C196.6,82.9,196.4,82.6,196.1,82.6z M196.1,74.6c-0.3,0-0.5,0.2-0.5,0.5v4c0,0.3,0.2,0.5,0.5,0.5c0.3,0,0.5-0.2,0.5-0.5v-4
	C196.6,74.9,196.4,74.6,196.1,74.6z M94.6,36c0-0.3-0.2-0.5-0.5-0.5h-4c-0.3,0-0.5,0.2-0.5,0.5s0.2,0.5,0.5,0.5h4
	C94.4,36.5,94.6,36.3,94.6,36z M196.1,202.6c-0.3,0-0.5,0.2-0.5,0.5v4c0,0.3,0.2,0.5,0.5,0.5c0.3,0,0.5-0.2,0.5-0.5v-4
	C196.6,202.9,196.4,202.6,196.1,202.6z M102.6,36c0-0.3-0.2-0.5-0.5-0.5h-4c-0.3,0-0.5,0.2-0.5,0.5s0.2,0.5,0.5,0.5h4
	C102.4,36.5,102.6,36.3,102.6,36z M105.5,218.1h-4c-0.3,0-0.5,0.2-0.5,0.5s0.2,0.5,0.5,0.5h4c0.3,0,0.5-0.2,0.5-0.5
	S105.8,218.1,105.5,218.1z M97.5,218.1h-4c-0.3,0-0.5,0.2-0.5,0.5s0.2,0.5,0.5,0.5h4c0.3,0,0.5-0.2,0.5-0.5S97.8,218.1,97.5,218.1z
	 M145.5,218.1h-4c-0.3,0-0.5,0.2-0.5,0.5s0.2,0.5,0.5,0.5h4c0.3,0,0.5-0.2,0.5-0.5S145.8,218.1,145.5,218.1z M110.6,36
	c0-0.3-0.2-0.5-0.5-0.5h-4c-0.3,0-0.5,0.2-0.5,0.5s0.2,0.5,0.5,0.5h4C110.4,36.5,110.6,36.3,110.6,36z M122,218.6
	c0-0.3-0.2-0.5-0.5-0.5h-4c-0.3,0-0.5,0.2-0.5,0.5s0.2,0.5,0.5,0.5h4C121.8,219.1,122,218.9,122,218.6z M113.5,218.1h-4
	c-0.3,0-0.5,0.2-0.5,0.5s0.2,0.5,0.5,0.5h4c0.3,0,0.5-0.2,0.5-0.5S113.8,218.1,113.5,218.1z M137.5,218.1h-4c-0.3,0-0.5,0.2-0.5,0.5
	s0.2,0.5,0.5,0.5h4c0.3,0,0.5-0.2,0.5-0.5S137.8,218.1,137.5,218.1z M190.6,36c0-0.3-0.2-0.5-0.5-0.5h-4c-0.3,0-0.5,0.2-0.5,0.5
	s0.2,0.5,0.5,0.5h4C190.4,36.5,190.6,36.3,190.6,36z M194.2,218c-0.2,0.1-0.5,0.1-0.7,0.1h-4c-0.3,0-0.5,0.2-0.5,0.5
	s0.2,0.5,0.5,0.5h4c0.4,0,0.7-0.1,1.1-0.2c0.3-0.1,0.4-0.4,0.3-0.6C194.7,218,194.5,217.9,194.2,218z M185.5,218.1h-4
	c-0.3,0-0.5,0.2-0.5,0.5s0.2,0.5,0.5,0.5h4c0.3,0,0.5-0.2,0.5-0.5S185.8,218.1,185.5,218.1z M196.1,210.6c-0.3,0-0.5,0.2-0.5,0.5v4
	c0,0.3,0.2,0.5,0.5,0.5c0.3,0,0.5-0.2,0.5-0.5v-4C196.6,210.9,196.4,210.6,196.1,210.6z M153.5,218.1h-4c-0.3,0-0.5,0.2-0.5,0.5
	s0.2,0.5,0.5,0.5h4c0.3,0,0.5-0.2,0.5-0.5S153.8,218.1,153.5,218.1z M169.5,218.1h-4c-0.3,0-0.5,0.2-0.5,0.5s0.2,0.5,0.5,0.5h4
	c0.3,0,0.5-0.2,0.5-0.5S169.8,218.1,169.5,218.1z M161.5,218.1h-4c-0.3,0-0.5,0.2-0.5,0.5s0.2,0.5,0.5,0.5h4c0.3,0,0.5-0.2,0.5-0.5
	S161.8,218.1,161.5,218.1z M177.5,218.1h-4c-0.3,0-0.5,0.2-0.5,0.5s0.2,0.5,0.5,0.5h4c0.3,0,0.5-0.2,0.5-0.5
	S177.8,218.1,177.5,218.1z M132.7,224h-9.3c-1.9,0-3.4,1.5-3.4,3.4s1.5,3.4,3.4,3.4h9.3c1.9,0,3.4-1.5,3.4-3.4S134.6,224,132.7,224z
	 M132.7,229.8h-9.3c-1.3,0-2.4-1.1-2.4-2.4s1.1-2.4,2.4-2.4h9.3c1.3,0,2.4,1.1,2.4,2.4S134,229.8,132.7,229.8z M128,31.6
	c1.9,0,3.4-1.5,3.4-3.4s-1.5-3.4-3.4-3.4c-1.9,0-3.4,1.5-3.4,3.4S126.1,31.6,128,31.6z M128,25.8c1.3,0,2.4,1.1,2.4,2.4
	s-1.1,2.4-2.4,2.4s-2.4-1.1-2.4-2.4S126.7,25.8,128,25.8z M113,207.1c0.1,0,0.2,0.1,0.2,0.1c0.2,0,0.3-0.1,0.4-0.3l71.7-125.6
	c0.1-0.2,0.1-0.5-0.2-0.7c-0.2-0.1-0.5-0.1-0.7,0.2l-71.7,125.6C112.6,206.7,112.7,207,113,207.1z M183.3,125.5
	c-0.2-0.1-0.5-0.1-0.7,0.2L139,202.2c-0.1,0.2-0.1,0.5,0.2,0.7c0.1,0,0.2,0.1,0.2,0.1c0.2,0,0.3-0.1,0.4-0.3l43.7-76.5
	C183.7,125.9,183.6,125.6,183.3,125.5z"/>
</svg>
