<?xml version="1.0" encoding="utf-8"?>
<!-- Generator: Adobe Illustrator 19.0.0, SVG Export Plug-In . SVG Version: 6.00 Build 0)  -->
<svg version="1.1" id="Camada_1" xmlns="http://www.w3.org/2000/svg" xmlns:xlink="http://www.w3.org/1999/xlink" x="0px" y="0px"
	 viewBox="0 0 256 256" style="enable-background:new 0 0 256 256;" xml:space="preserve">
<style type="text/css">
	
</style>
<path d="M205.9,121.4l-22.6-96.7c-1-4.2-4.7-7.2-9-7.2H81.5c-4.3,0-7.9,2.9-9,7.2l-22.6,96.7c-0.6,2.7,0,5.5,1.8,7.8
	s4.5,3.6,7.3,3.6h46.3c0.2,0.5,0.5,1.1,0.8,1.6c0.1,0.2,0.3,0.3,0.4,0.3s0.2,0,0.2-0.1c0.2-0.1,0.3-0.4,0.2-0.7
	c-0.2-0.4-0.4-0.7-0.5-1.1h43.3c-0.3,0.6-0.6,1.1-0.9,1.7c-0.1,0.2-0.1,0.5,0.2,0.7c0.1,0,0.2,0.1,0.2,0.1c0.2,0,0.3-0.1,0.4-0.3
	c0.4-0.7,0.8-1.4,1.1-2.2h29.4v42.8c-3.7,0.3-6.6,3.3-6.6,7.1c0,3.9,3.2,7.1,7.1,7.1c3.9,0,7.1-3.2,7.1-7.1c0-3.7-2.9-6.8-6.6-7.1
	v-42.8h15.8c2.8,0,5.5-1.3,7.2-3.5C205.9,127,206.5,124.2,205.9,121.4z M186.7,182.6c0,3.4-2.7,6.1-6.1,6.1c-3.4,0-6.1-2.7-6.1-6.1
	s2.7-6.1,6.1-6.1C184,176.5,186.7,179.2,186.7,182.6z M202.5,128c-1.4,1.7-3.4,2.7-5.6,2.7h-45.6c-0.1-0.1-0.1-0.1-0.2-0.2
	c-0.2-0.1-0.4,0-0.6,0.2h-45c-0.1-0.2-0.4-0.3-0.6-0.2c-0.1,0-0.2,0.1-0.2,0.2H59c-2.2,0-4.3-1-5.7-2.8c-1.4-1.7-1.9-4-1.4-6.1
	l22.6-96.7c0.8-3.3,3.8-5.6,7-5.6h92.8c3.4,0,6.2,2.3,7,5.6l22.6,96.7C204.4,124,203.9,126.3,202.5,128z M133.5,145.8
	c-1.3,0.3-2.6,0.5-3.9,0.6c-0.3,0-0.5,0.3-0.5,0.5c0,0.3,0.2,0.5,0.5,0.5l0,0c1.4-0.1,2.7-0.3,4-0.6c0.3-0.1,0.4-0.3,0.4-0.6
	C134,145.9,133.8,145.7,133.5,145.8z M140.7,142.8c-1.1,0.7-2.3,1.3-3.5,1.8c-0.3,0.1-0.4,0.4-0.3,0.7c0.1,0.2,0.3,0.3,0.5,0.3
	c0.1,0,0.1,0,0.2,0c1.3-0.5,2.5-1.2,3.6-1.9c0.2-0.1,0.3-0.5,0.2-0.7C141.2,142.7,140.9,142.6,140.7,142.8z M109.1,137.1
	c-0.2-0.2-0.5-0.3-0.7-0.1c-0.2,0.2-0.3,0.5-0.1,0.7c0.8,1.1,1.8,2.1,2.7,3c0.1,0.1,0.2,0.1,0.3,0.1c0.1,0,0.3-0.1,0.4-0.2
	c0.2-0.2,0.2-0.5,0-0.7C110.7,139.1,109.9,138.1,109.1,137.1z M118.2,144.3c-1.2-0.5-2.3-1.2-3.4-1.9c-0.2-0.2-0.5-0.1-0.7,0.1
	s-0.1,0.5,0.1,0.7c1.1,0.8,2.3,1.4,3.6,2c0.1,0,0.1,0,0.2,0c0.2,0,0.4-0.1,0.5-0.3C118.5,144.7,118.4,144.4,118.2,144.3z
	 M125.7,146.3c-1.3-0.1-2.6-0.4-3.9-0.7c-0.3-0.1-0.5,0.1-0.6,0.4c-0.1,0.3,0.1,0.5,0.4,0.6c1.3,0.3,2.7,0.6,4,0.7l0,0
	c0.3,0,0.5-0.2,0.5-0.5C126.2,146.6,126,146.3,125.7,146.3z M146.5,137.6c-0.8,1-1.7,2-2.7,2.8c-0.2,0.2-0.2,0.5,0,0.7
	c0.1,0.1,0.2,0.2,0.4,0.2c0.1,0,0.2,0,0.3-0.1c1-0.9,2-1.9,2.8-2.9c0.2-0.2,0.1-0.5-0.1-0.7C147,137.3,146.7,137.4,146.5,137.6z
	 M114.8,202.7c-0.2,0.1-0.3,0.5-0.2,0.7s0.3,0.2,0.4,0.2c0.1,0,0.2,0,0.3-0.1c1.1-0.7,2.3-1.3,3.5-1.8c0.3-0.1,0.4-0.4,0.3-0.7
	c-0.1-0.3-0.4-0.4-0.7-0.3C117.1,201.3,115.9,202,114.8,202.7z M108.7,208.1c-0.2,0.2-0.1,0.5,0.1,0.7c0.1,0.1,0.2,0.1,0.3,0.1
	c0.1,0,0.3-0.1,0.4-0.2c0.8-1,1.7-2,2.7-2.8c0.2-0.2,0.2-0.5,0-0.7s-0.5-0.2-0.7,0C110.5,206,109.5,207,108.7,208.1z M144.3,205.6
	c-0.2,0.2-0.2,0.5,0,0.7c1,0.9,1.8,1.9,2.6,2.9c0.1,0.1,0.2,0.2,0.4,0.2c0.1,0,0.2,0,0.3-0.1c0.2-0.2,0.3-0.5,0.1-0.7
	c-0.8-1.1-1.8-2.1-2.7-3C144.8,205.4,144.5,205.4,144.3,205.6z M121.9,200.2c0.1,0.2,0.3,0.4,0.5,0.4h0.1c1.3-0.3,2.6-0.5,3.9-0.6
	c0.3,0,0.5-0.3,0.5-0.5s-0.2-0.5-0.5-0.5c-1.4,0.1-2.7,0.3-4,0.6C122,199.6,121.8,199.9,121.9,200.2z M137.6,201.3
	c-0.1,0.3,0,0.5,0.3,0.7c1.2,0.5,2.3,1.2,3.4,1.9c0.1,0.1,0.2,0.1,0.3,0.1c0.2,0,0.3-0.1,0.4-0.2c0.2-0.2,0.1-0.5-0.1-0.7
	c-1.1-0.8-2.3-1.4-3.6-2C138,201,137.7,201.1,137.6,201.3z M129.8,199.5c0,0.3,0.2,0.5,0.5,0.5c1.3,0.1,2.6,0.4,3.9,0.7h0.1
	c0.2,0,0.4-0.1,0.5-0.4c0.1-0.3-0.1-0.5-0.4-0.6c-1.3-0.3-2.7-0.6-4-0.7C130.1,199,129.9,199.2,129.8,199.5z M119.7,145.6h1v54.9h-1
	V145.6z M135.3,145.6h1v54.9h-1V145.6z M158.2,214.4h-7.1c-0.3-0.8-0.7-1.6-1.1-2.4c-0.1-0.2-0.4-0.3-0.7-0.2
	c-0.2,0.1-0.3,0.4-0.2,0.7c0.3,0.6,0.6,1.3,0.9,1.9h-44c0.4-0.8,0.8-1.7,1.2-2.5c0.1-0.2,0.1-0.5-0.2-0.7c-0.2-0.1-0.5-0.1-0.7,0.2
	c-0.5,0.9-1,1.9-1.4,3H98c-9.3,0-16.9,7.6-16.9,16.9v3.6c0,2,1.6,3.6,3.6,3.6h86.7c1.9,0,3.6-1.6,3.7-3.6v-3.6
	C175.1,222,167.5,214.4,158.2,214.4z M173.1,234.8c-0.1,0.9-0.8,1.7-1.7,1.7H84.7c-0.9,0-1.6-0.7-1.6-1.6v-3.6
	c0-8.2,6.7-14.9,14.9-14.9h60.2c8.2,0,14.9,6.7,14.9,14.9V234.8z M162.6,42.9c-0.1-0.3-0.3-0.4-0.6-0.4c-0.3,0.1-0.4,0.3-0.4,0.6
	L173.5,99c0,0.2,0.3,0.4,0.5,0.4h0.1c0.3-0.1,0.4-0.3,0.4-0.6L162.6,42.9z"/>
</svg>
