<?xml version="1.0" encoding="utf-8"?>
<!-- Generator: Adobe Illustrator 19.0.0, SVG Export Plug-In . SVG Version: 6.00 Build 0)  -->
<svg version="1.1" id="Camada_1" xmlns="http://www.w3.org/2000/svg" xmlns:xlink="http://www.w3.org/1999/xlink" x="0px" y="0px"
	 viewBox="0 0 256 256" style="enable-background:new 0 0 256 256;" xml:space="preserve">
<style type="text/css">
	
</style>
<path d="M241.3,77.9l-49.2-36.1l-34.7-13.4l-0.5-0.2l-0.4,0.3c-0.1,0.1-10.3,6.9-28.6,6.9s-28.5-6.9-28.6-6.9l-0.4-0.3
	L63.8,41.8h-0.1L14.5,77.9c-1.5,1.1-2.2,3-1.8,4.9c4.1,17.9,15.3,29.4,19.9,33.5c1.4,1.2,3.4,1.5,5.2,0.8l25.8-12.5v115
	c0,2.1,1.5,3.8,3.5,4.1c23.7,3.6,43.2,4.1,60.9,4.1c16.4,0,36.5-0.5,60.8-4.1c2-0.3,3.6-2.1,3.6-4.1v-115l25.8,12.5
	c1.7,0.9,3.8,0.6,5.2-0.7c4.6-4.1,15.8-15.6,19.9-33.6C243.5,80.9,242.8,79,241.3,77.9z M98.5,30.4c2.1,4.2,12,21.4,29.3,21.4
	c17.9,0,27.3-17.2,29.3-21.4l7.5,2.9c-1.2,3.1-11.1,26.5-36.8,26.5c-24.7,0-34.1-22.3-35.8-26.9L98.5,30.4L98.5,30.4z M155.6,31.3
	c-2.9,5.5-11.9,19.5-27.8,19.5c-15.2,0-24.6-13.9-27.7-19.5c3.9,2.1,13.3,6.1,27.7,6.1C142.3,37.4,151.7,33.4,155.6,31.3z
	 M36.8,115.3c-1.1,0.5-2.3,0.3-3-0.4c-4.5-4-15.3-15.1-19.3-32.4c-0.2-1.2,0.1-2.3,1-2.9l4.8-3.5c0.3,1.4,4.1,20.6,21.7,36.8
	L36.8,115.3z M188.4,221.7c-24.2,3.6-44.2,4.1-60.6,4.1c-17.5,0-37-0.5-60.6-4.1c-1-0.1-1.8-1-1.8-2.1v-6.7
	c4.3,1.1,21.6,4.7,62.3,4.7c40.8,0,58.1-3.6,62.5-4.7v6.7C190.2,220.6,189.4,221.6,188.4,221.7z M191.6,102.1
	c-0.1-0.1-0.1-0.2-0.2-0.4l-0.2,0.2l-1-0.5v110.5c-3.8,1-20.9,4.7-62.5,4.7s-58.5-3.7-62.3-4.7V101.4l-0.8,0.4l-0.1-0.1
	c0,0.1-0.1,0.1-0.1,0.2L43,112.3C24.9,95.7,21.4,75.9,21.3,75.7l-0.8,0.1l43.9-32.2l0.3-0.2l25.5-9.9c1.8,5,11.7,28.2,37.6,28.2
	c26.9,0,37.3-24.3,38.7-27.8l24.6,9.5L235,75.6l-0.3-0.1c0,0.2-3.6,20.1-21.8,36.7L191.6,102.1z M241.1,82.4
	c-3.9,17.3-14.8,28.5-19.3,32.5c-0.8,0.8-2,0.9-3,0.4l-5-2.4c17-15.6,21.2-34,21.8-36.7l4.5,3.3C241,80.2,241.4,81.2,241.1,82.4z
	 M70.1,86.1l1,0.2c0.2-0.7,0.3-1.4,0.4-2.1l-1-0.2C70.4,84.8,70.2,85.4,70.1,86.1z M71.1,80l1,0.1c0.1-0.7,0.1-1.4,0.2-2.1l-1-0.1
	C71.2,78.6,71.2,79.3,71.1,80z M69.8,55c-0.2-0.7-0.4-1.4-0.6-2l-0.9,0.3c0.2,0.6,0.4,1.3,0.6,2L69.8,55z M71.4,71.7
	c0,0.5,0,1.1,0,1.6v0.5h1v-0.5c0-0.5,0-1.1,0-1.6H71.4z M68.4,92.1l1,0.3c0.2-0.7,0.4-1.3,0.6-2l-1-0.3
	C68.9,90.8,68.7,91.5,68.4,92.1z M71.3,61.2c-0.1-0.7-0.3-1.4-0.4-2.1l-1,0.2c0.2,0.7,0.3,1.3,0.4,2L71.3,61.2z M67.7,49
	c-0.3-0.7-0.6-1.3-0.8-1.9L66,47.5c0.3,0.6,0.5,1.2,0.8,1.9L67.7,49z M66.2,98l0.9,0.4c0.3-0.7,0.6-1.3,0.8-1.9L67,96.1
	C66.8,96.7,66.5,97.3,66.2,98z M71.2,67.5l1-0.1c-0.1-0.7-0.1-1.4-0.2-2.1l-1,0.1C71.1,66.1,71.1,66.8,71.2,67.5z M188.2,49l0.9,0.4
	c0.3-0.7,0.6-1.3,0.8-1.9l-0.9-0.4C188.8,47.7,188.5,48.3,188.2,49z M186.1,55l1,0.3c0.2-0.7,0.4-1.3,0.6-2l-0.9-0.3
	C186.5,53.6,186.3,54.3,186.1,55z M185.9,90.4c0.2,0.7,0.4,1.3,0.6,2l1-0.3c-0.2-0.7-0.4-1.3-0.6-2L185.9,90.4z M187.9,96.4
	c0.3,0.6,0.5,1.3,0.8,1.9l0.9-0.4c-0.3-0.6-0.5-1.3-0.8-1.9L187.9,96.4z M184.4,84.3c0.1,0.7,0.3,1.4,0.4,2.1l1-0.2
	c-0.1-0.7-0.3-1.4-0.4-2L184.4,84.3z M184.4,73.3c0-0.5,0-1.1,0-1.6h-1c0,0.5,0,1.1,0,1.6v0.5h1V73.3z M184.6,77.9l-1,0.1
	c0.1,0.7,0.1,1.4,0.2,2.1l1-0.1C184.7,79.3,184.7,78.6,184.6,77.9z M184.9,65.5l-1-0.1c-0.1,0.7-0.2,1.4-0.2,2.1l1,0.1
	C184.8,66.8,184.8,66.1,184.9,65.5z M186,59.3l-1-0.2c-0.2,0.7-0.3,1.4-0.4,2.1l1,0.2C185.7,60.7,185.9,60,186,59.3z"/>
</svg>
