<?xml version="1.0" encoding="utf-8"?>
<!-- Generator: Adobe Illustrator 19.0.0, SVG Export Plug-In . SVG Version: 6.00 Build 0)  -->
<svg version="1.1" id="Camada_1" xmlns="http://www.w3.org/2000/svg" xmlns:xlink="http://www.w3.org/1999/xlink" x="0px" y="0px"
	 viewBox="0 0 256 256" style="enable-background:new 0 0 256 256;" xml:space="preserve">
<style type="text/css">
	
</style>
<path d="M81.5,127c0.9,8,6.8,13.9,14.4,14.3c11.5,0.7,23,1,34.3,1c11.2,0,21-0.3,29.9-1c7.8-0.5,13.6-6.3,14.4-14.3
	c1.3-13.1,1.3-25.8,0-37.9c-0.9-8.1-6.7-13.9-14.4-14.3c-21.6-1.3-43.2-1.3-64.1,0c-7.6,0.4-13.6,6.3-14.4,14.3
	C80.2,101.6,80.2,114.4,81.5,127z M83.5,89.3c0.7-7,5.9-12.1,12.6-12.5c10.4-0.6,21-1,31.7-1s21.4,0.3,32.2,1
	c6.8,0.4,11.8,5.4,12.6,12.5c1.3,11.9,1.3,24.6,0,37.5c-0.7,7-5.8,12-12.6,12.5c-8.8,0.7-18.5,1-29.7,1s-22.7-0.3-34.1-1
	c-6.6-0.4-11.8-5.5-12.6-12.5C82.2,114.3,82.2,101.7,83.5,89.3z M118.4,94.6v26.1l25.1-12.9L118.4,94.6z M119.4,96.2l21.9,11.6
	l-21.9,11.3V96.2z M205.5,174.3h-81.3c-2.4-5.6-8-9.6-14.5-9.6s-12.1,4-14.5,9.6H50.4c-3.4,0-6.2,2.8-6.2,6.2s2.8,6.2,6.2,6.2h44.8
	c2.4,5.6,8,9.6,14.5,9.6s12.1-4,14.5-9.6h81.3c3.4,0,6.2-2.8,6.2-6.2S208.9,174.3,205.5,174.3z M50.4,185.7c-2.8,0-5.2-2.4-5.2-5.2
	s2.4-5.2,5.2-5.2h44.4c-0.6,1.6-0.9,3.4-0.9,5.2s0.3,3.6,0.9,5.2H50.4z M109.7,194.3c-7.6,0-13.8-6.2-13.8-13.8s6.2-13.8,13.8-13.8
	s13.8,6.2,13.8,13.8S117.3,194.3,109.7,194.3z M205.5,185.7h-80.9c0.6-1.6,0.9-3.4,0.9-5.2s-0.3-3.6-0.9-5.2h80.9
	c2.8,0,5.2,2.4,5.2,5.2S208.3,185.7,205.5,185.7z M18.5,150.8c0.3,0,0.5-0.2,0.5-0.5v-4c0-0.3-0.2-0.5-0.5-0.5S18,146,18,146.3v4
	C18,150.6,18.2,150.8,18.5,150.8z M18.5,142.8c0.3,0,0.5-0.2,0.5-0.5v-4c0-0.3-0.2-0.5-0.5-0.5S18,138,18,138.3v4
	C18,142.6,18.2,142.8,18.5,142.8z M18.5,126.8c0.3,0,0.5-0.2,0.5-0.5v-4c0-0.3-0.2-0.5-0.5-0.5S18,122,18,122.3v4
	C18,126.6,18.2,126.8,18.5,126.8z M62.5,207.5h-4c-0.3,0-0.5,0.2-0.5,0.5s0.2,0.5,0.5,0.5h4c0.3,0,0.5-0.2,0.5-0.5
	S62.8,207.5,62.5,207.5z M18.5,102.8c0.3,0,0.5-0.2,0.5-0.5v-4c0-0.3-0.2-0.5-0.5-0.5S18,98,18,98.3v4
	C18,102.6,18.2,102.8,18.5,102.8z M18.5,134.8c0.3,0,0.5-0.2,0.5-0.5v-4c0-0.3-0.2-0.5-0.5-0.5S18,130,18,130.3v4
	C18,134.6,18.2,134.8,18.5,134.8z M18.5,118.8c0.3,0,0.5-0.2,0.5-0.5v-4c0-0.3-0.2-0.5-0.5-0.5S18,114,18,114.3v4
	C18,118.6,18.2,118.8,18.5,118.8z M18.5,158.8c0.3,0,0.5-0.2,0.5-0.5v-4c0-0.3-0.2-0.5-0.5-0.5S18,154,18,154.3v4
	C18,158.6,18.2,158.8,18.5,158.8z M19.3,202.1c-0.1-0.3-0.4-0.4-0.6-0.3c-0.2,0.1-0.4,0.3-0.4,0.5c0,0,0,0.1,0,0.2
	c0.4,1.3,1.2,2.6,2.2,3.6c0.1,0.1,0.2,0.2,0.3,0.2s0.3,0,0.4-0.2c0.2-0.2,0.2-0.5,0-0.7C20.3,204.4,19.7,203.3,19.3,202.1z
	 M18.5,166.8c0.3,0,0.5-0.2,0.5-0.5v-4c0-0.3-0.2-0.5-0.5-0.5S18,162,18,162.3v4C18,166.6,18.2,166.8,18.5,166.8z M44.1,48
	c0-0.3-0.2-0.5-0.5-0.5h-4c-0.3,0-0.5,0.2-0.5,0.5s0.2,0.5,0.5,0.5h4C43.9,48.5,44.1,48.3,44.1,48z M36.1,48c0-0.3-0.2-0.5-0.5-0.5
	h-4c-0.3,0-0.5,0.2-0.5,0.5s0.2,0.5,0.5,0.5h4C35.9,48.5,36.1,48.3,36.1,48z M54.5,207.5h-4c-0.3,0-0.5,0.2-0.5,0.5s0.2,0.5,0.5,0.5
	h4c0.3,0,0.5-0.2,0.5-0.5S54.8,207.5,54.5,207.5z M30.5,207.5h-4c-0.7,0-1.4-0.1-2.1-0.3l0,0l0,0c-0.3-0.1-0.5,0.1-0.6,0.3v0.1
	c0,0.2,0.1,0.4,0.4,0.5l0,0c0.8,0.2,1.6,0.3,2.4,0.3h4c0.3,0,0.5-0.2,0.5-0.5C31,207.7,30.8,207.5,30.5,207.5z M46.5,207.5h-4
	c-0.3,0-0.5,0.2-0.5,0.5s0.2,0.5,0.5,0.5h4c0.3,0,0.5-0.2,0.5-0.5S46.8,207.5,46.5,207.5z M38.5,207.5h-4c-0.3,0-0.5,0.2-0.5,0.5
	s0.2,0.5,0.5,0.5h4c0.3,0,0.5-0.2,0.5-0.5S38.8,207.5,38.5,207.5z M18.5,174.8c0.3,0,0.5-0.2,0.5-0.5v-4c0-0.3-0.2-0.5-0.5-0.5
	S18,170,18,170.3v4C18,174.6,18.2,174.8,18.5,174.8z M26.5,48.5h1.1c0.3,0,0.5-0.2,0.5-0.5s-0.2-0.5-0.5-0.5h-1.1c-1,0-2,0.2-3,0.5
	c-0.3,0.1-0.4,0.4-0.3,0.6c0.1,0.2,0.3,0.3,0.5,0.3c0.1,0,0.1,0,0.2,0C24.7,48.7,25.6,48.5,26.5,48.5z M18.5,182.8
	c0.3,0,0.5-0.2,0.5-0.5v-4c0-0.3-0.2-0.5-0.5-0.5S18,178,18,178.3v4C18,182.6,18.2,182.8,18.5,182.8z M18.5,190.8
	c0.3,0,0.5-0.2,0.5-0.5v-4c0-0.3-0.2-0.5-0.5-0.5S18,186,18,186.3v4C18,190.6,18.2,190.8,18.5,190.8z M19,198.3v-4
	c0-0.3-0.2-0.5-0.5-0.5S18,194,18,194.3v4c0,0.3,0.2,0.5,0.5,0.5S19,198.6,19,198.3z M18.5,110.8c0.3,0,0.5-0.2,0.5-0.5v-4
	c0-0.3-0.2-0.5-0.5-0.5S18,106,18,106.3v4C18,110.6,18.2,110.8,18.5,110.8z M119.6,48.5h4c0.3,0,0.5-0.2,0.5-0.5s-0.2-0.5-0.5-0.5
	h-4c-0.3,0-0.5,0.2-0.5,0.5S119.3,48.5,119.6,48.5z M127.6,48.5h4c0.3,0,0.5-0.2,0.5-0.5s-0.2-0.5-0.5-0.5h-4
	c-0.3,0-0.5,0.2-0.5,0.5S127.3,48.5,127.6,48.5z M87.6,48.5h4c0.3,0,0.5-0.2,0.5-0.5s-0.2-0.5-0.5-0.5h-4c-0.3,0-0.5,0.2-0.5,0.5
	S87.3,48.5,87.6,48.5z M103.6,48.5h4c0.3,0,0.5-0.2,0.5-0.5s-0.2-0.5-0.5-0.5h-4c-0.3,0-0.5,0.2-0.5,0.5S103.3,48.5,103.6,48.5z
	 M95.6,48.5h4c0.3,0,0.5-0.2,0.5-0.5s-0.2-0.5-0.5-0.5h-4c-0.3,0-0.5,0.2-0.5,0.5S95.3,48.5,95.6,48.5z M111.6,48.5h4
	c0.3,0,0.5-0.2,0.5-0.5s-0.2-0.5-0.5-0.5h-4c-0.3,0-0.5,0.2-0.5,0.5S111.3,48.5,111.6,48.5z M167.6,48.5h4c0.3,0,0.5-0.2,0.5-0.5
	s-0.2-0.5-0.5-0.5h-4c-0.3,0-0.5,0.2-0.5,0.5S167.3,48.5,167.6,48.5z M159.6,48.5h4c0.3,0,0.5-0.2,0.5-0.5s-0.2-0.5-0.5-0.5h-4
	c-0.3,0-0.5,0.2-0.5,0.5S159.3,48.5,159.6,48.5z M143.6,48.5h4c0.3,0,0.5-0.2,0.5-0.5s-0.2-0.5-0.5-0.5h-4c-0.3,0-0.5,0.2-0.5,0.5
	S143.3,48.5,143.6,48.5z M135.6,48.5h4c0.3,0,0.5-0.2,0.5-0.5s-0.2-0.5-0.5-0.5h-4c-0.3,0-0.5,0.2-0.5,0.5S135.3,48.5,135.6,48.5z
	 M151.6,48.5h4c0.3,0,0.5-0.2,0.5-0.5s-0.2-0.5-0.5-0.5h-4c-0.3,0-0.5,0.2-0.5,0.5S151.3,48.5,151.6,48.5z M18.5,78.8
	c0.3,0,0.5-0.2,0.5-0.5v-4c0-0.3-0.2-0.5-0.5-0.5S18,74,18,74.3v4C18,78.6,18.2,78.8,18.5,78.8z M175.6,48.5h4
	c0.3,0,0.5-0.2,0.5-0.5s-0.2-0.5-0.5-0.5h-4c-0.3,0-0.5,0.2-0.5,0.5S175.3,48.5,175.6,48.5z M18.5,70.8c0.3,0,0.5-0.2,0.5-0.5v-4
	c0-0.3-0.2-0.5-0.5-0.5S18,66,18,66.3v4C18,70.6,18.2,70.8,18.5,70.8z M18.5,86.8c0.3,0,0.5-0.2,0.5-0.5v-4c0-0.3-0.2-0.5-0.5-0.5
	S18,82,18,82.3v4C18,86.6,18.2,86.8,18.5,86.8z M18.5,94.8c0.3,0,0.5-0.2,0.5-0.5v-4c0-0.3-0.2-0.5-0.5-0.5S18,90,18,90.3v4
	C18,94.6,18.2,94.8,18.5,94.8z M18.6,54.8h0.1c0.2,0,0.4-0.2,0.5-0.4c0.3-1.2,0.8-2.4,1.7-3.3C21,51,21,50.9,21,50.8
	c0-0.1-0.1-0.3-0.2-0.4c-0.2-0.2-0.5-0.1-0.7,0.1c-0.9,1.1-1.6,2.4-1.9,3.8C18.1,54.5,18.3,54.8,18.6,54.8z M79.6,48.5h4
	c0.3,0,0.5-0.2,0.5-0.5s-0.2-0.5-0.5-0.5h-4c-0.3,0-0.5,0.2-0.5,0.5S79.3,48.5,79.6,48.5z M63.6,48.5h4c0.3,0,0.5-0.2,0.5-0.5
	s-0.2-0.5-0.5-0.5h-4c-0.3,0-0.5,0.2-0.5,0.5S63.3,48.5,63.6,48.5z M71.6,48.5h4c0.3,0,0.5-0.2,0.5-0.5s-0.2-0.5-0.5-0.5h-4
	c-0.3,0-0.5,0.2-0.5,0.5S71.3,48.5,71.6,48.5z M47.6,48.5h4c0.3,0,0.5-0.2,0.5-0.5s-0.2-0.5-0.5-0.5h-4c-0.3,0-0.5,0.2-0.5,0.5
	S47.3,48.5,47.6,48.5z M55.6,48.5h4c0.3,0,0.5-0.2,0.5-0.5s-0.2-0.5-0.5-0.5h-4c-0.3,0-0.5,0.2-0.5,0.5S55.3,48.5,55.6,48.5z
	 M18.5,62.8c0.3,0,0.5-0.2,0.5-0.5v-4c0-0.3-0.2-0.5-0.5-0.5S18,58,18,58.3v4C18,62.6,18.2,62.8,18.5,62.8z M238.5,164.1
	c-0.3,0-0.5,0.2-0.5,0.5v4c0,0.3,0.2,0.5,0.5,0.5s0.5-0.2,0.5-0.5v-4C239,164.3,238.8,164.1,238.5,164.1z M238.5,188.1
	c-0.3,0-0.5,0.2-0.5,0.5v4c0,0.3,0.2,0.5,0.5,0.5s0.5-0.2,0.5-0.5v-4C239,188.3,238.8,188.1,238.5,188.1z M238.5,140.1
	c-0.3,0-0.5,0.2-0.5,0.5v4c0,0.3,0.2,0.5,0.5,0.5s0.5-0.2,0.5-0.5v-4C239,140.3,238.8,140.1,238.5,140.1z M238.5,172.1
	c-0.3,0-0.5,0.2-0.5,0.5v4c0,0.3,0.2,0.5,0.5,0.5s0.5-0.2,0.5-0.5v-4C239,172.3,238.8,172.1,238.5,172.1z M238.5,156.1
	c-0.3,0-0.5,0.2-0.5,0.5v4c0,0.3,0.2,0.5,0.5,0.5s0.5-0.2,0.5-0.5v-4C239,156.3,238.8,156.1,238.5,156.1z M238.5,148.1
	c-0.3,0-0.5,0.2-0.5,0.5v4c0,0.3,0.2,0.5,0.5,0.5s0.5-0.2,0.5-0.5v-4C239,148.3,238.8,148.1,238.5,148.1z M238.5,180.1
	c-0.3,0-0.5,0.2-0.5,0.5v4c0,0.3,0.2,0.5,0.5,0.5s0.5-0.2,0.5-0.5v-4C239,180.3,238.8,180.1,238.5,180.1z M230.5,207.5h-4
	c-0.3,0-0.5,0.2-0.5,0.5s0.2,0.5,0.5,0.5h4c0.3,0,0.5-0.2,0.5-0.5S230.8,207.5,230.5,207.5z M228.1,48c0-0.3-0.2-0.5-0.5-0.5h-4
	c-0.3,0-0.5,0.2-0.5,0.5s0.2,0.5,0.5,0.5h4C227.9,48.5,228.1,48.3,228.1,48z M235.3,50.1c0.1,0,0.3-0.1,0.4-0.2
	c0.1-0.1,0.1-0.2,0.1-0.3c0-0.1-0.1-0.3-0.2-0.4l0,0c-1.1-0.9-2.5-1.4-3.9-1.6c-0.3,0-0.5,0.2-0.6,0.4c0,0.3,0.2,0.5,0.4,0.6
	c1.2,0.2,2.4,0.7,3.4,1.4C235.1,50.1,235.2,50.1,235.3,50.1z M70.5,207.5h-4c-0.3,0-0.5,0.2-0.5,0.5s0.2,0.5,0.5,0.5h4
	c0.3,0,0.5-0.2,0.5-0.5S70.8,207.5,70.5,207.5z M238.5,196.1c-0.3,0-0.5,0.2-0.5,0.5v3.4c0,0.1,0,0.3,0,0.5c0,0,0,0,0,0.1l0,0l0,0
	c0,0.3,0.2,0.5,0.5,0.5l0,0c0.3,0,0.5-0.2,0.5-0.5c0-0.2,0-0.4,0-0.6v-3.4C239,196.3,238.8,196.1,238.5,196.1z M238.2,52.5
	c-0.1-0.2-0.4-0.4-0.7-0.2c-0.1,0.1-0.2,0.1-0.3,0.3c0,0.1,0,0.3,0,0.4c0.5,1,0.7,2,0.7,3.1v0.6c0,0.3,0.2,0.5,0.5,0.5
	c0.3,0,0.5-0.2,0.5-0.5l0,0V56C239,54.8,238.7,53.6,238.2,52.5z M238.5,76.1c-0.3,0-0.5,0.2-0.5,0.5v4c0,0.3,0.2,0.5,0.5,0.5
	s0.5-0.2,0.5-0.5v-4C239,76.3,238.8,76.1,238.5,76.1z M238.5,68.1c-0.3,0-0.5,0.2-0.5,0.5v4c0,0.3,0.2,0.5,0.5,0.5s0.5-0.2,0.5-0.5
	v-4C239,68.3,238.8,68.1,238.5,68.1z M238.5,60.1c-0.3,0-0.5,0.2-0.5,0.5v4c0,0.3,0.2,0.5,0.5,0.5s0.5-0.2,0.5-0.5v-4
	C239,60.3,238.8,60.1,238.5,60.1z M238.5,84.1c-0.3,0-0.5,0.2-0.5,0.5v4c0,0.3,0.2,0.5,0.5,0.5s0.5-0.2,0.5-0.5v-4
	C239,84.3,238.8,84.1,238.5,84.1z M222.5,207.5h-4c-0.3,0-0.5,0.2-0.5,0.5s0.2,0.5,0.5,0.5h4c0.3,0,0.5-0.2,0.5-0.5
	S222.8,207.5,222.5,207.5z M238.5,124.1c-0.3,0-0.5,0.2-0.5,0.5v4c0,0.3,0.2,0.5,0.5,0.5s0.5-0.2,0.5-0.5v-4
	C239,124.3,238.8,124.1,238.5,124.1z M238.5,116.1c-0.3,0-0.5,0.2-0.5,0.5v4c0,0.3,0.2,0.5,0.5,0.5s0.5-0.2,0.5-0.5v-4
	C239,116.3,238.8,116.1,238.5,116.1z M238.5,92.1c-0.3,0-0.5,0.2-0.5,0.5v4c0,0.3,0.2,0.5,0.5,0.5s0.5-0.2,0.5-0.5v-4
	C239,92.3,238.8,92.1,238.5,92.1z M238.5,132.1c-0.3,0-0.5,0.2-0.5,0.5v4c0,0.3,0.2,0.5,0.5,0.5s0.5-0.2,0.5-0.5v-4
	C239,132.3,238.8,132.1,238.5,132.1z M238.5,108.1c-0.3,0-0.5,0.2-0.5,0.5v4c0,0.3,0.2,0.5,0.5,0.5s0.5-0.2,0.5-0.5v-4
	C239,108.3,238.8,108.1,238.5,108.1z M238.5,100.1c-0.3,0-0.5,0.2-0.5,0.5v4c0,0.3,0.2,0.5,0.5,0.5s0.5-0.2,0.5-0.5v-4
	C239,100.3,238.8,100.1,238.5,100.1z M237.5,203.9c-0.2-0.1-0.5-0.1-0.7,0.1c-0.7,1.1-1.6,1.9-2.7,2.5c-0.2,0.1-0.3,0.3-0.3,0.4
	s0,0.2,0.1,0.2c0.1,0.2,0.3,0.3,0.4,0.3c0.1,0,0.2,0,0.2-0.1c1.2-0.7,2.3-1.7,3.1-2.9c0.1-0.1,0.1-0.3,0.1-0.4
	C237.7,204.1,237.6,204,237.5,203.9z M134.5,207.5h-4c-0.3,0-0.5,0.2-0.5,0.5s0.2,0.5,0.5,0.5h4c0.3,0,0.5-0.2,0.5-0.5
	S134.8,207.5,134.5,207.5z M126.5,207.5h-4c-0.3,0-0.5,0.2-0.5,0.5s0.2,0.5,0.5,0.5h4c0.3,0,0.5-0.2,0.5-0.5
	S126.8,207.5,126.5,207.5z M118.5,207.5h-4c-0.3,0-0.5,0.2-0.5,0.5s0.2,0.5,0.5,0.5h4c0.3,0,0.5-0.2,0.5-0.5
	S118.8,207.5,118.5,207.5z M150.5,207.5h-4c-0.3,0-0.5,0.2-0.5,0.5s0.2,0.5,0.5,0.5h4c0.3,0,0.5-0.2,0.5-0.5
	S150.8,207.5,150.5,207.5z M158.5,207.5h-4c-0.3,0-0.5,0.2-0.5,0.5s0.2,0.5,0.5,0.5h4c0.3,0,0.5-0.2,0.5-0.5
	S158.8,207.5,158.5,207.5z M142.5,207.5h-4c-0.3,0-0.5,0.2-0.5,0.5s0.2,0.5,0.5,0.5h4c0.3,0,0.5-0.2,0.5-0.5
	S142.8,207.5,142.5,207.5z M78.5,207.5h-4c-0.3,0-0.5,0.2-0.5,0.5s0.2,0.5,0.5,0.5h4c0.3,0,0.5-0.2,0.5-0.5S78.8,207.5,78.5,207.5z
	 M86.5,207.5h-4c-0.3,0-0.5,0.2-0.5,0.5s0.2,0.5,0.5,0.5h4c0.3,0,0.5-0.2,0.5-0.5S86.8,207.5,86.5,207.5z M220.1,48
	c0-0.3-0.2-0.5-0.5-0.5h-4c-0.3,0-0.5,0.2-0.5,0.5s0.2,0.5,0.5,0.5h4C219.9,48.5,220.1,48.3,220.1,48z M110.5,207.5h-4
	c-0.3,0-0.5,0.2-0.5,0.5s0.2,0.5,0.5,0.5h4c0.3,0,0.5-0.2,0.5-0.5S110.8,207.5,110.5,207.5z M94.5,207.5h-4c-0.3,0-0.5,0.2-0.5,0.5
	s0.2,0.5,0.5,0.5h4c0.3,0,0.5-0.2,0.5-0.5S94.8,207.5,94.5,207.5z M102.5,207.5h-4c-0.3,0-0.5,0.2-0.5,0.5s0.2,0.5,0.5,0.5h4
	c0.3,0,0.5-0.2,0.5-0.5S102.8,207.5,102.5,207.5z M199.6,48.5h4c0.3,0,0.5-0.2,0.5-0.5s-0.2-0.5-0.5-0.5h-4c-0.3,0-0.5,0.2-0.5,0.5
	S199.3,48.5,199.6,48.5z M183.6,48.5h4c0.3,0,0.5-0.2,0.5-0.5s-0.2-0.5-0.5-0.5h-4c-0.3,0-0.5,0.2-0.5,0.5S183.3,48.5,183.6,48.5z
	 M191.6,48.5h4c0.3,0,0.5-0.2,0.5-0.5s-0.2-0.5-0.5-0.5h-4c-0.3,0-0.5,0.2-0.5,0.5S191.3,48.5,191.6,48.5z M214.5,207.5h-4
	c-0.3,0-0.5,0.2-0.5,0.5s0.2,0.5,0.5,0.5h4c0.3,0,0.5-0.2,0.5-0.5S214.8,207.5,214.5,207.5z M207.6,48.5h4c0.3,0,0.5-0.2,0.5-0.5
	s-0.2-0.5-0.5-0.5h-4c-0.3,0-0.5,0.2-0.5,0.5S207.3,48.5,207.6,48.5z M198.5,207.5h-4c-0.3,0-0.5,0.2-0.5,0.5s0.2,0.5,0.5,0.5h4
	c0.3,0,0.5-0.2,0.5-0.5S198.8,207.5,198.5,207.5z M206.5,207.5h-4c-0.3,0-0.5,0.2-0.5,0.5s0.2,0.5,0.5,0.5h4c0.3,0,0.5-0.2,0.5-0.5
	S206.8,207.5,206.5,207.5z M174.5,207.5h-4c-0.3,0-0.5,0.2-0.5,0.5s0.2,0.5,0.5,0.5h4c0.3,0,0.5-0.2,0.5-0.5
	S174.8,207.5,174.5,207.5z M182.5,207.5h-4c-0.3,0-0.5,0.2-0.5,0.5s0.2,0.5,0.5,0.5h4c0.3,0,0.5-0.2,0.5-0.5
	S182.8,207.5,182.5,207.5z M166.5,207.5h-4c-0.3,0-0.5,0.2-0.5,0.5s0.2,0.5,0.5,0.5h4c0.3,0,0.5-0.2,0.5-0.5
	S166.8,207.5,166.5,207.5z M190.5,207.5h-4c-0.3,0-0.5,0.2-0.5,0.5s0.2,0.5,0.5,0.5h4c0.3,0,0.5-0.2,0.5-0.5
	S190.8,207.5,190.5,207.5z M89,180h-4c-0.3,0-0.5,0.2-0.5,0.5s0.2,0.5,0.5,0.5h4c0.3,0,0.5-0.2,0.5-0.5S89.3,180,89,180z M57,180h-4
	c-0.3,0-0.5,0.2-0.5,0.5s0.2,0.5,0.5,0.5h4c0.3,0,0.5-0.2,0.5-0.5S57.3,180,57,180z M73,180h-4c-0.3,0-0.5,0.2-0.5,0.5
	s0.2,0.5,0.5,0.5h4c0.3,0,0.5-0.2,0.5-0.5S73.3,180,73,180z M81,180h-4c-0.3,0-0.5,0.2-0.5,0.5s0.2,0.5,0.5,0.5h4
	c0.3,0,0.5-0.2,0.5-0.5S81.3,180,81,180z M65,180h-4c-0.3,0-0.5,0.2-0.5,0.5s0.2,0.5,0.5,0.5h4c0.3,0,0.5-0.2,0.5-0.5
	S65.3,180,65,180z"/>
</svg>
