<?xml version="1.0" encoding="utf-8"?>
<!-- Generator: Adobe Illustrator 19.0.0, SVG Export Plug-In . SVG Version: 6.00 Build 0)  -->
<svg version="1.1" id="Camada_1" xmlns="http://www.w3.org/2000/svg" xmlns:xlink="http://www.w3.org/1999/xlink" x="0px" y="0px"
	 viewBox="0 0 256 256" style="enable-background:new 0 0 256 256;" xml:space="preserve">
<style type="text/css">
	
</style>
<path d="M207.2,27.8H48.7c-3.7,0-6.8,3.1-6.8,6.8v187.5c0,3.8,3.1,6.8,6.8,6.8h158.5c1.8,0,3.6-0.8,4.9-2.1
	c1.3-1.3,2-3,1.9-4.8V34.6C214,30.9,210.9,27.8,207.2,27.8z M210.7,225.4c-0.9,0.9-2.2,1.5-3.5,1.5H48.7c-2.6,0-4.8-2.2-4.8-4.8
	V75.5h1.3c0.3,0,0.5-0.2,0.5-0.5s-0.2-0.5-0.5-0.5h-1.3V34.6c0-2.6,2.2-4.8,4.8-4.8h158.5c2.6,0,4.8,2.2,4.8,4.8v39.9h-1
	c-0.3,0-0.5,0.2-0.5,0.5s0.2,0.5,0.5,0.5h1V222C212,223.3,211.6,224.5,210.7,225.4z M127.7,91c-32.1,0-58.3,26.2-58.3,58.3
	s26.2,58.3,58.3,58.3s58.3-26.2,58.3-58.3S159.8,91,127.7,91z M127.7,205.6c-31,0-56.3-25.3-56.3-56.3S96.7,93,127.7,93
	s56.3,25.3,56.3,56.3S158.7,205.6,127.7,205.6z M83.5,150.2c0.3,0,0.5-0.2,0.5-0.5v-0.4c0-1.2,0-2.4,0.1-3.6c0-0.3-0.2-0.5-0.5-0.5
	s-0.5,0.2-0.5,0.5c-0.1,1.2-0.1,2.4-0.1,3.7v0.4C83,150,83.2,150.2,83.5,150.2L83.5,150.2z M84.2,153.6c0-0.3-0.3-0.5-0.5-0.4
	c-0.3,0-0.5,0.3-0.4,0.5c0.1,1.3,0.3,2.7,0.6,4c0,0.2,0.3,0.4,0.5,0.4h0.1c0.3-0.1,0.4-0.3,0.4-0.6
	C84.5,156.2,84.3,154.9,84.2,153.6z M89.4,127.2c0.1,0,0.2,0.1,0.3,0.1c0.2,0,0.3-0.1,0.4-0.2c0.7-1.1,1.4-2.2,2.2-3.3
	c0.2-0.2,0.1-0.5-0.1-0.7s-0.5-0.1-0.7,0.1c-0.8,1.1-1.5,2.2-2.2,3.4C89.1,126.8,89.2,127.1,89.4,127.2z M86,134.5
	c0.1,0,0.1,0,0.2,0c0.2,0,0.4-0.1,0.5-0.3c0.5-1.2,1-2.5,1.5-3.6c0.1-0.2,0-0.5-0.2-0.7c-0.3-0.1-0.5,0-0.7,0.2
	c-0.6,1.2-1.1,2.5-1.6,3.7C85.7,134.1,85.8,134.4,86,134.5z M84.1,142.2L84.1,142.2c0.3,0,0.5-0.2,0.6-0.4c0.2-1.3,0.5-2.6,0.8-3.9
	c0.1-0.3-0.1-0.5-0.4-0.6s-0.5,0.1-0.6,0.4c-0.3,1.3-0.6,2.6-0.9,3.9C83.6,141.9,83.8,142.2,84.1,142.2z M85.7,161.4
	c-0.1-0.3-0.4-0.4-0.6-0.3c-0.3,0.1-0.4,0.4-0.3,0.6c0.4,1.3,0.8,2.6,1.3,3.8c0.1,0.2,0.3,0.3,0.5,0.3c0.1,0,0.1,0,0.2,0
	c0.3-0.1,0.4-0.4,0.3-0.6C86.5,163.9,86,162.6,85.7,161.4z M107.6,188.1c-1.2-0.6-2.3-1.3-3.4-2c-0.2-0.1-0.5-0.1-0.7,0.2
	c-0.1,0.2-0.1,0.5,0.2,0.7c1.1,0.7,2.3,1.4,3.5,2c0.1,0,0.2,0.1,0.2,0.1c0.2,0,0.4-0.1,0.4-0.3C108,188.6,107.9,188.3,107.6,188.1z
	 M98,181.3c-0.2-0.2-0.5-0.2-0.7,0s-0.2,0.5,0,0.7c1,0.9,2,1.8,3.1,2.6c0.1,0.1,0.2,0.1,0.3,0.1c0.1,0,0.3-0.1,0.4-0.2
	c0.2-0.2,0.1-0.5-0.1-0.7C99.9,183.1,98.9,182.2,98,181.3z M92.7,175.5c-0.2-0.2-0.5-0.3-0.7-0.1c-0.2,0.2-0.3,0.5-0.1,0.7
	c0.8,1.1,1.7,2.1,2.6,3.1c0.1,0.1,0.2,0.2,0.4,0.2c0.1,0,0.2,0,0.3-0.1c0.2-0.2,0.2-0.5,0-0.7C94.3,177.5,93.5,176.5,92.7,175.5z
	 M88.5,168.7c-0.1-0.2-0.4-0.4-0.7-0.2c-0.2,0.1-0.3,0.4-0.2,0.7c0.6,1.2,1.3,2.4,2,3.5c0.1,0.2,0.3,0.2,0.4,0.2s0.2,0,0.3-0.1
	c0.2-0.1,0.3-0.5,0.2-0.7C89.8,171.1,89.1,169.9,88.5,168.7z M94.3,120.8c0.1,0,0.3-0.1,0.4-0.2c0.9-1,1.8-2,2.7-2.9
	c0.2-0.2,0.2-0.5,0-0.7s-0.5-0.2-0.7,0c-1,0.9-1.9,1.9-2.8,2.9c-0.2,0.2-0.2,0.5,0,0.7S94.2,120.8,94.3,120.8z M150.3,111.9
	c1.1,0.7,2.2,1.4,3.3,2.2c0.1,0.1,0.2,0.1,0.3,0.1c0.2,0,0.3-0.1,0.4-0.2c0.2-0.2,0.1-0.5-0.1-0.7c-1.1-0.8-2.2-1.6-3.4-2.2
	c-0.2-0.1-0.5-0.1-0.7,0.2C150,111.4,150,111.7,150.3,111.9z M143.2,108.4c1.2,0.5,2.4,1,3.6,1.6c0.1,0,0.1,0.1,0.2,0.1
	c0.2,0,0.4-0.1,0.4-0.3c0.1-0.2,0-0.5-0.2-0.7c-1.2-0.6-2.5-1.1-3.7-1.6c-0.3-0.1-0.5,0-0.6,0.3C142.8,108,142.9,108.3,143.2,108.4z
	 M115,191.1c-1.3-0.4-2.5-0.8-3.7-1.3c-0.3-0.1-0.5,0-0.7,0.3c-0.1,0.3,0,0.5,0.3,0.7c1.2,0.5,2.5,1,3.8,1.4h0.1
	c0.2,0,0.4-0.1,0.5-0.4C115.4,191.5,115.2,191.2,115,191.1z M135.6,106.3c1.3,0.2,2.6,0.5,3.9,0.9h0.1c0.2,0,0.4-0.1,0.5-0.4
	c0.1-0.3-0.1-0.5-0.3-0.6c-1.3-0.4-2.6-0.7-3.9-0.9c-0.3,0-0.5,0.1-0.6,0.4C135.1,106,135.3,106.3,135.6,106.3z M159.5,119.3
	c0.1,0.1,0.2,0.2,0.4,0.2c0.1,0,0.2,0,0.3-0.1c0.2-0.2,0.2-0.5,0-0.7c-0.9-1-1.9-1.9-2.9-2.8c-0.2-0.2-0.5-0.2-0.7,0
	c-0.2,0.2-0.2,0.5,0,0.7C157.6,117.4,158.6,118.3,159.5,119.3z M106.8,110.9c0.1,0,0.2,0,0.2-0.1c1.2-0.6,2.4-1.2,3.6-1.7
	c0.3-0.1,0.4-0.4,0.3-0.7c-0.1-0.3-0.4-0.4-0.7-0.3c-1.2,0.5-2.5,1.1-3.6,1.8c-0.2,0.1-0.3,0.4-0.2,0.7
	C106.4,110.8,106.6,110.9,106.8,110.9z M100.1,115.3c0.1,0,0.2,0,0.3-0.1c1-0.8,2.1-1.6,3.2-2.3c0.2-0.2,0.3-0.5,0.1-0.7
	c-0.2-0.2-0.5-0.3-0.7-0.1c-1.1,0.7-2.2,1.5-3.3,2.4c-0.2,0.2-0.3,0.5-0.1,0.7C99.8,115.2,99.9,115.3,100.1,115.3z M127.7,105.6
	c1.3,0,2.6,0.1,3.9,0.2l0,0c0.3,0,0.5-0.2,0.5-0.5s-0.2-0.5-0.5-0.5c-1.3-0.1-2.7-0.2-4-0.2c-0.3,0-0.5,0.2-0.5,0.5
	S127.4,105.6,127.7,105.6z M121.9,106L121.9,106c1.4-0.2,2.7-0.3,4-0.3c0.3,0,0.5-0.2,0.5-0.5s-0.2-0.5-0.5-0.5
	c-1.3,0.1-2.7,0.2-4,0.3c-0.3,0-0.5,0.3-0.4,0.6C121.4,105.8,121.6,106,121.9,106z M162.8,121.7c-0.2-0.2-0.5-0.3-0.7-0.1
	c-0.2,0.2-0.3,0.5-0.1,0.7c0.8,1,1.6,2.1,2.3,3.2c0.1,0.1,0.3,0.2,0.4,0.2c0.1,0,0.2,0,0.3-0.1c0.2-0.2,0.3-0.5,0.1-0.7
	C164.5,123.8,163.7,122.7,162.8,121.7z M171.9,151.3c-0.3,0-0.5,0.2-0.5,0.5c-0.1,1.3-0.2,2.6-0.4,3.9c0,0.3,0.1,0.5,0.4,0.6
	c0,0,0,0,0.1,0c0.2,0,0.5-0.2,0.5-0.4c0.2-1.3,0.3-2.7,0.4-4C172.3,151.6,172.1,151.4,171.9,151.3z M168.3,166.8
	c-0.3-0.1-0.5,0-0.7,0.3c-0.5,1.2-1.1,2.4-1.8,3.5c-0.1,0.2,0,0.5,0.2,0.7c0.1,0,0.2,0.1,0.2,0.1c0.2,0,0.3-0.1,0.4-0.3
	c0.7-1.2,1.3-2.4,1.8-3.6C168.7,167.3,168.5,167,168.3,166.8z M171.1,143.9c0.2,1.3,0.3,2.6,0.3,3.9c0,0.3,0.2,0.5,0.5,0.5l0,0
	c0.3,0,0.5-0.2,0.5-0.5c0-1.3-0.1-2.7-0.3-4c0-0.3-0.3-0.5-0.6-0.4C171.2,143.4,171,143.6,171.1,143.9z M166.6,128.2
	c-0.2,0.1-0.3,0.4-0.2,0.7c0.6,1.2,1.2,2.4,1.7,3.6c0.1,0.2,0.3,0.3,0.5,0.3c0.1,0,0.1,0,0.2,0c0.3-0.1,0.4-0.4,0.3-0.7
	c-0.5-1.2-1.1-2.5-1.7-3.7C167.1,128.2,166.8,128.1,166.6,128.2z M163.8,174c-0.7,1.1-1.5,2.1-2.4,3.2c-0.2,0.2-0.1,0.5,0.1,0.7
	c0.1,0.1,0.2,0.1,0.3,0.1c0.1,0,0.3-0.1,0.4-0.2c0.9-1,1.7-2.1,2.4-3.2c0.2-0.2,0.1-0.5-0.1-0.7S163.9,173.8,163.8,174z M170.4,140
	c0,0.2,0.3,0.4,0.5,0.4h0.1c0.3-0.1,0.4-0.3,0.4-0.6c-0.3-1.3-0.6-2.6-1-3.9c-0.1-0.3-0.4-0.4-0.6-0.3c-0.3,0.1-0.4,0.4-0.3,0.6
	C169.8,137.5,170.1,138.7,170.4,140z M169.4,164.1c0.1,0,0.1,0,0.2,0c0.2,0,0.4-0.1,0.5-0.3c0.4-1.3,0.8-2.6,1.1-3.9
	c0.1-0.3-0.1-0.5-0.4-0.6s-0.5,0.1-0.6,0.4c-0.3,1.3-0.7,2.6-1.1,3.8C169,163.7,169.1,164,169.4,164.1z M145.8,189.1
	c-1.2,0.5-2.4,1-3.7,1.5c-0.3,0.1-0.4,0.4-0.3,0.6c0.1,0.2,0.3,0.3,0.5,0.3c0.1,0,0.1,0,0.2,0c1.3-0.4,2.5-1,3.8-1.5
	c0.3-0.1,0.4-0.4,0.2-0.7C146.4,189.1,146.1,189,145.8,189.1z M122.7,192.7c-1.3-0.1-2.6-0.4-3.9-0.6c-0.3-0.1-0.5,0.1-0.6,0.4
	c-0.1,0.3,0.1,0.5,0.4,0.6c1.3,0.3,2.7,0.5,4,0.6c0,0,0,0,0.1,0c0.3,0,0.5-0.2,0.5-0.4C123.2,193,123,192.7,122.7,192.7z
	 M138.4,191.7c-1.3,0.3-2.6,0.6-3.9,0.8c-0.3,0-0.5,0.3-0.4,0.6c0,0.2,0.3,0.4,0.5,0.4h0.1c1.3-0.2,2.7-0.5,4-0.8
	c0.3-0.1,0.4-0.3,0.4-0.6C138.9,191.8,138.7,191.6,138.4,191.7z M130.6,192.9c-0.9,0.1-1.9,0.1-2.8,0.1c-0.4,0-0.7,0-1.1,0
	c-0.3,0-0.5,0.2-0.5,0.5s0.2,0.5,0.5,0.5c0.4,0,0.8,0,1.1,0c1,0,1.9,0,2.9-0.1c0.3,0,0.5-0.3,0.5-0.5
	C131.1,193.1,130.9,192.9,130.6,192.9z M118.4,106.1c-0.1-0.3-0.3-0.4-0.6-0.4c-1.3,0.3-2.6,0.7-3.9,1.1c-0.3,0.1-0.4,0.4-0.3,0.6
	c0.1,0.2,0.3,0.3,0.5,0.3c0.1,0,0.1,0,0.2,0c1.3-0.4,2.5-0.8,3.8-1C118.3,106.6,118.5,106.3,118.4,106.1z M158.7,180.1
	c-0.9,0.9-1.9,1.8-2.9,2.7c-0.2,0.2-0.2,0.5-0.1,0.7c0.1,0.1,0.2,0.2,0.4,0.2c0.1,0,0.2,0,0.3-0.1c1-0.9,2-1.8,3-2.7
	c0.2-0.2,0.2-0.5,0-0.7C159.2,179.9,158.9,179.9,158.7,180.1z M152.7,185.2c-1.1,0.8-2.2,1.5-3.3,2.1c-0.2,0.1-0.3,0.4-0.2,0.7
	c0.1,0.2,0.3,0.3,0.4,0.3c0.1,0,0.2,0,0.2-0.1c1.2-0.7,2.3-1.4,3.4-2.2c0.2-0.2,0.3-0.5,0.1-0.7C153.2,185.1,152.9,185,152.7,185.2z
	 M162.1,142.8c-3.3-13.7-14.3-24.3-28-27c-0.5-0.1-1.1,0.2-1.2,0.8c-0.1,0.5,0.2,1.1,0.8,1.2c12.9,2.6,23.3,12.6,26.4,25.6
	c0.1,0.5,0.5,0.8,1,0.8c0.1,0,0.2,0,0.2,0C161.9,143.8,162.2,143.3,162.1,142.8z M182.4,39.3c-7.3,0-13.2,5.9-13.2,13.2
	s5.9,13.2,13.2,13.2c7.3,0,13.2-5.9,13.2-13.2S189.7,39.3,182.4,39.3z M182.4,64.7c-6.7,0-12.2-5.5-12.2-12.2s5.5-12.2,12.2-12.2
	c6.7,0,12.2,5.5,12.2,12.2S189.1,64.7,182.4,64.7z M155.5,58.7c3.1,0,5.6-2.5,5.6-5.6s-2.5-5.6-5.6-5.6s-5.6,2.5-5.6,5.6
	S152.4,58.7,155.5,58.7z M155.5,48.5c2.5,0,4.6,2.1,4.6,4.6s-2.1,4.6-4.6,4.6s-4.6-2.1-4.6-4.6S153,48.5,155.5,48.5z M137.7,58.7
	c3.1,0,5.6-2.5,5.6-5.6s-2.5-5.6-5.6-5.6c-3.1,0-5.6,2.5-5.6,5.6S134.6,58.7,137.7,58.7z M137.7,48.5c2.5,0,4.6,2.1,4.6,4.6
	s-2.1,4.6-4.6,4.6s-4.6-2.1-4.6-4.6S135.2,48.5,137.7,48.5z M120.7,55.3v-5c0-2-1.6-3.6-3.6-3.6H64.8c-2,0-3.6,1.6-3.6,3.6v5
	c0,2,1.6,3.6,3.6,3.6h52.3C119.1,58.9,120.7,57.3,120.7,55.3z M62.2,55.3v-5c0-1.4,1.2-2.6,2.6-2.6h52.3c1.4,0,2.6,1.2,2.6,2.6v5
	c0,1.5-1.1,2.6-2.6,2.6H64.8C63.4,57.9,62.2,56.7,62.2,55.3z M113.9,52.4h-23c-0.3,0-0.5,0.2-0.5,0.5s0.2,0.5,0.5,0.5h23
	c0.3,0,0.5-0.2,0.5-0.5S114.2,52.4,113.9,52.4z M121.7,172.4c0.1,0.1,0.2,0.1,0.4,0.1c0.2,0,0.3,0,0.4-0.1l27.3-27.3
	c0.2-0.2,0.2-0.5,0-0.7s-0.5-0.2-0.7,0l-27.3,27.3C121.6,171.8,121.6,172.2,121.7,172.4z M149.5,155c-0.2-0.2-0.5-0.2-0.7,0
	l-16.3,16.3c-0.2,0.2-0.2,0.5,0,0.7c0.1,0.1,0.2,0.1,0.4,0.1c0.2,0,0.3,0,0.4-0.1l16.3-16.3C149.6,155.6,149.6,155.2,149.5,155z
	 M130.2,75.5h4c0.3,0,0.5-0.2,0.5-0.5s-0.2-0.5-0.5-0.5h-4c-0.3,0-0.5,0.2-0.5,0.5S129.9,75.5,130.2,75.5z M122.1,75.5h4
	c0.3,0,0.5-0.2,0.5-0.5s-0.2-0.5-0.5-0.5h-4c-0.3,0-0.5,0.2-0.5,0.5S121.8,75.5,122.1,75.5z M162.5,75.5h4c0.3,0,0.5-0.2,0.5-0.5
	s-0.2-0.5-0.5-0.5h-4c-0.3,0-0.5,0.2-0.5,0.5S162.2,75.5,162.5,75.5z M207,74.5h-4c-0.3,0-0.5,0.2-0.5,0.5s0.2,0.5,0.5,0.5h4
	c0.3,0,0.5-0.2,0.5-0.5S207.2,74.5,207,74.5z M53.3,74.5h-4c-0.3,0-0.5,0.2-0.5,0.5s0.2,0.5,0.5,0.5h4c0.3,0,0.5-0.2,0.5-0.5
	S53.6,74.5,53.3,74.5z M198.9,74.5h-4c-0.3,0-0.5,0.2-0.5,0.5s0.2,0.5,0.5,0.5h4c0.3,0,0.5-0.2,0.5-0.5S199.2,74.5,198.9,74.5z
	 M138.2,74.5c-0.3,0-0.5,0.2-0.5,0.5s0.2,0.5,0.5,0.5h4c0.3,0,0.5-0.2,0.5-0.5s-0.2-0.5-0.5-0.5H138.2z M146.3,75.5h4
	c0.3,0,0.5-0.2,0.5-0.5s-0.2-0.5-0.5-0.5h-4c-0.3,0-0.5,0.2-0.5,0.5S146.1,75.5,146.3,75.5z M154.4,74.5c-0.3,0-0.5,0.2-0.5,0.5
	s0.2,0.5,0.5,0.5h4c0.3,0,0.5-0.2,0.5-0.5s-0.2-0.5-0.5-0.5H154.4z M190.8,74.5h-4c-0.3,0-0.5,0.2-0.5,0.5s0.2,0.5,0.5,0.5h4
	c0.3,0,0.5-0.2,0.5-0.5S191.1,74.5,190.8,74.5z M81.6,74.5c-0.3,0-0.5,0.2-0.5,0.5s0.2,0.5,0.5,0.5h4c0.3,0,0.5-0.2,0.5-0.5
	s-0.2-0.5-0.5-0.5H81.6z M73.6,74.5c-0.3,0-0.5,0.2-0.5,0.5s0.2,0.5,0.5,0.5h4c0.3,0,0.5-0.2,0.5-0.5s-0.2-0.5-0.5-0.5H73.6z M70,75
	c0-0.3-0.2-0.5-0.5-0.5h-4c-0.3,0-0.5,0.2-0.5,0.5s0.2,0.5,0.5,0.5h4C69.8,75.5,70,75.3,70,75z M182.7,75.5c0.3,0,0.5-0.2,0.5-0.5
	s-0.2-0.5-0.5-0.5h-4c-0.3,0-0.5,0.2-0.5,0.5s0.2,0.5,0.5,0.5H182.7z M174.6,75.5c0.3,0,0.5-0.2,0.5-0.5s-0.2-0.5-0.5-0.5h-4
	c-0.3,0-0.5,0.2-0.5,0.5s0.2,0.5,0.5,0.5H174.6z M114,74.5c-0.3,0-0.5,0.2-0.5,0.5s0.2,0.5,0.5,0.5h4c0.3,0,0.5-0.2,0.5-0.5
	s-0.2-0.5-0.5-0.5H114z M89.7,74.5c-0.3,0-0.5,0.2-0.5,0.5s0.2,0.5,0.5,0.5h4c0.3,0,0.5-0.2,0.5-0.5s-0.2-0.5-0.5-0.5H89.7z
	 M61.4,74.5h-4c-0.3,0-0.5,0.2-0.5,0.5s0.2,0.5,0.5,0.5h4c0.3,0,0.5-0.2,0.5-0.5S61.7,74.5,61.4,74.5z M105.9,74.5
	c-0.3,0-0.5,0.2-0.5,0.5s0.2,0.5,0.5,0.5h4c0.3,0,0.5-0.2,0.5-0.5s-0.2-0.5-0.5-0.5H105.9z M97.8,74.5c-0.3,0-0.5,0.2-0.5,0.5
	s0.2,0.5,0.5,0.5h4c0.3,0,0.5-0.2,0.5-0.5s-0.2-0.5-0.5-0.5H97.8z"/>
</svg>
