<?xml version="1.0" encoding="utf-8"?>
<!-- Generator: Adobe Illustrator 19.0.0, SVG Export Plug-In . SVG Version: 6.00 Build 0)  -->
<svg version="1.1" id="Camada_1" xmlns="http://www.w3.org/2000/svg" xmlns:xlink="http://www.w3.org/1999/xlink" x="0px" y="0px"
	 viewBox="0 0 256 256" style="enable-background:new 0 0 256 256;" xml:space="preserve">
<style type="text/css">
	
</style>
<path d="M229.3,183.5c-1.8-7.2-11.9-13.4-25.7-15.8c-25.4-4.4-37.6-23.9-42.6-35.1c-4-9-13-29.7-21-48
	c-4-9.1-7.6-17.4-10.1-23.1c-2.3-5-7.2-8.2-12.5-8.2H103c-1.6,0-3.3,0.6-4.7,1.8c-0.9,0.8-2,1.2-3.3,1.2h-1
	c-0.1-0.2-0.3-0.3-0.5-0.3s-0.3,0.1-0.4,0.3H75.4c-1.6,0-3.1-0.8-4.1-2.2l-0.5-0.7c-1.3-1.9-3.3-3.1-5.7-3.1H50.5
	c-2.6,0-4.9,2.1-5.1,4.8c-0.4,6.5-2.1,20-8.7,37.3c-8.4,21.9-9.8,41.2-4.6,60.5c3.9,14.5,6.7,42.9,7,46.1c0.4,2.7,2.6,4.8,5.3,4.8
	l17.9,0.3c2.9,0,5.3-2.4,5.3-5.2c0.3-14.3,0.8-39,1.7-49.5c10.1,6.1,20,15.5,33.5,29.4c0.7,0.7,1.4,1.4,2.1,2.2
	c9.3,9.6,23.3,24.2,46.6,24.5c3.3,0,7.2,0.1,11.4,0.1c10.5,0.1,23.2,0.2,33.1,0.2c2.3,0,4.4,0,6.3,0c8.9,0,20.1-1.6,22.3-6.2
	c0.4-1,0.7-2.4-0.5-4.2C229.7,190.9,230,186.5,229.3,183.5z M75.5,58.3h0.6c0,0.3,0,0.6,0,1c0,0.3,0.2,0.5,0.5,0.5l0,0
	c0.3,0,0.5-0.2,0.5-0.5c0-0.4,0-0.7,0-1h7.6c0,0.3,0,0.6,0,1c0,0.3,0.2,0.5,0.5,0.5l0,0c0.3,0,0.5-0.2,0.5-0.5c0-0.4,0-0.7,0-1h7.7
	c0,0.1,0,0.2,0,0.3c0,0.2,0.3,0.4,0.5,0.4H94c0.3,0,0.5-0.3,0.4-0.6v-0.1H95c1.3,0,2.5-0.3,3.5-0.9c1.3,3.4,18.2,47.1,25.1,62
	c2.7,5.8,2.5,10.7-0.6,13.9c-3.8,3.9-11.2,4.7-20.3,2.4c-0.1-0.1-0.2-0.4-0.4-0.8c-0.1-0.2-0.4-0.4-0.7-0.2
	c-0.2,0.1-0.4,0.4-0.2,0.7l0,0c-2.3-0.7-4.8-1.5-7.3-2.6c-2-0.8-3.8-1.7-5.5-2.6l0,0c0.2-0.1,0.3-0.4,0.2-0.7
	c-0.3-0.5-0.6-1.1-0.9-1.8c-0.1-0.2-0.4-0.3-0.7-0.2c-0.2,0.1-0.3,0.4-0.2,0.7c0.3,0.6,0.6,1.1,0.8,1.6c-16.1-9-17.6-20.9-17.6-32.5
	c0-9.4-0.3-34.1-0.4-41.8C71.2,57.2,73.3,58.3,75.5,58.3z M65.6,199c0,1.7-1.5,3.2-3.3,3.2l-17.9-0.3l0,0c-1.7,0-3.1-1.3-3.3-3
	c-0.3-3.2-3.1-31.7-7-46.4c-1.3-4.9-2.2-9.9-2.6-14.8c13.1,0.2,24.6,3.3,36.1,9.8v0.3C66.5,157.2,65.9,183.9,65.6,199z M222.9,198.9
	c-1.3,2.9-10.1,5.1-20.5,5.1c-10.4,0.1-26.4-0.1-39.4-0.2c-4.3,0-8.2-0.1-11.4-0.1c-22.4-0.3-35.5-13.9-45.1-23.9
	c-0.7-0.8-1.5-1.5-2.1-2.2c-8.7-9-16-16.2-22.8-21.8l0,0l0,0c-3.7-3.1-7.3-5.6-10.9-7.8c9.3,2.3,23.1,11.9,34.1,23.9
	c16.3,17.9,32.7,26.8,50,27.4c3,0.1,6.5,0.2,10.4,0.4c10.3,0.4,20.2,0.8,28.8,0.8c14.5,0,25.4-1,28.2-4.4l0,0
	C223.4,197.7,223,198.6,222.9,198.9z M222.2,194.6l-0.6,0.5h-0.1c-3.3,5.8-36.5,4.4-56.4,3.6c-3.9-0.2-7.4-0.3-10.4-0.4
	c-17-0.5-33.1-9.4-49.2-27c-12.3-13.3-28-23.7-37.3-24.7l0,0l-0.5-0.3v0.1c-11.5-6.4-23.2-9.5-36.3-9.7c-1-13.8,1.3-27.9,7.3-43.5
	c6.7-17.5,8.4-31.3,8.9-37.9c0.2-1.7,1.5-3,3.1-3h14.6c1.5,0,2.8,0.6,3.7,1.7c0.1,5.5,0.4,33.1,0.4,43.2c0,9.8,0,26.2,24.5,36.5
	c6.8,2.8,13,4.2,18.3,4.2c5,0,9.1-1.3,11.7-4c3.4-3.5,3.7-8.8,0.8-15c-7.1-15.4-25-61.7-25.2-62.2h-0.1c0.1-0.1,0.2-0.2,0.3-0.3
	c1-0.8,2.2-1.3,3.4-1.3h14.4c4.5,0,8.7,2.8,10.7,7c2.5,5.7,6.1,14,10.1,23c8,18.3,17,39.1,21,48.1c5.2,11.6,17.8,31.7,44,36.3
	c13,2.3,22.5,7.9,24.1,14.3C228.2,187.6,226.5,191.3,222.2,194.6z M80.8,108.7c-0.3,0.1-0.4,0.3-0.4,0.6c0.1,0.7,0.3,1.3,0.4,2
	c0.1,0.2,0.3,0.4,0.5,0.4h0.1c0.3-0.1,0.4-0.3,0.4-0.6c-0.2-0.6-0.3-1.3-0.4-1.9C81.4,108.8,81.1,108.6,80.8,108.7z M81.4,113.2
	c0.2,0.7,0.4,1.3,0.5,1.9c0.1,0.2,0.3,0.4,0.5,0.4h0.1c0.3-0.1,0.4-0.4,0.3-0.6c-0.2-0.6-0.4-1.3-0.5-1.9c-0.1-0.3-0.3-0.4-0.6-0.4
	S81.3,112.9,81.4,113.2z M79.7,105.3c0.1,0.7,0.2,1.3,0.4,2c0,0.2,0.3,0.4,0.5,0.4h0.1c0.3-0.1,0.5-0.3,0.4-0.6
	c-0.1-0.6-0.2-1.3-0.3-2c0-0.3-0.3-0.5-0.6-0.4C79.8,104.8,79.7,105,79.7,105.3z M79.1,101.3c0.1,0.7,0.2,1.3,0.3,2
	c0,0.2,0.3,0.4,0.5,0.4H80c0.3,0,0.5-0.3,0.4-0.6c-0.1-0.7-0.2-1.3-0.3-2c0-0.3-0.3-0.5-0.6-0.4C79.2,100.8,79,101,79.1,101.3z
	 M83.9,120.8c0.2,0.6,0.5,1.3,0.7,1.9c0.1,0.2,0.3,0.3,0.5,0.3c0.1,0,0.1,0,0.2,0c0.3-0.1,0.4-0.4,0.3-0.7c-0.2-0.6-0.5-1.2-0.7-1.9
	c-0.1-0.3-0.4-0.4-0.6-0.3C83.9,120.3,83.8,120.6,83.9,120.8z M86.3,124.2c-0.1-0.3-0.4-0.4-0.7-0.3c-0.3,0.1-0.4,0.4-0.3,0.7
	c0.3,0.7,0.6,1.3,0.8,1.8c0.1,0.2,0.3,0.3,0.5,0.3c0.1,0,0.1,0,0.2,0c0.3-0.1,0.4-0.4,0.2-0.7C86.9,125.4,86.6,124.8,86.3,124.2z
	 M78.6,97.3c0.1,0.7,0.2,1.3,0.3,2c0,0.3,0.2,0.4,0.5,0.4c0,0,0,0,0.1,0c0.3,0,0.5-0.3,0.4-0.6c-0.1-0.7-0.2-1.3-0.3-2
	c0-0.3-0.3-0.5-0.6-0.4C78.7,96.8,78.5,97.1,78.6,97.3z M82.5,117c0.2,0.7,0.4,1.3,0.6,1.9c0.1,0.2,0.3,0.3,0.5,0.3
	c0.1,0,0.1,0,0.2,0c0.3-0.1,0.4-0.4,0.3-0.6c-0.2-0.6-0.4-1.2-0.6-1.9c-0.1-0.3-0.4-0.4-0.6-0.3C82.6,116.5,82.4,116.8,82.5,117z
	 M77.1,72.8c-0.3,0-0.5,0.2-0.5,0.5l0.1,2c0,0.3,0.2,0.5,0.5,0.5l0,0c0.3,0,0.5-0.3,0.5-0.5l-0.1-2C77.6,73,77.4,72.8,77.1,72.8z
	 M76.8,64.8c-0.3,0-0.5,0.2-0.5,0.5l0.1,2c0,0.3,0.2,0.5,0.5,0.5l0,0c0.3,0,0.5-0.2,0.5-0.5l-0.1-2C77.3,65,77,64.8,76.8,64.8z
	 M76.9,68.8c-0.3,0-0.5,0.2-0.5,0.5l0.1,2c0,0.3,0.2,0.5,0.5,0.5l0,0c0.3,0,0.5-0.2,0.5-0.5l-0.1-2C77.4,69,77.2,68.8,76.9,68.8z
	 M76.7,63.8L76.7,63.8c0.3,0,0.5-0.2,0.5-0.5l-0.1-2c0-0.3-0.2-0.5-0.5-0.5s-0.5,0.2-0.5,0.5l0.1,2C76.2,63.6,76.5,63.8,76.7,63.8z
	 M77.3,76.8c-0.3,0-0.5,0.3-0.5,0.5l0.1,2c0,0.3,0.2,0.5,0.5,0.5l0,0c0.3,0,0.5-0.3,0.5-0.5l-0.1-2C77.8,77,77.6,76.8,77.3,76.8z
	 M78.1,93.4c0.1,0.7,0.1,1.3,0.2,2c0,0.3,0.2,0.4,0.5,0.4c0,0,0,0,0.1,0c0.3,0,0.5-0.3,0.4-0.6c-0.1-0.7-0.1-1.3-0.2-2
	c0-0.3-0.3-0.5-0.5-0.4C78.3,92.8,78.1,93.1,78.1,93.4z M77.8,84.8c-0.3,0-0.5,0.3-0.5,0.5c0.1,0.7,0.1,1.3,0.2,2
	c0,0.3,0.2,0.5,0.5,0.5l0,0c0.3,0,0.5-0.3,0.5-0.5c-0.1-0.7-0.1-1.3-0.2-2C78.4,85,78.1,84.8,77.8,84.8z M78.2,88.8
	c-0.3,0-0.5,0.3-0.5,0.5c0.1,0.7,0.1,1.3,0.2,2c0,0.3,0.2,0.5,0.5,0.5l0,0c0.3,0,0.5-0.3,0.4-0.5c-0.1-0.7-0.1-1.3-0.2-2
	C78.7,89,78.4,88.8,78.2,88.8z M77.6,80.8c-0.3,0-0.5,0.3-0.5,0.5l0.1,2c0,0.3,0.2,0.5,0.5,0.5l0,0c0.3,0,0.5-0.3,0.5-0.5l-0.1-2
	C78.1,81,77.8,80.8,77.6,80.8z M100,129.4c-0.2-0.6-0.5-1.2-0.7-1.9c-0.1-0.3-0.4-0.4-0.6-0.3c-0.3,0.1-0.4,0.4-0.3,0.6
	c0.3,0.7,0.5,1.3,0.7,1.9c0.1,0.2,0.3,0.3,0.5,0.3c0.1,0,0.1,0,0.2,0C100,130,100.1,129.7,100,129.4z M91.5,104.9
	c0.2,0.6,0.3,1.3,0.5,1.9c0.1,0.2,0.3,0.4,0.5,0.4h0.1c0.3-0.1,0.4-0.3,0.4-0.6c-0.2-0.7-0.3-1.3-0.5-1.9c-0.1-0.3-0.3-0.4-0.6-0.4
	C91.6,104.3,91.5,104.6,91.5,104.9z M92.5,108.8c0.2,0.6,0.3,1.3,0.5,1.9c0.1,0.2,0.3,0.4,0.5,0.4h0.1c0.3-0.1,0.4-0.3,0.4-0.6
	c-0.2-0.6-0.3-1.3-0.5-1.9c-0.1-0.3-0.3-0.4-0.6-0.4C92.6,108.2,92.4,108.5,92.5,108.8z M100.8,131.3c-0.1-0.3-0.4-0.4-0.7-0.3
	c-0.3,0.1-0.4,0.4-0.3,0.7c0.3,0.7,0.6,1.3,0.8,1.8c0.1,0.2,0.3,0.3,0.5,0.3c0.1,0,0.1,0,0.2,0c0.3-0.1,0.4-0.4,0.3-0.7
	C101.3,132.6,101.1,132,100.8,131.3z M90.6,101c0.1,0.6,0.3,1.3,0.4,2c0.1,0.2,0.3,0.4,0.5,0.4h0.1c0.3-0.1,0.4-0.3,0.4-0.6
	c-0.2-0.7-0.3-1.3-0.4-1.9c-0.1-0.3-0.3-0.4-0.6-0.4C90.8,100.4,90.6,100.7,90.6,101z M97.3,121.9c-0.2-0.6-0.4-1.2-0.6-1.9
	c-0.1-0.3-0.4-0.4-0.6-0.3c-0.3,0.1-0.4,0.4-0.3,0.6c0.2,0.7,0.4,1.3,0.6,1.9c0.1,0.2,0.3,0.3,0.5,0.3c0.1,0,0.1,0,0.2,0
	C97.3,122.5,97.4,122.2,97.3,121.9z M95,114.3c-0.2-0.6-0.3-1.3-0.5-1.9c-0.1-0.3-0.3-0.4-0.6-0.4c-0.3,0.1-0.4,0.3-0.4,0.6
	c0.2,0.7,0.3,1.3,0.5,1.9c0.1,0.2,0.3,0.4,0.5,0.4h0.1C94.9,114.9,95.1,114.6,95,114.3z M96.1,118.1c-0.2-0.6-0.4-1.3-0.6-1.9
	c-0.1-0.3-0.4-0.4-0.6-0.3c-0.3,0.1-0.4,0.4-0.3,0.6c0.2,0.7,0.4,1.3,0.6,1.9c0.1,0.2,0.3,0.4,0.5,0.4h0.1
	C96.1,118.7,96.2,118.4,96.1,118.1z M98.6,125.7c-0.2-0.6-0.4-1.2-0.7-1.9c-0.1-0.3-0.4-0.4-0.6-0.3c-0.3,0.1-0.4,0.4-0.3,0.6
	c0.2,0.7,0.4,1.3,0.7,1.9c0.1,0.2,0.3,0.3,0.5,0.3c0.1,0,0.1,0,0.2,0C98.6,126.3,98.7,126,98.6,125.7z M86,73.3
	c0.1,0.6,0.2,1.3,0.2,2c0,0.3,0.2,0.4,0.5,0.4c0,0,0,0,0.1,0c0.3,0,0.5-0.3,0.4-0.6c-0.1-0.7-0.2-1.3-0.2-2c0-0.3-0.3-0.5-0.6-0.4
	C86.1,72.8,85.9,73,86,73.3z M87,81.3c0.1,0.7,0.2,1.3,0.3,2c0,0.2,0.3,0.4,0.5,0.4h0.1c0.3,0,0.5-0.3,0.4-0.6
	c-0.1-0.7-0.2-1.3-0.3-2c0-0.3-0.3-0.5-0.6-0.4C87.1,80.7,87,81,87,81.3z M86.4,77.3c0.1,0.6,0.2,1.3,0.3,2c0,0.3,0.2,0.4,0.5,0.4
	c0,0,0,0,0.1,0c0.3,0,0.5-0.3,0.4-0.6c-0.1-0.7-0.2-1.3-0.3-2c0-0.3-0.3-0.5-0.6-0.4C86.6,76.8,86.4,77,86.4,77.3z M89.8,97.1
	c0.1,0.6,0.3,1.3,0.4,2c0.1,0.2,0.3,0.4,0.5,0.4h0.1c0.3-0.1,0.4-0.3,0.4-0.6c-0.1-0.7-0.3-1.3-0.4-2c-0.1-0.3-0.3-0.4-0.6-0.4
	C89.9,96.5,89.7,96.8,89.8,97.1z M87.6,85.2c0.1,0.7,0.2,1.3,0.3,2c0,0.2,0.3,0.4,0.5,0.4h0.1c0.3,0,0.5-0.3,0.4-0.6
	c-0.1-0.7-0.2-1.3-0.3-2c0-0.3-0.3-0.5-0.6-0.4C87.8,84.7,87.6,85,87.6,85.2z M85.5,69.3c0.1,0.6,0.1,1.3,0.2,2
	c0,0.3,0.2,0.4,0.5,0.4c0,0,0,0,0.1,0c0.3,0,0.5-0.3,0.4-0.6c-0.1-0.7-0.1-1.3-0.2-2c0-0.3-0.3-0.5-0.5-0.4
	C85.7,68.8,85.5,69.1,85.5,69.3z M85.5,63.8L85.5,63.8c0.3,0,0.5-0.3,0.5-0.5c-0.1-0.7-0.1-1.4-0.1-2c0-0.3-0.3-0.5-0.5-0.5
	c-0.3,0-0.5,0.3-0.5,0.5c0,0.6,0.1,1.3,0.1,2C85,63.6,85.2,63.8,85.5,63.8z M88.3,89.2c0.1,0.6,0.2,1.3,0.4,2c0,0.2,0.3,0.4,0.5,0.4
	h0.1c0.3-0.1,0.5-0.3,0.4-0.6c-0.1-0.7-0.2-1.3-0.4-2c0-0.3-0.3-0.5-0.6-0.4C88.4,88.7,88.2,88.9,88.3,89.2z M89,93.1
	c0.1,0.6,0.3,1.3,0.4,2c0,0.2,0.3,0.4,0.5,0.4H90c0.3-0.1,0.4-0.3,0.4-0.6c-0.1-0.7-0.3-1.3-0.4-2c-0.1-0.3-0.3-0.5-0.6-0.4
	C89.1,92.6,89,92.9,89,93.1z M85.6,64.8c-0.3,0-0.5,0.3-0.5,0.5c0.1,0.6,0.1,1.3,0.2,2c0,0.3,0.2,0.5,0.5,0.5l0,0
	c0.3,0,0.5-0.3,0.5-0.5c-0.1-0.7-0.1-1.4-0.2-2C86.1,65,85.9,64.8,85.6,64.8z M110.4,122.4l0.7,1.9c0.1,0.2,0.3,0.3,0.5,0.3
	c0.1,0,0.1,0,0.2,0c0.3-0.1,0.4-0.4,0.3-0.6l-0.7-1.9c-0.1-0.3-0.4-0.4-0.6-0.3C110.5,121.8,110.3,122.1,110.4,122.4z M109,118.6
	l0.7,1.9c0.1,0.2,0.3,0.3,0.5,0.3c0.1,0,0.1,0,0.2,0c0.3-0.1,0.4-0.4,0.3-0.6l-0.7-1.9c-0.1-0.3-0.4-0.4-0.6-0.3
	C109,118.1,108.9,118.4,109,118.6z M111.9,126.1l0.7,1.9c0.1,0.2,0.3,0.3,0.5,0.3c0.1,0,0.1,0,0.2,0c0.3-0.1,0.4-0.4,0.3-0.6
	l-0.7-1.9c-0.1-0.3-0.4-0.4-0.6-0.3C111.9,125.6,111.8,125.9,111.9,126.1z M114.9,133.6c0.3,0.7,0.5,1.3,0.8,1.9
	c0.1,0.2,0.3,0.3,0.5,0.3c0.1,0,0.1,0,0.2,0c0.3-0.1,0.4-0.4,0.3-0.7c-0.2-0.5-0.5-1.1-0.8-1.8c-0.1-0.3-0.4-0.4-0.7-0.3
	C114.9,133,114.8,133.3,114.9,133.6z M107.6,114.9c0.2,0.6,0.5,1.3,0.7,1.9c0.1,0.2,0.3,0.3,0.5,0.3c0.1,0,0.1,0,0.2,0
	c0.3-0.1,0.4-0.4,0.3-0.6c-0.2-0.6-0.5-1.2-0.7-1.9c-0.1-0.3-0.4-0.4-0.6-0.3C107.6,114.3,107.5,114.6,107.6,114.9z M113.4,129.8
	l0.7,1.9c0.1,0.2,0.3,0.3,0.5,0.3c0.1,0,0.1,0,0.2,0c0.3-0.1,0.4-0.4,0.3-0.7l-0.7-1.9c-0.1-0.3-0.4-0.4-0.6-0.3
	C113.4,129.3,113.3,129.6,113.4,129.8z M104.9,107.3c0.2,0.6,0.4,1.3,0.7,1.9c0.1,0.2,0.3,0.3,0.5,0.3c0.1,0,0.1,0,0.2,0
	c0.3-0.1,0.4-0.4,0.3-0.6c-0.2-0.6-0.4-1.3-0.7-1.9c-0.1-0.3-0.4-0.4-0.6-0.3C104.9,106.8,104.8,107.1,104.9,107.3z M95.2,68.4
	l0.4,2c0,0.2,0.3,0.4,0.5,0.4h0.1c0.3-0.1,0.4-0.3,0.4-0.6l-0.4-2c-0.1-0.3-0.3-0.4-0.6-0.4C95.3,67.9,95.2,68.2,95.2,68.4z
	 M96.4,71.8c-0.3,0.1-0.4,0.3-0.4,0.6l0.4,2c0,0.2,0.3,0.4,0.5,0.4H97c0.3-0.1,0.4-0.3,0.4-0.6l-0.4-2
	C96.9,71.9,96.6,71.7,96.4,71.8z M96.8,76.3l0.4,2c0,0.2,0.3,0.4,0.5,0.4h0.1c0.3-0.1,0.4-0.3,0.4-0.6l-0.4-2
	c-0.1-0.3-0.3-0.4-0.6-0.4C96.9,75.8,96.7,76,96.8,76.3z M97.6,80.2c0.1,0.6,0.3,1.3,0.4,2c0.1,0.2,0.3,0.4,0.5,0.4h0.1
	c0.3-0.1,0.4-0.3,0.4-0.6c-0.1-0.7-0.3-1.3-0.4-2c-0.1-0.3-0.3-0.4-0.6-0.4C97.7,79.7,97.6,80,97.6,80.2z M94.6,62.9
	C94.6,62.9,94.7,62.9,94.6,62.9c0.4-0.1,0.5-0.3,0.5-0.6c-0.1-0.7-0.2-1.4-0.3-2c0-0.3-0.3-0.5-0.6-0.4c-0.3,0-0.5,0.3-0.4,0.6
	c0.1,0.6,0.2,1.3,0.3,2C94.2,62.8,94.4,62.9,94.6,62.9z M94.5,64.5l0.4,2c0,0.2,0.3,0.4,0.5,0.4h0.1c0.3-0.1,0.5-0.3,0.4-0.6l-0.4-2
	c0-0.3-0.3-0.5-0.6-0.4C94.6,64,94.4,64.2,94.5,64.5z M98.5,84.1c0.1,0.6,0.3,1.3,0.5,2c0.1,0.2,0.3,0.4,0.5,0.4h0.1
	c0.3-0.1,0.4-0.3,0.4-0.6c-0.2-0.7-0.3-1.3-0.5-1.9c-0.1-0.3-0.3-0.4-0.6-0.4C98.6,83.6,98.4,83.9,98.5,84.1z M101.4,95.8
	c0.2,0.6,0.4,1.3,0.5,1.9c0.1,0.2,0.3,0.4,0.5,0.4h0.1c0.3-0.1,0.4-0.4,0.3-0.6c-0.2-0.6-0.4-1.3-0.5-1.9c-0.1-0.3-0.3-0.4-0.6-0.4
	C101.5,95.3,101.3,95.5,101.4,95.8z M106.2,111.1c0.2,0.6,0.5,1.3,0.7,1.9c0.1,0.2,0.3,0.3,0.5,0.3c0.1,0,0.1,0,0.2,0
	c0.3-0.1,0.4-0.4,0.3-0.6c-0.2-0.6-0.5-1.3-0.7-1.9c-0.1-0.3-0.4-0.4-0.6-0.3C106.3,110.6,106.1,110.9,106.2,111.1z M103.6,103.5
	c0.2,0.6,0.4,1.3,0.6,1.9c0.1,0.2,0.3,0.3,0.5,0.3c0.1,0,0.1,0,0.2,0c0.3-0.1,0.4-0.4,0.3-0.6c-0.2-0.6-0.4-1.3-0.6-1.9
	c-0.1-0.3-0.4-0.4-0.6-0.3C103.7,103,103.6,103.3,103.6,103.5z M102.5,99.7c0.2,0.6,0.4,1.3,0.6,1.9c0.1,0.2,0.3,0.4,0.5,0.4h0.1
	c0.3-0.1,0.4-0.4,0.3-0.6c-0.2-0.6-0.4-1.3-0.6-1.9c-0.1-0.3-0.4-0.4-0.6-0.3C102.6,99.1,102.4,99.4,102.5,99.7z M100.4,91.9
	c0.2,0.6,0.3,1.3,0.5,1.9c0.1,0.2,0.3,0.4,0.5,0.4h0.1c0.3-0.1,0.4-0.3,0.4-0.6c-0.2-0.6-0.3-1.3-0.5-1.9c-0.1-0.3-0.3-0.4-0.6-0.4
	C100.5,91.4,100.3,91.7,100.4,91.9z M99.4,88c0.2,0.6,0.3,1.3,0.5,1.9c0.1,0.2,0.3,0.4,0.5,0.4h0.1c0.3-0.1,0.4-0.3,0.4-0.6
	c-0.2-0.6-0.3-1.3-0.5-1.9c-0.1-0.3-0.3-0.4-0.6-0.4C99.5,87.5,99.4,87.8,99.4,88z"/>
</svg>
