<svg xmlns="http://www.w3.org/2000/svg" viewBox="0 0 84 84" class="svgo"><g><path d="M55.4 11.4c-.2-.8-1.1-2.7-4.3-2.7h-.2c-1.3 0-3.1.5-4.3 1.8C36 22.3 24.7 29.9 10.2 34.9 3 37.4-1 45.1 1 52.3c2 7.2 9.4 11.6 16.7 10.1 1.2-.3 2.5-.5 3.8-.7-.2 1.6 0 3.2.4 4.8C23.5 72.6 29 76.6 35 76.6c1.2 0 2.3-.1 3.5-.5 6.4-1.7 10.5-7.7 10-14.1 4 .8 8.2 1.8 12.9 3.4.5.2 1.1.3 1.6.3 1.2 0 2.3-.4 3-.8 2.9-1.6 2.7-3.7 2.5-4.6L55.4 11.4zM37 70.3c-2 .5-4 .3-5.7-.8-1.8-1-3-2.6-3.5-4.6-.4-1.4-.3-2.8.1-4.1 4.4-.4 9.2-.4 14.6.2.9 4.1-1.5 8.3-5.5 9.3zm-2.8-15.7c-6.6 0-12.3.9-17.7 2-4.3.9-8.6-1.7-9.7-5.9-1.2-4.2 1.2-8.6 5.4-10.1 15.1-5.3 27-13 38.2-25.1l11.7 43.8C51 55.8 42 54.6 34.2 54.6z"/><path d="M81.9 30.7c-1.8-6.5-7.1-11.5-13.2-12.4-1.1-.1-2.1.6-2.3 1.7-.2 1.1.6 2.1 1.7 2.3 4.6.6 8.6 4.5 9.9 9.5 1.3 5-.2 10.3-3.8 13.2-.9.7-1 1.9-.3 2.8.4.5 1 .8 1.6.8.4 0 .9-.1 1.2-.4 4.8-3.9 6.9-10.9 5.2-17.5z"/><path d="M65.9 27.8c-1.1-.1-2.1.6-2.3 1.7-.2 1.1.6 2.1 1.7 2.3 1.3.2 2.5 1.3 2.9 2.9.4 1.5 0 3.1-1.1 4-.9.7-1 1.9-.3 2.8.4.5 1 .8 1.6.8.4 0 .9-.1 1.2-.4 2.4-1.8 3.3-5 2.5-8.2-.8-3.2-3.2-5.5-6.2-5.9z"/></g></svg>