<svg xmlns="http://www.w3.org/2000/svg" viewBox="0 0 84 84" class="svgo"><path d="M72.8 1.15H11.2C5.3 1.15.5 5.95.5 11.85v60.3c0 5.9 4.8 10.7 10.7 10.7h61.6c5.9 0 10.7-4.8 10.7-10.7v-60.3c0-5.9-4.8-10.7-10.7-10.7zm-61.6 6h61.6c2.6 0 4.7 2.1 4.7 4.7v26.8h-71v-26.8c0-2.5 2.1-4.7 4.7-4.7zm61.6 69.9H11.2c-2.6 0-4.7-2.1-4.7-4.7v-27.6h71.1v27.5c-.1 2.6-2.2 4.8-4.8 4.8zm-16-19.5c0 4.8-3.9 8.8-8.8 8.8H36.7c-4.8 0-8.8-3.9-8.8-8.8 0-1.7 1.3-3 3-3s3 1.3 3 3c0 1.5 1.2 2.8 2.8 2.8h11.4c1.5 0 2.8-1.2 2.8-2.8 0-1.7 1.3-3 3-3s2.9 1.5 2.9 3zm-28.9-39.5c0-1.7 1.3-3 3-3s3 1.3 3 3c0 1.5 1.2 2.8 2.8 2.8h11.4c1.5 0 2.8-1.2 2.8-2.8 0-1.7 1.3-3 3-3s3 1.3 3 3c0 4.8-3.9 8.8-8.8 8.8H36.7c-4.8 0-8.8-3.9-8.8-8.8z"/></svg>