<svg xmlns="http://www.w3.org/2000/svg" viewBox="0 0 84 84" class="svgo"><path d="M76.2 61.7c-6.7-6.8-10-16.1-10-29.5C66.2 24 60.3 16 51.6 13c.1-1 .2-1.3.2-1.6C51.8 6 47.4 1.3 42 1.3s-9.8 4.2-9.8 9.6c0 .3.1.6.2.9-8.6 3.3-14.6 11.3-14.6 19.7 0 13.5-3.3 23.3-10 30.1-2.1 2.1-2.7 5.7-1.6 8.5 1.1 2.7 3.6 4.8 6.5 4.8h18.1c1.4 5 5.9 8.5 11.1 8.5 5.3 0 9.7-3.5 11.1-8.5h18.1c2.9 0 5.4-2.1 6.5-4.8 1.3-2.8.7-6.3-1.4-8.4zM42 7c1.9 0 3.5 1.4 3.7 3.3-2.4-.3-5-.3-7.5 0C38.5 8.4 40.1 7 42 7zm0 70.5c-1.9 0-3.6-.5-4.6-2.5h9.3c-1.1 2-2.8 2.5-4.7 2.5zm30.2-9.6c-.1.3-.4 1.1-1 1.1H12.8c-.6 0-.9-.8-1-1.1-.2-.5-.2-1.3.3-1.8 7.9-8 11.7-19.3 11.7-34.4 0-4.9 3.4-11.5 10.8-14.3 2.4-.9 5-1.3 7.6-1.3 2.6 0 5 .4 7.1 1.3 6.5 2.7 10.9 8.4 10.9 14.2 0 15.1 3.8 26.5 11.7 34.5.5.5.5 1.3.3 1.8z"/></svg>