<svg xmlns="http://www.w3.org/2000/svg" viewBox="0 0 84 84" class="svgo"><path d="M71.2 13.25H10.5c-5.4 0-9.8 4.3-9.8 9.6v38.3c0 5.3 4.4 9.6 9.8 9.6h63c5.4 0 9.8-4.3 9.8-9.6v-36.1c0-6.5-5.4-11.8-12.1-11.8zm6.1 47.9c0 2-1.7 3.6-3.8 3.6h-63c-2.1 0-3.8-1.6-3.8-3.6v-38.3c0-2 1.7-3.6 3.8-3.6h60.7c3.4 0 6.2 2.6 6.2 5.8v36.1zm-54.7-32.5v25.2c0 1.7-1.3 3-3 3s-3-1.3-3-3v-25.2c0-1.7 1.3-3 3-3s3 1.4 3 3zm44.7 0v25.2c0 1.7-1.3 3-3 3s-3-1.3-3-3v-25.2c0-1.7 1.3-3 3-3s3 1.4 3 3zm-9 0v15.2c0 1.7-1.3 3-3 3s-3-1.3-3-3v-15.2c0-1.7 1.3-3 3-3s3 1.4 3 3zm-8.9 0v15.2c0 1.7-1.3 3-3 3s-3-1.3-3-3v-15.2c0-1.7 1.3-3 3-3s3 1.4 3 3zm-9 0v15.2c0 1.7-1.3 3-3 3s-3-1.3-3-3v-15.2c0-1.7 1.3-3 3-3s3 1.4 3 3zm-8.9 0v15.2c0 1.7-1.3 3-3 3s-3-1.3-3-3v-15.2c0-1.7 1.3-3 3-3s3 1.4 3 3z"/></svg>