<svg xmlns="http://www.w3.org/2000/svg" viewBox="0 0 84 84" class="svgo"><path d="M72 11.2h-5V4.6c0-1.7-1.3-3-3-3s-3 1.3-3 3v6.6H23V4.6c0-1.7-1.3-3-3-3s-3 1.3-3 3v6.6h-5c-5.8 0-10.5 4.7-10.5 10.5v50.2c0 5.8 4.7 10.5 10.5 10.5h59.9c5.8 0 10.5-4.7 10.5-10.5V21.7c.1-5.8-4.6-10.5-10.4-10.5zm-60 6h5V24c0 1.7 1.3 3 3 3s3-1.3 3-3v-6.8h37.9V24c0 1.7 1.3 3 3 3s3-1.3 3-3v-6.8h5c2.5 0 4.5 2 4.5 4.5V39H7.5V21.7c0-2.5 2-4.5 4.5-4.5zm60 59.2H12c-2.5 0-4.5-2-4.5-4.5V45h68.9v26.9c0 2.5-1.9 4.5-4.4 4.5z"/></svg>