<svg xmlns="http://www.w3.org/2000/svg" viewBox="0 0 84 84" class="svgo"><path d="M81.725 18.85c-1.2-1.4-3-2.2-5.1-2.2h-56.8l-.6-5.2c-.5-3.6-3.7-6.4-7.4-6.4h-8c-1.7 0-3 1.3-3 3s1.3 3 3 3h8c.7 0 1.4.5 1.4 1.2l6.2 53.8c.5 3.6 3.7 6.4 7.4 6.4h2c1.2 3.7 4.7 6.5 8.8 6.5 4.1 0 7.6-2.7 8.8-6.5h8.3c1.2 3.7 4.7 6.5 8.8 6.5 5.1 0 9.2-4.1 9.2-9.2s-4.1-9.2-9.2-9.2c-3.9 0-7.3 2.5-8.6 5.9h-8.6c-1.3-3.5-4.7-5.9-8.6-5.9-3.9 0-7.3 2.5-8.6 5.9h-2.2c-.7 0-1.4-.5-1.4-1.2l-.9-7.8h46.9c3.7 0 6.8-2.3 7.4-5.6l4.2-27.5c.2-2.1-.2-4-1.4-5.5zm-18.2 46.7c2.3 0 4.2 1.9 4.2 4.2 0 2.3-1.9 4.2-4.2 4.2-2.2 0-4-1.7-4.2-3.8 0-.2.1-.4.1-.6v-.4c.3-2.1 2-3.6 4.1-3.6zm-25.9 0c2.3 0 4.2 1.9 4.2 4.2 0 2.3-1.9 4.2-4.2 4.2-2.3 0-4.2-1.9-4.2-4.2 0-2.3 1.9-4.2 4.2-4.2zm39.5-42.2l-4.2 27.5c0 .1-.6.6-1.5.6h-47.6l-3.3-28.8h56.1c.3 0 .5.1.5 0v.7z"/></svg>