<svg xmlns="http://www.w3.org/2000/svg" viewBox="0 0 84 84" class="svgo"><path d="M84 37.9c0 1.5-.6 3-1.7 4.1l-9.7 9.7c-.6.6-1.4.9-2.1.9-.7 0-1.5-.3-2.1-.9-1.2-1.2-1.2-3.1 0-4.2l6.5-6.5H40.3c-1.7 0-3-1.3-3-3s1.3-3 3-3h34.6l-6.5-6.5c-1.2-1.2-1.2-3.1 0-4.2 1.2-1.2 3.1-1.2 4.2 0l9.7 9.7c1.1.9 1.7 2.4 1.7 3.9zm-23 9.6l-.7 4.4c-.6 3.2-3.7 5.6-7.4 5.6H23.8l.9 7.8c.1.6.7 1.2 1.4 1.2h2.2c1.3-3.5 4.7-5.9 8.6-5.9 3.9 0 7.3 2.5 8.6 5.9h8.6c1.3-3.5 4.7-5.9 8.6-5.9 5.1 0 9.2 4.1 9.2 9.2S67.8 79 62.7 79c-4.1 0-7.6-2.7-8.8-6.5h-8.3c-1.2 3.7-4.7 6.5-8.8 6.5-4.1 0-7.6-2.7-8.8-6.5h-2c-3.7 0-6.9-2.7-7.4-6.4l-6.2-53.9c-.1-.6-.7-1.2-1.4-1.2H3c-1.7 0-3-1.3-3-3s1.3-3 3-3h8c3.7 0 6.9 2.7 7.4 6.4l.6 5.2h39c2.1 0 3.9.8 5.1 2.2 1.2 1.4 1.7 3.4 1.3 5.4l-.8 5c-.2 1.5-1.5 2.6-3 2.6h-.5c-1.6-.2-2.8-1.8-2.5-3.4l.8-5.1c.1-.4 0-.6 0-.6H19.8l3.3 28.8h29.8c.9 0 1.4-.5 1.5-.6l.7-4.4c.3-1.6 1.8-2.7 3.5-2.5 1.6.4 2.7 1.9 2.4 3.5zm-2.4 22.3c0 2.3 1.9 4.2 4.2 4.2 2.3 0 4.2-1.9 4.2-4.2 0-2.3-1.9-4.2-4.2-4.2-2.4 0-4.2 1.9-4.2 4.2zm-25.9 0c0 2.3 1.9 4.2 4.2 4.2 2.3 0 4.2-1.9 4.2-4.2 0-2.3-1.9-4.2-4.2-4.2-2.3 0-4.2 1.9-4.2 4.2z"/></svg>