<svg xmlns="http://www.w3.org/2000/svg" viewBox="0 0 84 84" class="svgo"><path d="M40.654 83.05c-.8 0-1.6 0-2.5-.1-17.4-1.2-31.4-15.2-32.5-32.6-1.3-18.9 12.9-35.7 31.7-37.5.8-.1 1.7.2 2.3.8.6.6 1 1.4 1 2.2v27.5c0 1 .5 2 1.3 2.5s1.9.6 2.9.2l24.9-11.2c.8-.3 1.7-.3 2.4 0 .8.3 1.4 1 1.6 1.8 1.2 3.7 1.9 7.5 1.9 11.2 0 9.7-4.1 19-11.1 25.7-6.5 6.2-14.9 9.5-23.9 9.5zm-6-63.7c-13.9 2.9-24 16-23 30.6.9 14.4 12.5 26 26.9 27 8.2.5 16-2.2 21.9-7.8 5.9-5.5 9.3-13.3 9.3-21.3 0-2-.2-4.1-.7-6.1l-21.8 9.8c-2.9 1.2-6.1 1-8.6-.6-2.5-1.7-4.1-4.5-4.1-7.5v-24.1zm15.9 15c-.6 0-1.1-.2-1.6-.5-.9-.6-1.4-1.5-1.4-2.5V3.95c0-.8.4-1.7 1-2.2.6-.6 1.5-.8 2.3-.8 11.4 1.1 21.6 7.7 27.2 17.7.4.7.5 1.6.2 2.4-.3.8-.9 1.5-1.6 1.8l-24.9 11.2c-.3.2-.8.3-1.2.3zm3-27v19.3l17.5-7.9c-4.2-5.8-10.5-9.9-17.5-11.4z"/></svg>