<svg xmlns="http://www.w3.org/2000/svg" x="0px" y="0px" viewBox="0 0 55 40"><path d="M19.8 13.6h5.9V2.5H9.5c-4.4 0-8 3.6-8 8.1h12.7c2.3 0 4.4 1.2 5.6 3zm20-3h12.7c0-4.4-3.6-8.1-8-8.1H28.1v11.1h6c1.2-1.8 3.3-3 5.7-3zm0 2.5c-2.4 0-4.3 2-4.3 4.4v1.9h17v-6.3H39.8zm-4.3 10.6c0 2.4 1.9 4.4 4.3 4.4h12.7v-6.3h-17v1.9zm-2.5.8c0-.3-.1-.5-.1-.8v-6.2c0-.4 0-.9.1-1.3H20.9c.1.4.1.8.1 1.3v6.2c0 3.8-3 6.9-6.8 6.9H1.5c.1 4.4 3.6 7.9 8 7.9h16.2V28.3c0-2.1 1.7-3.8 3.8-3.8H33zm-14.5-.8v-1.9h-17v6.3h12.7c2.4 0 4.3-2 4.3-4.4zm15.3 3.2h-4.3c-.7 0-1.3.6-1.3 1.4v10.2h16.4c4.3 0 7.9-3.6 8-8H39.8c-2.6 0-4.8-1.4-6-3.6zm-15.3-9.4c0-2.4-1.9-4.4-4.3-4.4H1.5v6.3h17v-1.9z"/></svg>
