<svg xmlns="http://www.w3.org/2000/svg" viewBox="0 0 84 84" class="svgo"><path d="M47.4 81.8H36.8c-2.4 0-4.4-1.7-4.7-4l-1.1-7c-.4-.2-.8-.3-1.3-.5l-5.2 4c-.9.7-1.9 1.1-3.1 1.1-1.2 0-2.4-.5-3.3-1.3l-.4-.4c-2.6-2.3-5.8-5.2-7.8-8.1-.6-.8-.9-1.8-.9-2.9 0-1 .3-2 .9-2.8.8-1.1 1.6-2.1 2.4-3.1.5-.7 1.1-1.3 1.6-2-.3-.6-.5-1.1-.7-1.7l-6.9-1c-2.3-.4-4-2.4-4-4.7V36.6c0-2.2 1.6-4.3 3.7-4.7h.1l7.1-1.1c.2-.5.4-.9.6-1.4-1.3-1.8-2.7-3.5-3.9-5-1-1.1-1.2-2.3-1.2-3.1 0-1.3.6-2.3 1-2.8.1-.1 7.8-9.8 11.7-9.8 1.1 0 2.1.4 3 1.1l5.2 4c.4-.2.8-.3 1.2-.5.3-2.4.6-5 1.3-7.5.5-2.1 2.4-3.6 4.6-3.6h10.6c2.4 0 4.4 1.8 4.7 4.1l1.1 6.9c.4.2.8.3 1.3.5l5.2-3.9c.8-.7 1.9-1.1 3.1-1.1 1.1 0 2.2.4 3.1 1.2l.9.8c2.4 2.2 5.5 5 7.4 7.8.6.8.9 1.8.9 2.9 0 1-.3 2-.9 2.8-.8 1.1-1.6 2.1-2.4 3.1-.5.7-1.1 1.3-1.6 2 .3.6.5 1.1.7 1.7l7 1.1c2.3.4 3.9 2.4 3.9 4.7v10.6c0 2.2-1.7 4.3-3.8 4.7h-.1l-7.1 1.1c-.2.5-.4.9-.6 1.4 1.3 1.7 2.6 3.4 4 5 .7.9 1.2 2 1.2 3.1s-.4 2.2-1.1 3c-1 1.2-7.9 9.6-11.5 9.6-.9 0-1.9-.3-2.8-.9l-.3-.2-5.1-4c-.4.2-.8.3-1.2.5-.3 2.4-.6 5-1.3 7.5-.5 2.1-2.4 3.6-4.6 3.6zm-9.5-6h8.6c.5-2.1.7-4.3 1-6.4.2-1.8 1.4-3.4 3.2-4 .7-.2 1.3-.5 2-.8 1.7-.8 3.6-.6 5.1.6l5 3.9c1.7-1.3 4.8-4.6 6.4-6.4-1.3-1.6-2.7-3.3-4-5.1-1-1.4-1.2-3.3-.4-5 .3-.6.6-1.3.9-2.1.6-1.7 2.1-2.9 3.8-3.1l6.6-1v-8.5l-6.5-1c-1.8-.3-3.2-1.5-3.8-3.2-.3-.8-.6-1.5-1-2.3-.8-1.7-.6-3.6.5-5l2.1-2.7c.6-.8 1.2-1.5 1.8-2.3-1.7-2.1-4.1-4.4-6.2-6.2l-.1-.1-5.2 3.9c-1.4 1.1-3.3 1.3-5 .5-.6-.3-1.3-.6-2-.8-1.7-.6-2.9-2.1-3.2-3.8l-1-6.6h-8.6c-.5 2.1-.7 4.3-1 6.4-.2 1.8-1.4 3.4-3.2 4-.7.2-1.3.5-2 .8-1.7.8-3.6.6-5.1-.5l-5.1-4c-1.7 1.3-4.9 4.6-6.3 6.3 1.3 1.5 2.6 3.3 4 5.1 1.1 1.4 1.2 3.4.4 5l-.9 2.1c-.6 1.7-2.1 2.9-3.8 3.2l-6.5 1v8.5l6.5 1c1.8.3 3.3 1.5 3.9 3.2.3.8.6 1.5 1 2.3.8 1.7.6 3.6-.5 5l-2.1 2.7c-.6.8-1.2 1.5-1.8 2.3 1.7 2.1 4.2 4.4 6.3 6.3l5.1-3.9c1.4-1.1 3.3-1.3 5-.5.6.3 1.3.6 2 .8 1.7.6 2.9 2.1 3.2 3.8zm4.2-19c-.8 0-1.7-.1-2.5-.2-6.1-1-11.1-6-12.1-12.1-.8-4.8.7-9.5 4.1-12.9 3.4-3.4 8.1-4.9 12.9-4.1 6.1 1 11.1 6 12.1 12.1.8 4.8-.7 9.5-4.1 12.9-2.8 2.7-6.5 4.3-10.4 4.3zm0-24.6c-2.6 0-5 1-6.9 2.9-2.3 2.3-3.3 5.4-2.7 8.6.7 4 3.9 7.3 8 8 3.2.5 6.3-.5 8.6-2.7 2.3-2.3 3.3-5.4 2.7-8.6-.7-4-3.9-7.3-8-8-.6-.1-1.1-.2-1.7-.2z"/></svg>