<svg xmlns="http://www.w3.org/2000/svg" viewBox="0 0 84 84" class="svgo"><path d="M42 14.05c19 0 34.5 11.5 34.5 25.5S61 65.15 42 65.15c-4.3 0-8.5-.6-12.5-1.8-.6-.2-1.1-.2-1.7-.2-1.1 0-2.2.3-3.2.9-2.3 1.5-4.7 2.7-7.1 3.7.6-1.3 1.2-2.7 1.6-4 .8-2.4 0-5-2-6.6-6.2-4.8-9.6-11-9.6-17.6 0-14 15.5-25.5 34.5-25.5m0-6c-22.4 0-40.5 14.1-40.5 31.5 0 8.7 4.5 16.6 11.9 22.3-1.3 3.9-3.6 7.5-5.7 10-1.3 1.7-.1 4.1 1.9 4.1h.4c6.9-1 13-3.8 17.8-6.9 4.4 1.3 9.2 2 14.2 2 22.4 0 40.5-14.1 40.5-31.5S64.4 8.05 42 8.05z"/></svg>