<svg xmlns="http://www.w3.org/2000/svg" viewBox="0 0 84 84" class="svgo"><path d="M79.2 20.75c-1.6-1.6-3.6-2.4-5.8-2.4H56.7c-.8 0-1.7.1-2.5.4v-8.8c0-2.2-.9-4.3-2.4-5.8-1.6-1.6-3.6-2.4-5.8-2.4H29.3c-2.2 0-4.3.9-5.8 2.4L4.8 22.75c-1.6 1.6-2.4 3.6-2.4 5.8v28.7c0 4.6 3.7 8.3 8.3 8.3h19.1v8.4c0 4.6 3.7 8.3 8.3 8.3h35.3c2.2 0 4.3-.9 5.8-2.4 1.6-1.6 2.4-3.6 2.4-5.8v-47.4c0-2.2-.9-4.3-2.4-5.9zm-26.1 6.2v13.9c0 .6-.5 1.1-1.1 1.1H38.1zm-27.4-16.7v13.9c0 .6-.5 1.1-1.1 1.1H10.7zm-15 49.3c-1.2 0-2.3-1-2.3-2.3v-26.9h16.2c3.4 0 6.1-2.8 6.1-6.1V7.65h15.2c.6 0 1.2.2 1.6.7.4.4.7 1 .7 1.6v13.5l-16 16c-1.6 1.6-2.4 3.6-2.4 5.8v14.3zm64.9 14.4c0 .6-.2 1.2-.7 1.6-.4.4-1 .7-1.6.7H38.1c-1.2 0-2.3-1-2.3-2.3v-11-.5-15.5H52c3.4 0 6.1-2.8 6.1-6.1v-16.5h15.2c.6 0 1.2.2 1.6.7.4.5.7 1 .7 1.6v47.3z"/></svg>