<svg xmlns="http://www.w3.org/2000/svg" viewBox="0 0 84 84" class="svgo"><path d="M80.7 17.3c-.1-.1-.3-.2-.5-.2 0 0-.1 0-.1-.1L46.7 4.6c-2.8-1.1-6-1.1-8.8 0L4.6 17c-.1 0-.1 0-.1.1-.2.1-.2.1-.3.2-.9.6-1.2 1.5-1.2 2.5v37.1c0 5.2 3.1 9.9 8 11.8l30.4 11.6c.3.1.7.2 1 .2.4 0 .7-.1 1.1-.2L74 68.7c4.9-1.9 8.1-6.6 8.1-11.8V19.8c-.1-1-.6-1.9-1.4-2.5zM40 10.2c1.5-.6 3.1-.6 4.6 0l25.8 9.6-10.1 3.9-28.2-10.5 7.9-3zm-13.7 5.1l28.4 10.5-12.4 4.7-28.1-10.7 12.1-4.5zM9 56.9V24.1l30 11.7v37.3l-26.1-10c-2.5-1-3.9-3.5-3.9-6.2zm67 0c0 2.7-1.9 5.2-4.4 6.2L45 73.1V35.9l31-11.7v32.7z"/></svg>