<svg xmlns="http://www.w3.org/2000/svg" viewBox="0 0 84 84" class="svgo"><path d="M76.1 15.2c0-.2 0-.4-.1-.6v-.1c-.1-.2-.1-.4-.2-.6 0 0 0-.1-.1-.1-.1-.2-.2-.3-.3-.5-.1-.2-.3-.3-.5-.4h-.1-.1c-.2-.1-.3-.2-.5-.3L53.2 4c-1.9-.7-3.9-.7-5.7 0L25 12.3l-.6.3h-.1c-.2.1-.3.3-.5.4 0 0 0 .1-.1.1-.1.2-.2.3-.3.5v.1c-.1.2-.2.4-.2.6v.1c0 .2-.1.4-.1.6v16.1l-15.9 6-.6.3h-.1c-.2.3-.3.4-.5.6v.1c-.1.2-.2.3-.3.5v.1c-.1.2-.2.4-.2.6v.1c0 .2-.1.4-.1.6v25.3c0 3.4 1.9 6.4 4.9 7.6l20.1 7.7h.1c.1 0 .2.1.3.1h1.4c.1 0 .2-.1.3-.1h.1L53 72.8c3.2-1.3 5.3-4.3 5.3-7.6V52.7L70.8 48c3.2-1.3 5.3-4.3 5.3-7.6V15.2zM49.7 9.5c0-.1 0-.1 0 0 .5-.2.9-.2 1.4 0l13.8 5.7-15.6 5.9L36 15.9l-1.5-.6 15.2-5.8zm-20.6 10l17.1 6.7v6.9l-10.8-4.4c-1.9-.7-3.9-.7-5.7 0l-.6.3v-9.5zm-.7 53.9l-16-6.1c-.8-.3-1.1-1.2-1.1-2V44.4l14.2 5.5 2.9 1.1v22.4zm3-27.6L16.6 40l15.2-5.7h.1c.4-.2.9-.2 1.3 0L47 40l-15.6 5.8zm20.9 19.5c0 .8-.7 1.7-1.4 2l-16.5 6.2V51.1l6.9-2.6 11-4.1v20.9zm17.8-24.9c0 .8-.7 1.7-1.4 2l-10.4 3.9v-6.2c0-.2 0-.4-.1-.6v-.1c-.1-.2-.1-.4-.2-.6 0 0 0-.1-.1-.1-.1-.2-.2-.3-.3-.5-.1-.2-.3-.3-.5-.4H57h-.1c-.2-.1-.3-.2-.5-.3l-4.2-1.7v-9.3l8.3-3.1 9.6-3.6v20.6z"/></svg>