<svg xmlns="http://www.w3.org/2000/svg" viewBox="0 0 84 84" class="svgo"><path d="M79.9 42.8l-16.5-6.1c-.2-.1-.5-.1-.7-.2.2-.6.3-1.3.3-1.9v-18c0-1.6-1.3-2.7-2.1-2.9L44.4 7.5c-1.6-.6-3.3-.6-4.9 0l-16.8 6.2c-.2.1-.6.1-.8.3-.5.4-1 1-1 1.6v18.8c0 .7.1 1.3.3 1.9-.3.1-.5.1-.8.2L3.8 42.8c-.3.1-.6.2-.8.3-.5.4-1 1-1 1.6v18.8c0 2.8 2 5.5 4.6 6.4l15.1 5.7c.5.1.7.2 1.1.2h.1c.3 0 .5 0 .8-.1L39.3 70c1-.4 1.9-1 2.7-1.7.7.8 1.6 1.4 2.6 1.7l15.1 5.7c.5.1.7.2 1.1.2h.1c.3 0 .5 0 .8-.1L77.3 70c2.6-1 4.7-3.6 4.7-6.4v-18c0-1.6-1.3-2.6-2.1-2.8zM59 34.5c0 1.2-.9 2.3-2 2.7l-1.1.4L44 42V24.3l15-5.7v15.9zM40.9 11.3c.7-.3 1.3-.3 2 0l11.9 4.4-13 5-12.9-5 12-4.4zM25 18.6l15 5.6v17.9l-12.9-4.9c-1.1-.4-2.1-1.5-2.1-2.7V18.6zm-4 52.5L8.1 66.3C7 65.9 6 64.8 6 63.6V47.7l15 5.6v17.8zm1.9-21.3l-12.9-5 12-4.5c.7-.3 1.3-.3 2 0l5.8 2.1 6.1 2.3-13 5.1zM38 66.3l-13 4.9V53.3l15-5.7v15.9c0 1.3-.9 2.4-2 2.8zm21 4.8l-12.9-4.9c-1.1-.3-2.1-1.4-2.1-2.6V47.7l15 5.6v17.8zm1.9-21.3l-12.9-5 3.6-1.3 8.4-3.1c.7-.3 1.3-.3 2 0l11.9 4.4-13 5zM78 63.6c0 1.2-.9 2.3-2 2.7l-13 4.9V53.3l15-5.7v16z"/></svg>