<svg xmlns="http://www.w3.org/2000/svg" viewBox="-597 319 84 84" class="svgo"><path d="M-531.6 357.9l12.3-12.3c4.4-4.5 4.4-11.5 0-15.9l-4.4-4.4c-2-2.1-4.9-3.2-7.8-3.2-2.9 0-5.7 1.1-7.8 3.2l-12.5 12.4-13.1-13.1c-3.5-3.5-9.1-3.5-12.6 0l-13.9 13.9c-1.7 1.7-2.6 3.9-2.6 6.3s.9 4.6 2.6 6.3l13 13-7.8 7.8c-1 1-1.9 2.3-2.6 3.9l-4.8 13.5c-1 2.9-.3 6.1 1.9 8.3 1.4 1.5 3.5 2.3 5.6 2.3.8 0 1.4-.1 1.9-.2l13.5-4.7h.2l.5-.2c1.4-.5 2.8-1.4 3.9-2.5l7.9-7.9 13 13c1.7 1.7 3.9 2.6 6.3 2.6s4.6-.9 6.3-2.6l13.9-13.9c1.7-1.7 2.6-3.9 2.6-6.3s-.9-4.6-2.6-6.3l-12.9-13zm-44.1.4l3.2-3.2c.6-.6.6-1.5 0-2.1-.6-.6-1.5-.6-2.1 0l-3.2 3.2-2.1-2.1 5.8-5.8c.8-.8.8-2 0-2.8-.8-.8-2-.8-2.8 0l-5.8 5.8-2.1-2.1 3.1-3.1c.6-.6.6-1.5 0-2.1-.6-.6-1.5-.6-2.1 0l-3.1 3.1-.2-.2c-.5-.5-.8-1.3-.8-2s.3-1.5.8-2l13.9-13.9c1.1-1.1 3-1.1 4.1 0l13.1 13.1-18.1 18-1.6-1.8zm5.6 30c-.4.3-.9.7-1.4.9l-13.6 4.8h-.1c-.3 0-.7.1-.8.1-.5 0-1.1-.3-1.4-.6-.8-.7-.7-1.5-.5-2.1l4.6-13.2c.4-.9.9-1.5 1.4-1.8l.1-.1 11.8 11.9-.1.1zm-7.4-16.2l42.5-42.4c.9-1 2.2-1.5 3.6-1.5s2.7.6 3.6 1.5l4.4 4.4c2.1 2.1 2.1 5.3 0 7.5l-42.3 42.3-11.8-11.8zm54.7 7.1l-13.9 13.9c-1.1 1.1-3 1.1-4.1 0l3.1-3.1c.6-.6.6-1.5 0-2.1-.6-.6-1.5-.6-2.1 0l-3.1 3.1-2.1-2.1 5.8-5.8c.8-.8.8-2 0-2.8-.8-.8-2-.8-2.8 0l-5.8 5.8-2.1-2.1 3.1-3.1c.6-.6.6-1.5 0-2.1-.6-.6-1.5-.6-2.1 0l-3.1 3.1-1.8-1.8 18-18 13 13c.5.5.8 1.3.8 2 0 .8-.3 1.6-.8 2.1z"/></svg>