<svg xmlns="http://www.w3.org/2000/svg" viewBox="0 0 84 84" class="svgo"><path d="M44.9 39.8V20.9c3 .4 5.8 1.6 7.8 3.4 1.2 1.1 3.1 1.1 4.2-.2 1.1-1.2 1.1-3.1-.2-4.2-3.1-2.9-7.4-4.6-11.9-5.1V7c0-1.7-1.3-3-3-3s-3 1.3-3 3v7.9c-1.5.3-2.9.7-4.2 1.3-5.4 2.3-8.4 7.1-8.4 12.9 0 8.7 6.5 12.2 12.7 14.7V64c-3.4-.7-6.5-2.3-8.3-4.5-1-1.3-2.9-1.5-4.2-.4-1.3 1-1.5 2.9-.4 4.2 2.9 3.6 7.9 6 13 6.8V78c0 1.7 1.3 3 3 3s3-1.3 3-3v-7.8c1.4-.2 2.7-.4 3.9-.9 6.1-2.2 9.6-7.4 9.6-14.4.1-9.1-7.2-12.6-13.6-15.1zM32.3 29.2c0-3.5 1.6-6 4.8-7.4l1.8-.6v16.2c-4.2-2-6.6-4.1-6.6-8.2zm14.6 34.4c-.6.2-1.3.4-2 .5V46.3c4.8 2.1 7.6 4.2 7.6 8.5 0 4.5-1.9 7.5-5.6 8.8z"/></svg>