<svg xmlns="http://www.w3.org/2000/svg" viewBox="0 0 84 84" class="svgo"><path d="M54.7 84H29.4C13.2 84 0 70.7 0 54.5V29.4C0 13.2 13.2 0 29.4 0h25.2C70.8 0 84 13.2 84 29.4v25.1C84.1 70.7 70.9 84 54.7 84zM29.4 6C16.5 6 6 16.5 6 29.4v25.1c0 12.9 10.5 23.4 23.4 23.4h25.2C67.5 77.9 78 67.4 78 54.5V29.4C78 16.5 67.5 6 54.6 6H29.4zm11 54.8h-6.6c-3.4 0-6.2-2.8-6.2-6.2V28.1c0-2.8 2.3-5.1 5.1-5.1h8.1c10.3 0 18.7 8.3 18.9 18.6.1 5-1.9 9.7-5.4 13.4-3.7 3.7-8.7 5.8-13.9 5.8zM32.7 28c-.1 0-.2.1-.2.2v26.5c0 .7.6 1.3 1.3 1.3h6.6c3.8 0 7.6-1.6 10.3-4.4 2.6-2.7 4.1-6.2 4-9.9-.2-7.5-6.4-13.7-13.9-13.7z"/></svg>