<svg xmlns="http://www.w3.org/2000/svg" viewBox="0 0 84 84" class="svgo"><path d="M44.5 45c2.9-3 4.5-6.9 4.4-11-.2-8.4-7-15.2-15.5-15.2h-6.6c-2.3 0-4.2 1.9-4.2 4.2v21.7c0 2.8 2.3 5.1 5.1 5.1h5.4c4.2 0 8.3-1.7 11.4-4.8zm-17.2-1V24c0-.1.1-.2.2-.2h6.1c5.7 0 10.3 4.7 10.5 10.3.1 2.8-1.1 5.4-3 7.5-2 2.1-4.9 3.3-7.8 3.3h-5c-.5.1-1-.4-1-.9z"/><path d="M68.8 42.8V23.4C68.8 10.5 58.3 0 45.4 0h-22C10.5 0 0 10.5 0 23.4v21.9c0 12.9 10.5 23.4 23.4 23.4h19.4C45.3 77.5 53.4 84 63 84c11.6 0 21-9.4 21-21 0-9.6-6.4-17.6-15.2-20.2zM6 45.3V23.4C6 13.8 13.8 6 23.4 6h22c9.6 0 17.4 7.8 17.4 17.4V42c-11.4.1-20.6 9.3-20.8 20.7H23.4C13.8 62.7 6 54.9 6 45.3zm57 33.2c-8.6 0-15.5-7-15.5-15.5s7-15.5 15.5-15.5 15.5 7 15.5 15.5S71.6 78.5 63 78.5z"/><path d="M69 56.2l-8.9 8.7-3.1-3c-.9-.9-2.4-.9-3.4 0-.9.9-.9 2.4 0 3.4l4.7 4.6c.5.5 1.1.7 1.7.7.6 0 1.2-.2 1.6-.6l10.6-10.3c1-.9 1-2.4.1-3.4-.8-1.1-2.3-1.1-3.3-.1z"/></svg>