<svg xmlns="http://www.w3.org/2000/svg" viewBox="0 0 84 84" class="svgo"><path d="M57.45 62.25c1.2 1.2 1.2 3.1 0 4.2l-11.4 11.5c-1.2 1.2-2.8 1.8-4.5 1.8-1.6 0-3.2-.6-4.4-1.8l-11.4-11.4c-1.2-1.2-1.2-3.1 0-4.2 1.2-1.2 3.1-1.2 4.2 0l8.6 8.6v-37.3c0-1.7 1.3-3 3-3s3 1.3 3 3v37.3l8.6-8.6c1.2-1.2 3.1-1.2 4.3-.1zm12.6-58h-56.1c-5.3 0-9.6 4.3-9.6 9.6v30.1c0 5.3 4.3 9.6 9.6 9.6h12.8c1.7 0 3-1.3 3-3s-1.3-3-3-3h-12.8c-2 0-3.6-1.6-3.6-3.6v-30.1c0-2 1.6-3.6 3.6-3.6h56.1c2 0 3.6 1.6 3.6 3.6v30.1c0 2-1.6 3.6-3.6 3.6h-13.8c-1.7 0-3 1.3-3 3s1.3 3 3 3h13.8c5.3 0 9.6-4.3 9.6-9.6v-30.1c0-5.3-4.3-9.6-9.6-9.6z"/></svg>