<svg xmlns="http://www.w3.org/2000/svg" viewBox="0 0 84 84" class="svgo"><path d="M42 17.2C19.7 17.2.7 37.3.7 42c0 4.7 19.1 24.8 41.3 24.8 22.3 0 41.3-20.1 41.3-24.8 0-4.7-19-24.8-41.3-24.8zm0 43.6C24.1 60.8 9.6 46 6.9 42 9.6 37.9 24.1 23.2 42 23.2 59.9 23.2 74.4 38 77.1 42 74.4 46.1 59.9 60.8 42 60.8zm0-31.7c-7.1 0-12.9 5.8-12.9 12.9 0 7.1 5.8 12.9 12.9 12.9 7.1 0 12.9-5.8 12.9-12.9 0-7.1-5.8-12.9-12.9-12.9zm0 19.8c-3.8 0-6.9-3.1-6.9-6.9 0-3.8 3.1-6.9 6.9-6.9 3.8 0 6.9 3.1 6.9 6.9 0 3.8-3.1 6.9-6.9 6.9z"/></svg>