<svg viewBox="0 0 20 14" fill="none" xmlns="http://www.w3.org/2000/svg">
  <path d="M20 1.9375v1.17188l-14.10156.03906v-1.25L20 1.9375zm-16.48438.58594c0 .26041-.05208.49479-.15624.70312-.07813.18229-.19532.36459-.35157.54688s-.33854.3125-.54687.39062c-.20834.07813-.44271.13021-.70313.15625-.23437-.02604-.46875-.07812-.70312-.15625-.208336-.07812-.390628-.20833-.546878-.39062-.15625-.18229-.286458-.36459-.390624-.54688C.0390625 3.01823 0 2.78385 0 2.52344c0-.23438.0390625-.45573.117188-.66406.104166-.23438.234374-.42969.390624-.58594.15625-.15625.338542-.286461.546878-.390628.23437-.104166.46875-.143229.70312-.117187.26042-.026042.49479.013021.70313.117187.20833.104167.39062.234378.54687.390628.15625.15625.27344.35156.35157.58594.10416.20833.15624.42968.15624.66406zm-1.17187.03906c0-.13021-.01302-.22135-.03906-.27344-.02604-.05208-.06511-.10416-.11719-.15625-.05208-.07812-.11719-.13021-.19531-.15625-.07813-.02604-.15625-.05208-.23438-.07812-.07812.02604-.15625.05208-.23437.07812-.05209.02604-.11719.07813-.19532.15625-.05208.05209-.09114.10417-.11718.15625-.02604.05209-.03906.14323-.03906.27344 0 .05208.01302.11719.03906.19531.02604.07813.0651.14323.11718.19531.07813.02605.14323.06511.19532.11719.07812.05209.15625.06511.23437.03907.07813.02604.15625.01302.23438-.03907.07812-.05208.14323-.09114.19531-.11719.05208-.05208.09115-.11718.11719-.19531.02604-.07812.03906-.14323.03906-.19531zm3.55469 5.23438L20 7.83594V6.625l-14.10156.03906v1.13282zM3.51562 7.25c0 .20833-.05208.42969-.15624.66406-.07813.23438-.19532.42969-.35157.58594-.15625.13021-.33854.2474-.54687.35156-.20834.10417-.44271.14323-.70313.11719-.23437.02604-.46875-.01302-.70312-.11719C.846354 8.7474.664062 8.63021.507812 8.5c-.15625-.15625-.286458-.35156-.390624-.58594C.0390625 7.67969 0 7.45833 0 7.25c0-.26042.0390625-.49479.117188-.70312C.221354 6.33854.351562 6.15625.507812 6c.15625-.18229.338542-.3125.546878-.39062.23437-.07813.46875-.13021.70312-.15626.26042.02605.49479.07813.70313.15626.20833.07812.39062.20833.54687.39062.15625.15625.27344.33854.35157.54688.10416.20833.15624.4427.15624.70312zm-1.17187-.03906c0-.05209-.01302-.11719-.03906-.19532-.02604-.10416-.06511-.16927-.11719-.19531-.05208-.05208-.11719-.09114-.19531-.11719-.07813-.05208-.15625-.0651-.23438-.03906-.07812-.02604-.15625-.01302-.23437.03906-.05209.02605-.11719.06511-.19532.11719-.05208.02604-.09114.09115-.11718.19531-.02604.07813-.03906.14323-.03906.19532 0 .10416.01302.19531.03906.27344.02604.05208.0651.11718.11718.19531.07813.05208.14323.09114.19532.11719.07812 0 .15625.01302.23437.03906.07813-.02604.15625-.03906.23438-.03906.07812-.02605.14323-.06511.19531-.11719.05208-.07813.09115-.14323.11719-.19531.02604-.07813.03906-.16928.03906-.27344zm3.55469 5.35156L20 12.5234v-1.1718l-14.10156-.0391v1.25zm-2.38282-.6641c0 .2865-.05208.5339-.15624.7422-.07813.1823-.19532.3646-.35157.5469-.15625.1823-.33854.3125-.54687.3906-.20834.0781-.44271.1302-.70313.1563-.23437-.0261-.46875-.0782-.70312-.1563-.208336-.0781-.390628-.2083-.546878-.3906s-.286458-.3646-.390624-.5469C.0390625 12.4323 0 12.1849 0 11.8984c0-.2083.0390625-.4166.117188-.625.104166-.2343.234374-.4296.390624-.5859.15625-.1563.338542-.2865.546878-.3906.23437-.1042.46875-.1433.70312-.1172.26042-.0261.49479.013.70313.1172.20833.1041.39062.2343.54687.3906.15625.1563.27344.3516.35157.5859.10416.2084.15624.4167.15624.625zm-1.17187.0391c0-.1042-.01302-.1823-.03906-.2344-.02604-.0521-.06511-.1041-.11719-.1562-.05208-.0781-.11719-.1302-.19531-.1563-.07813-.026-.15625-.0521-.23438-.0781-.07812.026-.15625.0521-.23437.0781-.05209.0261-.11719.0782-.19532.1563-.05208.0521-.09114.1041-.11718.1562-.02604.0521-.03906.1302-.03906.2344 0 .0781.01302.1563.03906.2344.02604.0781.0651.1432.11718.1953.07813.026.14323.0651.19532.1172.07812.0521.15625.0651.23437.039.07813.0261.15625.0131.23438-.039.07812-.0521.14323-.0912.19531-.1172.05208-.0521.09115-.1172.11719-.1953.02604-.0781.03906-.1563.03906-.2344z"/>
</svg>
