<svg xmlns="http://www.w3.org/2000/svg" viewBox="0 0 84 84" class="svgo"><path d="M63.3 58.8c-.9-2.3-1.7-4.3-2.6-6.3-2.3-5.2-4.1-9.3-4.1-15.4 0-5.6-3.9-10.4-9.1-11.7 4.6-2.4 7.6-7.3 7-12.9C54 6.5 49.1 1.6 43.1.9 35.3 0 28.6 6.2 28.6 13.8c0 5 2.9 9.4 7.1 11.6-5.2 1.4-9.1 6.1-9.1 11.7 0 6.1-1.8 10.2-4.1 15.4-.8 1.9-1.7 4-2.6 6.3-.4 1-.5 2.1-.2 3.2.6 2.4 2.8 4 5.1 4h3.3c1 0 1.8.8 1.8 1.8v6.6c0 5.3 4.3 9.6 9.6 9.6h3.7c5.3 0 9.7-4.4 9.7-9.7v-6.5c0-1 .8-1.8 1.8-1.8h3.6c2.3 0 4.5-1.6 5.1-4 .4-1.1.3-2.2-.1-3.2zM41.6 6.9c3.9 0 7 3.1 7 7s-3.1 7-7 7-7-3.1-7-7 3.2-7 7-7zM47 64.3v10c0 2-1.6 3.7-3.7 3.7h-4.1c-1.8 0-3.2-1.4-3.2-3.2V64.3c0-2.4-1.9-4.3-4.3-4.3h-4c-.9 0-1.4-.9-1.1-1.7.5-1.2 1-2.3 1.4-3.4 2.3-5.4 4.5-10.4 4.5-17.8 0-3.4 2.7-6.2 6.1-6.2h5.7c3.4 0 6.1 2.8 6.1 6.2 0 7.3 2.2 12.4 4.5 17.8.5 1.1 1 2.2 1.4 3.4.3.8-.3 1.7-1.1 1.7h-4.3c-2 0-3.9 1.9-3.9 4.3z"/></svg>