<svg xmlns="http://www.w3.org/2000/svg" viewBox="0 0 84 84" class="svgo"><path d="M71.447 18.35l-15-15c-1.8-1.8-4.1-2.7-6.6-2.7h-30.7c-5.1 0-9.3 4.2-9.3 9.3v64.1c0 5.1 4.2 9.3 9.3 9.3h45.7c5.1 0 9.3-4.2 9.3-9.3v-49.1c.1-2.5-.9-4.8-2.7-6.6zm-4.9 3.6h-10.2c-1.8 0-3.3-1.5-3.3-3.3V8.45zm-1.7 55.4h-45.7c-1.8 0-3.3-1.5-3.3-3.3V9.95c0-1.8 1.5-3.3 3.3-3.3h27.9v12c0 5.1 4.2 9.3 9.3 9.3h11.8v46.1c.1 1.8-1.4 3.3-3.3 3.3zm-6.7-39.1c0 1.4-1.1 2.5-2.5 2.5h-27.2c-1.4 0-2.5-1.1-2.5-2.5s1.1-2.5 2.5-2.5h27.2c1.4 0 2.5 1.1 2.5 2.5zm0 13.6c0 1.4-1.1 2.5-2.5 2.5h-27.2c-1.4 0-2.5-1.1-2.5-2.5s1.1-2.5 2.5-2.5h27.2c1.4 0 2.5 1.1 2.5 2.5zm0 13.6c0 1.4-1.1 2.5-2.5 2.5h-27.2c-1.4 0-2.5-1.1-2.5-2.5s1.1-2.5 2.5-2.5h27.2c1.4 0 2.5 1.1 2.5 2.5z"/></svg>