<svg xmlns="http://www.w3.org/2000/svg" viewBox="0 0 84 84" class="svgo"><g transform="translate(400.9 -239)"><path d="M-379.5 265.4h13.5c1.4 0 2.5-1.1 2.5-2.5s-1.1-2.5-2.5-2.5h-13.5c-1.4 0-2.5 1.1-2.5 2.5s1.1 2.5 2.5 2.5z"/><path d="M-332.2 278.7v-20.6c0-1.9-.8-3.7-2.1-5.1l-11.9-11.9c-1.3-1.3-3.2-2.1-5.1-2.1h-39.5c-4 0-7.2 3.2-7.2 7.2v59c0 4 3.2 7.2 7.2 7.2h27.7c4.2 6.4 11.5 10.6 19.7 10.6 13 0 23.6-10.6 23.6-23.6.1-8.9-5-16.8-12.4-20.7zm-7.4-22.5h-9.3c-.2 0-.4-.2-.4-.4v-9.3zm-51.2 50.3c-.7 0-1.2-.5-1.2-1.2v-59c0-.7.5-1.2 1.2-1.2h35.5v10.6c0 3.5 2.9 6.4 6.4 6.4h10.7v14.3c-1.7-.4-3.4-.6-5.1-.6-1.8 0-3.5.2-5.1.6 0-1.4-1.1-2.5-2.5-2.5h-28.6c-1.4 0-2.5 1.1-2.5 2.5s1.1 2.5 2.5 2.5h24.5c-3.6 2-6.6 5-8.7 8.5h-15.8c-1.4 0-2.5 1.1-2.5 2.5s1.1 2.5 2.5 2.5h13.6c-.7 2.2-1.1 4.6-1.1 7 0 2.4.4 4.8 1.1 7zm47.4 10.6c-9.7 0-17.6-7.9-17.6-17.6 0-9.7 7.9-17.6 17.6-17.6 9.7 0 17.6 7.9 17.6 17.6 0 9.7-7.9 17.6-17.6 17.6z"/><path d="M-336.1 291l-9.1 9.1-3.7-3.7c-1-1-2.6-1-3.5 0-.9 1-1 2.6 0 3.5l5.5 5.5c.5.5 1.1.7 1.8.7s1.3-.2 1.8-.7l10.9-10.9c1-1 1-2.6 0-3.5-1-.9-2.7-1-3.7 0z"/></g></svg>