<svg xmlns="http://www.w3.org/2000/svg" viewBox="0 0 84 84" class="svgo"><path d="M72.1 15.4c-1.6-.8-3.5-.7-5 .4-6.8 4.8-13.7 1.4-21.7-2.6s-16.9-8.5-26-3.4V6.1c0-1.7-1.3-3-3-3s-3 1.3-3 3V75h-3c-1.7 0-3 1.3-3 3s1.3 3 3 3h12.2c1.7 0 3-1.3 3-3s-1.3-3-3-3h-3.3V53.4c.5-.1 1.1-.4 1.6-.7 6.8-4.8 13.7-1.4 21.7 2.6C48.2 58.1 54 61 60.1 61c4.3 0 8.7-1.5 13.1-5.6.9-.9 1.5-2.2 1.5-3.5V19.7c0-1.8-1-3.4-2.6-4.3zm-3.4 36c-7 6.2-13.4 3.5-23.3-1.4-7.9-4-16.9-8.4-26-3.4V17.1c7-6.2 13.4-3.5 23.3 1.4 7.9 4 16.9 8.4 26 3.4v29.5z"/></svg>