<svg xmlns="http://www.w3.org/2000/svg" viewBox="0 0 84 84" class="svgo"><path d="M72.3 19.3H42.2c-.4 0-.7-.3-.7-.7 0-6.2-5-11.2-11.2-11.2H11.7C5.5 7.4.5 12.4.5 18.6v46.8c0 6.2 5 11.2 11.2 11.2h60.6c6.1 0 11.1-4.8 11.2-11.1v-35c0-6.2-5-11.2-11.2-11.2zm-65.8-.7c0-2.9 2.3-5.2 5.2-5.2h18.6c2.9 0 5.2 2.3 5.2 5.2 0 3.7 3 6.7 6.7 6.7h30.1c2.9 0 5.2 2.3 5.2 5.2v3.4H28.9c-6.1 0-12.2 4.7-13.8 10.8L8.5 69.5c-1.2-.9-1.9-2.4-1.9-4.1V18.6zm65.8 52H14.4l6.5-24.4c.9-3.4 4.6-6.4 8-6.4h48.6v25.6c-.1 2.9-2.3 5.2-5.2 5.2z"/></svg>