<svg xmlns="http://www.w3.org/2000/svg" viewBox="0 0 84 84" class="svgo"><path d="M37.5 8.3c0 4.2-3.4 7.6-7.6 7.6-4.2 0-7.5-3.4-7.5-7.6 0-4.2 3.4-7.6 7.6-7.6 4.2 0 7.5 3.4 7.5 7.6zM30 22.9c-4.2 0-7.6 3.4-7.6 7.6 0 4.2 3.4 7.5 7.6 7.5 4.2 0 7.6-3.4 7.6-7.6 0-4.2-3.5-7.5-7.6-7.5zm0 22.7c-4.2 0-7.6 3.4-7.6 7.6 0 4.2 3.4 7.5 7.6 7.5 4.2 0 7.6-3.4 7.6-7.6 0-4.2-3.5-7.5-7.6-7.5zM54 .7c-4.2 0-7.6 3.4-7.6 7.6 0 4.2 3.4 7.5 7.6 7.5 4.2 0 7.6-3.4 7.6-7.6C61.6 4 58.2.7 54 .7zm0 22.2c-4.2 0-7.6 3.4-7.6 7.6 0 4.2 3.4 7.5 7.6 7.5 4.2 0 7.6-3.4 7.6-7.6 0-4.2-3.4-7.5-7.6-7.5zm0 22.7c-4.2 0-7.6 3.4-7.6 7.6 0 4.2 3.4 7.5 7.6 7.5 4.2 0 7.6-3.4 7.6-7.6 0-4.2-3.4-7.5-7.6-7.5zM30 68.2c-4.2 0-7.6 3.4-7.6 7.6 0 4.2 3.4 7.5 7.6 7.5 4.2 0 7.6-3.4 7.6-7.6 0-4.2-3.5-7.5-7.6-7.5zm24 0c-4.2 0-7.6 3.4-7.6 7.6 0 4.2 3.4 7.5 7.6 7.5 4.2 0 7.6-3.4 7.6-7.6 0-4.2-3.4-7.5-7.6-7.5z"/></svg>