<svg xmlns="http://www.w3.org/2000/svg" viewBox="0 0 25 22"><path d="M12.504923 21.0417l-.3011-.0893c-.4516-.1786-11.8923-4.0774-11.8923-13.63097C.311523 3.06548 3.141593 0 7.085623 0c1.83654 0 4.1548 1.16071 5.4795 3.3631C13.919923 1.16071 16.328523 0 18.255323 0c3.7935 0 6.4731 3.00595 6.4731 7.32143 0 9.55357-11.4407 13.45237-11.9224 13.63097l-.3011.0893zM2.117953 7.32143c0 7.49997 8.70097 11.16067 10.38697 11.81547 1.7161-.6548 10.3869-4.3155 10.3869-11.81547.0302-2.55953-1.2042-5.53572-4.6365-5.53572-1.2645 0-3.6128.92262-4.6063 3.33334-.1807.47619-.6323.77381-1.1441.77381-.5118 0-.9634-.29762-1.1441-.77381-.9032-2.44048-3.07091-3.33334-4.2752-3.33334-3.25157 0-4.96767 2.76786-4.96767 5.53572z"/></svg>
