<svg xmlns="http://www.w3.org/2000/svg" viewBox="0 0 84 84" class="svgo"><g transform="translate(-13.3 23.9)"><path d="M55.3-23.8C32.2-23.8 13.4-5 13.4 18.1 13.4 41.2 32.2 60 55.3 60c23.1 0 41.9-18.8 41.9-41.9 0-23.1-18.8-41.9-41.9-41.9zm0 77.8c-19.8 0-35.9-16.1-35.9-35.9 0-19.8 16.1-35.9 35.9-35.9 19.8 0 35.9 16.1 35.9 35.9C91.2 37.9 75.1 54 55.3 54z"/><path d="M55.3-4.8c-3.9 0-7 1.1-9.5 3.2-1.5 1.3-2.5 2.8-3.1 4.6-.6 1.8.8 3.7 2.7 3.7 1.3 0 2.5-.8 2.9-2 .3-1 .9-1.9 1.7-2.6C51.3.9 53.1.4 55.3.4c2.2 0 3.9.6 5.1 1.9 1.2 1.3 1.8 3 1.8 5.3s-.9 4.5-2.7 6.5l-4.2 4.3c-1.6 1.8-2.7 3.4-3.3 4.9-.3.7-.5 1.6-.6 2.6-.3 1.8 1.1 3.4 2.9 3.4 1.5 0 2.7-1.1 2.9-2.6.3-2 1-3.6 2.2-4.9l3.5-3.5c3.5-3.6 5.2-7.3 5.2-11 0-3.8-1.1-6.7-3.4-8.9-2.3-2.1-5.4-3.2-9.4-3.2z"/><circle cx="54.4" cy="37.4" r="3.5"/></g></svg>