<svg xmlns="http://www.w3.org/2000/svg" viewBox="0 0 84 84" class="svgo"><path d="M43 5.5c-9.5 0-18.7 3.8-25.5 10.4l-6.4-5.4c-1.7-1.4-4.3-.3-4.4 1.9l-.9 19.7c-.1 1.8 1.5 3.1 3.2 2.8l19.2-4.1c2.2-.5 2.9-3.2 1.2-4.7l-7.3-6.2c5.7-5.4 13-8.3 20.9-8.3 16.8 0 30.5 13.7 30.5 30.5S59.8 72.5 43 72.5c-9 0-17.4-3.9-23.3-10.8-1.1-1.3-3-1.4-4.2-.3-1.3 1.1-1.4 3-.3 4.2 7 8.2 17.1 12.9 27.8 12.9 20.1 0 36.5-16.4 36.5-36.5S63.1 5.5 43 5.5z"/><path d="M31.8 57.5c.6 0 1.3-.2 1.8-.6l12.3-9.1c.1 0 .1-.1.1-.1.1-.1.2-.1.2-.2l.2-.2c.1-.1.1-.2.2-.2.1-.1.1-.2.1-.3 0-.1.1-.2.1-.3 0-.1.1-.2.1-.3 0-.1.1-.2.1-.3v-.3-22.4c0-1.7-1.3-3-3-3s-3 1.3-3 3v20.6l-11 8.3c-1.3 1-1.6 2.9-.6 4.2.6.7 1.5 1.2 2.4 1.2z"/></svg>