<svg xmlns="http://www.w3.org/2000/svg" viewBox="0 0 84 84" class="svgo"><path d="M82.684 37.813l-35.3-31.2c-3.1-2.7-7.7-2.7-10.7 0l-35.4 31.5c-1.2 1.1-1.3 3-.2 4.2.6.7 1.4 1 2.2 1 .7 0 1.4-.3 2-.8l3.5-3.1v31.4c0 4.7 3.8 8.6 8.6 8.6h49.4c4.7 0 8.6-3.8 8.6-8.6v-31.6l3.5 3.1c1.2 1.1 3.1 1 4.2-.3.9-1.2.8-3.1-.4-4.2zm-33.1 35.6h-15.3v-25.1c0-1 .9-1.9 1.9-1.9h11.5c1 0 1.9.9 1.9 1.9zm19.6-39.4v36.8c0 1.4-1.2 2.6-2.6 2.6h-11v-25.1c0-4.4-3.5-7.9-7.9-7.9h-11.5c-4.4 0-7.9 3.5-7.9 7.9v25.1h-11c-1.4 0-2.6-1.2-2.6-2.6v-36.7l25.9-23.1c.8-.7 2-.7 2.8 0l25.8 23z"/></svg>