<svg xmlns="http://www.w3.org/2000/svg" viewBox="0 0 84 84" class="svgo"><path d="M74 9.4H10c-5.5 0-10 4.5-10 10v45.2c0 5.5 4.5 10 10 10h64c5.5 0 10-4.5 10-10V19.4c0-5.5-4.5-10-10-10zm-68 10c0-2.2 1.8-4 4-4h64c2.2 0 4 1.8 4 4v27L67.2 35.5c-1.2-1.2-3.1-1.2-4.2 0L50.1 48.4 38.6 36.8c-1.2-1.2-3.1-1.2-4.2 0L6 65.1V19.4zm55.9 49.2H11l25.4-25.4 25.5 25.4zm12.1 0h-3.6l-16-16L65 41.9l12.3 12.3c.2.2.4.4.7.6v9.8c0 2.2-1.8 4-4 4zM20.1 36.5c4.5 0 8.1-3.6 8.1-8.1s-3.6-8.1-8.1-8.1-8.1 3.6-8.1 8.1 3.6 8.1 8.1 8.1zm0-12.2c2.3 0 4.1 1.8 4.1 4.1s-1.8 4.1-4.1 4.1-4.1-1.8-4.1-4.1 1.8-4.1 4.1-4.1z"/></svg>