<svg xmlns="http://www.w3.org/2000/svg" viewBox="0 0 84 84" class="svgo"><path d="M42 .1C18.9.1.1 18.9.1 42 .1 65.1 18.9 83.9 42 83.9c23.1 0 41.9-18.8 41.9-41.9C83.9 18.9 65.1.1 42 .1zm0 77.8C22.2 77.9 6.1 61.8 6.1 42 6.1 22.2 22.2 6.1 42 6.1c19.8 0 35.9 16.1 35.9 35.9 0 19.8-16.1 35.9-35.9 35.9zm11.5-54.5c-.2 2.9-2.8 5.3-5.7 5.3-2.9 0-5-2.4-4.8-5.3.2-2.9 2.8-5.3 5.7-5.3 2.9 0 5 2.4 4.8 5.3zM42.4 55.3c-.2.7-.8 1.9.7 1.3 2.1-.9 4.4 0 5.1 1.9.7 2-.4 4.4-2.5 5.3-2.4 1.1-5.1 2.1-7.4 2.1-1.3 0-2.6-.4-3.6-1.3-2.7-2.4-1.4-6.4-.8-8.4.6-1.8 1.5-4.4 2.4-7.2 1-3 1.7-5.1 2.6-8 .7-1.7-.2-1-.5-.8-2 1.1-4.4.5-5.4-1.4-.9-1.9-.1-4.4 1.9-5.5 3.6-2.1 8.7-4.1 11.7-1.7.8.6 2.6 2.6 1.4 6.5-1.2 3.6-2.8 8.5-4.2 12.8-.5 1.6-1 3.1-1.4 4.4z"/></svg>