<svg xmlns="http://www.w3.org/2000/svg" viewBox="0 0 84 84" class="svgo"><path d="M60.1 11.6c-.3 4.7-4.6 8.7-9.3 8.7s-8.2-3.9-7.9-8.7 4.6-8.7 9.3-8.7 8.3 3.9 7.9 8.7zM42 63.8c-.3 1.1-1.3 3.1 1.1 2.1 3.4-1.5 7.2 0 8.3 3.1 1.1 3.3-.7 7.2-4.1 8.7-3.9 1.8-8.3 3.4-12.1 3.4-2.1 0-4.3-.7-5.9-2.1-4.4-3.9-2.3-10.5-1.3-13.8 1-2.9 2.5-7.2 3.9-11.8 1.6-4.9 2.8-8.3 4.3-13.1 1.1-2.8-.3-1.6-.8-1.3-3.3 1.8-7.2.8-8.8-2.3-1.5-3.1-.2-7.2 3.1-9 5.9-3.4 14.2-6.7 19.2-2.8 1.3 1 4.3 4.3 2.3 10.6-2 5.9-4.6 13.9-6.9 21-.9 2.7-1.7 5.1-2.3 7.3z"/></svg>