<svg xmlns="http://www.w3.org/2000/svg" viewBox="-597 319 84 84" class="svgo"><circle cx="-543" cy="332.9" r="3"/><circle cx="-535" cy="332.9" r="3"/><circle cx="-527" cy="332.9" r="3"/><path d="M-525.9 322h-58.3c-5.4 0-9.9 4.4-9.9 9.9v58.3c0 5.4 4.4 9.9 9.9 9.9h58.3c5.4 0 9.9-4.4 9.9-9.9v-58.3c0-5.5-4.4-9.9-9.9-9.9zm-58.2 6h58.3c2.1 0 3.9 1.7 3.9 3.9v6h-66v-6c-.1-2.2 1.6-3.9 3.8-3.9zm58.2 66h-58.3c-2.1 0-3.9-1.7-3.9-3.9v-46.3h66v46.3c.1 2.2-1.6 3.9-3.8 3.9z"/><path d="M-532.5 348.4h-45c-3 0-5.5 2.5-5.5 5.5v9c0 3 2.5 5.5 5.5 5.5h45c3 0 5.5-2.5 5.5-5.5v-9c0-3-2.5-5.5-5.5-5.5zm-.5 14h-44v-8h44v8zM-530.7 381.8H-580c-1.7 0-3 1.3-3 3s1.3 3 3 3h49.3c1.7 0 3-1.3 3-3s-1.3-3-3-3zM-530.7 371.8H-580c-1.7 0-3 1.3-3 3s1.3 3 3 3h49.3c1.7 0 3-1.3 3-3s-1.3-3-3-3z"/></svg>