<svg xmlns="http://www.w3.org/2000/svg" viewBox="0 0 84 84" class="svgo"><path d="M76.4 9.3L43.9.3c-1.3-.4-2.7-.4-3.9 0l-32.5 9c-3.2.9-5.4 3.8-5.4 7.1v28.4c0 17.3 14.5 32.6 36.9 38.9.8.2 2 .3 3.1.3 1 0 2-.1 2.5-.2 22.3-5.9 37.3-21.6 37.3-39.1V16.3c-.1-3.1-2.3-6.1-5.5-7zM38.7 25.5h6.1l5 32.4-8.2 3.8-7.4-3.9zm2.9-19.4c.1 0 .2-.1.4-.1.1 0 .2 0 .4.1l5.9 1.6-4.5 11.7h-4.5L34.9 7.9zm34.2 38.7C75.8 59.5 62.6 72.9 43 78c-.5.1-2 .1-2.5-.1C20.8 72.3 8 59.3 8 44.7V16.3c0-.6.4-1.2 1-1.3l20-5.5 4.8 12.3c-.5.7-.9 1.5-1 2.4l-4.7 33.2c-.3 2.2.9 4.4 2.9 5.5l8 4.2c.8.4 1.6.6 2.5.6.8 0 1.5-.2 2.2-.5l8.9-4.1c2.2-1 3.4-3.3 3.1-5.6l-5.1-33.3c-.1-1-.6-2-1.2-2.7l4.6-12 20.8 5.8c.6.2 1 .7 1 1.3z"/></svg>