<svg xmlns="http://www.w3.org/2000/svg" viewBox="0 0 84 84" class="svgo"><path d="M66.9 34.5V20.6C66.9 9.5 57.8.4 46.7.4h-9.6C26 .4 16.9 9.5 16.9 20.6v13.9c-5.8.4-10.4 5.2-10.4 11.1v26.8c0 6.1 5 11.2 11.2 11.2h48.6c6.1 0 11.2-5 11.2-11.2V45.6c-.2-5.9-4.8-10.7-10.6-11.1zM37.1 6.4h9.6c7.8 0 14.2 6.4 14.2 14.2v13.9h-5.2v-13c0-5.2-4.2-9.5-9.5-9.5h-8.6c-5.2 0-9.5 4.2-9.5 9.5v13h-5.2V20.6c0-7.8 6.4-14.2 14.2-14.2zm12.6 28.1H34.2v-13c0-1.9 1.6-3.5 3.5-3.5h8.6c1.9 0 3.5 1.6 3.5 3.5v13zm21.6 37.9c0 2.8-2.3 5.2-5.2 5.2H17.5c-2.8 0-5.2-2.3-5.2-5.2V45.6c0-2.8 2.3-5.2 5.2-5.2h48.6c2.8 0 5.2 2.3 5.2 5.2z"/></svg>