<svg xmlns="http://www.w3.org/2000/svg" viewBox="0 0 84 84" class="svgo"><path d="M48.5 25.1c3.8-2.3 6.4-6.4 6.4-11.2 0-7.2-5.8-13-13-13s-13 5.8-13 13c0 4.8 2.6 8.9 6.4 11.2C29 25.5 24 30.9 24 37.5v14.3c0 4.3 2.3 8.4 6 10.6v12.1c0 5.3 4.2 9.6 9.4 9.6h4.9c5.3 0 9.7-4.3 9.7-9.6V62.3c3.7-2.2 6-6.3 6-10.6V37.5c0-6.5-5.1-11.9-11.5-12.4zM42 6.9c3.9 0 7 3.1 7 7s-3.1 7-7 7-7-3.1-7-7 3.1-7 7-7zm12 44.8c0 2.6-1.7 5-4.1 6l-.3.1c-1 .5-1.6 1.5-1.6 2.6v14c0 1.9-1.7 3.6-3.7 3.6h-4.9c-1.9 0-3.4-1.6-3.4-3.6v-14c0-1.2-.7-2.3-1.8-2.7l-.1-.1c-2.5-1-4.1-3.4-4.1-6V37.5c0-3.6 2.8-6.5 6.3-6.5h11.1c3.6 0 6.6 3 6.6 6.5v14.2z"/></svg>