<svg xmlns="http://www.w3.org/2000/svg" viewBox="0 0 84 84" class="svgo"><path d="M82.4 18.8L78.7 11c-1.1-2.3-3.6-4-6-4H10.3c-2.5 0-5 1.7-6 4.1l-3 7.9c-1.2 3.1-1 6.2.7 8.7 1.4 2.1 3.7 3.5 6.4 4.1v35C8.4 72.4 13 77 18.6 77h45.8c5.6 0 10.2-4.6 10.2-10.2V32c3.4-.4 6.1-1.9 7.6-4.3 1.6-2.6 1.7-5.7.2-8.9zM33.1 13h17.1l1.4 7.6c.2 1.2-.1 2.3-.8 3.2-1.2 1.4-3.4 2.3-5.8 2.3h-5.2c-2.5 0-4.9-.9-6.2-2.4-.6-.7-1.3-1.8-1.1-3.3zM6.9 24.3c-.6-.8-.6-1.9-.1-3.1l3.1-7.8.4-.4H27l-.7 6.7c-.4 3.5-4.6 6.4-9.3 6.4h-5.2c-2.3 0-4.1-.7-4.9-1.8zM49.8 71H33.2V49.3c0-1.8 1.4-3.2 3.2-3.2h10.2c1.8 0 3.2 1.4 3.2 3.2V71zm14.6 0h-9.5V49.3c0-4.5-3.7-8.2-8.2-8.2H36.4c-4.5 0-8.2 3.7-8.2 8.2V71h-9.5c-2.3 0-4.2-1.9-4.2-4.2V32.1h2.6c4.6 0 8.8-1.9 11.7-4.7.1.1.2.2.2.3 2.5 2.8 6.4 4.4 10.7 4.4h5.2c4.3 0 8.1-1.6 10.5-4.4l.2-.2c3 2.8 7.4 4.6 12 4.6h1.2v34.6c-.2 2.4-2.1 4.3-4.4 4.3zm12.8-46.5c-.7 1-2.3 1.7-4.5 1.7h-5.2c-4.7 0-9.4-3.1-10-6.6L56.2 13h16.3c.2 0 .6.3.7.6l3.7 7.8c.5.8.9 2.1.3 3.1z"/></svg>