<svg xmlns="http://www.w3.org/2000/svg" viewBox="0 0 84 84" class="svgo"><circle cx="42.3" cy="31.2" r="7.7"/><path d="M75.7 67.3L64.6 48c3.5-4.7 5.6-10.5 5.6-16.8 0-15.4-12.5-27.9-27.9-27.9-15.4 0-27.9 12.5-27.9 27.9 0 6.3 2.1 12.1 5.6 16.8L8.8 67.3c-.4.7-.4 1.5.1 2.1.4.6 1.2 1 1.9.9l11.6-1.5 4.3 10.7c.3.7 1 1.2 1.7 1.2h.1c.7 0 1.4-.4 1.7-1l11.9-20.6h.2l11.9 20.6c.4.6 1 1 1.7 1h.1c.8-.1 1.4-.5 1.7-1.2L62 68.8l11.6 1.5c.8.1 1.5-.2 1.9-.9.6-.6.6-1.4.2-2.1zm-33.4-58c12.1 0 21.9 9.8 21.9 21.9s-9.8 21.9-21.9 21.9c-12.1 0-21.9-9.8-21.9-21.9S30.2 9.3 42.3 9.3zM28.9 74.2l-3.4-8.3c-.3-.8-1.2-1.3-2.1-1.2l-9.1 1.2 8.5-14.7c4 3.9 9.2 6.7 15 7.6l-8.9 15.4zm32.2-9.5c-.9-.1-1.8.4-2.1 1.2l-3.4 8.3-8.9-15.4c5.8-.9 11-3.7 15-7.6l8.5 14.7-9.1-1.2z"/></svg>