<svg xmlns="http://www.w3.org/2000/svg" viewBox="0 0 84 84" class="svgo"><g transform="translate(400.95 -239)"><path d="M-343.8 239h-30.4c-6.1 0-11.1 5-11.1 11.1v61.8c0 6.1 5 11.1 11.1 11.1h30.5c6.1 0 11.1-5 11.1-11.1v-61.8c0-6.2-5-11.1-11.2-11.1zm-30.4 6h30.5c2.8 0 5.1 2.3 5.1 5.1v4.9h-40.8v-4.9c0-2.9 2.3-5.1 5.2-5.1zm35.6 15v37.5h-40.8V260h40.8zm-5.2 56.9h-30.4c-2.8 0-5.1-2.3-5.1-5.1v-9.4h40.7v9.4c0 2.9-2.3 5.1-5.2 5.1z"/><path d="M-354 307.4h-10c-1.4 0-2.5 1.1-2.5 2.5s1.1 2.5 2.5 2.5h10c1.4 0 2.5-1.1 2.5-2.5s-1.1-2.5-2.5-2.5z"/></g></svg>