<svg xmlns="http://www.w3.org/2000/svg" viewBox="0 0 84 84" class="svgo"><path d="M81.7 43.24c1.3-.5 1.9-2 1.3-3.3-.5-1.3-2-1.8-3.3-1.3l-12.4 5.5v-7.8l14.4-6.3c1.4-.6 2.3-1.9 2.3-3.4.1-1.5-.7-2.9-1.9-3.5l-26.9-16c-1-.6-2.2-.6-3.3-.2l-18.5 7.3c-.2.1-.4.1-.6.3L2.5 26.24c-1.4.5-2.4 1.8-2.5 3.3-.1 1.5.6 2.9 1.9 3.7l29 17.2c.6.4 1.3.5 2 .5.5 0 1-.1 1.5-.3l12.2-5.4v7.8L33 58.94 4.4 42.14c-1.2-.7-2.7-.3-3.4.9-.7 1.2-.3 2.7.9 3.4l29 17.2c.6.4 1.3.5 2 .5.5 0 1-.1 1.5-.3l12.1-5.3v7.8l-13.6 5.9-28.5-16.9c-1.2-.7-2.7-.3-3.4.9-.7 1.2-.3 2.7.9 3.4l29 17.2c.6.4 1.3.5 2 .5.5 0 1-.1 1.5-.3l47.2-20.6c1.3-.5 1.9-2 1.3-3.3-.5-1.3-2-1.8-3.3-1.3l-12.4 5.5v-7.8zm-28.5-31.4l24.5 14.5-12.4 5.5-25.4-14.8zM33 45.74L6.4 30.04l11-4.1c.1.1.2.2.3.2l26.1 14.9zm19.6 18v-23c0-1.1-.6-2.1-1.5-2.6l-26.6-15 8.3-3.3 28.5 16.6v23.6z"/></svg>