<svg xmlns="http://www.w3.org/2000/svg" viewBox="0 0 84 84" class="svgo"><path d="M81.6 39.5c-.8-.6-1.9-.7-2.8-.3L67 43.8v-5c0-5.3-3.7-9.8-8.7-11.1 2.2-2.7 3.5-6.1 3.5-9.8 0-8.5-6.9-15.4-15.4-15.4-5.1 0-9.6 2.5-12.4 6.3-2.8-3.8-7.3-6.3-12.4-6.3C13 2.6 6.1 9.5 6.1 18c0 3.7 1.3 7.1 3.5 9.8C4.6 29 .9 33.5.9 38.9V70c0 6.3 5.1 11.4 11.4 11.4h43.2c6.3 0 11.4-5.1 11.4-11.4v-5l11.8 4.6c.4.1.7.2 1.1.2.6 0 1.2-.2 1.7-.5.8-.6 1.3-1.5 1.3-2.5V42c.1-1-.4-1.9-1.2-2.5zM46.3 8.6c5.2 0 9.4 4.2 9.4 9.4s-4.2 9.4-9.4 9.4-9.4-4.2-9.4-9.4 4.3-9.4 9.4-9.4zm-24.8 0c5.2 0 9.4 4.2 9.4 9.4s-4.2 9.4-9.4 9.4-9.4-4.2-9.4-9.4 4.2-9.4 9.4-9.4zM60.9 70c0 3-2.4 5.4-5.4 5.4H12.3c-3 0-5.4-2.4-5.4-5.4V38.8c0-3 2.4-5.4 5.4-5.4h43.2c3 0 5.4 2.4 5.4 5.4V70zm16-7.6L67 58.5v-8.3l9.9-3.9v16.1z"/><path d="M44.2 42.4H23.6c-3.1 0-5.7 2.6-5.7 5.7v12.6c0 3.1 2.6 5.7 5.7 5.7h20.6c3.1 0 5.7-2.6 5.7-5.7V48.1c0-3.1-2.5-5.7-5.7-5.7zm1.7 18.3c0 .9-.8 1.7-1.7 1.7H23.6c-.9 0-1.7-.8-1.7-1.7V48.1c0-.9.8-1.7 1.7-1.7h20.6c.9 0 1.7.8 1.7 1.7v12.6z"/></svg>