<svg xmlns="http://www.w3.org/2000/svg" viewBox="0 0 84 84" class="svgo"><path d="M39.166 82.8c-8.7 0-17.5-3.4-24.5-9.6-8.9-7.9-14-19-14-30.5 0-22.9 18.6-41.5 41.5-41.5 12.4 0 25.3 6.3 33.4 16.4 6.5 8 9 17.2 7.2 25.8-1.7 8-9.5 8.9-15.8 9.7-4.2.5-8.6 1-11 3.3-2.3 2.2-2.7 6.7-3.1 10.9-.6 6.4-1.3 14.3-9.6 15.3-1.3.1-2.7.2-4.1.2zm3-75.7c-19.6 0-35.5 16-35.5 35.5 0 9.8 4.4 19.3 12 26 6.9 6.1 15.6 9 23.9 7.9 3-.4 3.7-2.7 4.3-9.9.5-5.1 1-10.9 4.9-14.7 3.8-3.8 9.5-4.4 14.5-5 6.8-.8 9.9-1.5 10.6-4.9 1.4-6.8-.7-14.2-6-20.7-7-8.8-18.1-14.2-28.7-14.2zm-9.2 22c-4.1 0-7.5-3.4-7.5-7.5s3.4-7.5 7.5-7.5 7.5 3.4 7.5 7.5-3.4 7.5-7.5 7.5zm0-10c-1.4 0-2.5 1.1-2.5 2.5s1.1 2.5 2.5 2.5 2.5-1.1 2.5-2.5-1.2-2.5-2.5-2.5zM20.066 46c-4.1 0-7.5-3.4-7.5-7.5s3.4-7.5 7.5-7.5 7.5 3.4 7.5 7.5c0 4.2-3.4 7.5-7.5 7.5zm0-10c-1.4 0-2.5 1.1-2.5 2.5s1.1 2.5 2.5 2.5 2.5-1.1 2.5-2.5-1.1-2.5-2.5-2.5zm34-4.1c-4.1 0-7.5-3.4-7.5-7.5s3.4-7.5 7.5-7.5 7.5 3.4 7.5 7.5-3.4 7.5-7.5 7.5zm0-10c-1.4 0-2.5 1.1-2.5 2.5s1.1 2.5 2.5 2.5 2.5-1.1 2.5-2.5-1.1-2.5-2.5-2.5zm-25.7 43.4c-4.1 0-7.5-3.4-7.5-7.5s3.4-7.5 7.5-7.5 7.5 3.4 7.5 7.5-3.3 7.5-7.5 7.5zm0-10c-1.4 0-2.5 1.1-2.5 2.5s1.1 2.5 2.5 2.5 2.5-1.1 2.5-2.5-1.1-2.5-2.5-2.5z"/></svg>