<svg xmlns="http://www.w3.org/2000/svg" viewBox="0 0 84 84" class="svgo"><path d="M77.723 10.65l-4.4-4.4c-2-2.1-4.9-3.2-7.8-3.2-2.9 0-5.7 1.1-7.8 3.2l-46.9 46.7c-1 1-1.9 2.3-2.6 3.9l-4.8 13.5c-1 2.9-.3 6.1 1.9 8.3 1.4 1.5 3.5 2.3 5.6 2.3.8 0 1.4-.1 1.9-.2l13.5-4.7h.2l.5-.2c1.4-.5 2.8-1.4 3.9-2.5l46.8-46.8c4.4-4.5 4.4-11.5 0-15.9zm-50.8 58.6c-.4.3-.9.7-1.4.9l-13.6 4.8h-.1c-.3 0-.7.1-.8.1-.5 0-1.1-.3-1.4-.6-.8-.7-.7-1.5-.5-2.1l4.6-13.2c.4-.9.9-1.5 1.4-1.8l.1-.1 11.8 11.9zm46.7-46.7l-42.3 42.3-11.8-11.8 42.5-42.4c.9-1 2.2-1.5 3.6-1.5s2.7.6 3.6 1.5l4.4 4.4c2.1 2.1 2.1 5.3 0 7.5z"/></svg>