<svg xmlns="http://www.w3.org/2000/svg" viewBox="0 0 84 84" class="svgo"><g transform="translate(401.012 -239.05)"><path d="M-323.6 249.2l-3.4-3.4c-2.4-2.4-6.4-2.4-8.8 0l-36 35.9c-.6.6-1.1 1.4-1.5 2.3l-3.6 10.2c-.5 1.4-.2 2.9.9 4 .7.7 1.7 1.1 2.7 1.1.4 0 .8-.1 1.3-.2l10.2-3.6h.1c.8-.3 1.6-.8 2.2-1.4l35.9-35.9c2.5-2.6 2.5-6.5 0-9zm-4.2 4.6l-35.9 35.9s-.1 0-.1.1l-5.8 2 2.1-5.8s0-.1.1-.1l35.8-35.9s.1-.1.2-.1.1 0 .2.1l3.4 3.4c.1.2.1.3 0 .4z"/><path d="M-334.2 282.3c-1.7 0-3 1.3-3 3v23c0 2.1-1.7 3.8-3.8 3.8h-45.5c-2.1 0-3.8-1.7-3.8-3.8v-45.5c0-2.1 1.7-3.8 3.8-3.8h23.7c1.7 0 3-1.3 3-3s-1.3-3-3-3h-23.7c-5.4 0-9.8 4.4-9.8 9.8v45.5c0 5.4 4.4 9.8 9.8 9.8h45.5c5.4 0 9.8-4.4 9.8-9.8v-23c0-1.7-1.4-3-3-3z"/></g></svg>