<svg xmlns="http://www.w3.org/2000/svg" viewBox="0 0 84 84" class="svgo"><path d="M61.7 83c-4.8 0-9-1.6-13.1-3.1-.7-.3-1.4-.5-2-.8-3.7-1.3-7-2.9-10-4.7C27 68.5 15.7 57.1 9.7 47.5c-1.8-3-3.4-6.3-4.8-10-.2-.7-.5-1.4-.8-2C2.6 31.3 1 27.1 1 22.3c0-3.9 1-7.6 3.1-11.5 1.4-2.5 3.5-6.3 7.2-7.9C13.5 1.9 17.6 1 20 1c.5 0 1.3 0 2.2.4 2 .7 3.2 2.9 4.3 5.2l.1.3c.6 1 1.1 2 1.7 3 1.1 2 2.3 4.1 3.4 6.1l.6.9c1 1.4 2.3 3.2 2.3 5.4 0 3.1-3 5.6-6.2 8.2-1.1.9-2.9 2.3-3.5 3.1.2.6.8 1.6 1.1 2.1.2.3.3.5.5.8 5.2 9.4 11.6 15.8 20.9 21 .3.2.6.3.8.5.5.3 1.5.9 2.1 1.1.8-.6 2.2-2.4 3.1-3.5 2.6-3.2 5-6.2 8.2-6.2 2.2 0 4 1.3 5.4 2.3.3.2.6.5.9.6 1.9 1.1 4 2.3 6 3.4 1 .6 2 1.1 3.1 1.7l.3.1c2.3 1.1 4.5 2.3 5.2 4.3.5.9.5 1.7.5 2.2 0 2.3-.9 6.5-1.9 8.7-1.6 3.6-5.4 5.7-7.9 7.1C69.3 82 65.6 83 61.7 83zM20.8 8.6c-.5-1-1.6-1.6-2.7-1.4-1.5.3-3.4.8-4.4 1.2-1.8.8-3.3 3.5-4.3 5.3-1.6 3-2.4 5.7-2.4 8.6 0 3.7 1.3 7.3 2.8 11 .3.7.5 1.4.8 2.1 1.2 3.4 2.6 6.3 4.2 8.9 5.4 8.8 16.1 19.5 24.9 24.9 2.6 1.6 5.5 3 8.9 4.2.7.3 1.4.5 2.1.8 3.8 1.4 7.3 2.8 11 2.8 2.9 0 5.6-.8 8.6-2.4 1.8-1 4.5-2.5 5.3-4.3v-.1c.4-1 .9-2.8 1.2-4.4.2-1.1-.4-2.2-1.4-2.7-.3-.1-.5-.2-.6-.3l-.5-.3c-1-.6-2.1-1.1-3.1-1.7-2-1.1-4.1-2.3-6.2-3.5-.5-.3-.9-.6-1.3-.9-1.1-.8-2.5-.6-3.4.4-.7.8-1.5 1.7-2.1 2.4-2.5 3.1-4.7 5.8-7.5 5.8-2.1 0-4-1.2-5.5-2.1-.2-.1-.5-.3-.7-.4C34.2 56.8 27 49.6 21.3 39.3c-.1-.2-.2-.4-.4-.6-.9-1.5-2.1-3.4-2.1-5.5 0-2.8 2.7-5 5.8-7.5.7-.6 1.6-1.3 2.4-2.1 1-.9 1.1-2.3.4-3.4-.3-.4-.6-.9-.9-1.3-1.2-2.1-2.4-4.2-3.5-6.3-.6-1-1.1-2.1-1.7-3.1L21 9c0 .1-.1-.2-.2-.4z"/></svg>