<svg xmlns="http://www.w3.org/2000/svg" viewBox="0 0 84 84" class="svgo"><path d="M41.916 83.25c-1.5 0-2.9-.5-4.1-1.4-6.8-5.2-29-21.3-29-47.9 0-18.2 14.8-33.1 33-33.2 9.1 0 17.7 3.6 24 10.4 6.5 7 9.9 16.5 9.3 26.1-1.7 24.2-20.8 38.4-29 44.6-1.3.9-2.7 1.4-4.2 1.4zm0-76.5h-.2c-14.9.1-27 12.3-27 27.2 0 23.8 20.4 38.3 26.7 43.1.3.2.7.2.9 0 5.9-4.5 25.1-17.8 26.6-40.2.5-8-2.2-15.8-7.7-21.6-5-5.5-11.9-8.5-19.3-8.5zm0 40.2c-7.2 0-13-5.8-13-13s5.8-13 13-13 13 5.8 13 13-5.8 13-13 13zm0-20c-3.9 0-7 3.1-7 7s3.1 7 7 7 7-3.1 7-7-3.1-7-7-7z"/></svg>