<svg xmlns="http://www.w3.org/2000/svg" viewBox="0 0 84 84" class="svgo"><path d="M73.6 16.95v-8.3c0-3.9-3.1-7-7-7H17.4c-3.9 0-7 3.1-7 7v8.3c-5.8.1-9.5 4.8-9.5 10.6v18.2c0 5.8 4.7 10.6 10.6 10.6H14v19.8c0 3.4 2.8 6.2 6.2 6.2h31.1c1.7 0 3.2-.6 4.4-1.8l12.5-12.4c1.2-1.2 1.8-2.7 1.8-4.4v-7.3h2.5c5.8 0 10.6-4.7 10.6-10.6v-18.3c0-5.8-3.7-10.5-9.5-10.6zm-56.2-9.3h49.2c.5 0 1 .5 1 1v8.3H16.4v-8.3c0-.5.5-1 1-1zm2.6 68.5v-31.3h44v15.3H54.3c-4.3 0-7.8 3.5-7.8 7.8v8.5H20.3c-.2-.1-.3-.2-.3-.3zm32.4-.8v-7.5c0-1 .8-1.8 1.8-1.8h7.5zm24.7-29.6c0 2.5-2.1 4.6-4.6 4.6H70v-8.6c0-1.7-1.3-3-3-3H17c-1.7 0-3 1.3-3 3v8.6h-2.5c-2.5 0-4.6-2.1-4.6-4.6v-18.2c0-2.5 1.1-4.6 3.6-4.6h63c2.5 0 3.6 2.1 3.6 4.6z"/></svg>