<svg xmlns="http://www.w3.org/2000/svg" viewBox="0 0 84 84" class="svgo"><g transform="translate(400.9 -239)"><path d="M-331.4 239.6h-55c-7.7 0-13.9 6.2-13.9 13.9v55c0 7.7 6.2 13.9 13.9 13.9h55c7.7 0 13.9-6.2 13.9-13.9v-55c0-7.7-6.3-13.9-13.9-13.9zm7.9 68.9c0 4.3-3.5 7.9-7.9 7.9h-55c-4.3 0-7.9-3.5-7.9-7.9v-55c0-4.3 3.5-7.9 7.9-7.9h55c4.3 0 7.9 3.5 7.9 7.9v55z"/><path d="M-346.4 278.1c1.3-2.2 2.1-4.8 2.1-7.6v-2c0-8-6.5-14.6-14.6-14.6s-14.6 6.6-14.6 14.7v2c0 2.8.8 5.4 2.1 7.6-6.7 2.9-11.3 9.7-11.3 17.3v4.6c0 4.5 3.7 8.2 8.2 8.2h31.2c4.5 0 8.2-3.7 8.2-8.2v-4.6c0-7.7-4.6-14.4-11.3-17.4zm-21.1-9.5c0-4.7 3.9-8.6 8.6-8.6s8.6 3.9 8.6 8.6v2c0 4.7-3.9 8.6-8.6 8.6s-8.6-3.9-8.6-8.6v-2zm26.4 31.4c0 1.2-1 2.2-2.2 2.2h-31.2c-1.2 0-2.2-1-2.2-2.2v-4.6c0-6 4.2-11.2 10-12.5 2.3 1.4 4.9 2.3 7.8 2.3s5.5-.8 7.8-2.3c5.8 1.3 10 6.5 10 12.5v4.6z"/></g></svg>