<svg xmlns="http://www.w3.org/2000/svg" viewBox="0 0 84 84" class="svgo"><path d="M55.5 34.8H28.3c-1.4 0-2.5 1.1-2.5 2.5s1.1 2.5 2.5 2.5h27.2c1.4 0 2.5-1.1 2.5-2.5s-1.1-2.5-2.5-2.5zM55.5 48.4H28.3c-1.4 0-2.5 1.1-2.5 2.5s1.1 2.5 2.5 2.5h27.2c1.4 0 2.5-1.1 2.5-2.5s-1.1-2.5-2.5-2.5zM55.5 21.2H28.3c-1.4 0-2.5 1.1-2.5 2.5s1.1 2.5 2.5 2.5h27.2c1.4 0 2.5-1.1 2.5-2.5s-1.1-2.5-2.5-2.5z"/><path d="M64.6 6.7H19.5c-5.3 0-9.7 4.3-9.7 9.7v53.9c0 2 1.2 3.8 3.2 4.5 1.9.7 4 .2 5.3-1.4l4.2-4.9 6 7c.9 1.1 2.3 1.7 3.7 1.7 1.4 0 2.7-.6 3.7-1.7l6.1-7 6.2 7.2c.9 1.1 2.3 1.7 3.7 1.7 1.4 0 2.7-.6 3.7-1.7l6.1-7.1 4.1 4.8c1.3 1.5 3.4 2.1 5.3 1.4 1.9-.7 3.2-2.5 3.2-4.5V16.4c-.1-5.4-4.4-9.7-9.7-9.7zm3.6 60.4l-3-3.4a4.6 4.6 0 0 0-3.6-1.7c-1.4 0-2.7.6-3.7 1.7l-6.1 7.1-6.2-7.2c-.9-1.1-2.3-1.7-3.7-1.7-1.4 0-2.7.6-3.7 1.7l-6.1 7-6-7c-.9-1.1-2.3-1.7-3.7-1.7-1.4 0-2.7.6-3.7 1.7l-3.1 3.6V16.3c0-2 1.6-3.7 3.7-3.7h45.1c2 0 3.7 1.6 3.7 3.7l.1 50.8z"/></svg>