<svg xmlns="http://www.w3.org/2000/svg" viewBox="0 0 84 84" class="svgo"><path d="M26.6 32.2c2.1-.7 2.6-3.5.7-4.8L19.5 22c5.1-5.9 12.1-9.5 20-10.3 13.6-1.3 26 6.5 31.1 18.4.6 1.5 2.2 2.2 3.7 1.7 1.7-.5 2.5-2.4 1.8-4.1C70 13.4 55.1 4 38.9 5.6c-9.5.9-18.2 5.6-24.3 12.9l-6.9-4.7c-1.8-1.2-4.3.1-4.2 2.3l1 19.7c.1 1.8 1.8 2.9 3.5 2.5l18.6-6.1zM79.5 48.3c-.1-1.8-1.8-2.9-3.5-2.5l-18.7 6c-2.1.7-2.6 3.5-.7 4.8l7.9 5.4c-5.1 5.9-12.1 9.5-20 10.3-13.6 1.3-26-6.5-31.1-18.4-.6-1.5-2.2-2.2-3.7-1.7-1.7.5-2.5 2.4-1.8 4.1C14 70.6 28.9 80 45.1 78.4c9.5-.9 18.2-5.6 24.3-12.9l6.9 4.7c1.8 1.2 4.3-.1 4.2-2.3l-1-19.6z"/></svg>