<svg xmlns="http://www.w3.org/2000/svg" viewBox="0 0 84 84" class="svgo"><path d="M75.3 61.7c-1.7 0-3 1.3-3 3v1.6c0 2.2-1.7 3.9-3.9 3.9H15.6c-2.2 0-3.9-1.8-3.9-3.9v-1.7c0-1.7-1.3-3-3-3s-3 1.3-3 3v1.7c0 5.5 4.4 9.9 9.9 9.9h52.8c5.5 0 9.9-4.4 9.9-9.9v-1.6c0-1.7-1.3-3-3-3zM8.8 22.3c1.7 0 3-1.3 3-3v-1.7c0-2.2 1.7-3.9 3.9-3.9h52.7c2.2 0 3.9 1.7 3.9 3.9v1.7c0 1.7 1.3 3 3 3s3-1.3 3-3v-1.7c0-5.5-4.4-9.9-9.9-9.9H15.7c-5.5 0-9.9 4.4-9.9 9.9v1.7c0 1.7 1.3 3 3 3zM16.8 52.7c.9 0 1.7-.4 2.3-1.1 1.1-1.3.9-3.2-.4-4.2L12 41.7l6.7-5.5c1.3-1.1 1.5-2.9.4-4.2-1-1.3-2.9-1.5-4.2-.4l-9.5 7.8c-.7.6-1.1 1.4-1.1 2.3s.4 1.7 1.1 2.3l9.5 8c.5.5 1.2.7 1.9.7zM79.1 39.4l-9.5-7.8c-1.3-1.1-3.2-.9-4.2.4-1.1 1.3-.9 3.2.4 4.2l6.7 5.5-6.7 5.7c-1.3 1.1-1.4 3-.4 4.2.6.7 1.4 1.1 2.3 1.1.7 0 1.4-.2 1.9-.7l9.5-8c.7-.6 1.1-1.4 1.1-2.3s-.4-1.8-1.1-2.3z"/></svg>