<svg xmlns="http://www.w3.org/2000/svg" viewBox="0 0 84 84" class="svgo"><path d="M78.9 15.1L59.4 4.4l-.2-.1c-1-.4-2.3-.9-3.8-.9H28.6c-1.5 0-2.8.3-4.1 1L5.1 15.1c-3.9 2-5.7 6.4-4.5 10.4l4.3 14.1c1.1 3.7 4.5 6.2 8.5 6.2h1.3v25.9c0 4.8 3.9 8.8 8.8 8.8h37.1c4.8 0 8.8-3.9 8.8-8.8V45.8h1.2c3.9 0 7.3-2.5 8.5-6.2l4.3-14.1c1.1-3.9-.7-8.3-4.5-10.4zM54.1 9.3c-1.7 5-6.5 8.6-12.1 8.6s-10.4-3.6-12.1-8.6h24.2zm23.4 14.5l-4.3 14.1c-.4 1.2-1.5 2-2.7 2h-3.1c-2.3 0-4.1 1.8-4.1 4.1v27.7c0 1.5-1.3 2.8-2.8 2.8H23.4c-1.5 0-2.8-1.3-2.8-2.8V43.9c0-2.3-1.8-4.1-4.1-4.1h-3.2c-1.3 0-2.4-.8-2.7-2l-4.3-14c-.4-1.3.2-2.7 1.6-3.4l16.4-9C26.9 18.7 33.8 24 42 24s15.1-5.3 17.7-12.6l16.3 9c1.3.7 1.9 2.2 1.5 3.4z"/></svg>