<svg xmlns="http://www.w3.org/2000/svg" viewBox="0 0 24.08 24.08">
  <path d="M23.029 13.494c.34.481.599 1.003.78 1.575.18.57.271 1.16.271 1.771 0 .875-.177 1.697-.527 2.467-.351.768-.834 1.445-1.45 2.033-.616.582-1.333 1.039-2.157 1.371s-1.691.495-2.613.495c-1.313 0-2.491-.31-3.536-.929-.29.04-.582.069-.877.091-.296.02-.589.028-.882.028-1.534 0-2.974-.275-4.321-.823-1.344-.551-2.521-1.299-3.535-2.252-1.011-.949-1.808-2.068-2.382-3.349-.579-1.281-.868-2.65-.868-4.105 0-.282.014-.55.044-.798.027-.248.064-.501.102-.754C.358 9.316 0 8.243 0 7.092c0-.856.177-1.665.528-2.426.35-.76.83-1.421 1.446-1.982.616-.562 1.337-1.004 2.156-1.328.821-.324 1.692-.482 2.614-.482.664 0 1.287.078 1.879.237.592.161 1.146.385 1.657.678.289-.041.585-.07.877-.093.296-.018.592-.029.881-.029 1.539 0 2.984.268 4.335.801 1.348.529 2.528 1.262 3.542 2.192 1.014.934 1.813 2.015 2.393 3.245.578 1.232.867 2.554.867 3.962.001.519-.047 1.062-.146 1.627zm-5.696 3.202c.474-.624.708-1.357.708-2.199 0-.663-.132-1.22-.392-1.672-.271-.45-.653-.827-1.146-1.128-.453-.292-1.042-.551-1.763-.783-.725-.182-1.494-.36-2.307-.542l-.891-.203c-.239-.051-.429-.094-.572-.133-.159-.039-.306-.082-.446-.133-.132-.047-.272-.102-.412-.162-.272-.114-.5-.269-.681-.451-.14-.157-.21-.368-.21-.63 0-.383.228-.725.681-1.028.513-.283 1.14-.419 1.885-.41.861 0 1.466.127 1.807.382.412.302.735.674.966 1.113.201.322.405.562.616.72.201.154.48.237.831.248.395 0 .722-.131.997-.395.269-.246.398-.523.391-.835 0-.361-.102-.716-.302-1.058-.198-.321-.531-.663-.99-1.026-.232-.156-.487-.299-.762-.43-.276-.132-.586-.248-.923-.346-.353-.096-.724-.17-1.115-.22-.392-.049-.82-.072-1.294-.072-1.194 0-2.201.146-3.021.438-.881.304-1.548.722-2 1.264-.452.516-.678 1.136-.678 1.86 0 .762.219 1.382.651 1.86.435.517 1.024.908 1.769 1.173.708.283 1.613.531 2.723.745.415.098.778.181 1.099.244.316.062.603.133.854.21.473.129.857.345 1.15.652.313.266.47.608.47 1.03 0 .583-.286 1.055-.851 1.415-.534.369-1.256.551-2.165.538-.728 0-1.255-.084-1.589-.254-.415-.189-.721-.429-.922-.715-.255-.326-.459-.688-.623-1.079-.143-.371-.336-.651-.588-.84-.235-.191-.51-.286-.833-.286-.412 0-.752.115-1.021.341-.269.257-.398.558-.392.896 0 .589.218 1.178.65 1.768.429.607.98 1.081 1.651 1.422.983.508 2.218.765 3.702.775 1.211 0 2.29-.18 3.229-.539.922-.409 1.61-.916 2.059-1.525z"/>
</svg>