<svg xmlns="http://www.w3.org/2000/svg" viewBox="0 0 84 84">
  <path d="M42 4.8C21.5 4.8 4.8 21.5 4.8 42S21.5 79.2 42 79.2 79.2 62.5 79.2 42 62.5 4.8 42 4.8zm0 68.4c-17.2 0-31.2-14-31.2-31.2s14-31.2 31.2-31.2 31.2 14 31.2 31.2-14 31.2-31.2 31.2zm14.2-24.8c-3.2 5.2-8.6 8.3-14.6 8.3-5.9 0-11.5-3.2-14.6-8.3-.6-.9-.3-2.2.7-2.7.9-.6 2.2-.3 2.7.7 2.4 3.9 6.6 6.3 11.2 6.3s8.8-2.4 11.2-6.3c.6-.9 1.8-1.2 2.8-.7.9.6 1.2 1.8.6 2.7zm-29-14.8c0-3.3 2.5-5.8 5.8-5.8s5.8 2.5 5.8 5.8c0 .8-.7 1.5-1.5 1.5s-1.5-.7-1.5-1.5c0-1.6-1.2-2.8-2.8-2.8s-2.8 1.2-2.8 2.8c0 .8-.7 1.5-1.5 1.5s-1.5-.7-1.5-1.5zm29.6 0c0 .8-.7 1.5-1.5 1.5s-1.5-.7-1.5-1.5c0-1.6-1.2-2.8-2.8-2.8s-2.8 1.2-2.8 2.8c0 .8-.7 1.5-1.5 1.5s-1.5-.7-1.5-1.5c0-3.3 2.5-5.8 5.8-5.8s5.8 2.5 5.8 5.8z"/>
</svg>