<svg xmlns="http://www.w3.org/2000/svg" viewBox="0 0 84 84" class="svgo"><path d="M19.7 80.45c-.8 0-1.7-.3-2.4-.8-1.3-1-1.9-2.6-1.5-4.2l5.5-23-18.1-15.6c-1.2-1.1-1.7-2.7-1.2-4.3.5-1.5 1.9-2.6 3.5-2.7l23.7-1.8 9.1-22c.6-1.5 2.1-2.5 3.7-2.5s3.1 1 3.7 2.5l9.1 22 23.7 1.8c1.6.1 3 1.2 3.5 2.7.5 1.5 0 3.2-1.2 4.3l-18.1 15.6 5.5 23c.4 1.6-.2 3.2-1.5 4.2s-3.1 1-4.4.2L42 67.55l-20.3 12.3c-.5.4-1.2.6-2 .6zm22.4-21.5c.7 0 1.4.2 2.1.6l14.2 8.6-3.9-16c-.4-1.5.1-3 1.3-4l12.6-10.9-16.5-1.3c-1.5-.1-2.8-1.1-3.4-2.5l-6.3-15.3-6.3 15.3c-.6 1.4-1.9 2.3-3.4 2.5L16 37.25l12.6 10.9c1.1 1 1.6 2.5 1.3 4l-3.9 16 14.2-8.6c.5-.5 1.2-.6 1.9-.6z"/></svg>