<svg xmlns="http://www.w3.org/2000/svg" viewBox="0 0 84 84" class="svgo"><g transform="translate(401.115 -239.512)"><path d="M-317.6 272.8l-2.5-21.5c-.6-5-4.5-8.8-9.4-9.3l-20.9-2c-3.2-.4-6.3.8-8.8 3.3l-38.1 38.1c-2.1 2-3.3 4.6-3.4 7.4-.1 2.9 1 5.7 3.1 7.8l23.5 23.4c2 2 4.6 3.1 7.3 3.1 2.9 0 5.7-1.2 7.8-3.3l38-38c2.6-2.6 3.8-5.8 3.4-9zm-7.5 4.7l-38 38c-1 1-2.2 1.5-3.5 1.5-1.1 0-2.2-.5-3.1-1.3l-23.5-23.4c-.9-.9-1.4-2.1-1.3-3.3.1-1.2.6-2.3 1.6-3.3l38.1-38.1c.8-.8 2-1.6 3.5-1.6h.4l21 2.1c2.1.2 3.8 1.9 4.1 4l2.5 21.4c-.1 1.4-.6 2.8-1.8 4z"/><path d="M-360.3 276.7c1.7 0 3.5-.6 4.8-2.1 2.7-2.7 2.7-7 0-9.7-2.7-2.7-7-2.7-9.7 0-1.3 1.3-2 3.1-2 4.9 0 1.9.7 3.6 2 4.9 1.4 1.3 3.1 2 4.9 2zm-2-8.9c.5-.5 1.3-.8 2-.8s1.4.3 2.1.7c1.1 1.2 1.1 3 0 4.1-1.2 1.1-3 1.1-4.1 0-.5-.5-.8-1.2-.8-2 0-.7.3-1.5.8-2z"/><path d="M-336.4 251.8c-1.7 0-3.4.7-4.6 1.9-1.2 1.2-1.9 2.9-1.9 4.6 0 1.7.7 3.4 1.9 4.6 1.3 1.2 3 1.9 4.6 1.9 1.6 0 3.4-.7 4.6-1.9 1.2-1.2 1.9-2.9 1.9-4.6 0-1.7-.7-3.4-1.9-4.6a6.42 6.42 0 0 0-4.6-1.9zm2 8.5c-1.1 1.1-2.7 1.1-3.7 0-1.1-1.1-1.1-2.7 0-3.7 1.1-1.1 2.7-1.1 3.7 0 1 1 1 2.6 0 3.7z"/><path d="M-344.4 277.2l-32.6 6.2c-1.6.3-2.7 1.9-2.4 3.5.3 1.4 1.5 2.4 2.9 2.4.3.1.4.1.6 0l32.6-6.2c1.6-.3 2.7-1.9 2.4-3.5-.3-1.6-1.9-2.7-3.5-2.4z"/><path d="M-360.3 290c-1.9 0-3.6.7-4.9 2-1.3 1.3-2 3.1-2 4.9 0 1.9.7 3.6 2 4.9 1.4 1.3 3.1 2 4.9 2 1.7 0 3.5-.7 4.9-2.1 2.7-2.7 2.7-7 0-9.7-1.3-1.3-3.1-2-4.9-2zm2.1 8.9c-1.2 1.1-3 1.1-4.1 0-.5-.5-.8-1.2-.8-2 0-.7.3-1.5.8-2s1.2-.8 2-.8c.7 0 1.4.3 2.1.7 1.1 1.2 1.1 3 0 4.1z"/></g></svg>