<svg xmlns="http://www.w3.org/2000/svg" viewBox="0 0 84 84" class="svgo"><path d="M27.9 38.9h-3.2v-3.2c0-1.7-1.3-3-3-3s-3 1.3-3 3v3.2h-3.2c-1.7 0-3 1.4-3 3 0 1.7 1.4 3 3 3h3.2v3.4c0 1.7 1.3 3 3 3 1.8 0 3-1.3 3-3v-3.4H28c1.7 0 3-1.3 3-3 0-1.6-1.4-3-3.1-3zm41 0h-3.2v-3.2c0-1.7-1.3-3-3-3s-3 1.3-3 3v3.2h-3.2c-1.7 0-3 1.4-3 3 0 1.7 1.4 3 3 3h3.2v3.4c0 1.7 1.3 3 3 3 1.8 0 3-1.3 3-3v-3.4H69c1.7 0 3-1.3 3-3 0-1.6-1.4-3-3.1-3zM72.8 21h-3.7v-6.5c0-5.2-4.3-9.5-9.5-9.5h-35c-5.2 0-9.4 4.3-9.4 9.5V21h-3.8c-4 0-7.3 3.3-7.3 7.3v27.5c0 4 3.3 7.3 7.3 7.3h3.8v6.4c0 5.2 4.2 9.5 9.4 9.5h35c5.2 0 9.5-4.3 9.5-9.5v-6.4h3.7c4 0 7.3-3.3 7.3-7.3V28.3c0-4-3.3-7.3-7.3-7.3zM11.4 57.2c-.6 0-1.3-.6-1.3-1.4V28.4c0-.7.6-1.4 1.3-1.4h20.7c.7 0 1.3.6 1.3 1.4v27.4c0 .7-.6 1.4-1.3 1.4H11.4zm51.9 12.4c-.1 1.9-1.7 3.5-3.6 3.5h-35c-1.8 0-3.4-1.6-3.4-3.5v-6.3H32c4 0 7.3-3.3 7.3-7.3V28.3c0-4-3.3-7.3-7.3-7.3H21.1v-6.4c0-1.9 1.7-3.5 3.5-3.5h35c1.9 0 3.5 1.6 3.5 3.5V21H52.6c-4 0-7.3 3.3-7.3 7.3V56c0 4 3.3 7.3 7.3 7.3h10.7v6.3zm10.9-13.8c0 .7-.6 1.4-1.3 1.4H52.5c-.7 0-1.3-.7-1.3-1.4V28.4c0-.8.6-1.4 1.3-1.4h20.4c.7 0 1.3.6 1.3 1.4v27.4z"/></svg>