<svg xmlns="http://www.w3.org/2000/svg" viewBox="0 0 84 84" class="svgo"><g><path d="M11.3 67.5H15v2.1c0 5.2 4.3 9.5 9.5 9.5h35c5.2 0 9.5-4.3 9.5-9.5v-2.1h3.7c4 0 7.3-3.3 7.3-7.3V48.7c0-4-3.3-7.3-7.3-7.3H69V14.5C69 9.3 64.7 5 59.5 5h-35C19.3 5 15 9.3 15 14.5v26.9h-3.7c-4 0-7.3 3.3-7.3 7.3v11.5c0 4 3.3 7.3 7.3 7.3zM63 69.6c0 1.9-1.6 3.5-3.5 3.5h-35c-1.9 0-3.5-1.6-3.5-3.5v-2.1h42v2.1zm-42-55c0-1.9 1.6-3.5 3.5-3.5h35c1.9 0 3.5 1.6 3.5 3.5v26.9H21V14.6zM10 48.8c0-.7.6-1.3 1.3-1.3h61.5c.7 0 1.3.6 1.3 1.3v11.5c0 .7-.6 1.3-1.3 1.3H11.3c-.7 0-1.3-.6-1.3-1.3V48.8z"/><path d="M64.4 58.5l4.7-4.7c.8-.8.8-2 0-2.8-.4-.4-.9-.6-1.4-.6s-1 .2-1.4.6l-4.7 4.7c-.8.8-.8 2 0 2.8.7.7 2 .7 2.8 0z"/><path d="M52.8 58.5l4.7-4.7c.8-.8.8-2 0-2.8-.4-.4-.9-.6-1.4-.6s-1 .2-1.4.6L50 55.7c-.8.8-.8 2 0 2.8.7.7 2 .7 2.8 0z"/><path d="M41.2 58.5l4.7-4.7c.8-.8.8-2 0-2.8-.4-.4-.9-.6-1.4-.6s-1 .2-1.4.6l-4.7 4.7c-.8.8-.8 2 0 2.8.7.7 2 .7 2.8 0z"/><path d="M29.6 58.5l4.7-4.7c.8-.8.8-2 0-2.8-.4-.4-.9-.6-1.4-.6s-1 .2-1.4.6l-4.7 4.7c-.8.8-.8 2 0 2.8.7.7 2 .7 2.8 0z"/><path d="M18 58.5l4.7-4.7c.8-.8.8-2 0-2.8-.4-.4-.9-.6-1.4-.6s-1 .2-1.4.6l-4.7 4.7c-.8.8-.8 2 0 2.8.8.7 2 .7 2.8 0z"/></g></svg>