<svg xmlns="http://www.w3.org/2000/svg" viewBox="0 0 84 84" class="svgo"><g><path d="M11.4 63.1h3.8v6.4c0 5.2 4.2 9.5 9.4 9.5h35c5.2 0 9.5-4.3 9.5-9.5v-6.4h3.7c4 0 7.3-3.3 7.3-7.3V28.3c0-4-3.3-7.3-7.3-7.3h-3.7v-6.5c0-5.2-4.3-9.5-9.5-9.5h-35c-5.2 0-9.4 4.3-9.4 9.5V21h-3.8c-4 0-7.3 3.3-7.3 7.3v27.5c0 4 3.3 7.3 7.3 7.3zm51.8 6.5c0 1.9-1.6 3.5-3.5 3.5h-35c-1.8 0-3.4-1.6-3.4-3.5v-6.3h42v6.3zm-42-55c0-1.9 1.6-3.5 3.4-3.5h35c1.9 0 3.5 1.6 3.5 3.5v6.5h-42v-6.5zM10.1 28.4c0-.7.6-1.4 1.3-1.4h61.5c.7 0 1.3.6 1.3 1.4v27.4c0 .7-.6 1.4-1.3 1.4H11.4c-.6 0-1.3-.6-1.3-1.4V28.4z"/><path d="M50.3 38.9h-5.2v-5.2c0-1.7-1.3-3-3-3s-3 1.3-3 3v5.2h-5.2c-1.7 0-3 1.4-3 3 0 1.7 1.4 3 3 3h5.2v5.4c0 1.7 1.3 3 3 3 1.8 0 3-1.3 3-3v-5.4h5.3c1.7 0 3-1.3 3-3 0-1.6-1.4-3-3.1-3z"/></g></svg>