<svg xmlns="http://www.w3.org/2000/svg" viewBox="0 0 84 84" class="svgo"><path d="M82.6 46.1l-15.8-9 12.2-7c.9-.5 1.5-1.5 1.5-2.6s-.5-2-1.5-2.6L50.1 8.5c-.9-.5-2-.5-3 0L18.2 24.9c-.9.5-1.5 1.5-1.5 2.6s.6 2.1 1.5 2.6l5.6 3.2L1.4 46.1c-.9.5-1.5 1.5-1.5 2.6s.6 2.1 1.5 2.6l6.7 3.8-5.3 3c-.9.5-1.5 1.5-1.5 2.6s.6 2.1 1.5 2.6l17 9.7c.5.3 1 .4 1.5.4s1-.1 1.5-.4l8.4-4.8 9.3 5.3c.5.3 1 .4 1.5.4s1-.1 1.5-.4l39.1-22.2c.9-.5 1.5-1.5 1.5-2.6s-.6-2.1-1.5-2.6zm-34-31.5l22.8 13-22.8 13-22.8-13 22.8-13zM21.4 66.9l-11-6.2 11-6.2 11 6.2-11 6.2zm20.6.5l-4.7-2.7 2.6-1.5c.9-.5 1.5-1.5 1.5-2.6s-.6-2.1-1.5-2.6l-17-9.7c-.9-.5-2-.5-3 0l-5.7 3.2-5.2-3 20.9-11.9 17.3 9.8c.5.3 1 .4 1.5.4s1-.1 1.5-.4l10.6-6L75 48.7 42 67.4z"/></svg>