<svg xmlns="http://www.w3.org/2000/svg" viewBox="0 0 84 84" class="svgo"><path d="M74 74.6H10c-5.5 0-10-4.5-10-10V19.4c0-5.5 4.5-10 10-10h64c5.5 0 10 4.5 10 10v45.2c0 5.5-4.5 10-10 10zM10 15.4c-2.2 0-4 1.8-4 4v45.2c0 2.2 1.8 4 4 4h64c2.2 0 4-1.8 4-4V19.4c0-2.2-1.8-4-4-4zm22.8 20.3c-3.3 0-6-2.7-6-6s2.7-6 6-6 6 2.7 6 6-2.7 6-6 6zm0-8c-1.1 0-2 .9-2 2s.9 2 2 2 2-.9 2-2-.9-2-2-2zm6.1 30.9c1.1-.8 1.3-2.4.5-3.5L27.3 39.2c-.5-.6-1.2-1-2-1s-1.5.4-2 1l-12 15.7c-.8 1.1-.6 2.7.5 3.5 1.1.8 2.7.6 3.5-.5l10-13.1L35.4 58c.5.6 1.2 1 2 1 .5.1 1-.1 1.5-.4zm10.3 0c1.1-.8 1.3-2.4.5-3.5l-9.5-12.4c-.5-.6-1.2-1-2-1s-1.5.4-2 1l-5.1 6.6c-.8 1.1-.6 2.7.5 3.5 1.1.8 2.7.6 3.5-.5l3.1-4 7.5 9.8c.5.6 1.2 1 2 1 .6 0 1.1-.2 1.5-.5zm22.6-27.7c0-1.4-1.1-2.5-2.5-2.5h-12c-1.4 0-2.5 1.1-2.5 2.5s1.1 2.5 2.5 2.5h12c1.4 0 2.5-1.1 2.5-2.5zm0 10c0-1.4-1.1-2.5-2.5-2.5h-12c-1.4 0-2.5 1.1-2.5 2.5s1.1 2.5 2.5 2.5h12c1.4 0 2.5-1.1 2.5-2.5zm0 10c0-1.4-1.1-2.5-2.5-2.5h-12c-1.4 0-2.5 1.1-2.5 2.5s1.1 2.5 2.5 2.5h12c1.4 0 2.5-1.1 2.5-2.5z"/></svg>