<svg xmlns="http://www.w3.org/2000/svg" viewBox="0 0 84 84" class="svgo"><path d="M81.5 22l-4.4-4.4c-1.2-1.2-3.1-1.2-4.2 0-2 2-5.2 2-7.2 0-1-1-1.5-2.2-1.5-3.6s.5-2.6 1.5-3.6c.6-.6.9-1.3.9-2.1s-.3-1.6-.9-2.1L62 2.5c-3.3-3.3-8.7-3.3-12 0L2.5 50c-3.3 3.3-3.3 8.7 0 12l3.7 3.7c1.1 1.1 3.1 1.1 4.2 0 1-1 2.2-1.5 3.6-1.5s2.6.5 3.6 1.5c2 2 2 5.2 0 7.2-1.2 1.2-1.2 3.1 0 4.2l4.4 4.4c1.7 1.7 3.8 2.5 6 2.5s4.3-.8 6-2.5L81.4 34c3.4-3.4 3.4-8.7.1-12zM29.8 77.2c-1 1-2.5 1-3.5 0l-2.6-2.5c.9-1.6 1.4-3.5 1.4-5.4 0-3-1.2-5.7-3.2-7.8-2.1-2.1-4.9-3.2-7.8-3.2-1.9 0-3.8.5-5.4 1.4l-1.9-1.9c-1-1-1-2.5 0-3.5l21.7-21.7 22.9 23-21.6 21.6zm47.4-47.5L55.6 51.3l-23-23L54.2 6.7c1-1 2.5-1 3.5 0l1.9 1.9c-.9 1.6-1.4 3.5-1.4 5.4 0 3 1.2 5.7 3.2 7.8 2.1 2.1 4.9 3.2 7.8 3.2 1.9 0 3.8-.5 5.4-1.4l2.6 2.6c1 1 1 2.5 0 3.5z"/></svg>