<svg xmlns="http://www.w3.org/2000/svg" viewBox="0 0 84 84" class="svgo"><path d="M51.55 64.25v-30.5c0-1.1.9-2 2-2s2 .9 2 2v30.5c0 1.1-.9 2-2 2-1 0-2-.9-2-2zm-9.5 2c1.1 0 2-.9 2-2v-30.5c0-1.1-.9-2-2-2s-2 .9-2 2v30.5c0 1.1.9 2 2 2zm-11.5 0c1.1 0 2-.9 2-2v-30.5c0-1.1-.9-2-2-2s-2 .9-2 2v30.5c0 1.1.9 2 2 2zm51.6-47.9c0 1.7-1.3 3-3 3h-7v48c0 6.8-5.6 12.4-12.4 12.4h-35.5c-6.8 0-12.4-5.6-12.4-12.4v-47.9h-7c-1.7 0-3-1.3-3-3s1.3-3 3-3h11.7c1.8 0 3.4-1 4.2-2.5l2.8-5.1c1.9-3.5 5.5-5.6 9.5-5.6h18.2c4 0 7.6 2.2 9.5 5.6l2.7 5c.8 1.5 2.5 2.5 4.2 2.5h11.5c1.8 0 3 1.2 3 3zm-55.9-3h31.8l-2.6-4.7c-.8-1.6-2.4-2.6-4.2-2.6h-18.2c-1.8 0-3.4 1-4.2 2.5zm39.9 6.1h-48.3v47.8c0 3.5 2.9 6.4 6.4 6.4h35.4c3.5 0 6.4-2.9 6.4-6.4z"/></svg>