<svg xmlns="http://www.w3.org/2000/svg" viewBox="0 0 84 84" class="svgo"><path d="M83.1 42.8l-4.8-13.5c-1.1-3.1-4-5.1-7.2-5.1H54c-.6 0-1.2.1-1.7.2v-9.6c0-.8-.1-1.6-.2-2.3-.7-3.5-3.8-6.3-7.6-6.3H8.1C3.9 6.2.4 9.6.4 13.9v37.6c0 4.2 3.4 7.7 7.7 7.7h6.7c-1.4 1.9-2.3 4.3-2.3 6.9 0 6.5 5.3 11.7 11.7 11.7 5.9 0 10.9-4.4 11.6-10.2h1.9c.2 0 .4 0 .6.1l4.9 1.9c.9.4 1.9.5 2.8.5h5.8c1.7 4.4 6 7.6 11 7.6s9.3-3.2 11-7.6h2.1c4.2 0 7.7-3.4 7.7-7.7V45.3c-.1-.8-.3-1.6-.5-2.5zM24.3 72.9a6.7 6.7 0 1 1 0-13.4 6.7 6.7 0 0 1 0 13.4zM8.1 53.3c-.9 0-1.6-.8-1.6-1.7V14c0-.9.8-1.7 1.7-1.7h36.4c.9 0 1.7.8 1.7 1.7v37.7c0 .7-.5 1.4-1.1 1.6zm54.7 19.6a6.7 6.7 0 1 1 0-13.4 6.7 6.7 0 0 1 0 13.4zm14.7-10.2c0 .9-.8 1.7-1.7 1.7h-1.5c-.9-5.6-5.7-9.9-11.6-9.9-5.9 0-10.7 4.3-11.6 9.9H46c-.2 0-.4 0-.6-.1l-4.8-2c-.9-.4-1.8-.5-2.8-.5h-2.7c-.4-.9-.9-1.7-1.4-2.5h10.9c4.2 0 7.7-3.4 7.7-7.7V31.8c0-.9.8-1.7 1.7-1.7h17.1c.7 0 1.3.5 1.6 1.1l4.7 13.6c.1.2.1.4.1.6z"/></svg>