<svg xmlns="http://www.w3.org/2000/svg" viewBox="0 0 84 84" class="svgo"><path d="M61.4.4h-7.7C42.6.4 33.5 9.5 33.5 20.6v13.8H11.7C5.5 34.4.5 39.4.5 45.6v26.8c0 6.2 5 11.2 11.2 11.2h38.6c6.1 0 11.1-4.9 11.2-11.2V45.6c.2-5.9-4.5-10.8-10.3-11.2h-.3V23.5c0-3 2.4-5.4 5.4-5.4H61c3 0 5.4 2.4 5.4 5.4 0 2.7 2.2 4.9 4.9 4.9h7.3c2.7 0 4.9-2.2 4.9-4.9v-1C83.5 10.3 73.6.4 61.4.4zm-5.7 45.2v26.7c-.1 3-2.3 5.3-5.2 5.3H11.9c-2.9 0-5.2-2.3-5.2-5.2V45.6c0-2.9 2.3-5.2 5.2-5.2h38.6c2.9 0 5.2 2.3 5.2 5.2zm16.5-23.1c-.5-5.8-5.5-10.4-11.4-10.4h-4.7c-6.3 0-11.4 5.1-11.5 11.4v10.9h-5.2V20.6c0-7.8 6.4-14.2 14.2-14.2h7.7c8.8 0 16.1 7.2 16.1 16.1z"/></svg>