<svg xmlns="http://www.w3.org/2000/svg" viewBox="0 0 84 84" class="svgo"><path d="M26.55 21.75c-1.2-1.2-1.2-3.1 0-4.2l11.4-11.5c1.2-1.2 2.8-1.8 4.5-1.8 1.6 0 3.2.6 4.4 1.8l11.4 11.4c1.2 1.2 1.2 3.1 0 4.2-1.2 1.2-3.1 1.2-4.2 0l-8.6-8.6v37.3c0 1.7-1.3 3-3 3s-3-1.3-3-3v-37.3l-8.6 8.6c-1.2 1.2-3.1 1.2-4.3.1zm-12.6 58h56.1c5.3 0 9.6-4.3 9.6-9.6v-30.1c0-5.3-4.3-9.6-9.6-9.6h-12.8c-1.7 0-3 1.3-3 3s1.3 3 3 3h12.8c2 0 3.6 1.6 3.6 3.6v30.1c0 2-1.6 3.6-3.6 3.6h-56.1c-2 0-3.6-1.6-3.6-3.6v-30.1c0-2 1.6-3.6 3.6-3.6h13.8c1.7 0 3-1.3 3-3s-1.3-3-3-3h-13.8c-5.3 0-9.6 4.3-9.6 9.6v30.1c0 5.3 4.3 9.6 9.6 9.6z"/></svg>