<svg xmlns="http://www.w3.org/2000/svg" viewBox="0 0 84 84" class="svgo"><path d="M59.3 39.9c2.8-3.6 4.4-8.2 4.4-13.1v-4c0-12-9.7-21.7-21.7-21.7s-21.7 9.7-21.7 21.7v3.9c0 4.9 1.6 9.4 4.4 13.1-11.2 4-19.2 14.8-19.2 27.1v4.7c0 6.3 5.1 11.3 11.3 11.3h50.4c6.3 0 11.3-5.1 11.3-11.3v-4.7c0-12.3-7.9-23.1-19.2-27zM42 48.5c4.5 0 8.7-1.4 12.2-3.8 2.4.5 4.6 1.3 6.6 2.4L42.2 65.7 23.5 47c2-1.1 4.1-1.8 6.3-2.2 3.5 2.3 7.7 3.7 12.2 3.7zM26.3 22.8c0-8.7 7-15.7 15.7-15.7s15.7 7 15.7 15.7v3.9c0 8.7-7 15.7-15.7 15.7s-15.7-7-15.7-15.7v-3.9zm46.2 48.8c0 2.9-2.4 5.3-5.3 5.3H16.8c-2.9 0-5.3-2.4-5.3-5.3v-4.7c0-6.4 2.7-12.2 7.1-16.4l21.5 21.6c.6.6 1.4.9 2.1.9.7 0 1.5-.3 2.1-.9l21.3-21.3c4.2 4.1 6.9 9.9 6.9 16.1v4.7z"/></svg>