<svg xmlns="http://www.w3.org/2000/svg" viewBox="0 0 84 84" class="svgo"><path d="M73.397 32.8c1.4-2 2.2-4.5 2.2-7.1v-3.1c0-6.9-5.6-12.5-12.5-12.5-6.2 0-11.2 4.4-12.2 10.3-2.4-1.8-5.5-2.9-8.7-2.9-3.3 0-6.3 1.1-8.8 2.9-1-5.9-6.1-10.3-12.2-10.3-6.9 0-12.5 5.6-12.5 12.5v3.1c0 2.6.8 5.1 2.2 7.1-6.2 1.6-10.8 7.3-10.8 14.1v3.9c0 3.5 2.8 6.3 6.3 6.3h11.7c-.4 1.5-.7 3.1-.7 4.8v4.6c0 4.1 3.3 7.4 7.4 7.4h34.4c4.1 0 7.4-3.3 7.4-7.4v-4.6c0-1.7-.2-3.2-.7-4.8h11.7c3.5 0 6.3-2.8 6.3-6.3v-3.9c.2-6.8-4.3-12.4-10.5-14.1zm-16.7-10.2c0-3.6 2.9-6.5 6.5-6.5s6.5 2.9 6.5 6.5v3.1c0 3.6-2.9 6.5-6.5 6.5s-6.5-2.9-6.5-6.5zm-14.6.8c4.8 0 8.7 3.9 8.7 8.7v3.6c0 4.8-3.9 8.7-8.7 8.7-4.8 0-8.7-3.9-8.7-8.7v-3.6c0-4.8 3.9-8.7 8.7-8.7zm-27.4-.8c0-3.6 2.9-6.5 6.5-6.5s6.5 2.9 6.5 6.5v3.1c0 3.6-2.9 6.5-6.5 6.5s-6.5-2.9-6.5-6.5zm-8.3 28.5c-.2 0-.3-.2-.3-.3v-3.9c0-4.8 3.9-8.7 8.7-8.7h12.9c.5 2.6 1.6 5 3.2 6.9-3.9.9-7.3 3-9.7 6zm54.5 15.4c0 .8-.7 1.5-1.5 1.5h-34.5c-.8 0-1.5-.7-1.5-1.5v-4.6c0-6.2 5.1-11.3 11.3-11.3h14.8c6.2 0 11.3 5.1 11.3 11.3v4.6zm17.2-15.7c0 .2-.2.3-.3.3h-14.8c-2.4-3-5.8-5.1-9.6-6 1.6-1.9 2.8-4.3 3.2-6.9h12.8c4.8 0 8.7 3.9 8.7 8.7z"/></svg>