<svg xmlns="http://www.w3.org/2000/svg" viewBox="0 0 84 84" class="svgo"><path d="M62.294 46.9V49c0 5.4-4.4 9.7-9.7 9.7h-42.4c-5.4 0-9.7-4.4-9.7-9.7V21.6c0-5.4 4.4-9.7 9.7-9.7h42.4c5.4 0 9.7 4.4 9.7 9.7v5.6c0 1.7-1.3 3-3 3s-3-1.3-3-3v-5.6c0-2.1-1.7-3.7-3.7-3.7h-42.4c-2.1 0-3.7 1.7-3.7 3.7V49c0 2.1 1.7 3.7 3.7 3.7h42.4c2.1 0 3.7-1.7 3.7-3.7v-2c0-1.7 1.3-3 3-3s3 1.3 3 2.9zm-19.5 14.2h-22.8c-4.4 0-8 3.6-8 8 0 1.7 1.3 3 3 3s3-1.3 3-3c0-1.1.9-2 2-2h22.7c1.1 0 2 .9 2 2 0 1.7 1.3 3 3 3s3-1.3 3-3c.1-4.3-3.5-8-7.9-8zm39.9-26.6l-10.4-10.3c-1.2-1.2-3.1-1.2-4.2 0-1.2 1.2-1.2 3.1 0 4.2l5.3 5.3h-29.1c-1.7 0-3 1.3-3 3s1.3 3 3 3h29l-5.3 5.3c-1.2 1.2-1.2 3.1 0 4.2.6.6 1.4.9 2.1.9.7 0 1.5-.3 2.1-.9l10.4-10.4c1.2-1.2 1.2-3 .1-4.3z"/></svg>