<svg xmlns="http://www.w3.org/2000/svg" viewBox="0 0 84 84" class="svgo"><g><path d="M70.6 21h-1l-1.7-9.6c-.8-4.4-5-7.3-9.4-6.5l-39.5 7c-4.4.8-7.3 5-6.6 9.4l-.1.1C6.6 22.1 2 27 2 33v33.4C2 72.7 7.4 78 13.8 78h56.8C77 78 82 72.7 82 66.3V33c0-6.5-5-12-11.4-12zm-50.9-5.2l39.5-7c.2 0 .5-.1.7-.1 1.9 0 3.7 1.3 4 3.3l1.6 9h-49l-.1-.6c-.4-2.2 1.1-4.2 3.3-4.6zM70.6 72H13.8C10.7 72 8 69.4 8 66.3V33c0-3.1 2.7-6 5.8-6h56.8c3.1 0 5.4 2.9 5.4 6v3H54c-4.6 0-8 4.5-8 9.1v9.1c0 4.6 3.4 7.8 8 7.8h22v4.3c0 3.1-2.3 5.7-5.4 5.7zM76 40v18H54c-2.4 0-4-1.5-4-3.8v-9.1c0-2.4 1.6-5.1 4-5.1h22z"/><circle cx="60.1" cy="49.7" r="4.3"/></g></svg>