<svg xmlns="http://www.w3.org/2000/svg" x="0px" y="0px" viewBox="0 0 84 84">
  <path d="M81.9061 61.9l-29.8-51.5c-2.1-3.7-5.9-5.9-10.1-5.9-4.2 0-8 2.2-10.1 5.9l-29.8 51.5c-2.1 3.7-2.1 8 0 11.7 2.1 3.7 5.9 5.9 10.1 5.9h59.5c4.2 0 8-2.2 10.1-5.9 2.2-3.6 2.2-8 .1-11.7zm-5.2 8.7c-1 1.8-2.9 2.9-5 2.9h-59.5c-2.1 0-3.9-1.1-5-2.9-1.1-1.8-1-3.9 0-5.7l29.8-51.5c1-1.8 2.9-2.9 5-2.9s3.9 1.1 5 2.9l29.8 51.5c.9 1.8.9 3.9-.1 5.7zm-31.2-7.3c0 1.9-1.6 3.5-3.5 3.5s-3.5-1.6-3.5-3.5 1.6-3.5 3.5-3.5 3.5 1.6 3.5 3.5zm.5-37.3l-1 26.4c0 1.7-1.3 3-3 3s-3-1.3-3-3l-1-26.4c0-1.7 1.1-3.8 4-3.8 3.1.1 4 2.1 4 3.8z"/>
</svg>
