<svg viewBox="0 0 14 15" fill="none" xmlns="http://www.w3.org/2000/svg">
    <path d="M8.79464 7.98214C8.5625 7.98214 8.11607 8.84821 7.84821 8.84821C7.77679 8.84821 7.71429 8.82143 7.65179 8.78571C7.15179 8.53571 6.71429 8.27679 6.30357 7.88393C5.96429 7.5625 5.58929 7.08036 5.39286 6.66071C5.36607 6.61607 5.34821 6.57143 5.34821 6.52679C5.34821 6.32143 5.96429 5.9375 5.96429 5.59821C5.96429 5.50893 5.50893 4.29464 5.44643 4.14286C5.35714 3.91071 5.3125 3.83928 5.07143 3.83928C4.95536 3.83928 4.84821 3.8125 4.74107 3.8125C4.55357 3.8125 4.41071 3.88393 4.27679 4.00893C3.84821 4.41071 3.63393 4.83036 3.61607 5.41964V5.49107C3.60714 6.10714 3.91071 6.72321 4.25 7.22321C5.01786 8.35714 5.8125 9.34821 7.08929 9.92857C7.47321 10.1071 8.35714 10.4821 8.78572 10.4821C9.29464 10.4821 10.125 10.1607 10.3304 9.66071C10.4107 9.45536 10.4821 9.20536 10.4821 8.98214C10.4821 8.94643 10.4821 8.89286 10.4643 8.84821C10.4018 8.74107 8.94643 7.98214 8.79464 7.98214ZM6.98214 12.7143C5.89286 12.7143 4.8125 12.3839 3.90179 11.7857L1.74107 12.4732L2.44643 10.3929C1.75 9.4375 1.375 8.28571 1.375 7.10714C1.375 4.01786 3.89286 1.5 6.98214 1.5C10.0714 1.5 12.5893 4.01786 12.5893 7.10714C12.5893 10.1964 10.0714 12.7143 6.98214 12.7143ZM6.98214 0.374999C3.26786 0.374999 0.25 3.39286 0.25 7.10714C0.25 8.33036 0.580357 9.53571 1.21429 10.5804L0 14.1964L3.72321 13C4.72321 13.5536 5.84821 13.8393 6.98214 13.8393C10.6964 13.8393 13.7143 10.8214 13.7143 7.10714C13.7143 3.39286 10.6964 0.374999 6.98214 0.374999Z" />
</svg>
