<svg width="80" height="92" viewBox="0 0 80 92" fill="none" xmlns="http://www.w3.org/2000/svg">
<path d="M79.9586 79.7024L75.3578 28.9186C74.8466 23.4523 70.2458 19.1321 64.8783 19.1321H58.6587L58.4031 16.8398C57.3807 7.22965 49.5423 0 40.0851 0C30.5428 0 22.6192 7.22965 21.682 16.8398L21.4264 19.1321H15.1216C9.66885 19.1321 5.15327 23.3641 4.64207 28.9186L0.0412904 79.7024C-0.214309 82.7001 0.722888 85.6096 2.68248 87.9019C4.64207 90.1942 7.53886 91.4286 10.5209 91.4286H69.5642C72.5462 91.4286 75.3578 90.1061 77.4026 87.9019C79.277 85.6978 80.2142 82.7001 79.9586 79.7024ZM26.7088 17.457C27.4756 10.4918 33.184 5.28999 40.0851 5.28999C46.9011 5.28999 52.6095 10.4918 53.3763 17.457L53.5467 19.1321H26.5384L26.7088 17.457ZM73.4834 84.2871C72.461 85.4333 71.0126 86.1386 69.479 86.1386H10.4357C8.90206 86.1386 7.45366 85.5214 6.43127 84.2871C5.40887 83.1409 4.98287 81.6421 5.06807 80.1433L9.66886 29.3594C9.92445 26.5381 12.2248 24.4221 15.0364 24.4221H20.83L20.3188 29.9766C18.5296 30.7701 17.2516 32.5334 17.2516 34.6494C17.2516 37.4707 19.4668 39.7631 22.1932 39.7631C24.9196 39.7631 27.1348 37.4707 27.1348 34.6494C27.1348 33.0624 26.4532 31.6517 25.3456 30.7701L26.0272 24.4221H54.0579L54.7395 30.6819C53.5467 31.6517 52.8651 33.0624 52.8651 34.6494C52.8651 37.4707 55.0803 39.7631 57.8067 39.7631C60.5331 39.7631 62.7483 37.4707 62.7483 34.6494C62.7483 32.6216 61.5555 30.8582 59.8515 30.0647L59.2551 24.4221H64.9635C67.6898 24.4221 70.0754 26.6263 70.331 29.3594L74.8466 80.2314C75.017 81.7303 74.5058 83.1409 73.4834 84.2871Z" fill="#1A1A1A"/>
</svg>
