<svg width="38" height="44" viewBox="0 0 38 44" fill="none" xmlns="http://www.w3.org/2000/svg">
<path d="M37.9803 37.8587L35.795 13.7363C35.5521 11.1398 33.3668 9.08775 30.8172 9.08775H27.8629L27.7415 7.9989C27.2558 3.43408 23.5326 0 19.0404 0C14.5078 0 10.7441 3.43408 10.299 7.9989L10.1775 9.08775H7.18278C4.59271 9.08775 2.4478 11.0979 2.20498 13.7363L0.019613 37.8587C-0.101797 39.2825 0.343372 40.6646 1.27418 41.7534C2.20498 42.8423 3.58096 43.4286 4.9974 43.4286H33.043C34.4595 43.4286 35.795 42.8004 36.7662 41.7534C37.6566 40.7064 38.1017 39.2825 37.9803 37.8587ZM12.6867 8.29205C13.0509 4.98361 15.7624 2.51274 19.0404 2.51274C22.278 2.51274 24.9895 4.98361 25.3537 8.29205L25.4347 9.08775H12.6057L12.6867 8.29205ZM34.9046 40.0364C34.419 40.5808 33.731 40.9158 33.0025 40.9158H4.95694C4.22848 40.9158 3.54049 40.6227 3.05485 40.0364C2.56921 39.4919 2.36686 38.78 2.40733 38.0681L4.59271 13.9457C4.71412 12.6056 5.8068 11.6005 7.14231 11.6005H9.89426L9.65144 14.2389C8.80157 14.6158 8.19452 15.4534 8.19452 16.4585C8.19452 17.7986 9.24674 18.8875 10.5418 18.8875C11.8368 18.8875 12.889 17.7986 12.889 16.4585C12.889 15.7046 12.5653 15.0346 12.0392 14.6158L12.3629 11.6005H25.6775L26.0013 14.5739C25.4347 15.0346 25.1109 15.7046 25.1109 16.4585C25.1109 17.7986 26.1631 18.8875 27.4582 18.8875C28.7532 18.8875 29.8054 17.7986 29.8054 16.4585C29.8054 15.4952 29.2388 14.6577 28.4295 14.2808L28.1462 11.6005H30.8576C32.1527 11.6005 33.2858 12.6475 33.4072 13.9457L35.5521 38.1099C35.6331 38.8219 35.3903 39.4919 34.9046 40.0364Z" fill="#1A1A1A"/>
</svg>
