<svg viewBox="0 0 34 31" xmlns="http://www.w3.org/2000/svg">
    <path d="M33.2999 5.8231C32.6595 4.9731 31.6989 4.48272 30.6423 4.48272H7.90872L7.84468 4.18849C7.26833 1.80195 5.15507 0.134644 2.75364 0.134644H0.960573C0.416248 0.134644 0 0.559644 0 1.11541C0 1.67118 0.416248 2.09618 0.960573 2.09618H2.75364C4.29056 2.09618 5.60334 3.14234 5.98757 4.67887L10.1501 22.0058C10.3742 22.9866 11.0786 23.7712 11.9751 24.0981C11.4628 24.8173 11.1747 25.7 11.1747 26.6481C11.1747 29.0346 13.0638 30.9962 15.4332 30.9962C17.7706 30.9962 19.6917 29.0673 19.6917 26.6481C19.6917 25.7654 19.4356 24.9481 18.9873 24.2616H22.9257C22.4774 24.9481 22.2213 25.7654 22.2213 26.6481C22.2213 29.0346 24.1104 30.9962 26.4798 30.9962C28.8492 30.9962 30.7383 29.0673 30.7383 26.6481C30.7383 24.2289 28.8492 22.3 26.4798 22.3C26.4478 22.3 26.4158 22.3 26.3837 22.3H26.3517H12.9357C12.4874 22.3 12.1032 21.9731 12.0072 21.5481L11.5909 19.7827H26.2557C29.0413 19.7827 31.4748 17.8866 32.1792 15.1404L33.8762 8.76541C34.1644 7.75195 33.9402 6.6731 33.2999 5.8231ZM17.7066 26.6481C17.7066 27.9558 16.6499 29.0346 15.3692 29.0346C14.0884 29.0346 13.0318 27.9558 13.0318 26.6481C13.0318 25.3404 14.0884 24.2616 15.3692 24.2616C16.6819 24.2616 17.7066 25.3404 17.7066 26.6481ZM28.7531 26.6481C28.7531 27.9558 27.6965 29.0346 26.4158 29.0346C25.135 29.0346 24.0784 27.9558 24.0784 26.6481C24.0784 25.3404 25.135 24.2616 26.4158 24.2616C27.6965 24.2616 28.7531 25.3404 28.7531 26.6481ZM32.0191 8.27503L30.3221 14.65C29.8098 16.5462 28.1448 17.8539 26.2236 17.8539H11.1106L8.389 6.47695H30.6743C31.1226 6.47695 31.5388 6.67311 31.795 7.03272C32.0511 7.39234 32.1472 7.85003 32.0191 8.27503Z"/>
    <path d="M26.0002 10.9885H14.7294C14.1851 10.9885 13.7689 11.4135 13.7689 11.9692C13.7689 12.525 14.1851 12.95 14.7294 12.95H26.0002C26.5445 12.95 26.9607 12.525 26.9607 11.9692C26.9607 11.4135 26.5125 10.9885 26.0002 10.9885Z"/>
</svg>
