<svg fill="none" xmlns="http://www.w3.org/2000/svg">
  <g clip-path="url(#clip0)">
    <path d="M31.0236 29.6393l-1.7828-18.8852c-.1981-2.03279-1.9808-3.63935-4.0607-3.63935h-2.41l-.099-.85245C22.2749 2.68852 19.2376 0 15.5731 0c-3.6976 0-6.76785 2.68852-7.131 6.2623l-.09904.85245H5.90004c-2.11289 0-3.86262 1.57377-4.06071 3.63935L.0565879 29.6393c-.0990415 1.1148.2641111 2.1968 1.0234321 3.0492C1.83934 33.541 2.96181 34 4.11729 34H26.9959c1.1555 0 2.2449-.4918 3.0373-1.3115.7263-.8196 1.0894-1.9344.9904-3.0492zM10.3899 6.4918c.2971-2.59016 2.5091-4.52459 5.1832-4.52459 2.6411 0 4.853 1.93443 5.1501 4.52459l.0661.62295H10.3239l.066-.62295zm18.1246 24.8525c-.3962.4262-.9574.6885-1.5516.6885H4.08428c-.59425 0-1.15549-.2295-1.55165-.6885-.39617-.4263-.56124-.9836-.52823-1.541L3.78715 10.918c.09904-1.04915.99042-1.83603 2.07987-1.83603h2.24494l-.19808 2.06553c-.69329.2951-1.1885.9509-1.1885 1.7377 0 1.0492.85836 1.9017 1.91481 1.9017 1.05644 0 1.91481-.8525 1.91481-1.9017 0-.5901-.2641-1.1147-.6933-1.4426l.2641-2.36063h10.8616l.2641 2.32783c-.4622.3607-.7263.8853-.7263 1.4754 0 1.0492.8583 1.9017 1.9148 1.9017 1.0564 0 1.9148-.8525 1.9148-1.9017 0-.7541-.4622-1.4098-1.1225-1.7049l-.2311-2.09833h2.2119c1.0565 0 1.9809.81967 2.0799 1.83603l1.7497 18.9181c.0661.5573-.132 1.0819-.5282 1.5082z"/>
  </g>
  <defs>
    <clipPath id="clip0">
      <path transform="translate(.0230713)" d="M0 0h31v34H0z"/>
    </clipPath>
  </defs>
</svg>