<svg viewBox="0 0 21 24" fill="none" xmlns="http://www.w3.org/2000/svg">
<path d="M20.9891 20.9219L19.7814 7.59113C19.6472 6.15622 18.4395 5.02218 17.0305 5.02218H15.3979L15.3308 4.42044C15.0624 1.89778 13.0049 0 10.5224 0C8.01748 0 5.93754 1.89778 5.69153 4.42044L5.62443 5.02218H3.96943C2.53807 5.02218 1.35273 6.13308 1.21854 7.59113L0.0108387 20.9219C-0.056256 21.7088 0.189758 22.4725 0.704151 23.0743C1.21854 23.676 1.97895 24 2.76172 24H18.2606C19.0434 24 19.7814 23.6528 20.3182 23.0743C20.8102 22.4957 21.0562 21.7088 20.9891 20.9219ZM7.01106 4.58245C7.21234 2.7541 8.71079 1.38862 10.5224 1.38862C12.3115 1.38862 13.81 2.7541 14.0113 4.58245L14.056 5.02218H6.96633L7.01106 4.58245ZM19.2894 22.1254C19.021 22.4262 18.6408 22.6114 18.2382 22.6114H2.73936C2.33679 22.6114 1.95659 22.4494 1.68821 22.1254C1.41983 21.8245 1.308 21.4311 1.33037 21.0376L2.53807 7.70685C2.60517 6.96625 3.20902 6.4108 3.94706 6.4108H5.46788L5.33369 7.86885C4.86403 8.07715 4.52855 8.54002 4.52855 9.09547C4.52855 9.83607 5.11004 10.4378 5.82572 10.4378C6.5414 10.4378 7.12288 9.83607 7.12288 9.09547C7.12288 8.67888 6.94396 8.30858 6.65322 8.07715L6.83214 6.4108H14.1902L14.3691 8.054C14.056 8.30858 13.8771 8.67888 13.8771 9.09547C13.8771 9.83607 14.4586 10.4378 15.1743 10.4378C15.8899 10.4378 16.4714 9.83607 16.4714 9.09547C16.4714 8.56316 16.1583 8.10029 15.711 7.892L15.5545 6.4108H17.0529C17.7686 6.4108 18.3948 6.98939 18.4619 7.70685L19.6472 21.0608C19.692 21.4542 19.5578 21.8245 19.2894 22.1254Z" />
</svg>
