<svg viewBox="0 0 20 20" fill="none" xmlns="http://www.w3.org/2000/svg">
    <path d="M19.7412 18.3758L11.3352 9.96815L19.6775 1.6242C20.0596 1.27389 20.0596 0.636943 19.6775 0.286624C19.2954 -0.0955414 18.6904 -0.0955414 18.3402 0.286624L9.99794 8.63057L1.65571 0.286624C1.30546 -0.0955414 0.700493 -0.0955414 0.318406 0.286624C-0.0636812 0.636943 -0.0636812 1.27389 0.318406 1.6242L8.66064 9.96815L0.286565 18.3758C-0.0955218 18.758 -0.0955218 19.3631 0.286565 19.7134C0.477609 19.9045 0.732334 20 0.955218 20C1.1781 20 1.43283 19.9045 1.62387 19.7134L9.99794 11.3376L18.372 19.7134C18.5631 19.9045 18.8178 20 19.0407 20C19.2636 20 19.5183 19.9045 19.7093 19.7134C20.0914 19.3631 20.0914 18.758 19.7412 18.3758Z" />
</svg>
