<svg xmlns="http://www.w3.org/2000/svg" style="-ms-transform:rotate(360deg);-webkit-transform:rotate(360deg)" transform="rotate(360)" viewBox="0 0 1536 1600">
  <path d="M985 878q13 0 97.5 44t89.5 53q2 5 2 15 0 33-17 76-16 39-71 65.5T984 1158q-57 0-190-62-98-45-170-118T476 793q-72-107-71-194v-8q3-91 74-158 24-22 52-22 6 0 18 1.5t19 1.5q19 0 26.5 6.5T610 448q8 20 33 88t25 75q0 21-34.5 57.5T599 715q0 7 5 15 34 73 102 137 56 53 151 101 12 7 22 7 15 0 54-48.5t52-48.5zm-203 530q127 0 243.5-50t200.5-134 134-200.5 50-243.5-50-243.5T1226 336t-200.5-134T782 152t-243.5 50T338 336 204 536.5 154 780q0 203 120 368l-79 233 242-77q158 104 345 104zm0-1382q153 0 292.5 60T1315 247t161 240.5 60 292.5-60 292.5-161 240.5-240.5 161-292.5 60q-195 0-365-94L0 1574l136-405Q28 991 28 780q0-153 60-292.5T249 247 489.5 86 782 26z" fill="currentColor"/>
  <path fill="rgba(0, 0, 0, 0)" d="M0 0h1536v1600H0z"/>
</svg>