<svg xmlns="http://www.w3.org/2000/svg" x="0px" y="0px" viewBox="0 0 300 130">
  <path d="M48.1 121.6c-2 5-6.7 8-12.4 8-7.7 0-13.5-5.4-13.5-13.7 0-8.1 5.8-13.6 13.5-13.6 6 0 10.3 3.3 12 7.3l-4.1 1.1c-1.1-1.9-3.5-4.5-8.1-4.5-5.5 0-9.2 3.8-9.2 9.7 0 6 3.9 9.7 9.1 9.7 4 0 7-2.1 8.5-5.2l4.2 1.2zm22.3-19.2c7.8 0 13.7 5.5 13.7 13.6s-5.9 13.6-13.7 13.6c-7.8 0-13.6-5.5-13.6-13.6s5.9-13.6 13.6-13.6zm0 23.3c5.4 0 9.5-3.7 9.5-9.7 0-6-4.2-9.7-9.5-9.7-5.4 0-9.5 3.7-9.5 9.7 0 6 4.2 9.7 9.5 9.7zm44.1-6.6c0-4.8.1-9.4.1-9.4h-.1s-1.1 2.2-3.1 5.7l-4 7.2H105l-4-7.1c-2.1-3.6-3.1-5.8-3.1-5.8h-.1s.1 4.6.1 9.4v10h-4.1v-26.2H98l8.1 14.5h.1l8.1-14.5h4.2v26.2h-4.1v-10zm36.2 0c0-4.8.1-9.4.1-9.4h-.1s-1.1 2.2-3.1 5.7l-4 7.2h-2.4l-4-7.1c-2.1-3.6-3.1-5.8-3.1-5.8h-.1s.1 4.6.1 9.4v10H130v-26.2h4.4l8.1 14.5h.1l8.1-14.5h4.2v26.2h-4.1v-10zm15.4-16.2h18.1v3.9h-14v6.9h10.7v3.9h-10.7v7.8h14.1v3.9h-18.2v-26.4zm37.4 16.5h-4.7v9.7h-4.1v-26.2h8.6c6.3 0 10 3.2 10 8.4 0 3.9-2.1 6.4-5.7 7.3l6.3 10.5H209l-5.5-9.7zm.1-3.4c3.3 0 5.5-1.3 5.5-4.5s-2.1-4.8-5.6-4.8h-4.7v9.3h4.8zm43.7 5.6c-2 5-6.7 8-12.4 8-7.7 0-13.5-5.4-13.5-13.7 0-8.1 5.8-13.6 13.5-13.6 6 0 10.3 3.3 12 7.3l-4.1 1.1c-1.1-1.9-3.5-4.5-8.1-4.5-5.5 0-9.2 3.8-9.2 9.7 0 6 3.9 9.7 9.1 9.7 4 0 7-2.1 8.5-5.2l4.2 1.2zm9.6-18.7H275v3.9h-14v6.9h10.7v3.9H261v7.8h14.1v3.9h-18.2v-26.4zM98.1 66.4c-13.5 0-24.6-11-24.6-24.6 0-13.5 11-24.6 24.6-24.6 13.5 0 24.6 11 24.6 24.6 0 13.6-11 24.6-24.6 24.6m0-43.4c-10.4 0-18.8 8.4-18.8 18.8s8.4 18.8 18.8 18.8 18.8-8.4 18.8-18.8C117 31.5 108.5 23 98.1 23m54.7 43.4c-13.5 0-24.6-11-24.6-24.6 0-13.5 11-24.6 24.6-24.6 13.5 0 24.6 11 24.6 24.6-.1 13.6-11.1 24.6-24.6 24.6m0-43.4c-10.4 0-18.8 8.4-18.8 18.8s8.4 18.8 18.8 18.8 18.8-8.4 18.8-18.8c0-10.3-8.4-18.8-18.8-18.8M43.7 66.4h-18V17.3h18c13.5 0 24.6 11 24.6 24.6-.1 13.5-11.1 24.5-24.6 24.5m-12.3-5.7h12.3c10.4 0 18.8-8.4 18.8-18.8S54 23 43.7 23H31.4v37.7zm249 5.7H228l26.1-50.2 26.3 50.2zm-43.1-5.7h33.8L254.2 29l-16.9 31.7zM5.7 1h-.1v81.6h289V1H5.7zm283.1 75.9H11.3V6.7h277.5v70.2zm-68-22c-3.4 3.5-8.2 5.7-13.5 5.7-10.4 0-18.8-8.4-18.8-18.8S197 23 207.3 23c5 0 9.5 2 12.9 5.2l4-4c-4.4-4.2-10.4-6.8-17-6.8-13.5 0-24.6 11-24.6 24.6s11 24.6 24.6 24.6c7 0 13.2-2.9 17.7-7.6l-4.1-4.1z"/>
</svg>