<svg width="16" height="16" viewBox="0 0 16 16" fill="none" xmlns="http://www.w3.org/2000/svg">
<path d="M0.727273 1.45455H15.2727C15.6848 1.45455 16 1.13939 16 0.727273C16 0.315152 15.6848 0 15.2727 0H0.727273C0.315152 0 0 0.315152 0 0.727273C0 1.13939 0.315152 1.45455 0.727273 1.45455Z"/>
<path d="M15.2727 7.27264H0.727273C0.315152 7.27264 0 7.5878 0 7.99992C0 8.41204 0.315152 8.72719 0.727273 8.72719H15.2727C15.6848 8.72719 16 8.41204 16 7.99992C16 7.5878 15.6848 7.27264 15.2727 7.27264Z"/>
<path d="M15.2727 14.5455H0.727273C0.315152 14.5455 0 14.8607 0 15.2728C0 15.6849 0.315152 16 0.727273 16H15.2727C15.6848 16 16 15.6849 16 15.2728C16 14.8607 15.6848 14.5455 15.2727 14.5455Z"/>
</svg>
