<svg viewBox="0 0 27 26" fill="none" xmlns="http://www.w3.org/2000/svg">
    <path d="M26.4232 24.5678L19.0341 17.1864C22.5356 13.0826 22.3426 6.91314 18.4826 3.02966C16.525 1.07415 13.9057 0 11.0934 0C8.30871 0 5.68941 1.07415 3.73183 3.0572C-0.348762 7.13347 -0.348762 13.7436 3.73183 17.7924C5.71699 19.7754 8.33629 20.8496 11.121 20.8496C13.63 20.8496 16.0012 19.9682 17.8761 18.3708L25.2652 25.7521C25.4307 25.9174 25.6512 26 25.8442 26C26.0372 26 26.2578 25.9174 26.4232 25.7521C26.7541 25.4216 26.7541 24.8983 26.4232 24.5678ZM4.88984 16.6356C1.47096 13.2203 1.47096 7.65678 4.88984 4.21398C6.54413 2.56144 8.74986 1.65254 11.0934 1.65254C13.437 1.65254 15.6428 2.56144 17.297 4.21398C20.7159 7.62924 20.7159 13.1928 17.297 16.6356C15.6428 18.2881 13.437 19.197 11.0934 19.197C8.74986 19.197 6.54413 18.2881 4.88984 16.6356Z" />
</svg>
