<svg viewBox="0 0 22 22" fill="none" xmlns="http://www.w3.org/2000/svg">
<path d="M21.79 20.7881L15.5376 14.5424C18.5005 11.0699 18.3372 5.84958 15.071 2.56356C13.4146 0.908898 11.1983 0 8.81866 0C6.46235 0 4.24602 0.908898 2.58961 2.58686C-0.863202 6.03602 -0.863202 11.6292 2.58961 15.0551C4.26935 16.733 6.48568 17.6419 8.84199 17.6419C10.965 17.6419 12.9714 16.8962 14.5578 15.5445L20.8102 21.7903C20.9502 21.9301 21.1368 22 21.3001 22C21.4634 22 21.6501 21.9301 21.79 21.7903C22.07 21.5106 22.07 21.0678 21.79 20.7881ZM3.56946 14.0763C0.676564 11.1864 0.676564 6.47881 3.56946 3.56568C4.96925 2.16737 6.83563 1.39831 8.81866 1.39831C10.8017 1.39831 12.6681 2.16737 14.0679 3.56568C16.9608 6.45551 16.9608 11.1631 14.0679 14.0763C12.6681 15.4746 10.8017 16.2436 8.81866 16.2436C6.83563 16.2436 4.96925 15.4746 3.56946 14.0763Z"/>
</svg>
