<svg viewBox="0 0 24 24" fill="none" xmlns="http://www.w3.org/2000/svg">
<path d="M12 0C5.37692 0 0 5.37692 0 12C0 18.6231 5.37692 24 12 24C18.6231 24 24 18.6231 24 12C24 5.37692 18.6231 0 12 0ZM5.88462 20.6769C6.04615 17.3769 7.63846 14.6077 9.83077 13.4769C10.4769 13.8462 11.2154 14.0769 12 14.0769C12.7846 14.0769 13.5231 13.8462 14.1692 13.4769C16.3615 14.6077 17.9538 17.3769 18.1154 20.6769C16.3846 21.9 14.2846 22.6154 12 22.6154C9.71538 22.6154 7.61538 21.9 5.88462 20.6769ZM12 12.6923C10.4077 12.6923 9.11539 11.4 9.11539 9.80769C9.11539 8.21538 10.4077 6.92308 12 6.92308C13.5923 6.92308 14.8846 8.21538 14.8846 9.80769C14.8846 11.4 13.5923 12.6923 12 12.6923ZM19.4077 19.5923C18.9923 16.4769 17.4231 13.8692 15.2769 12.5308C15.8769 11.7923 16.2462 10.8462 16.2462 9.80769C16.2692 7.45385 14.3538 5.53846 12 5.53846C9.64615 5.53846 7.73077 7.45385 7.73077 9.80769C7.73077 10.8462 8.1 11.7923 8.7 12.5308C6.55385 13.8692 4.98462 16.4769 4.56923 19.5923C2.60769 17.6538 1.38462 14.9769 1.38462 12C1.38462 6.13846 6.13846 1.38462 12 1.38462C17.8615 1.38462 22.6154 6.13846 22.6154 12C22.6154 14.9769 21.3923 17.6538 19.4077 19.5923Z"/>
</svg>
