<?xml version="1.0" encoding="utf-8"?>
<!-- Generator: Adobe Illustrator 19.0.0, SVG Export Plug-In . SVG Version: 6.00 Build 0)  -->
<svg version="1.1" id="Camada_1" xmlns="http://www.w3.org/2000/svg" xmlns:xlink="http://www.w3.org/1999/xlink" x="0px" y="0px"
	 width="256px" height="256px" viewBox="0 0 256 256" style="enable-background:new 0 0 256 256;" xml:space="preserve">
<path d="M159.6,186.8H96.4c-4.4,0-7.9-3.5-7.9-7.9v0c0-4.4,3.5-7.9,7.9-7.9h63.2c4.4,0,7.9,3.5,7.9,7.9v0
	C167.5,183.3,164,186.8,159.6,186.8z M41.1,115.7L41.1,115.7c0-4.4-3.5-7.9-7.9-7.9h0c-4.4,0-7.9,3.5-7.9,7.9v0
	c0,4.4,3.5,7.9,7.9,7.9h0C37.6,123.6,41.1,120.1,41.1,115.7z M72.7,115.7L72.7,115.7c0-4.4-3.5-7.9-7.9-7.9h0
	c-4.4,0-7.9,3.5-7.9,7.9v0c0,4.4,3.5,7.9,7.9,7.9h0C69.2,123.6,72.7,120.1,72.7,115.7z M104.3,115.7L104.3,115.7
	c0-4.4-3.5-7.9-7.9-7.9h0c-4.4,0-7.9,3.5-7.9,7.9v0c0,4.4,3.5,7.9,7.9,7.9h0C100.8,123.6,104.3,120.1,104.3,115.7z M135.9,115.7
	L135.9,115.7c0-4.4-3.5-7.9-7.9-7.9h0c-4.4,0-7.9,3.5-7.9,7.9v0c0,4.4,3.5,7.9,7.9,7.9h0C132.4,123.6,135.9,120.1,135.9,115.7z
	 M167.5,115.7L167.5,115.7c0-4.4-3.5-7.9-7.9-7.9h0c-4.4,0-7.9,3.5-7.9,7.9v0c0,4.4,3.5,7.9,7.9,7.9h0
	C164,123.6,167.5,120.1,167.5,115.7z M199.1,115.7L199.1,115.7c0-4.4-3.5-7.9-7.9-7.9h0c-4.4,0-7.9,3.5-7.9,7.9v0
	c0,4.4,3.5,7.9,7.9,7.9h0C195.6,123.6,199.1,120.1,199.1,115.7z M230.7,115.7L230.7,115.7c0-4.4-3.5-7.9-7.9-7.9h0
	c-4.4,0-7.9,3.5-7.9,7.9v0c0,4.4,3.5,7.9,7.9,7.9h0C227.2,123.6,230.7,120.1,230.7,115.7z M41.1,147.3L41.1,147.3
	c0-4.4-3.5-7.9-7.9-7.9h0c-4.4,0-7.9,3.5-7.9,7.9v0c0,4.4,3.5,7.9,7.9,7.9h0C37.6,155.2,41.1,151.7,41.1,147.3z M72.7,147.3
	L72.7,147.3c0-4.4-3.5-7.9-7.9-7.9h0c-4.4,0-7.9,3.5-7.9,7.9v0c0,4.4,3.5,7.9,7.9,7.9h0C69.2,155.2,72.7,151.7,72.7,147.3z
	 M104.3,147.3L104.3,147.3c0-4.4-3.5-7.9-7.9-7.9h0c-4.4,0-7.9,3.5-7.9,7.9v0c0,4.4,3.5,7.9,7.9,7.9h0
	C100.8,155.2,104.3,151.7,104.3,147.3z M135.9,147.3L135.9,147.3c0-4.4-3.5-7.9-7.9-7.9h0c-4.4,0-7.9,3.5-7.9,7.9v0
	c0,4.4,3.5,7.9,7.9,7.9h0C132.4,155.2,135.9,151.7,135.9,147.3z M167.5,147.3L167.5,147.3c0-4.4-3.5-7.9-7.9-7.9h0
	c-4.4,0-7.9,3.5-7.9,7.9v0c0,4.4,3.5,7.9,7.9,7.9h0C164,155.2,167.5,151.7,167.5,147.3z M199.1,147.3L199.1,147.3
	c0-4.4-3.5-7.9-7.9-7.9h0c-4.4,0-7.9,3.5-7.9,7.9v0c0,4.4,3.5,7.9,7.9,7.9h0C195.6,155.2,199.1,151.7,199.1,147.3z M230.7,147.3
	L230.7,147.3c0-4.4-3.5-7.9-7.9-7.9h0c-4.4,0-7.9,3.5-7.9,7.9v0c0,4.4,3.5,7.9,7.9,7.9h0C227.2,155.2,230.7,151.7,230.7,147.3z
	 M41.1,178.9L41.1,178.9c0-4.4-3.5-7.9-7.9-7.9h0c-4.4,0-7.9,3.5-7.9,7.9v0c0,4.4,3.5,7.9,7.9,7.9h0
	C37.6,186.8,41.1,183.3,41.1,178.9z M72.7,178.9L72.7,178.9c0-4.4-3.5-7.9-7.9-7.9h0c-4.4,0-7.9,3.5-7.9,7.9v0
	c0,4.4,3.5,7.9,7.9,7.9h0C69.2,186.8,72.7,183.3,72.7,178.9z M199.1,178.9L199.1,178.9c0-4.4-3.5-7.9-7.9-7.9h0
	c-4.4,0-7.9,3.5-7.9,7.9v0c0,4.4,3.5,7.9,7.9,7.9h0C195.6,186.8,199.1,183.3,199.1,178.9z M230.7,178.9L230.7,178.9
	c0-4.4-3.5-7.9-7.9-7.9h0c-4.4,0-7.9,3.5-7.9,7.9v0c0,4.4,3.5,7.9,7.9,7.9h0C227.2,186.8,230.7,183.3,230.7,178.9z M254.5,103.9v87
	c0,10.9-8.9,19.8-19.8,19.8H21.3c-10.9,0-19.8-8.9-19.8-19.8v-87c0-10.9,8.9-19.8,19.8-19.8H124c0-8.7,7.1-15.8,15.8-15.8h11.8
	c4.3,0,7.8-3.5,7.8-7.8c0-4.3-3.5-7.8-7.8-7.8h-47.4c-8.7,0-15.8-7.1-15.8-15.8c0-2.2,1.8-4,4-4s4,1.8,4,4c0,4.3,3.5,7.8,7.8,7.8
	h47.4c8.7,0,15.8,7.1,15.8,15.8c0,8.7-7.1,15.8-15.8,15.8h-11.8c-4.3,0-7.8,3.5-7.8,7.8h102.7C245.6,84.1,254.5,93,254.5,103.9z
	 M246.5,103.9c0-6.5-5.3-11.8-11.8-11.8H21.3c-6.5,0-11.8,5.3-11.8,11.8v87c0,6.5,5.3,11.8,11.8,11.8h213.4
	c6.5,0,11.8-5.3,11.8-11.8V103.9z"/>
</svg>
