<?xml version="1.0" encoding="utf-8"?>
<!-- Generator: Adobe Illustrator 19.0.0, SVG Export Plug-In . SVG Version: 6.00 Build 0)  -->
<svg version="1.1" id="Camada_1" xmlns="http://www.w3.org/2000/svg" xmlns:xlink="http://www.w3.org/1999/xlink" x="0px" y="0px"
	 width="256px" height="256px" viewBox="0 0 256 256" style="enable-background:new 0 0 256 256;" xml:space="preserve">
<style type="text/css">
	.st0{fill-rule:evenodd;clip-rule:evenodd;}
</style>
<path class="st0" d="M235.2,22.5H20.5c-10.9,0-19.8,8.9-19.8,19.8v127.2c0,10.9,8.9,19.8,19.8,19.8h88.4v19.2H79.7
	c-4.6,0-8.3,3.7-8.3,8.3v6.5c0,4.6,3.7,8.3,8.3,8.3H176c4.6,0,8.3-3.7,8.3-8.3v-6.5c0-4.6-3.7-8.3-8.3-8.3h-29.2v-19.2h88.4
	c10.9,0,19.8-8.9,19.8-19.8V42.3C255,31.4,246.1,22.5,235.2,22.5z M176.3,216.7v6.5c0,0.2-0.1,0.3-0.3,0.3H79.7
	c-0.2,0-0.3-0.1-0.3-0.3v-6.5c0-0.2,0.1-0.3,0.3-0.3H176C176.2,216.4,176.3,216.6,176.3,216.7z M138.9,208.4h-22v-19.2h22V208.4z
	 M247,169.5c0,6.5-5.3,11.8-11.8,11.8H20.5c-6.5,0-11.8-5.3-11.8-11.8V42.3c0-6.5,5.3-11.8,11.8-11.8h214.7
	c6.5,0,11.8,5.3,11.8,11.8V169.5z M226.8,40H29c-5.8,0-10.5,4.7-10.5,10.5v110.7c0,5.8,4.7,10.5,10.5,10.5h197.8
	c5.8,0,10.5-4.7,10.5-10.5V50.5C237.3,44.7,232.6,40,226.8,40z M229.3,161.2c0,1.4-1.1,2.5-2.5,2.5H29c-1.4,0-2.5-1.1-2.5-2.5V50.5
	c0-1.4,1.1-2.5,2.5-2.5h197.8c1.4,0,2.5,1.1,2.5,2.5V161.2z"/>
</svg>
