<?xml version="1.0" encoding="utf-8"?>
<!-- Generator: Adobe Illustrator 19.0.0, SVG Export Plug-In . SVG Version: 6.00 Build 0)  -->
<svg version="1.1" id="Camada_1" xmlns="http://www.w3.org/2000/svg" xmlns:xlink="http://www.w3.org/1999/xlink" x="0px" y="0px"
	 width="256px" height="256px" viewBox="0 0 256 256" style="enable-background:new 0 0 256 256;" xml:space="preserve">
<path d="M231.5,103.2l-36-36c-13.1-13.1-30.5-20.3-49.1-20.3c-16.9,0-32.8,6-45.4,16.9c-5.9-5-12.3-7.3-19-6.8
	c-7.3,0.6-14.7,4.5-22,11.8c-5.5,5.5-10.6,8.3-15.4,8.6c-4,0.2-7.8-1.5-11.4-5.1L10.5,49.3c-1.6-1.6-4.1-1.6-5.7,0
	c-1.6,1.6-1.6,4.1,0,5.7l22.9,22.9c4.9,4.9,10.6,7.5,16.5,7.5c0.3,0,0.6,0,0.9,0c6.8-0.3,13.8-4,20.7-10.9c5.9-5.9,11.6-9,16.9-9.5
	c4.3-0.3,8.5,1.2,12.6,4.4c-11.8,12.8-18.2,29.3-18.2,46.9c0,18.5,7.2,36,20.3,49.1l36,36c13.1,13.1,30.5,20.3,49.1,20.3
	s36-7.2,49.1-20.3s20.3-30.5,20.3-49.1S244.6,116.3,231.5,103.2z M225.9,195.6c-11.6,11.6-27,18-43.4,18s-31.8-6.4-43.4-18l-36-36
	c-23.9-23.9-23.9-62.9,0-86.8c11.6-11.6,27-18,43.4-18c16.4,0,31.8,6.4,43.4,18l36,36c11.6,11.6,18,27,18,43.4
	S237.5,184,225.9,195.6z M159.8,121c2.3,2.3,2.3,6.1,0,8.5c-1.2,1.2-2.7,1.8-4.2,1.8s-3.1-0.6-4.2-1.8L122.8,101
	c-2.3-2.3-2.3-6.1,0-8.5c2.3-2.3,6.1-2.3,8.5,0L159.8,121z"/>
</svg>
