<svg version="1.1" class="dooca-svg" id="amex" xmlns="http://www.w3.org/2000/svg" xmlns:xlink="http://www.w3.org/1999/xlink" x="0px" y="0px" width="100px"
	 viewBox="0 0 144 90" xml:space="preserve">
	 <path class="bg" fill="none" stroke="#000000" stroke-width="2" stroke-miterlimit="10" d="M12.832,1.873h118.461
	 	c5.947,0,10.77,4.812,10.77,10.75v64.5c0,5.936-4.821,10.748-10.77,10.748H12.832c-5.947,0-10.77-4.813-10.77-10.748v-64.5
	 	C2.063,6.685,6.885,1.873,12.832,1.873z"/>
	 <path class="icon" d="M36.483,46.01h5.688l-3.034-6.446L36.483,46.01z M121.979,31.979h-15.928l-3.793,3.793l-3.412-3.793h-34.13
	 	l-3.034,6.067l-2.653-6.067H32.766l-10.62,25.787h13.369l1.518-3.791h4.172l1.516,3.791h56.125l3.033-4.17l3.793,3.791H121.6
	 	l-11.377-12.514L121.979,31.979z M74.189,53.996h-4.853V40.7l-5.596,13.296h-3.73l-5.97-12.916v12.917h-8.955l-1.865-4.179h-7.836
	 	l-1.865,4.179h-5.224l7.835-18.235h6.344l7.088,15.958V35.761h7.09l5.224,12.157L67.1,35.761h7.089V53.996L74.189,53.996z
	 	 M113.248,53.975h-6.445l-4.931-5.688l-4.931,5.688H77.223V35.772h19.719l5.311,5.688l4.932-5.688h6.065l-8.342,9.101
	 	L113.248,53.975z M92.727,39.943h-9.86v2.653h9.481v4.173h-9.481v3.033h9.86v2.654l6.826-7.584l-6.826-7.963V39.943z"/>
	 </svg>
