<svg width="51" height="32" viewBox="0 0 51 32" fill="none" xmlns="http://www.w3.org/2000/svg">
<path d="M4.89665 1H46.2339C48.292 1 50.0013 2.67442 50.0013 4.76744V27.2674C50.0013 29.3256 48.3269 31 46.2339 31H4.89665C2.83851 31 1.12921 29.3256 1.12921 27.2674V4.73256C1.1641 2.67442 2.83851 1 4.89665 1Z" fill="white" stroke="#E1E1E1" stroke-miterlimit="10"/>
<path d="M13.1641 16.3837H15.1525L14.0711 14.1512L13.1641 16.3837Z" fill="#11A0DC"/>
<path d="M42.9897 11.5H37.4432L36.1176 12.8256L34.9315 11.5H23.0013L21.9548 13.6279L21.0129 11.5H11.8734L8.14084 20.5H12.8153L13.3385 19.1744H14.8036L15.3269 20.5H34.8967L35.9432 19.0349L37.2687 20.3605H42.8153L38.8385 16L42.9897 11.5ZM26.3153 19.1744H24.606V14.5349L22.6525 19.1744H21.3618L19.2687 14.6744V19.1744H16.1292L15.4664 17.7093H12.7455L12.0827 19.1744H10.2687L12.9897 12.8256H15.1874L17.6641 18.407V12.8256H20.1408L21.9548 17.0814L23.7687 12.8256H26.2455L26.3153 19.1744ZM39.9199 19.1744H37.6874L35.9781 17.186L34.2687 19.1744H27.3618V12.8256H34.2339L36.0827 14.814L37.792 12.8256H39.9199L37.0246 16L39.9199 19.1744Z" fill="#11A0DC"/>
<path d="M32.7688 14.2558H29.3502V15.1977H32.6292V16.6628H29.3502V17.7093H32.7688V18.6163L35.1757 16L32.7688 13.2093V14.2558Z" fill="#11A0DC"/>
</svg>
