<svg viewBox="0 0 51 32" fill="none" xmlns="http://www.w3.org/2000/svg">
    <path class="none" fill-rule="evenodd" clip-rule="evenodd" d="M4.77225 1H46.2639C48.3469 1 50.0361 2.68504 50.0361 4.76438V27.3506C50.0361 29.4293 48.3472 31.1143 46.2639 31.1143H4.77225C2.68928 31.1143 1 29.4289 1 27.3506V4.76438C1 2.68504 2.68893 1 4.77225 1Z" stroke="currentColor" stroke-miterlimit="10" stroke-width="1.5px"/>
    <path fill-rule="evenodd" clip-rule="evenodd" d="M1 5C1 2.79086 2.79086 1 5 1H45.9624C48.1656 1 49.954 2.78171 49.9623 4.98496L50 15C47.2237 14.0309 41.6016 12.4274 33.9013 11.6375C32.9428 8.43352 29.9144 6.02922 25.4539 6.00025C21.0063 5.97136 18.3732 8.48049 17.1423 11.4696C12.13 11.871 6.71702 12.7046 1 14.1525V5ZM1 18.8993C25.4276 12.6772 41.1196 17.069 49.9473 20.0001L49.9565 19.1505L50 19.1645V27.0001C50 29.2092 48.2091 31.0001 46 31.0001H5C2.79086 31.0001 1 29.2092 1 27.0001V18.8993ZM11.9355 24.4267L15.2135 20.4241H16.4209L19.9132 24.4267H18.6344L17.6395 23.2151H14.0663L13.126 24.4267H11.9355ZM17.2916 22.7841H14.3991L15.3357 21.6172C15.5261 21.3765 15.6808 21.1181 15.7965 20.8474C15.9779 21.1334 16.1795 21.4104 16.4002 21.6772L17.2916 22.7841ZM25.6548 24.4267V24.0018C25.1721 24.3292 24.5176 24.4929 23.6914 24.4929C23.3474 24.4951 23.0044 24.4625 22.6702 24.3959C22.4179 24.3535 22.1786 24.2697 21.9669 24.1496C21.8183 24.0567 21.7059 23.9305 21.6434 23.7863C21.5927 23.636 21.5711 23.4802 21.5795 23.3244V21.5309H22.627V23.1366C22.6154 23.3112 22.637 23.4862 22.6909 23.6554C22.7754 23.7994 22.9262 23.9102 23.1103 23.9633C23.3635 24.0421 23.6332 24.0793 23.9039 24.0726C24.204 24.0745 24.5026 24.0366 24.7878 23.9602C25.0175 23.9106 25.2222 23.8028 25.3727 23.6523C25.501 23.4828 25.5615 23.2848 25.5457 23.0858V21.5309H26.5932V24.4267H25.6548ZM29.134 24.4267V21.5309H30.0743V21.9697C30.2594 21.7972 30.4869 21.6587 30.7419 21.5633C30.9562 21.4962 31.1839 21.4628 31.4133 21.4648C31.7806 21.4656 32.145 21.5176 32.4909 21.6187L32.1298 22.0805C31.8832 22.0098 31.6238 21.9734 31.3625 21.9728C31.1503 21.97 30.9397 22.0031 30.7438 22.0698C30.5807 22.1212 30.4436 22.2161 30.3545 22.3392C30.2371 22.5146 30.1768 22.7118 30.1796 22.9118V24.4282L29.134 24.4267ZM38.0614 24.0695C37.7024 24.2149 37.3236 24.3249 36.933 24.3974C36.5527 24.4626 36.165 24.4946 35.7764 24.4929C35.0975 24.4929 34.5765 24.4159 34.2098 24.2604C33.8431 24.1049 33.6625 23.9063 33.6625 23.6646C33.6634 23.5917 33.6822 23.5196 33.7177 23.4527C33.7533 23.3858 33.8048 23.3254 33.8694 23.2752C34.0218 23.1499 34.2061 23.0537 34.4092 22.9934C34.6526 22.9207 34.9048 22.8691 35.1614 22.8395C35.3664 22.8149 35.6767 22.7887 36.0905 22.7656C36.7171 22.7393 37.3413 22.6828 37.9598 22.5963V22.4685C37.9677 22.3819 37.9436 22.2953 37.8906 22.2201C37.8376 22.1449 37.7582 22.0844 37.6627 22.0467C37.2856 21.9185 36.878 21.8616 36.4703 21.8804C36.1001 21.8655 35.7296 21.9067 35.3777 22.002C35.1421 22.0839 34.955 22.2381 34.8568 22.4315L33.8337 22.3653C33.922 22.1655 34.0819 21.9922 34.2926 21.8681C34.573 21.7193 34.888 21.6197 35.2178 21.5756C35.6801 21.5033 36.1502 21.4692 36.6208 21.474C37.0521 21.4673 37.4831 21.4967 37.9072 21.5617C38.1649 21.5976 38.4123 21.6723 38.6368 21.7819C38.7845 21.8634 38.898 21.98 38.9622 22.1159C39.0046 22.2642 39.0217 22.4165 39.013 22.5685V23.2228C38.9963 23.5124 39.019 23.8025 39.0807 24.088C39.1332 24.2199 39.2243 24.3393 39.3458 24.4359H38.2513C38.1431 24.3348 38.0709 24.2112 38.0426 24.0788L38.0614 24.0695ZM37.973 22.9734C37.4084 23.0674 36.8366 23.1297 36.2616 23.1597C35.9545 23.1742 35.6491 23.2066 35.3476 23.2567C35.1965 23.2799 35.0546 23.3327 34.9339 23.4106C34.8901 23.4382 34.8542 23.4733 34.8288 23.5135C34.8035 23.5537 34.7893 23.5979 34.7872 23.6431C34.7872 23.7739 34.8944 23.8832 35.105 23.971C35.3983 24.0706 35.7151 24.1153 36.0322 24.1019C36.397 24.1069 36.7606 24.0653 37.1098 23.9787C37.3753 23.9205 37.6157 23.8026 37.8037 23.6385C37.9287 23.4961 37.9886 23.3223 37.973 23.1474V22.9734Z"/>
</svg>
