<svg width="50" height="31" viewBox="0 0 50 31" fill="none" xmlns="http://www.w3.org/2000/svg">
<path d="M3.9284 0.5H45.4204C47.2283 0.5 48.6926 1.96223 48.6926 3.76438V26.351C48.6926 28.1524 47.2286 29.6147 45.4204 29.6147H3.9284C2.12055 29.6147 0.656494 28.1521 0.656494 26.351V3.76438C0.656494 1.96217 2.12058 0.5 3.9284 0.5Z" fill="white" stroke="#E1E1E1"/>
<rect x="14.4819" y="4.86467" width="20.3853" height="20.3853" fill="#FFED00"/>
<path fill-rule="evenodd" clip-rule="evenodd" d="M17.1909 20.7156L18.8147 19.581L20.4385 20.7156L17.1909 22.914V20.7156ZM32.9344 9.29827L31.3107 10.4329L29.6869 9.29827L32.9344 7.0999V9.29827ZM32.9344 17.6663L25.0274 22.914L17.1909 17.6663L26.5805 11.3548L28.2043 12.4895L20.6503 17.5244L25.2392 20.5738L27.3571 19.1555L25.7334 18.0209L29.6869 15.397L32.9344 17.6663ZM17.1909 12.3476L25.098 7.0999L33.005 12.3476L23.6154 18.6591L21.9916 17.5244L29.5457 12.4895L24.9568 9.4401L22.8388 10.8584L24.4626 11.9931L20.5091 14.6169L17.1909 12.3476Z" fill="#0059A2"/>
</svg>
