<svg width="50" height="32" viewBox="0 0 50 32" fill="none" xmlns="http://www.w3.org/2000/svg">
    <path d="M4.35733 0.686768H45.3849C47.4445 0.686768 49.1149 2.38171 49.1149 4.47406V27.1978C49.1149 29.2891 47.4455 30.9851 45.3849 30.9851H4.35733C2.29804 30.9851 0.627686 29.2891 0.627686 27.1978V4.47406C0.628032 2.38171 2.29804 0.686768 4.35733 0.686768Z" stroke="currentColor" stroke-miterlimit="10" fill="none" stroke-width="0.8px"/>
    <path d="M18.7028 11.12C18.3796 11.12 18.0924 10.8681 18.0924 10.5442C18.0924 10.5442 18.0924 10.5442 18.0924 10.5082C18.0924 10.1843 18.3437 9.89639 18.7028 9.89639C19.0619 9.89639 19.3133 10.1843 19.3133 10.5082C19.3133 10.8681 19.0619 11.12 18.7028 11.12ZM18.7028 9.75244C18.236 9.75244 17.9128 10.1123 17.9128 10.5082C17.9128 10.9041 18.236 11.2639 18.7028 11.2639C19.1696 11.2639 19.4928 10.9041 19.4928 10.5082C19.4928 10.1123 19.1696 9.75244 18.7028 9.75244V9.75244ZM16.5483 10.9041L16.656 11.012C16.5124 11.156 16.3328 11.2639 16.0456 11.2639C15.6146 11.2639 15.2556 10.9401 15.2556 10.5082C15.2556 10.0763 15.5787 9.75244 16.0456 9.75244C16.3328 9.75244 16.4765 9.8604 16.656 9.96837L16.5483 10.0763C16.4046 10.0044 16.261 9.93238 16.0456 9.93238C15.6865 9.93238 15.4351 10.1843 15.4351 10.5442C15.4351 10.9041 15.6865 11.156 16.0456 11.156C16.261 11.12 16.4046 11.048 16.5483 10.9041ZM13.6756 9.78843H13.8551V11.2639H13.7115L12.706 10.0763V11.2639H12.5265V9.78843H12.706L13.6756 10.976V9.78843ZM10.0129 10.7241L10.372 9.96837L10.7311 10.7241H10.0129V10.7241ZM10.3001 9.78843L9.58197 11.2639H9.76152L9.94106 10.8681H10.767L10.9465 11.2639H11.126L10.4079 9.78843C10.4438 9.78843 10.3001 9.78843 10.3001 9.78843ZM7.75062 11.12H7.2479V10.5802H7.75062C8.00198 10.5802 8.14562 10.6881 8.14562 10.8321C8.14562 11.012 8.00198 11.12 7.75062 11.12V11.12ZM7.2479 9.93238H7.71471C7.93017 9.93238 8.0738 10.0403 8.0738 10.1843C8.0738 10.3642 7.93017 10.4362 7.71471 10.4362H7.2479V9.93238ZM7.96608 10.5082C8.10971 10.4362 8.21744 10.3642 8.21744 10.1483C8.21744 9.93238 8.00198 9.78843 7.71471 9.78843H7.06836V11.2639H7.75062C8.0738 11.2639 8.32517 11.12 8.32517 10.8681C8.32517 10.6521 8.18153 10.5442 7.96608 10.5082V10.5082Z" fill="currentColor"/>
    <path d="M23.6941 9.03271V12.7395H26.7105V15.0068H23.6941V18.4617C23.6941 19.2174 24.0532 19.5413 24.7714 19.6133C25.5973 19.7212 26.2437 19.3614 26.7105 19.1454L26.7823 19.1094L27.7159 21.1248L27.68 21.1608C26.4591 21.7726 25.705 21.9525 24.7714 21.9525C22.5091 21.9525 21.2882 20.6929 21.2882 18.4257V10.2923L23.6941 9.03271ZM37.3395 12.9914H37.3036V21.6646H39.7094V14.8988C39.9967 14.8628 40.284 14.8268 40.8585 14.8268C41.4331 14.8268 41.7922 14.8988 42.1872 15.0068H42.2231L42.9412 12.7755H42.8694C42.1512 12.5956 41.5767 12.5236 40.6431 12.5236C39.7454 12.5236 38.3449 12.6315 37.3395 12.9914V12.9914ZM27.7159 17.31C27.7159 14.323 29.0804 12.5236 31.8454 12.5236C34.5745 12.5236 36.0467 14.0351 36.0467 17.0221L31.9891 19.0015L30.9477 17.0221L33.5331 15.6905C33.569 15.1147 32.815 14.7549 31.8813 14.7908C30.8041 14.8628 30.1936 15.3667 30.1936 17.2021C30.1936 19.0015 31.0554 19.6133 32.3481 19.6133C33.4972 19.6133 34.6104 19.4333 35.1849 19.2534H35.2208L35.939 21.4127H35.9031C34.9336 21.7366 33.6409 21.8805 32.3481 21.8805C29.2959 21.8805 27.7159 20.333 27.7159 17.31V17.31ZM11.7365 12.9914H11.7006V21.6646H14.1065V14.8988C14.5374 14.8268 14.8606 14.8268 15.5069 14.8268C16.6919 14.8268 17.2665 15.3307 17.2665 16.3383V21.7006H19.6723V16.4823C19.6723 13.9991 18.1642 12.5236 15.6865 12.5236C14.2501 12.5236 12.6342 12.7035 11.7365 12.9914V12.9914ZM7.06836 21.6646H9.47425V12.7395H7.06836V21.6646Z" fill="currentColor"/>
</svg>
