<svg width="50" height="31" viewBox="0 0 50 31" fill="none" xmlns="http://www.w3.org/2000/svg">
<path d="M21.7313 0.0539551H18.5117V18.8597H21.7313V0.0539551ZM1.67015e-09 3.30252V26.8542C1.67015e-09 28.3656 1.02835 29.6255 2.41466 29.9879V0.168462C1.02835 0.530893 1.67015e-09 1.79047 1.67015e-09 3.30252ZM17.7068 0.0539551H16.097V18.8597H17.7068V0.0539551ZM7.24364 30.1028H8.04852V0.0539551H7.24364V30.1028ZM14.4873 0.0539551H12.8775V18.8597H14.4873V0.0539551ZM4.02444 30.1028H6.4391V0.0539551H4.02444V30.1028ZM25.755 0.0539551H23.3403V18.8597H25.755V0.0539551ZM12.073 0.0539551H9.6583V18.8597H12.073V0.0539551ZM45.0719 30.1028H45.8765V0.0539551H45.0719V30.1028ZM41.8524 30.1028H44.2667V0.0539551H41.8524V30.1028ZM37.0227 18.8597H40.2426V0.0539551H37.0227V18.8597ZM47.4859 0.50463V29.6525C48.4442 29.0897 49.0957 28.0536 49.0957 26.8546V3.30252C49.0957 2.10283 48.4446 1.06701 47.4859 0.50463ZM31.3892 0.0539551H28.9739V18.8597H31.3892V0.0539551ZM27.3648 0.0539551H26.5602V18.8597H27.3648V0.0539551ZM33.8035 0.0539551H32.1937V18.8597H33.8035V0.0539551ZM36.2182 0.0539551H34.6084V18.8597H36.2182V0.0539551ZM29.8992 23.2471H31.3023V27.2433H32.4078V23.2471H33.8116V22.2904H29.8992V23.2471ZM36.8024 22.1769C36.0697 22.1769 35.4529 22.4217 34.9527 22.9102C34.4518 23.399 34.2014 24.0083 34.2014 24.735C34.2014 25.4626 34.4518 26.0705 34.9527 26.5608C35.4536 27.0493 36.0697 27.294 36.8024 27.294C37.5351 27.294 38.1516 27.0493 38.6521 26.5608C39.153 26.0712 39.4038 25.4626 39.4038 24.735C39.4038 24.0083 39.1523 23.3997 38.6521 22.9102C38.1516 22.4217 37.5351 22.1769 36.8024 22.1769ZM37.8518 25.8653C37.5674 26.1752 37.2192 26.3297 36.8059 26.3297C36.3926 26.3297 36.0445 26.1752 35.7608 25.8653C35.4774 25.5561 35.3352 25.1807 35.3352 24.7388C35.3352 24.2969 35.4774 23.9201 35.7608 23.6081C36.0448 23.2957 36.393 23.1403 36.8059 23.1403C37.2199 23.1403 37.5681 23.2957 37.8518 23.6081C38.1351 23.9201 38.2766 24.2969 38.2766 24.7388C38.2766 25.1807 38.1351 25.5561 37.8518 25.8653ZM13.8593 24.6712C13.9444 24.6341 14.0036 24.6061 14.0365 24.5903C14.0694 24.5742 14.1286 24.5322 14.2137 24.4664C14.4642 24.2769 14.5892 23.9891 14.5892 23.6011C14.5892 23.2803 14.4785 22.9925 14.2561 22.7372C14.1332 22.5996 13.95 22.4917 13.7069 22.4108C13.4638 22.33 13.1742 22.29 12.8386 22.29H10.9108V27.2433H13.0796C13.7601 27.2433 14.2375 27.0899 14.5114 26.7831C14.7475 26.5184 14.8659 26.2141 14.8659 25.8688C14.8659 25.5568 14.7748 25.2963 14.5931 25.0869C14.4113 24.8757 14.1664 24.7374 13.8593 24.6712ZM12.0166 23.2254H12.5483C12.8743 23.2254 13.1059 23.2611 13.2428 23.3322C13.3798 23.4032 13.4481 23.5482 13.4481 23.7678C13.4481 23.9873 13.3738 24.1309 13.225 24.1971C13.0761 24.2629 12.8481 24.2958 12.5409 24.2958H12.0166V23.2254ZM13.4873 26.1913C13.329 26.2694 13.0915 26.3076 12.7749 26.3076H12.0166V25.1667H12.6684C13.0372 25.1667 13.3052 25.2035 13.4729 25.2767C13.6407 25.3499 13.7244 25.5011 13.7244 25.7302C13.7244 25.9588 13.6456 26.1136 13.4873 26.1913ZM26.7805 25.2382H28.9991V24.2958H26.7805V23.2754H29.2474V22.2904H25.6744V27.2433H29.3248V26.2652H26.7805V25.2382ZM22.7547 22.2904H21.649V27.2433H24.8671V26.2582H22.7551L22.7547 22.2904ZM18.1124 22.1769C17.38 22.1769 16.7632 22.4217 16.2624 22.9102C15.7615 23.399 15.5111 24.0083 15.5111 24.735C15.5111 25.4626 15.7615 26.0705 16.2624 26.5608C16.7632 27.0493 17.3797 27.294 18.1124 27.294C18.8445 27.294 19.4613 27.0493 19.9621 26.5608C20.463 26.0712 20.7134 25.4626 20.7134 24.735C20.7134 24.0083 20.463 23.3997 19.9621 22.9102C19.4613 22.4217 18.8445 22.1769 18.1124 22.1769ZM19.1611 25.8653C18.8777 26.1752 18.5289 26.3297 18.1156 26.3297C17.7023 26.3297 17.3538 26.1752 17.0701 25.8653C16.7867 25.5561 16.6448 25.1807 16.6448 24.7388C16.6448 24.2969 16.7867 23.9201 17.0701 23.6081C17.3538 23.2957 17.7023 23.1403 18.1156 23.1403C18.5289 23.1403 18.8777 23.2957 19.1611 23.6081C19.4448 23.9201 19.5866 24.2969 19.5866 24.7388C19.5866 25.1807 19.4448 25.5561 19.1611 25.8653Z" fill="black"/>
</svg>
