<svg version="1.1" class="dooca-svg" id="diners" xmlns="http://www.w3.org/2000/svg" xmlns:xlink="http://www.w3.org/1999/xlink" x="0px" y="0px" width="100px"
	 viewBox="0 0 144 90" xml:space="preserve">
	 <path class="bg" fill="none" stroke="#000000" stroke-width="2" stroke-miterlimit="10" d="M12.83,2.158h118.463
	 	c5.947,0,10.77,4.811,10.77,10.75v64.5c0,5.936-4.82,10.75-10.77,10.75H12.83c-5.946,0-10.769-4.814-10.769-10.75v-64.5
	 	C2.062,6.969,6.884,2.158,12.83,2.158z"/>
	 <path class="icon" d="M88.109,19.768H56.014c-14.023,0-25.392,11.367-25.392,25.392c0,14.023,11.368,25.39,25.392,25.39h32.095
	 	c14.023,0,25.394-11.366,25.394-25.39C113.502,31.135,102.134,19.768,88.109,19.768z M56.014,68.682
	 	c-12.991,0-23.523-10.531-23.523-23.521c0-12.991,10.532-23.523,23.523-23.523c12.99,0,23.521,10.532,23.521,23.523
	 	C79.535,58.15,69.004,68.682,56.014,68.682z M40.836,45.159c0,6.638,4.262,12.28,10.197,14.341l-0.03-28.672
	 	C45.082,32.898,40.836,38.532,40.836,45.159z M61.024,30.828L60.993,59.5c5.938-2.061,10.198-7.703,10.198-14.341
	 	C71.191,38.532,66.945,32.898,61.024,30.828z"/>
</svg>
