<svg width="51" height="32" viewBox="0 0 51 32" fill="none" xmlns="http://www.w3.org/2000/svg">
<path d="M4.85743 1H46.1466C48.2024 1 49.9097 2.67247 49.9097 4.76307V27.2369C49.9097 29.2927 48.2372 31 46.1466 31H4.85743C2.80169 30.9652 1.12921 29.2927 1.12921 27.2369V4.76307C1.12921 2.67247 2.80169 1 4.85743 1Z" fill="white" stroke="#E1E1E1" stroke-miterlimit="10"/>
<path d="M31.0944 7.13241H19.9097C15.0317 7.13241 11.0595 11.1045 11.0595 15.9826C11.0595 20.8606 15.0317 24.8328 19.9097 24.8328H31.0944C35.9724 24.8328 39.9446 20.8606 39.9446 15.9826C39.9446 11.1045 35.9724 7.13241 31.0944 7.13241ZM19.9097 24.2056C15.3801 24.2056 11.7216 20.5122 11.7216 15.9826C11.7216 11.453 15.3801 7.79443 19.9097 7.79443C24.4393 7.79443 28.0979 11.453 28.0979 15.9826C28.0979 20.5122 24.4393 24.2056 19.9097 24.2056Z" fill="#004C97"/>
<path d="M14.6136 15.9826C14.6136 18.2822 16.1118 20.2683 18.1676 20.9651V10.9651C16.1118 11.7317 14.6136 13.6829 14.6136 15.9826Z" fill="#004C97"/>
<path d="M21.6519 11V21C23.7076 20.2683 25.2059 18.3171 25.2059 16.0174C25.2059 13.6829 23.7076 11.7317 21.6519 11Z" fill="#004C97"/>
</svg>
