<svg width="49" height="30" viewBox="0 0 49 30" fill="none" xmlns="http://www.w3.org/2000/svg">
  <path d="M6.16003 12.4497C6.16003 13.7412 6.16003 15.0208 6.16003 16.3146C6.3903 16.3146 6.60757 16.3255 6.82326 16.3123C7.30314 16.283 7.75585 16.1757 8.12929 15.8635C8.98663 15.1466 9.0351 13.7854 8.23397 13.0071C7.65577 12.4451 6.91855 12.433 6.16003 12.4497Z" fill="currentColor"/>
  <path d="M42.2051 13.2282C42.2013 12.9129 42.0742 12.661 41.7673 12.5134C41.422 12.3473 41.0503 12.3699 40.6747 12.3823C40.6747 12.9749 40.6747 13.555 40.6747 14.1509C41.0566 14.1512 41.4339 14.1739 41.7789 13.994C42.0965 13.828 42.2091 13.5554 42.2051 13.2282Z" fill="currentColor"/>
  <path d="M44.6361 0H3.85312C1.72874 0 0 1.62869 0 3.63085V26.3692C0 28.3713 1.72874 30 3.85312 30H44.6361C46.7613 30 48.49 28.3713 48.49 26.3692V3.63085C48.49 1.62869 46.7613 0 44.6361 0ZM46.8385 17.5202C46.9403 17.4592 47.0424 17.3971 47.1464 17.3334L47.1547 17.3283C47.1983 17.3016 47.2446 17.2731 47.289 17.2458V26.3691C47.289 27.7474 46.099 28.8685 44.6361 28.8685H14.0517C14.0674 28.8655 14.0833 28.8631 14.099 28.86C15.8442 28.5156 17.5923 28.181 19.3275 27.7958C22.6941 27.0483 26.0139 26.1431 29.2902 25.0954C33.5585 23.7305 37.7231 22.1331 41.7471 20.2153C43.4859 19.3866 45.1922 18.5038 46.8385 17.5202ZM39.4555 11.4558C39.4788 11.4505 39.4924 11.4448 39.506 11.4449C40.1955 11.4494 40.8855 11.4433 41.5743 11.4655C41.8158 11.4733 42.0626 11.5281 42.294 11.5994C43.0793 11.8416 43.5157 12.4776 43.4636 13.2567C43.434 13.7012 43.3143 14.106 42.9598 14.4248C42.7412 14.6212 42.4788 14.7389 42.1925 14.8166C42.151 14.8277 42.1093 14.838 42.0496 14.8534C42.7004 15.6736 43.3441 16.4851 44.0081 17.322C43.7113 17.322 43.4482 17.322 43.1853 17.322C43.002 17.322 42.8184 17.3163 42.6356 17.3241C42.5354 17.3286 42.4801 17.2928 42.4263 17.2166C41.919 16.4982 41.4067 15.7829 40.898 15.0654C40.8461 14.9922 40.7977 14.9297 40.6735 14.9765C40.6735 15.7465 40.6735 16.5251 40.6735 17.3127C40.2584 17.3127 39.8611 17.3127 39.4555 17.3127C39.4555 15.3603 39.4555 13.4126 39.4555 11.4558ZM35.2083 11.4504C36.3537 11.4504 37.4898 11.4504 38.6374 11.4504C38.6374 11.7811 38.6374 12.1053 38.6374 12.4416C37.9047 12.4416 37.1734 12.4416 36.4306 12.4416C36.4306 12.8772 36.4306 13.301 36.4306 13.7406C37.1362 13.7406 37.8379 13.7406 38.5505 13.7406C38.5505 14.0799 38.5505 14.4035 38.5505 14.7405C37.8425 14.7405 37.1407 14.7405 36.4291 14.7405C36.4291 15.2699 36.4291 15.7859 36.4291 16.3185C37.1663 16.3185 37.901 16.3185 38.6418 16.3185C38.6418 16.6565 38.6418 16.9775 38.6418 17.3103C37.497 17.3103 36.3578 17.3103 35.2083 17.3103C35.2083 15.3616 35.2083 13.4145 35.2083 11.4504ZM29.9248 11.4493C29.9634 11.4501 30.0156 11.519 30.0357 11.5661C30.4657 12.5778 30.8917 13.5913 31.3189 14.6041C31.4238 14.8529 31.5298 15.1014 31.6454 15.3738C31.6748 15.3119 31.6968 15.2699 31.7154 15.2268C32.2371 14.0048 32.7592 12.7831 33.2781 11.5604C33.313 11.4782 33.3517 11.4392 33.454 11.441C33.8445 11.4473 34.235 11.4436 34.6483 11.4436C34.6248 11.502 34.6081 11.5469 34.5885 11.5907C33.7298 13.5117 32.87 15.4322 32.0145 17.3543C31.9738 17.4458 31.9244 17.4772 31.8231 17.4716C31.6836 17.4639 31.5426 17.4767 31.4037 17.466C31.3546 17.4622 31.2835 17.4248 31.2664 17.3856C30.4012 15.4277 29.541 13.4679 28.6806 11.508C28.6754 11.4962 28.6764 11.4819 28.6711 11.444C29.0974 11.444 29.5112 11.4407 29.9248 11.4493ZM25.5802 11.3525C27.4505 11.3419 28.9096 12.7264 28.8798 14.3875C28.9097 16.069 27.4408 17.4417 25.5787 17.4392C23.7044 17.4366 22.265 16.1218 22.2757 14.3519C22.286 12.6805 23.7441 11.3632 25.5802 11.3525ZM19.6038 11.3831C20.3295 11.2358 21.0338 11.3092 21.7007 11.6293C21.744 11.6501 21.8004 11.7002 21.8011 11.7377C21.8082 12.1546 21.8056 12.5721 21.8056 13.0048C21.6098 12.8667 21.4424 12.7274 21.2546 12.6197C20.53 12.2041 19.5991 12.3013 18.9454 12.8493C17.9697 13.6677 18.015 15.2649 19.0347 16.0048C19.7992 16.5595 20.8651 16.5311 21.5949 15.9363C21.6562 15.8864 21.7171 15.8358 21.8059 15.763C21.8059 15.8507 21.8059 15.9114 21.8059 15.9723C21.8057 16.3178 21.8039 16.6633 21.8075 17.0089C21.8084 17.0824 21.7841 17.1209 21.7116 17.1537C20.2227 17.8231 18.3981 17.3666 17.5119 16.0763C16.2887 14.2952 17.2564 11.8604 19.6038 11.3831ZM15.3333 15.4363C15.2834 15.2231 15.152 15.0607 14.95 14.9653C14.7223 14.858 14.4819 14.7743 14.247 14.6807C13.9943 14.58 13.7354 14.4912 13.4901 14.3763C12.7045 14.0086 12.4638 13.3665 12.6877 12.5659C12.8748 11.8963 13.524 11.4276 14.3266 11.3606C15.0827 11.2972 15.7557 11.5024 16.3413 11.9589C16.3559 11.9702 16.3672 11.9851 16.3905 12.0087C16.1756 12.273 15.9686 12.5277 15.7564 12.7886C15.5234 12.5546 15.2773 12.366 14.9429 12.3259C14.6082 12.2859 14.295 12.3373 14.0463 12.5717C13.7781 12.8246 13.8094 13.2021 14.1302 13.3895C14.3453 13.515 14.5888 13.5977 14.8195 13.6996C15.1719 13.8558 15.5364 13.9918 15.874 14.1727C16.3621 14.4342 16.5821 14.8572 16.6044 15.3821C16.6337 16.0766 16.4106 16.6643 15.7995 17.0842C15.3383 17.401 14.808 17.4896 14.2484 17.4586C13.3965 17.4117 12.7708 17.013 12.3182 16.3739C12.5691 16.1211 12.8144 15.874 13.0503 15.6364C13.2029 15.8022 13.324 15.9693 13.4809 16.0972C13.8313 16.3825 14.2479 16.4758 14.6979 16.3704C15.1549 16.2636 15.4294 15.8457 15.3333 15.4363ZM10.6344 11.4548C11.0335 11.4548 11.4299 11.4548 11.8359 11.4548C11.8359 13.4054 11.8359 15.3526 11.8359 17.3147C11.4311 17.3147 11.0376 17.3147 10.6344 17.3147C10.6344 15.3601 10.6344 13.4131 10.6344 11.4548ZM7.3755 17.2728C6.82739 17.3337 6.26875 17.3099 5.71469 17.3212C5.46008 17.3263 5.20528 17.322 4.93612 17.322C4.93612 15.3556 4.93612 13.4108 4.93612 11.46C4.96027 11.4544 4.98235 11.4446 5.00443 11.4448C5.69395 11.4494 6.38592 11.4234 7.07271 11.4676C8.17332 11.5385 9.09613 11.96 9.65595 12.8934C10.7584 14.7315 9.55539 17.0294 7.3755 17.2728Z" fill="currentColor"/>
</svg>
