<svg version="1.1" class="dooca-svg" id="elo" xmlns="http://www.w3.org/2000/svg" xmlns:xlink="http://www.w3.org/1999/xlink" x="0px" y="0px" width="100px"
	 viewBox="0 0 144 90" xml:space="preserve">
	 <path class="bg" fill="none" stroke="#000000" stroke-width="2" stroke-miterlimit="10" d="M12.754,1.81h118.461
	 	c5.947,0,10.77,4.812,10.77,10.75v64.5c0,5.936-4.821,10.75-10.77,10.75H12.754c-5.947,0-10.77-4.814-10.77-10.75v-64.5
	 	C1.984,6.621,6.807,1.81,12.754,1.81z"/>
	 <path class="icon" fill="#000000" d="M71.984,12.951c-17.594,0-31.857,14.264-31.857,31.858c0,17.593,14.264,31.858,31.857,31.858
	 	c17.596,0,31.859-14.265,31.859-31.858C103.843,27.215,89.58,12.951,71.984,12.951z M85.758,36.067c4.637,0,8.521,3.204,9.57,7.518
	 	l-4.342,0.363c-0.797-2.113-2.836-3.618-5.229-3.618c-0.664,0-1.301,0.117-1.891,0.329l-1.813-3.87
	 	C83.197,36.326,84.447,36.067,85.758,36.067z M52.92,54.245l2.303-3.5c2.318,1.385,4.648,1.16,6.988-0.677l2.928,2.996
	 	C61.633,56.393,56.996,56.72,52.92,54.245z M63.867,45.488V45.48l-4.035,1.773l-9.686,4.233c-1.035-1.553-1.639-3.418-1.639-5.426
	 	c0-5.407,4.381-9.79,9.789-9.79c4.615,0,8.482,3.193,9.518,7.491L63.867,45.488z M74.531,55.314l-3.574-1.512
	 	c-1.354-0.572-1.83-1.404-1.832-3.162L69.1,32.128h3.507v18.015c0,0.174,0.021,0.324,0.248,0.412l3.052,1.188L74.531,55.314z
	 	 M80.191,54.046c-2.588-1.774-4.285-4.753-4.285-8.128c0-3.131,1.463-5.918,3.74-7.723l2.266,3.672
	 	c-1.072,1.018-1.742,2.456-1.742,4.051c0,1.794,0.848,3.391,2.162,4.413L80.191,54.046z M85.758,55.77
	 	c-1.07,0-2.1-0.174-3.064-0.488l1.705-3.942c0.437,0.108,0.892,0.168,1.359,0.168c2.994,0,5.438-2.356,5.58-5.315l4.26,0.134
	 	C95.385,51.575,91.063,55.77,85.758,55.77z M58.297,40.461c-3.094,0-5.602,2.507-5.602,5.602c0,0.172,0.01,0.344,0.023,0.512
	 	l9.779-4.214C61.473,41.195,59.971,40.461,58.297,40.461z"/>
	 </svg>
