<svg version="1.1" class="dooca-svg" id="hipercard" xmlns="http://www.w3.org/2000/svg" xmlns:xlink="http://www.w3.org/1999/xlink" x="0px" y="0px" width="100px"
	 viewBox="0 0 144 90" xml:space="preserve">
	 <path class="bg" fill="none" stroke="#000000" stroke-width="2" stroke-miterlimit="10" d="M12.408,2.282H130.87
	 	c5.946,0,10.771,4.812,10.771,10.75v64.501c0,5.936-4.822,10.748-10.771,10.748H12.408c-5.947,0-10.77-4.813-10.77-10.748V13.032
	 	C1.639,7.093,6.461,2.282,12.408,2.282z"/>
	 <path class="icon" d="M39.412,35.176c0.596-0.41,1.362-2.278,0.486-3.056c-0.277-0.246-0.742-0.317-1.39-0.208
	 	c-0.601,0.102-0.946,0.305-1.181,0.625c-0.377,0.514-0.723,2.063-0.139,2.639C37.758,35.736,39.033,35.437,39.412,35.176z
	 	 M30.938,32.12c-0.427,2.769-0.907,5.483-1.39,8.196c-3.094,0.033-6.253,0.153-9.237-0.069c0.563-2.654,0.968-5.468,1.528-8.126
	 	h-3.334c-1.193,6.771-2.279,13.65-3.611,20.281h3.402c0.535-3.4,1.033-6.838,1.736-10.071c2.902-0.071,6.38-0.196,9.169,0.07
	 	c-0.575,3.361-1.271,6.603-1.806,10.001h3.402c1.094-6.87,2.246-13.683,3.612-20.281L30.938,32.12L30.938,32.12z M79.07,37.954
	 	c-2.647-1.07-4.729,0.738-5.694,2.431c0.22-0.753,0.31-1.636,0.485-2.431h-2.639c-0.645,5.004-1.596,9.702-2.5,14.446h2.986
	 	c0.418-2.816,0.6-6.612,1.526-9.308c0.742-2.153,2.687-3.987,5.488-2.986C78.764,39.313,78.99,38.707,79.07,37.954z M80.738,48.998
	 	c-0.275-0.711-0.348-1.887-0.278-2.779c0.155-2.006,0.886-4.45,2.015-5.556c1.558-1.526,4.633-1.273,7.084-0.417
	 	c0.076-0.827,0.242-1.564,0.349-2.361c-4.021-0.657-7.839-0.249-9.863,1.875c-1.979,2.078-3.278,6.857-2.36,9.863
	 	c1.073,3.518,5.893,3.709,9.793,2.361c0.174-0.707,0.265-1.496,0.418-2.224C85.762,50.869,81.686,51.445,80.738,48.998z
	 	 M114.285,38.023c-2.641-1.32-4.837,0.895-5.695,2.223c0.244-0.681,0.258-1.594,0.486-2.292h-2.641
	 	c-0.711,4.96-1.568,9.774-2.568,14.446h3.056c0.021-1.914,0.396-3.33,0.694-5.209c0.639-4.009,1.576-8.406,6.252-7.084
	 	C114.023,39.429,114.088,38.66,114.285,38.023z M36.355,37.954c-0.08,0.012-0.075,0.11-0.069,0.208
	 	c-0.658,4.921-1.548,9.611-2.5,14.238h2.986c0.718-4.953,1.54-9.804,2.569-14.446H36.355z M62.61,37.676
	 	c-2.158,0.167-3.982,0.787-5.278,2.153c-1.59,1.675-2.879,5.378-2.501,8.75c0.538,4.813,6.529,4.641,11.321,3.476
	 	c0.082-0.847,0.286-1.566,0.417-2.361c-1.975,0.738-5.401,1.77-7.433,0.483c-1.532-0.969-1.541-3.423-1.041-5.556
	 	c3.221-0.103,6.568-0.083,9.793,0c0.205-1.512,0.79-3.16,0.277-4.654C67.49,37.997,65.072,37.487,62.61,37.676z M65.458,42.955
	 	h-7.015c0.222-1.613,1.672-3.385,3.959-3.473C64.553,39.4,66.094,40.272,65.458,42.955z M51.289,37.954
	 	c-2.528-0.95-5.609,0.184-6.944,1.262c0.005,0.047-0.032,0.054-0.071,0.058c0.023-0.02,0.048-0.039,0.071-0.058
	 	c-0.001-0.004-0.001-0.007-0.001-0.012c0.021-0.463,0.186-0.786,0.208-1.25h-2.569c-1.071,7.125-2.342,14.05-3.682,20.907h2.986
	 	c0.432-2.67,0.718-5.488,1.32-7.988c0.682,2.631,5.135,2.127,7.015,1.111C53.5,49.889,56.49,39.908,51.289,37.954z M48.928,49.693
	 	c-1.598,1.69-5.527,1.666-5.835-1.183c-0.134-1.237,0.327-2.538,0.556-3.82c0.231-1.297,0.396-2.542,0.625-3.681
	 	c1.574-1.922,6.199-2.154,6.668,1.042C51.349,44.827,50.25,48.291,48.928,49.693z M125.398,31.703
	 	c-0.258,2.244-0.6,4.403-1.043,6.459c-7.326-2.319-11.818,3.071-11.737,9.724c0.016,1.287,0.237,2.563,1.042,3.474
	 	c1.387,1.567,5.357,1.942,7.361,0.625c0.389-0.256,0.785-0.719,1.043-1.041c0.192-0.244,0.5-0.879,0.556-0.695
	 	c-0.104,0.705-0.265,1.357-0.278,2.152h2.709c0.522-7.488,2.137-13.884,3.334-20.697H125.398z M118.73,50.803
	 	c-2.012,0.045-3.012-1.201-3.058-3.264c-0.08-3.613,1.505-7.627,4.724-7.987c1.498-0.167,2.584,0.181,3.682,0.556
	 	C123.07,44.166,123.436,50.703,118.73,50.803z M92.962,37.954c-0.147,0.825-0.372,1.572-0.556,2.361
	 	c1.763-0.442,7.25-1.797,7.779,0.556c0.176,0.782-0.127,1.612-0.349,2.223c-4.963-0.47-9.007,0.354-10.069,3.891
	 	c-0.713,2.367,0.08,4.697,1.598,5.349c2.923,1.252,6.479-0.183,7.709-2.153c-0.129,0.684-0.249,1.372-0.208,2.223h2.569
	 	c0.026-2.461,0.385-4.453,0.764-6.668c0.322-1.885,0.93-3.752,0.834-5.417C102.813,36.503,96.497,37.852,92.962,37.954z
	 	 M97.824,49.623c-1.539,1.506-5.859,1.934-5.418-1.668c0.367-2.991,3.625-3.626,7.154-3.194
	 	C99.298,46.396,98.997,48.475,97.824,49.623z"/>
	 </svg>
