<svg version="1.1" class="dooca-svg" id="hiper" xmlns="http://www.w3.org/2000/svg" xmlns:xlink="http://www.w3.org/1999/xlink" x="0px" y="0px" width="100px"
	 viewBox="0 0 144 90" xml:space="preserve">
	 <path class="bg" fill="none" stroke="#000000" stroke-width="2" stroke-miterlimit="10" d="M12.696,2.254h118.463
	 	c5.946,0,10.771,4.812,10.771,10.75v64.5c0,5.936-4.822,10.748-10.771,10.748H12.696c-5.946,0-10.769-4.813-10.769-10.748v-64.5
	 	C1.927,7.066,6.75,2.254,12.696,2.254z"/>
	 <path class="icon" d="M73.343,56.366c-3.699,0-3.1,4.887-3.084,7.446c0.004,0.547,0.037,1.095,0.051,1.642h2.598
	 	c2.605,0,3.785-1.668,3.785-3.41C76.691,60.305,76.566,56.366,73.343,56.366z M91.366,55.753c-2.179,0-3.062,1.974-3.197,3.369
	 	h6.125C94.294,57.861,93.749,55.753,91.366,55.753z M119.402,76.229L106.639,22.54c-1.863-7.836-9.802-12.723-17.636-10.86
	 	L35.314,24.445c-7.836,1.863-12.723,9.799-10.859,17.636l10.848,45.625h82.035C119.507,84.438,120.376,80.318,119.402,76.229z
	 	 M59.384,45.47c1.47,0,2.659,1.191,2.659,2.66c0,1.47-1.189,2.658-2.659,2.658c-1.469,0-2.659-1.188-2.659-2.658
	 	C56.725,46.661,57.916,45.47,59.384,45.47z M54.122,69.331h-5.173v-9.597h-8.542v9.597H35.2V46.395h5.207v8.813h8.542v-8.813h5.173
	 	V69.331z M72.907,69.521h-2.521c0.023,2.127,0.029,4.259,0.029,6.392h-5.321c0-2.045,0.016-4.188,0.028-6.392
	 	c-5.749-0.021-8.397-3.672-8.397-7.479v-9.377h5.318v9.377c0,1.74,0.966,3.408,3.101,3.41c0.015-4.221-0.002-8.568-0.145-12.787
	 	h4.445c0.098,0.813,0.186,1.627,0.266,2.443c2.098-4.199,8.715-3.275,10.938,0.27C82.95,59.042,83.732,69.521,72.907,69.521z
	 	 M98.923,62.661H88.202c0.17,2.146,2.28,3.166,4.696,3.166c1.771,0,3.199-0.238,4.597-0.683l0.68,3.506
	 	c-1.7,0.681-3.778,1.021-6.024,1.021c-5.648,0-8.883-3.268-8.883-8.475c0-4.221,2.621-8.883,8.407-8.883
	 	c5.377,0,7.418,4.186,7.418,8.305C99.093,61.503,98.991,62.286,98.923,62.661z M110.96,57.251c-0.373-0.067-0.815-0.137-1.396-0.137
	 	c-1.905,0-3.198,1.021-3.539,2.62c-0.067,0.341-0.102,0.748-0.102,1.156v8.439h-5.174V58.169c0-2.451-0.068-4.051-0.137-5.479h4.459
	 	l0.17,3.063h0.135c0.854-2.418,2.895-3.438,4.494-3.438c0.477,0,0.715,0,1.088,0.066L110.96,57.251L110.96,57.251z"/>
	 </svg>
