<svg width="51" height="32" viewBox="0 0 51 32" fill="none" xmlns="http://www.w3.org/2000/svg">
<path d="M5.12489 0.777588H46.5857C48.6668 0.777588 50.3555 2.45621 50.3555 4.52763V27.0282C50.3555 29.099 48.6678 30.7776 46.5857 30.7776H5.12489C3.04348 30.7776 1.35547 29.0986 1.35547 27.0282V4.52763C1.35582 2.45586 3.04348 0.777588 5.12489 0.777588Z" fill="white" stroke="#E1E1E1" stroke-miterlimit="10"/>
<path d="M24.6977 10.0834V13.3507H27.3626V15.3494H24.6977V18.3946C24.6977 19.0609 25.0149 19.3464 25.6492 19.4099C26.3789 19.505 26.95 19.1878 27.3623 18.9974L27.4258 18.9658L28.2506 20.7424L28.2187 20.7737C27.1402 21.3135 26.474 21.4718 25.6492 21.4718C23.6506 21.4718 22.5724 20.3614 22.5724 18.3628V11.1938L24.6977 10.0834ZM36.7523 13.5728H36.7204V21.2184H38.8458V15.2543C39.0997 15.2224 39.3534 15.1908 39.861 15.1908C40.3687 15.1908 40.6858 15.2543 41.0346 15.3494H41.0665L41.7008 13.3826H41.6373C41.003 13.224 40.4954 13.1605 39.6706 13.1605C38.8777 13.1605 37.6406 13.2556 36.7523 13.5728ZM28.1871 17.1892C28.1871 14.5562 29.4561 13.1605 31.8986 13.1605C34.3095 13.1605 35.61 14.493 35.61 17.1257L32.0256 18.8704L31.1057 17.1257L33.3896 15.9521C33.4212 15.4445 32.7553 15.1273 31.9305 15.1589C30.9787 15.2224 30.4394 15.6666 30.4394 17.2843C30.4394 18.8704 31.2008 19.4099 32.3427 19.4099C33.358 19.4099 34.3414 19.2513 34.8487 19.0925H34.8806L35.515 20.996H35.4834C34.6267 21.2813 33.4847 21.4083 32.343 21.4083C29.6462 21.4083 28.2506 20.0445 28.2506 17.3796L28.1871 17.1892ZM14.1339 13.5728H14.1025V21.2184H16.2276V15.2543C16.6083 15.1908 16.8938 15.1908 17.465 15.1908C18.5118 15.1908 19.0195 15.635 19.0195 16.5232V21.2497H21.1448V16.6499C21.1448 14.4611 19.8124 13.1605 17.6235 13.1605C16.3546 13.1605 14.9273 13.3191 14.1341 13.5728H14.1339ZM10.0101 21.2184H12.1355V13.3507H10.0101V21.2184Z" fill="#FF7A00"/>
</svg>
