<svg viewBox="0 0 144 91" fill="none" xmlns="http://www.w3.org/2000/svg">
    <path d="M12.604 2.4834H131.066C137.013 2.4834 141.836 7.2954 141.836 13.2334V77.7334C141.836 83.6694 137.014 88.4834 131.066 88.4834H12.604C6.65698 88.4834 1.83398 83.6694 1.83398 77.7334V13.2334C1.83398 7.2944 6.65598 2.4834 12.604 2.4834Z" stroke="currentColor" stroke-width="2" stroke-miterlimit="10" fill="none"/>
    <path fill-rule="evenodd" clip-rule="evenodd" d="M69.2754 63.0132C69.2754 64.4581 70.1138 65.2039 71.6974 65.2039C72.4892 65.2039 73.1879 64.9708 73.7934 64.4581C74.3989 64.1318 74.8647 63.5725 75.051 62.9666L75.0975 61.9878V60.2166C71.2316 60.17 69.2754 61.0556 69.2754 63.0132Z" fill="currentColor"/>
    <path fill-rule="evenodd" clip-rule="evenodd" d="M101.74 16.1695C99.6436 14.072 97.0819 13 94.0078 13H49.9922C46.9181 13 44.3098 14.072 42.1673 16.1695C40.0713 18.3136 39 20.9237 39 24V68C39 71.0297 40.0713 73.6398 42.1673 75.7839C44.3098 77.8813 46.9181 78.9534 49.9922 78.9534H94.0078C97.0819 78.9534 99.6436 77.8813 101.74 75.7839C103.929 73.6398 105 71.0297 105 68V24C105 20.9237 103.929 18.3136 101.74 16.1695ZM49.6662 68H44.4495V45.9534H49.6662V68ZM92.5639 45.9534H97.4079L92.9831 50.428H89.3966L92.5639 45.9534ZM59.7735 68.3729C58.0967 68.3729 56.6994 67.8602 55.7678 66.8813C54.7897 65.9025 54.3705 64.2246 54.3705 61.9873V55.322H52.0416V51.5466H54.3705V45.9534H59.3077V51.5466H62.4749V55.322H59.3077V61.1483C59.3077 62.2203 59.4474 63.0127 59.7269 63.4322C60.0995 64.0381 60.705 64.3178 61.4968 64.3178C62.0092 64.3178 62.2886 64.2246 62.4749 64.0847L62.5215 67.9534C61.7297 68.2797 60.8447 68.3729 59.7735 68.3729ZM80.0812 68H75.3769V66.2754H75.2371C74.0727 67.6737 72.3959 68.3729 70.1136 68.3729C68.4368 68.3729 67.0395 67.8602 65.9682 66.8813C65.0367 65.9025 64.4778 64.7373 64.4778 63.4322C64.4778 61.3347 65.4559 59.7034 67.2258 58.5847C68.9958 57.5127 71.5575 57 74.9111 57V56.8136C74.9111 55.322 73.8398 54.5763 71.5575 54.5763C69.741 54.5763 68.1108 54.9958 66.6669 55.8814L65.6888 52.6652C67.4587 51.5932 69.6944 51.0805 72.3959 51.0805C75.0042 51.0805 76.9605 51.8263 78.3112 53.2246C79.3825 54.4364 79.988 56.1144 79.988 58.3051V68H80.0812ZM99.4573 68H94.9393V65.3898H94.8927C93.7283 67.3475 91.8186 68.3729 89.2569 68.3729C87.3938 68.3729 85.9965 67.8602 84.832 66.7881C83.621 65.5297 82.9224 63.6186 82.9224 61.0551V51.5466H88.0459V60.2161C88.0459 62.9661 89.0706 64.3178 91.0268 64.3178C92.5639 64.3178 93.5886 63.572 94.1941 62.1737C94.2872 61.9407 94.3338 61.5678 94.3338 61.1483V51.5466H99.4573V68Z" fill="currentColor"/>
</svg>
