<svg width="50" height="32" viewBox="0 0 50 32" fill="none" xmlns="http://www.w3.org/2000/svg" style="fill: none;">
<path d="M4.35733 0.686768H45.3849C47.4445 0.686768 49.1149 2.38171 49.1149 4.47406V27.1978C49.1149 29.2891 47.4455 30.9851 45.3849 30.9851H4.35733C2.29804 30.9851 0.627686 29.2891 0.627686 27.1978V4.47406C0.628032 2.38171 2.29804 0.686768 4.35733 0.686768Z" stroke="currentColor" stroke-miterlimit="10"/>
<path fill-rule="evenodd" clip-rule="evenodd" d="M32.556 16.1925H32.5739H32.6085H32.6432H32.6778H32.7124H32.747H32.7817H32.8163H32.8509H32.8855H32.9201H32.9548H32.9894H33.024H33.0586H33.0932H33.1279H33.1625H33.1971H33.2317H33.2664H33.301H33.3356H33.3702H33.4048H33.4394H33.4741H33.5087H33.5433H33.5779H33.6125H33.6472H33.6818H33.7164H33.751H33.7857H33.8203H33.8549H33.8895H33.9241H33.9588H33.9934H34.028H34.0626H34.0972H34.1318H34.1665H34.2011H34.2357H34.2703H34.305H34.3396H34.3742H34.4088H34.4434H34.4781H34.5127H34.5473H34.5819H34.6165H34.6453L34.6512 16.1926C34.6618 16.1929 34.6735 16.1934 34.6858 16.1941C34.6969 16.1947 34.7085 16.1954 34.7204 16.1963C34.7318 16.1971 34.7434 16.1981 34.755 16.1992C34.7667 16.2002 34.7783 16.2014 34.7896 16.2027C34.8016 16.204 34.8132 16.2054 34.8243 16.2069C34.8367 16.2086 34.8483 16.2103 34.8589 16.2121C34.8665 16.2134 34.8735 16.2147 34.8798 16.2161L34.8935 16.2191C34.9051 16.2218 34.9166 16.2248 34.9281 16.228C34.9397 16.2312 34.9513 16.2346 34.9628 16.2382C34.9744 16.2419 34.9859 16.2459 34.9974 16.25C35.009 16.2542 35.0205 16.2587 35.032 16.2634C35.0436 16.2681 35.0552 16.2731 35.0666 16.2784C35.0783 16.2837 35.0898 16.2892 35.1012 16.295C35.1129 16.301 35.1244 16.3072 35.1358 16.3136C35.1475 16.3201 35.1591 16.327 35.1705 16.3341C35.1822 16.3414 35.1937 16.3489 35.2051 16.3567C35.2168 16.3647 35.2284 16.373 35.2397 16.3815C35.2514 16.3904 35.263 16.3995 35.2743 16.409C35.2861 16.4188 35.2976 16.4289 35.3089 16.4393C35.3208 16.4502 35.3323 16.4613 35.3436 16.4727C35.3555 16.4848 35.367 16.4973 35.3782 16.5101C35.3901 16.5236 35.4016 16.5376 35.4128 16.5519C35.4248 16.5673 35.4364 16.5831 35.4474 16.5993C35.4596 16.6171 35.4711 16.6353 35.4821 16.6541C35.4944 16.6752 35.5059 16.6969 35.5167 16.7192C35.5294 16.7457 35.541 16.7729 35.5513 16.801C35.5652 16.8386 35.5768 16.8777 35.5859 16.918C35.6018 16.9878 35.6103 17.0614 35.6103 17.1382C35.6103 17.2154 35.6018 17.2893 35.5859 17.3594C35.5768 17.3998 35.5652 17.4389 35.5513 17.4766C35.541 17.5047 35.5294 17.532 35.5167 17.5586C35.5059 17.5809 35.4944 17.6026 35.4821 17.6238C35.4711 17.6425 35.4596 17.6608 35.4474 17.6786C35.4364 17.6948 35.4248 17.7106 35.4128 17.726C35.4016 17.7404 35.3901 17.7543 35.3782 17.7678C35.367 17.7806 35.3554 17.793 35.3436 17.8051C35.3323 17.8166 35.3207 17.8277 35.3089 17.8385C35.2976 17.8489 35.2861 17.8589 35.2743 17.8687C35.263 17.8781 35.2515 17.8873 35.2397 17.8961C35.2284 17.9046 35.2168 17.9129 35.2051 17.9209C35.1937 17.9286 35.1822 17.9361 35.1705 17.9433C35.1591 17.9504 35.1475 17.9572 35.1358 17.9638C35.1244 17.9702 35.1129 17.9763 35.1012 17.9822C35.0898 17.988 35.0783 17.9935 35.0666 17.9988C35.0552 18.004 35.0436 18.0089 35.032 18.0137C35.0205 18.0183 35.009 18.0227 34.9974 18.0269C34.9859 18.031 34.9744 18.0348 34.9628 18.0385C34.9513 18.0421 34.9397 18.0455 34.9281 18.0486C34.9166 18.0517 34.9051 18.0546 34.8935 18.0573L34.8798 18.0603C34.8735 18.0618 34.8665 18.0632 34.8589 18.0645C34.8483 18.0664 34.8367 18.0682 34.8243 18.0699C34.8132 18.0714 34.8016 18.0728 34.7896 18.0741C34.7783 18.0754 34.7667 18.0765 34.755 18.0776C34.7434 18.0786 34.7318 18.0796 34.7204 18.0804C34.7085 18.0812 34.6969 18.082 34.6858 18.0825C34.6735 18.0832 34.6618 18.0836 34.6512 18.0839L34.6326 18.0841H34.6165H34.5819H34.5473H34.5127H34.4781H34.4434H34.4088H34.3742H34.3396H34.305H34.2703H34.2357H34.2011H34.1665H34.1318H34.0972H34.0626H34.028H33.9934H33.9588H33.9241H33.8895H33.8549H33.8203H33.7857H33.751H33.7164H33.6818H33.6472H33.6125H33.5779H33.5433H33.5087H33.4741H33.4394H33.4048H33.3702H33.3356H33.301H33.2664H33.2317H33.1971H33.1625H33.1279H33.0932H33.0586H33.024H32.9894H32.9548H32.9201H32.8855H32.8509H32.8163H32.7817H32.747H32.7124H32.6778H32.6432H32.6085H32.5739H32.556V16.1925ZM35.3437 14.0516C35.3576 14.1151 35.3651 14.1823 35.3651 14.2531C35.3651 14.3239 35.3576 14.3911 35.3437 14.4545C35.3347 14.4953 35.3231 14.5344 35.3091 14.572C35.2988 14.5994 35.2872 14.626 35.2744 14.6516C35.2637 14.6731 35.2522 14.6939 35.2398 14.7141C35.2289 14.7319 35.2173 14.7493 35.2052 14.7661C35.1941 14.7814 35.1826 14.7962 35.1706 14.8107C35.1594 14.8241 35.1479 14.8371 35.136 14.8498C35.1248 14.8616 35.1132 14.8731 35.1014 14.8843C35.0901 14.8949 35.0786 14.9052 35.0667 14.9152C35.0554 14.9247 35.0439 14.9339 35.0321 14.9428C35.0208 14.9514 35.0092 14.9597 34.9975 14.9677C34.9861 14.9755 34.9746 14.9829 34.9629 14.9901C34.9515 14.9971 34.9399 15.0039 34.9283 15.0103C34.9169 15.0166 34.9053 15.0227 34.8936 15.0285C34.8822 15.0342 34.8707 15.0396 34.859 15.0448C34.8476 15.0499 34.836 15.0547 34.8244 15.0593C34.8129 15.0638 34.8014 15.0681 34.7898 15.0721C34.7783 15.0761 34.7668 15.0799 34.7552 15.0834C34.7437 15.0868 34.7322 15.0901 34.7205 15.0931C34.7091 15.0961 34.6975 15.0989 34.6859 15.1014C34.6745 15.1039 34.6629 15.1061 34.6513 15.1082L34.6429 15.1097C34.6362 15.1109 34.6272 15.1122 34.6167 15.1135C34.6065 15.1148 34.5947 15.1162 34.5821 15.1174C34.5711 15.1186 34.5595 15.1197 34.5475 15.1207C34.5361 15.1216 34.5245 15.1224 34.5128 15.1232C34.5012 15.1239 34.4895 15.1246 34.4782 15.125C34.4662 15.1255 34.4546 15.1258 34.4436 15.1259L34.4381 15.1259H34.409H34.3743H34.3397H34.3051H34.2705H34.2359H34.2013H34.1667H34.132H34.0974H34.0628H34.0282H33.9935H33.9589H33.9243H33.8897H33.8551H33.8205H33.7858H33.7512H33.7166H33.682H33.6474H33.6127H33.5781H33.5435H33.5089H33.4743H33.4396H33.405H33.3704H33.3358H33.3012H33.2666H33.2319H33.1973H33.1627H33.1281H33.0934H33.0588H33.0242H32.9896H32.955H32.9204H32.8858H32.8511H32.8165H32.7819H32.7473H32.7126H32.678H32.6434H32.6088H32.5742H32.556V13.3803H32.5742H32.6088H32.6434H32.678H32.7126H32.7473H32.7819H32.8165H32.8511H32.8858H32.9204H32.955H32.9896H33.0242H33.0588H33.0934H33.1281H33.1627H33.1973H33.2319H33.2666H33.3012H33.3358H33.3704H33.405H33.4396H33.4743H33.5089H33.5435H33.5781H33.6127H33.6474H33.682H33.7166H33.7512H33.7858H33.8205H33.8551H33.8897H33.9243H33.9589H33.9935H34.0282H34.0628H34.0974H34.132H34.1667H34.2013H34.2359H34.2705H34.3051H34.3397H34.3743H34.409H34.4436H34.4582L34.4782 13.381C34.4895 13.3814 34.5012 13.3821 34.5128 13.3829C34.5245 13.3836 34.5361 13.3845 34.5475 13.3854C34.5595 13.3864 34.5711 13.3874 34.5821 13.3885C34.5947 13.3897 34.6065 13.391 34.6167 13.3922C34.6272 13.3934 34.6362 13.3945 34.6429 13.3955L34.6513 13.397C34.6629 13.3991 34.6745 13.4014 34.6859 13.4039C34.6975 13.4065 34.7091 13.4093 34.7205 13.4123C34.7322 13.4154 34.7437 13.4186 34.7552 13.4221C34.7668 13.4257 34.7783 13.4294 34.7898 13.4334C34.8014 13.4375 34.8129 13.4418 34.8244 13.4463C34.836 13.451 34.8476 13.4558 34.859 13.4609C34.8707 13.4661 34.8822 13.4715 34.8936 13.4772C34.9053 13.4831 34.9169 13.4891 34.9283 13.4954C34.9399 13.5019 34.9515 13.5087 34.9629 13.5157C34.9746 13.5229 34.9861 13.5303 34.9975 13.5381C35.0092 13.5461 35.0208 13.5545 35.0321 13.5631C35.0439 13.572 35.0554 13.5812 35.0667 13.5907C35.0786 13.6007 35.0901 13.611 35.1014 13.6216C35.1132 13.6328 35.1248 13.6443 35.136 13.6562C35.1479 13.6688 35.1594 13.6818 35.1706 13.6953C35.1826 13.7097 35.1941 13.7246 35.2052 13.7399C35.2173 13.7567 35.2289 13.774 35.2398 13.7919C35.2522 13.812 35.2637 13.8329 35.2744 13.8544C35.2872 13.88 35.2988 13.9066 35.3091 13.934C35.3231 13.9716 35.3347 14.0108 35.3437 14.0516ZM39.6371 5H39.6513L39.6513 22.9278C39.6513 23.0349 39.6463 23.1408 39.6371 23.2456C39.629 23.3377 39.6174 23.4289 39.6025 23.5189C39.5924 23.5794 39.5809 23.6394 39.5678 23.6988C39.5573 23.7471 39.5457 23.7951 39.5332 23.8427C39.5224 23.8838 39.5108 23.9246 39.4986 23.965C39.4875 24.0016 39.4761 24.0381 39.464 24.0742C39.4529 24.1069 39.4413 24.1394 39.4293 24.1717C39.4182 24.2018 39.4066 24.2317 39.3947 24.2614C39.3835 24.2893 39.372 24.317 39.3601 24.3446C39.3488 24.3707 39.3373 24.3966 39.3255 24.4224C39.3142 24.447 39.3026 24.4714 39.2908 24.4957C39.2795 24.5189 39.268 24.542 39.2562 24.565C39.2449 24.587 39.2333 24.6089 39.2216 24.6306C39.2103 24.6515 39.1987 24.6722 39.187 24.6929C39.1756 24.7128 39.1641 24.7327 39.1523 24.7524C39.141 24.7716 39.1294 24.7907 39.1177 24.8097C39.1063 24.8282 39.0948 24.8467 39.0831 24.8649C39.0717 24.8826 39.0601 24.9001 39.0484 24.9176C39.0371 24.9346 39.0255 24.9514 39.0138 24.9682C39.0024 24.9847 38.9909 25.0011 38.9792 25.0174C38.9678 25.0333 38.9562 25.0491 38.9446 25.0648C38.9332 25.0802 38.9216 25.0953 38.9099 25.1104C38.8985 25.1253 38.887 25.1401 38.8753 25.1548C38.8639 25.1693 38.8524 25.1836 38.8407 25.1978C38.8293 25.2117 38.8177 25.2255 38.8061 25.2392C38.7946 25.2528 38.7831 25.2665 38.7714 25.2799C38.76 25.293 38.7484 25.306 38.7368 25.3189C38.7254 25.3317 38.7138 25.3444 38.7022 25.357C38.6907 25.3695 38.6792 25.3819 38.6676 25.3942C38.6561 25.4062 38.6445 25.4181 38.6329 25.43C38.6214 25.4418 38.61 25.4537 38.5983 25.4653C38.5869 25.4767 38.5752 25.4878 38.5637 25.4991C38.5522 25.5102 38.5407 25.5214 38.529 25.5324C38.5176 25.5433 38.506 25.554 38.4944 25.5646C38.4829 25.5752 38.4714 25.5857 38.4598 25.5962C38.4483 25.6065 38.4368 25.6167 38.4252 25.6268C38.4137 25.6369 38.4021 25.6468 38.3905 25.6567C38.379 25.6665 38.3676 25.6763 38.3559 25.686C38.3445 25.6955 38.3329 25.7049 38.3213 25.7142C38.3098 25.7236 38.2983 25.7329 38.2867 25.7421C38.2752 25.7512 38.2636 25.76 38.252 25.7689C38.2405 25.7778 38.2291 25.7867 38.2174 25.7954C38.206 25.8041 38.1944 25.8125 38.1828 25.821C38.1713 25.8294 38.1598 25.8379 38.1482 25.8462C38.1367 25.8545 38.1251 25.8624 38.1135 25.8705C38.102 25.8785 38.0905 25.8866 38.0789 25.8945C38.0674 25.9023 38.0559 25.9099 38.0443 25.9176C38.0328 25.9252 38.0213 25.9329 38.0097 25.9404C37.9982 25.9478 37.9866 25.9551 37.975 25.9624C37.9635 25.9696 37.952 25.9769 37.9404 25.984C37.9289 25.9911 37.9174 25.998 37.9058 26.005L37.8712 26.0255C37.8596 26.0322 37.8481 26.0389 37.8365 26.0455C37.8251 26.052 37.8135 26.0584 37.8019 26.0648C37.7904 26.0712 37.7789 26.0777 37.7673 26.0839C37.7558 26.0901 37.7442 26.0961 37.7327 26.1022C37.7211 26.1083 37.7096 26.1145 37.698 26.1205C37.6866 26.1264 37.6749 26.132 37.6634 26.1377C37.6519 26.1435 37.6404 26.1493 37.6288 26.1549C37.6173 26.1605 37.6057 26.1659 37.5942 26.1714L37.5595 26.1876L37.5249 26.2032C37.5134 26.2084 37.5018 26.2134 37.4903 26.2184C37.4787 26.2234 37.4672 26.2285 37.4557 26.2334C37.4442 26.2382 37.4326 26.2428 37.421 26.2475C37.4095 26.2522 37.398 26.2571 37.3864 26.2617C37.3749 26.2662 37.3633 26.2706 37.3518 26.275C37.3403 26.2794 37.3288 26.2838 37.3172 26.2881L37.2825 26.3009C37.271 26.3051 37.2594 26.3091 37.2479 26.3131C37.2363 26.3171 37.2249 26.3213 37.2133 26.3253C37.2018 26.3291 37.1902 26.3327 37.1786 26.3365L37.144 26.3477C37.1325 26.3514 37.1209 26.3549 37.1094 26.3584L37.0748 26.3687C37.0632 26.3721 37.0517 26.3755 37.0401 26.3788C37.0286 26.3821 37.0171 26.3851 37.0055 26.3882C36.994 26.3913 36.9825 26.3945 36.9709 26.3975L36.9363 26.4063L36.9016 26.4147L36.867 26.423C36.8555 26.4256 36.8439 26.428 36.8324 26.4305C36.8208 26.433 36.8093 26.4356 36.7977 26.438L36.7631 26.445L36.7285 26.4516C36.717 26.4537 36.7054 26.4561 36.6939 26.4581C36.6824 26.4601 36.6708 26.4619 36.6592 26.4638L36.6246 26.4696L36.59 26.4748L36.5554 26.4796C36.5438 26.4812 36.5323 26.483 36.5207 26.4845C36.5092 26.4859 36.4976 26.4871 36.4861 26.4884C36.4746 26.4898 36.4631 26.4911 36.4515 26.4924C36.44 26.4936 36.4284 26.4949 36.4169 26.496C36.4054 26.4971 36.3938 26.4981 36.3822 26.4991C36.3707 26.5001 36.3592 26.5012 36.3476 26.5021C36.3361 26.503 36.3245 26.5037 36.313 26.5045L36.2784 26.5067C36.2668 26.5074 36.2553 26.5082 36.2437 26.5088C36.2322 26.5094 36.2206 26.5097 36.2091 26.5101L36.1745 26.5114L36.1399 26.5123C36.1283 26.5126 36.1168 26.5126 36.1052 26.5128L36.0706 26.5132L36.0635 26.5133H36.036H36.0014H35.9667H35.9321H35.8975H35.8629H35.8282H35.7936H35.759H35.7244H35.6897H35.6551H35.6205H35.5859H35.5512H35.5166H35.482H35.4473H35.4127H35.3781H35.3435H35.3088H35.2742H35.2396H35.205H35.1703H35.1357H35.1011H35.0664H35.0318H34.9972H34.9626H34.9279H34.8933H34.8587H34.8241H34.7894H34.7548H34.7202H34.6856H34.6509H34.6163H34.5817H34.5471H34.5124H34.4778H34.4432H34.4086H34.3739H34.3393H34.3047H34.2701H34.2354H34.2008H34.1662H34.1316H34.0969H34.0623H34.0277H33.9931H33.9584H33.9238H33.8892H33.8546H33.8199H33.7853H33.7507H33.716H33.6814H33.6468H33.6122H33.5775H33.5429H33.5083H33.4737H33.439H33.4044H33.3698H33.3352H33.3005H33.2659H33.2313H33.1966H33.162H33.1274H33.0928H33.0581H33.0235H32.9889H32.9543H32.9196H32.885H32.8504H32.8158H32.7811H32.7465H32.7119H32.6773H32.6426H32.608H32.5734H32.5388H32.5041H32.4695H32.4349H32.4003H32.3656H32.331H32.2964H32.2618H32.2271H32.1925H32.1579H32.1233H32.0886H32.054H32.0194H31.9848H31.9501H31.9155H31.8809H31.8462H31.8116H31.777H31.7424H31.7077H31.6731H31.6385H31.6039H31.5692H31.5346H31.5H31.4653H31.4307H31.3961H31.3615H31.3268H31.2922H31.2576H31.223H31.1883H31.1537H31.1191H31.0845H31.0498H31.0152H30.9806H30.946H30.9113H30.8767H30.802V19.2035H30.8767H30.9113H30.946H30.9806H31.0152H31.0498H31.0845H31.1191H31.1537H31.1883H31.223H31.2576H31.2922H31.3268H31.3615H31.3961H31.4307H31.4653H31.5H31.5346H31.5692H31.6039H31.6385H31.6731H31.7077H31.7424H31.777H31.8116H31.8462H31.8809H31.9155H31.9501H31.9848H32.0194H32.054H32.0886H32.1233H32.1579H32.1925H32.2271H32.2618H32.2964H32.331H32.3656H32.4003H32.4349H32.4695H32.5041H32.5388H32.5734H32.608H32.6426H32.6773H32.7119H32.7465H32.7811H32.8158H32.8504H32.885H32.9196H32.9543H32.9889H33.0235H33.0581H33.0928H33.1274H33.162H33.1966H33.2313H33.2659H33.3005H33.3352H33.3698H33.4044H33.439H33.4737H33.5083H33.5429H33.5775H33.6122H33.6468H33.6814H33.716H33.7507H33.7853H33.8199H33.8546H33.8892H33.9238H33.9584H33.9931H34.0277H34.0623H34.0969H34.1316H34.1662H34.2008H34.2354H34.2701H34.3047H34.3393H34.3739H34.4086H34.4432H34.4778H34.5124H34.5471H34.5817H34.6163H34.6509H34.6856H34.7202H34.7548H34.7894H34.8241H34.8587H34.8933H34.9279H34.9626H34.9972H35.0318H35.0664H35.1011H35.1357H35.1703H35.205H35.2396H35.2742H35.3088H35.3435H35.3781H35.4127H35.4473H35.482H35.5166H35.5512H35.5859H35.6205H35.6551H35.6897H35.7244H35.759H35.7936H35.8282H35.8629H35.8975H35.9321H35.9667H36.0014H36.036H36.0706H36.1052H36.1399H36.1745H36.2091H36.2437H36.2784H36.313H36.3476H36.366L36.3822 19.2034L36.4169 19.2031L36.4515 19.2024C36.4631 19.2021 36.4746 19.2019 36.4861 19.2015C36.4977 19.2011 36.5092 19.2006 36.5207 19.2001L36.5554 19.1985L36.59 19.1964L36.6246 19.194L36.6592 19.1913L36.6939 19.1881C36.7054 19.187 36.717 19.1859 36.7285 19.1847C36.7401 19.1835 36.7516 19.1822 36.7631 19.1808L36.7977 19.1766C36.8093 19.1751 36.8209 19.1737 36.8324 19.1721C36.844 19.1705 36.8555 19.1687 36.867 19.167C36.8786 19.1652 36.8902 19.1635 36.9016 19.1616L36.9363 19.1558L36.9709 19.1496C36.9824 19.1474 36.994 19.1453 37.0055 19.1431C37.0171 19.1408 37.0286 19.1383 37.0401 19.1359L37.0748 19.1284C37.0863 19.1258 37.0979 19.1232 37.1094 19.1206C37.121 19.1178 37.1325 19.1149 37.144 19.1121C37.1556 19.1092 37.1671 19.1063 37.1786 19.1033C37.1902 19.1002 37.2018 19.0971 37.2133 19.094C37.2249 19.0908 37.2364 19.0874 37.2479 19.0841C37.2595 19.0807 37.271 19.0773 37.2825 19.0738L37.3172 19.063C37.3288 19.0593 37.3403 19.0554 37.3518 19.0516C37.3634 19.0477 37.3749 19.0438 37.3864 19.0397C37.398 19.0356 37.4096 19.0316 37.421 19.0274C37.4327 19.0231 37.4441 19.0186 37.4557 19.0142C37.4672 19.0097 37.4788 19.0052 37.4903 19.0006C37.5019 18.9959 37.5135 18.9912 37.5249 18.9864C37.5365 18.9816 37.548 18.9766 37.5595 18.9715C37.5711 18.9664 37.5827 18.9612 37.5942 18.9559C37.6057 18.9506 37.6173 18.9452 37.6288 18.9397C37.6404 18.9342 37.652 18.9286 37.6634 18.9229C37.6751 18.9171 37.6865 18.9112 37.698 18.9052C37.7096 18.8991 37.7212 18.8929 37.7327 18.8866C37.7443 18.8803 37.7558 18.8739 37.7673 18.8674C37.7789 18.8608 37.7905 18.8541 37.8019 18.8473C37.8135 18.8404 37.8251 18.8335 37.8365 18.8264C37.8482 18.8191 37.8597 18.8118 37.8712 18.8044C37.8828 18.7968 37.8943 18.7891 37.9058 18.7813C37.9174 18.7735 37.929 18.7654 37.9404 18.7573C37.9521 18.749 37.9636 18.7406 37.975 18.7321C37.9867 18.7235 37.9983 18.7147 38.0097 18.7058C38.0213 18.6967 38.0329 18.6875 38.0443 18.6782C38.056 18.6686 38.0675 18.659 38.0789 18.6492C38.0906 18.6392 38.1021 18.6289 38.1135 18.6186C38.1253 18.6081 38.1368 18.5973 38.1482 18.5865C38.1599 18.5753 38.1714 18.5639 38.1828 18.5525C38.1946 18.5406 38.2061 18.5286 38.2174 18.5164C38.2292 18.5039 38.2407 18.4911 38.252 18.4782C38.2638 18.4648 38.2754 18.4513 38.2867 18.4375C38.2985 18.4232 38.31 18.4087 38.3213 18.3941C38.3331 18.3787 38.3447 18.3632 38.3559 18.3475C38.3678 18.3308 38.3793 18.3138 38.3905 18.2966C38.4025 18.2784 38.414 18.26 38.4252 18.2414C38.4372 18.2213 38.4487 18.201 38.4598 18.1804C38.4718 18.158 38.4835 18.1353 38.4944 18.1123C38.5067 18.0866 38.5182 18.0604 38.529 18.0339C38.5415 18.0035 38.5531 17.9727 38.5637 17.9413C38.5767 17.9026 38.5882 17.8632 38.5983 17.8231C38.6131 17.7644 38.6247 17.7042 38.6329 17.6425C38.643 17.5677 38.6483 17.4908 38.6483 17.4118C38.6483 17.3348 38.643 17.2601 38.6329 17.1875C38.6246 17.1278 38.613 17.0697 38.5983 17.0131C38.5882 16.9745 38.5767 16.9367 38.5637 16.8996C38.5531 16.8691 38.5415 16.8391 38.529 16.8097C38.5182 16.7842 38.5067 16.7591 38.4944 16.7344C38.4834 16.7121 38.4719 16.6902 38.4598 16.6685C38.4487 16.6486 38.4372 16.629 38.4252 16.6096C38.414 16.5916 38.4025 16.5739 38.3905 16.5564C38.3793 16.5399 38.3678 16.5235 38.3559 16.5074C38.3447 16.4922 38.3331 16.4772 38.3213 16.4624C38.31 16.4482 38.2985 16.4343 38.2867 16.4205C38.2753 16.4072 38.2638 16.3941 38.252 16.3811C38.2407 16.3687 38.2292 16.3564 38.2174 16.3442C38.2061 16.3325 38.1945 16.321 38.1828 16.3096C38.1714 16.2985 38.1599 16.2876 38.1482 16.2768C38.1368 16.2663 38.1252 16.256 38.1135 16.2458C38.1021 16.2358 38.0906 16.226 38.0789 16.2163C38.0675 16.2068 38.056 16.1975 38.0443 16.1883C38.0329 16.1792 38.0213 16.1703 38.0097 16.1616C37.9982 16.1529 37.9867 16.1445 37.975 16.1361C37.9636 16.1279 37.9521 16.1198 37.9404 16.1118C37.929 16.1039 37.9174 16.0962 37.9058 16.0885C37.8943 16.081 37.8828 16.0736 37.8712 16.0662C37.8597 16.0591 37.8482 16.052 37.8365 16.045C37.8251 16.0381 37.8136 16.0313 37.8019 16.0246C37.7905 16.0181 37.7789 16.0116 37.7673 16.0052C37.7558 15.9989 37.7443 15.9927 37.7327 15.9866C37.7212 15.9805 37.7096 15.9746 37.698 15.9687C37.6866 15.9629 37.675 15.9571 37.6634 15.9514C37.6519 15.9459 37.6404 15.9403 37.6288 15.9349C37.6173 15.9296 37.6057 15.9244 37.5942 15.9192C37.5827 15.9141 37.5711 15.9091 37.5595 15.9041C37.548 15.8992 37.5365 15.8944 37.5249 15.8897C37.5134 15.885 37.5019 15.8803 37.4903 15.8757C37.4788 15.8712 37.4672 15.8667 37.4557 15.8624C37.4442 15.8581 37.4326 15.8539 37.421 15.8497C37.4095 15.8456 37.398 15.8416 37.3864 15.8376C37.3749 15.8336 37.3634 15.8297 37.3518 15.8258C37.3403 15.8221 37.3288 15.8184 37.3172 15.8147C37.3057 15.8111 37.2941 15.8076 37.2825 15.8041L37.2479 15.794C37.2364 15.7907 37.2249 15.7874 37.2133 15.7842C37.2018 15.7811 37.1902 15.7781 37.1786 15.7751C37.1671 15.7721 37.1556 15.7692 37.144 15.7664C37.1325 15.7635 37.121 15.7607 37.1094 15.758C37.0979 15.7553 37.0863 15.7527 37.0748 15.7502C37.0633 15.7476 37.0517 15.7452 37.0401 15.7428C37.0286 15.7404 37.0171 15.738 37.0055 15.7357L36.9709 15.7291L36.9363 15.7229C36.9248 15.7209 36.9132 15.7189 36.9016 15.717L36.867 15.7116C36.8555 15.7098 36.8439 15.7082 36.8324 15.7066L36.7977 15.7018L36.7631 15.6975L36.7285 15.6936L36.6939 15.6899L36.6592 15.6867L36.6246 15.6838L36.5927 15.6814L36.5926 15.6399L36.6246 15.6349L36.6592 15.6292C36.6708 15.6272 36.6824 15.6253 36.6939 15.6232L36.7285 15.6165C36.7401 15.6142 36.7517 15.6118 36.7631 15.6094L36.7977 15.6018C36.8093 15.5992 36.8209 15.5966 36.8324 15.5938C36.844 15.591 36.8555 15.5881 36.867 15.5852C36.8786 15.5822 36.8902 15.5791 36.9016 15.576C36.9132 15.5729 36.9248 15.5697 36.9363 15.5664C36.9479 15.563 36.9594 15.5597 36.9709 15.5562C36.9825 15.5527 36.9941 15.5491 37.0055 15.5454C37.0171 15.5417 37.0286 15.5379 37.0401 15.534C37.0518 15.5301 37.0633 15.526 37.0748 15.5219C37.0864 15.5178 37.0979 15.5136 37.1094 15.5093C37.121 15.505 37.1326 15.5005 37.144 15.496C37.1556 15.4915 37.1672 15.4868 37.1786 15.4821C37.1903 15.4772 37.2018 15.4724 37.2133 15.4674C37.2249 15.4623 37.2364 15.4571 37.2479 15.4519C37.2595 15.4466 37.2711 15.4411 37.2825 15.4356C37.2942 15.43 37.3057 15.4243 37.3172 15.4186C37.3288 15.4127 37.3403 15.4067 37.3518 15.4007C37.3634 15.3945 37.375 15.3882 37.3864 15.3819C37.3981 15.3754 37.4096 15.3688 37.421 15.3622C37.4327 15.3554 37.4442 15.3485 37.4557 15.3415C37.4673 15.3343 37.4788 15.3271 37.4903 15.3197C37.5019 15.3123 37.5135 15.3046 37.5249 15.2969C37.5366 15.289 37.5481 15.281 37.5595 15.2729C37.5712 15.2646 37.5828 15.2562 37.5942 15.2476C37.6059 15.2389 37.6174 15.2301 37.6288 15.2211C37.6405 15.2118 37.652 15.2025 37.6634 15.1931C37.6751 15.1833 37.6867 15.1734 37.698 15.1635C37.7098 15.1531 37.7213 15.1426 37.7327 15.132C37.7444 15.1211 37.756 15.11 37.7673 15.0989C37.779 15.0873 37.7906 15.0756 37.8019 15.0637C37.8137 15.0513 37.8252 15.0388 37.8365 15.0261C37.8483 15.0129 37.8599 14.9996 37.8712 14.986C37.883 14.9719 37.8945 14.9576 37.9058 14.9431C37.9176 14.9278 37.9292 14.9123 37.9404 14.8966C37.9523 14.88 37.9639 14.8632 37.975 14.8462C37.987 14.8281 37.9985 14.8098 38.0097 14.7913C38.0217 14.7711 38.0332 14.7508 38.0443 14.7302C38.0564 14.7076 38.068 14.6847 38.0789 14.6616C38.0912 14.6355 38.1028 14.6091 38.1135 14.5824C38.1261 14.5513 38.1376 14.5198 38.1482 14.4879C38.1614 14.4478 38.1729 14.407 38.1828 14.3657C38.1988 14.2987 38.2103 14.2303 38.2174 14.1607C38.2231 14.1058 38.226 14.0501 38.226 13.9939C38.226 13.9346 38.223 13.8767 38.2174 13.8203C38.2103 13.7482 38.1987 13.6786 38.1828 13.6113C38.1729 13.5693 38.1613 13.5283 38.1482 13.4882C38.1376 13.4562 38.1261 13.4248 38.1135 13.394C38.1027 13.3675 38.0912 13.3414 38.0789 13.3158C38.0679 13.293 38.0564 13.2705 38.0443 13.2484C38.0332 13.2282 38.0216 13.2083 38.0097 13.1887C37.9985 13.1705 37.987 13.1525 37.975 13.1348C37.9639 13.1183 37.9523 13.102 37.9404 13.0859C37.9292 13.0707 37.9176 13.0557 37.9058 13.041C37.8945 13.0268 37.883 13.0129 37.8712 12.9991C37.8599 12.9861 37.8483 12.9733 37.8365 12.9606C37.8252 12.9483 37.8137 12.9363 37.8019 12.9244C37.7906 12.9129 37.779 12.9016 37.7673 12.8904C37.7559 12.8796 37.7444 12.8689 37.7327 12.8584C37.7213 12.8483 37.7097 12.8382 37.698 12.8283C37.6866 12.8186 37.6751 12.8091 37.6634 12.7997C37.652 12.7906 37.6405 12.7816 37.6288 12.7727C37.6174 12.764 37.6058 12.7555 37.5942 12.7471C37.5827 12.7389 37.5712 12.7308 37.5595 12.7228C37.5481 12.715 37.5366 12.7073 37.5249 12.6997C37.5135 12.6922 37.5019 12.6849 37.4903 12.6777C37.4788 12.6706 37.4673 12.6636 37.4557 12.6567C37.4442 12.65 37.4327 12.6433 37.421 12.6367C37.4096 12.6303 37.3981 12.6239 37.3864 12.6177C37.375 12.6115 37.3634 12.6055 37.3518 12.5995C37.3403 12.5936 37.3288 12.5878 37.3172 12.5821C37.3057 12.5765 37.2942 12.5709 37.2825 12.5655C37.2711 12.5601 37.2595 12.5548 37.2479 12.5496C37.2364 12.5445 37.2249 12.5396 37.2133 12.5346C37.2018 12.5298 37.1902 12.525 37.1786 12.5202C37.1672 12.5156 37.1556 12.511 37.144 12.5065C37.1325 12.502 37.121 12.4976 37.1094 12.4933C37.0979 12.4891 37.0864 12.4849 37.0748 12.4808C37.0633 12.4768 37.0518 12.4728 37.0401 12.4689C37.0286 12.4651 37.0171 12.4613 37.0055 12.4576C36.994 12.454 36.9825 12.4504 36.9709 12.4468C36.9594 12.4433 36.9479 12.4398 36.9363 12.4365C36.9248 12.4332 36.9132 12.43 36.9016 12.4268C36.8902 12.4237 36.8786 12.4206 36.867 12.4176L36.8324 12.4088C36.8209 12.406 36.8094 12.4032 36.7977 12.4005C36.7863 12.3978 36.7747 12.3953 36.7631 12.3927L36.7285 12.3854C36.717 12.383 36.7055 12.3806 36.6939 12.3783C36.6824 12.3761 36.6708 12.374 36.6592 12.3719L36.6246 12.3658C36.6131 12.3639 36.6016 12.3619 36.59 12.3601L36.5554 12.3548L36.5207 12.3499L36.4861 12.3453L36.4515 12.3412L36.4169 12.3375L36.3822 12.334L36.3476 12.331L36.313 12.3283L36.2784 12.3259L36.2437 12.3239L36.23 12.3231L36.2091 12.3218L36.1745 12.3198L36.1399 12.3179L36.1052 12.3161L36.0706 12.3144L36.036 12.3129L36.0014 12.3116L35.9667 12.3106L35.9321 12.3098L35.8975 12.3093L35.8784 12.3093H35.8629H35.8282H35.7936H35.759H35.7244H35.6897H35.6551H35.6205H35.5859H35.5512H35.5166H35.482H35.4473H35.4127H35.3781H35.3435H35.3088H35.2742H35.2396H35.205H35.1703H35.1357H35.1011H35.0664H35.0318H34.9972H34.9626H34.9279H34.8933H34.8587H34.8241H34.7894H34.7548H34.7202H34.6856H34.6509H34.6163H34.5817H34.5471H34.5124H34.4778H34.4432H34.4086H34.3739H34.3393H34.3047H34.2701H34.2354H34.2008H34.1662H34.1316H34.0969H34.0623H34.0277H33.9931H33.9584H33.9238H33.8892H33.8546H33.8199H33.7853H33.7507H33.716H33.6814H33.6468H33.6122H33.5775H33.5429H33.5083H33.4737H33.439H33.4044H33.3698H33.3352H33.3005H33.2659H33.2313H33.1966H33.162H33.1274H33.0928H33.0581H33.0235H32.9889H32.9543H32.9196H32.885H32.8504H32.8158H32.7811H32.7465H32.7119H32.6773H32.6426H32.608H32.5734H32.5388H32.5041H32.4695H32.4349H32.4003H32.3656H32.331H32.2964H32.2618H32.2271H32.1925H32.1579H32.1233H32.0886H32.054H32.0194H31.9848H31.9501H31.9155H31.8809H31.8462H31.8116H31.777H31.7424H31.7077H31.6731H31.6385H31.6039H31.5692H31.5346H31.5H31.4653H31.4307H31.3961H31.3615H31.3268H31.2922H31.2576H31.223H31.1883H31.1537H31.1191H31.0845H31.0498H31.0152H30.9806H30.946H30.9113H30.8767H30.802V8.58585C30.802 8.33535 30.8278 8.09091 30.8767 7.8549C30.8872 7.80436 30.8988 7.75425 30.9113 7.70455C30.9221 7.66201 30.9337 7.61979 30.946 7.57788C30.9569 7.54045 30.9685 7.50327 30.9806 7.46636C30.9917 7.43263 31.0032 7.39907 31.0152 7.36579C31.0264 7.33493 31.0378 7.30424 31.0498 7.27378C31.0611 7.24532 31.0726 7.21701 31.0845 7.18893C31.0957 7.16243 31.1072 7.13604 31.1191 7.10985C31.1303 7.08498 31.1419 7.06028 31.1537 7.03573C31.165 7.0123 31.1766 6.98903 31.1883 6.96589C31.1996 6.94363 31.2112 6.92154 31.223 6.89954C31.2343 6.87834 31.2459 6.85729 31.2576 6.83635C31.269 6.81604 31.2805 6.79591 31.2922 6.77586C31.3036 6.75641 31.3151 6.73705 31.3268 6.71786C31.3382 6.69924 31.3498 6.68077 31.3615 6.66239C31.3728 6.64457 31.3844 6.62693 31.3961 6.60935C31.4075 6.59214 31.419 6.57499 31.4307 6.55798C31.4422 6.54131 31.4536 6.52465 31.4653 6.50818C31.4767 6.49223 31.4884 6.47649 31.5 6.46074C31.5114 6.44525 31.523 6.42988 31.5346 6.41459C31.5461 6.39953 31.5575 6.38441 31.5692 6.36955C31.5806 6.3551 31.5923 6.34087 31.6039 6.32659C31.6153 6.3125 31.6268 6.29853 31.6385 6.28465C31.65 6.27094 31.6614 6.25723 31.6731 6.24369C31.6845 6.2305 31.6961 6.21753 31.7077 6.20451C31.7192 6.1916 31.7307 6.17867 31.7424 6.16593C31.7538 6.15345 31.7654 6.14109 31.777 6.12876C31.7884 6.11659 31.8 6.10452 31.8116 6.0925C31.8231 6.08065 31.8346 6.06881 31.8462 6.0571C31.8577 6.0456 31.8693 6.03427 31.8809 6.02294C31.8924 6.01167 31.9038 6.00028 31.9155 5.98918C31.9269 5.97831 31.9386 5.9677 31.9501 5.95697C31.9616 5.9463 31.9731 5.9356 31.9848 5.92507C31.9962 5.91472 32.0078 5.90457 32.0194 5.89438C32.0309 5.88426 32.0424 5.87413 32.054 5.86415C32.0655 5.85431 32.077 5.84462 32.0886 5.83492C32.1001 5.82531 32.1116 5.81573 32.1233 5.80627C32.1347 5.79689 32.1463 5.78762 32.1579 5.77841L32.1925 5.75119L32.2271 5.72469C32.2386 5.716 32.2502 5.70737 32.2618 5.69882C32.2732 5.69036 32.2848 5.68192 32.2964 5.67358L32.331 5.64899C32.3425 5.64093 32.354 5.63293 32.3656 5.62502L32.4003 5.60158L32.4349 5.57878C32.4464 5.57129 32.4579 5.56383 32.4695 5.55649L32.5041 5.53486C32.5157 5.52772 32.5272 5.52058 32.5388 5.51358C32.5502 5.50664 32.5618 5.4999 32.5734 5.4931C32.5849 5.4863 32.5964 5.47945 32.608 5.47279C32.6195 5.46622 32.6311 5.45988 32.6426 5.45343C32.6542 5.44698 32.6656 5.44041 32.6773 5.4341C32.6887 5.42787 32.7004 5.42185 32.7119 5.41574C32.7234 5.40963 32.7349 5.40349 32.7465 5.3975C32.758 5.39156 32.7696 5.38579 32.7811 5.38C32.7927 5.37423 32.8042 5.36844 32.8158 5.36279L32.8504 5.34607C32.8619 5.34059 32.8735 5.33525 32.885 5.32989C32.8966 5.32455 32.908 5.31913 32.9196 5.31391C32.9311 5.30875 32.9427 5.30382 32.9543 5.29877C32.9658 5.29372 32.9773 5.28859 32.9889 5.28365C33.0004 5.27878 33.012 5.27413 33.0235 5.26937C33.035 5.26463 33.0465 5.25984 33.0581 5.25523L33.0928 5.2416L33.1274 5.22844C33.139 5.22408 33.1504 5.21966 33.162 5.21544C33.1735 5.21125 33.1851 5.20732 33.1966 5.20325C33.2082 5.19918 33.2197 5.19502 33.2313 5.19106C33.2428 5.18713 33.2544 5.18343 33.2659 5.17962L33.3005 5.1684C33.3121 5.16473 33.3236 5.16103 33.3352 5.15747C33.3466 5.15394 33.3582 5.15062 33.3698 5.1472C33.3813 5.14376 33.3928 5.14021 33.4044 5.13691C33.4159 5.13364 33.4275 5.1306 33.439 5.12744C33.4506 5.12429 33.4621 5.1211 33.4737 5.11806L33.5083 5.10911C33.5198 5.10622 33.5314 5.10346 33.5429 5.10068C33.5545 5.0979 33.5659 5.09491 33.5775 5.09225C33.589 5.08961 33.6006 5.0872 33.6122 5.08465L33.6468 5.0771L33.6814 5.06996C33.6929 5.06766 33.7045 5.06551 33.716 5.06333C33.7276 5.06112 33.7391 5.05877 33.7507 5.05668C33.7622 5.05458 33.7738 5.05281 33.7853 5.05086L33.8199 5.04512C33.8315 5.04328 33.843 5.04139 33.8546 5.03967C33.8661 5.03795 33.8776 5.03643 33.8892 5.03482C33.9007 5.03322 33.9122 5.03147 33.9238 5.02997C33.9353 5.02848 33.9469 5.02716 33.9584 5.02579L33.9931 5.02183C34.0046 5.02057 34.0161 5.01916 34.0277 5.01801C34.0392 5.01687 34.0508 5.01598 34.0623 5.01494L34.0969 5.01187L34.1316 5.00926C34.1431 5.00843 34.1546 5.00777 34.1662 5.00706C34.1777 5.00637 34.1892 5.00548 34.2008 5.00488C34.2123 5.00427 34.2239 5.00393 34.2354 5.00344L34.2701 5.00215C34.2816 5.00178 34.2931 5.00129 34.3047 5.00103C34.3162 5.00077 34.3278 5.00075 34.3393 5.00057C34.3508 5.0004 34.3624 5.0002 34.3739 5.00014L34.3826 5.00003H34.4086H34.4432H34.4778H34.5124H34.5471H34.5817H34.6163H34.6509H34.6856H34.7202H34.7548H34.7894H34.8241H34.8587H34.8933H34.9279H34.9626H34.9972H35.0318H35.0664H35.1011H35.1357H35.1703H35.205H35.2396H35.2742H35.3088H35.3435H35.3781H35.4127H35.4473H35.482H35.5166H35.5512H35.5859H35.6205H35.6551H35.6897H35.7244H35.759H35.7936H35.8282H35.8629H35.8975H35.9321H35.9667H36.0014H36.036H36.0706H36.1052H36.1399H36.1745H36.2091H36.2437H36.2784H36.313H36.3476H36.3822H36.4169H36.4515H36.4861H36.5207H36.5554H36.59H36.6246H36.6592H36.6939H36.7285H36.7631H36.7977H36.8324H36.867H36.9016H36.9363H36.9709H37.0055H37.0401H37.0748H37.1094H37.144H37.1786H37.2133H37.2479H37.2825H37.3172H37.3518H37.3864H37.421H37.4557H37.4903H37.5249H37.5595H37.5942H37.6288H37.6634H37.698H37.7327H37.7673H37.8019H37.8365H37.8712H37.9058H37.9404H37.975H38.0097H38.0443H38.0789H38.1135H38.1482H38.1828H38.2174H38.252H38.2867H38.3213H38.3559H38.3905H38.4252H38.4598H38.4944H38.529H38.5637H38.5983H38.6329H38.6676H38.7022H38.7368H38.7714H38.8061H38.8407H38.8753H38.9099H38.9446H38.9792H39.0138H39.0484H39.0831H39.1177H39.1523H39.187H39.2216H39.2562H39.2908H39.3255H39.3601H39.3947H39.4293H39.464H39.4986H39.5332H39.5678H39.6025L39.6371 5Z" fill="currentColor"/>
<path fill-rule="evenodd" clip-rule="evenodd" d="M11.0742 17.4766C11.0495 17.4648 11.0247 17.4529 11 17.441V8.58582C11 8.33604 11.0256 8.09223 11.0742 7.85686C11.0847 7.80631 11.0963 7.75623 11.1088 7.7065C11.1196 7.6639 11.1311 7.62165 11.1434 7.57969C11.1543 7.54228 11.1658 7.50517 11.1779 7.46828C11.189 7.43452 11.2005 7.4009 11.2125 7.36757C11.2237 7.33674 11.2351 7.30607 11.2471 7.27564C11.2582 7.24719 11.2698 7.21882 11.2816 7.19071C11.2929 7.1642 11.3044 7.13787 11.3162 7.11171C11.3275 7.08684 11.339 7.06218 11.3508 7.03762C11.362 7.01416 11.3736 6.99087 11.3853 6.96769C11.3966 6.94543 11.4082 6.92335 11.4199 6.90138C11.4312 6.88018 11.4427 6.85913 11.4544 6.83819C11.4658 6.81791 11.4773 6.79774 11.489 6.77772C11.5004 6.75827 11.5118 6.73888 11.5236 6.71967C11.5349 6.70108 11.5465 6.68264 11.5582 6.66428C11.5695 6.64649 11.5811 6.62883 11.5927 6.61124C11.6041 6.59403 11.6156 6.57688 11.6273 6.55987C11.6387 6.54318 11.6501 6.52651 11.6618 6.51002C11.6732 6.4941 11.6848 6.47838 11.6964 6.46263C11.7078 6.44714 11.7193 6.43177 11.731 6.41648C11.7424 6.40145 11.7539 6.38631 11.7655 6.37145C11.7769 6.35702 11.7885 6.34282 11.8001 6.32857C11.8115 6.31448 11.823 6.30046 11.8347 6.28654C11.8461 6.27286 11.8576 6.25921 11.8692 6.2457C11.8806 6.23248 11.8922 6.21948 11.9038 6.20643C11.9153 6.19349 11.9267 6.18059 11.9384 6.16785C11.9498 6.15537 11.9613 6.14307 11.9729 6.13076C11.9844 6.11857 11.9959 6.1065 12.0075 6.09448C12.0189 6.08263 12.0304 6.07079 12.042 6.05908C12.0535 6.04758 12.0651 6.03625 12.0766 6.02492C12.0881 6.01365 12.0995 6.00229 12.1112 5.99119C12.1226 5.98032 12.1342 5.96971 12.1457 5.95898C12.1572 5.94828 12.1687 5.93755 12.1803 5.92702C12.1917 5.9167 12.2033 5.90657 12.2149 5.89639C12.2264 5.88627 12.2378 5.87611 12.2495 5.86613C12.2609 5.85629 12.2724 5.84662 12.284 5.83693C12.2955 5.82732 12.307 5.81771 12.3186 5.80825C12.33 5.79889 12.3416 5.78963 12.3531 5.78039C12.3646 5.77124 12.3761 5.76218 12.3877 5.75317C12.3991 5.74425 12.4107 5.73545 12.4223 5.72667C12.4338 5.71798 12.4453 5.70932 12.4568 5.70077L12.4914 5.67558C12.5029 5.66729 12.5144 5.65906 12.526 5.65092C12.5374 5.64286 12.5489 5.63488 12.5605 5.62697C12.572 5.61908 12.5835 5.61125 12.5951 5.6035C12.6065 5.59584 12.6181 5.5883 12.6296 5.58076C12.6411 5.57327 12.6526 5.56573 12.6642 5.55835C12.6757 5.55107 12.6872 5.54396 12.6988 5.53678C12.7103 5.52964 12.7217 5.52241 12.7333 5.51542C12.7448 5.5085 12.7564 5.50179 12.7679 5.49499C12.7794 5.48819 12.7908 5.48128 12.8025 5.4746C12.8139 5.46803 12.8255 5.46175 12.837 5.45529C12.8486 5.44884 12.86 5.4423 12.8716 5.43596C12.8831 5.42971 12.8946 5.42369 12.9062 5.41758C12.9177 5.41147 12.9291 5.40533 12.9407 5.39933C12.9522 5.3934 12.9637 5.38757 12.9753 5.38175L13.0098 5.3646C13.0214 5.35895 13.0329 5.3533 13.0444 5.34779C13.0559 5.34231 13.0674 5.337 13.079 5.33164C13.0905 5.32628 13.1019 5.3208 13.1135 5.31558C13.125 5.31038 13.1366 5.30551 13.1481 5.30046C13.1596 5.29541 13.1711 5.29028 13.1827 5.28534C13.1942 5.28047 13.2057 5.27576 13.2173 5.271L13.2518 5.25689L13.2864 5.24318L13.3209 5.23004C13.3325 5.22568 13.3439 5.22118 13.3555 5.21693C13.3669 5.21275 13.3786 5.20885 13.3901 5.20477C13.4016 5.2007 13.4131 5.19657 13.4246 5.19261L13.4592 5.18105L13.4938 5.16984C13.5053 5.16616 13.5168 5.16241 13.5283 5.15885C13.5398 5.15532 13.5514 5.15197 13.5629 5.14855C13.5744 5.14511 13.5859 5.14161 13.5975 5.13828C13.6089 5.13498 13.6205 5.13192 13.632 5.12873L13.6666 5.11935C13.6781 5.11631 13.6896 5.11321 13.7011 5.11029C13.7126 5.10736 13.7242 5.1047 13.7357 5.10188C13.7472 5.09907 13.7587 5.09615 13.7703 5.09345C13.7818 5.09078 13.7933 5.08829 13.8048 5.08574L13.8394 5.07822C13.8509 5.07575 13.8624 5.07326 13.874 5.07093C13.8854 5.06864 13.897 5.06652 13.9085 5.06431C13.9201 5.0621 13.9315 5.05981 13.9431 5.05771C13.9546 5.05562 13.9661 5.05372 13.9777 5.05175L14.0122 5.04601C14.0237 5.04417 14.0352 5.04219 14.0468 5.04044C14.0583 5.03869 14.0698 5.03723 14.0813 5.0356C14.0928 5.03399 14.1044 5.03227 14.1159 5.03075L14.1505 5.02642L14.1851 5.02249C14.1966 5.0212 14.208 5.01971 14.2196 5.01853C14.2311 5.01735 14.2427 5.01649 14.2542 5.01543L14.2887 5.01239C14.3003 5.01142 14.3118 5.01047 14.3233 5.00964C14.3348 5.00881 14.3463 5.00815 14.3579 5.00743C14.3694 5.00671 14.3809 5.00588 14.3924 5.00525C14.4039 5.00462 14.4154 5.00419 14.427 5.00367L14.4616 5.00235C14.4731 5.00195 14.4846 5.00135 14.4961 5.00106C14.5076 5.00077 14.5192 5.0008 14.5307 5.00063C14.5422 5.00046 14.5537 5.00026 14.5653 5.0002L14.5806 5H14.5998H14.6344H14.6689H14.7035H14.7381H14.7726H14.8072H14.8418H14.8763H14.9109H14.9455H14.98H15.0146H15.0491H15.0837H15.1183H15.1529H15.1874H15.222H15.2565H15.2911H15.3257H15.3602H15.3948H15.4294H15.4639H15.4985H15.5331H15.5676H15.6022H15.6367H15.6713H15.7059H15.7404H15.775H15.8096H15.8441H15.8787H15.9133H15.9478H15.9824H16.0169H16.0515H16.0861H16.1207H16.1552H16.1898H16.2243H16.2589H16.2935H16.328H16.3626H16.3972H16.4317H16.4663H16.5009H16.5354H16.57H16.6045H16.6391H16.6737H16.7082H16.7428H16.7774H16.812H16.8465H16.8811H16.9156H16.9502H16.9847H17.0193H17.0539H17.0885H17.123H17.1576H17.1922H17.2267H17.2613H17.2958H17.3304H17.365H17.3995H17.4341H17.4687H17.5032H17.5378H17.5724H17.6069H17.6415H17.676H17.7106H17.7452H17.7798H17.8143H17.8489H17.8834H17.918H17.9526H17.9871H18.0217H18.0563H18.0908H18.1254H18.16H18.1945H18.2291H18.2636H18.2982H18.3328H18.3673H18.4019H18.4365H18.471H18.5056H18.5402H18.5747H18.6093H18.6438H18.6784H18.713H18.7475H18.7821H18.8167H18.8512H18.8858H18.9204H18.9549H18.9895H19.0241H19.0586H19.0932H19.1278H19.1623H19.1969H19.2314H19.266H19.3006H19.3351H19.3697H19.4043H19.4388H19.4734H19.508H19.5425H19.5771H19.6116H19.6462H19.6808H19.7153H19.7499H19.7845H19.819H19.8484V22.9278C19.8484 23.0837 19.8384 23.2374 19.819 23.3881C19.8098 23.4606 19.798 23.5324 19.7845 23.6036C19.7741 23.6577 19.7627 23.7114 19.7499 23.7646C19.7392 23.8094 19.7277 23.8539 19.7153 23.8981C19.7045 23.9368 19.6929 23.9753 19.6808 24.0135C19.6698 24.0481 19.6582 24.0824 19.6462 24.1165C19.6351 24.1481 19.6236 24.1795 19.6116 24.2107C19.6005 24.2398 19.589 24.2687 19.5771 24.2975C19.5659 24.3245 19.5544 24.3515 19.5425 24.3782C19.5313 24.4035 19.5198 24.4287 19.508 24.4538C19.4967 24.4777 19.4852 24.5014 19.4734 24.525C19.4621 24.5477 19.4506 24.5702 19.4388 24.5925C19.4275 24.6141 19.416 24.6355 19.4043 24.6568C19.3929 24.6774 19.3815 24.6979 19.3697 24.7182C19.3584 24.7379 19.3468 24.7574 19.3351 24.7768C19.3238 24.7955 19.3122 24.8141 19.3006 24.8326C19.2892 24.8507 19.2777 24.8687 19.266 24.8866C19.2546 24.904 19.2432 24.9215 19.2314 24.9387C19.2201 24.9554 19.2085 24.972 19.1969 24.9885C19.1855 25.0047 19.174 25.0207 19.1623 25.0367C19.1509 25.0524 19.1394 25.068 19.1278 25.0835C19.1164 25.0986 19.1048 25.1137 19.0932 25.1286C19.0818 25.1432 19.0702 25.1577 19.0586 25.1721C19.0472 25.1864 19.0357 25.2006 19.0241 25.2147C19.0127 25.2284 19.0011 25.242 18.9895 25.2555C18.9781 25.2689 18.9666 25.2822 18.9549 25.2954C18.9435 25.3084 18.932 25.3215 18.9204 25.3343C18.909 25.3469 18.8974 25.3592 18.8858 25.3716C18.8743 25.3839 18.8629 25.3963 18.8512 25.4084C18.8398 25.4203 18.8283 25.432 18.8167 25.4438C18.8052 25.4554 18.7937 25.4669 18.7821 25.4784C18.7707 25.4897 18.7592 25.501 18.7475 25.5122C18.7361 25.5232 18.7245 25.534 18.713 25.5448C18.7015 25.5556 18.69 25.5664 18.6784 25.577C18.667 25.5874 18.6554 25.5976 18.6438 25.6079C18.6323 25.6181 18.6209 25.6285 18.6093 25.6385C18.5979 25.6484 18.5862 25.658 18.5747 25.6677C18.5632 25.6775 18.5518 25.6873 18.5402 25.6969C18.5287 25.7063 18.5171 25.7155 18.5056 25.7247C18.4941 25.7339 18.4826 25.7433 18.471 25.7524C18.4596 25.7613 18.448 25.77 18.4365 25.7788C18.425 25.7876 18.4135 25.7965 18.4019 25.8051C18.3905 25.8136 18.3789 25.8219 18.3673 25.8303C18.3558 25.8386 18.3444 25.8471 18.3328 25.8553C18.3214 25.8634 18.3098 25.8713 18.2982 25.8793C18.2867 25.8872 18.2753 25.8953 18.2636 25.9031C18.2522 25.9108 18.2406 25.9183 18.2291 25.9259C18.2176 25.9334 18.2061 25.9412 18.1945 25.9486C18.1831 25.9559 18.1715 25.963 18.16 25.9702C18.1484 25.9774 18.137 25.9847 18.1254 25.9917C18.1139 25.9987 18.1023 26.0055 18.0908 26.0123C18.0793 26.0191 18.0679 26.026 18.0563 26.0327C18.0448 26.0393 18.0332 26.0458 18.0217 26.0523C18.0102 26.0588 17.9987 26.0653 17.9871 26.0716C17.9757 26.078 17.9641 26.0842 17.9526 26.0904L17.918 26.1086C17.9065 26.1146 17.895 26.1206 17.8834 26.1265C17.872 26.1323 17.8604 26.138 17.8489 26.1437C17.8374 26.1493 17.8259 26.1552 17.8143 26.1608C17.8029 26.1663 17.7913 26.1715 17.7798 26.1769C17.7682 26.1823 17.7568 26.1878 17.7452 26.1931C17.7337 26.1983 17.7221 26.2033 17.7106 26.2084L17.676 26.2235L17.6415 26.2381C17.63 26.2429 17.6184 26.2476 17.6069 26.2523C17.5954 26.2569 17.5839 26.2617 17.5724 26.2663C17.5609 26.2708 17.5493 26.275 17.5378 26.2794C17.5263 26.2838 17.5148 26.2882 17.5032 26.2925C17.4917 26.2967 17.4802 26.3008 17.4687 26.3049L17.4341 26.3171L17.3995 26.3289C17.388 26.3328 17.3765 26.3364 17.365 26.3401C17.3534 26.3439 17.342 26.3477 17.3304 26.3514C17.3189 26.3549 17.3073 26.3582 17.2958 26.3617L17.2613 26.372L17.2267 26.3818C17.2152 26.385 17.2037 26.3881 17.1922 26.3912C17.1806 26.3943 17.1691 26.3975 17.1576 26.4005C17.1461 26.4035 17.1345 26.4061 17.123 26.4089C17.1115 26.4118 17.1 26.4146 17.0885 26.4174L17.0539 26.4253L17.0193 26.4329C17.0078 26.4353 16.9963 26.438 16.9847 26.4404C16.9733 26.4427 16.9617 26.4448 16.9502 26.447C16.9387 26.4492 16.9272 26.4515 16.9156 26.4536L16.8811 26.4598C16.8696 26.4619 16.858 26.4637 16.8465 26.4656C16.835 26.4674 16.8235 26.4695 16.812 26.4713C16.8005 26.4731 16.7889 26.4746 16.7774 26.4762L16.7428 26.4811C16.7313 26.4826 16.7198 26.4842 16.7082 26.4856C16.6968 26.4871 16.6852 26.4883 16.6737 26.4896C16.6621 26.4909 16.6507 26.4923 16.6391 26.4935C16.6276 26.4948 16.6161 26.4958 16.6045 26.4969L16.57 26.4999C16.5585 26.5009 16.547 26.5021 16.5354 26.503C16.5239 26.5038 16.5124 26.5044 16.5009 26.5052L16.4663 26.5073L16.4317 26.5092C16.4202 26.5097 16.4087 26.5101 16.3972 26.5105C16.3856 26.5109 16.3741 26.5115 16.3626 26.5118C16.3511 26.5121 16.3395 26.5122 16.328 26.5125L16.2935 26.5129C16.2828 26.513 16.2722 26.5133 16.2614 26.5133H16.2589H16.2243H16.1898H16.1552H16.1207H16.0861H16.0515H16.0169H15.9824H15.9478H15.9133H15.8787H15.8441H15.8096H15.775H15.7404H15.7059H15.6713H15.6367H15.6022H15.5676H15.5331H15.4985H15.4639H15.4294H15.3948H15.3602H15.3257H15.2911H15.2565H15.222H15.1874H15.1529H15.1183H15.0837H15.0491H15.0146H14.98H14.9455H14.9109H14.8763H14.8418H14.8072H14.7726H14.7381H14.7035H14.6689H14.6344H14.5998H14.5653H14.5307H14.4961H14.4616H14.427H14.3924H14.3579H14.3233H14.2887H14.2542H14.2196H14.1851H14.1505H14.1159H14.0813H14.0468H14.0122H13.9777H13.9431H13.9085H13.874H13.8394H13.8048H13.7703H13.7357H13.7011H13.6666H13.632H13.5975H13.5629H13.5283H13.4938H13.4592H13.4246H13.3901H13.3555H13.3209H13.2864H13.2518H13.2173H13.1827H13.1481H13.1135H13.079H13.0444H13.0098H12.9753H12.9407H12.9062H12.8716H12.837H12.8025H12.7679H12.7333H12.6988H12.6642H12.6296H12.5951H12.5605H12.526H12.4914H12.4568H12.4223H12.3877H12.3531H12.3186H12.284H12.2495H12.2149H12.1803H12.1457H12.1112H12.0766H12.042H12.0075H11.9729H11.9384H11.9038H11.8692H11.8347H11.8001H11.7655H11.731H11.6964H11.6618H11.6273H11.5927H11.5582H11.5236H11.489H11.4544H11.4199H11.3853H11.3508H11.3162H11.2816H11.2471H11.2125H11.1779H11.1434H11.1088H11.0742H11V18.9569C11 18.9569 11.0255 18.964 11.0742 18.9762L11.1088 18.9849L11.1434 18.9933L11.1779 19.0016L11.2125 19.0098L11.2471 19.0178L11.2816 19.0257L11.3162 19.0335L11.3508 19.0412L11.3853 19.0488L11.4199 19.0563L11.4544 19.0636L11.489 19.0709L11.5236 19.0781L11.5582 19.0852L11.5927 19.0922L11.6273 19.0991L11.6618 19.1059L11.6964 19.1126L11.731 19.1193L11.7655 19.1259L11.8001 19.1323L11.8347 19.1387L11.8692 19.145L11.9038 19.1513L11.9384 19.1574L11.9729 19.1635L12.0075 19.1695L12.042 19.1754L12.0766 19.1812L12.1112 19.1869L12.1457 19.1926L12.1803 19.1982L12.2149 19.2037L12.2495 19.2092L12.284 19.2145L12.3186 19.2198L12.3531 19.225L12.3877 19.2301L12.4223 19.2352L12.4568 19.2402L12.4914 19.2451L12.526 19.2499L12.5605 19.2547L12.5951 19.2594L12.6296 19.264L12.6642 19.2685L12.6988 19.273L12.7333 19.2773L12.7679 19.2817L12.8025 19.2859L12.837 19.2901L12.8716 19.2941L12.9062 19.2982L12.9407 19.3021L12.9753 19.306L13.0098 19.3097L13.0444 19.3134L13.079 19.3171L13.1135 19.3206L13.1481 19.3242L13.1827 19.3276L13.2173 19.3309L13.2518 19.3342L13.2864 19.3374L13.3209 19.3406L13.3555 19.3435L13.3901 19.3465L13.4246 19.3494L13.4592 19.3522L13.4938 19.355L13.5283 19.3576L13.5629 19.3603L13.5975 19.3628L13.632 19.3652L13.6666 19.3676L13.7011 19.3698L13.7357 19.3721L13.7703 19.3742L13.8048 19.3763L13.8394 19.3783L13.874 19.3802L13.9085 19.382L13.9431 19.3838L13.9777 19.3854L14.0122 19.387L14.0468 19.3885L14.0813 19.39L14.1159 19.3914L14.1505 19.3926L14.1851 19.3938L14.2196 19.395L14.2542 19.396L14.2887 19.397L14.3233 19.3979L14.3579 19.3987L14.3924 19.3995L14.427 19.4L14.4616 19.4006L14.4961 19.4011L14.5307 19.4015L14.5653 19.4019L14.5998 19.4021L14.6344 19.4022L14.6689 19.4023L14.6823 19.4024L14.7035 19.4023L14.7381 19.402L14.7726 19.4018L14.8072 19.4016L14.8418 19.4014L14.8763 19.4008L14.9109 19.4002L14.9455 19.3995L14.98 19.3989L15.0146 19.398L15.0491 19.3969L15.0837 19.3959L15.1183 19.3948L15.1529 19.3937L15.1874 19.3922L15.222 19.3906L15.2565 19.3891L15.2911 19.3876L15.3257 19.3856L15.3602 19.3837L15.3948 19.3817L15.4294 19.3796L15.4639 19.3774L15.4985 19.3749L15.5331 19.3724L15.5676 19.3699L15.6022 19.3671L15.6367 19.3642L15.6713 19.3612L15.7059 19.3582L15.7404 19.3549L15.775 19.3514L15.8096 19.3479L15.8441 19.3444L15.8787 19.3405L15.9133 19.3365L15.9478 19.3324L15.9824 19.3284L16.0169 19.3239L16.0515 19.3192L16.0861 19.3146L16.1207 19.3099C16.1323 19.3083 16.1436 19.3064 16.1552 19.3047L16.1898 19.2995L16.2243 19.2943L16.2589 19.2888C16.2705 19.287 16.2819 19.2849 16.2935 19.283L16.328 19.2772C16.3395 19.2753 16.3512 19.2734 16.3626 19.2714C16.3742 19.2693 16.3856 19.2671 16.3972 19.265L16.4317 19.2585L16.4663 19.2521L16.5009 19.2453C16.5125 19.243 16.5239 19.2406 16.5354 19.2382L16.57 19.2311L16.6045 19.2239C16.6162 19.2214 16.6275 19.2187 16.6391 19.2161L16.6737 19.2083C16.6851 19.2057 16.6969 19.2032 16.7082 19.2005C16.7199 19.1978 16.7313 19.1949 16.7428 19.1921L16.7774 19.1836C16.7889 19.1807 16.8006 19.178 16.812 19.1751C16.8236 19.1721 16.835 19.169 16.8465 19.166L16.8811 19.1568C16.8926 19.1537 16.9042 19.1507 16.9156 19.1475C16.9273 19.1443 16.9387 19.141 16.9502 19.1377L16.9847 19.1277C16.9963 19.1244 17.0079 19.1211 17.0193 19.1177L17.0539 19.1071L17.0885 19.0963C17.0999 19.0926 17.1117 19.0891 17.123 19.0854L17.1576 19.0739L17.1922 19.0622C17.2036 19.0583 17.2154 19.0545 17.2267 19.0505C17.2384 19.0464 17.2497 19.0421 17.2613 19.038L17.2958 19.0254C17.3073 19.0211 17.319 19.0169 17.3304 19.0126C17.3421 19.0082 17.3534 19.0036 17.365 18.9991C17.3765 18.9946 17.3881 18.9901 17.3995 18.9855L17.4341 18.9715L17.4687 18.957C17.4801 18.9521 17.4919 18.9474 17.5032 18.9425C17.5149 18.9374 17.5262 18.9321 17.5378 18.9269L17.5724 18.9114L17.6069 18.8954C17.6185 18.8899 17.63 18.8843 17.6415 18.8787C17.653 18.8732 17.6647 18.8676 17.676 18.862C17.6877 18.8561 17.6991 18.8501 17.7106 18.8442C17.7222 18.8383 17.7338 18.8325 17.7452 18.8265C17.7569 18.8203 17.7682 18.814 17.7798 18.8078C17.7913 18.8015 17.8029 18.7952 17.8143 18.7888C17.8259 18.7823 17.8374 18.7758 17.8489 18.7692C17.8605 18.7626 17.872 18.7558 17.8834 18.749C17.895 18.7421 17.9066 18.7352 17.918 18.7283C17.9297 18.7212 17.9411 18.7139 17.9526 18.7067C17.9641 18.6994 17.9758 18.6922 17.9871 18.6848C17.9988 18.6772 18.0102 18.6695 18.0217 18.6618C18.0332 18.654 18.0449 18.6463 18.0563 18.6385C18.068 18.6304 18.0793 18.6221 18.0908 18.6139C18.1024 18.6057 18.114 18.5974 18.1254 18.589C18.1371 18.5804 18.1485 18.5716 18.16 18.5629C18.1716 18.554 18.1831 18.5451 18.1945 18.5361C18.2062 18.5269 18.2177 18.5176 18.2291 18.5082C18.2407 18.4987 18.2522 18.489 18.2636 18.4794C18.2753 18.4695 18.2869 18.4597 18.2982 18.4497C18.31 18.4393 18.3213 18.4288 18.3328 18.4183C18.3444 18.4077 18.356 18.3972 18.3673 18.3864C18.3791 18.3752 18.3905 18.364 18.4019 18.3527C18.4136 18.3411 18.4251 18.3294 18.4365 18.3176C18.4481 18.3056 18.4597 18.2937 18.471 18.2816C18.4828 18.2688 18.4942 18.256 18.5056 18.2431C18.5173 18.2299 18.5288 18.2166 18.5402 18.2032C18.5518 18.1894 18.5635 18.1755 18.5747 18.1615C18.5864 18.147 18.598 18.1325 18.6093 18.1177C18.6211 18.1023 18.6325 18.0868 18.6438 18.0712C18.6556 18.055 18.6671 18.0386 18.6784 18.0221C18.6902 18.005 18.7017 17.9877 18.713 17.9703C18.7248 17.952 18.7363 17.9337 18.7475 17.9151C18.7594 17.8956 18.7709 17.8759 18.7821 17.8561C18.794 17.835 18.8055 17.8139 18.8167 17.7925C18.8286 17.7697 18.8401 17.7467 18.8512 17.7236C18.8632 17.6987 18.8747 17.6736 18.8858 17.6483C18.8978 17.6208 18.9094 17.5932 18.9204 17.5652C18.9325 17.5345 18.9441 17.5034 18.9549 17.4721C18.9673 17.4366 18.9787 17.4007 18.9895 17.3646C19.0021 17.3223 19.0136 17.2796 19.0241 17.2365C19.0371 17.183 19.0487 17.1289 19.0586 17.0742C19.0734 16.9927 19.0849 16.91 19.0932 16.8262C19.1048 16.7093 19.1105 16.5903 19.1105 16.4695V12.3093H19.0932H19.0586H19.0241H18.9895H18.9549H18.9204H18.8858H18.8512H18.8167H18.7821H18.7475H18.713H18.6784H18.6438H18.6093H18.5747H18.5402H18.5056H18.471H18.4365H18.4019H18.3673H18.3328H18.2982H18.2636H18.2291H18.1945H18.16H18.1254H18.0908H18.0563H18.0217H17.9871H17.9526H17.918H17.8834H17.8489H17.8143H17.7798H17.7452H17.7106H17.676H17.6415H17.6069H17.5724H17.5378H17.5032H17.4687H17.4341H17.3995H17.365H17.3304H17.2958H17.2613H17.2267H17.1922H17.1576H17.123H17.0885H17.0539H17.0193H16.9847H16.9502H16.9156H16.8811H16.8465H16.812H16.7774H16.7428H16.7082H16.6737H16.6391H16.6045H16.57H16.5354H16.5009H16.4663H16.4317H16.3972H16.3626H16.328H16.2935H16.2589H16.2243H16.1898H16.1552H16.1207H16.0861H16.0515H16.0253V16.4695C16.0253 16.5346 16.0225 16.5987 16.0169 16.6615C16.0099 16.7416 15.9983 16.8196 15.9824 16.8955C15.9725 16.9424 15.961 16.9884 15.9478 17.0336C15.9373 17.0695 15.9259 17.1049 15.9133 17.1397C15.9025 17.1693 15.891 17.1985 15.8787 17.2272C15.8678 17.2529 15.8563 17.2781 15.8441 17.303C15.8331 17.3257 15.8216 17.3481 15.8096 17.3701C15.7985 17.3903 15.7869 17.4102 15.775 17.4299C15.7639 17.4484 15.7523 17.4666 15.7404 17.4846C15.7292 17.5015 15.7177 17.5181 15.7059 17.5345C15.6946 17.5502 15.6832 17.5657 15.6713 17.5809C15.6601 17.5954 15.6485 17.6095 15.6367 17.6236C15.6255 17.637 15.614 17.6503 15.6022 17.6634C15.5909 17.676 15.5794 17.6885 15.5676 17.7007C15.5563 17.7126 15.5448 17.7243 15.5331 17.7358C15.5217 17.7469 15.5102 17.7579 15.4985 17.7687C15.4872 17.7791 15.4756 17.7893 15.4639 17.7995C15.4526 17.8093 15.441 17.8191 15.4294 17.8286C15.418 17.8379 15.4064 17.8471 15.3948 17.8561C15.3834 17.8649 15.3719 17.8735 15.3602 17.8821C15.3488 17.8904 15.3373 17.8986 15.3257 17.9067C15.3143 17.9146 15.3028 17.9223 15.2911 17.93C15.2797 17.9374 15.2682 17.9448 15.2565 17.952C15.2452 17.959 15.2336 17.966 15.222 17.9728C15.2106 17.9795 15.199 17.986 15.1874 17.9925C15.176 17.9989 15.1645 18.005 15.1529 18.0112C15.1414 18.0172 15.1299 18.0231 15.1183 18.0289C15.1069 18.0345 15.0953 18.0401 15.0837 18.0456C15.0723 18.051 15.0608 18.0564 15.0491 18.0616C15.0377 18.0667 15.0262 18.0717 15.0146 18.0766C15.0032 18.0815 14.9916 18.0861 14.98 18.0907C14.9686 18.0953 14.957 18.0997 14.9455 18.1041C14.934 18.1084 14.9225 18.1126 14.9109 18.1167C14.8994 18.1208 14.8879 18.1249 14.8763 18.1287C14.8649 18.1325 14.8534 18.1363 14.8418 18.1399C14.8303 18.1435 14.8188 18.1469 14.8072 18.1504C14.7958 18.1537 14.7842 18.1571 14.7726 18.1603C14.7612 18.1634 14.7497 18.1666 14.7381 18.1696C14.7266 18.1725 14.7151 18.1754 14.7035 18.1782C14.6921 18.1809 14.6805 18.1835 14.6689 18.1861C14.6575 18.1887 14.646 18.1912 14.6344 18.1936C14.6229 18.196 14.6114 18.1983 14.5998 18.2005C14.5884 18.2027 14.5768 18.2047 14.5653 18.2068C14.5538 18.2088 14.5423 18.2108 14.5307 18.2127L14.4961 18.2179C14.4847 18.2196 14.4731 18.2211 14.4616 18.2226C14.4501 18.2242 14.4386 18.2257 14.427 18.227L14.3924 18.2308C14.381 18.232 14.3694 18.2331 14.3579 18.2341C14.3464 18.2351 14.3349 18.2362 14.3233 18.2371C14.3118 18.238 14.3003 18.2388 14.2887 18.2395C14.2773 18.2403 14.2657 18.2409 14.2542 18.2415C14.2427 18.2421 14.2312 18.2427 14.2196 18.2431C14.2082 18.2436 14.1966 18.2439 14.1851 18.2442L14.1505 18.245C14.139 18.2452 14.1275 18.2453 14.1159 18.2454L14.1029 18.2455L14.0813 18.2454L14.0468 18.2452L14.0122 18.2447L13.9777 18.244L13.9431 18.243L13.9085 18.2419L13.874 18.2405L13.8394 18.2389L13.8048 18.2372L13.7703 18.2351L13.7357 18.2329L13.7011 18.2304L13.6666 18.2277L13.632 18.2248L13.5975 18.2217L13.5629 18.2184L13.5283 18.2149L13.4938 18.2111L13.4592 18.2072L13.4246 18.203L13.3901 18.1986L13.3555 18.1941L13.3209 18.1893L13.2864 18.1843L13.2518 18.1791L13.2173 18.1737L13.1827 18.1681L13.1481 18.1623L13.1135 18.1563L13.079 18.15L13.0444 18.1436L13.0098 18.137L12.9753 18.1303L12.9407 18.1232L12.9062 18.116L12.8716 18.1087L12.837 18.1011L12.8025 18.0932L12.7679 18.0853L12.7333 18.0771L12.6988 18.0688L12.6642 18.0602L12.6296 18.0515L12.5951 18.0425L12.5605 18.0334L12.526 18.0241L12.4914 18.0146L12.4568 18.005L12.4223 17.9951L12.3877 17.9851L12.3531 17.9748L12.3186 17.9644L12.284 17.9538L12.2495 17.9431L12.2149 17.9321L12.1803 17.921L12.1457 17.9097L12.1112 17.8982L12.0766 17.8866L12.042 17.8747L12.0075 17.8628L11.9729 17.8506L11.9384 17.8382L11.9038 17.8258L11.8692 17.813L11.8347 17.8002L11.8001 17.7872L11.7655 17.774L11.731 17.7606L11.6964 17.7471L11.6618 17.7334L11.6273 17.7196L11.5927 17.7056L11.5582 17.6914L11.5236 17.6771L11.489 17.6626L11.4544 17.6479L11.4199 17.6331L11.3853 17.6182L11.3508 17.603L11.3162 17.5878L11.2816 17.5724L11.2471 17.5568L11.2125 17.541L11.1779 17.5251L11.1434 17.5091L11.1088 17.4929L11.0742 17.4766V17.4766Z" fill="currentColor"/>
<path fill-rule="evenodd" clip-rule="evenodd" d="M21.1186 13.2183C21.0935 13.2387 21.0687 13.2592 21.0444 13.28V8.58582C21.0444 8.33619 21.0701 8.09252 21.1186 7.85723C21.1291 7.80672 21.1407 7.75666 21.1532 7.70695C21.164 7.6643 21.1755 7.62199 21.1878 7.57997C21.1987 7.54254 21.2103 7.50537 21.2224 7.46845C21.2334 7.43472 21.2449 7.40116 21.2569 7.36789C21.2681 7.33705 21.2795 7.30636 21.2915 7.27593C21.3027 7.24747 21.3142 7.21916 21.3261 7.19105C21.3373 7.16455 21.3488 7.13822 21.3606 7.11203C21.3718 7.08716 21.3834 7.06246 21.3952 7.03791C21.4064 7.01445 21.418 6.99121 21.4297 6.96804C21.441 6.94578 21.4526 6.92369 21.4643 6.90169C21.4756 6.8805 21.4872 6.85944 21.4989 6.8385C21.5102 6.81822 21.5217 6.79803 21.5335 6.77801C21.5448 6.75856 21.5563 6.7392 21.568 6.71998C21.5793 6.70142 21.5909 6.68298 21.6026 6.66465C21.6139 6.64681 21.6255 6.62917 21.6371 6.61156C21.6485 6.59432 21.66 6.57719 21.6717 6.56019C21.6831 6.54349 21.6946 6.5268 21.7063 6.51033C21.7176 6.49439 21.7292 6.4787 21.7408 6.46298C21.7523 6.44749 21.7638 6.43208 21.7754 6.4168C21.7869 6.40174 21.7983 6.38665 21.81 6.37179C21.8213 6.35736 21.833 6.34314 21.8446 6.32888C21.856 6.3148 21.8675 6.30077 21.8791 6.28689C21.8906 6.27318 21.902 6.25952 21.9137 6.24601C21.9251 6.23282 21.9367 6.2198 21.9482 6.20678C21.9597 6.19387 21.9712 6.1809 21.9828 6.16814C21.9942 6.15566 22.0058 6.14333 22.0173 6.13102C22.0288 6.11886 22.0403 6.10678 22.0519 6.09477C22.0634 6.08292 22.0749 6.07107 22.0865 6.05937C22.0979 6.0479 22.1095 6.03657 22.121 6.02524C22.1325 6.01396 22.144 6.00261 22.1556 5.99148C22.167 5.98061 22.1786 5.96999 22.1902 5.95926C22.2016 5.94857 22.2131 5.93784 22.2247 5.92731C22.2362 5.91699 22.2478 5.90683 22.2593 5.89665C22.2708 5.88649 22.2823 5.87637 22.2939 5.86639C22.3053 5.85655 22.3169 5.84688 22.3284 5.83719C22.3399 5.82758 22.3514 5.81797 22.363 5.80848C22.3745 5.79912 22.386 5.78986 22.3976 5.78065C22.4091 5.7715 22.4206 5.76241 22.4322 5.7534C22.4436 5.74451 22.4551 5.7357 22.4667 5.72693C22.4782 5.71824 22.4897 5.70957 22.5013 5.70103C22.5127 5.69254 22.5243 5.68416 22.5358 5.67581C22.5473 5.66755 22.5588 5.65929 22.5704 5.65115C22.5819 5.64309 22.5934 5.63514 22.605 5.6272C22.6165 5.61931 22.628 5.61145 22.6395 5.6037C22.651 5.59604 22.6625 5.5885 22.6741 5.58096C22.6856 5.57344 22.6971 5.56593 22.7087 5.55856C22.7201 5.55127 22.7317 5.54416 22.7432 5.53699C22.7548 5.52984 22.7662 5.52261 22.7778 5.51562C22.7893 5.50867 22.8008 5.50196 22.8124 5.49516C22.8239 5.48837 22.8353 5.48143 22.8469 5.47477C22.8584 5.4682 22.87 5.46189 22.8815 5.45544C22.8931 5.44898 22.9045 5.44247 22.9161 5.43616C22.9275 5.42991 22.9391 5.42389 22.9506 5.41775C22.9621 5.41164 22.9736 5.4055 22.9852 5.3995L23.0198 5.38192L23.0543 5.36474C23.0658 5.35912 23.0773 5.35344 23.0889 5.34793C23.1004 5.34245 23.1119 5.33715 23.1235 5.33178C23.135 5.32645 23.1464 5.32094 23.158 5.31572C23.1695 5.31053 23.1811 5.30565 23.1926 5.3006C23.2041 5.29556 23.2156 5.29042 23.2272 5.28549C23.2386 5.28061 23.2502 5.27588 23.2617 5.27112L23.2963 5.257C23.3078 5.25239 23.3193 5.24777 23.3308 5.24327C23.3423 5.23879 23.3539 5.23449 23.3654 5.23013C23.377 5.22577 23.3884 5.22127 23.4 5.21702C23.4114 5.21283 23.4231 5.20893 23.4346 5.20486C23.4461 5.20079 23.4576 5.19665 23.4691 5.1927C23.4806 5.18874 23.4922 5.18495 23.5037 5.18114L23.5383 5.16992C23.5498 5.16625 23.5613 5.16249 23.5728 5.15891C23.5843 5.15538 23.5959 5.15205 23.6074 5.14864C23.6189 5.1452 23.6304 5.14167 23.642 5.13834C23.6535 5.13504 23.665 5.13197 23.6765 5.12879L23.7111 5.11941C23.7226 5.11637 23.7341 5.11327 23.7457 5.11035C23.7571 5.10745 23.7687 5.10472 23.7802 5.10191C23.7917 5.0991 23.8032 5.09618 23.8148 5.09348C23.8263 5.09081 23.8378 5.08832 23.8493 5.08576L23.8839 5.07825C23.8955 5.07581 23.9069 5.07329 23.9185 5.07096C23.93 5.06864 23.9415 5.06655 23.9531 5.06434C23.9646 5.06213 23.9761 5.05981 23.9876 5.05771L24.0222 5.05175L24.0568 5.04604C24.0683 5.04417 24.0798 5.04219 24.0913 5.04044C24.1028 5.03869 24.1144 5.03723 24.1259 5.0356C24.1374 5.03399 24.1489 5.0323 24.1604 5.03078L24.195 5.02645L24.2296 5.02249C24.2411 5.0212 24.2526 5.01971 24.2642 5.01853C24.2756 5.01735 24.2872 5.01649 24.2987 5.01543L24.3333 5.01239C24.3448 5.01142 24.3563 5.01047 24.3678 5.00964C24.3794 5.00881 24.3909 5.00815 24.4024 5.00743C24.4139 5.00671 24.4254 5.00588 24.437 5.00525C24.4485 5.00462 24.46 5.00419 24.4716 5.00367L24.5061 5.00235C24.5177 5.00195 24.5291 5.00135 24.5407 5.00106C24.5522 5.00077 24.5637 5.0008 24.5753 5.00063C24.5868 5.00046 24.5983 5.00026 24.6098 5.0002L24.6251 5H24.6444H24.679H24.7135H24.7481H24.7827H24.8172H24.8518H24.8863H24.9209H24.9555H24.9901H25.0246H25.0592H25.0937H25.1283H25.1629H25.1974H25.232H25.2666H25.3011H25.3357H25.3703H25.4048H25.4394H25.474H25.5086H25.5431H25.5777H25.6122H25.6468H25.6814H25.7159H25.7505H25.7851H25.8196H25.8542H25.8888H25.9233H25.9579H25.9925H26.027H26.0616H26.0962H26.1307H26.1653H26.1998H26.2344H26.269H26.3036H26.3381H26.3727H26.4073H26.4418H26.4764H26.5109H26.5455H26.5801H26.6147H26.6492H26.6838H26.7184H26.7529H26.7875H26.8221H26.8566H26.8912H26.9257H26.9603H26.9949H27.0295H27.064H27.0986H27.1332H27.1677H27.2023H27.2368H27.2714H27.306H27.3406H27.3751H27.4097H27.4442H27.4788H27.5134H27.5479H27.5825H27.6171H27.6517H27.6862H27.7208H27.7553H27.7899H27.8245H27.8591H27.8936H27.9282H27.9627H27.9973H28.0319H28.0664H28.101H28.1356H28.1702H28.2047H28.2393H28.2738H28.3084H28.343H28.3775H28.4121H28.4467H28.4812H28.5158H28.5504H28.5849H28.6195H28.6541H28.6886H28.7232H28.7578H28.7923H28.8269H28.8615H28.896H28.9306H28.9652H28.9997H29.0343H29.0689H29.1034H29.138H29.1726H29.2071H29.2417H29.2763H29.3108H29.3454H29.38H29.4145H29.4491H29.4837H29.5182H29.5528H29.5873H29.6219H29.6565H29.6911H29.7256H29.7602H29.7947H29.8293H29.8639H29.8932V22.9278C29.8932 23.0837 29.8832 23.2372 29.8639 23.3878C29.8546 23.4604 29.8429 23.5321 29.8293 23.6032C29.819 23.6574 29.8075 23.7111 29.7947 23.7643C29.784 23.8092 29.7726 23.8537 29.7602 23.8979C29.7493 23.9366 29.7378 23.9751 29.7256 24.0133C29.7146 24.0479 29.7031 24.0822 29.6911 24.1163C29.68 24.1479 29.6684 24.1793 29.6565 24.2105C29.6453 24.2396 29.6338 24.2685 29.6219 24.2972C29.6107 24.3243 29.5992 24.3512 29.5873 24.378C29.5761 24.4033 29.5646 24.4285 29.5528 24.4535C29.5415 24.4774 29.53 24.5012 29.5182 24.5248C29.5069 24.5475 29.4954 24.57 29.4837 24.5923C29.4723 24.6139 29.4608 24.6353 29.4491 24.6567C29.4377 24.6772 29.4263 24.6978 29.4145 24.7181C29.4032 24.7377 29.3916 24.7572 29.38 24.7765C29.3686 24.7953 29.3571 24.8139 29.3454 24.8324C29.334 24.8505 29.3225 24.8685 29.3108 24.8863C29.2994 24.9038 29.288 24.9213 29.2763 24.9385C29.2649 24.9552 29.2533 24.9718 29.2417 24.9883C29.2303 25.0045 29.2188 25.0205 29.2071 25.0365C29.1957 25.0522 29.1842 25.0678 29.1726 25.0833C29.1612 25.0984 29.1496 25.1134 29.138 25.1284C29.1266 25.143 29.115 25.1575 29.1034 25.1719C29.092 25.1862 29.0806 25.2004 29.0689 25.2145C29.0575 25.2282 29.0459 25.2418 29.0343 25.2554C29.0229 25.2687 29.0114 25.282 28.9997 25.2951C28.9883 25.3082 28.9768 25.3212 28.9652 25.3341C28.9538 25.3467 28.9421 25.359 28.9306 25.3714C28.9191 25.3837 28.9077 25.3961 28.896 25.4082C28.8846 25.4202 28.873 25.4319 28.8615 25.4436C28.85 25.4552 28.8385 25.4667 28.8269 25.4782C28.8155 25.4895 28.804 25.5008 28.7923 25.512C28.7809 25.523 28.7693 25.5338 28.7578 25.5446C28.7463 25.5554 28.7348 25.5662 28.7232 25.5768C28.7118 25.5873 28.7002 25.5975 28.6886 25.6077C28.6771 25.618 28.6657 25.6283 28.6541 25.6384C28.6426 25.6483 28.631 25.6579 28.6195 25.6676C28.608 25.6774 28.5966 25.6872 28.5849 25.6967C28.5735 25.7061 28.5619 25.7153 28.5504 25.7245C28.5389 25.7338 28.5274 25.7431 28.5158 25.7522C28.5044 25.7611 28.4928 25.7699 28.4812 25.7787C28.4697 25.7874 28.4583 25.7963 28.4467 25.8049C28.4352 25.8135 28.4236 25.8218 28.4121 25.8302C28.4006 25.8385 28.3891 25.847 28.3775 25.8552C28.3661 25.8633 28.3545 25.8711 28.343 25.8791C28.3315 25.8871 28.32 25.8952 28.3084 25.903C28.297 25.9107 28.2854 25.9182 28.2738 25.9257C28.2623 25.9333 28.2509 25.941 28.2393 25.9484C28.2278 25.9558 28.2162 25.9628 28.2047 25.97C28.1932 25.9772 28.1817 25.9845 28.1702 25.9916C28.1587 25.9986 28.1471 26.0053 28.1356 26.0122C28.1241 26.019 28.1126 26.0259 28.101 26.0326C28.0895 26.0392 28.078 26.0457 28.0664 26.0522L28.0319 26.0715L27.9973 26.0903L27.9627 26.1085C27.9512 26.1145 27.9398 26.1205 27.9282 26.1264C27.9167 26.1322 27.9052 26.1378 27.8936 26.1436C27.8821 26.1493 27.8707 26.1551 27.8591 26.1606C27.8476 26.1662 27.836 26.1714 27.8245 26.1768C27.813 26.1822 27.8015 26.1877 27.7899 26.1929C27.7784 26.1982 27.7668 26.2032 27.7553 26.2083L27.7208 26.2234L27.6862 26.238L27.6517 26.2522C27.6401 26.2569 27.6286 26.2616 27.6171 26.2662C27.6056 26.2707 27.594 26.2749 27.5825 26.2793C27.571 26.2837 27.5595 26.2881 27.5479 26.2924C27.5365 26.2967 27.5249 26.3007 27.5134 26.3048L27.4788 26.317L27.4442 26.3288C27.4328 26.3327 27.4212 26.3363 27.4097 26.3401C27.3981 26.3438 27.3867 26.3477 27.3751 26.3513C27.3637 26.3549 27.3521 26.3582 27.3406 26.3616L27.306 26.3719L27.2714 26.3817C27.2599 26.385 27.2484 26.388 27.2368 26.3911C27.2253 26.3942 27.2139 26.3975 27.2023 26.4004C27.1908 26.4034 27.1792 26.406 27.1677 26.4089C27.1562 26.4117 27.1447 26.4146 27.1332 26.4173L27.0986 26.4253L27.064 26.4328C27.0525 26.4353 27.041 26.4379 27.0295 26.4403C27.018 26.4427 27.0064 26.4447 26.9949 26.447L26.9603 26.4536L26.9257 26.4598C26.9143 26.4618 26.9027 26.4636 26.8912 26.4655C26.8797 26.4674 26.8682 26.4695 26.8566 26.4712C26.8451 26.473 26.8336 26.4745 26.8221 26.4762L26.7875 26.481C26.776 26.4826 26.7645 26.4842 26.7529 26.4856C26.7414 26.487 26.7299 26.4882 26.7184 26.4896C26.7068 26.4909 26.6954 26.4923 26.6838 26.4935C26.6723 26.4947 26.6608 26.4958 26.6492 26.4968L26.6147 26.4999C26.6031 26.5009 26.5917 26.5021 26.5801 26.503C26.5686 26.5038 26.5571 26.5044 26.5455 26.5051L26.5109 26.5073L26.4764 26.5092C26.4649 26.5097 26.4533 26.51 26.4418 26.5105C26.4303 26.5109 26.4188 26.5114 26.4073 26.5118C26.3958 26.5121 26.3842 26.5122 26.3727 26.5125L26.3381 26.5129C26.3274 26.513 26.3167 26.5133 26.3059 26.5133H26.3036H26.269H26.2344H26.1998H26.1653H26.1307H26.0962H26.0616H26.027H25.9925H25.9579H25.9233H25.8888H25.8542H25.8196H25.7851H25.7505H25.7159H25.6814H25.6468H25.6122H25.5777H25.5431H25.5086H25.474H25.4394H25.4048H25.3703H25.3357H25.3011H25.2666H25.232H25.1974H25.1629H25.1283H25.0937H25.0592H25.0246H24.9901H24.9555H24.9209H24.8863H24.8518H24.8172H24.7827H24.7481H24.7135H24.679H24.6444H24.6098H24.5753H24.5407H24.5061H24.4716H24.437H24.4024H24.3678H24.3333H24.2987H24.2642H24.2296H24.195H24.1604H24.1259H24.0913H24.0568H24.0222H23.9876H23.9531H23.9185H23.8839H23.8493H23.8148H23.7802H23.7457H23.7111H23.6765H23.642H23.6074H23.5728H23.5383H23.5037H23.4691H23.4346H23.4H23.3654H23.3308H23.2963H23.2617H23.2272H23.1926H23.158H23.1235H23.0889H23.0543H23.0198H22.9852H22.9506H22.9161H22.8815H22.8469H22.8124H22.7778H22.7432H22.7087H22.6741H22.6395H22.605H22.5704H22.5358H22.5013H22.4667H22.4322H22.3976H22.363H22.3284H22.2939H22.2593H22.2247H22.1902H22.1556H22.121H22.0865H22.0519H22.0173H21.9828H21.9482H21.9137H21.8791H21.8446H21.81H21.7754H21.7408H21.7063H21.6717H21.6371H21.6026H21.568H21.5335H21.4989H21.4643H21.4297H21.3952H21.3606H21.3261H21.2915H21.2569H21.2224H21.1878H21.1532H21.1186H21.0444V18.2347C21.0687 18.2555 21.0935 18.276 21.1186 18.2964C21.1301 18.3056 21.1416 18.3148 21.1532 18.3239C21.1647 18.3329 21.1762 18.3419 21.1878 18.3508C21.1993 18.3596 21.2107 18.3684 21.2224 18.3771C21.2338 18.3856 21.2454 18.394 21.2569 18.4024C21.2683 18.4107 21.2799 18.419 21.2915 18.4273C21.303 18.4354 21.3144 18.4435 21.3261 18.4516L21.3606 18.4752C21.372 18.4829 21.3836 18.4906 21.3952 18.4982L21.4297 18.5208C21.4412 18.5282 21.4527 18.5355 21.4643 18.5429C21.4757 18.55 21.4873 18.5571 21.4989 18.5643L21.5335 18.5853C21.5449 18.5922 21.5564 18.5991 21.568 18.6059C21.5794 18.6126 21.591 18.6192 21.6026 18.6258L21.6371 18.6454L21.6717 18.6646L21.7063 18.6833C21.7178 18.6894 21.7292 18.6956 21.7408 18.7017C21.7523 18.7077 21.7638 18.7136 21.7754 18.7195L21.81 18.737L21.8446 18.7542L21.8791 18.7709C21.8906 18.7764 21.9021 18.782 21.9137 18.7874L21.9482 18.8034L21.9828 18.8192L22.0173 18.8345L22.0519 18.8495L22.0865 18.8643L22.121 18.8787L22.1556 18.8929L22.1902 18.9066L22.2247 18.9203L22.2593 18.9334C22.2708 18.9378 22.2823 18.9422 22.2939 18.9465L22.3284 18.9591C22.3399 18.9633 22.3514 18.9676 22.363 18.9717C22.3744 18.9758 22.3861 18.9797 22.3976 18.9837L22.4322 18.9957L22.4667 19.0073C22.4782 19.0112 22.4896 19.0151 22.5013 19.0189C22.5127 19.0226 22.5243 19.0262 22.5358 19.0299L22.5704 19.041L22.605 19.0516L22.6395 19.0622L22.6741 19.0724L22.7087 19.0825L22.7432 19.0923L22.7778 19.102L22.8124 19.1114L22.8469 19.1206L22.8815 19.1296L22.9161 19.1384L22.9506 19.1471L22.9852 19.1555L23.0198 19.1639L23.0543 19.1718L23.0889 19.1798L23.1235 19.1874L23.158 19.195L23.1926 19.2024L23.2272 19.2095L23.2617 19.2167L23.2963 19.2234L23.3308 19.2302L23.3654 19.2367L23.4 19.2431L23.4346 19.2494L23.4691 19.2554L23.5037 19.2614L23.5383 19.2671L23.5728 19.2727L23.6074 19.2783L23.642 19.2836L23.6765 19.2888L23.7111 19.2939L23.7457 19.2988L23.7802 19.3037L23.8148 19.3082L23.8493 19.3128L23.8839 19.3172L23.9185 19.3214L23.9531 19.3257L23.9876 19.3296L24.0222 19.3335L24.0568 19.3374L24.0913 19.3409L24.1259 19.3445L24.1604 19.3479L24.195 19.3512L24.2296 19.3544L24.2642 19.3574L24.2987 19.3604L24.3333 19.3633L24.3678 19.366L24.4024 19.3686L24.437 19.3712L24.4716 19.3735L24.5061 19.3759L24.5407 19.3782L24.5753 19.3802L24.6098 19.3822L24.6444 19.3842L24.679 19.3858L24.7135 19.3876L24.7481 19.3893L24.7827 19.3907L24.8172 19.3921L24.8518 19.3935L24.8863 19.3946L24.9209 19.3958L24.9555 19.3969L24.9901 19.3977L25.0246 19.3986L25.0592 19.3995L25.0937 19.4001L25.1283 19.4006L25.1629 19.4012L25.1974 19.4016L25.232 19.4019L25.2666 19.4022L25.3011 19.4024L25.3357 19.4024L25.3703 19.4025L25.4048 19.4024L25.4394 19.4022L25.474 19.402L25.5086 19.4017L25.5431 19.4012L25.5777 19.4008L25.6122 19.4003L25.6468 19.3996L25.6814 19.3989L25.7159 19.3982L25.7505 19.3973L25.7851 19.3964L25.8196 19.3954L25.8542 19.3944L25.8888 19.3932L25.9233 19.392L25.9579 19.3908L25.9925 19.3893L26.027 19.3879L26.0616 19.3865L26.0785 19.3858L26.0962 19.3849L26.1307 19.3832L26.1653 19.3814L26.1998 19.3795L26.2344 19.3774L26.269 19.3753L26.3036 19.373L26.3381 19.3706L26.3727 19.3681L26.4073 19.3655L26.4418 19.3627L26.4764 19.3599L26.5109 19.357L26.5455 19.3539L26.5801 19.3508L26.6147 19.3475L26.6492 19.3442L26.6838 19.3408L26.7184 19.3373L26.7529 19.3336L26.7875 19.3299L26.8221 19.3261L26.8566 19.3222L26.8912 19.3182L26.9257 19.3141L26.9603 19.31L26.9949 19.3057L27.0295 19.3014L27.064 19.297L27.0986 19.2925L27.1332 19.2879L27.1677 19.2833L27.2023 19.2785L27.2368 19.2737L27.2714 19.2688L27.306 19.2639L27.3406 19.2588L27.3751 19.2537L27.4097 19.2485L27.4442 19.2432L27.4788 19.2379L27.5134 19.2324L27.5479 19.2269L27.5825 19.2214L27.6171 19.2158L27.6517 19.21L27.6862 19.2043L27.7208 19.1984L27.7553 19.1925L27.7899 19.1865L27.8245 19.1805L27.8591 19.1743L27.8936 19.1681L27.9282 19.1619L27.9627 19.1556L27.9973 19.1492L28.0319 19.1427L28.0664 19.1362L28.101 19.1296L28.1356 19.1229L28.1702 19.1162L28.2047 19.1094L28.2393 19.1025L28.2738 19.0956L28.3084 19.0886L28.343 19.0815L28.3775 19.0743L28.4121 19.0671L28.4467 19.0599L28.4812 19.0525L28.5158 19.0451L28.5504 19.0375L28.5849 19.03L28.6195 19.0223L28.6541 19.0146L28.6886 19.0068L28.7232 18.9988L28.7578 18.9908L28.7923 18.9827L28.8269 18.9745L28.8615 18.9662L28.8959 18.9577V17.441L28.8615 17.4581L28.8269 17.4751L28.7923 17.492L28.7578 17.5088L28.7232 17.5254L28.6886 17.5419L28.6541 17.5581L28.6195 17.5742L28.5849 17.5901L28.5504 17.6059L28.5158 17.6215L28.4812 17.6369L28.4467 17.6521L28.4121 17.6672L28.3775 17.682L28.343 17.6967L28.3084 17.7112L28.2738 17.7256L28.2393 17.7397L28.2047 17.7536L28.1702 17.7674L28.1356 17.781L28.101 17.7943L28.0664 17.8075L28.0319 17.8205L27.9973 17.8333L27.9627 17.8459L27.9282 17.8583L27.8936 17.8705L27.8591 17.8825L27.8245 17.8943L27.7899 17.9059L27.7553 17.9174L27.7208 17.9286L27.6862 17.9396L27.6517 17.9505L27.6171 17.9611L27.5825 17.9715L27.5479 17.9818L27.5134 17.9919L27.4788 18.0017L27.4442 18.0113L27.4097 18.0208L27.3751 18.0301L27.3406 18.0391L27.306 18.048L27.2714 18.0566L27.2368 18.0651L27.2023 18.0734L27.1677 18.0815L27.1332 18.0894L27.0986 18.0971L27.064 18.1046L27.0295 18.1119L26.9949 18.119L26.9603 18.1259L26.9257 18.1327L26.8912 18.1392L26.8566 18.1456L26.8221 18.1517L26.7875 18.1577L26.7529 18.1635L26.7184 18.1691L26.6838 18.1745L26.6492 18.1797L26.6147 18.1847L26.5801 18.1896L26.5455 18.1942L26.5109 18.1987L26.4764 18.203L26.4418 18.2071L26.4073 18.211L26.3727 18.2148L26.3381 18.2183L26.3036 18.2217L26.269 18.2249L26.2344 18.2279L26.1998 18.2307L26.1789 18.2324L26.1653 18.2333L26.1307 18.2356L26.0962 18.2379L26.0616 18.2398L26.027 18.2415L25.9925 18.2431L25.9579 18.2443L25.9233 18.2454L25.8888 18.2461L25.8542 18.2466L25.8196 18.2471C25.8081 18.2471 25.7966 18.247 25.7851 18.247L25.7505 18.2468L25.7159 18.2463L25.6814 18.2456L25.6468 18.2447C25.6352 18.2443 25.6238 18.2438 25.6122 18.2433C25.6007 18.2428 25.5891 18.2425 25.5777 18.2419L25.5431 18.24L25.5086 18.2379L25.474 18.2355L25.4394 18.2328C25.4279 18.2318 25.4163 18.231 25.4048 18.23C25.3932 18.2289 25.3818 18.2276 25.3703 18.2265L25.3357 18.223L25.3011 18.219L25.2666 18.2148L25.232 18.2102L25.1974 18.2053C25.1859 18.2037 25.1743 18.202 25.1629 18.2002C25.1513 18.1984 25.1398 18.1964 25.1283 18.1945C25.1168 18.1926 25.1052 18.1908 25.0937 18.1888C25.0821 18.1867 25.0707 18.1844 25.0592 18.1823C25.0477 18.1801 25.036 18.1781 25.0246 18.1758C25.013 18.1735 25.0016 18.171 24.9901 18.1686C24.9785 18.1662 24.9669 18.1639 24.9555 18.1613C24.9439 18.1588 24.9324 18.1561 24.9209 18.1534L24.8863 18.1453C24.8747 18.1425 24.8633 18.1395 24.8518 18.1366C24.8402 18.1336 24.8287 18.1307 24.8172 18.1276C24.8056 18.1245 24.7941 18.1213 24.7827 18.1181C24.7711 18.1148 24.7595 18.1116 24.7481 18.1082C24.7365 18.1048 24.725 18.1013 24.7135 18.0977C24.702 18.0942 24.6904 18.0906 24.679 18.0869C24.6674 18.0832 24.6559 18.0794 24.6444 18.0755C24.6328 18.0716 24.6213 18.0678 24.6098 18.0638C24.5982 18.0597 24.5868 18.0555 24.5753 18.0513C24.5637 18.0471 24.5521 18.043 24.5407 18.0386C24.5291 18.0342 24.5176 18.0296 24.5061 18.0251C24.4946 18.0205 24.483 18.016 24.4716 18.0113C24.4599 18.0065 24.4485 18.0015 24.437 17.9966C24.4254 17.9916 24.4138 17.9867 24.4024 17.9816C24.3908 17.9764 24.3793 17.971 24.3678 17.9657C24.3563 17.9603 24.3447 17.9549 24.3333 17.9494C24.3217 17.9438 24.3102 17.9381 24.2987 17.9323C24.2871 17.9265 24.2756 17.9205 24.2642 17.9145C24.2526 17.9085 24.241 17.9025 24.2296 17.8962C24.2179 17.8899 24.2065 17.8834 24.195 17.8769C24.1835 17.8703 24.1719 17.8638 24.1604 17.857C24.1488 17.8502 24.1373 17.8432 24.1259 17.8362C24.1143 17.829 24.1028 17.8218 24.0913 17.8145C24.0798 17.8071 24.0681 17.7998 24.0568 17.7922C24.0451 17.7845 24.0337 17.7765 24.0222 17.7685C24.0106 17.7605 23.999 17.7523 23.9876 17.7441C23.976 17.7358 23.9644 17.7274 23.9531 17.7189C23.9414 17.7101 23.9299 17.7011 23.9185 17.6921C23.9069 17.683 23.8954 17.6738 23.8839 17.6645C23.8723 17.655 23.8607 17.6456 23.8493 17.6359C23.8377 17.6259 23.8262 17.6157 23.8148 17.6055C23.8031 17.5951 23.7916 17.5845 23.7802 17.5738C23.7686 17.563 23.757 17.552 23.7457 17.5409C23.734 17.5296 23.7224 17.5182 23.7111 17.5066C23.6994 17.4946 23.6879 17.4823 23.6765 17.4701C23.6648 17.4575 23.6533 17.4447 23.642 17.4318C23.6303 17.4186 23.6187 17.4052 23.6074 17.3916C23.5957 17.3777 23.5842 17.3636 23.5728 17.3494C23.5611 17.3346 23.5496 17.3197 23.5383 17.3046C23.5265 17.289 23.515 17.2733 23.5037 17.2573C23.492 17.2407 23.4804 17.2239 23.4691 17.2069C23.4574 17.1891 23.4458 17.1712 23.4346 17.153C23.4227 17.134 23.4112 17.1147 23.4 17.0952C23.3881 17.0747 23.3767 17.0539 23.3654 17.0328C23.3535 17.0106 23.342 16.988 23.3308 16.9651C23.3189 16.9408 23.3074 16.9161 23.2963 16.8912C23.2844 16.8644 23.2727 16.8373 23.2617 16.8098C23.2495 16.7793 23.2382 16.7483 23.2272 16.717C23.215 16.6822 23.2034 16.6471 23.1926 16.6113C23.1801 16.5698 23.1686 16.5276 23.158 16.4847C23.1449 16.4313 23.1335 16.3768 23.1235 16.3212C23.1086 16.2389 23.097 16.1543 23.0889 16.0674C23.0796 15.967 23.0748 15.8636 23.0748 15.7572C23.0748 15.6508 23.0796 15.5473 23.0889 15.4469C23.097 15.3599 23.1086 15.2753 23.1235 15.1929C23.1335 15.1374 23.1449 15.0828 23.158 15.0294C23.1686 14.9864 23.1801 14.9443 23.1926 14.9027C23.2034 14.8669 23.215 14.8317 23.2272 14.7969C23.2382 14.7656 23.2495 14.7346 23.2617 14.7041C23.2727 14.6765 23.2844 14.6495 23.2963 14.6226C23.3074 14.5977 23.3189 14.573 23.3308 14.5487C23.342 14.5258 23.3535 14.5032 23.3654 14.4809C23.3767 14.4599 23.3881 14.4391 23.4 14.4185C23.4112 14.399 23.4227 14.3797 23.4346 14.3607C23.4458 14.3425 23.4574 14.3245 23.4691 14.3068C23.4804 14.2898 23.492 14.273 23.5037 14.2564C23.515 14.2404 23.5265 14.2246 23.5383 14.209C23.5496 14.1939 23.5611 14.179 23.5728 14.1643C23.5842 14.15 23.5957 14.1359 23.6074 14.122C23.6187 14.1084 23.6303 14.095 23.642 14.0818C23.6533 14.0689 23.6648 14.0561 23.6765 14.0435C23.6879 14.0312 23.6994 14.0189 23.7111 14.007C23.7224 13.9953 23.734 13.984 23.7457 13.9726C23.757 13.9615 23.7686 13.9505 23.7802 13.9397C23.7916 13.929 23.8031 13.9184 23.8148 13.908C23.8262 13.8978 23.8377 13.8876 23.8493 13.8776C23.8607 13.8679 23.8723 13.8585 23.8839 13.849C23.8954 13.8396 23.9069 13.8304 23.9185 13.8213C23.9299 13.8123 23.9414 13.8033 23.9531 13.7946C23.9644 13.786 23.976 13.7777 23.9876 13.7693C23.999 13.7611 24.0106 13.753 24.0222 13.7449C24.0337 13.737 24.0451 13.729 24.0568 13.7212C24.0681 13.7136 24.0798 13.7063 24.0913 13.6989C24.1028 13.6916 24.1143 13.6844 24.1259 13.6772C24.1373 13.6702 24.1488 13.6632 24.1604 13.6564C24.1719 13.6496 24.1835 13.6431 24.195 13.6365C24.2065 13.63 24.2179 13.6235 24.2296 13.6171C24.241 13.6109 24.2526 13.6049 24.2642 13.5988C24.2756 13.5929 24.2871 13.5869 24.2987 13.5811C24.3102 13.5753 24.3217 13.5696 24.3333 13.564C24.3447 13.5584 24.3563 13.553 24.3678 13.5476C24.3793 13.5423 24.3908 13.5369 24.4024 13.5317C24.4138 13.5266 24.4254 13.5217 24.437 13.5168C24.4485 13.5118 24.4599 13.5068 24.4716 13.502C24.483 13.4973 24.4946 13.4928 24.5061 13.4882C24.5176 13.4837 24.5291 13.4791 24.5407 13.4747C24.5521 13.4703 24.5637 13.4662 24.5753 13.462C24.5868 13.4578 24.5982 13.4536 24.6098 13.4495C24.6213 13.4455 24.6328 13.4416 24.6444 13.4378C24.6559 13.4339 24.6674 13.4301 24.679 13.4263C24.6904 13.4227 24.702 13.4191 24.7135 13.4156C24.725 13.412 24.7365 13.4085 24.7481 13.4051L24.7827 13.3953C24.7941 13.392 24.8056 13.3888 24.8172 13.3857C24.8287 13.3826 24.8402 13.3797 24.8518 13.3767C24.8633 13.3738 24.8747 13.3708 24.8863 13.368L24.9209 13.3599C24.9324 13.3572 24.9439 13.3545 24.9555 13.3519C24.9669 13.3494 24.9785 13.3471 24.9901 13.3447C25.0016 13.3422 25.013 13.3397 25.0246 13.3374C25.036 13.3352 25.0477 13.3331 25.0592 13.331C25.0707 13.3288 25.0821 13.3266 25.0937 13.3245C25.1052 13.3225 25.1168 13.3207 25.1283 13.3188C25.1398 13.3168 25.1513 13.3149 25.1629 13.313L25.1974 13.3079L25.232 13.303L25.2666 13.2984L25.3011 13.2942L25.3357 13.2902L25.3703 13.2867C25.3818 13.2856 25.3932 13.2843 25.4048 13.2833C25.4163 13.2822 25.4279 13.2814 25.4394 13.2805L25.474 13.2777L25.5086 13.2753L25.5431 13.2733L25.5777 13.2713C25.5891 13.2708 25.6007 13.2704 25.6122 13.2699C25.6238 13.2695 25.6352 13.2689 25.6468 13.2685L25.6814 13.2676L25.7159 13.2669L25.7505 13.2664L25.7851 13.2663C25.7966 13.2662 25.8081 13.2661 25.8196 13.2661L25.8542 13.2666L25.8888 13.2671L25.9233 13.2678L25.9579 13.269L25.9925 13.2701L26.027 13.2717L26.0616 13.2734L26.0962 13.2753L26.1307 13.2776L26.1653 13.2799L26.1789 13.2808L26.1998 13.2825L26.2344 13.2852L26.269 13.2882L26.3036 13.2914L26.3381 13.2947L26.3727 13.2982L26.4073 13.3019L26.4418 13.3058L26.4764 13.3098L26.5109 13.314L26.5455 13.3184L26.5801 13.323L26.6147 13.3278L26.6492 13.3328L26.6838 13.3379L26.7184 13.3433L26.7529 13.3488L26.7875 13.3545L26.8221 13.3604L26.8566 13.3665L26.8912 13.3728L26.9257 13.3793L26.9603 13.386L26.9949 13.3928L27.0295 13.3999L27.064 13.4071L27.0986 13.4146L27.1332 13.4222L27.1677 13.43L27.2023 13.4381L27.2368 13.4463L27.2714 13.4548L27.306 13.4634L27.3406 13.4722L27.3751 13.4812L27.4097 13.4905L27.4442 13.4999L27.4788 13.5095L27.5134 13.5193L27.5479 13.5294L27.5825 13.5396L27.6171 13.5501L27.6517 13.5607L27.6862 13.5715L27.7208 13.5825L27.7553 13.5938L27.7899 13.6052L27.8245 13.6169L27.8591 13.6287L27.8936 13.6407L27.9282 13.653L27.9627 13.6654L27.9973 13.678L28.0319 13.6909L28.0664 13.7039L28.101 13.7172L28.1356 13.7306L28.1702 13.7442L28.2047 13.7581L28.2393 13.7721L28.2738 13.7863L28.3084 13.8008L28.343 13.8154L28.3775 13.8302L28.4121 13.8451L28.4467 13.8603L28.4812 13.8756L28.5158 13.8912L28.5504 13.9069L28.5849 13.9228L28.6195 13.9388L28.6541 13.9551L28.6886 13.9715L28.7232 13.9881L28.7578 14.0048L28.7923 14.0218L28.8269 14.0388L28.8615 14.0561L28.8959 14.0733V12.5555L28.8615 12.547L28.8269 12.5387L28.7923 12.5305L28.7578 12.5224L28.7232 12.5144L28.6886 12.5065L28.6541 12.4987L28.6195 12.4909L28.5849 12.4833L28.5504 12.4757L28.5158 12.4682L28.4812 12.4608L28.4467 12.4534L28.4121 12.4461L28.3775 12.4389L28.343 12.4318L28.3084 12.4247L28.2738 12.4177L28.2393 12.4108L28.2047 12.4039L28.1702 12.3971L28.1356 12.3904L28.101 12.3837L28.0664 12.3771L28.0319 12.3706L27.9973 12.3642L27.9627 12.3578L27.9282 12.3515L27.8936 12.3452L27.8591 12.339L27.8245 12.3329L27.7899 12.3268L27.7553 12.3209L27.7208 12.315L27.6862 12.3091L27.6517 12.3034L27.6171 12.2976L27.5825 12.292L27.5479 12.2865L27.5134 12.281L27.4788 12.2756L27.4442 12.2702L27.4097 12.265L27.3751 12.2598L27.3406 12.2546L27.306 12.2496L27.2714 12.2447L27.2368 12.2398L27.2023 12.235L27.1677 12.2303L27.1332 12.2256L27.0986 12.221L27.064 12.2166L27.0295 12.2122L26.9949 12.2078L26.9603 12.2036L26.9257 12.1995L26.8912 12.1954L26.8566 12.1914L26.8221 12.1876L26.7875 12.1837L26.7529 12.1801L26.7184 12.1764L26.6838 12.173L26.6492 12.1695L26.6147 12.1662L26.5801 12.1629L26.5455 12.1598L26.5109 12.1568L26.4764 12.1539L26.4418 12.1511L26.4073 12.1483L26.3727 12.1458L26.3381 12.1432L26.3036 12.1409L26.269 12.1386L26.2344 12.1365L26.1998 12.1344L26.1653 12.1325L26.1307 12.1307L26.0962 12.1291L26.0785 12.1282L26.0616 12.1275L26.027 12.1261L25.9925 12.1247L25.9579 12.1232L25.9233 12.122L25.8888 12.1208L25.8542 12.1196L25.8196 12.1186L25.7851 12.1176L25.7505 12.1167L25.7159 12.1158L25.6814 12.1151L25.6468 12.1144L25.6122 12.1137L25.5777 12.1132L25.5431 12.1128L25.5086 12.1123L25.474 12.112L25.4394 12.1118L25.4048 12.1116L25.3703 12.1115L25.3357 12.1116L25.3011 12.1117L25.2666 12.1118L25.232 12.1121L25.1974 12.1124L25.1629 12.1128L25.1283 12.1134L25.0937 12.114L25.0592 12.1146L25.0246 12.1154L24.9901 12.1163L24.9555 12.1171L24.9209 12.1183L24.8863 12.1194L24.8518 12.1206L24.8172 12.122L24.7827 12.1234L24.7481 12.1248L24.7135 12.1265L24.679 12.1282L24.6444 12.1299L24.6098 12.1319L24.5753 12.1339L24.5407 12.1359L24.5061 12.1382L24.4716 12.1405L24.437 12.1428L24.4024 12.1455L24.3678 12.1481L24.3333 12.1508L24.2987 12.1537L24.2642 12.1566L24.2296 12.1597L24.195 12.1629L24.1604 12.1662L24.1259 12.1696L24.0913 12.1732L24.0568 12.1767L24.0222 12.1806L23.9876 12.1845L23.9531 12.1884L23.9185 12.1927L23.8839 12.1969L23.8493 12.2014L23.8148 12.2059L23.7802 12.2105L23.7457 12.2154L23.7111 12.2203L23.6765 12.2253L23.642 12.2306L23.6074 12.2358L23.5728 12.2414L23.5383 12.247L23.5037 12.2528L23.4691 12.2588L23.4346 12.2648L23.4 12.2711L23.3654 12.2775L23.3308 12.284L23.2963 12.2908L23.2617 12.2975L23.2272 12.3047L23.1926 12.3118L23.158 12.3192L23.1235 12.3268L23.0889 12.3344L23.0543 12.3424L23.0198 12.3504L22.9852 12.3587L22.9506 12.3671L22.9161 12.3758L22.8815 12.3846L22.8469 12.3937L22.8124 12.4029L22.7778 12.4123L22.7432 12.422L22.7087 12.4318L22.6741 12.4419L22.6395 12.4521L22.605 12.4627L22.5704 12.4733L22.5358 12.4844C22.5243 12.4881 22.5127 12.4917 22.5013 12.4955L22.4667 12.507C22.4552 12.5109 22.4436 12.5147 22.4322 12.5186L22.3976 12.5306L22.363 12.5427C22.3514 12.5468 22.3399 12.5511 22.3284 12.5553C22.3169 12.5595 22.3053 12.5636 22.2939 12.5679L22.2593 12.581C22.2478 12.5854 22.2362 12.5897 22.2247 12.5941L22.1902 12.6078L22.1556 12.6215L22.121 12.6357L22.0865 12.6501L22.0519 12.6649L22.0173 12.68L21.9828 12.6953L21.9482 12.7111L21.9137 12.727C21.9021 12.7325 21.8906 12.7381 21.8791 12.7436L21.8446 12.7603L21.81 12.7775L21.7754 12.795C21.7638 12.801 21.7523 12.8068 21.7408 12.8128C21.7292 12.8189 21.7178 12.8251 21.7063 12.8313L21.6717 12.85L21.6371 12.8691C21.6255 12.8756 21.614 12.8822 21.6026 12.8888C21.591 12.8954 21.5794 12.902 21.568 12.9087C21.5564 12.9155 21.5449 12.9224 21.5335 12.9293C21.5218 12.9363 21.5103 12.9433 21.4989 12.9503C21.4873 12.9575 21.4757 12.9646 21.4643 12.9717C21.4527 12.9791 21.4412 12.9865 21.4297 12.9938L21.3952 13.0164C21.3836 13.0241 21.372 13.0317 21.3606 13.0394L21.3261 13.0631C21.3144 13.0712 21.303 13.0793 21.2915 13.0874C21.2799 13.0956 21.2683 13.1039 21.2569 13.1123C21.2454 13.1207 21.2338 13.1291 21.2224 13.1376C21.2107 13.1463 21.1993 13.1551 21.1878 13.1639C21.1762 13.1728 21.1647 13.1818 21.1532 13.1908C21.1416 13.1999 21.1301 13.2091 21.1186 13.2184V13.2183Z" fill="currentColor"/>
</svg>
