<svg xmlns="http://www.w3.org/2000/svg" width="100px" x="0px" y="0px" viewBox="0 0 144 90"><path class="bg" fill="none" stroke="#010202" stroke-miterlimit="10" stroke-width="2" d="M13.1 2.1h118.5c5.9 0 10.8 4.8 10.8 10.8v64.4c0 5.9-4.8 10.7-10.8 10.7H13.1C7.2 88 2.3 83.2 2.3 77.3V12.8C2.4 6.9 7.2 2.1 13.1 2.1z"/><path d="M72.4 65.4c-6-4.7-10-12.1-10-20.4s3.9-15.7 9.9-20.4h.1c6 4.8 9.9 12.1 9.9 20.4s-3.8 15.7-9.9 20.4zM114.3 45c0 14.4-11.6 26-26 26-5.3 0-10.2-1.6-14.4-4.3 6.5-5.3 10.2-13.1 10.2-21.7 0-8.5-3.8-16.3-10.2-21.7 4.1-2.7 9-4.3 14.4-4.3 14.4 0 26 11.8 26 26zM70.7 66.6c-4.1 2.7-9 4.3-14.4 4.3-14.4 0-26-11.6-26-26S42 19 56.3 19c5.3 0 10.2 1.6 14.4 4.3-6.5 5.4-10.2 13.3-10.2 21.7 0 8.4 3.8 16.4 10.2 21.6z"/></svg>
