<svg viewBox="0 0 50 33" fill="none" xmlns="http://www.w3.org/2000/svg">
    <path d="M4.55582 1.35229H45.5833C47.643 1.35229 49.3133 3.04759 49.3133 5.13959V27.8633C49.3133 29.9546 47.644 31.6506 45.5833 31.6506H4.55582C2.49653 31.6506 0.826172 29.9546 0.826172 27.8633V5.13959C0.826518 3.04724 2.49653 1.35229 4.55582 1.35229Z" stroke="currentColor" stroke-miterlimit="10" fill="none"/>
    <path d="M20.7193 14.1283C20.712 14.1421 20.5801 14.2824 20.6653 14.393C20.8741 14.6663 21.5182 14.8215 22.1695 14.6726C22.557 14.5833 23.0526 14.1793 23.5336 13.7891C24.0551 13.3649 24.5735 12.9396 25.0929 12.7716C25.6435 12.5919 25.9957 12.6684 26.2294 12.7397C26.485 12.8194 26.7862 12.9906 27.2652 13.3595C28.169 14.0549 31.8019 17.2999 32.4283 17.8613C32.9353 17.6274 35.1813 16.6365 38.2345 15.9496C37.9696 14.2835 36.9785 12.7588 35.4774 11.5105C33.3851 12.4101 30.8274 12.88 28.3269 11.6286C28.3144 11.6254 26.9608 10.9683 25.6248 11.0013C23.6406 11.048 22.7804 11.9273 21.8703 12.8577L20.7193 14.1283Z" fill="currentColor"/>
    <path d="M32.2817 18.2146C32.2391 18.1763 28.0109 14.388 27.0521 13.6511C26.4984 13.2258 26.1898 13.1174 25.8657 13.0749C25.6964 13.0536 25.4647 13.0844 25.3006 13.1312C24.8559 13.2546 24.2731 13.6533 23.7558 14.0722C23.2197 14.5102 22.7148 14.9207 22.2463 15.0291C21.6479 15.1663 20.9166 15.0036 20.582 14.7729C20.447 14.6804 20.3525 14.5719 20.3067 14.4635C20.1831 14.17 20.4106 13.9372 20.447 13.8968L21.6147 12.606C21.7497 12.4678 21.8869 12.3285 22.0271 12.1913C21.651 12.2423 21.303 12.3412 20.9633 12.4369C20.5405 12.5592 20.1343 12.674 19.7219 12.674C19.5505 12.674 18.63 12.5209 18.4555 12.472C17.4 12.1743 16.4723 11.8883 15.0885 11.2259C13.4295 12.4901 12.32 14.0711 12 15.8117C12.2379 15.8765 12.6212 15.9924 12.7823 16.0286C16.5378 16.8834 17.7065 17.7638 17.9194 17.9477C18.149 17.6862 18.4794 17.5203 18.8492 17.5203C19.2658 17.5224 19.6398 17.7351 19.8673 18.0647C20.0823 17.8903 20.3784 17.7436 20.7618 17.7436C20.9353 17.7436 21.116 17.7755 21.2989 17.8393C21.7227 17.9871 21.9409 18.2763 22.0541 18.5389C22.1964 18.4719 22.371 18.423 22.5767 18.4241C22.7792 18.4241 22.9901 18.4708 23.201 18.5644C23.8929 18.8685 24.0009 19.566 23.9386 20.0902C23.9885 20.0838 24.0363 20.0817 24.0882 20.0817C24.9079 20.0827 25.5769 20.7643 25.5759 21.6053C25.5759 21.8658 25.5104 22.1093 25.3982 22.3251C25.6216 22.4527 26.1909 22.744 26.6895 22.6792C27.0895 22.6271 27.2411 22.4878 27.2952 22.4091C27.3326 22.356 27.372 22.2922 27.3346 22.2464L26.2771 21.0418C26.2771 21.0418 26.1015 20.8738 26.1587 20.8079C26.2189 20.7419 26.3269 20.8376 26.4038 20.9025C26.9409 21.3639 27.6006 22.0582 27.6006 22.0582C27.611 22.0668 27.6557 22.1539 27.8977 22.1986C28.1076 22.2369 28.4784 22.2156 28.7361 21.9998C28.8005 21.9455 28.8659 21.8764 28.9199 21.8073C28.9158 21.8105 28.9075 21.8169 28.9075 21.8169C29.1786 21.4618 28.8774 21.1024 28.8774 21.1024L27.6411 19.6819C27.6411 19.6819 27.4635 19.5139 27.5237 19.4458C27.5777 19.3884 27.692 19.4767 27.7689 19.5426C28.1605 19.8765 28.7143 20.4464 29.2441 20.978C29.348 21.0545 29.8144 21.3501 30.4315 20.9355C30.8055 20.6835 30.8803 20.3751 30.8709 20.1412C30.8439 19.8329 30.6091 19.6128 30.6091 19.6128L28.9199 17.8754C28.9199 17.8754 28.7413 17.7191 28.8036 17.6405C28.8555 17.5735 28.9709 17.6692 29.0477 17.7351C29.5859 18.1955 31.0434 19.5628 31.0434 19.5628C31.0631 19.5777 31.568 19.9445 32.1882 19.5383C32.4116 19.3927 32.5539 19.1737 32.5653 18.9195C32.5871 18.4762 32.2817 18.2146 32.2817 18.2146Z" fill="currentColor"/>
    <path d="M24.0874 20.4179C23.8257 20.4147 23.54 20.5742 23.5015 20.5508C23.4808 20.537 23.5182 20.4296 23.5431 20.3669C23.567 20.3063 23.9119 19.2441 23.0714 18.8741C22.4273 18.5913 22.0347 18.9092 21.8996 19.0538C21.8632 19.091 21.8477 19.0878 21.8435 19.04C21.831 18.8486 21.7479 18.3308 21.1921 18.1575C20.3974 17.9097 19.8873 18.4764 19.7575 18.6806C19.7003 18.2181 19.318 17.8587 18.8495 17.8576C18.3405 17.8576 17.927 18.2797 17.927 18.8007C17.927 19.3207 18.3394 19.7428 18.8485 19.7428C19.0957 19.7438 19.3201 19.6428 19.4853 19.4801C19.4905 19.4855 19.4926 19.494 19.4894 19.512C19.451 19.7449 19.3804 20.5923 20.2478 20.9379C20.5958 21.0761 20.8909 20.9729 21.136 20.7964C21.2088 20.7443 21.2202 20.7667 21.2098 20.8369C21.1786 21.0548 21.2181 21.5216 21.8581 21.7863C22.3442 21.9894 22.632 21.7821 22.82 21.6035C22.9021 21.5269 22.925 21.5407 22.9302 21.6577C22.952 22.2892 23.4641 22.789 24.0864 22.79C24.7263 22.79 25.2458 22.2605 25.2458 21.6056C25.2458 20.9496 24.7274 20.4254 24.0874 20.4179Z" fill="currentColor"/>
</svg>
