<?xml version="1.0" encoding="utf-8"?>
<!-- Generator: Adobe Illustrator 19.0.0, SVG Export Plug-In . SVG Version: 6.00 Build 0)  -->
<svg version="1.1" id="Camada_1" xmlns="http://www.w3.org/2000/svg" xmlns:xlink="http://www.w3.org/1999/xlink" x="0px" y="0px"
	 width="144px" viewBox="-227 76 144 90" style="enable-background:new -227 76 144 90;" xml:space="preserve">
<style type="text/css">
	.st0{fill:#204578;stroke:#204578;stroke-width:2;stroke-miterlimit:10;}
	.st1{fill:#FFFFFF;}
	.st2{fill:#3E93D0;}
</style>
<path class="st0" d="M-214.2,78.1h118.5c5.9,0,10.8,4.8,10.8,10.8v64.5c0,5.9-4.8,10.7-10.8,10.7h-118.5c-5.9,0-10.8-4.8-10.8-10.7
	V88.8C-224.9,82.9-220.1,78.1-214.2,78.1z"/>
<g>
	<path class="st1" d="M-146.3,109.8c0.2,0.2,0.5,0.4,0.8,0.5c0.3,0.1,0.6,0.2,0.9,0.2c0.3,0,0.6-0.1,0.9-0.2
		c0.3-0.1,0.6-0.3,0.8-0.5c0.2-0.2,0.4-0.5,0.5-0.8c0.1-0.3,0.2-0.6,0.2-0.9s-0.1-0.6-0.2-0.9c-0.1-0.3-0.3-0.6-0.5-0.8
		c-0.2-0.2-0.5-0.4-0.8-0.5c-0.3-0.1-0.6-0.2-0.9-0.2c-0.3,0-0.6,0.1-0.9,0.2c-0.3,0.1-0.5,0.3-0.8,0.5c-0.2,0.2-0.4,0.5-0.5,0.8
		c-0.1,0.3-0.2,0.6-0.2,0.9s0.1,0.6,0.2,0.9C-146.7,109.3-146.5,109.6-146.3,109.8"/>
	<path class="st1" d="M-150.5,119c-0.5-1.2-1.2-2.3-2-3.2c-0.9-0.9-1.9-1.6-3.1-2.1c-1.2-0.5-2.5-0.8-3.8-0.8
		c-1.4,0-2.6,0.3-3.8,0.8c-1.2,0.5-2.2,1.2-3.1,2.1c-0.9,0.9-1.5,2-2,3.2c-0.5,1.2-0.7,2.5-0.7,4c0,1.4,0.2,2.7,0.7,4
		c0.5,1.2,1.2,2.3,2,3.2c0.9,0.9,1.9,1.6,3.1,2.1c1.2,0.5,2.4,0.8,3.8,0.8c1.4,0,2.6-0.3,3.8-0.8c1.2-0.5,2.2-1.2,3.1-2.1
		c0.9-0.9,1.5-2,2-3.2c0.5-1.2,0.7-2.5,0.7-4C-149.8,121.5-150,120.2-150.5,119 M-155.1,125c-0.2,0.6-0.6,1.1-1,1.6
		c-0.4,0.4-0.9,0.8-1.5,1.1c-0.6,0.3-1.2,0.4-1.8,0.4c-0.6,0-1.2-0.1-1.8-0.4c-0.6-0.3-1.1-0.6-1.5-1.1c-0.4-0.4-0.8-1-1-1.6
		c-0.2-0.6-0.4-1.3-0.4-1.9c0-0.7,0.1-1.3,0.4-1.9c0.2-0.6,0.6-1.1,1-1.6c0.4-0.4,0.9-0.8,1.5-1.1c0.6-0.3,1.2-0.4,1.8-0.4
		c0.6,0,1.3,0.1,1.8,0.4c0.6,0.3,1.1,0.6,1.5,1.1c0.4,0.4,0.8,1,1,1.6c0.2,0.6,0.4,1.3,0.4,1.9C-154.7,123.7-154.9,124.4-155.1,125"
		/>
	<path class="st1" d="M-120.9,119.1C-121,119-121,119-120.9,119.1C-121,119-121,119-120.9,119.1c-0.5-1.3-1.2-2.4-2.1-3.3
		c-0.9-0.9-1.9-1.6-3.1-2.1c-1.2-0.5-2.5-0.8-3.8-0.8c-1.4,0-2.6,0.3-3.8,0.8c-1.2,0.5-2.2,1.2-3.1,2.1c-0.9,0.9-1.5,2-2,3.2
		c-0.5,1.2-0.7,2.5-0.7,4c0,0,0,0,0,0c0,0,0,0,0,0v0.1v17.8c0,0,0,0.1,0,0.1v1.2c0,0.5,0.4,0.8,0.8,0.8h0.1c0,0,0.1,0,0.1,0h2.7
		c0,0,0.1,0,0.1,0h0.2c0.5,0,0.8-0.4,0.8-0.8v-0.5c0,0,0,0,0-0.1v-9.1c0-0.8,0.8-0.3,0.8-0.3c1.2,0.5,2.5,0.8,3.9,0.8h0
		c1.4,0,2.6-0.3,3.8-0.8c1.2-0.5,2.2-1.2,3.1-2.2c0.9-0.9,1.5-2,2-3.2c0.5-1.2,0.7-2.5,0.7-4C-120.2,121.6-120.4,120.3-120.9,119.1z
		 M-125.4,125.1c-0.3,0.6-0.6,1.2-1,1.7c-0.4,0.5-1,0.8-1.5,1.1c-0.6,0.3-1.2,0.4-1.9,0.4c-0.7,0-1.3-0.1-1.9-0.4
		c-0.6-0.3-1.1-0.7-1.5-1.1c-0.4-0.5-0.8-1-1-1.7c-0.3-0.6-0.4-1.3-0.4-2c0-0.7,0.1-1.4,0.4-2c0.3-0.6,0.6-1.2,1-1.7
		c0.4-0.5,1-0.8,1.5-1.1c0.6-0.3,1.2-0.4,1.9-0.4c0.7,0,1.3,0.1,1.9,0.4c0.6,0.3,1.1,0.7,1.5,1.1c0.4,0.5,0.8,1,1,1.7
		c0.3,0.6,0.4,1.3,0.4,2C-125,123.7-125.2,124.4-125.4,125.1z"/>
	<path class="st1" d="M-142.3,130.9v-13.4v-0.1c0-1.5-0.6-2.8-1.6-3.6c-0.7-0.6-1.5-0.9-2.4-1c-0.4,0-0.6,0.5-0.6,1V131
		c0,0,0,0.1,0,0.1v1.2c0,0.5,0.4,0.8,0.8,0.8h0.2h2.7h0.2c0.5,0,0.8-0.4,0.8-0.8v-1.2C-142.3,131-142.3,131-142.3,130.9z"/>
	<path class="st1" d="M-171.6,131v-5.6v-4.8c0-1.1-0.2-2.1-0.6-3c-0.4-0.9-0.9-1.8-1.6-2.4c-0.7-0.7-1.5-1.2-2.4-1.6
		c-0.1,0-0.1-0.1-0.2-0.1c-0.4-0.2-0.8-0.3-1.3-0.4c-0.4-0.1-0.9-0.1-1.5-0.1c-1,0-1.9,0.2-2.8,0.6c-0.4,0.2-0.9,0.4-1.2,0.7
		l-0.3,0.2c-0.7,0.5-1.3,0.2-1.6,0l-0.1-0.1c0,0-0.9-0.6-1.4-0.8c-0.9-0.4-1.8-0.5-2.8-0.5h0h0c-0.5,0-1,0-1.5,0.1
		c0,0-0.8,0.1-1.5,0.5c-0.9,0.4-1.7,0.9-2.4,1.6c-0.7,0.7-1.2,1.5-1.6,2.4c-0.4,0.9-0.6,2-0.6,3v2.7v7.8v0.7v0.6
		c0,0.5,0.4,0.8,0.8,0.8h0.4h2.1h0.3c0.5,0,0.8-0.4,0.8-0.8v-1.2c0,0,0,0,0,0l0-10.6c0-1.6,1.3-2.9,2.9-2.9c1.6,0,2.8,1.3,2.8,2.9
		l0,0.2v11.1c0,0,0,0.1,0,0.1v0.4c0,0.5,0.4,0.8,0.8,0.8h0.4h2.2h0.5c0.5,0,0.8-0.4,0.8-0.8v-0.5c0,0,0,0,0-0.1l0-11.5
		c0-1.5,1.2-2.8,2.8-2.8c1.5,0,2.8,1.3,2.8,2.8l0,0.3v10.3c0,0,0,0.1,0,0.1v1.2c0,0.5,0.4,0.8,0.8,0.8h0.4h2.1h0.5
		c0.5,0,0.8-0.4,0.8-0.8v-1.2C-171.6,131-171.6,131-171.6,131z"/>
	<path class="st2" d="M-123,98.3c-2.7,1.5-2.8,11,0,12.2c2.6,1.1,9.6-3.2,9.6-6.1C-113.4,101.6-120.5,97-123,98.3z M-121.4,106.7
		c-0.3,0.3-0.7,0.3-0.9,0l-0.1-0.1c-0.3-0.3-0.3-0.7,0-0.9l0.9-0.9c0.3-0.3,0.3-0.7,0-0.9l-0.9-0.9c-0.3-0.3-0.3-0.7,0-0.9l0.1-0.1
		c0.3-0.3,0.7-0.3,0.9,0l1.9,1.9c0.3,0.3,0.3,0.7,0,0.9L-121.4,106.7z M-116.4,104.8l-1.9,1.9c-0.3,0.3-0.7,0.3-0.9,0l-0.1-0.1
		c-0.3-0.3-0.3-0.7,0-0.9l0.9-0.9c0.3-0.3,0.3-0.7,0-0.9l-0.9-0.9c-0.3-0.3-0.3-0.7,0-0.9l0.1-0.1c0.3-0.3,0.7-0.3,0.9,0l1.9,1.9
		C-116.1,104.1-116.1,104.6-116.4,104.8z"/>
</g>
</svg>
