<?xml version="1.0" encoding="utf-8"?>
<!-- Generator: Adobe Illustrator 19.0.0, SVG Export Plug-In . SVG Version: 6.00 Build 0)  -->
<svg version="1.1" id="Camada_1" xmlns="http://www.w3.org/2000/svg" xmlns:xlink="http://www.w3.org/1999/xlink" x="0px" y="0px"
	 width="144px" viewBox="-227 76 144 90" style="enable-background:new -227 76 144 90;" xml:space="preserve">
<style type="text/css">
	.st0{fill:#AEC90B;stroke:#AEC90B;stroke-width:2;stroke-miterlimit:10;}
	.st1{fill-rule:evenodd;clip-rule:evenodd;fill:#1D1D1B;}
	.st2{fill-rule:evenodd;clip-rule:evenodd;fill:#F7A900;}
	.st3{fill-rule:evenodd;clip-rule:evenodd;fill:#D43F2E;}
	.st4{fill-rule:evenodd;clip-rule:evenodd;fill:#EF8925;}
	.st5{fill-rule:evenodd;clip-rule:evenodd;fill:#E0652D;}
	.st6{fill-rule:evenodd;clip-rule:evenodd;fill:#FFE500;}
</style>
<path class="st0" d="M-214.2,78.1h118.5c5.9,0,10.8,4.8,10.8,10.8v64.5c0,5.9-4.8,10.7-10.8,10.7h-118.5c-5.9,0-10.8-4.8-10.8-10.7
	V88.8C-224.9,82.9-220.1,78.1-214.2,78.1z"/>
<g>
	<path class="st1" d="M-176.7,102.1c-2.1,2.5-3.7,5.4-4.9,8.5c-1.2,3.2-1.9,6.6-1.9,10.1c0,4,0.9,7.8,2.3,11.3
		c1.5,3.5,3.5,6.5,6.1,9.2c2.6,2.6,5.6,4.6,9.1,6.1c3.5,1.5,7.3,2.4,11.2,2.4c4,0,7.7-0.8,11.3-2.4c3.4-1.5,6.5-3.5,9.1-6.1
		c2.6-2.6,4.6-5.7,6-9.2c1.5-3.6,2.4-7.3,2.4-11.3c0-3.6-0.7-6.9-1.9-10.1c-1.2-3.1-2.8-5.9-4.9-8.5c-2.1-2.5-4.6-4.6-7.4-6.2
		c-4.4-2.5-8.9-4-14.1-4c-0.2,0-0.5,0-0.7,0c-5.2,0-9.9,1.5-14.3,4C-172.1,97.5-174.6,99.6-176.7,102.1L-176.7,102.1z"/>
	<path class="st2" d="M-135.5,102.4c-3.6-4.3-8.2-7.1-13.9-8.2c-5.6-1.1-10.9-0.2-15.9,2.5c-2.6,1.4-4.8,3.3-6.5,5.4
		c-1.8,2.2-3.2,4.7-4.1,7.5c-0.9,2.9-1.1,5.9-0.8,8.9c0.7-1.9,1.9-3.6,3.3-5.3c2-2.3,4.4-4.1,7.1-5.4c2.7-1.2,5.7-1.9,8.8-2
		c3.1,0,6.1,0.6,8.9,1.8c3,1.2,5.5,3,7.7,5.5c0.8,0.8,1.5,1.8,2.2,2.8c1,0,2,0.1,2.8,0.3c2.2,0.6,3.9,1.7,5.3,3.4l0.1-1.1
		c0.2-3-0.1-5.7-0.9-8.5C-132.2,107.3-133.6,104.7-135.5,102.4L-135.5,102.4z"/>
	<path class="st2" d="M-177.3,129.6c0.4,2.3,1.1,4.5,2.2,6.4c1.1,2,2.5,3.8,4.3,5.4l0.9,0.7c3.1,2.1,6.4,3.7,10.1,4.4
		c2.3,0.4,4.7,0.3,7-0.2c2.4-0.5,4.7-1.5,6.8-3c-2-0.4-3.7-1.5-5.1-3.1l-0.5-0.6c-2.9,0.3-5.7,0.2-8.6-0.4c-3.7-0.8-6.8-2.4-9.8-4.5
		c-2.8-2.1-5.2-4.9-6.9-8l-0.4-0.9C-177.5,127.1-177.5,128.4-177.3,129.6L-177.3,129.6z"/>
	<path class="st3" d="M-150.4,110.5c-2.6-1.1-5.5-1.7-8.5-1.7c-2.9,0.1-5.6,0.7-8.1,1.9c-2.5,1.1-4.7,2.8-6.5,4.9
		c-1.3,1.6-2.3,3.3-3,5.2c0.5,2.3,1.4,4.4,2.6,6.5c1.7,3,4,5.5,6.8,7.4c2.7,2,5.8,3.3,9.2,4c2,0.4,4.2,0.5,6.3,0.4
		c-0.8-1.4-1.4-2.8-1.6-4.5c-0.3-1.7-0.2-3.3,0.1-5.2c0.4-2.2,1.2-4.2,2.3-6.1c1.2-1.9,2.8-3.6,4.7-5c1.2-0.9,2.5-1.6,3.8-2.1
		l-0.7-0.8C-145.1,113.4-147.5,111.7-150.4,110.5L-150.4,110.5z"/>
	<path class="st4" d="M-130.1,123.5l-0.7-1.1c-1,3.4-2.8,6.4-5.2,9.2c-0.5,2.3-1.5,4.3-2.6,6.2c-1.2,1.9-2.8,3.6-4.6,5
		c1.3,0.1,2.6-0.1,3.9-0.6c1.2-0.4,2.3-1.1,3.5-2c1.5-1.4,3-3.1,4.2-4.8l0.2-0.3c0.5-1.1,1.1-2.3,1.5-3.3c0.4-1.1,0.6-2.3,0.7-3.3
		c0.1-1.2,0.1-2.1-0.1-3.1C-129.7,124.5-129.9,124-130.1,123.5L-130.1,123.5z"/>
	<path class="st5" d="M-180,110.1c-1,2.7-1.5,5.6-1.7,8.7c-0.1,4,0.7,7.9,2.2,11.5c0.7,1.7,1.7,3.4,2.8,5c1.1,1.5,2.3,3,3.6,4.2
		c-3-3.3-4.7-7-5.2-11.3c-0.1-1.5-0.1-2.8-0.1-4.2c-1-2.7-1.5-5.5-1.5-8.3c0-2.6,0.5-5.2,1.3-7.9c0.7-1.8,1.6-3.6,2.6-5.1
		C-177.7,105.1-179,107.5-180,110.1L-180,110.1z"/>
	<path class="st5" d="M-128.2,111.7c-0.7-2.2-1.6-4.3-2.7-6.3c-1.1-1.9-2.5-3.6-4.2-5.2c-1.5-1.6-3.3-3-5.2-4.1
		c1.7,1.1,3.2,2.5,4.5,4c2.1,2.4,3.7,5,4.7,7.9c1,2.9,1.4,6,1.2,9.2c-0.1,1-0.2,1.9-0.4,2.9c0.4,0.6,0.8,1.4,1.1,2.1
		c0.7,2.2,0.9,4.5,0.5,6.9c1.1-3.3,1.7-6.7,1.7-10.2C-127.2,116.4-127.5,114-128.2,111.7L-128.2,111.7z"/>
	<path class="st5" d="M-137.2,118.9c0.8,1.6,1.2,3.3,1.4,5.1c0.2,1.8,0.3,3.4,0.2,5.1l-0.3,1.7c2.3-2.6,3.8-5.6,4.7-9
		c-0.5-0.5-1.1-1.1-1.7-1.5C-134.1,119.4-135.5,118.9-137.2,118.9L-137.2,118.9z"/>
	<path class="st3" d="M-141.7,138.9c0.9-1.3,1.7-2.7,2.2-4.1c-3,2.2-6.4,3.7-10,4.5c0.5,0.8,1.2,1.5,2,2.1c0.8,0.5,1.6,0.9,2.6,1.2
		C-143.7,141.4-142.6,140.2-141.7,138.9L-141.7,138.9z"/>
	<path class="st3" d="M-156.9,147l3.3,0.2c2.8-0.1,5.5-0.6,8-1.5c2.4-0.8,4.8-2,6.8-3.4c-1.3,0.6-2.6,1.1-4.1,1.1
		c-0.4,0.1-1,0.1-1.5,0.1C-148.2,146-152.3,147.1-156.9,147L-156.9,147z"/>
	<path class="st6" d="M-138.9,125.1c-0.5-2-1.1-3.8-2.1-5.5c-1.7,0.5-3.3,1.4-4.7,2.6c-1.5,1.3-2.8,2.9-3.8,4.7
		c-0.8,1.8-1.4,3.6-1.5,5.4c-0.2,1.7,0,3.3,0.5,4.9c0.2,0.5,0.4,1,0.7,1.4c1.9-0.2,3.6-0.8,5.4-1.5c1.8-0.7,3.5-1.7,5.1-2.9l0.1-0.1
		c0.3-1.1,0.5-2.3,0.7-3.4C-138.5,128.8-138.5,127-138.9,125.1L-138.9,125.1z"/>
</g>
</svg>
