<svg version="1.1" class="dooca-svg" id="paypal" xmlns="http://www.w3.org/2000/svg" xmlns:xlink="http://www.w3.org/1999/xlink" x="0px" y="0px" width="100px"
	 viewBox="0 0 144 90" xml:space="preserve">
	 <path class="bg" fill="none" stroke="#000000" stroke-width="2" stroke-miterlimit="10" d="M12.604,2.133h118.462
	 	c5.947,0,10.77,4.812,10.77,10.75v64.5c0,5.936-4.822,10.75-10.77,10.75H12.604c-5.947,0-10.77-4.814-10.77-10.75v-64.5
	 	C1.834,6.944,6.656,2.133,12.604,2.133z"/>
	 <path class="icon" d="M58.494,37.412c2.65,0,5.094,1.437,4.76,5.02c-0.396,4.248-2.686,6.613-6.287,6.623h-3.141
	 	c-0.453,0-0.67,0.369-0.789,1.127l-0.607,3.865c-0.09,0.584-0.391,0.873-0.834,0.873h-2.924c-0.467,0-0.631-0.299-0.527-0.966
	 	l2.42-15.497c0.119-0.762,0.41-1.045,0.926-1.045H58.494L58.494,37.412z M53.729,45.708h2.383c1.488-0.056,2.48-1.088,2.58-2.949
	 	c0.061-1.15-0.715-1.972-1.951-1.966l-2.244,0.01L53.729,45.708L53.729,45.708z M71.205,53.73c0.268-0.242,0.541-0.369,0.5-0.068
	 	l-0.096,0.718c-0.049,0.374,0.102,0.575,0.451,0.575h2.599c0.438,0,0.649-0.178,0.758-0.854l1.603-10.053
	 	c0.082-0.505-0.041-0.752-0.424-0.752h-2.857c-0.26,0-0.385,0.145-0.452,0.538l-0.104,0.619c-0.056,0.323-0.203,0.378-0.341,0.054
	 	c-0.486-1.148-1.723-1.663-3.457-1.627c-4.008,0.083-6.711,3.125-7,7.027c-0.223,3.018,1.939,5.387,4.789,5.387
	 	C69.238,55.293,70.164,54.676,71.205,53.73L71.205,53.73z M69.031,52.188c-1.727,0-2.93-1.377-2.678-3.063s1.863-3.063,3.59-3.063
	 	c1.725,0,2.926,1.375,2.676,3.063C72.367,50.811,70.756,52.188,69.031,52.188L69.031,52.188z M82.107,43.264h-2.625
	 	c-0.545,0-0.766,0.398-0.592,0.905l3.271,9.582l-3.225,4.558c-0.271,0.381-0.062,0.729,0.317,0.729h2.963
	 	c0.441,0,0.656-0.112,0.88-0.432L93.161,44.17c0.31-0.445,0.162-0.91-0.347-0.911l-2.801-0.003c-0.479,0-0.674,0.189-0.949,0.59
	 	l-4.196,6.089l-1.867-6.101C82.889,43.458,82.611,43.264,82.107,43.264z M103.637,37.412c2.649,0,5.094,1.437,4.76,5.02
	 	c-0.398,4.248-2.687,6.613-6.287,6.623h-3.144c-0.45,0-0.668,0.369-0.786,1.127l-0.607,3.865c-0.09,0.584-0.391,0.873-0.834,0.873
	 	h-2.924c-0.467,0-0.631-0.299-0.527-0.966l2.418-15.497c0.119-0.762,0.412-1.045,0.928-1.045H103.637L103.637,37.412z M98.87,45.708
	 	h2.383c1.488-0.056,2.479-1.088,2.58-2.949c0.062-1.15-0.715-1.972-1.951-1.966l-2.243,0.01L98.87,45.708L98.87,45.708z
	 	 M116.348,53.73c0.268-0.242,0.541-0.369,0.5-0.068l-0.097,0.718c-0.049,0.374,0.103,0.575,0.451,0.575h2.598
	 	c0.438,0,0.65-0.178,0.759-0.854l1.602-10.053c0.082-0.505-0.041-0.752-0.424-0.752h-2.857c-0.258,0-0.383,0.145-0.451,0.538
	 	l-0.105,0.619c-0.055,0.323-0.202,0.378-0.34,0.054c-0.485-1.148-1.723-1.663-3.457-1.627c-4.008,0.083-6.711,3.125-7,7.027
	 	c-0.223,3.018,1.939,5.387,4.789,5.387C114.38,55.293,115.307,54.676,116.348,53.73L116.348,53.73z M114.173,52.188
	 	c-1.728,0-2.93-1.377-2.678-3.063s1.862-3.063,3.59-3.063c1.726,0,2.927,1.375,2.677,3.063
	 	C117.509,50.811,115.896,52.188,114.173,52.188L114.173,52.188z M126.159,54.973h-3c-0.236,0-0.402-0.188-0.367-0.414l2.64-16.697
	 	c0.034-0.228,0.26-0.415,0.498-0.415h3c0.237,0,0.403,0.187,0.366,0.415l-2.639,16.697
	 	C126.622,54.785,126.396,54.973,126.159,54.973z M21.617,47.896c-0.028,0.117-0.054,0.24-0.075,0.377l-1.082,6.885
	 	c-0.07,0.447-0.264,0.71-0.617,0.74H15c-0.538,0-0.729-0.409-0.587-1.301L17.9,32.517c0.14-0.886,0.624-1.307,1.586-1.307h7.861
	 	c2.215,0,4.842,0.072,6.598,1.622c1.174,1.035,1.791,2.684,1.648,4.455c-0.023,0.288-0.06,0.564-0.097,0.839
	 	c-0.757-0.235-1.656-0.363-2.716-0.363h-8.282c-0.875,0-1.316,0.375-1.442,1.165l-1.448,8.985
	 	C21.611,47.906,21.615,47.902,21.617,47.896z M38.811,45.039c-0.404,5.178-3.535,8.041-7.688,8.041h-2.098
	 	c-0.568,0-0.951,0.377-1.105,1.398l-0.9,5.938c-0.059,0.386-0.262,0.611-0.566,0.639h-4.926c-0.463,0-0.627-0.354-0.506-1.121
	 	l2.05-12.979h3.808c4.245,0,7.593-2.435,8.867-6.861C38.095,40.804,38.999,42.62,38.811,45.039z"/>
	 </svg>
