<svg fill="none" xmlns="http://www.w3.org/2000/svg" viewBox="0 0 51 33">
  <path d="M4.77225 1.44263H46.2642c2.0827 0 3.7726 1.68504 3.7726 3.76437v22.5866c0 2.0786-1.6889 3.7637-3.7726 3.7637H4.77225C2.68928 31.5573 1 29.8719 1 27.7936V5.207c.00035-2.07968 1.68928-3.76437 3.77225-3.76437z" stroke="currentColor" stroke-miterlimit="10" fill="transparent"/>
  <path d="M14.8145 20.2897h1.7774v-5.207h-1.7774v5.207zm2.3903-8.7503h-1.1951v1.2016h1.1951v-1.2016zm-6.7113.5854H8.77742v1.5098H10.371c1.0113 0 1.5935.4929 1.5935 1.4173 0 .9243-.5822 1.4481-1.5935 1.4481H8.77742v-2.8346H7v6.6243h1.77742v-2.28h1.68548c2.0532 0 3.2484-1.1092 3.2484-3.0195 0-1.787-1.1645-2.8654-3.2178-2.8654zm7.9065-1.787h-3.5855v3.6049H18.4v-3.6049zm-.5823 2.9886h-2.3903v-2.4032h2.3903v2.4032zm10.4194-1.2016h-1.6242v1.5098h1.5323c1.0113 0 1.5935.4929 1.5935 1.4173 0 .9243-.5822 1.4481-1.5935 1.4481h-1.5323v-2.8346h-1.7774v6.6243h1.7774v-2.28h1.6242c2.0532 0 3.2484-1.1092 3.2484-3.0195 0-1.787-1.1952-2.8654-3.2484-2.8654zm14.9242 1.9103l-1.5323 3.8822-1.5322-3.8822h-1.8387l2.4516 6.2546-.95 2.3724h1.8693L45 14.0351h-1.8387zm-7.9678-.0308c-1.0725 0-1.9.2465-2.8193.7086l.5516 1.2325c.6436-.3698 1.2871-.5546 1.8694-.5546.858 0 1.2871.3697 1.2871 1.0475v.1233h-1.7162c-1.5322 0-2.3596.7086-2.3596 1.8794 0 1.14.7967 1.9411 2.1451 1.9411.8581 0 1.471-.3081 1.9613-.8319v.6779h1.7468V16.161c-.0613-1.3248-1.0113-2.1567-2.6662-2.1567zm1.042 4.1903c-.1839.5237-.7049.9551-1.4403.9551-.6129 0-.9807-.3081-.9807-.8011 0-.493.3371-.7086 1.0113-.7086h1.4097v.5546zm-15.1081.7394c-.858 0-1.4709-.6778-1.4709-1.6946 0-.9859.6129-1.6638 1.4709-1.6638.6129 0 1.0726.2465 1.4097.6779l1.1952-.8627c-.5517-.8319-1.5017-1.3249-2.6968-1.3249-1.8694-.0308-3.1565 1.2633-3.1565 3.1735 0 1.9103 1.2871 3.1735 3.1565 3.1735 1.2871 0 2.2371-.5237 2.758-1.3865l-1.2258-.8318c-.3064.4929-.7967.7394-1.4403.7394z" fill="currentColor"/>
</svg>