<svg version="1.1" class="dooca-svg" id="visa" xmlns="http://www.w3.org/2000/svg" xmlns:xlink="http://www.w3.org/1999/xlink" x="0px" y="0px" width="100px"
	 viewBox="0 0 144 90" xml:space="preserve">
	 <path class="bg" fill="none" stroke="#000000" stroke-width="2" stroke-miterlimit="10" d="M12.832,2.255h118.461
	 	c5.947,0,10.77,4.812,10.77,10.75v64.501c0,5.936-4.821,10.748-10.77,10.748H12.832c-5.947,0-10.77-4.813-10.77-10.748V13.005
	 	C2.063,7.066,6.885,2.255,12.832,2.255z"/>
	 <path class="icon" d="M91.369,57.333c-4.404,4.153-14.176,4.594-20.845,1.937c0.416-2.222,0.794-4.479,1.132-6.775
	 	c2.583,1.096,6.129,2.576,10.018,2.098c1.771-0.219,3.941-1.25,3.879-3.064c-0.078-2.215-4.217-3.53-6.303-4.678
	 	c-2.424-1.334-5.182-3.551-5.332-6.936c-0.102-2.256,0.779-4.368,1.939-5.807c3.441-4.274,12.293-5.792,19.551-3.389
	 	c-0.285,2.295-0.662,4.499-1.131,6.612c-1.965-0.639-4.232-1.665-7.435-1.451c-1.909,0.129-4.17,0.861-4.198,2.58
	 	c-0.035,1.906,3.102,3.039,4.846,3.871c3.146,1.504,6.523,3.506,6.787,7.583C94.479,53.046,93.023,55.77,91.369,57.333z
	 	 M56.9,60.463h8.291l5.069-30.328h-8.293L56.9,60.463z M49.969,30.073c-2.859,6.716-5.297,13.853-8.24,20.483l-0.827-3.808
	 	L38.08,33.147c-0.406-2.202-1.953-3.069-3.839-3.069H20.436v0.667c2.917,0.563,6.113,1.815,9.122,3.589l7.324,26.062h8.887
	 	c4.184-10.234,8.698-20.136,12.926-30.324C55.785,30.073,52.877,30.073,49.969,30.073z M123.361,60.557c-2.531,0-5.063,0-7.594,0
	 	c-0.492-1.445-0.629-3.244-1.131-4.678c-3.447,0-6.896,0-10.343,0l-1.938,4.678c-2.91,0-5.817,0-8.727,0l11.311-25.968
	 	c0.5-1.14,1.398-2.695,1.777-3.388c0.576-1.049,2.799-1.128,3.742-1.128h6.275L123.361,60.557z M113.384,49.75l-2.604-11.276
	 	l-4.223,11.276H113.384z"/>
	 </svg>
