<svg width="1920" height="1000" fill="none" xmlns="http://www.w3.org/2000/svg">
  <g clip-path="url(#clip0)" fill="#000">
    <path d="M597 161.9c-.2.2-.2.5 0 .7l2.9 2.9c.2.2.5.2.7 0 .2-.2.2-.5 0-.7l-2.9-2.9c-.2-.3-.5-.3-.7 0zM570.5 136.1c.2.2.5.2.7 0 .2-.2.2-.5 0-.7l-2.9-2.9c-.2-.2-.5-.2-.7 0-.2.2-.2.5 0 .7l2.9 2.9zM480.336 404.768l-.707-.707-2.969 2.97.707.707 2.969-2.97zM474.464 410.657l-.707-.707-2.971 2.97.707.707 2.971-2.97zM462.626 422.441l-.707-.707-2.97 2.971.707.707 2.97-2.971zM486.24 398.877l-.708-.707-2.969 2.97.707.707 2.97-2.97zM602.9 167.8c-.2.2-.2.5 0 .7l2.9 2.9c.2.2.5.2.7 0 .2-.2.2-.5 0-.7l-2.9-2.9c-.2-.3-.5-.3-.7 0zM492.103 393.053l-.707-.707-2.97 2.97.707.707 2.97-2.97zM585.2 150.1c-.2.2-.2.5 0 .7l2.9 2.9c.2.2.5.2.7 0 .2-.2.2-.5 0-.7l-2.9-2.9c-.2-.2-.5-.2-.7 0zM576.4 142c.2.2.5.2.7 0 .2-.2.2-.5 0-.7l-2.9-2.9c-.2-.2-.5-.2-.7 0-.2.2-.2.5 0 .7l2.9 2.9zM591.1 156c-.2.2-.2.5 0 .7l2.9 2.9c.2.2.5.2.7 0 .2-.2.2-.5 0-.7l-2.9-2.9c-.2-.3-.5-.3-.7 0zM582.4 2.7001c.2-.2.2-.5 0-.7-.2-.2-.5-.2-.7 0l-2.9 2.9c-.2.2-.2.5 0 .7.2.2.5.2.7 0l2.9-2.9zM608.8 173.6c-.2.2-.2.5 0 .7l2.9 2.9c.2.2.5.2.7 0 .2-.2.2-.5 0-.7l-2.9-2.9c-.2-.2-.5-.2-.7 0zM576.5 8.6c.2-.2.2-.5 0-.7-.2-.2-.5-.2-.7 0l-2.9 2.9c-.2.2-.2.5 0 .7.2.2.5.2.7 0l2.9-2.9zM733.4 97.0998c-.1-.1-.5-.2-.7 0-.2.2-.2.5 0 .7l2.9 2.9002c.2.2.5.2.7 0 .2-.2.2-.5 0-.7002l-2.9-2.9zM582.3 147.9c.2.2.5.2.7 0 .2-.2.2-.5 0-.7l-2.9-2.9c-.2-.2-.5-.2-.7 0-.2.2-.2.5 0 .7l2.9 2.9zM703.9 67.5998c-.1-.1-.5-.2-.7 0-.2.2-.2.5 0 .7l2.9 2.9c.2.2.5.2.7 0 .2-.2.2-.5 0-.7l-2.9-2.9zM395.1 488.5c-.4.4-.6.7-.9 1.2l1 .5c.1-.3.4-.7.7-1l2-2-.7-.7-2.1 2zM694.9 171.4c1.4 1.4 3.6 1.4 5 0l6.8-6.8c1.4-1.4 1.4-3.6 0-5s-3.6-1.4-5 0l-6.8 6.8c-1.4 1.4-1.4 3.6 0 5zm.7-4.3l6.8-6.8c1-1 2.6-1 3.5 0 1 1 1 2.6 0 3.5l-6.8 6.8c-1 1-2.6 1-3.5 0-.9-.9-.9-2.6 0-3.5zM698 154.6c-.2.2-.2.5 0 .7.2.2.5.2.7 0l2.9-2.9c.2-.2.2-.5 0-.7-.2-.2-.5-.2-.7 0l-2.9 2.9zM394.8 493.8l-1 .4c.3.7.7 1.4 1.3 2l1.4 1.4.7-.7-1.4-1.4c-.4-.5-.7-1-1-1.7zM698 61.6999c-.1-.1-.5-.2-.7 0-.2.2-.2.5 0 .7l2.9 2.9c.2.2.5.2.7 0 .2-.2.2-.5 0-.7l-2.9-2.9zM444.946 440.116l-.707-.707-2.97 2.969.707.707 2.97-2.969zM439.027 446.007l-.707-.707-2.97 2.97.707.707 2.97-2.97zM683.3 47.6998c.2-.2.2-.5 0-.7l-2.9-2.9c-.1-.1-.5-.2-.7 0-.2.2-.2.5 0 .7l2.9 2.9c.2.2.5.2.7 0zM666.5 49.7001c-.2.1-.4.3-.4.7L690.3 138.8c.1.2.3.4.7.4.1-.1.2-.1.2-.1.1-.1.1-.3.1-.5l-24.2-88.4999c-.1-.4-.4-.5-.6-.4zM399.465 500.584l2.969 2.97.707-.707-2.969-2.97-.707.707zM665.6 30.0001c.2-.2.2-.5 0-.7l-2.9-2.9c-.1-.1-.5-.2-.7 0-.2.2-.2.5 0 .7l2.9 2.9c.2.3.5.3.7 0zM450.819 434.224l-.707-.707-2.97 2.97.707.707 2.97-2.97zM689.2 53.5997c.2-.2.2-.5 0-.7l-2.9-2.9c-.1-.1-.5-.2-.7 0-.2.2-.2.5 0 .7l2.9 2.9c.2.2.5.2.7 0zM671.5 35.9c.2-.2.2-.5 0-.7l-2.9-2.9c-.1-.1-.5-.2-.7 0-.2.2-.2.5 0 .7l2.9 2.9c.2.3.5.3.7 0zM677.4 41.7999c.2-.2.2-.5 0-.7l-2.9-2.9c-.1-.1-.5-.2-.7 0-.2.2-.2.5 0 .7l2.9 2.9c.2.2.5.2.7 0zM614.7 179.5c-.2.2-.2.5 0 .7l2.9 2.9c.2.2.5.2.7 0 .2-.2.2-.5 0-.7l-2.9-2.9c-.2-.2-.5-.2-.7 0zM638.2 203.1c-.2.2-.2.5 0 .7l2.9 2.9c.2.2.5.2.7 0 .2-.2.2-.5 0-.7l-2.9-2.9c-.1-.2-.4-.2-.7 0zM647.9 204.7l-2.2 2.2c-.2.2-.4.3-.7.4-.2.1-.4.4-.4.7 0 .3.4.4.7.4.4-.1.8-.4 1.1-.7l2.2-2.2c.2-.2.2-.5 0-.7-.3-.3-.5-.4-.7-.1zM653.8 198.8l-2.9 2.9c-.2.2-.2.5 0 .7.2.2.5.2.7 0l2.9-2.9c.2-.2.2-.5 0-.7-.2-.3-.5-.3-.7 0zM620.6 185.4c-.2.2-.2.5 0 .7l2.9 2.9c.2.2.5.2.7 0 .2-.2.2-.5 0-.7l-2.9-2.9c-.2-.2-.5-.2-.7 0zM703.9 148.7c-.2.2-.2.5 0 .7.2.2.5.2.7 0l2.9-2.9c.2-.2.2-.5 0-.7-.2-.2-.5-.2-.7 0l-2.9 2.9zM456.769 428.332l-.707-.707-2.971 2.969.707.707 2.971-2.969zM659.7 192.9l-2.9 2.9c-.2.2-.2.5 0 .7.2.2.5.2.7 0l2.9-2.9c.2-.2.2-.5 0-.7-.2-.3-.5-.3-.7 0zM626.5 191.3c-.2.2-.2.5 0 .7l2.9 2.9c.2.2.5.2.7 0 .2-.2.2-.5 0-.7l-2.9-2.9c-.2-.2-.5-.2-.7 0zM692.2 55.8c-.1-.1-.5-.2-.7 0-.2.2-.2.5 0 .7l2.9 2.9c.2.2.5.2.7 0 .2-.2.2-.5 0-.7l-2.9-2.9zM695 157.5l-2.9 2.9c-.2.2-.2.5 0 .7.2.2.5.2.7 0l2.9-2.9c.2-.2.2-.5 0-.7-.2-.2-.5-.2-.7 0zM665.6 187l-2.9 2.9c-.2.2-.2.5 0 .7.2.2.5.2.7 0l2.9-2.9c.2-.2.2-.5 0-.7-.2-.2-.5-.2-.7 0zM689.1 163.4l-2.9 2.9c-.2.2-.2.5 0 .7.2.2.5.2.7 0l2.9-2.9c.2-.2.2-.5 0-.7-.2-.2-.4-.2-.7 0zM671.5 181.1l-2.9 2.9c-.2.2-.2.5 0 .7.2.2.5.2.7 0l2.9-2.9c.2-.2.2-.5 0-.7-.2-.2-.5-.2-.7 0zM683.2 169.3l-2.9 2.9c-.2.2-.2.5 0 .7.2.2.5.2.7 0l2.9-2.9c.2-.2.2-.5 0-.7-.1-.2-.4-.2-.7 0zM677.3 175.2l-2.9 2.9c-.2.2-.2.5 0 .7.2.2.5.2.7 0l2.9-2.9c.2-.2.2-.5 0-.7-.1-.2-.4-.2-.7 0zM468.529 416.55l-.707-.707-2.969 2.97.707.707 2.969-2.97zM529.3 55.7001c.2-.2.2-.5 0-.7-.2-.2-.5-.2-.7 0l-2.9 2.9c-.2.2-.2.5 0 .7.2.2.5.2.7 0l2.9-2.9zM535.2 49.8998c.2-.2.2-.5 0-.7-.2-.2-.5-.2-.7 0l-2.9 2.9c-.2.2-.2.5 0 .7.2.2.5.2.7 0l2.9-2.9zM535.1 100.7c.2.2.5.2.7 0 .2-.2.2-.5 0-.7003l-2.9-2.9c-.2-.2-.5-.2-.7 0-.2.2-.2.5 0 .7l2.9 2.9003zM527.732 499.481l-2.97 2.97.707.707 2.97-2.97-.707-.707zM529.3 94.7998c.2.2.5.2.7 0 .2-.2.2-.5 0-.7l-2.9-2.9c-.2-.2-.5-.2-.7 0-.2.2-.2.5 0 .7l2.9 2.9zM739.3 102.9c-.1-.1-.5-.2-.7 0-.2.2-.2.5 0 .7l2.9 2.9c.2.2.5.2.7 0 .2-.2.2-.5 0-.7l-2.9-2.9zM739.2 113.3c-.2.2-.2.5 0 .7.2.2.5.2.7 0l2.9-2.9c.3-.3.4-.6.7-1 .2-.3 0-.6-.2-.7-.4-.1-.6 0-.7.3-.1.2-.3.4-.4.6l-3 3zM673.6 652.4h-11.3v11.3h11.3v-11.3zM533.624 493.578l-2.97 2.969.707.707 2.97-2.969-.707-.707zM569.2 454.7l1-.3c-.1-.9-.7-1.7-1.4-2.3l-1.2-1.2-.7.7 1.2 1.2c.5.5 1 1.1 1.1 1.9zM547 38.1c.2-.2.2-.5 0-.7-.2-.2-.5-.2-.7 0l-2.9 2.9c-.2.2-.2.5 0 .7.2.2.5.2.7 0l2.9-2.9zM536.496 490.626l.707.707 2.97-2.969-.707-.707-2.97 2.969zM659.7 24.1998c.2-.2.2-.5 0-.7l-2.9-2.9c-.1-.1-.5-.2-.7 0-.2.2-.2.5 0 .7l2.9 2.9c.2.2.5.2.7 0zM541.1 43.9999c.2-.2.2-.5 0-.7-.2-.2-.5-.2-.7 0l-2.9 2.9c-.2.2-.2.5 0 .7.2.2.5.2.7 0l2.9-2.9zM541 106.6c.2.2.5.2.7 0 .2-.2.2-.5 0-.7l-2.9-2.9c-.2-.2-.5-.2-.7 0-.2.2-.2.5 0 .7l2.9 2.9zM721.5 131c-.2.2-.2.5 0 .7.2.2.5.2.7 0l2.9-2.9c.2-.2.2-.5 0-.7-.2-.2-.5-.2-.7 0l-2.9 2.9zM715.7 79.4001c-.1-.1-.5-.2-.7 0-.2.2-.2.5 0 .7l2.9 2.9c.2.2.5.2.7 0 .2-.2.2-.5 0-.7l-2.9-2.9zM715.6 136.9c-.2.2-.2.5 0 .7.2.2.5.2.7 0l2.9-2.9c.2-.2.2-.5 0-.7-.2-.2-.5-.2-.7 0l-2.9 2.9zM721.6 85.3c-.1-.1-.5-.2-.7 0-.2.2-.2.5 0 .7l2.9 2.9c.2.2.5.2.7 0 .2-.2.2-.5 0-.7l-2.9-2.9zM727.4 125.1c-.2.2-.2.5 0 .7.2.2.5.2.7 0l2.9-2.9c.2-.2.2-.5 0-.7-.2-.2-.5-.2-.7 0l-2.9 2.9zM733.3 119.2c-.2.2-.2.5 0 .7.2.2.5.2.7 0l2.9-2.9c.2-.2.2-.5 0-.7-.2-.2-.5-.2-.7 0l-2.9 2.9zM727.5 91.1999c-.1-.1-.5-.2-.7 0-.2.2-.2.5 0 .7l2.9 2.9c.2.2.5.2.7 0 .2-.2.2-.5 0-.7l-2.9-2.9zM511.6 72.5999c-.3-.1-.6-.1-.7.1-.9 1.2-.7 3 .4 4.1l.3.3c.2.2.5.2.7 0 .2-.2.2-.5 0-.7l-.3-.3c-.7-.7-.9-1.9-.3-2.8.2-.2.2-.5-.1-.7zM517.5 83.1001c.2.2.5.2.7 0 .2-.2.2-.5 0-.7l-2.9-2.9c-.2-.2-.5-.2-.7 0-.2.2-.2.5 0 .7l2.9 2.9zM517.5 67.4999c.2-.2.2-.5 0-.7-.2-.2-.5-.2-.7 0l-2.9 2.9c-.2.2-.2.5 0 .7.2.2.5.2.7 0l2.9-2.9zM523.4 61.6c.2-.2.2-.5 0-.7-.2-.2-.5-.2-.7 0l-2.9 2.9c-.2.2-.2.5 0 .7.2.2.5.2.7 0l2.9-2.9zM523.4 89c.2.2.5.2.7 0 .2-.2.2-.5 0-.7l-2.9-2.9c-.2-.2-.5-.2-.7 0-.2.2-.2.5 0 .7l2.9 2.9zM709.8 73.4997c-.1-.1-.5-.2-.7 0-.2.2-.2.5 0 .7l2.9 2.9c.2.2.5.2.7 0 .2-.2.2-.5 0-.7l-2.9-2.9zM498 387.1c.2-.2.4-.4.7-.6l-.4-.9c-.4.2-.7.4-1 .7l-2.9 2.9.7.7 2.9-2.8zM709.8 142.8c-.2.2-.2.5 0 .7.2.2.5.2.7 0l2.9-2.9c.2-.2.2-.5 0-.7-.2-.2-.5-.2-.7 0l-2.9 2.9zM517.761 400.786l-2.97-2.97-.707.708 2.97 2.969.707-.707zM523.62 406.614l-2.97-2.969-.707.707 2.97 2.969.707-.707zM635.4.6c.2.2.5.2.7 0 .2-.2.2-.4.1-.6h-1.4l.6.6zM639.1 2.80004c-.1-.1-.5-.2-.7 0-.2.2-.2.5 0 .7l2.9 2.9c.2.2.5.2.7 0 .2-.2.2-.5 0-.7l-2.9-2.9zM556.6 21.3c1.4-1.4 1.4-3.6 0-5s-3.6-1.4-5 0-1.4 3.6 0 5 3.6 1.4 5 0zm-4.3-.8c-1-1-1-2.6 0-3.5 1-.9 2.6-1 3.5 0 1 1 1 2.6 0 3.5-.9 1-2.5 1-3.5 0zM529.473 412.522l-2.97-2.97-.707.707 2.97 2.97.707-.707zM552.9 32.2001c.2-.2.2-.5 0-.7-.2-.2-.5-.2-.7 0l-2.9 2.9c-.2.2-.2.5 0 .7.2.2.5.2.7 0l2.9-2.9zM552.8 118.4c.2.2.5.2.7 0 .2-.2.2-.5 0-.7l-2.9-2.9c-.2-.2-.5-.2-.7 0-.2.2-.2.5 0 .7l2.9 2.9zM564.6 130.2c.2.2.5.2.7 0 .2-.2.2-.5 0-.7l-2.9-2.9c-.2-.2-.5-.2-.7 0-.2.2-.2.5 0 .7l2.9 2.9zM570.6 14.4999c.2-.2.2-.5 0-.7-.2-.2-.5-.2-.7 0l-2.9 2.9c-.2.2-.2.5 0 .7.2.2.5.2.7 0l2.9-2.9zM505.2 389.7l.7-.7-2.5-2.5c-.2-.2-.4-.3-.6-.4l-.6.9c.2.1.3.1.4.3l2.6 2.4zM564.7 20.3998c.2-.2.2-.5 0-.7-.2-.2-.5-.2-.7 0l-2.9 2.9c-.2.2-.2.5 0 .7.2.2.5.2.7 0l2.9-2.9zM635.3 200.9c.2.2.5.2.7 0 .2-.2.2-.5 0-.7l-2.9-2.9c-.2-.2-.5-.2-.7 0-.2.2-.2.5 0 .7l2.9 2.9zM511.87 394.882l-2.97-2.969-.707.707 2.969 2.97.708-.708zM558.9 442.043l-2.969-2.97-.707.707 2.969 2.97.707-.707zM557.873 470.637l-.707-.707-2.97 2.969.707.708 2.97-2.97zM551.987 476.527l-.707-.707-2.971 2.969.707.707 2.971-2.969zM555.8 29.1997l2.9-2.9c.2-.2.2-.5 0-.7-.2-.2-.5-.2-.7 0l-2.9 2.9c-.2.2-.2.5 0 .7.2.3.5.3.7 0zM553.068 436.133l-2.97-2.97-.707.707 2.97 2.97.707-.707zM563.688 464.817l-.707-.707-2.97 2.971.708.707 2.969-2.971zM564.851 447.94l-2.969-2.97-.708.707 2.97 2.97.707-.707zM568.9 459.7c.3-.3.5-.5.7-.9l-.9-.6c-.1.3-.4.5-.6.7l-2.2 2.2.7.7 2.3-2.1zM546.9 112.5c.2.2.5.2.7 0 .2-.2.2-.5 0-.7l-2.9-2.9c-.2-.2-.5-.2-.7 0-.2.2-.2.5 0 .7l2.9 2.9z"/>
    <path d="M557.7 0l-59.6 59.6c-3.9 3.9-3.9 10.5 0 14.4l147.7 147.7c3.9 3.9 10.5 3.9 14.4 0L757 125c4-4 4-10.5 0-14.4L646.5 0h-2.9l112 112c3.2 3.2 3.2 8.3 0 11.5l-96.8 96.8c-3.1 3.1-8.4 3.1-11.5 0L499.6 72.5c-3.1-3.1-3.1-8.4 0-11.5l61-61h-2.9z"/>
    <path d="M558.7 124.3c.2.2.5.2.7 0 .2-.2.2-.5 0-.7l-2.9-2.9c-.2-.2-.5-.2-.7 0-.2.2-.2.5 0 .7l2.9 2.9zM535.365 418.426l-2.97-2.97-.707.707 2.97 2.97.707-.707zM547.176 430.229l-2.97-2.97-.707.707 2.97 2.97.707-.707zM541.296 424.324l-2.97-2.97-.707.708 2.97 2.969.707-.707zM1041.9 339.8c-1.3-.7-2.5-1.2-3.9-1.7l-.4 1c1.3.5 2.5 1 3.8 1.7l.5-1zM1031.1 32.9998c1.2-.9 2.2-1.8 3.3-2.6l.1-.1c.1-.1.2-.5.1-.7-.2-.2-.5-.2-.7-.1-1.1.8-2.1 1.7-3.3 2.6-.2.2-.2.5-.2.7.2.2.6.3.7.2zM1030.8 3.39974c.1-.1.1-.4.1-.7-.2-.2-.6-.3-.7-.1-1.1.8-2.3 1.5-3.4 2.4-.2.2-.3.4-.1.7.2.2.4.3.7.1 1.2-.9 2.3-1.6 3.4-2.4zM1033.9-.00009765c-.1.09999995-.2.10000005-.3.19999965-.3.1-.3.4-.1.7.1.299998.5.399998.7.1.6-.4 1.2-.7 1.7-1.1h-2v.10000035zM1024.7 38.1999c1.1-1 2.2-1.8 3.2-2.7l.1-.1c.2-.2.2-.5.1-.7-.2-.2-.5-.2-.7-.1-1 .9-2.1 1.7-3.2 2.7-.2.2-.2.5 0 .7.2.4.2.4.5.2zM872.9 477.6l-1-.3c-.3 1.3-.6 2.8-.8 4.2l1 .1c.1-1.3.4-2.6.8-4zM1024 8.20003c.1-.1.2-.5.1-.7-.2-.2-.4-.3-.7-.1-1.1.8-2.2 1.6-3.4 2.5-.2.19997-.2.49997-.1.69997.1.2.6.3.8.1 1.1-.89997 2.2-1.69997 3.3-2.49997zM871.1 494.1c.2 1.4.5 2.7.9 4.1l1-.3c-.4-1.3-.6-2.6-.9-4l-1 .2zM875.6 470l-1-.5c-.6 1.3-1.1 2.6-1.5 3.9l1 .4c.4-1.4 1-2.7 1.5-3.8zM871.7 485.7h-1c-.1 1.4 0 2.8.1 4.2h1c-.1-1.4-.2-2.8-.1-4.2zM987.2 5.9c-.2-.2-.5-.2-.7 0-1 .9-2.1 1.8-3.2 2.7-.2.2-.2.5 0 .7.2.2.6.1.7 0 1.1-1 2.1-1.8 3.2-2.7.3-.2.3-.5 0-.7zM974.1 16.7999c-1 .9-2 1.8-3.1 2.8-.2.2-.2.5 0 .7.2.2.5.2.7 0 1.1-1 2.1-1.9 3.1-2.8.2-.2.2-.5 0-.7-.2-.2-.5-.2-.7 0zM873.3 502.2c.4 1.3 1 2.7 1.7 3.9l.9-.4c-.6-1.2-1.2-2.5-1.6-3.8l-1 .3zM980.2 11.2997c-1 .9-2.1 1.8-3.1 2.8-.2.2-.2.5 0 .7.2.2.5.2.7 0 1.1-1 2.1-1.8 3.1-2.8.2-.2.2-.5 0-.7-.1-.3-.4-.3-.7 0zM985 39.5997c-1 1-2 1.8-3 2.9-.2.2-.2.5 0 .7.2.2.5.2.7 0 1-1 2.1-1.9 3-2.9.2-.2.2-.5 0-.7-.2-.2-.4-.2-.7 0zM1018.3 43.5998c1.1-1 2.1-1.8 3.2-2.7.2-.2.2-.5 0-.7-.2-.2-.5-.2-.7 0-1 .9-2.1 1.8-3.2 2.7-.2.2-.2.5 0 .7.3.1.6.1.7 0zM1017.4 13.1997c.1-.1.2-.5.1-.7-.2-.2-.5-.2-.7-.1-1.1.8-2.1 1.7-3.3 2.6-.2.2-.2.5-.2.7.2.2.6.3.7.1 1.2-.9 2.2-1.8 3.4-2.6-.1 0-.1 0 0 0zM1012.1 49.0001c1.1-1 2.1-1.8 3.1-2.8.2-.2.2-.5 0-.7-.2-.2-.5-.2-.7 0-1 .9-2.1 1.8-3.1 2.8-.2.2-.2.5 0 .7.2.3.5.3.7 0zM953.8 2.5c-.2.2-.2.5 0 .7.2.2.5.2.7 0 1.1-1 2.1-1.9 3.1-2.8.1-.1.2-.3.2-.4h-1.2c-.9.8-1.8 1.6-2.8 2.5zM950.8 5.3998c-1 1-2 1.8-3 2.9-.2.2-.2.5 0 .7.2.2.5.2.7 0 1-1 2.1-1.9 3-2.9.2-.2.2-.5 0-.7-.2-.3-.5-.3-.7 0zM967.9 22.5001c-1 1-2 1.8-3 2.9-.2.2-.2.5 0 .7.2.2.5.2.7 0 1-1 2.1-1.9 3-2.9.2-.2.2-.5 0-.7-.1-.2-.4-.2-.7 0zM935.5 522l.6.9c1.2-.7 2.4-1.6 3.4-2.5l-.7-.8c-1 .9-2.1 1.7-3.3 2.4zM947.2 510.5l.9.6c.7-1.2 1.5-2.4 2.1-3.6l-1-.5c-.6 1.2-1.3 2.4-2 3.5zM942.1 516.7l-.1.1.7.7.1-.1c1-1 1.8-2 2.7-2.9l-.8-.7c-.9.9-1.7 2-2.6 2.9zM912.2 528.7v1c1.4.1 2.8 0 4.3-.1l-.1-1c-1.4.1-2.9.1-4.2.1zM903.9 528.8c1.3.3 2.7.5 4.1.7l.1-1c-1.3-.1-2.7-.4-4.1-.7l-.1 1zM954.2 478.8c-.2-1.3-.5-2.7-1-4.1l-1 .3c.4 1.3.7 2.7 1 4l1-.2zM951.1 503.2l1 .4c.5-1.3 1-2.7 1.5-4l-1-.3c-.6 1.4-1 2.7-1.5 3.9zM954.2 487.2h1c0-1.3-.1-2.7-.2-4.2l-1 .2c.1 1.3.2 2.7.2 4zM953.4 495.4l1 .1c.2-1.4.4-2.8.6-4.1l-1-.1c-.1 1.3-.4 2.7-.6 4.1zM895.8 526.2c1.3.6 2.6 1.1 3.9 1.5l.3-1c-1.3-.4-2.6-1-3.8-1.5l-.4 1zM885.4 456.9l-.7-.8c-1 .9-2.1 1.9-2.9 2.9l.7.7c.9-1 1.8-2 2.9-2.8zM879.8 462.9l-.8-.7c-.8 1.1-1.6 2.4-2.4 3.5l.9.6c.7-1.1 1.5-2.3 2.3-3.4zM891.5 451c-1.2.7-2.4 1.5-3.5 2.4l.6.9c1.1-.8 2.3-1.5 3.5-2.3l-.6-1zM877 509.9c.7 1.2 1.5 2.3 2.4 3.5l.8-.7c-.8-1.1-1.6-2.2-2.4-3.4l-.8.6zM882.9 515.8l-.7.7.9.9c.7.7 1.4 1.4 2.1 2l.7-.8c-.7-.6-1.4-1.3-2.1-1.9l-.9-.9zM888.5 522c1.1.8 2.4 1.6 3.6 2.3l.5-1c-1.2-.7-2.4-1.5-3.5-2.2l-.6.9zM899.1 447.5c-1.3.4-2.7 1-3.9 1.5l.4.9c1.3-.5 2.6-1.1 3.8-1.5l-.3-.9zM400.093 483.66l.708.707 2.969-2.97-.707-.707-2.97 2.97zM1536 940.4c-1.3.1-2.8.3-4.1.6l.1 1c1.4-.2 2.7-.4 4.1-.6l-.1-1zM951.8 470.8c-.5-1.3-1.2-2.5-1.8-3.8l-1 .5c.7 1.1 1.3 2.4 1.8 3.6l1-.3zM1527.6 941.8c-1.3.3-2.7.7-4.1 1.1l.3 1c1.3-.4 2.7-.7 4-1l-.2-1.1zM1512 947.6c-1.3.7-2.5 1.3-3.7 2.1l.6.9c1.2-.7 2.4-1.4 3.6-2l-.5-1zM1540.1 940.1v1c1.4-.1 2.7-.1 4-.1l.1-1c-1.3 0-2.7.1-4.1.1zM1510.9 969.1c-.1-.2-.3-.4-.7-.4-.4.1-.4.3-.3.6l8.4 30.6h1l-8.4-30.8zM1548.5 940.3l-.1 1.1c1.3.2 2.7.2 4.1.4l.1-1.1c-1.4-.2-2.8-.3-4.1-.4zM1564.8 943.6l-.4 1c1.3.4 2.6 1 3.9 1.4l.4-1c-1.3-.5-2.6-1-3.9-1.4zM1572.6 946.7l-.4.9c1.2.6 2.4 1.3 3.7 1.9l.4-.9c-1.3-.7-2.6-1.3-3.7-1.9zM1556.7 941.4l-.1 1c1.3.3 2.7.6 4.1 1l.2-1c-1.6-.4-2.9-.7-4.2-1zM1492 963.3c-.9 1-1.8 2.1-2.6 3.2l.8.7c1-1.1 1.8-2.2 2.7-3.2l-.9-.7zM1482.7 977c-.7 1.3-1.2 2.5-1.8 3.8l1 .4c.6-1.2 1.1-2.4 1.8-3.7l-1-.5zM991.1 33.9c-1 .9-2 1.8-3.1 2.8-.2.2-.2.5 0 .7.2.2.5.2.7 0 1.1-1 2.1-1.9 3.1-2.8.2-.2.2-.5 0-.7-.1-.2-.4-.2-.7 0zM1480.4 985.1l-1-.4c-.4 1.3-.9 2.6-1.3 4l1 .3c.4-1.2.8-2.5 1.3-3.9zM1476.3 996.8l1 .1c.1-1.3.4-2.6.7-4l-1-.2c-.2 1.4-.4 2.8-.7 4.1zM1496.6 989c-.1-.2-.3-.4-.7-.4-.2.1-.4.3-.4.7l2.9 10.7h1.1l-2.9-11zM1496 960.7c1-1 1.9-1.9 2.9-2.8l-.7-.8c-1 .9-2.1 1.9-3 2.9l-.3.3.7.7.4-.3zM1579.9 950.7l-.6.9c1.2.7 2.3 1.5 3.4 2.4l.6-.9c-1.2-.8-2.3-1.6-3.4-2.4zM1504.9 951.9c-1.1.8-2.2 1.6-3.4 2.5l.7.8 3.3-2.4-.6-.9zM1487 970c-.7 1.2-1.5 2.3-2.2 3.5l.9.6c.7-1.3 1.4-2.4 2.2-3.5l-.9-.6zM1054.3 15.1998c-1.1.7-2.3 1.4-3.5 2.2-.3.1-.3.4-.1.7.1.3.5.4.7.1 1.3-.8 2.4-1.5 3.5-2.2l.1-.1c.1-.1.1-.4.1-.7-.3-.2-.5-.2-.8 0zM1010.9 18.2998c.2-.2.2-.5.1-.7-.2-.2-.5-.2-.7-.1-1 .9-2.1 1.7-3.2 2.7-.2.2-.2.5 0 .7.2.2.2.2.5.1 1.1-.9 2.2-1.7 3.3-2.7-.1.1-.1.1 0 0zM1047.3 19.5999c-1.1.8-2.3 1.5-3.4 2.4-.2.2-.3.4-.1.7.1.3.5.4.7.2 1.2-.9 2.4-1.6 3.4-2.4l.1-.1c.1-.1.1-.4.1-.7-.3-.2-.5-.2-.8-.1zM1008.3 51.0997c-1 .9-2 1.8-3.1 2.8-.2.2-.2.5 0 .7.2.2.5.2.7 0 1.1-1 2.1-1.9 3.1-2.8.2-.2.2-.5 0-.7-.2-.2-.5-.2-.7 0zM1040.5 24.4998c-1.1.8-2.2 1.6-3.4 2.5-.2.2-.2.5-.1.7.2.2.6.3.8.1 1.2-.9 2.3-1.7 3.3-2.4l.1-.1c.1-.1.2-.5.1-.7-.3-.2-.5-.2-.8-.1zM993.8 1.19967c.2-.2.2-.5.1-.7-.2-.2-.5-.2-.7-.1-1 .9-2.1 1.7-3.2 2.7-.2.2-.2.5 0 .7-.1.2.2.2.5.1 1.1-.9 2.2-1.7 3.3-2.7-.1.1-.1.1 0 0zM997.3 28.2999c-1 .9-2.1 1.8-3.1 2.8-.2.2-.2.5 0 .7.2.2.5.2.7 0 1.1-1 2.1-1.8 3.1-2.8.2-.2.2-.5 0-.7-.2-.2-.4-.2-.7 0zM1002.2 56.7997c-1 1-2 1.8-3 2.9-.2.2-.2.5 0 .7.2.2.5.2.7 0 1-1 2.1-1.9 3-2.9.2-.2.2-.5 0-.7-.2-.3-.5-.3-.7 0zM1004.3 23.0001c-.2-.2-.5-.2-.7 0-1 .9-2.1 1.8-3.2 2.7-.2.2-.2.5 0 .7.3.2.6.2.7 0 1.1-1 2.1-1.8 3.2-2.7.2-.2.2-.5 0-.7zM1602.5 974.8l-1 .5c.7 1.2 1.4 2.4 2 3.6l.9-.4c-.6-1.2-1.3-2.4-1.9-3.7zM1586.6 955.6l-.7.8c1 1 2 1.8 3 2.7l.7-.7c-.8-1-1.9-1.9-3-2.8zM1606.1 982.3l-1 .4c.6 1.3 1 2.7 1.5 4l1-.4c-.5-1.4-.9-2.7-1.5-4zM1598 967.7l-.9.6c.8 1.1 1.5 2.3 2.4 3.4l.9-.6c-.7-1.1-1.5-2.2-2.4-3.4zM1592.6 961.4l-.7.7c1 1 1.9 1.9 2.7 3l.8-.7c-.9-.9-1.8-2-2.8-3zM1519.6 944.3c-1.3.4-2.6 1-3.9 1.5l.4 1c1.3-.5 2.6-1.1 3.8-1.5l-.3-1z"/>
    <path d="M1622.1 937.2c2.3-2.3 2.3-6 0-8.3-2.3-2.3-6-2.3-8.2 0l-16.3 16.3c-32.5-28.1-82-26.9-112.9 4.1-14.1 14.1-22.1 32.2-23.8 50.7h2.1c1.8-18 9.5-35.5 23.2-49.2 31.5-31.5 82.8-31.5 114.3 0 13.7 13.7 21.5 31.2 23.2 49.2h2.1c-1.6-16.7-8.2-33.1-19.9-46.5l6.8-6.8c13.6 15.4 21.1 34.1 22.7 53.2h1c-1.6-19.4-9.3-38.4-23-54l4-4c14.9 16.7 23.1 37.1 24.7 58h2.1c-1.7-21.3-10.1-42.3-25.4-59.4l3.3-3.3zm-17 15.5c-1-1.2-2.1-2.3-3.2-3.4-1.2-1.2-2.4-2.2-3.6-3.3l16.3-16.3c1.8-1.8 4.9-1.8 6.8 0 1.9 1.8 1.8 4.9 0 6.8l-16.3 16.2z"/>
    <path d="M1610.5 998.5l-1 .2c.1.5.1.9.2 1.4h1c-.1-.6-.2-1.1-.2-1.6zM1608.9 990.4l-1 .3c.3 1.2.7 2.6 1 3.9l1-.2c-.4-1.3-.7-2.7-1-4zM634.7 15.3001c-.2.1-.4.3-.4.7L674 161.3c.1.3.4.4.7.3.1-.1.2-.1.2-.1.1-.1.1-.3.1-.5L635.4 15.7001c-.1-.2-.3-.5-.7-.4zM815.3 735.4c1.4-.2 2.8-.4 4.2-.5.2 0 .2-.1.3-.1.1-.1.1-.3.1-.4-.1-.2-.3-.4-.6-.4-1.4.1-2.8.3-4.2.5-.3 0-.4.3-.4.6 0 .1.3.3.6.3zM823.6 734.5c1.4-.1 2.8 0 4.1-.1.1 0 .4-.1.4-.1.1-.1.1-.1.1-.3 0-.3-.2-.5-.5-.5-1.3 0-2.8 0-4.2.1-.3 0-.5.2-.5.5.1.2.3.4.6.4zM807.1 737.1c1.4-.4 2.7-.7 4.1-1 .1 0 .2-.1.3-.1.1-.1.1-.3.1-.4 0-.3-.3-.4-.6-.4-1.3.3-2.7.6-4.1 1-.3.2-.4.4-.4.7.2 0 .4.2.6.2zM846.3 783.5l.1-.1 1.8-3.8c.1-.3.1-.5-.2-.7-.3-.1-.5-.1-.7.2l-1.8 3.8c-.1.2 0 .6.1.7.4.1.6 0 .7-.1zM849.9 775.9l.1-.1 1.8-3.8c.1-.3.1-.5-.2-.7-.3-.1-.5-.1-.7.2l-1.8 3.8c-.1.3 0 .6.2.7.3.1.5 0 .6-.1zM896 775.7c.1.2.4.3.8.2l.1-.1c.1-.1.1-.4.1-.7-.7-1.3-1.4-2.4-2.1-3.6-.2-.2-.4-.3-.7-.1-.2.2-.3.4-.1.7.5 1.2 1.3 2.4 1.9 3.6zM785.5 776.4c-.2-.2-.5-.2-.7 0-.2.2-.2.5 0 .7l2.9 2.9c.2.2.5.2.7 0 .2-.2.2-.5 0-.7l-2.9-2.9zM786.4 885.4c-1.3-.7-2.4-1.4-3.5-2.2-.3-.1-.6-.1-.7.1-.1.3-.1.6.1.7 1.2.7 2.4 1.5 3.6 2.1.3.1.5.1.7-.1l.1-.1c0-.1 0-.4-.3-.5zM799.5 739.3c1.3-.4 2.6-.9 3.9-1.3.1.1.1 0 .2-.1s.1-.3.1-.5c-.2-.3-.4-.4-.7-.4-1.3.4-2.7.9-4 1.3-.3.1-.4.4-.4.7.1.4.4.5.9.3zM745.7 804.2c-.3 0-.6.1-.6.4-.2 1.4-.4 2.8-.6 4.1 0 .3.1.6.4.6.1 0 .4-.1.4-.1.1-.1.1-.1.2-.3.2-1.4.4-2.7.6-4.1.1-.3-.1-.6-.4-.6zM852.9 768.5c.2.1.4 0 .6-.1l.1-.1 1.8-3.8c.1-.3.1-.5-.2-.7-.3-.1-.5-.1-.7.3l-1.8 3.8c-.2.2-.1.5.2.6zM744.6 812.5c-.3 0-.5.2-.5.5-.1 1.4-.1 2.9-.1 4.2 0 .3.2.5.5.5.2 0 .3-.1.4-.2.1-.1.2-.2.2-.4 0-1.3.1-2.7.2-4.1-.1-.3-.3-.5-.7-.5zM793.7 889.1c-1.3-.5-2.5-1.2-3.8-1.8-.2-.1-.5-.1-.7.2-.1.2-.1.5.2.7 1.3.7 2.4 1.3 3.8 1.8.2.1.4 0 .6-.2l.1-.1c.2-.3.1-.5-.2-.6zM891.6 768.7c.1.3.4.3.7.1l.1-.1c.1-.1.2-.5.1-.7-.9-1.2-1.7-2.3-2.6-3.3-.1-.1-.5-.2-.7 0-.1.1-.2.5 0 .7.7 1 1.6 2.2 2.4 3.3zM747.5 796c-.3 0-.6.1-.7.5-.3 1.3-.7 2.7-1 4.1 0 .3.1.6.4.6.1 0 .3 0 .4-.2.1-.1.1-.1.1-.3.3-1.3.7-2.7 1-4.1.2-.3 0-.5-.2-.6zM779.4 881c-1.1-.8-2.2-1.6-3.2-2.5-.2-.2-.5-.2-.7 0-.2.2-.2.5 0 .7 1 .9 2.1 1.7 3.3 2.6.2.1.5.1.7-.1.1-.3.1-.6-.1-.7zM779.1 842.9l.1-.1c.1-.1.2-.4.1-.6-.1-.3-.5-.4-.7-.2l-3.8 1.8c-.2.1-.4.4-.2.7.1.2.4.4.7.2l3.8-1.8zM947.7 463.4c-.8-1.1-1.7-2.3-2.6-3.3l-.8.7c.9 1 1.7 2.1 2.5 3.2l.9-.6zM786.2 838.5l-3.8 1.8c-.2.1-.3.4-.2.7.1.2.4.4.7.2l3.8-1.8.1-.1c.1-.1.2-.4.1-.6-.2-.4-.4-.5-.7-.2zM884.1 870.9l-2.9 2.9c-.2.2-.2.5 0 .7.2.2.5.2.7 0l1-1 1.9-1.9c.2-.2.2-.5 0-.7-.2-.2-.5-.2-.7 0zM885.1 825l-4.1-.6c-.3 0-.6.1-.6.4 0 .3.1.6.4.6l4.1.6c.1 0 .3 0 .4-.1.1-.1.1-.1.1-.3.1-.3 0-.6-.3-.6zM877.2 824.6c.1-.1.1-.1.1-.3 0-.3-.1-.6-.4-.6l-4.1-.6c-.3 0-.6.1-.6.4 0 .3.1.6.4.6l4.1.6c.2.1.3.1.5-.1zM878.1 876.7c-1.1 1-2.1 1.8-3.2 2.7-.1.1-.2.5 0 .7.1.1.5.2.7 0 1-.9 2.1-1.8 3.2-2.7.2-.2.2-.5 0-.7-.1-.2-.4-.2-.7 0zM889.6 864.5c-.9 1-1.8 2.1-2.7 3.2-.2.2-.2.5 0 .7.2.2.5.2.7 0 .9-1 1.8-2.1 2.7-3.2.2-.2.2-.5 0-.7-.2-.1-.5 0-.7 0zM653.9 18.2999c.2-.2.2-.5 0-.7l-2.9-2.9c-.1-.1-.5-.2-.7 0-.2.2-.2.5 0 .7l2.9 2.9c.1.2.4.2.7 0z"/>
    <path d="M914.6 808.9c-1.3-21.3-10-42.3-26.3-58.5-2.1-2.1-4.2-4-6.5-5.9l-.1-.1-.1-.1c-9.4-7.6-19.8-13-30.9-16.4-.1-.1-.3-.1-.5-.2h-.1c-24.6-7.2-51.6-3.9-73.9 10-.1.1-.2.1-.4.2s-.3.1-.4.4c-5.4 3.5-10.5 7.6-15.2 12.3-35.3 35.3-35.4 92.8 0 128.1 16.4 16.4 37.3 25.1 58.8 26.3.7.2 1 .3 1 .3.4.1.6 0 .8-.2 14.1.5 28.3-2.2 41.4-8.2.2 0 .4-.1.5-.2l.1-.1c9.2-4.3 17.8-10.3 25.3-17.8 8-8 14.1-17.1 18.5-26.7l.1-.1c5.9-13.1 8.5-27.4 7.9-41.5.1-.1.1-.2 0-.3.1-.4.1-.7 0-1.3zm-34.1-62.8c5.2 5.4 6.1 12.6 6.3 15.7-11.5-4.9-25-5.6-27.8-5.7-6.2-7.5-18.2-18.5-21.4-21.4 4.7-4.7 10.7-5 12.2-5 11 3.2 21.4 8.7 30.7 16.4zM750 766.2c3.3-5.1 7.1-9.9 11.6-14.4 4.8-4.8 10.1-8.9 15.6-12.4 7.3-3 14.7-.2 17.2 1-7.8 11.3-14.8 26.6-16.1 29.7-8.9 1.5-22.8 11.2-26.9 14.1-1-3.2-3.2-11.8-1.4-18zm5.5 103.9c-.1-.1-.2-.2-.4-.2-7.1-8.9-12.4-19-15.6-29.5.1-.1.1-.1.1-.3 0-.2.2-7.7 5.7-13.2 2.9 3.2 13.8 15.2 21.4 21.4.2 2.8.9 16.4 5.7 27.9-3.3.1-11.4-.4-16.9-6.1zm106.3 24.4c-13.3 6.3-28 9-42.3 8.2-1.7-.7-5.1-2.4-8.5-6.8 4.8-1.3 19.8-5.7 27.2-12.3 3.1.7 17.4 4 29.2 2.4-.8 2-2.5 5.9-5.6 8.5zm25.1-17.6c-6.2 6.2-13 11.3-20.3 15.2 2.2-3.5 3.1-7.1 3.2-7.3.1-.1 0-.2 0-.3.6-.4 1.5-1 2.6-1.8l.1-.1c.1-.1.2-.5.1-.7-.2-.2-.5-.2-.7-.1-1.1.8-2 1.4-2.6 1.8-.2-.1-.4-.1-.7-.1-12.4 2.3-29.5-1.9-30.4-2.1l-.5-3.3c0-.3-.3-.4-.6-.4s-.4.3-.4.6l.5 3.3c-8 7.7-27.8 12.5-28.1 12.5-.2.1-.3.1-.4.3-.7-.2-1.7-.5-3.2-1-.2-.1-.5.1-.7.4-.1.2.1.5.4.7 1.3.4 2.5.7 3.2 1 0 .2.1.2.1.3 2 3 4.2 5.1 6 6.5-19.3-2.1-38-10.6-52.7-25.3l-.9-.9c6.5 2.8 13 2.1 13.3 2.1.2-.1.4-.1.6-.3l.2-.2c.1-.3.2-.7.1-1-5.6-12.2-6.1-28.2-6.1-28.9l2.8-1.3.1-.1c.1-.1.2-.4.1-.6-.1-.3-.4-.4-.7-.2l-2.9 1.4c-8.5-6.7-21.9-21.9-22.1-22.1-.1-.1-.4-.2-.6-.3-.1-.7-.3-1.8-.4-3.2 0-.3-.2-.5-.6-.4-.3 0-.5.2-.4.6.1 1.6.2 2.7.4 3.5-3.8 3.4-5.4 7.7-6.3 10.9-5.3-21.6-2.4-44.9 8.8-64.8-.2 7.3 2.6 14.9 2.7 15.4.1.3.4.5.7.7.3.2.7.1.9-.1.1-.1 18-13.3 27.7-14.6.1-.1.2 0 .2-.1l2.3 2.3c.2.2.5.2.7 0 .2-.2.2-.5 0-.7l-2.4-2.4c1-2.2 8.4-18.9 16.7-30.6.2-.2.2-.5.2-.8 0-.3-.2-.5-.5-.7-.3-.1-6.1-3.6-13.3-3.3 19-9.9 40.9-12.4 61.4-7.7-2.9.8-6.4 2.4-9.4 5.7-.7-.1-1.8-.3-3.3-.4-.3 0-.5.2-.6.4 0 .3.2.5.4.6 1.5.1 2.5.3 3.2.4.1.2.1.3.3.4.1.1 15.5 13.7 22.2 22.2l.1.1-1 2.4c-.1.3 0 .6.2.7.2.1.4 0 .6-.1l.1-.1 1.3-2.6c2.1.1 17.2.8 28.7 6.2.3.1.7.1 1-.1l.2-.2c.1-.1.3-.4.4-.7 0-.3.4-5.8-2.2-11.8l.2.2c14.4 14.4 22.8 32.5 25.1 51.2-1.3-1.7-3-3.5-5.5-5.2-.1-.1-.1-.1-.2-.1-.2-.7-.5-1.8-1-3.2-.1-.2-.4-.4-.7-.4-.2.1-.4.4-.4.7.4 1.3.8 2.4 1 3.2-.1.1-.3.3-.4.5-.1.2-4.8 19.7-12.3 27.8l-3.3-.5c-.3 0-.6.1-.6.4 0 .3.1.6.4.6l2.9.4v.3c.1.2 4.5 17.8 2.2 30.5-.1.2 0 .4.1.7-.7 1-1.4 2-2.1 2.9-.2.2-.1.6.1.7.2.2.4.1.7-.1l.1-.1c.7-.9 1.5-1.9 2.1-2.9.1 0 .3 0 .4-.1.2-.1 3.5-1 7-3.3-4 7.4-9.2 14.6-15.6 21zm18-26.1c-2.5 3.1-6.3 4.9-8.4 5.7 1.5-11.7-1.6-26.1-2.4-29 6.7-7.3 11-22.3 12.3-27.2 4.5 3.5 5.7 7 6.1 8.6.8 14.3-1.7 28.8-7.6 41.9zM648 12.3999c.2-.2.2-.5 0-.7l-3-2.99996c-.1-.1-.5-.2-.7 0-.2.2-.2.5 0 .7l2.9 2.89996c.3.3.5.3.8.1zM789.6 243h-11.3v11.3h11.3V243z"/>
    <path d="M868.6 822.4l-4.1-.6c-.3 0-.6.2-.6.4 0 .3.1.6.4.6l4.1.6c.1 0 .3 0 .4-.1.1-.1.1-.1.1-.3.2-.3 0-.6-.3-.6zM801.5 892.2c-1.3-.4-2.7-1-3.8-1.6-.4-.1-.6 0-.7.3-.1.4 0 .6.3.7 1.3.6 2.6 1.1 3.9 1.5.2.1.4 0 .6-.2l.1-.1c-.1-.2-.1-.4-.4-.6zM800.3 791.8c.2-.2.2-.5 0-.7l-2.9-2.9c-.2-.2-.5-.2-.7 0-.2.2-.2.5 0 .7l2.9 2.9c.2.2.5.2.7 0zM793.7 834.8l-3.8 1.8c-.2.1-.3.4-.2.7.1.2.4.4.7.2l3.8-1.8.1-.1c.1-.1.2-.4.1-.6-.1-.2-.4-.4-.7-.2zM791.4 782.3c-.2-.2-.5-.2-.7 0-.2.2-.2.5 0 .7l2.9 2.9c.2.2.5.2.7 0 .2-.2.2-.5 0-.7l-2.9-2.9zM834.3 857.6l-.6-4.1c0-.3-.3-.4-.6-.4s-.4.3-.4.6l.6 4.1c0 .3.3.4.6.4.1 0 .2-.1.3-.1 0-.1.1-.3.1-.5zM860.5 819.6c-4.3-14-10.3-24.6-14.7-31-.4-.5-.8-1-1.3-1.3l.1-.3c.1-.3 0-.6-.2-.7-.3-.1-.6 0-.7.2l-.1.3c-.5-.2-1.2-.3-1.8-.4-11.3.1-27.8 4.6-36.7 7.2-.5.2-1 .4-1.5.7l-.5-.5c-.2-.2-.5-.2-.7 0-.2.2-.2.5 0 .7l.5.5c-.4.4-.7 1-.9 1.5-4 10.3-4.7 27.5-4.9 34.5 0 .6.1 1.3.3 1.8l-.1.1c-.3.1-.4.4-.2.7.2.3.4.4.7.2l.1-.1c.4.5.8 1 1.3 1.3 12.4 8.8 27.3 13.6 31.6 14.8 1.1.4 2.4.2 3.6-.4 3.6-2 7.5-5.3 11.2-9 7.1-7.1 13.2-15.4 14.2-16.7.5-.5.8-1.3 1-2 .1-.1.1-.1.1-.2.1-.1 0-.2-.1-.2 0-.5 0-1.2-.3-1.7zm-2.2 3.2c-1.5 2-14.6 19.6-24.7 25-.7.4-1.5.4-2 .2-4.2-1.3-18.9-5.9-31-14.5-.7-.6-1.2-1.3-1.1-2.3.2-6.9 1-23.8 4.9-33.9.1-.4.3-.6.6-.9.3-.3.7-.6 1.2-.7 7-2.1 24.5-7 36-7.1.9 0 1.8.4 2.3 1.3 4.3 6.3 10.2 16.7 14.4 30.4 0 .8-.1 1.7-.6 2.5zM835.6 865.8l-.6-4.1c0-.3-.3-.4-.6-.4-.2.1-.5.4-.4.6l.6 4.1c0 .3.3.4.6.4.1 0 .2-.1.3-.1 0-.1.1-.4.1-.5zM835.7 869.5c-.4.1-.5.4-.4.6l.6 4.1c0 .3.3.4.6.4.1 0 .2-.1.3-.2.1-.1.1-.3.1-.4l-.6-4.1c0-.3-.3-.4-.6-.4zM749.4 788.3c-.4 1.3-.9 2.6-1.3 4 0 .3.1.6.4.7.1.1.4.1.5-.1 0 0 0-.1.1-.2.4-1.3.8-2.6 1.3-3.9.1-.2-.1-.5-.2-.8-.4 0-.7.1-.8.3zM1009.6 417.8c1.3.4 2.7.8 4 1.1l.2-1c-1.3-.3-2.7-.7-4-1l-.2.9zM982.3 385.3c-.3-1.3-.4-2.7-.6-4.1l-1 .2c.1 1.4.3 2.8.6 4.1l1-.2zM1001.9 414.4c1.3.7 2.5 1.3 3.8 1.8l.4-1c-1.3-.5-2.5-1.2-3.7-1.9l-.5 1.1zM1026.3 418.7v1c1.4-.1 2.8-.3 4.2-.5l-.1-1c-1.4.3-2.8.4-4.1.5zM1017.9 418.5l-.1 1.1c1.4.2 2.8.3 4.2.2v-1c-1.3 0-2.7-.1-4.1-.3zM1041.8 414.1l.5 1c1.3-.7 2.4-1.4 3.6-2.1l-.6-.9c-1.2.7-2.3 1.5-3.5 2zM1054.5 403.9l.8.7c.9-1 1.8-2.2 2.5-3.4l-.9-.6c-.6 1.1-1.4 2.2-2.4 3.3zM1059.2 397.1l1 .5c.7-1.3 1.3-2.5 1.8-3.8l-1-.4c-.6 1.2-1.2 2.5-1.8 3.7zM1062.3 389.5l1 .3c.4-1.3.8-2.7 1-4.1l-1-.1c-.2 1.2-.6 2.6-1 3.9zM1048.8 409.7l.7.8c1-.9 2.1-1.8 3.1-2.8l-.7-.7c-1.1.9-2.1 1.8-3.1 2.7zM935.6 451.8c-1.2-.7-2.4-1.4-3.7-2.1l-.5 1c1.2.6 2.4 1.3 3.5 2.1l.7-1zM928.1 448c-1.3-.5-2.7-.9-4-1.3l-.3 1c1.3.3 2.7.7 3.9 1.3l.4-1zM932.4 525l-.5-1c-1.2.6-2.4 1.2-3.8 1.7l.4 1c1.3-.5 2.7-1.1 3.9-1.7zM942.3 457.1c-1-1-2.1-1.9-3.2-2.7l-.7.8c1 .7 2.1 1.6 3.1 2.6l.8-.7zM920 445.8c-1.4-.2-2.8-.4-4.2-.5l-.1 1.1c1.4.1 2.7.2 4.1.5l.2-1.1zM988.4 400.4c-.7-1-1.4-2.3-2.1-3.5l-1 .5c.7 1.3 1.4 2.4 2.1 3.6l1-.6zM924.5 528.1l-.3-1c-1.3.4-2.7.7-4.1 1l.3 1c1.5-.2 2.9-.6 4.1-1zM899.7 783.1c.1.3.4.4.6.3l.1-.1c.1-.1.2-.4.1-.6-.7-1.3-1.3-2.6-1.8-3.8-.1-.2-.4-.4-.7-.2-.2.1-.4.4-.2.7.7 1.2 1.3 2.4 1.9 3.7zM983.5 393.6l1-.4c-.4-1.3-.9-2.6-1.3-3.9l-1 .3c.4 1.3.9 2.7 1.3 4zM1001.9 342l-.5-1c-1.2.7-2.4 1.5-3.5 2.4l.6.9c1.1-.8 2.3-1.5 3.4-2.3zM1005.2 339.2l.4.9c1.3-.5 2.6-1.1 3.8-1.5l-.4-1c-1.2.5-2.6 1.1-3.8 1.6zM995.2 346.9l-.7-.8-2.9 2.9.7.7c.9-1 1.9-1.8 2.9-2.8zM1013.1 336.4l.3 1c1.3-.3 2.7-.6 4-.7l-.1-1c-1.5.2-2.9.4-4.2.7zM982.9 363.4l1 .4c.4-1.3 1-2.6 1.5-3.8l-.9-.4c-.5 1.1-1.1 2.5-1.6 3.8zM986.4 965.2h-11.3v11.3h11.3v-11.3zM1063.9 381.4l1 .1c.1-1.4.1-2.8.2-4.2h-1c0 1.4-.1 2.8-.2 4.1z"/>
    <path d="M897.4 405c-2.4-1.3-9-6-12.9-8.9-1-.7-1.9-1.3-2.4-1.7l-2.2-4.4 1.5-.7c.1-.1.3-.1.4-.3.6-.6.7-1.5.4-2.1l-1.3-2.7c-.2-.5-.5-.8-1-1-.4-.1-1-.2-1.5.1l-1.3.7-1.6-3.2c-1.2-2.4-3.2-6.4-8.3-4.1-2.7 1.2-4.1 1.5-5 1-.6-.3-1-1-1.3-2.2-.5-2.3-1.1-4.5-1.4-6.3-.3-1.6.2-2.1.9-2.5 1.3 1 2.8.3 5.2-.8 8.5-4 10.5-4.9 10.2-7v-.4c-.1-.8-.1-1-.7-1.9-1-1.5-2.5-1.9-4.5-1.3l-9.4 4.5c-1.3.7-2.1 1.7-2.4 2.9-3.2 1.6-4.5 3.2-4.2 5.5.4 4.1 1 6.6 1.5 8.5l.1.6c.5 2.1 1.5 3.8 3.1 4.6 1.5.8 3.5.9 5.7.1 3.9-1.4 4.1-.9 5 .7 1 1.7 1.8 3.3 2 3.8l-1.5.8c-.5.2-.8.5-1 1-.1.4-.1 1 .1 1.5l1.3 2.7c.2.5.5.8 1 1 .4.1 1 .1 1.5-.1l1.2-.6 21.1 42.3c-8.1 2.5-15.2 6.9-21.7 13.4-4.6 4.6-8.3 9.8-10.8 15.4-.2.5 0 1.2.5 1.4.5.2 1.2 0 1.4-.5 2.5-5.4 6-10.3 10.5-14.8 6.3-6.3 13.1-10.5 21-12.9l.1-.1 1.4 2.9c-7.8 2.4-15 6.6-20.9 12.5-19.7 19.7-19.7 51.6 0 71.3 19.7 19.7 51.6 19.7 71.3 0 19.7-19.7 19.7-51.6 0-71.3-11.7-11.7-28.4-16.9-44.7-13.9l-1.4-2.9c12.2-2.7 24.6-.9 35.9 5.2.4.2.9.1 1.3-.2l.2-.2c.2-.5.1-1.1-.4-1.4-11.8-6.3-24.7-8.2-37.6-5.4-.1 0-.2.1-.3.1l-2.4-4.9 73.7-2.1h.1c.5.8 1.1 1.5 1.8 2.3 4.6 4.6 12.1 4.7 16.9.4l5.7 5.7-3.3 3.3c-1 1-1 2.7 0 3.7l2.3 2.3c1 1 2.7 1 3.7 0l7.5-7.5c1-1 1-2.7 0-3.7l-2.3-2.3c-1-1-2.7-1-3.7 0l-3.5 3.5-5.7-5.7c2.1-2.2 3.1-5 3.2-7.9 19.9 12.8 46 10.2 62.9-6.8 19.7-19.7 19.7-51.6 0-71.3-15.9-16.2-39.5-19.4-58.4-9.9l-5-9.9 4.4-4.4c.9-.9 2.4-.9 3.2 0 .9.9 2.1 1.4 3.4 1.3l1.1-.1c.6 0 1-.5 1-1.1 0-.6-.5-1-1.1-1l-1.1.1c-.7.1-1.3-.1-1.8-.6-1.7-1.7-4.5-1.7-6.2 0l-26 26c-3.4 3.4-5.7 7.7-6.6 12.7l-2.5 13.7-4.4-.4-9.6-17.4c1.7-1.2 3.1-2.4 4.2-3.5 3.1-3.1 4.1-6.1 4.6-11.7.4-4.4 0-6.5-1.4-7.1-1.5-.7-3.2.7-4.6 2.1l-24.2 24.2c-2.5 2.5-3.5 4.7-3 6.4.3 1 1.1 1.8 2.1 2 2.5.6 6.7-2 16.8-8.5.3-.1.5-.4.8-.5l27 49.3-16.1 5.3c-19.9 5.9-41.5 4.3-57.6-4.7zm-35.8-44.5l9.4-4.5c1.5-.6 2.5-.3 3.2.8.4.6.4.7.5 1.4v.4c.1 1.3-2.4 2.5-9.7 5.9-2.4 1.1-3.5 1.4-4.2 1l-1-2.9c.2-1 .8-1.7 1.8-2.1zm141.4 71.2c.1-.1.6-.1.7 0l2.3 2.3c.1.1.1.6 0 .7l-7.5 7.5c-.1.1-.6.1-.7 0l-2.3-2.3c-.1-.1-.1-.6 0-.7l7.5-7.5zm-132.1-49.8c-1.2-2.2-2.1-2.6-6.3-1.2-2 .7-3.6.7-4.9-.1-1.5-.8-2.3-2.6-2.6-3.9l-.1-.6c-.4-1.8-1-4.3-1.5-8.4-.2-1.6.4-2.9 3.4-4.4l.7 2.1c-1 .6-1.8 1.4-1.4 3.6.3 1.8.9 4 1.4 6.3.4 1.5 1 2.4 1.9 2.8 1.4.7 3.3.1 5.9-1 4-1.8 5.4.6 7 3.6l1.5 3-1.5.6-1.6.9c-.4-.5-1.1-1.9-1.9-3.3zm3.2 9.5l-1.2.6c-.2.1-.4.1-.7.1-.2-.1-.4-.2-.4-.4l-1.3-2.7c-.1-.2-.1-.4-.1-.7 0-.3.2-.4.4-.4l7.8-4c.2-.1.4-.1.7-.1.2.1.4.2.4.4l1.3 2.7c.1.3.1.8-.4 1.1l-1.5.7-5 2.7zm73 61.9c18.9 18.9 18.9 49.5 0 68.3-18.9 18.9-49.5 18.9-68.3 0-18.9-18.9-18.9-49.5 0-68.3 5.7-5.7 12.7-9.9 20.3-12.1l4.9 9.7c3 7.3 4.8 15.4 5.4 24.1l.4 6.7c-.6.3-1 .7-1.4 1.1-2.6 2.6-2.6 6.9 0 9.4 2.6 2.6 6.8 2.6 9.4 0 2.6-2.6 2.6-6.8 0-9.4-.7-.7-1.4-1.1-2.2-1.5l-.4-6.7c-.5-9.1-2.4-17.8-5.8-26l-1.1-2.1c1.2-.1 2.3-.2 3.5-.2v-1c-1.3 0-2.7.1-3.9.4L905 440c15.3-2.7 31 2.3 42.1 13.3zm-37.4 30.9c1.8-1.8 4.7-1.8 6.5 0 1.8 1.8 1.8 4.7 0 6.5-1.8 1.8-4.7 1.8-6.5 0-1.8-1.7-1.8-4.7 0-6.5zm61.5-63.8l-75 2.2-8.8-17.4c2.9 2 5.4 3.8 7 4.6 17.5 9.8 40.8 11.6 62.4 4.9l17.1-5.6 1.1 1.8-.3.3c-2.5 2.4-3.7 5.8-3.5 9.2zm19.6 6.1l-4.1-4.1c1.3-1.7 1.2-4.1-.3-5.6-1.7-1.7-4.3-1.7-6 0-1.7 1.7-1.7 4.3 0 6 1.5 1.5 4 1.6 5.6.3l4.1 4.1c-4 3.5-10.1 3.5-13.9-.4-3.9-3.9-3.9-10.4 0-14.3 3.9-3.9 10.4-3.9 14.3 0 3.8 3.9 3.9 10 .3 14zm-5.6-4.2c-1.3 1-3 .8-4.2-.4-1.3-1.3-1.3-3.3 0-4.6 1.3-1.3 3.3-1.3 4.6 0 1.1 1.1 1.3 2.9.3 4.1l-2.5-2.5-.7.7 2.5 2.7zm-3-14.7c-.8.1-1.5.2-2.2.4l-18.9-34.2 11.4 1.1c-.7 11.8 2.7 23.3 9.7 32.7zm-1.6-30.5h1c0-.4 0-.9.1-1.4l34.7 3.3c.1.6.3 1 .6 1.6l-23.7 25.6c-.8-.8-1.5-1.7-2.3-2.6l-.8.7c.7.9 1.5 1.8 2.4 2.7l-2.4 2.5c-1.6-1-3.4-1.8-5.2-2-7.5-9.1-11.1-20.7-10.5-32.6l6 .6c.1.6 0 1.1.1 1.6zm38.7 6.3l-26.5 28.7c-.3-.3-.5-.7-.8-1-.3-.3-.6-.6-1-.8l26.4-28.6c.2.2.4.5.6.7.4.4.8.7 1.3 1zm.2-9c1.8-1.8 4.7-1.8 6.5 0 1.8 1.8 1.8 4.7 0 6.5-1.8 1.8-4.7 1.8-6.5 0-1.7-1.8-1.7-4.8 0-6.5zm37.4-30.9c18.9 18.9 18.9 49.5 0 68.3-16.6 16.6-42.5 18.9-61.6 5.6-.3-1.6-1-3.2-1.9-4.6l2.6-2.7c.8.7 1.6 1.3 2.5 1.9l.6-.9c-.8-.5-1.6-1.2-2.4-1.8l23.6-25.6c2.4 1 5.2.5 7.2-1.5 2.6-2.6 2.6-6.9 0-9.4-2-2-4.9-2.4-7.4-1.4l-18.9-37c18.1-8.9 40.7-5.9 55.7 9.1zm-56.6-8.7l18.9 37.2c-.4.4-.7.6-1.1 1-.5.5-.9 1-1.2 1.6l-34.8-3.4c.1-1.2.4-2.3.7-3.5l-1-.3c-.3 1.2-.5 2.4-.7 3.5l-6.1-.7c1.6-10.3 6.3-19.6 13.6-26.9 3.5-3.5 7.4-6.3 11.7-8.5zm-32.8 21.1c.9-4.4 2.9-8.4 6-11.5l20.9-20.9 4.9 9.6c-4.3 2.3-8.5 5.3-12.2 9-7.7 7.7-12.5 17.4-14.2 28.2l-8-.7 2.6-13.7zm-25.4-2.5c-7.5 4.9-13.5 8.8-15.2 8.4-.1-.1-.4-.1-.6-.6-.1-.4-.2-1.7 2.5-4.4l24.2-24.2c1.7-1.7 2.3-1.7 2.3-1.7.1.1.7.8.2 5.1-.8 8.3-2 10-13.4 17.4zm30.5 51.2l-27.8-50.4c1.1-.7 2.1-1.4 3-2l9.8 17.7 5.5.5c.1.1.3.1.4.1.2.1.4 0 .7-.1l52.1 5.2c-.2.8-.4 1.7-.3 2.5l-56.9-5.5 19.7 35.6c-1.2.4-2.2 1-3.2 1.8l-1.4-2.4-18 5.9c-21.4 6.6-44.4 4.8-61.6-4.8-1.5-1-4.6-2.9-7.7-5.2l-2.6-1.8 11 21.7 75.7-2.2c.1 1.2.5 2.3 1 3.4v.3l-74.8 2.2 10.9 21.8c3.2 8.1 5.2 16.7 5.7 25.6l.4 6.3c-1.2-.3-2.5-.1-3.7.3l-.4-6.3c-.5-8.8-2.4-16.9-5.4-24.5L897 435c0-.1-.1-.2-.1-.3l-21.6-43.1 3.2-1.6 2.3 4.6.1.1c.5.4 1.4 1 2.5 1.8 4 2.8 10.6 7.7 13 9.1 16.4 9.1 38.2 10.8 58.7 4.5l17.5-5.5z"/>
    <path d="M987.4 356.4c.7-1.2 1.5-2.4 2.3-3.5l-.8-.7c-.8 1.1-1.6 2.4-2.4 3.5l.9.7zM902.9 790.8c.1.2.4.4.8.4l.1-.1c.1-.1.2-.4.1-.6-.5-1.3-1-2.7-1.5-3.9-.1-.3-.4-.4-.7-.3-.3.2-.4.4-.3.7.5 1.3 1 2.5 1.5 3.8zM1063.2 364.9c-.4-1.3-.9-2.6-1.5-4l-1 .4c.4 1.3 1 2.6 1.4 3.9l1.1-.3zM1059.9 357.1c-.7-1.3-1.4-2.4-2.2-3.5l-.9.6c.7 1.1 1.4 2.3 2.1 3.5l1-.6zM1064.8 373.1c-.1-1.3-.4-2.7-.7-4.2l-1 .2c.3 1.3.5 2.7.6 4.1l1.1-.1zM1054.2 350.9l.8-.7c-.7-.9-1.5-1.7-2.4-2.5l-.6-.6-.7.7.6.6c.9.9 1.6 1.6 2.3 2.5zM1025.5 336.4l.1-1.1c-1.3 0-2.7-.1-4.1 0v1c1.4 0 2.8.1 4 .1zM1048.9 344.4c-1.1-.8-2.3-1.7-3.5-2.4l-.6.9c1.2.7 2.3 1.5 3.4 2.4l.7-.9zM1034 336.8c-1.4-.4-2.7-.7-4.1-.9l-.1 1c1.4.2 2.7.5 4 .9l.2-1zM1038.5 416.9l-.4-1c-1.3.5-2.6 1-3.8 1.3l.2 1c1.5-.3 2.8-.7 4-1.3zM1755.1 556.5c.2.2.5.2.7 0l2.9-2.9c.2-.2.2-.5 0-.7-.2-.2-.5-.2-.7 0l-2.9 2.9c-.2.1-.2.4 0 .7zM1531.1 629.7c-.2-.2-.5-.2-.7 0-.2.2-.2.5 0 .7l2.9 2.9c.2.2.5.2.7 0 .2-.2.2-.5 0-.7l-2.9-2.9zM1537 635.6c-.2-.2-.5-.2-.7 0-.2.2-.2.5 0 .7l2.9 2.9c.2.2.5.2.7 0 .2-.2.2-.5 0-.7l-2.9-2.9zM1525.2 623.8c-.2-.2-.5-.2-.7 0-.2.2-.2.5 0 .7l2.9 2.9c.2.2.5.2.7 0 .2-.2.2-.5 0-.7l-2.9-2.9zM1415.3 868.7H1404V880h11.3v-11.3zM1519.3 618c-.2-.2-.5-.2-.7 0-.2.2-.2.5 0 .7l2.9 2.9c.2.2.5.2.7 0 .2-.2.2-.5 0-.7l-2.9-2.9zM1560.6 659.2c-.2-.2-.5-.2-.7 0-.2.2-.2.5 0 .7l2.9 2.9c.2.2.5.2.7 0 .2-.2.2-.5 0-.7l-2.9-2.9zM1554.7 653.3c-.2-.2-.5-.2-.7 0-.2.2-.2.5 0 .7l2.9 2.9c.2.2.5.2.7 0 .2-.2.2-.5 0-.7l-2.9-2.9zM1548.8 647.4c-.2-.2-.5-.2-.7 0-.2.2-.2.5 0 .7l2.9 2.9c.2.2.5.2.7 0 .2-.2.2-.5 0-.7l-2.9-2.9zM1542.9 641.5c-.2-.2-.5-.2-.7 0-.2.2-.2.5 0 .7l2.9 2.9c.2.2.5.2.7 0 .2-.2.2-.5 0-.7l-2.9-2.9zM1566.5 665.1c-.2-.2-.5-.2-.7 0-.2.2-.2.5 0 .7l2.9 2.9c.2.2.5.2.7 0 .2-.2.2-.5 0-.7l-2.9-2.9zM1359.6 329.3c.2.2.5.2.7 0 1-1.1 1.6-2.4 2.1-3.8.1-.3 0-.6-.4-.7-.1-.2-.4-.1-.5.2-.5 1.3-1.1 2.4-2 3.5-.2.3-.1.6.1.8zM1362.7 321.7c.2 0 .3 0 .4-.1.1-.1.2-.2.1-.3 0-1.5-.2-2.9-.6-4.3-.2-.4-.5-.5-.7-.4-.2.1-.4.4-.4.7.4 1.3.7 2.6.6 4 .1.2.3.4.6.4zM1199 127h-11.3v11.3h11.3V127zM1200.8 833.3c20.4 20.4 53.5 20.4 73.9 0 9.9-9.9 15.4-23.2 15.2-37.2l41.2-41.2c14 .1 27.2-5.3 37.2-15.2 20.4-20.4 20.4-53.5 0-73.9-20.4-20.4-53.5-20.5-73.8-.2l-30.1 30.1-5.4-5.4c-1.8-1.8-4.6-1.8-6.3 0l-12.3 12.3c-3.9-4.8-3.7-11.9.8-16.4 7.7-7.7 7.7-20.2 0-27.8-7.7-7.7-20.2-7.7-27.8 0-4.8 4.8-12.6 4.8-17.4 0-4.8-4.8-4.8-12.6 0-17.4l-1.5-1.5c-5.6 5.6-5.6 14.7 0 20.3 5.6 5.6 14.7 5.6 20.3 0 6.8-6.8 18-6.8 24.9 0 6.9 6.9 6.9 18 0 24.9-5.3 5.3-5.5 13.8-.8 19.4l-13.3 13.3c-1.8 1.8-1.8 4.6 0 6.3l5.4 5.4-30.3 30.3c-20.3 20.4-20.3 53.5.1 73.9zm26.3-111.1c-.9-.9-.9-2.5 0-3.4l27.1-27.1c.9-.9 2.5-.9 3.4 0l5.4 5.4-30.5 30.5-5.4-5.4zm69-55.2c19.5-19.5 51.3-19.4 70.8.1 19.6 19.6 19.6 51.4 0 71-9.6 9.6-22.5 14.9-36.2 14.7h-.4l-42.4 42.4v.4c.2 13.6-5 26.5-14.7 36.2-19.6 19.6-51.4 19.6-71 0s-19.6-51.4 0-71l93.9-93.8zM1338.9 326.1c.6 1.3 1.4 2.6 2.4 3.6.2.2.5.2.7 0 .2-.2.2-.5 0-.7-1-1-1.6-2.1-2.1-3.3-.3-.3-.6-.3-.8-.2-.3.1-.4.3-.2.6z"/>
    <path d="M1365.9 725.3c.8-1.3 1.5-2.4 2.2-3.7.2-.3 0-.6-.2-.7-.2-.1-.6-.1-.7.1-.7 1.3-1.3 2.4-2.1 3.5-.1.3-.1.5.2.7.1.4.5.3.6.1zM1338.3 322.3c.1 0 .2-.1.3-.1.1-.1.1-.3.1-.4-.1-1.3 0-2.7.4-3.9.1-.2-.1-.5-.4-.7-.2.1-.5.2-.6.4-.4 1.4-.5 2.9-.4 4.3 0 .2.2.5.6.4z"/>
    <path d="M1297.2 401.8c7.8 15 25.7 22.6 53.2 22.6 21.8 0 37.6-4.8 47.1-14.3 2.5-2.5 4.6-5.3 6.2-8.4 8.8-17 2.1-39.8-8-53.8-9.8-13.9-7.1-22.4-3.9-32.3 1.7-5.2 3.4-10.6 3.4-17.1 0-16.6-12.8-28.1-34.2-31.1l-1.1-88.9s-.5-4.5 3.1-6.2c.7-.3 1.2-1 1.2-1.8l-.5-39.4c0-1.3-.9-2.4-2.2-2.5-2.1-.2-6.3-1-9.2-3.6-1-.9-2.6-.8-3.5.1-2.9 2.7-7.1 3.4-9.2 3.6-1.3.1-2.2 1.2-2.3 2.4l-.6 39.5c0 .6.2 1.3 1.2 1.8 3.6 1.7 3.1 6 3.1 6.3l-1 88.7c-21.5 2.8-34.4 14.4-34.5 31.1 0 6.5 1.7 11.9 3.4 17.1 3.2 9.9 6 18.5-3.9 32.3-9.9 14.2-16.6 37.1-7.8 53.9zm63.2-98.7c-1-.5-2.1-1-3.1-1.3V178.4h1.6c.1.2.1.4.1.4l1.4 124.3zm.3 10.1c-.3-.4-.7-.8-1-1.2-.7-.7-1.4-1.2-2.1-1.7l-.1-.1v-7.4c2.4.8 4.8 2.3 6.9 4.3 7.6 7.6 7.6 20 0 27.5-2.1 2.1-4.4 3.5-6.9 4.4v-27.7c.5.4 1 .7 1.5 1.2.4.4.7.7 1 1.1.2.2.5.2.7.1l.1-.1c-.1.1 0-.3-.1-.4zm-22.4-141.5c-.5-.2-.6-.6-.6-.9l.6-39.5c0-.7.6-1.3 1.3-1.4 2.3-.2 6.6-1 9.8-3.9.5-.5 1.5-.4 2.1 0 3.2 2.9 7.5 3.7 9.8 3.9 1-.1 1.4.5 1.5 1.3l.5 39.4c0 .3-.2.7-.6.9-2.9 1.4-3.5 4.1-3.7 5.9h-16.9c-.2-1.7-.9-4.4-3.8-5.7zm15.9 201v-31.5c.7-.1 1.5-.3 2.1-.5v32h-2.1zm2.1.9v10h-2.1v-10h2.1zm-2.1-33.5v-6.9c.7-.2 1.4-.5 2.1-.8v7.2c-.7.2-1.4.4-2.1.5zm2.1-8.9c-.7.4-1.4.7-2.1 1v-30.3c.7.1 1.4.4 2.1.5v28.8zm-2.1-30.4V178.3h2.1v123c-.6-.2-1.4-.4-2.1-.5zm-1.2 32.7s.1-.1.1 0v6.8c-.7.1-1.5.1-2.1.2v-31.2c.7 0 1.5.1 2.1.2v23c-.1 0-.2.1-.3 0-.3 0-.4.3-.4.6 0 .2.3.4.6.4zm-1.9 39.2l-.1-31.1c.7 0 1.4-.1 2.1-.2v31.4l-2-.1zm2 1.1v10h-2.1v-10h2.1zm-2.1-65.6v-6.6c.7 0 1.4.1 2.1.2v6.6c-.7-.1-1.3-.2-2.1-.2zm0-129.9h2.1l.1 122.3c-.7-.1-1.5-.1-2.1-.2V178.3h-.1zm-1.1 194.4h-2.1v-31.4c.7.1 1.5.1 2.1.2v31.2zm0 1v10h-2.1v-10h2.1zm0-33.3c-.7 0-1.4-.1-2.1-.2v-6.8c.3 0 .6.1.9.1.1 0 .3 0 .4-.1.1-.1.1-.1.1-.3 0-.3-.1-.6-.4-.6-.4-.1-.7-.1-1-.1v-30.8c.7-.1 1.5-.1 2.1-.2l.1 6.8c-.3 0-.6 0-.8.1-.3 0-.4.3-.4.6s.3.4.6.4c.2-.1.5-.1.7 0l-.2 31.1zm-2.1-162.1h2.1l.1 122.2c-.7 0-1.4.1-2.1.2V178.3h-.1zm-3 194.4v-32c.6.1 1.3.3 2.1.4v31.5l-2.1.1zm2 1v10h-2.1v-10h2.1zm-2.1-34.1v-7.2c.7.4 1.4.7 2.1.8v6.9c-.7-.1-1.4-.3-2.1-.5zm.4-8.2c-.1-.1-.2-.1-.4-.1v-20.6c.3-.1.4-.3.7-.4l.1-.1c.1-.1.2-.4.2-.6-.1-.3-.4-.4-.7-.2-.1.1-.2.1-.3.1v-7.2c.7-.2 1.4-.4 2.1-.5l-.1 30.4c-.5-.2-1.1-.5-1.6-.8zm-.4-153.1h2.1l.1 122.5c-.7.1-1.5.3-2.1.5v-123h-.1zm-2.6.5s0-.2.1-.5h1.5v123.3c-1 .3-2 .8-2.9 1.3l1.3-124.1zm1.6 123.9l-.1 7.4c-1.5.9-2.7 2.1-3.7 3.5-.1.3-.1.6.2.7.2.2.5.1.7-.1.8-1.1 1.8-2.1 2.9-2.9V339c-2.6-1-4.9-2.4-6.9-4.4-7.6-7.6-7.6-20 0-27.5 2.1-2 4.4-3.5 6.9-4.4zm-32.9 12.3c-1.6-5-3.3-10.2-3.3-16.4.1-15.5 12.2-26.3 32.4-29l-.4 34h.1c-1.3.9-2.7 1.8-3.8 2.9-8 8-8 21 0 29 2.2 2.2 4.9 3.8 7.7 4.9v32.4H1331c-2.1 0-3.7 1.6-3.7 3.7v4.7c0 1 .4 1.9 1.1 2.6.7.7 1.6 1 2.6 1.1h38.7c1 0 1.9-.4 2.6-1.1l.1-.1c.7-.7 1-1.6 1-2.5v-4.7c0-1-.4-1.9-1.1-2.6-.7-.7-1.6-1-2.6-1.1h-12.5v-32.4c2.8-1 5.4-2.6 7.7-4.9 8-8 8-21 0-29-1.2-1.2-2.5-2.2-3.9-3h.3l-.4-33.8c20.3 2.8 32.3 13.6 32.3 28.9 0 6.2-1.7 11.4-3.3 16.4-3.2 10-6.3 19.4 4.1 34.2 9.6 13.5 16.1 35.4 7.7 51.6-7.4 14.3-24.7 21.6-51.5 21.6-26.7 0-44-7.2-51.4-21.5-8.3-16.1-1.8-38.1 7.8-51.7 10.5-14.8 7.5-24.2 4.2-34.2zm32.9 58.6v10h-12.5c-.7 0-1.4-.2-1.9-.7-.5-.5-.7-1.2-.7-1.9v-4.7c0-.7.3-1.5.7-1.9.4-.4 1.2-.7 1.9-.7h12.5v-.1zm13.6 10l.1-9.9h12.5c.7 0 1.4.2 1.9.7.5.5.7 1.2.7 1.9v4.7c.1.7-.2 1.3-.7 1.8-.5.5-1.3.8-2 .8h-12.5z"/>
    <path d="M1345.3 167.4c.9 0 1.7-.4 2.3-1 .7-.7 1-1.5 1-2.5l-.8-24.2c0-.9-.4-1.7-1-2.4-.7-.7-1.5-1-2.4-1-.9 0-1.7.4-2.4 1-.7.7-1 1.5-1 2.4l.8 24.2c0 .9.4 1.7 1 2.4.8.8 1.7 1.1 2.5 1.1zm-2.5-29.1c.5-.5 1-.7 1.7-.8.6 0 1.3.2 1.7.7.4.5.7 1 .7 1.7l.8 24.2c0 1.3-1 2.4-2.3 2.4-.6 0-1.3-.2-1.7-.7-.4-.4-.7-1-.7-1.6l-.8-24.2c-.1-.6.1-1.3.6-1.7zM1663.8 647l-2.9 2.9c-.2.2-.2.5 0 .7.2.2.5.2.7 0l2.9-2.9c.2-.2.2-.5 0-.7-.2-.2-.5-.2-.7 0zM1646.1 664.7l-2.9 2.9c-.2.2-.2.5 0 .7.2.2.5.2.7 0l2.9-2.9c.2-.2.2-.5 0-.7-.2-.2-.5-.2-.7 0zM1572.4 671c-.2-.2-.5-.2-.7 0-.2.2-.2.5 0 .7l2.9 2.9c.2.2.5.2.7 0 .2-.2.2-.5 0-.7l-2.9-2.9zM1628.4 682.4l-2.9 2.9c-.2.2-.2.5 0 .7.2.2.5.2.7 0l2.9-2.9c.2-.2.2-.5 0-.7-.2-.2-.5-.2-.7 0zM1652 658.8l-2.9 2.9c-.2.2-.2.5 0 .7.2.2.5.2.7 0l2.9-2.9c.2-.2.2-.5 0-.7-.2-.2-.5-.2-.7 0zM1634.3 676.5l-2.9 2.9c-.2.2-.2.5 0 .7.2.2.5.2.7 0l2.9-2.9c.2-.2.2-.5 0-.7-.2-.2-.5-.2-.7 0zM1669.6 641.1l-2.9 2.9c-.2.2-.2.5 0 .7.2.2.5.2.7 0l2.9-2.9c.2-.2.2-.5 0-.7-.1-.2-.4-.2-.7 0zM1675.5 635.3l-2.9 2.9c-.2.2-.2.5 0 .7.2.2.5.2.7 0l2.9-2.9c.2-.2.2-.5 0-.7-.2-.2-.4-.3-.7 0zM1657.9 652.9l-2.9 2.9c-.2.2-.2.5 0 .7.2.2.5.2.7 0l2.9-2.9c.2-.2.2-.5 0-.7-.2-.2-.5-.2-.7 0zM1204.4 797c.1 0 .2-.1.4-.2.1-.1.1-.1.1-.3 0-1.3.1-2.7.2-4.1 0-.3-.2-.6-.4-.6-.3 0-.6.1-.6.4-.2 1.4-.3 2.8-.2 4.2 0 .4.2.6.5.6zM1640.2 670.6l-2.9 2.9c-.2.2-.2.5 0 .7.2.2.5.2.7 0l2.9-2.9c.2-.2.2-.5 0-.7-.2-.2-.5-.2-.7 0zM1584.1 682.8c-.2-.2-.5-.2-.7 0-.2.2-.2.5 0 .7l2.9 2.9c.2.2.5.2.7 0 .2-.2.2-.5 0-.7l-2.9-2.9zM1622.5 688.3l-2.9 2.9c-.2.2-.2.5 0 .7.2.2.5.2.7 0l2.9-2.9c.2-.2.2-.5 0-.7-.2-.2-.5-.2-.7 0zM1595.9 694.5c-.2-.2-.5-.2-.7 0-.2.2-.2.5 0 .7l2.9 2.9c.2.2.5.2.7 0 .2-.2.2-.5 0-.7l-2.9-2.9zM1578.3 676.9c-.2-.2-.5-.2-.7 0-.2.2-.2.5 0 .7l2.9 2.9c.2.2.5.2.7 0 .2-.2.2-.5 0-.7l-2.9-2.9zM1590 688.6c-.2-.2-.5-.2-.7 0-.2.2-.2.5 0 .7l2.9 2.9c.2.2.5.2.7 0 .2-.2.2-.5 0-.7l-2.9-2.9zM1604.7 703.3l-2.9-2.9c-.2-.2-.5-.2-.7 0-.2.2-.2.5 0 .7l2.8 2.8.2.2c.2.2.5.2.7 0 .2-.2.1-.6 0-.7l-.1-.1zM1616.6 694.2l-2.9 2.9c-.2.2-.2.5 0 .7.2.2.5.2.7 0l2.9-2.9c.2-.2.2-.5 0-.7-.2-.2-.5-.2-.7 0zM1610.7 700.1l-2.9 2.9c-.2.2-.2.5 0 .7.2.2.5.2.7 0l2.9-2.9c.2-.2.2-.5 0-.7-.2-.3-.4-.3-.7 0zM1244.9 764.5c1.3.3 2.7.7 3.9 1.1.1 0 .4-.1.5-.2l.1-.1c.1-.2 0-.6-.4-.7-1.3-.4-2.6-.9-4.1-1.1-.2-.1-.6.1-.6.4.1.2.3.6.6.6zM1293.3 687.3c0-.1.3-.1.4-.3l.1-.1c.5-1.3 1.1-2.6 1.8-3.7.1-.3 0-.6-.2-.7-.3-.1-.6 0-.7.2-.7 1.3-1.3 2.6-1.8 3.8 0 .4.1.7.4.8zM1316.4 664.6c1.3-.5 2.6-1 3.8-1.3.1-.1.2-.1.2-.1.1-.1.1-.3.1-.5-.1-.2-.4-.4-.7-.4-1.4.4-2.7.8-4 1.3-.3.1-.4.4-.3.7.2.2.5.4.9.3zM1330.1 743.7c1.4.1 2.8 0 4.2-.1.1 0 .2-.1.3-.2.1-.1.1-.3.1-.4 0-.3-.2-.5-.5-.5-1.4.2-2.7.2-4.1.1-.3 0-.5.2-.5.5 0 .4.2.6.5.6zM1309 668.4c1.2-.7 2.4-1.5 3.5-2.1l.1-.1c.1-.1.2-.4.1-.7-.1-.3-.4-.3-.7-.2-1.3.7-2.4 1.4-3.6 2.1-.3.2-.3.4-.1.7.2.4.5.4.7.3zM1295.4 723.1c.7 1.2 1.5 2.4 2.4 3.5.2.2.4.3.7.1l.1-.1c.1-.1.2-.5.1-.7-.8-1.1-1.5-2.3-2.3-3.5-.2-.4-.6-.4-.8-.2-.4.3-.4.6-.2.9zM1332.4 661.6c1.3.1 2.7.2 4.1.4.2 0 .3 0 .4-.1.1-.1.1-.1.1-.3 0-.3-.1-.6-.4-.6-1.4-.2-2.8-.3-4.2-.4-.3 0-.5.2-.5.5s.2.5.5.5zM1205.3 788.6c.2.2.4.1.6 0 .1-.1.1-.1.2-.3.3-1.3.7-2.7 1.3-3.9.1-.3 0-.6-.3-.7-.3-.1-.6 0-.7.3-.5 1.3-.9 2.6-1.3 4-.2.2-.1.4.2.6zM1297.6 679.7c.8-1.3 1.7-2.3 2.5-3.4.2-.2.1-.6 0-.7-.2-.2-.6-.1-.7 0-.9 1-1.8 2.2-2.5 3.4-.1.3-.1.5.1.7.2.2.5.1.6 0zM1302.1 731.6l1.3 1.3c0 .1.4.1.6-.2.2-.2.2-.5 0-.7l-1.3-1.3c-.5-.5-1.1-1.1-1.5-1.7-.2-.2-.5-.2-.7 0-.2.2-.2.5 0 .7.6.7 1 1.3 1.6 1.9zM1324.1 662.3c1.4-.2 2.9-.4 4.2-.5.1 0 .2-.1.3-.1.1-.1.1-.3.1-.4 0-.3-.2-.5-.6-.4-1.4.1-2.8.3-4.2.5-.3 0-.4.3-.4.6s.3.3.6.3zM1360.6 731.7l.1-.1c1-1 1.8-2 2.6-2.9.2-.2.1-.6 0-.7-.2-.2-.6-.1-.7 0-.8 1-1.7 2-2.6 2.9l-.1.1c-.2.2-.2.5 0 .7.2.3.4.3.7 0zM1355.4 669.6c1.1.8 2.1 1.7 3.2 2.6.2.2.5.2.7 0 .2-.2.2-.5 0-.7-1-.9-2.1-1.8-3.2-2.6-.2-.2-.6-.2-.7.1-.3.1-.3.4 0 .6zM1336 716.2c.1 5.8 4.8 10.5 10.5 10.5h.3c2.9-.1 5.5-1.3 7.4-3.2 1.9-1.9 3.1-4.6 3.1-7.4v-31.4c0-5.7-4.8-10.5-10.5-10.5l-.4-.1c-5.8.1-10.5 4.8-10.5 10.5l.1 31.6zm3.8-38.1c1.7-1.7 4.1-2.8 6.7-2.9h.3c5.2 0 9.6 4.4 9.5 9.5v31.4c0 5.2-4.3 9.4-9.5 9.5h-.3c-5.2 0-9.4-4.3-9.5-9.5v-31.4c0-2.6 1.1-4.9 2.8-6.6zM1348.3 665.3c1.3.7 2.4 1.3 3.6 2 .2.1.5.1.7-.1l.1-.1c.1-.3.1-.5-.1-.7-1.2-.7-2.4-1.4-3.8-2-.3-.1-.6 0-.7.2-.1.3 0 .6.2.7zM1364.1 678.3c.2.2.4.3.7.1l.1-.1c.1-.1.2-.5.1-.7-.8-1.1-1.8-2.2-2.6-3.2-.3-.3-.7-.2-.8-.1-.2.2-.2.5 0 .7.8 1.1 1.7 2.2 2.5 3.3zM1340.5 662.7c1.3.3 2.7.7 4 1.2.2.1.4 0 .5-.1.1-.1.1-.1.1-.2.1-.2 0-.6-.4-.7-1.1-.5-2.5-.9-3.9-1.3-.2-.1-.6.1-.7.4-.1.3.1.7.4.7z"/>
    <path d="M1352.2 690.8c2.9-2.9 2.9-7.7 0-10.6-2.9-2.9-7.7-2.9-10.6 0-2.9 2.9-2.9 7.7 0 10.6 2.9 2.9 7.6 2.9 10.6 0zm-9.2-9.1c2.1-2.1 5.5-2.1 7.7 0 2.1 2.1 2.1 5.5 0 7.7-2.1 2.1-5.5 2.1-7.7 0-2.1-2.2-2.1-5.6 0-7.7zM1341.6 710.4c-2.9 2.9-2.9 7.7 0 10.6 2.9 2.9 7.7 2.9 10.6 0 2.9-2.9 2.9-7.7 0-10.6-3-3-7.7-3-10.6 0zm9.1 9.1c-2.1 2.1-5.5 2.1-7.7 0-2.1-2.1-2.1-5.5 0-7.7 2.1-2.1 5.5-2.1 7.7 0 2.1 2.2 2.1 5.6 0 7.7zM1302.7 673.6c1-1 2-1.8 3-2.7l.1-.1c.2-.2.2-.5 0-.7-.2-.2-.5-.2-.7-.1-1 .9-2.1 1.8-3.1 2.8-.2.2-.2.5 0 .7.2.2.5.3.7.1zM1236.7 763.7c1.3-.1 2.7 0 4.1.1.1 0 .3 0 .4-.1.1-.1.1-.1.2-.3 0-.3-.2-.5-.4-.6-1.4-.1-2.8-.1-4.2-.1-.3 0-.5.2-.5.5-.1.3.1.5.4.5zM1252.6 767.1c1.2.6 2.4 1.3 3.5 2.1.1.2.4.1.6 0 .2-.4.1-.6-.1-.8-1.2-.7-2.4-1.5-3.6-2.1-.3-.1-.6 0-.7.2-.1.2.1.5.3.6zM1681.4 629.4l-2.9 2.9c-.2.2-.2.5 0 .7.2.2.5.2.7 0l2.9-2.9c.2-.2.2-.5 0-.7-.2-.2-.4-.3-.7 0zM1242.3 801c2.5-2.5 2.5-6.5 0-9s-6.5-2.5-9 0-2.5 6.5 0 9 6.5 2.5 9 0zm-8.3-8.3c2.1-2.1 5.4-2.1 7.5 0 2.1 2.1 2.1 5.4 0 7.5-2.1 2.1-5.5 2.1-7.5 0-2-2-2-5.4 0-7.5zM1228.5 765c1.3-.4 2.7-.7 4-.9.1 0 .2-.1.3-.2.1-.1.1-.3.1-.4 0-.3-.3-.4-.6-.4-1.4.2-2.8.6-4.1.9-.2.1-.4.4-.4.7.1.2.5.3.7.3zM1208.2 781c.3 0 .6 0 .7-.1.7-1.3 1.4-2.4 2.2-3.5.2-.2.2-.6-.1-.7-.2-.2-.6-.1-.7.1-.8 1.1-1.6 2.4-2.3 3.6-.2.2 0 .5.2.6zM1291.9 715.3c.4 1.3 1 2.6 1.5 3.9.2.3.4.4.7.2l.1-.1c.1-.1.2-.4.1-.6-.5-1.3-1-2.5-1.5-3.8-.1-.1-.4-.2-.7-.2-.1 0-.2.3-.2.6zM1213.8 774.1c1.2-1.3 2.5-2.5 3.8-3.5l.1-.1c.1-.1.2-.5.1-.7-.2-.2-.5-.2-.7-.2-1.4 1.1-2.8 2.4-4 3.7-.2.2-.2.5 0 .7.2.3.5.4.7.1zM1221.1 768.3c1.2-.7 2.4-1.3 3.6-1.8l.1-.1c.1-.1.2-.4.1-.6-.1-.3-.4-.4-.7-.2-1.3.6-2.6 1.3-3.8 2-.3.2-.3.4-.1.7.2 0 .5.1.8 0z"/>
    <path d="M1217.4 783.3c-1.6 1.6-1.6 4.3 0 5.9l7.3 7.3-7.3 7.3c-1.6 1.6-1.6 4.3 0 5.9l7.2 7.2c1.6 1.6 4.3 1.6 5.9 0l7.3-7.3 7.3 7.3c1.6 1.6 4.3 1.6 5.9 0l7.2-7.2c1.6-1.6 1.6-4.3 0-5.9l-7.3-7.3 7.3-7.3c1.6-1.6 1.6-4.3 0-5.9l-7.3-7.3c-1.7-1.5-4.3-1.5-5.8.1l-7.3 7.3-7.3-7.3c-1.6-1.6-4.3-1.6-5.9 0l-7.2 7.2zm11.6-5.8l8.8 8.8 8.8-8.8c.8-.8 2.1-.7 2.9 0l7.2 7.2c.8.8.8 2.1 0 2.9l-8.8 8.8 8.8 8.8c.8.8.8 2.1 0 2.9l-7.2 7.2c-.8.8-2.1.8-2.9 0l-8.8-8.8-8.8 8.8c-.8.8-2.1.8-2.9 0l-7.2-7.2c-.8-.8-.8-2.1 0-2.9l8.8-8.8-8.8-8.8c-.8-.8-.8-2.1 0-2.9l7.2-7.2c.8-.8 2.1-.8 2.9 0zM1290.5 706.6c-.3 0-.4.3-.4.6.2 1.4.4 2.8.7 4.1 0 .3.3.4.5.4.1 0 .2-.1.3-.1.1-.1.1-.3.1-.4-.3-1.3-.5-2.7-.7-4 .1-.4-.2-.6-.5-.6zM1290.3 703.3c.1.1.2.1.4-.1.1-.1.1-.3.1-.4 0-1.3 0-2.8.1-4.1 0-.3-.2-.5-.4-.6-.3 0-.5.2-.6.4-.1 1.4-.1 2.8-.1 4.3 0 .3.2.5.5.5zM1290.8 695.1c.2.1.4 0 .5-.1.1-.1.1-.1.1-.3.3-1.3.6-2.7 1-4.1.1-.2-.1-.5-.4-.7-.2-.1-.5.1-.7.4-.4 1.3-.7 2.7-1 4.1.1.4.2.7.5.7zM1288 766h.3c1.5 0 2.8-.6 3.8-1.6s1.6-2.4 1.6-3.8v-16.8c0-1.5-.5-2.9-1.5-3.9s-2.4-1.5-3.9-1.5l-.2.1c-2.9 0-5.4 2.4-5.4 5.4l-.1 16.9c.1 2.8 2.5 5.2 5.4 5.2zm-4.2-22.3c0-1.2.5-2.3 1.3-3 .8-.8 1.8-1.3 3-1.3h.3c1.2 0 2.3.4 3.1 1.2.8.8 1.4 2 1.3 3.1v16.8c0 2.4-2 4.3-4.3 4.3h-.3c-2.4 0-4.3-2-4.3-4.3v-16.8h-.1zM1260.9 773.2l1.3 1.3c.2.2.5.2.7 0 .2-.2.2-.5 0-.7l-1.3-1.3c-.6-.6-1.2-1.2-1.8-1.6-.1-.1-.5-.1-.7.1-.2.2-.1.6 0 .7.7.4 1.3 1 1.8 1.5zM1270.8 748.8h.3c1.5 0 2.8-.6 3.8-1.6s1.6-2.4 1.6-3.8v-16.8c0-1.5-.5-2.9-1.5-3.9s-2.4-1.5-3.9-1.5l-.2.1c-2.9 0-5.4 2.4-5.4 5.4l-.1 16.9c0 2.7 2.4 5.2 5.4 5.2zm-4.3-22.3c0-1.2.5-2.3 1.3-3 .8-.8 1.8-1.3 3-1.3h.3c1.2 0 2.3.4 3.1 1.2.9.9 1.4 2 1.3 3.1v16.8c0 2.4-2 4.3-4.3 4.3h-.3c-2.4 0-4.3-2-4.3-4.3v-16.8h-.1zM1261.4 820c.2.2.5.2.7 0 1-1 1.9-2.1 2.7-3.2.2-.2.1-.6-.1-.7-.2-.2-.4-.1-.7.1-.8 1.1-1.7 2.1-2.7 3.1-.1.1-.1.4.1.7zM1266.9 781.2c.1.3.4.3.7.2l.1-.1c.1-.1.2-.4.1-.7-.7-1.3-1.4-2.4-2.1-3.6-.1-.1-.4-.3-.7-.1-.3.2-.3.4-.1.7.7 1.3 1.4 2.5 2 3.6zM1355.7 167.4c.9 0 1.8-.3 2.4-1l.1-.1c.7-.7 1-1.4 1-2.3l.8-24.2c0-.9-.3-1.8-1-2.4-.7-.7-1.5-1-2.4-1-.9 0-1.8.4-2.4 1-.7.7-1 1.5-1 2.4l-.8 24.2c-.1 1.8 1.4 3.3 3.3 3.4zm-1.5-27.7c0-.6.3-1.2.7-1.5l.1-.1c.4-.4 1.1-.7 1.7-.7.6 0 1.2.3 1.6.7.5.5.7 1.1.7 1.7l-.8 24.2c0 .6-.3 1.2-.7 1.6-.4.4-1.1.7-1.7.7-1.3-.1-2.3-1.1-2.3-2.4l.7-24.2zM1546.4 585.5l2.9-2.9c.2-.2.2-.5 0-.7-.2-.2-.5-.2-.7 0l-2.9 2.9c-.2.2-.2.5 0 .7.2.3.5.3.7 0zM1558.2 573.8l2.9-2.9c.2-.2.2-.5 0-.7-.2-.2-.5-.2-.7 0l-2.9 2.9c-.2.2-.2.5 0 .7.2.2.5.2.7 0zM1552.3 579.7l2.9-2.9c.2-.2.2-.5 0-.7-.2-.2-.5-.2-.7 0l-2.9 2.9c-.2.2-.2.5 0 .7.2.2.5.2.7 0zM1564.1 567.9l2.9-2.9c.2-.2.2-.5 0-.7-.2-.2-.5-.2-.7 0l-2.9 2.9c-.2.2-.2.5 0 .7.2.2.5.2.7 0zM1534.7 597.3l2.9-2.9c.2-.2.2-.5 0-.7-.2-.2-.5-.2-.7 0l-2.9 2.9c-.2.2-.2.5 0 .7.1.3.4.3.7 0zM1522.9 609.1l2.9-2.9c.2-.2.2-.5 0-.7-.2-.2-.5-.2-.7 0l-2.9 2.9c-.2.2-.2.5 0 .7.2.2.5.2.7 0zM1540.6 591.4l2.9-2.9c.2-.2.2-.5 0-.7-.2-.2-.5-.2-.7 0l-2.9 2.9c-.2.2-.2.5 0 .7.1.3.4.3.7 0zM1528.8 603.2l2.9-2.9c.2-.2.2-.5 0-.7-.2-.2-.5-.2-.7 0l-2.9 2.9c-.2.2-.2.5 0 .7.2.2.5.2.7 0zM1570 562l2.9-2.9c.2-.2.2-.5 0-.7-.2-.2-.5-.2-.7 0l-2.9 2.9c-.2.2-.2.5 0 .7.2.2.5.2.7 0zM1617.1 514.9l2.9-2.9c.2-.2.2-.5 0-.7-.2-.2-.5-.2-.7 0l-2.9 2.9c-.2.2-.2.5 0 .7.2.2.5.2.7 0zM1605.4 526.6l2.9-2.9c.2-.2.2-.5 0-.7-.2-.2-.5-.2-.7 0l-2.9 2.9c-.2.2-.2.5 0 .7.1.3.4.3.7 0zM1575.9 556.1l2.9-2.9c.2-.2.2-.5 0-.7-.2-.2-.5-.2-.7 0l-2.9 2.9c-.2.2-.2.5 0 .7.2.2.5.2.7 0zM1517 615.4c.1 0 .4-.1.4-.1.1-.1.1-.1.1-.3.1-.4.2-.8.6-1.2l1.8-1.8c.2-.2.2-.5 0-.7-.2-.2-.5-.2-.7 0l-1.8 1.8c-.4.4-.8 1.1-.9 1.8 0 .3.2.5.5.5zM1623 509l2.9-2.9c.2-.2.2-.5 0-.7-.2-.2-.5-.2-.7 0l-2.9 2.9c-.2.2-.2.5 0 .7.2.2.5.2.7 0zM1611.2 520.7l2.9-2.9c.2-.2.2-.5 0-.7-.2-.2-.5-.2-.7 0l-2.9 2.9c-.2.2-.2.5 0 .7.2.3.5.3.7 0zM1581.8 550.2l2.9-2.9c.2-.2.2-.5 0-.7-.2-.2-.5-.2-.7 0l-2.9 2.9c-.2.2-.2.5 0 .7.2.2.5.2.7 0zM1587.7 544.3l2.9-2.9c.2-.2.2-.5 0-.7-.2-.2-.5-.2-.7 0l-2.9 2.9c-.2.2-.2.5 0 .7.2.2.5.2.7 0zM1599.5 532.5l2.9-2.9c.2-.2.2-.5 0-.7-.2-.2-.5-.2-.7 0l-2.9 2.9c-.2.2-.2.5 0 .7.2.2.4.2.7 0zM1593.6 538.4l2.9-2.9c.2-.2.2-.5 0-.7-.2-.2-.5-.2-.7 0l-2.9 2.9c-.2.2-.2.5 0 .7.2.2.5.2.7 0zM1734.9 292.6c.2.1.5.1.7-.1l.1-.1c.1-.3.1-.5-.1-.7l-3.6-2.1c-.3-.1-.5-.1-.7.2-.1.3-.1.5.1.7l3.5 2.1zM1889.2 166.7c-.1-.2-.4-.3-.7-.1-.3.1-.3.4-.1.7l2.1 3.6c.1.3.4.3.7.1l.1-.1c.1-.1.2-.4.1-.7l-2.2-3.5zM1885.1 159.5c-.2-.2-.4-.3-.7-.1-.3.1-.3.4-.2.7l2.1 3.6c.1.3.4.3.7.2l.1-.1c.1-.1.2-.4.1-.7l-2.1-3.6zM1628.9 503.1l2.9-2.9c.2-.2.2-.5 0-.7-.2-.2-.5-.2-.7 0l-2.9 2.9c-.2.2-.2.5 0 .7.2.2.5.2.7 0zM1876.7 145c-.1-.1-.5-.2-.7-.1-.3.1-.3.4-.2.7l2.1 3.6c.1.3.4.3.7.1l.1-.1c.1-.1.2-.4.1-.7l-2.1-3.5zM1880.9 152.3c-.2-.2-.5-.4-.7-.1-.3.1-.3.4-.1.7l2.1 3.6c.1.3.4.3.7.1l.1-.1c.1-.1.2-.4.1-.7l-2.2-3.5z"/>
    <path d="M1898.1 159.9c-9.8-16.6-26.1-26.6-39.2-23.9-1.3-2.3-3.3-3.9-5.8-4.5-2.4-.7-5-.3-7.1 1l-5.2 2.9c-2.8-3.7-5.5-7-8.5-9.9-9.3-9.3-20.3-16.2-32.9-20.5-.3-4.6-3.6-8.4999-8.3-9.3999-30.7-6.4-62.3 2.9-84.3 24.9999-22.1 22.1-31.5 53.5-25 84.2 1 4.6 4.9 7.8 9.3 8.2 4.4 12.7 11.3 23.8 20.6 33.1 2.9 2.9 6.3 5.8 9.9 8.5l-2.9 5.2c-1.3 2.1-1.6 4.7-1 7.1.7 2.4 2.3 4.5 4.4 5.7l.1.1c-2.7 13.1 7.4 29.5 24 39 16.8 9.6 35.9 10.1 45.8 1.2l.1.1c2.1 1.3 4.7 1.6 7.1 1 1.6-.4 3.1-1.3 4.2-2.4.6-.6 1.1-1.3 1.5-2l9-15.6c1-1.7 1.3-3.6.7-5.5-.5-1.8-1.8-3.4-3.5-4.2l-1-.5c.7-1.3 1-2.9.5-4.3-.4-1.5-1.5-2.9-2.8-3.7l-61.3-35.4c-1.4-.8-3-1.1-4.6-.7-1.5.4-2.8 1.3-3.5 2.7l-1.1-.7c-3.3-2-7.7-.8-9.6 2.6l-2.4 4.1c-3-2.3-5.8-4.8-8.4-7.4-8.7-8.7-15-18.8-18.7-29.9.4-.3.9-.7 1.3-1.1 2.5-2.5 3.5-6 2.8-9.4-5-23.7 2.3-48.1 19.4-65.2 17.2-17.2 41.5-24.4 65.3-19.4 3.6.7 7.1-.5 9.5-2.9.4-.4.7-.7 1-1.1 11.1 3.8 21.1 10.1 29.8 18.7 2.7 2.7 5.1 5.5 7.4 8.4l-4.1 2.4c-1.7 1-2.8 2.5-3.3 4.3-.5 1.8-.2 3.8.7 5.4l.7 1.1c-1.3.8-2.2 2.1-2.7 3.5-.4 1.6-.1 3.2.7 4.6l35.4 61.3c.8 1.4 2.1 2.4 3.7 2.8 1.5.4 3 .2 4.3-.5l.5 1c.9 1.8 2.4 2.9 4.2 3.5 1.8.5 3.8.3 5.5-.7l15.6-9c.7-.4 1.4-1 2-1.5 1.2-1.2 2-2.6 2.4-4.2.7-2.4.3-5-1-7.1l-.1-.1c9-10.1 8.5-29.2-1.1-46zm-119.3 156.8l-.1-.1-3.5-2c-.3-.1-.5-.1-.7.1-.2.3-.1.5.1.7l2.6 1.5c-9.1 1.1-20-1.3-30-7.1-10-5.7-17.5-14.1-21.1-22.5l1.6.9c.2.1.5.1.7-.1l.1-.1c.2-.3.1-.5-.1-.7l-2.7-1.5c-1.5-4.1-2.1-8.2-1.4-12.2l66 38c-3.3 2.8-7.1 4.4-11.5 5.1zm-36.5-76.1c1.3-.3 2.7-.2 3.8.6l61.3 35.4c1.1.7 2.1 1.8 2.4 3.1.3 1.2.1 2.5-.4 3.5l-70-40.4c.6-1.1 1.6-2 2.9-2.2zm-12.9 4.6c.2-.4.4-.7.7-1 1.5-1.5 4.1-2 6-.8l73.9 42.7c1.3.7 2.1 1.7 2.4 3 .4 1.3.1 2.7-.4 3.8l-9 15.6c-1 1.7-2.5 2.9-4.5 3.5-1.9.4-3.9.2-5.6-.7l-70-40.4c-1.7-1-2.9-2.5-3.5-4.5-.4-1.9-.2-3.9.7-5.6l9.3-15.6zm-13.3-3.6c2.7 2.7 5.6 5.2 8.7 7.5l-2.6 4.5c-3.6-2.7-6.8-5.4-9.7-8.4-9.1-9.1-15.9-20-20.3-32.5.7-.1 1.3-.1 2-.2 1.1-.2 2.1-.6 3-1.1 3.8 11.4 10.1 21.5 18.9 30.2zm81.1-134.3c-1 4.6-5.4 7.3-9.9 6.6-24.4-5.2-49.6 2.3-67.2 19.9-17.7 17.7-25.1 42.8-19.9 67.2.5 2.7-.3 5.4-2.4 7.5-1.1 1.1-2.6 1.8-4.2 2.3-4.5 1-8.9-2-9.9-6.5-6.3-30 2.9-60.6 24.5-82.3 21.6-21.6 52.4-30.6999 82.4-24.4999 4.6.9 7.5 5.1999 6.6 9.7999zm30.6 22.4c-8.7-8.5-18.8-15-30-18.8.6-1 1-2.1 1.3-3.2.1-.6.1-1.2.1-1.8 12.2 4.3 23.1 11.1 32.1 20.2 2.9 2.9 5.7 6.1 8.4 9.7l-4.5 2.6c-2.2-3.1-4.6-6-7.4-8.7zm38 93.8c-1.3-.4-2.4-1.2-3.1-2.4l-35.4-61.3c-.7-1.2-.9-2.5-.6-3.8.3-1.2 1.1-2.3 2.1-2.9l40.4 70c-.9.6-2.2.7-3.4.4zm32.4-11.1c-.5 2-1.8 3.5-3.5 4.5l-15.6 9c-1.1.7-2.5.9-3.8.4-1.3-.4-2.3-1.3-2.9-2.5l-42.7-73.9c-.7-1.1-.9-2.5-.5-3.8.2-.8.7-1.6 1.3-2.2.3-.3.7-.5 1-.7l15.6-9c1.7-1 3.6-1.3 5.6-.7 2 .5 3.5 1.8 4.5 3.5l40.4 70c.9 1.6 1.1 3.6.6 5.4zm2.5-23.3l2 3.5.1.1c-.7 4.4-2.4 8.2-4.9 11.3l-38-66c3.8-.6 8-.1 12.2 1.4l1.5 2.7c.2.3.4.3.7.1l.1-.1c.1-.1.2-.4.1-.7l-.9-1.6c8.5 3.6 16.7 11.1 22.5 21.1 5.8 10.1 8.2 21 7.1 30.1l-1.5-2.6c-.1-.3-.4-.3-.7-.1-.4.2-.4.5-.3.8zM1126.4 0h-2.9l-14.9 14.9-.2.2-8.2-8.2c1.8-2.1 3.9-4.4 6.1-6.9h-1.3c-7.6 8.5-12.7 14.6-15.9 18.5 2.2-4.1 5.8-10.3 11.6-18.5h-2.7c-8.4 12-12 19.5-13.2 22.6L1062.1 0h-2.9l24.1 24.1c-6.2 2.7-31.2 15-75.3 58.4-1.3 1.3-3.7 1.3-5 0L920.5 0h-2.9l83.9 83.9c2.2 2.2 5.7 2.2 8 0l.7-.7 1.8 1.8c2 2 5.2 2.1 7 .2 22-21.7 37.9-36.3 48.7-45.7l8.2 8.2-.3.3-59.9 59.9c-2.2 2.2-5.9 2.2-8.1 0l-95.4-95.4c-2.2-2.2-2.2-5.9 0-8.1l4.3-4.3h-2.9l-3 3c-3 3-3 8 0 11l95.4 95.4c3 3 8 3 11 0l59.9-59.9c.1-.1.4-.1.6 0 1.5 1.5 4 1.5 5.4 0l27-27c1.5-1.5 1.5-4 0-5.5l.1-.1-.2-.2c0-.1.1-.2.1-.3L1126.4 0zm-108.2 84.4c-1.5 1.5-4 1.3-5.5-.2l-1.8-1.8c35.1-34.3 58-48.8 68.3-54.2-8.7 7.1-28.1 23.7-61 56.2zm90.3-63.4l-27 27c-.7.7-1.8.7-2.5 0l-9.9-9.9c7.4-6.4 12.2-10.2 14.5-12 1.1-.5 1.8-.7 1.8-.7.1 0 .3-.1.4-.2.1-.1.2-.2.2-.4l.1-.1s.2-.7.7-1.8c1.8-2.4 5.5-7 11.9-14.4l9.4 9.4c.1.2.2.4.4.6.8.7.8 1.7 0 2.5z"/>
    <path d="M1893.5 174c-.2-.2-.6-.3-.7-.2-.3.2-.3.4-.1.7l2.1 3.6c.1.3.4.3.7.2l.1-.1c.1-.1.2-.4.1-.7l-2.2-3.5zM1897.6 181.2c-.2-.2-.4-.3-.7-.1-.3.1-.3.4-.1.7l2.1 3.6c.1.3.4.3.7.1l.1-.1c.1-.1.2-.4.1-.7l-2.2-3.5zM1763.8 309.2c.2.1.5.1.7-.1l.1-.1c.1-.3.1-.5-.1-.7l-3.6-2.1c-.3-.2-.5-.1-.7.1-.2.3-.1.5.1.7l3.5 2.2zM1771.1 313.4c.2.1.5.1.7-.1l.1-.1c.1-.3.1-.5-.1-.7l-3.6-2.1c-.3-.2-.5-.1-.7.1-.1.3-.1.5.1.7l3.5 2.2zM1511.8 439.8h-11.3v11.3h11.3v-11.3zM1824.6 752.6h-11.3v11.3h11.3v-11.3zM1627.9 30.3999h-11.3v11.3h11.3v-11.3zM1753 303l3.6 2.1c.2.1.5.1.7-.1l.1-.1c.1-.3.1-.5-.2-.7l-3.6-2.1c-.3-.1-.5-.1-.7.1-.2.3-.2.7.1.8zM1511.9 623l102.9 102.9c4.4 4.4 11.5 4.4 15.9 0l60.3-60.3 6.8 6.8c10.5 10.5 7.8 15.5 4.9 18.3l-2.3 2.3c-2.2 2.2-2.2 6 0 8.2 2.2 2.2 6 2.2 8.2 0l53.2-53.2c2.2-2.2 2.2-6 0-8.2-2.2-2.2-6-2.2-8.2 0l-2.3 2.3c-2.9 2.9-7.9 5.5-18.3-4.9l-6.8-6.8 60.3-60.3c4.4-4.4 4.5-11.6.1-16l-102.9-102.9c-4.4-4.4-11.5-4.4-15.9 0l-156 156c-4.3 4.3-4.3 11.4.1 15.8zm243.2 18.2c1.5-1.5 3.8-1.5 5.3 0s1.5 3.8 0 5.3l-53.2 53.2c-1.5 1.5-3.8 1.5-5.3 0s-1.5-3.8 0-5.3l53.2-53.2zm-23.4-2.7c5.8 6 10.8 8.6 15.2 8.1l-39.5 39.5c.5-4.3-2.1-9.4-8-15.2l-6.8-6.8 32.3-32.3 6.8 6.7zm-62.3-185.9c3.6-3.6 9.4-3.6 13 0l102.9 102.9c3.6 3.6 3.5 9.4-.1 13l-155.9 155.9c-3.6 3.6-9.4 3.6-13 0l-102.9-102.9c-3.6-3.6-3.6-9.4 0-13l156-155.9zM1749.3 301c.2.1.5.1.7-.1l.1-.1c.1-.3.1-.5-.2-.7l-3.6-2.1c-.3-.1-.5-.1-.7.2-.1.3-.1.5.1.7l3.6 2.1zM1742.1 296.8c.2.1.5.1.7-.1l.1-.1c.1-.3.1-.5-.1-.7l-3.6-2.1c-.3-.1-.5-.1-.7.1-.1.3-.1.5.1.7l3.5 2.2z"/>
    <path d="M1696.9 615.4l2.9-2.9c.2-.2.2-.5 0-.7-.2-.2-.5-.2-.7 0l-2.9 2.9c-.2.2-.2.5 0 .7.2.2.5.2.7 0zM1743.9 523.9c.2.2.5.2.7 0 .2-.2.2-.5 0-.7l-2.9-2.9c-.2-.2-.5-.2-.7 0-.2.2-.2.5 0 .7l2.9 2.9zM1737.4 574.1c.2.2.5.2.7 0l2.9-2.9c.2-.2.2-.5 0-.7-.2-.2-.5-.2-.7 0l-2.9 2.9c-.2.2-.2.5 0 .7zM1743.3 568.2c.2.2.5.2.7 0l2.9-2.9c.2-.2.2-.5 0-.7-.2-.2-.5-.2-.7 0l-2.9 2.9c-.2.2-.2.5 0 .7zM1749.8 529.8c.2.2.5.2.7 0 .2-.2.2-.5 0-.7l-2.9-2.9c-.2-.2-.5-.2-.7 0-.2.2-.2.5 0 .7l2.9 2.9zM1749.2 562.4c.2.2.5.2.7 0l2.9-2.9c.2-.2.2-.5 0-.7-.2-.2-.5-.2-.7 0l-2.9 2.9c-.2.1-.2.4 0 .7zM1738 518c.2.2.5.2.7 0 .2-.2.2-.5 0-.7l-2.9-2.9c-.2-.2-.5-.2-.7 0-.2.2-.2.5 0 .7l2.9 2.9zM1732.1 512.1c.2.2.5.2.7 0 .2-.2.2-.5 0-.7l-2.9-2.9c-.2-.2-.5-.2-.7 0-.2.2-.2.5 0 .7l2.9 2.9zM1725.6 585.9c.2.2.5.2.7 0l2.9-2.9c.2-.2.2-.5 0-.7-.2-.2-.5-.2-.7 0l-2.9 2.9c-.2.2-.2.5 0 .7zM1731.5 580c.2.2.5.2.7 0l2.9-2.9c.2-.2.2-.5 0-.7-.2-.2-.5-.2-.7 0l-2.9 2.9c-.2.2-.2.5 0 .7zM1755.7 535.7c.2.2.5.2.7 0 .2-.2.2-.5 0-.7l-2.9-2.9c-.2-.2-.5-.2-.7 0-.2.2-.2.5 0 .7l2.9 2.9zM1693.9 618.3c.2-.2.2-.5 0-.7-.2-.2-.5-.2-.7 0l-2.9 2.9c-.2.2-.2.5 0 .7.2.2.5.2.7 0l2.9-2.9zM1692.5 631.7c-2.2 2.2-2.2 5.9 0 8.1 2.2 2.2 5.9 2.2 8.1 0 2.2-2.2 2.2-5.9 0-8.1-2.2-2.2-5.9-2.2-8.1 0zm7.3 7.4c-1.8 1.8-4.8 1.8-6.6 0-1.8-1.8-1.8-4.8 0-6.6 1.8-1.8 4.8-1.8 6.6 0 1.9 1.8 1.9 4.7 0 6.6zM1726.2 506.2c.2.2.5.2.7 0 .2-.2.2-.5 0-.7l-2.9-2.9c-.2-.2-.5-.2-.7 0-.2.2-.2.5 0 .7l2.9 2.9zM1687.3 623.5l-2.9 2.9c-.2.2-.2.5 0 .7.2.2.5.2.7 0l2.9-2.9c.2-.2.2-.5 0-.7-.2-.2-.5-.2-.7 0zM1659.9 493.3c-.1-.2-.3-.4-.7-.4-.2.1-.4.3-.4.7l29.8 108.9c.1.3.4.4.7.3.1-.1.2-.1.2-.1.1-.1.1-.3.1-.5l-29.7-108.9zM1705 605.8l-2.9 2.9c-.2.2-.2.5 0 .7.2.2.5.2.7 0l2.9-2.9c.2-.2.2-.5 0-.7-.2-.2-.5-.2-.7 0zM1761.6 541.6c.2.2.5.2.7 0 .2-.2.2-.5 0-.7l-2.9-2.9c-.2-.2-.5-.2-.7 0-.2.2-.2.5 0 .7l2.9 2.9zM1761 549.8c-.2.2-.2.5 0 .7.2.2.5.2.7 0l2.9-2.9c1-1 1.3-2.4.6-3.7-.1-.1-.4-.3-.7-.1-.3.1-.3.4-.2.7.4.8.3 1.8-.4 2.4l-2.9 2.9zM1685.4 501.2l20.3 74.1c.1.2.3.4.7.4.1-.1.2-.1.2-.1.1-.1.2-.3.1-.5l-20.3-74.1c0-.4-.3-.6-.6-.4-.2 0-.5.3-.4.6zM1634.8 497.2l2.9-2.9c.2-.2.2-.5 0-.7-.2-.2-.5-.2-.7 0l-2.9 2.9c-.2.2-.2.5 0 .7.2.2.5.2.7 0zM1676.2 456.8c.5.1 1 .2 1.3.6l1.6 1.6c.2.2.5.2.7 0 .2-.2.2-.5 0-.7l-1.6-1.6c-.5-.5-1.3-.8-2-1-.4.1-.6.3-.6.6.1.3.3.5.6.5zM1685 465c.2.2.5.2.7 0 .2-.2.2-.5 0-.7l-2.9-2.9c-.2-.2-.5-.2-.7 0-.2.2-.2.5 0 .7l2.9 2.9zM1719.7 591.8c.2.2.5.2.7 0l2.9-2.9c.2-.2.2-.5 0-.7-.2-.2-.5-.2-.7 0l-2.9 2.9c-.2.2-.2.5 0 .7zM1670.2 461.8l2.9-2.9c.2-.2.2-.5 0-.7-.2-.2-.5-.2-.7 0l-2.9 2.9c-.2.2-.2.5 0 .7.1.2.4.2.7 0zM1658.4 473.6l2.9-2.9c.2-.2.2-.5 0-.7-.2-.2-.5-.2-.7 0l-2.9 2.9c-.2.2-.2.5 0 .7.2.2.5.2.7 0zM1646.6 485.4l2.9-2.9c.2-.2.2-.5 0-.7-.2-.2-.5-.2-.7 0l-2.9 2.9c-.2.2-.2.5 0 .7.2.2.5.2.7 0zM1640.7 491.3l2.9-2.9c.2-.2.2-.5 0-.7-.2-.2-.5-.2-.7 0l-2.9 2.9c-.2.2-.2.5 0 .7.2.2.5.2.7 0zM1652.5 479.5l2.9-2.9c.2-.2.2-.5 0-.7-.2-.2-.5-.2-.7 0l-2.9 2.9c-.2.2-.2.5 0 .7.2.2.5.2.7 0zM1664.3 467.7l2.9-2.9c.2-.2.2-.5 0-.7-.2-.2-.5-.2-.7 0l-2.9 2.9c-.2.2-.2.5 0 .7.2.2.5.2.7 0zM1707.9 603.6c.2.2.5.2.7 0l2.9-2.9c.2-.2.2-.5 0-.7-.2-.2-.5-.2-.7 0l-2.9 2.9c-.2.2-.2.5 0 .7zM1714.4 494.5c.2.2.5.2.7 0 .2-.2.2-.5 0-.7l-2.9-2.9c-.2-.2-.5-.2-.7 0-.2.2-.2.5 0 .7l2.9 2.9zM1690.9 470.9c.2.2.5.2.7 0 .2-.2.2-.5 0-.7l-2.9-2.9c-.2-.2-.5-.2-.7 0-.2.2-.2.5 0 .7l2.9 2.9zM1720.3 500.3c.2.2.5.2.7 0 .2-.2.2-.5 0-.7l-2.9-2.9c-.2-.2-.5-.2-.7 0-.2.2-.2.5 0 .7l2.9 2.9zM1713.8 597.7c.2.2.5.2.7 0l2.9-2.9c.2-.2.2-.5 0-.7-.2-.2-.5-.2-.7 0l-2.9 2.9c-.2.2-.2.5 0 .7zM1696.7 476.8c.2.2.5.2.7 0 .2-.2.2-.5 0-.7l-2.9-2.9c-.2-.2-.5-.2-.7 0-.2.2-.2.5 0 .7l2.9 2.9zM1708.5 488.6c.2.2.5.2.7 0 .2-.2.2-.5 0-.7l-2.9-2.9c-.2-.2-.5-.2-.7 0-.2.2-.2.5 0 .7l2.9 2.9zM1702.6 482.7c.2.2.5.2.7 0 .2-.2.2-.5 0-.7l-2.9-2.9c-.2-.2-.5-.2-.7 0-.2.2-.2.5 0 .7l2.9 2.9zM594.9 551.1c.2-.2.1-.4.2-.7L555 490.1l28.4-28.4c1.6-1.6 2.5-3.7 2.4-6 0-2.2-.9-4.3-2.5-5.7l-75.7-75.7c-3.2-3.2-8.5-3.2-11.6 0L383.7 486.6c-3.2 3.2-3.2 8.5 0 11.6l75.8 75.8c3.2 3.2 8.5 3.2 11.6 0l28.6-28.6L556 583c.2.1.4.1.7-.1.1-.1.2-.4.3-.7l-5.5-11.8 23.4 11.6c.2.1.4 0 .6-.1.1-.1.2-.4.1-.4L565 558.1l22.6 11c.2.1.4 0 .6-.1.1-.1.2-.4.2-.7l-10.8-24.9 16.7 7.9c.3 0 .5-.1.6-.2zm-22.5-33l-7-3.1-9-20.9 16 24zm-68.3 4.9l-2.8 2.8-12.4-6 12.1-12.1 10.7 22.7-.3.3-9.1-4.4 2.5-2.5-.7-.8zm-11.8 11.8l-2.7 2.7-11.1-7.3 9.2-9.2 10 21.9-1.5-1-5.8-3.8 2.5-2.5-.6-.8zm-18.9-2.4c-1.8 1.8-4.7 1.8-6.5 0-1.8-1.8-1.8-4.7 0-6.5l68.4-68.4c1.8-1.8 4.7-1.8 6.5 0 1.8 1.8 1.8 4.6.1 6.4l-68.5 68.5zm21.3-93c-1.4-1.4-3.6-1.4-5 0l-40.8 40.8c-1.4 1.4-1.4 3.6 0 5l27.9 27.9-5.7 5.7-33-33c-1.7-1.7-1.7-4.3 0-6l51.1-51.1c1.7-1.7 4.3-1.7 6 0l33 33-5.6 5.6-27.9-27.9zm27.2 28.6l-44.3 44.3-27.9-27.9c-1-1-1-2.6 0-3.5l40.8-40.8c1-1 2.6-1 3.5 0l27.9 27.9zm-6 43.2l-1.2 1.2-12.5-5.9 12.5-12.5 5.8 12.6-1.6 1.6.7.7 1.4-1.4 4.3 9.2-.3.3-9.2-4.3.9-.9-.8-.6zm5.9-4.4l.7-.7-.7-.7-.4.4-5.6-12.1 22.6 10.1-12.3 12.2-4.3-9.2zm-5.8-14.1l12.6-12.6L539 503l-23-10.3zm23.9 12.5l11 24.3-23.7-11.2-.1-.3 12.8-12.8zm-.1-2.8l-10.2-22.5 13.5 5.5.1.1 9.6 3.9-13 13zm4.3-17.8l2.1-2.1-.7-.7-2.4 2.4-13.1-5.4 9.7-9.7 12.6 18.9-8.2-3.4zm-35.9 35.9l2.6-2.6-.7-.7-2.3 2.3-5.5-11.7 11.7 5.5-.9.9.7.7 1.2-1.2 9.2 4.3-11.5 11.5-4.5-9zm17.9-1.5l.3.1 11.3 24.3-24.1-11.7v-.1l12.5-12.6zm12.3 26.1l10.7 22.9-23.9-11.8-10.8-22.9 24 11.8zM528 519.9l23.7 11.2 11.1 24.6-23.5-11.4-11.3-24.4zm13-14.8l23.6 10.6 11 25.4-23.2-10.9-11.4-25.1zm23.1 9.2l-23-10.3 12.9-12.9 10.1 23.2zm-94.4 58.2c-2.4 2.4-6.3 2.4-8.7 0l-75.8-75.8c-2.4-2.4-2.4-6.3 0-8.7l112.3-112.3c2.4-2.4 6.3-2.4 8.7 0l75.7 75.7c1.2 1.2 1.9 2.6 1.9 4.3.1 1.7-.6 3.2-1.8 4.5l-28.1 28.1-13.4-20.1 2.9-2.9c2.6-2.6 2.6-6.7-.1-9.4-2.6-2.6-6.8-2.6-9.4 0l-4.9 4.9-33-33c-2.1-2.1-5.4-2.1-7.5 0L437.3 479c-2.1 2.1-2.1 5.4 0 7.5l33 33-4.9 4.9c-2.6 2.6-2.6 6.8 0 9.4 2.6 2.6 6.8 2.6 9.4 0l3-3 17.9 11.9 2.2 1.5-28.2 28.3zm29.3-29.4L488.9 521l21.7 10.6-11.6 11.5zm13.6-10.5l.3.2 10.8 22.8-22.9-11.3 11.8-11.7zm-8.9 14.2l20.7 10.2 2.5 5.2-23.2-15.4zm51.4 34.2l-26.6-17.7-2.6-5.6 23.9 11.8 5.3 11.5zm18.9-.6l-23.2-11.5-10.7-22.9 23.5 11.4 10.4 23zm13-13l-22.7-11-11.1-24.6 23.2 10.9 10.6 24.7zm-10-25.7l-11-25.4 7.4 3.3 19.8 29.8-16.2-7.7zM19.9 990c0 .3.2.5.5.5.2 0 .2-.1.4-.2.1-.1.2-.2.2-.4v-2.1c0-.3-.2-.5-.5-.5s-.5.4-.6.6v2.1zM20.6 993.8c-.3 0-.7.2-.6.6v2.1c0 .3.2.5.5.5.1 0 .2-.1.4-.2.1-.1.2-.2.2-.4v-2.1c0-.3-.2-.5-.5-.5zM218.8 178.3c.1.2.3.4.7.4.1-.1.2-.1.2-.1.1-.1.1-.3.1-.5-.2-.8-.4-1.6-.8-2.4l21.7-21.7 31.5 31.5c-2.5 2.9-2.4 7.3.4 10.1 2.9 2.9 7.6 2.9 10.5 0 2.9-2.9 2.9-7.6 0-10.5-2.7-2.7-7.1-2.9-10.1-.4l-31.5-31.5 11.6-11.6c2.1-2.1 3.1-5 2.7-7.9-.4-3-2-5.5-4.5-7.1l-88-54.5999c-3.8-2.4-8.8-1.8-11.9 1.3L83.1 141.6c-3.2 3.2-3.7 8-1.3 11.9l54.6 87.9c1.5 2.4 4.1 4.1 7.1 4.4 3 .4 6-.7 8-2.7l34.1-34.1c.5.2 1.2.4 1.8.6.2.1.4 0 .5-.1.1-.1.1-.1.1-.2.1-.2-.1-.5-.4-.7-.4-.1-.8-.2-1.2-.4l31.9-31.9c.1.8.3 1.3.5 2zm54.3 7.5c2.5-2.5 6.5-2.5 9 0s2.5 6.5 0 9-6.5 2.5-9 0-2.5-6.5 0-9zm-55.6-12.1c-.2.1-.3.3-.3.6l-33.1 33.1c-.2-.1-.5.1-.6.3-.1.1-.1.2 0 .3l-33.7 33.7c-1.6 1.6-3.9 2.4-6.3 2.1-2.3-.2-4.3-1.5-5.5-3.5l-54.6-87.9c-1.8-3-1.3-6.9 1-9.3l68.3-68.2999c2.5-2.5 6.3-2.9 9.3-1L249.9 128.4c2 1.3 3.3 3.3 3.5 5.6.2 2.3-.5 4.5-2.1 6.1l-33.6 33.6h-.2zM414.1 934.4l-.9.6c.7 1 1.5 2.3 2.4 3.4l.9-.6c-.8-1.1-1.7-2.3-2.4-3.4zM264.2 768.5h-11.3v11.3h11.3v-11.3zM309.4 230.2c-6.8-6.8-18-6.8-24.9 0l-5.2 5.2c-.8-.4-1.7-.7-2.6-1-.2-.1-.5.1-.7.4-.1.2.1.5.4.7.7.2 1.4.5 2.1.7l-32.4 32.4c-.3-.9-.7-1.8-1-2.7-.1-.2-.3-.4-.7-.4-.2.1-.4.3-.4.7.3 1 .7 2.1 1.2 3.2l-5.1 5.1c-6.9 6.9-6.8 18 0 24.9l2.7 2.7c1.5 1.5 3.8 1.5 5.3 0l63.8-63.8c1.4-1.4 1.5-3.8.1-5.4l-2.6-2.7zm1.1 6.6l-63.8 63.8c-.7.7-1.7.7-2.4 0l-2.7-2.7c-6-6-6-15.9 0-21.9l44.3-44.3c6-6 15.9-6 21.9 0l2.6 2.6c.7.7.8 1.8.1 2.5z"/>
    <path d="M161.5 100.7c-.3-.1-.5-.1-.7.1-.1.3-.1.5.1.7l49.9 32.4c.1.1.5.1.7-.1l.1-.1c.1-.3.1-.5-.1-.7l-50-32.3zM467.1 998.5l-.9.6.6.9h1.3c-.3-.5-.6-1-1-1.5zM20.5 999.9c-.1 0-.2.1-.3.1h.6c0-.1-.2-.1-.3-.1zM20.6 981.2c-.3 0-.7.2-.6.6v2.1c0 .3.2.5.5.5.1 0 .2-.1.4-.2.1-.1.2-.2.2-.4v-2.1c0-.2-.2-.5-.5-.5zM462.3 991.7l-.8.7c.9 1 1.7 2.1 2.4 3.3l.9-.6c-.8-1.2-1.6-2.3-2.5-3.4zM429.5 953.8l-.8.7c1 1.1 2 2.1 2.9 3.2l.7-.7c-1-1.2-1.9-2.2-2.8-3.2zM435.2 959.9l-.7.7c1 1.1 1.9 2.1 2.8 3.1l.7-.7c-.9-1-1.9-2-2.8-3.1zM418.9 941.1l-.8.7c.9 1 1.7 2.1 2.6 3.3l.8-.7c-1-1-1.8-2.1-2.6-3.3zM424.1 947.6l-.8.7c.9 1 1.8 2.1 2.7 3.2l.8-.7c-1-1.1-1.9-2.1-2.7-3.2zM440.8 966.2l-.7.7c1 1 1.8 2 2.7 3l.8-.7c-.8-1-1.8-1.9-2.8-3zM451.9 978.7l-.8.7c.9 1 1.8 2.1 2.7 3.2l.8-.7c-.9-1.1-1.7-2.1-2.7-3.2zM457.2 985l-.8.7c1 1.1 1.8 2.2 2.6 3.2l.8-.7c-.8-1-1.6-2.1-2.6-3.2zM446.4 972.4l-.8.7c1 1.1 1.8 2.1 2.7 3.2l.8-.7c-.8-1.1-1.7-2.1-2.7-3.2zM82.7 990.1c-.3-.1-.6 0-.7.2-.2.3 0 .6.2.7l17.8 9h2.1l-19.4-9.9zM243.9 257.3c-.3 0-.5.2-.5.5-.1 1.3-.1 2.8.1 4.2 0 .3.3.4.6.4.1 0 .2-.1.3-.1.1-.1.2-.3.1-.4-.1-1.3-.2-2.7-.1-4.1 0-.3-.2-.5-.5-.5zM244.8 254.1c.1-.1.1-.1.2-.3.3-1.3.7-2.7 1.3-3.9.1-.3 0-.6-.3-.7-.3-.1-.6 0-.7.3-.5 1.4-.9 2.8-1.2 4.1-.1.2.1.6.4.7.1 0 .2-.1.3-.2zM203.5 208.1c-1.3.5-2.6.8-3.9 1.1-.3 0-.4.3-.4.6s.3.4.6.4c1.4-.2 2.7-.7 4.1-1.2l.1-.1c.1-.1.2-.4.2-.6-.2-.2-.5-.3-.7-.2zM210.5 204c-1 .9-2.2 1.6-3.4 2.4-.3.1-.3.4-.1.7.1.3.4.3.7.1 1.2-.7 2.4-1.5 3.5-2.4.2-.2.2-.5 0-.7-.1-.2-.5-.3-.7-.1zM178.3 585.8c5-5 5-13.3 0-18.3s-13.3-5-18.3 0-5 13.3 0 18.3 13.2 5 18.3 0zM161.5 569c4.2-4.2 11.1-4.2 15.3 0 4.2 4.2 4.2 11.1 0 15.3-4.2 4.2-11.1 4.2-15.3 0-4.2-4.2-4.2-11.1 0-15.3z"/>
    <path d="M192.3 599.8c12.8-12.8 12.8-33.6 0-46.4-12.8-12.8-33.6-12.8-46.4 0-12.8 12.8-12.8 33.6 0 46.4 12.8 12.8 33.6 12.8 46.4 0zm-45.6-45.6c12.4-12.4 32.6-12.4 44.9 0 12.4 12.4 12.4 32.5 0 44.9-12.4 12.4-32.5 12.4-44.9 0-12.4-12.4-12.4-32.6 0-44.9z"/>
    <path d="M197.1 604.6c15.5-15.5 15.5-40.5 0-56s-40.5-15.5-56 0-15.5 40.5 0 56 40.5 15.5 56 0zm-54.5-54.5c14.7-14.7 38.4-14.7 53 0 14.7 14.7 14.7 38.4 0 53-14.7 14.7-38.4 14.7-53 0-14.6-14.6-14.6-38.3 0-53zM112.4 568.2c.3 0 .4 0 .6-.1.1-.1.1-.1.1-.2l.6-2.1c.1-.2-.1-.5-.4-.7-.2-.1-.5.1-.7.4l-.6 2.1c0 .2.1.5.4.6zM215.8 197.9c-.7 1.2-1.5 2.3-2.4 3.3-.2.2-.1.6 0 .7.2.2.5.2.7 0 1-1.1 1.8-2.2 2.5-3.4.1-.3.1-.5-.2-.7-.1-.2-.4-.2-.6.1zM246.722 247.576l-40.446-40.446-.707.707 40.446 40.446.707-.707zM268.3 233.5c-.3 0-.5.2-.5.5s.2.5.5.5c1.4-.1 2.7.1 4.1.2.1 0 .3 0 .4-.1.1-.1.1-.1.1-.3 0-.3-.1-.6-.4-.6-1.4-.2-2.8-.2-4.2-.2zM258.157 236.159l-40.446-40.446-.707.707 40.446 40.446.707-.707zM260.1 235.1c-.3.1-.4.4-.4.7.1.3.4.4.7.3 1.3-.5 2.6-.8 3.9-1.1.1 0 .2-.1.3-.1.1-.1.1-.3.1-.4 0-.3-.3-.4-.6-.4-1.3 0-2.6.5-4 1zM218.9 190.4c-.3 1.3-.7 2.7-1.3 3.9-.1.3 0 .6.3.7.2.1.4 0 .6-.1l.1-.1c.6-1.3 1-2.7 1.3-4.1.1-.2-.1-.6-.4-.7-.3-.1-.6.1-.6.4zM191.5 209.5c-.3 0-.6.1-.6.4 0 .3.1.6.4.6 1.4.2 2.9.2 4.2.2.1 0 .2-.1.3-.1.1-.1.1-.3.1-.4 0-.3-.2-.5-.5-.5-1.3.1-2.6-.1-3.9-.2zM256.2 236.9c-1.2.7-2.4 1.5-3.5 2.4-.2.2-.2.5-.1.8.2.2.5.2.7 0 1-.9 2.2-1.6 3.4-2.4l.1-.1c.1-.1.2-.4.1-.7-.1-.1-.4-.1-.7 0zM220 186.9c.1 0 .3 0 .4-.1.1-.1.1-.1.1-.3.1-1.4.1-2.9-.1-4.2 0-.3-.3-.4-.6-.4-.4-.1-.5.2-.5.5.1 1.3.2 2.7.1 4.1 0 .1.3.4.6.4zM249.8 242.3c-1 1.1-1.8 2.2-2.5 3.4-.3.3-.2.7.1.8.2.1.5.1.7-.1l.1-.1c.7-1.2 1.5-2.3 2.4-3.3.2-.2.1-.6 0-.7-.2-.1-.6-.2-.8 0zM147.2 635.7c-2.4-2.4-6.3-2.4-8.7 0l-18.6 18.6c-2.4 2.4-2.4 6.3 0 8.7l.4.4c2.4 2.4 6.3 2.4 8.7 0l18.6-18.6c2.4-2.4 2.4-6.3 0-8.7l-.4-.4zm-19 27c-2 2-5.2 2-7.2 0l-.4-.4c-2-2-2-5.2 0-7.2l4.5-4.5 7.6 7.6-4.5 4.5zm5.2-5.3l-7.6-7.6 8.2-8.2 7.6 7.6-8.2 8.2zm13.4-13.4l-4.5 4.5-7.6-7.6 4.5-4.5c2-2 5.2-2 7.2 0l.4.4c2 2 2 5.2 0 7.2zM446.596 547.618l2.969 2.97.708-.707-2.97-2.97-.707.707zM440.704 541.74l2.97 2.969.707-.707-2.969-2.969-.708.707zM434.785 535.857l2.969 2.97.707-.707-2.969-2.97-.707.707zM452.458 553.496l2.97 2.97.707-.707-2.97-2.97-.707.707zM1368.3 685.4c.2.3.4.4.7.2l.1-.1c.1-.1.2-.4.2-.6-.6-1.3-1.3-2.6-2-3.8-.2-.2-.5-.2-.7-.1-.3.1-.3.4-.1.7.6 1.2 1.2 2.4 1.8 3.7zM477.666 549.612l.707.707 2.97-2.97-.707-.707-2.97 2.97zM459.1 558.7l-.7.7 1.5 1.5c.5.5 1.2.9 1.9 1.2l.4-1c-.7-.2-1.1-.5-1.5-1l-1.6-1.4zM429.601 454.201l.707.707 2.97-2.969-.707-.707-2.97 2.969zM466.9 560.3c-.4.4-.7.6-1.1.8l.5 1c.4-.3 1-.7 1.3-1l1.9-1.9-.7-.7-1.9 1.8zM471.752 555.5l.707.708 2.97-2.97-.707-.707-2.97 2.969zM411.852 471.877l.707.707 2.97-2.97-.707-.707-2.97 2.97zM411.22 512.34l2.97 2.97.707-.708-2.969-2.969-.708.707zM417.111 518.22l2.97 2.969.707-.707-2.97-2.969-.707.707zM405.927 477.764l.707.708 2.97-2.969-.707-.708-2.97 2.969zM417.802 465.915l.708.707 2.969-2.971-.707-.707-2.97 2.971zM428.95 529.984l2.97 2.97.707-.707-2.97-2.97-.707.707zM423.636 460.021l.707.707 2.97-2.969-.707-.707-2.97 2.969zM423.03 524.101l2.97 2.97.707-.707-2.97-2.97-.707.707zM406.2 919.9l-1 .4c.6 1.3 1.1 2.6 1.7 3.9l.9-.4c-.6-1.4-1.1-2.7-1.6-3.9zM379.5 913.1c-.1.7-.1 1.3-.2 2.1l1 .1c.1-.7.1-1.3.2-2s.1-1.5.2-2.1l-1.1-.2c.1.6 0 1.4-.1 2.1zM378.5 931.8h1c0-1.3.1-2.7.1-4.2h-1c-.1 1.5-.1 2.9-.1 4.2zM378.5 940.2h1c-.1-1.4-.1-2.7-.1-4.2h-1c.1 1.4 0 2.8.1 4.2zM378.7 923.5h1c.1-1.4.1-2.8.3-4.1l-1.1-.1c0 1.5-.1 2.8-.2 4.2zM386.3 985.2l-1 .3c.4 1.4.8 2.7 1.2 4l1-.3c-.4-1.4-.8-2.6-1.2-4zM405.1 916c-.4-1.4-.7-2.7-.9-4l-1 .1c.1 1.3.4 2.8.9 4.1l1-.2zM409.8 927.3l-1 .5c.7 1.3 1.4 2.4 2.1 3.6l.9-.6c-.7-1.1-1.4-2.4-2-3.5zM495.375 531.866l.707.707 2.97-2.97-.707-.707-2.97 2.97zM388.9 993.1l-1 .4c.5 1.3 1 2.6 1.5 3.8l1-.4c-.6-1.2-1-2.5-1.5-3.8zM402.6 903.9c-.1 1.3-.1 2.7 0 4.1h1c-.1-1.4-.1-2.7 0-4.1h-1zM381.3 969.1c.3 1.5.6 2.8.9 4.1l1-.2c-.3-1.3-.5-2.7-.8-4.1l-1.1.2zM360.7 339.6h-11.3v11.3h11.3v-11.3zM405.356 506.463l2.97 2.97.707-.707-2.97-2.97-.707.707zM385.2 981.2c-.3-1.3-.7-2.7-1-4l-1 .3c.4 1.3.7 2.6 1 4l1-.3zM378.7 944.2c0 1.5.1 2.9.1 4.3l1.1-.1c-.1-1.4-.1-2.8-.2-4.2h-1zM381.7 964.9c-.2-1.4-.4-2.7-.6-4.1l-1 .1c.2 1.4.4 2.8.6 4.1l1-.1zM380.7 956.7c-.2-1.3-.3-2.8-.4-4.1l-1 .1c.1 1.4.2 2.7.4 4.1l1-.1zM380.2 906.8l1 .1c.2-1.4.4-2.7.6-4.1l-1-.2c-.3 1.5-.4 2.8-.6 4.2zM483.528 543.719l.707.707 2.97-2.97-.707-.707-2.97 2.97zM1204.7 800.2c-.3 0-.4.3-.4.6.2 1.4.4 2.8.8 4.2.1.2.3.4.7.4.1-.1.2-.1.3-.1.1-.1.1-.3.1-.4-.4-1.5-.7-2.8-.9-4.1 0-.5-.3-.6-.6-.6zM1211.2 815.7c-.2-.2-.4-.3-.7-.1-.2.2-.3.4-.1.7.8 1.1 1.8 2.2 2.7 3.2.2.2.5.2.8.1.2-.2.2-.5 0-.7-1.1-1-1.9-2.1-2.7-3.2zM1207.2 808.5c-.1-.3-.4-.4-.7-.3-.3.1-.4.4-.3.7.5 1.3 1.1 2.6 1.8 3.8.1.3.4.3.7.2l.1-.1c.4-.2.4-.5.3-.7-.8-1.2-1.3-2.4-1.9-3.6zM1102.4 555.8h-11.3v11.3h11.3v-11.3zM335.8 963.5c.2-1.3.4-2.7.8-4.1l-1-.2c-.4 1.4-.7 2.8-.9 4.1l1.1.2zM1235.6 829.2c-1.5-.1-2.9-.2-4.2-.5-.3 0-.6.1-.6.4 0 .3.1.6.4.6 1.4.2 2.8.4 4.2.5.1 0 .3 0 .4-.1.1-.1.1-.1.1-.3.1-.3-.1-.6-.3-.6zM458.4 859.9c1.4.1 2.7.2 4.1.4l.1-1c-1.4-.2-2.8-.3-4.2-.4v1zM1243.5 828.7c-1.3.2-2.6.4-4.1.5-.3 0-.5.2-.5.5s.2.5.5.5c1.4-.1 2.8-.3 4.2-.5.1 0 .2-.1.3-.2.1-.1.1-.3.1-.4.1-.2-.2-.4-.5-.4zM1227.3 827.6c-1.3-.4-2.5-.9-3.7-1.5-.3-.1-.6 0-.7.2-.1.3 0 .6.2.7 1.3.7 2.6 1.1 3.9 1.5.2.1.4 0 .5-.1.1-.1.1-.1.1-.2.2-.2 0-.5-.3-.6zM340.5 947.6c.4-1.2.9-2.5 1.5-3.8l-.9-.4c-.6 1.3-1.1 2.6-1.6 3.8l1 .4zM357 909.4c.4-1.4.8-2.7 1.1-4.1l-1-.3c-.4 1.3-.7 2.7-1.1 4l1 .4zM354.2 917.4c.4-1.3.9-2.7 1.4-3.9l-1-.4c-.4 1.3-.9 2.6-1.4 3.9l1 .4zM337.6 955.4c.4-1.3.8-2.6 1.3-3.9l-1-.4c-.4 1.3-.9 2.6-1.3 4l1 .3z"/>
    <path d="M479.1 866.7c-35.3-35.3-92.8-35.3-128.1 0s-35.3 92.8 0 128.1c1.8 1.8 3.7 3.5 5.7 5.2h2.9c-2.5-2-4.9-4.2-7.3-6.5-7.2-7.2-13-15.5-17.2-24.2.1-.5 0-1 .1-1.5l-.8-.1c-8.2-18-10-38.3-5.6-57.3 17.4-6.9 35.4-10.7 53.5-11.5 6.9-.3 13.8-.2 20.7.4 0 .1 0 .3-.1.5l1 .1c0-.1.1-.4.1-.5 36.2 3.2 71.1 18.2 98.5 44-2.6 18.3-10.9 36.1-25 50.2-2.2 2.2-4.7 4.4-7.3 6.4h3.4c1.9-1.6 3.8-3.3 5.7-5.2 35.1-35.3 35.1-92.8-.2-128.1zm-74.6 30.5l.3-1.5-1-.3c-.1.6-.2 1.1-.4 1.5-6.9-.5-13.8-.7-20.7-.4.1-.7.3-1.3.4-2l-1-.1c-.1.7-.3 1.5-.4 2.2-7.4.4-15 1.2-22.5 2.6.1-.7.3-1.5.4-2.1l-1-.2c-.1.9-.3 1.6-.4 2.5-9.6 1.8-19.3 4.6-28.7 8.3 3.9-14.5 11.5-28.3 22.8-39.6.7-.7 1.4-1.4 2.2-2.1.5.8 1 1.7 1.4 2.6l.9-.4c-.5-1-1-1.9-1.5-2.9 13.9-12.7 31.1-20.2 48.8-22.4-.4.6-.8 1.1-1.3 1.7l.9.6c.7-.8 1.2-1.6 1.8-2.4 21.9-2.4 44.6 3.5 63 17.5-.6-.1-1.1-.2-1.6-.3l-.2 1c1.3.2 2.5.4 3.7.7 2.5 2.1 4.9 4.2 7.2 6.5 19.9 19.7 28.4 46.6 25.5 72.5-27.6-25.5-62.5-40.3-98.6-43.5z"/>
    <path d="M351.1 925.1c.6-1.3 1.1-2.6 1.6-3.8l-1-.4c-.5 1.3-1 2.5-1.6 3.8l1 .4zM1251.4 826.3c-1.3.5-2.5 1-3.8 1.5-.2.1-.4.4-.4.7.1.2.4.4.7.4 1.3-.4 2.6-.9 4-1.5l.1-.1c.1-.1.2-.4.1-.6-.1-.4-.5-.5-.7-.4zM347.6 932.7c.7-1.3 1.2-2.5 1.8-3.8l-.9-.4c-.5 1.3-1.2 2.5-1.8 3.8l.9.4zM342.9 939.7l1 .5c.4-.8.7-1.5 1.1-2.1.2-.5.6-1 .8-1.5l-1-.5c-.2.5-.6 1-.8 1.5-.4.7-.7 1.4-1.1 2.1zM1216.7 821.7c-.2-.2-.6-.1-.7 0-.2.2-.1.6 0 .7 1 .9 2.2 1.8 3.4 2.5.2.1.5.1.7-.1l.1-.1c.2-.3.1-.5-.1-.7-1.2-.6-2.3-1.5-3.4-2.3zM1356.8 733.7c-1 .9-2.1 1.7-3.3 2.4-.3.2-.3.4-.1.7.1.3.4.3.7.1 1.2-.7 2.4-1.6 3.4-2.5l.1-.1c.2-.2.2-.5.1-.7-.3 0-.7-.1-.9.1zM1342.2 741.2c-1.3.4-2.7.7-4 .9-.3 0-.4.3-.4.6s.3.4.6.4c1.4-.2 2.7-.5 4.1-.9.1-.1.2-.1.2-.1.1-.1.1-.3.1-.5.1-.3-.2-.4-.6-.4zM1350 738.2c-1.2.6-2.5 1.2-3.8 1.7-.3.1-.4.4-.3.7.1.3.4.4.7.3 1.3-.5 2.6-1.1 3.8-1.8l.1-.1c.1-.1.2-.4.1-.6-.1-.3-.4-.3-.6-.2zM1310.5 683.6c-2.9 2.9-2.9 7.7 0 10.6 2.9 2.9 7.7 2.9 10.6 0 2.9-2.9 2.9-7.7 0-10.6-3-3-7.7-3-10.6 0zm9.1 9.1c-2.1 2.1-5.5 2.1-7.7 0-2.1-2.1-2.1-5.5 0-7.7 2.1-2.1 5.5-2.1 7.7 0 2.2 2.2 2.2 5.6 0 7.7z"/>
    <path d="M1316.1 677.7h-.3c-5.8.1-10.5 4.8-10.5 10.5v31.4c.1 5.8 4.8 10.5 10.5 10.5h.3c2.9-.1 5.5-1.3 7.4-3.2 1.9-1.8 3.1-4.4 3.2-7.3v-31.4c0-2.8-1-5.4-3-7.4-2-1.9-4.7-3.1-7.6-3.1zm9.5 41.9c0 5.3-4.2 9.5-9.5 9.5h-.3c-5.2 0-9.4-4.3-9.5-9.5l.1-31.3c0-2.7 1.1-4.9 2.8-6.6 1.7-1.7 4.1-2.8 6.7-2.9h.3c2.7 0 5 1 6.8 2.8 1.8 1.8 2.7 4.2 2.7 6.6v31.4h-.1zM1371.5 697.2c.1 1.3.2 2.7.3 4.1 0 .3.2.5.5.5.1 0 .2-.1.3-.1.1-.1.1-.3.1-.4-.1-1.4-.2-2.8-.4-4.2 0-.3-.3-.4-.6-.4.1 0-.2.2-.2.5zM1370.9 713.1c-.4-.1-.6.1-.7.4-.4 1.3-.8 2.6-1.3 3.8-.2.3 0 .6.3.7.2.1.4 0 .6-.1l.1-.1c.5-1.3 1-2.6 1.3-4 .2-.2 0-.5-.3-.7zM1371.5 693.4c.1 0 .2-.1.3-.1.1-.1.1-.3.1-.4-.3-1.3-.7-2.7-1.1-4.1-.2-.2-.5-.4-.7-.3-.2.1-.4.4-.4.7.4 1.3.8 2.6 1.1 3.9.1.2.3.4.7.3zM1372.3 704.9c-.3 0-.6.3-.6.6-.2 1.3-.2 2.7-.5 4.1 0 .3.2.6.4.6.1 0 .4-.1.4-.1.1-.1.1-.1.1-.3.2-1.4.4-2.8.5-4.2.1-.4-.1-.7-.3-.7zM1270.3 789.3c.1 0 .2-.1.3-.2.1-.1.1-.3.1-.4-.3-1.3-.7-2.8-1.3-4 0-.3-.3-.4-.7-.4-.3.1-.4.4-.4.7.5 1.3.9 2.7 1.2 4 .2.2.4.4.8.3zM110.7 574.3c.3 0 .5-.1.6-.1.1-.1.1-.1.1-.2l.6-2.1c.1-.2-.1-.5-.4-.7-.2-.1-.5.1-.7.4l-.6 2.1c-.1.1.1.4.4.6zM1270.9 800.8c-.3 0-.5.1-.6.3-.1 1.3-.5 2.7-.8 4-.1.2.1.5.4.7.2.1.4 0 .5-.1.1-.1.1-.1.1-.2.4-1.4.7-2.7.9-4.1-.1-.3-.2-.6-.5-.6zM1271.5 793c0-.3-.3-.4-.6-.4-.3-.1-.4.1-.4.4.1 1.3.2 2.7.1 4.1 0 .3.2.5.5.5.1 0 .3 0 .4-.1.1-.1.2-.2.1-.3.2-1.4.1-2.8-.1-4.2zM1268.8 808.8c-.3-.1-.6 0-.7.2-.5 1.3-1.2 2.5-1.8 3.7-.2.3-.1.5.1.7.2.1.5.1.7-.1l.1-.1c.7-1.3 1.3-2.5 1.8-3.8.2-.2.1-.5-.2-.6z"/>
    <path d="M1310.4 713.8c-2.9 2.9-2.9 7.7 0 10.6 2.9 2.9 7.7 2.9 10.6 0 2.9-2.9 2.9-7.7 0-10.6-2.9-2.9-7.6-2.9-10.6 0zm9.1 9.2c-2.1 2.1-5.5 2.1-7.7 0-2.1-2.1-2.1-5.5 0-7.7 2.1-2.1 5.5-2.1 7.7 0 2.2 2.2 2.2 5.5 0 7.7zM1307.1 734.7c-.2-.2-.6-.1-.7.1-.2.2-.2.6.1.7 1.1.8 2.4 1.6 3.5 2.4.2.1.5.1.7-.1l.1-.1c.1-.3.1-.5-.1-.7-1.3-.8-2.5-1.5-3.6-2.3zM1326 742.3c-1.3-.2-2.7-.4-4-.7-.2-.1-.6.1-.7.4-.1.2.1.6.4.7 1.3.3 2.8.6 4.1.7.1 0 .3 0 .4-.1.1-.1.1-.1.1-.3.1-.4-.1-.7-.3-.7zM1318 740.4c-1.3-.4-2.6-1-3.8-1.5-.3-.2-.6 0-.7.2-.1.2 0 .6.2.7 1.3.6 2.6 1.1 3.9 1.5.2.1.4 0 .6-.1l.1-.1c.1-.2.1-.6-.3-.7zM1258.3 822c-1 .9-2.2 1.6-3.4 2.4-.3.1-.3.4-.1.7.1.3.4.3.7.1 1.2-.7 2.4-1.6 3.5-2.4l.1-.1c.2-.2.2-.5.1-.7-.3-.1-.6-.1-.9 0zM68.4 623.9l2.1-.6c.1-.1.2-.1.2-.1.1-.1.1-.3.1-.5-.1-.4-.4-.5-.6-.4l-2.1.6c-.2.1-.4.4-.4.7.1.2.4.3.7.3zM450.2 859.9c1.4-.1 2.7-.1 4.1-.2v-1c-1.5 0-2.8 0-4.2.1l.1 1.1zM62.3 625.7l2.1-.6c.1-.1.2-.1.2-.1.1-.1.2-.3.1-.5 0-.3-.3-.4-.6-.4l-2.1.6c-.2.1-.4.4-.4.7.1.2.4.3.7.3zM80.3 619.5c.6-.4 1.2-.9 1.7-1.4.2-.2.2-.5 0-.7-.2-.2-.5-.2-.7 0-.4.4-1 .9-1.5 1.3-.2.2-.3.4-.1.7-.1.2.3.2.6.1zM33.3 712.4c15.5 15.5 40.5 15.5 56 0s15.5-40.5 0-56-40.5-15.5-56 0c-15.4 15.5-15.4 40.6 0 56zm1.5-54.5c14.7-14.7 38.4-14.7 53 0 14.7 14.7 14.7 38.4 0 53-14.7 14.7-38.4 14.7-53 0-14.6-14.7-14.7-38.3 0-53zM56.5 627.4l2.1-.6c.1-.1.2-.1.2-.1.1-.1.1-.3.1-.5-.1-.2-.4-.4-.7-.4l-2.1.6c-.2.1-.4.4-.4.7.2.3.5.5.8.3z"/>
    <path d="M38.1 707.6c12.8 12.8 33.6 12.8 46.4 0 12.8-12.8 12.8-33.6 0-46.4-12.8-12.8-33.6-12.8-46.4 0-12.8 12.8-12.8 33.6 0 46.4zm.8-45.6c12.4-12.4 32.5-12.4 44.9 0 12.4 12.4 12.4 32.6 0 44.9-12.4 12.4-32.5 12.4-44.9 0-12.4-12.4-12.4-32.5 0-44.9z"/>
    <path d="M70.4 693.6c5-5 5-13.3 0-18.3s-13.3-5-18.3 0-5 13.3 0 18.3c5.1 5 13.3 5 18.3 0zm-16.7-16.8c4.2-4.2 11.1-4.2 15.3 0 4.2 4.2 4.2 11.1 0 15.3-4.2 4.2-11.1 4.2-15.3 0-4.2-4.2-4.2-11.1 0-15.3zM85 615.2l1.5-1.5c.2-.2.2-.5 0-.7-.2-.2-.5-.2-.7 0l-1.5 1.5c-.2.2-.2.5 0 .7.1.2.4.2.7 0zM50.4 629.2l2.1-.6c.1-.1.2-.1.2-.1.1-.1.1-.3.1-.5-.1-.2-.4-.4-.7-.4l-2.1.6c-.2.1-.4.4-.4.7.2.3.5.5.8.3zM107.2 586.3c.2.1.4 0 .5-.1.1-.1.1-.1.1-.2l.6-2.1c.1-.2-.1-.5-.4-.7-.2-.1-.5.1-.6.3l-.6 2.1c-.1.2.1.5.4.7zM105.4 592.2c.2.1.4 0 .6-.1l.1-.1c.1-.3.3-.7.4-1.1l.3-.9c.1-.2-.1-.5-.4-.7-.4-.1-.7.1-.7.3l-.3.9c-.1.4-.2.7-.3 1-.2.3 0 .6.3.7zM109 580.3c.2.1.4 0 .5-.1.1-.1.1-.1.1-.2l.6-2.1c.1-.2-.1-.5-.4-.7-.3-.1-.6 0-.6.3l-.6 2.1c0 .3.1.6.4.7zM102.6 597.5c.5-.5 1-1.1 1.4-1.7.2-.2.1-.6-.1-.7-.2-.2-.6-.1-.7.1-.4.5-.8 1.1-1.3 1.5-.2.2-.1.6 0 .7.2.3.6.2.7.1zM93.8 606.3l1.5-1.5c.2-.2.2-.5 0-.7-.2-.2-.5-.2-.7 0l-1.5 1.5c-.2.2-.2.5 0 .7.2.2.5.2.7 0zM98.2 601.9l1.5-1.5c.2-.2.2-.5 0-.7-.2-.2-.5-.2-.7 0l-1.5 1.5c-.2.2-.2.5 0 .7.2.2.5.2.7 0zM89.4 610.7l1.5-1.5c.2-.2.2-.5 0-.7-.2-.2-.5-.2-.7 0l-1.5 1.5c-.2.2-.2.5 0 .7.2.3.4.3.7 0zM92.5 640.2l14.7 5.4c2.3.8 4.9.2 6.6-1.4l14.6-14.6c1.7-1.7 2.3-4.3 1.4-6.6l-5.4-14.7c-.7-2-2.4-3.5-4.4-4-2.1-.4-4.3.1-5.8 1.7l-24 24c-1.5 1.5-2.2 3.7-1.7 5.8.4 2 2 3.7 4 4.4zm-.8-8.8l23.9-23.9c1-1 2.4-1.4 3.9-1.1 1.4.4 2.4 1.3 2.9 2.7l5.4 14.7c.6 1.5.2 3.2-1 4.3l-14.6 14.6c-1.1 1.1-2.9 1.5-4.3 1l-14.7-5.4c-1.3-.4-2.4-1.6-2.7-2.9-.3-1.5.1-2.9 1.2-4zM74.4 622.1l.9-.3c.4-.1.7-.2 1.1-.4l.1-.1c.1-.1.2-.4.1-.6-.1-.3-.4-.4-.7-.4-.3.1-.7.2-1 .3l-1 .2c-.2.1-.4.4-.4.7.4.6.7.7.9.6z"/>
    <path d="M24.8 721c19.8 19.8 51.9 19.8 71.7 0l108.6-108.6c19.7-19.7 19.7-51.8 0-71.7-19.8-19.8-51.9-19.8-71.7 0l-2.1 2.1-19.8-3.9c-14.2-2.7-28.9 1.8-39.1 12l-36.9 36.9c-10.2 10.2-14.7 24.9-12 39.1l3.9 19.8-2.6 2.6c-19.79999 19.8-19.79999 51.9 0 71.7zm-.3-94.3c-2.7-13.9 1.7-28.2 11.7-38.2l36.9-36.9c10-10 24.3-14.4 38.2-11.7l19.1 3.8-9.4 9.3-11.9-2.4c-10.4-2-20.9 1.3-28.3 8.7l-36.9 36.9c-7.5 7.5-10.7 18.1-8.7 28.3l2.4 11.9-9.4 9.4-3.7-19.1zm94.9-72.1l-80 80-2-10.5c-1.9-9.6 1.1-19.5 8.1-26.5l36.9-36.9c6.9-6.9 16.9-9.9 26.5-8.1l10.5 2zm15.5-12.5c19-19 49.8-19 68.8 0 18.9 19 18.9 49.9 0 68.8L95 719.5c-19 19-49.8 19-68.8 0-18.99999-19-18.99999-49.8 0-68.8l108.7-108.6zM405.1 891.4l1 .4c.5-1.3 1-2.5 1.6-3.8l-.9-.4c-.6 1.2-1.2 2.5-1.7 3.8zM398.1 851.6l.9.6c.7-1.2 1.5-2.4 2.2-3.5l-.9-.6c-.7 1.1-1.5 2.2-2.2 3.5zM413.5 876.9l.8.7c.9-1 1.8-2.1 2.8-3.1l-.7-.7c-1 .9-2.1 2-2.9 3.1zM426.1 865.9l.6.9c1.2-.7 2.4-1.3 3.6-2l-.4-.9c-1.3.7-2.5 1.3-3.8 2zM441.7 859.9l.3 1c1.3-.3 2.7-.5 4.1-.7l-.1-1c-1.5.3-2.9.5-4.3.7zM419.3 870.7l.7.8c1-.9 2.1-1.8 3.2-2.5l-.6-.9c-1.1.9-2.2 1.8-3.3 2.6zM433.7 862.3l.4 1c1.3-.5 2.6-1 3.9-1.3l-.3-1c-1.4.3-2.7.8-4 1.3zM394.1 858.9l1 .5c.7-1.2 1.3-2.4 1.9-3.7l-1-.5c-.7 1.3-1.3 2.5-1.9 3.7zM408.7 883.8l1 .5c.7-1.2 1.5-2.4 2.2-3.5l-.9-.6c-.9 1.2-1.6 2.4-2.3 3.6zM390.6 866.5l1 .4c.5-1.3 1.1-2.6 1.7-3.8l-1-.4c-.6 1.2-1.2 2.4-1.7 3.8zM359.2 892.9l1 .2c.1-1.5.3-2.8.4-4.2h-1c-.1 1.2-.3 2.5-.4 4zM359.2 880.5c.2 1.3.3 2.6.4 4.1h1c-.1-1.4-.1-2.8-.4-4.2l-1 .1zM0 940.7c6.9 3.5 13.5 8.1 19.2 13.9 3.4 3.4 6.3 7.1 9.1 11l-8.3 8.3c-2.7-4.1-5.6-8-8.8-11.2-3.4-3.4-7.2-6.4-11.1-8.9v2.5c3.4 2.2 6.7 4.9 9.7 7.9 3.2 3.2 6.2 7.1 8.8 11.2L0 993.9v2.9l19.9-19.9v.7c0 .3.2.5.5.5.2 0 .2-.1.4-.2.1-.1.2-.2.2-.4v-1.8l9.6-9.6c.7-.7 1.6-1.5 2.5-1.9v35.7H35v-37c3.8-1.5 8.1-1.5 11.9.4l70.9 35.7c.5.3.9.5 1.4.8h3.5c-1.2-.9-2.5-1.7-3.9-2.4l-70.9-35.7c-6-3-13.1-2.1-18.1 2.4-2.7-4-5.7-7.7-9.1-11-6.2-6.1-13.2-11-20.7-14.7v2.3zM358.4 872.1l-1 .4c.5 1.3.8 2.6 1.1 3.9l1-.2c-.3-1.4-.6-2.7-1.1-4.1zM387.6 874.2l1 .4c.4-1.3 1-2.6 1.4-3.9l-1-.4c-.5 1.3-1 2.6-1.4 3.9zM383 890.4l1 .2c.3-1.3.7-2.7 1-4.1l-1-.2c-.4 1.3-.7 2.6-1 4.1zM385.1 882.3l1 .3c.4-1.4.7-2.7 1.2-4l-1.1-.4c-.4 1.3-.7 2.7-1.1 4.1z"/>
  </g>
  <defs>
    <clipPath id="clip0">
      <path fill="#fff" d="M0 0h1920v1000H0z"/>
    </clipPath>
  </defs>
</svg>