<svg width="1920" height="1000" fill="none" xmlns="http://www.w3.org/2000/svg">
  <g clip-path="url(#clip0)" fill="#000">
    <path d="M1338.3 933.8l2.9 2.9c.2.2.5.2.7 0 .2-.2.2-.5 0-.7l-2.9-2.9c-.2-.2-.5-.2-.7 0-.2.2-.2.5 0 .7zm-.9-40.3c.2.2.5.2.7 0 .2-.2.2-.5 0-.7l-2.9-2.9c-.2-.2-.5-.2-.7 0-.2.2-.2.5 0 .7l2.9 2.9zm5.9 5.9c.2.2.5.2.7 0 .2-.2.2-.5 0-.7l-2.9-2.9c-.2-.2-.5-.2-.7 0-.2.2-.2.5 0 .7l2.9 2.9zm-7.9 31.5c.2.2.5.2.7 0 .2-.2.2-.5 0-.7l-2.9-2.9c-.2-.2-.5-.2-.7 0-.2.2-.2.5 0 .7l2.9 2.9zm60.4-459.5c.2.2.4.3.7.1l.1-.1c.1-.1.1-.4.1-.7-.7-1.2-1.5-2.3-2.5-3.4-.2-.2-.5-.2-.8-.1-.1.1-.2.5 0 .7.8 1.2 1.6 2.3 2.4 3.5zM354.4 64.5l-2.4 2.4c-.1.1-.3.3-.5.4-.3.1-.3.4-.2.7.1.3.4.3.7.2.3-.1.6-.3.8-.5l2.4-2.4c.2-.2.2-.5 0-.7-.3-.4-.6-.4-.8-.1zm512.7 916.9c-17.3-9.7-22.8-20.8-26.4-28.4-.9-1.9-1.8-3.5-2.5-4.9-.2-.5-6.5-13.4-19.1-22.7l-.4-.3c-.5-.4-1-.7-1.5-1-5.2-4-5.6-6.8-6-9.4-.3-1.8-.6-3.7-2.2-5.7-1.9-2.5-3.8-3.8-5.1-4.6l.2-.4-1.4-.2c-.2-.1-.3-.1-.3-.1l-.1.1c-12-1.4-23.9 11.9-24.4 12.5l-1.5 1.7h.3c-1.2 1.8-2.1 4.1-3 6.4-1.3 3.4-2.7 7-5 9.3-2.4 2.4-6.1 3.9-9.7 5.3-2.2.9-4.3 1.8-6 2.7v-.1l-1.7 1.3c-.7.5-16.6 12.9-12.9 24.7l-.1.1s.1.4.4 1l.1.2c.7 1.3 2 3.3 4.8 5.5 2 1.5 3.5 1.8 4.8 2.3 2 .5 4 1 8.2 6.5 3.7 5.5 7.4 10.8 16.7 17.1h4.1c-11.5-7.3-15.3-13.1-19.3-19.2-.4-.7-1-1.4-1.4-2.1-3.5-5.2-7.1-9.1-9.4-11.3 2.9.6 6.3 1.9 9.9 3.3 1.5.6 2.9 1.2 4.5 1.7 7.1 2.6 16.3.9 21.9-3.9l.9-.9c2.7-2.7 5.3-7.2 4.3-14.1 7.5 1 12.2-2.2 14.9-5.3 4.9-5.6 6.5-14.7 4-21.8-.6-1.6-1.2-3.1-1.7-4.6-1-2.7-2-5.2-2.6-7.6 4.6 5.3 8.8 8.7 12.7 11.6l.3.3c.4.3.8.7 1.2.9l.4.3c12.2 9.1 18.4 21.8 18.5 22 .8 1.4 1.6 2.9 2.4 4.8 2.5 5.3 6 12.4 13.7 19.6-2.4 3.1-10 12.5-21.4 23.9-.9.9-1.7 1.7-2.6 2.5h1.6c.6-.6 1.2-1.1 1.7-1.7 11.3-11.3 18.9-20.8 21.4-23.9 1.9 1.8 4.2 3.6 6.9 5.5l-6.8 14.7c-1.1 1.9-2.2 3.8-3.4 5.6h2l3-4.8 6.8-14.4c1.3.8 2.6 1.5 4 2.4 8.2 4.6 18.3 9.8 29 15.3 1 .5 2 1 3.1 1.6h4.8c-2.2-1.1-4.4-2.2-6.5-3.3-10.9-6.3-20.9-11.3-29.1-16zm-107.8-41.5c3.5-1.4 7.4-3 10-5.6 2.5-2.5 3.9-6.1 5.3-9.6 1-2.6 2-5.1 3.3-6.8h.7c.9 0 1.8.2 2.7.5-1.6 2.1-2.7 4.9-4 8-1.5 3.8-3 7.7-5.7 10.4s-6.8 4.3-10.8 5.9c-2.9 1.1-5.5 2.3-7.4 3.6-.2-.8-.4-1.8-.4-2.7l-.1-.7c1.7-1.1 3.9-2.1 6.4-3zm23.2-21c2.8 1.3 5.4 4.1 6.8 7.4 2.7 6.7.3 14.4-6.5 21.2-6.8 6.8-14.6 9.1-21.2 6.5-3.5-1.3-6.2-3.8-7.5-6.6 1.8-1.4 4.6-2.5 7.4-3.6 4.1-1.6 8.3-3.3 11.1-6.1 2.8-2.8 4.3-6.9 5.9-10.8 1.2-3.1 2.3-5.9 4-8zm-31.1 56.3c-.8-.4-1.5-.5-2.2-.7-1.4-.4-2.5-.7-4.1-1.9-2.5-1.9-3.7-3.8-4.2-4.8 1-.4 1.9-.6 2.9-.6.6.4 3.8 3.3 7.6 8zm52.3-52.7c.6 1.5 1.1 3 1.7 4.6 2.3 6.3.7 14.7-3.5 19.7-2.4 2.9-6.9 5.9-14.4 4.3l-1.5-.4.4 1.5c1.5 7.4-1.5 11.9-4.3 14.4-4.9 4.3-13.5 5.8-19.8 3.6-1.5-.6-2.9-1.2-4.3-1.7-6.8-2.7-12.7-5-17.7-3.1-1.4-8.2 7.4-16.9 11-20 1 4.3 4.6 8.4 9.4 10.4 7.5 3.1 16.1.5 23.6-6.9s10-16.1 6.9-23.6c-2-4.8-6-8.3-10.2-9.4 3.2-3.2 11.8-10.8 20-10.5-1.8 5 .3 10.7 2.7 17.1zm-1.3-12.4c0-1.5.1-2.7.5-3.9 1 .6 2.7 1.8 4.3 3.9 1.3 1.7 1.5 3.1 1.8 4.9.1 1 .4 2 .7 3.1-2.3-2.2-4.7-4.8-7.3-8zm564.5 12.8c.2.2.5.2.7 0 .2-.2.2-.5 0-.7l-2.9-2.9c-.2-.2-.5-.2-.7 0-.2.2-.2.5 0 .7l2.9 2.9zM399.3 21l2.9-2.9c.2-.2.2-.5 0-.7-.2-.2-.5-.2-.7 0l-2.9 2.9c-.2.2-.2.5 0 .7.2.2.5.2.7 0zm955.8 890.1c.2.2.5.2.7 0 .2-.2.2-.5 0-.7l-2.9-2.9c-.2-.2-.5-.2-.7 0-.2.2-.2.5 0 .7l2.9 2.9zm-10.9 28.6l2.9 2.9c.2.2.5.2.7 0 .2-.2.2-.5 0-.7l-2.9-2.9c-.2-.2-.5-.2-.7 0-.2.2-.2.5 0 .7zm5-34.4c.2.2.5.2.7 0 .2-.2.2-.5 0-.7l-2.9-2.9c-.2-.2-.5-.2-.7 0-.2.2-.2.5 0 .7l2.9 2.9zM393.4 26.8999l2.9-2.9c.2-.2.2-.5 0-.7-.2-.2-.5-.2-.7 0l-2.9 2.9c-.2.2-.2.5 0 .7.2.2.5.2.7 0zM1447.2 550.5c-.7-.4-1.4-.5-2.3-.7-.3 0-.6.1-.6.4 0 .3.1.6.4.6.7.1 1.3.3 1.9.6.2.1.4 0 .6-.2l.1-.1c.3-.2.2-.4-.1-.6zm-4.3-.9c-.7 0-1.5.1-2.2.3-.2.1-.4.4-.4.7.1.2.4.4.7.4.7-.1 1.3-.2 2-.2.1.1.2-.1.3-.1.1-.1.1-.3.1-.4 0-.5-.2-.7-.5-.7zm-119.3 369.5c.2.2.5.2.7 0 .2-.2.2-.5 0-.7l-2.9-2.9c-.2-.2-.5-.2-.7 0-.2.2-.2.5 0 .7l2.9 2.9zm115-368.4c-.6.3-1.3.7-1.8 1.1-.3.1-.4.5-.1.7.1.3.5.4.7.2.4-.4 1-.7 1.6-1l.1-.1c.1-.1.2-.4.1-.6 0-.4-.3-.5-.6-.3zm-133.8-81.1l-1-.8c-.2-.1-.5-.1-.7.1-.1.2-.1.5.2.7l.8.7c3.7 2.8 11.3 8.8 22.6 18.2.2.2.5.2.7 0 .2-.2.2-.5 0-.7-11.2-9.4-18.9-15.3-22.6-18.2zM387.3 52.1998c2.6 2.6 6.9 2.6 9.4 0l13.8-13.8c2.6-2.6 2.6-6.8 0-9.4-2.6-2.6-6.9-2.6-9.4 0l-13.8 13.8c-2.6 2.5-2.6 6.8 0 9.4zm.7-8.7l13.8-13.8c2.2-2.2 5.7-2.2 8 0 2.1 2.1 2.1 5.8 0 8l-13.8 13.7c-2.2 2.2-5.7 2.2-8 0-2.2-2.2-2.2-5.7 0-7.9zM1435.1 553.3c-.4.6-.9 1.2-1.3 1.8-.1.2-.1.5.2.7.3.1.5.1.7-.1l.1-.1c.3-.6.7-1.2 1.1-1.7.2-.2.2-.5 0-.7-.2-.2-.5-.2-.8.1zM995.6 189.8c-.4.7-.7 1.5-1.1 2.1l1 .5c.4-.8.7-1.5 1.1-2.1.2-.5.6-1 .8-1.5l-1-.5c-.3.4-.6.9-.8 1.5zm322.1 723.4c.2.2.5.2.7 0 .2-.2.2-.5 0-.7l-2.9-2.9c-.2-.2-.5-.2-.7 0-.2.2-.2.5 0 .7l2.9 2.9z"/>
    <path d="M1291.7 927.7l46.8 46.8 60.8-60.8-46.8-46.8c-2.1-2.1-5.7-2.1-7.8 0l-5.9 5.9-15.1-15.1c-1.9-1.9-5.2-1.9-7.1 0l-1.2 1.2-10.6-10.6c-1.9-1.9-5.2-1.9-7.1 0l-1.2 1.2-58.2-58.2c-1.3-1.3-3.2-1.7-4.9-1-1.7.7-2.8 2.4-2.8 4.3v31.8c-.1 1.1.4 2.4 1.3 3.3l42.2 42.2-1.1 1.1c-1.9 1.9-1.9 5.2 0 7.1l10.6 10.6-1.2 1.2c-1.9 1.9-1.9 5.2 0 7.1l15.1 15.1-6 6c-1.9 1.9-1.9 5.5.2 7.6zm-58.2-99.6c-.4-.4-.7-1.1-.7-1.7v-32c0-1.2.8-2 1.5-2.3 1-.4 1.9-.1 2.6.5l58.2 58.2-19.4 19.4-42.2-42.1zm40.4 51.2c-1.5-1.5-1.5-4.1 0-5.6l24.7-24.7c1.5-1.5 4.1-1.5 5.6 0l10.6 10.6-30.3 30.3-10.6-10.6zm9.4 18.8c-1.5-1.5-1.5-4.1 0-5.6l34.1-34.1c1.5-1.5 4.1-1.5 5.6 0l15.1 15.1-39.7 39.7-15.1-15.1zm9.9 23.3l16.3-16.3 2.3 2.3c.2.2.5.2.7 0 .2-.2.2-.5 0-.7l-2.3-2.3 19-19 2.3 2.3c.2.2.5.2.7 0 .2-.2.2-.5 0-.7l-2.3-2.3 16.2-16.2c1.3-1.3 3.5-1.3 4.9 0l45.4 45.4-57.9 57.9-45.4-45.4c-1.2-1.5-1.2-3.7.1-5zM387.5 32.7998l2.9-2.9c.2-.2.2-.5 0-.7-.2-.2-.5-.2-.7 0l-2.9 2.9c-.2.2-.2.5 0 .7.2.2.5.2.7 0zM1433.3 559.7c.1 0 .4-.1.4-.1.1-.1.1-.1.1-.3 0-.6.1-1.3.3-1.9 0-.3-.1-.6-.4-.7-.3 0-.6.2-.7.4-.2.7-.4 1.4-.4 2.1.1.3.4.5.7.5zm.6 1.6c0-.3-.3-.4-.6-.4s-.4.3-.4.6c.1.8.3 1.5.5 2.1.1.4.4.5.7.4l.1-.1c.1-.1.2-.4.1-.6-.2-.6-.4-1.3-.4-2z"/>
    <path d="M1329.5 925c.2.2.5.2.7 0 .2-.2.2-.5 0-.7l-2.9-2.9c-.2-.2-.5-.2-.7 0-.2.2-.2.5 0 .7l2.9 2.9zm68.8-871.7999c.1-.1.1-.1.1-.3.3-1.3.7-2.7 1-4.1.1-.4-.1-.6-.4-.7-.3 0-.6.1-.7.5-.3 1.3-.7 2.7-1 4.1 0 .3.1.6.4.6.3.1.5.1.6-.1zm41.7-20.9003c.2-.2.2-.5 0-.7l-2.9-2.9c-.2-.2-.5-.2-.7 0-.2.2-.2.5 0 .7l2.9 2.9c.2.2.5.2.7 0zM1430.3 134.1c.2.1.5.1.7-.1.1-.3.1-.6-.1-.7-1.1-.8-2.2-1.6-3.2-2.5-.2-.2-.5-.2-.7 0-.2.2-.2.5 0 .7 1 .9 2.1 1.7 3.3 2.6zM383.8 35.0001l-2.9 2.9c-.2.2-.2.5 0 .7.2.2.5.2.7 0l2.9-2.9c.2-.2.2-.5 0-.7-.2-.2-.4-.2-.7 0zm1011.8 30.2001c-.1 1.4-.1 2.9-.1 4.2 0 .3.2.5.5.5.2 0 .3-.1.4-.2.1-.1.2-.2.2-.4 0-1.3.1-2.7.2-4.1 0-.3-.2-.5-.7-.5-.3 0-.5.2-.5.5zm1.5-4.0002c.2-1.4.4-2.7.6-4.1 0-.3-.1-.6-.4-.6-.3 0-.6.1-.6.4-.2 1.4-.4 2.8-.6 4.1 0 .3.1.6.4.6.1 0 .4-.1.4-.1.2-.1.2-.2.2-.3zm33.7 33.7998c.1-.1.2-.4.1-.6-.1-.3-.5-.4-.7-.2l-3.8 1.8c-.2.1-.4.4-.2.7.1.2.4.4.7.2l3.8-1.8c0-.1 0-.1.1-.1z"/>
    <path d="M1411.6 130.8c16.4 16.4 37.3 25.1 58.8 26.3.7.2 1 .3 1 .3.4.1.6 0 .8-.2 14.1.5 28.3-2.2 41.4-8.2.2 0 .4-.1.5-.2l.1-.1c9.2-4.3 17.8-10.3 25.3-17.8 8-8 14.1-17.1 18.5-26.7l.1-.1c5.9-13.0999 8.5-27.3999 7.9-41.4999.1-.1.1-.2 0-.3.1-.1.2-.4 0-1-1.3-21.3-10-42.3-26.3-58.5-.9-.9-1.8-1.7-2.7-2.500002h-3.7c3.9 5.100002 4.6 11.200002 4.8 14.000002-11.5-4.9-25-5.6-27.8-5.7-2.1-2.5-4.8-5.4-7.6-8.200002h-3.3c3.4 3.400002 6.8 7.000002 9.2 10.000002l.1.1-1 2.4c-.1.3 0 .6.2.7.2.1.4 0 .6-.1l.1-.1 1.3-2.6c2.1.1 17.2.8 28.7 6.2.3.1.7.1 1-.1l.2-.2c.1-.1.3-.4.4-.7 0-.3.4-5.8-2.2-11.8l.2.2c14.4 14.4 22.8 32.5 25.1 51.2-1.3-1.7-3-3.5-5.5-5.2-.1-.1-.1-.1-.2-.1-.2-.7-.5-1.8-1-3.2-.1-.2-.4-.4-.7-.4-.2.1-.4.4-.4.7.4 1.3.8 2.4 1 3.2-.1.1-.3.3-.4.5-.1.2-4.8 19.7-12.3 27.8l-3.3-.5c-.3 0-.6.1-.6.4 0 .3.1.6.4.6l2.9.4v.3c.1.2 4.5 17.8 2.2 30.4999-.1.2 0 .4.1.7-.7 1-1.4 2-2.1 2.9-.2.2-.1.6.1.7.2.2.4.1.7-.1l.1-.1c.7-.9 1.5-1.9 2.1-2.9.1 0 .3 0 .4-.1.2-.1 3.5-1 7-3.3-4.1 7.6-9.2 14.8-15.6 21.2-6.2 6.2-13 11.3-20.3 15.2 2.2-3.5 3.1-7.1 3.2-7.3.1-.1 0-.2 0-.3.6-.4 1.5-1 2.6-1.8l.1-.1c.1-.1.2-.5.1-.7-.2-.2-.5-.2-.7-.1-1.1.8-2 1.4-2.6 1.8-.2-.1-.4-.1-.7-.1-12.4 2.3-29.5-1.9-30.4-2.1l-.5-3.3c0-.3-.3-.4-.6-.4s-.4.3-.4.6l.5 3.3c-8 7.7-27.8 12.5-28.1 12.5-.2.1-.3.1-.4.3-.7-.2-1.7-.5-3.2-1-.2-.1-.5.1-.7.4-.1.2.1.5.4.7 1.3.4 2.5.7 3.2 1 0 .2.1.2.1.3 2 3 4.2 5.1 6 6.5-19.3-2.1-38-10.6-52.7-25.3l-.9-.9c6.5 2.8 13 2.1 13.3 2.1.2-.1.4-.1.6-.3l.2-.2c.1-.3.2-.7.1-1-5.6-12.2-6.1-28.2-6.1-28.9l2.8-1.2999.1-.1c.1-.1.2-.4.1-.6-.1-.3-.4-.4-.7-.2l-2.6.7c-8.5-6.7-21.9-21.9-22.1-22.1-.1-.1-.4-.2-.6-.3-.1-.7-.3-1.8-.4-3.2 0-.3-.2-.5-.6-.4-.3 0-.5.2-.4.6.1 1.6.2 2.7.4 3.5-3.8 3.4-5.4 7.7-6.3 10.9-5.3-21.6-2.4-44.9 8.8-64.8-.2 7.3 2.6 14.9 2.7 15.4.1.3.4.5.7.7.3.2.7.1.9-.1.1-.1 18-13.3 27.7-14.6.1-.1.2 0 .2-.1l2.3 2.3c.2.2.5.2.7 0 .2-.2.2-.5 0-.7l-2.4-2.4c.8-1.8 5.9-13.1 12.2-23.600002h-2.4C1435.6 9.9001 1431 20.0001 1429.9 22.5001c-8.9 1.5-22.8 11.2-26.9 14.1-1-3.2-3.2-11.8-1.5-18 3.3-5.1 7.1-9.9 11.6-14.4 1.4-1.4 2.8-2.7 4.3-4.000002h-3.1c-.9.900002-1.8 1.700002-2.7 2.600002-35.3 35.2-35.3 92.6 0 127.9999zm136.4-22c1.5-11.6999-1.6-26.0999-2.4-28.9999 6.7-7.3 11-22.3 12.3-27.2 4.5 3.5 5.7 7 6.1 8.6.8 14.2-1.7 28.6-7.7 41.7999-2.4 3.2-6.1 5-8.3 5.8zm-85.5 39.3c4.8-1.3 19.8-5.7 27.2-12.3 3.1.7 17.4 4 29.2 2.4-.7 2.1-2.4 6-5.5 8.6-13.3 6.3-28 9-42.3 8.2-1.8-.8-5.2-2.5-8.6-6.9zm-71.3-55.6999c0-.2.2-7.7 5.7-13.2 2.9 3.2 13.8 15.2 21.4 21.3999.2 2.8.9 16.4 5.7 27.9-3.3.1-11.3-.4-16.9-6.1-.1-.1-.2-.2-.4-.2-7.1-8.9-12.4-19-15.6-29.4999.1-.2.1-.2.1-.3zM1324.9 986.6c-53.4-53.4-112.5-93.5-128.1-101.3-3.3-1.7-7.1-1.3-9.6 1.3l-16.1 16.1c-2.4 2.4-2.9 6.1-1.2 9.6 5.5 11.2 29.8 47.8 64.1 87.9h2.7c-34.8-40.4-59.5-77.6-65-88.8-1.2-2.7-.9-5.5.9-7.2l16.1-16.1c1.8-1.8 4.7-2.2 7.2-.9 15.5 7.7 73.9 47.4 126.9 100.2L1310 1000h2.9l12.7-12.7-.7-.7zM414 5.5001c-.2-.2-.5-.2-.7 0l-2.9 2.9c-.2.2-.2.5 0 .7.2.2.5.2.7 0l2.9-2.9c.2-.1.2-.4 0-.7zm-8.8 9.6l2.9-2.9c.2-.2.2-.5 0-.7-.2-.2-.5-.2-.7 0l-2.9 2.9c-.2.2-.2.5 0 .7.2.2.5.2.7 0z"/>
    <path d="M1438.4 90.8002c-.1-.3-.4-.4-.7-.1l-3.8 1.8c-.2.1-.3.4-.2.7.1.2.4.4.7.2l3.8-1.8.1-.1c.1-.2.2-.4.1-.7zM1189.8 917c-.3.1-.3.4-.2.7 5.4 10.6 29.3 45.6 62.4 82.4h1.4c-33.4-37-57.4-72.2-62.7-82.8-.3-.3-.7-.4-.9-.3zm248.1-779.4c-1.3-.7-2.4-1.4-3.5-2.2-.3-.1-.6-.1-.7.1-.1.3-.1.6.1.7 1.2.7 2.4 1.5 3.6 2.1.3.1.5.1.7-.1l.1-.1c0-.1 0-.3-.3-.5zm114-101.9998l.1-.1c.1-.1.2-.4.1-.6-.7-1.3-1.3-2.6-1.8-3.8-.1-.2-.4-.4-.7-.2-.2.1-.4.4-.2.7.7 1.3 1.3 2.4 1.8 3.8.2.2.5.4.7.2zm-3.5-7.4003c.2-.2.2-.5.1-.7-.7-1.3-1.4-2.4-2.1-3.6-.2-.2-.4-.3-.7-.1-.2.2-.3.4-.1.7.7 1.1 1.4 2.3 2.1 3.5 0 .2.3.2.7.2zm6.8 15.2l.1-.1c.1-.1.2-.4.1-.6-.5-1.3-1-2.7-1.5-3.9-.1-.3-.4-.4-.7-.3-.3.2-.4.4-.3.7.5 1.3 1 2.5 1.5 3.8.1.3.4.4.8.4zM1244.1 825.6c-.2-.2-.5-.2-.7 0-.2.2-.2.5 0 .7l31.2 31.2c.2.2.5.2.7 0 .2-.2.2-.5 0-.7l-31.2-31.2zm299.7-804.5998c.2-.2.3-.6.1-.7-.9-1.2-1.7-2.3-2.6-3.3-.1-.1-.5-.2-.7 0-.1.1-.2.5 0 .7.8 1 1.7 2.1 2.5 3.2.2.3.5.3.7.1zM1541.3 646.3H1530v11.3h11.3v-11.3zm-2.2-525.6c.9-1 1.8-2.1 2.7-3.2.2-.2.2-.5 0-.7-.1-.1-.5-.1-.7 0-.9 1-1.8 2.1-2.7 3.2-.2.2-.2.5 0 .7.2.2.5.2.7 0zm-10.7-44.7001l-4.1-.6c-.3 0-.6.1-.6.4 0 .3.1.6.4.6l4.1.6c.2 0 .3 0 .4-.1.1-.1.1-.1.1-.3.2-.3 0-.6-.3-.6zm-1.9 56.4001c.1.1.5.2.7 0 1-.9 2.1-1.8 3.2-2.7.2-.2.2-.5 0-.7-.2-.2-.5-.2-.7 0-1.1 1-2.1 1.8-3.2 2.7-.1.1-.2.5 0 .7zm10.6-54.5999c0-.3-.2-.6-.4-.6l-4.1-.6c-.3 0-.6.1-.6.4 0 .3.1.6.4.6l4.1.6c.1 0 .3 0 .4-.1.1-.1.1-.1.2-.3zm-1.4 45.2999l-2.9 2.9c-.2.2-.2.5 0 .7.2.2.5.2.7 0l1-1 1.9-1.9c.2-.2.2-.5 0-.7-.2-.2-.5-.2-.7 0zM1520 75.7001c.1 0 .3 0 .4-.1.1-.1.1-.1.1-.3 0-.3-.1-.6-.4-.6l-4.1-.6c-.3 0-.6.2-.6.4 0 .3.1.6.4.6l4.2.6zm-119-35.1999c-.4 1.3-.9 2.6-1.3 4 0 .3.1.6.4.7.1.1.4.1.5-.1 0 0 0-.1.1-.2.4-1.3.8-2.6 1.3-3.9.1-.2-.1-.5-.2-.8-.5 0-.8.1-.8.3zM1052.8 100.9l-.9-.6c-.7 1.2-1.5 2.3-2.2 3.5l.9.6c.7-1.2 1.4-2.4 2.2-3.5zm-4.3 7l-1-.5c-.7 1.3-1.3 2.5-1.9 3.7l1 .5c.6-1.2 1.2-2.4 1.9-3.7zm14.9 25.1l-.9-.6c-.8 1.3-1.5 2.4-2.3 3.6l1 .5c.7-1.2 1.4-2.3 2.2-3.5zm-4.1 7.2l-.9-.4c-.7 1.3-1.3 2.6-1.7 3.9l1 .4c.4-1.3 1-2.6 1.6-3.9zm-14.5-24.9l-1-.4c-.5 1.3-1.2 2.5-1.6 3.8l1 .4c.4-1.3 1-2.6 1.6-3.8zm-3.3 7.6l-1-.4c-.5 1.3-1 2.6-1.4 3.9l1 .4c.4-1.3 1-2.6 1.4-3.9zm27.2 3.7l-.7-.7c-1 1-2.1 2.1-2.9 3.2l.8.7c.9-1.1 1.7-2.1 2.8-3.2zm-29.8 4.2l-1.1-.4c-.4 1.3-.7 2.7-1.1 4.1l1 .3c.3-1.4.7-2.6 1.2-4zm50.6-16.6l-.3-1c-1.4.4-2.7.8-4 1.3l.4 1c1.3-.6 2.6-1 3.9-1.3zm16.4-2.2v-1c-1.5 0-2.8 0-4.2.1l.1 1.1c1.3-.1 2.7-.1 4.1-.2zm-8.4.5l-.1-1c-1.4.2-2.8.4-4.2.7l.3 1c1.3-.3 2.7-.5 4-.7zm-910 242.3c.7-.7.7-1.9 0-2.7-.7-.7-1.9-.7-2.7 0-.8.7-.7 1.9 0 2.7.8.7 2 .7 2.7 0zm887.3-233.5l-.6-.9c-1.1.8-2.3 1.7-3.3 2.6l.7.8c1-.9 2-1.8 3.2-2.5zm-64.1 23.8l1 .2c.1-1.5.3-2.8.4-4.2h-1c-.1 1.2-.2 2.6-.4 4zm25.8-6.3l-1-.2c-.4 1.3-.7 2.6-1 4.1l1 .2c.3-1.4.7-2.8 1-4.1zm-5.4 41h-1c0 1.5-.1 2.9-.1 4.2h1c0-1.3.1-2.7.1-4.2zm1.1-14.3c.1-.7.1-1.5.2-2.1l-1.1-.2c-.1.7-.1 1.5-.2 2.1-.1.7-.1 1.3-.2 2.1l1 .1c.1-.6.2-1.3.3-2zm-.6 6.1l-1.1-.1c0 1.5-.1 2.8-.2 4.2h1c0-1.4.1-2.8.3-4.1zm-43.5 35.8l1 .3c.4-1.3.8-2.6 1.3-3.9l-1-.4c-.4 1.3-.8 2.6-1.3 4zm3-7.9l1 .4c.4-1.2.9-2.5 1.5-3.8l-.9-.4c-.5 1.3-1.1 2.5-1.6 3.8zm-4.8 16l1 .1c.2-1.3.4-2.7.8-4.1l-1-.2c-.3 1.5-.7 2.9-.8 4.2zm128-104c-1.4-.2-2.8-.3-4.2-.4l-.1 1c1.4.1 2.7.2 4.1.4l.2-1zm-103.2 25.3h1c-.1-1.4-.1-2.8-.4-4.2l-1 .2c.2 1.2.3 2.6.4 4zM33.3 742c.7.6 1.4 1.1 2.1 1.7 3.7 2.9 6.9 5.4 5.8 11.4-1.8 10.4 1.1 17.3 9.1 21.4.5.2 1.7 1 1.8 2.3.1 1.3-.6 2.9-2.4 4.8l-3.2 3.2c-2.2 2.2-2.2 5.6 0 7.8l7.6 7.6c2 2 4.9 2.1 7.1.5.3 3.1 2.9 7.6 10.1 14.8l24.9 24.9c4.9 4.9 9.1 10.2 12.4 16 1.7 2.9 4 6.6 7.4 11.4 4 5.8 11.7 14.5 17.5 16.6-2.3 3.8-1.8 8.7 1.4 11.9l6.2 6.2c8.2 8.2 21.7 8.2 29.9 0l40.7-40.7c8.2-8.2 8.3-21.7.1-30l-6.3-6.3c-3.3-3.3-8.4-3.7-12.2-1.3-2.1-5.8-10.7-13.4-16.6-17.5-4.9-3.4-8.5-5.7-11.4-7.4-5.8-3.5-11.2-7.7-16-12.4l-24.8-24.8c-7.2-7.2-11.7-9.8-14.8-10.1 1.7-2.1 1.5-5.2-.4-7.2l-7.6-7.6c-2.1-2.1-5.7-2.1-7.8 0l-3.4 3.4c-1.8 1.8-3.5 2.6-4.7 2.4-1.3-.1-2.1-1.3-2.3-1.8-4.1-8-11.3-11.1-21.4-9.1-6.1 1.1-8.7-2.2-11.7-6.1-.4-.6-1-1.3-1.5-1.8-2.4-2.9-5.3-4.4-8.1-4.6-2.9-.1-5.7 1.3-8.4 4s-4.1 5.5-4 8.4c.4 2.8 2.1 5.6 4.9 8zm171 87l6.2 6.2c7.4 7.5 7.3 19.7-.1 27.1L169.6 903c-7.3 7.3-19 7.4-26.5.4l2.3-2.3c.2-.2.2-.5 0-.7-.2-.2-.5-.2-.7 0l-2.3 2.3-5.9-5.9c-2.9-2.9-2.9-7.8 0-10.8l57-57c2.9-2.9 7.8-2.9 10.8 0zm-81.1-63.3l24.9 24.9c4.9 4.9 10.4 9.2 16.3 12.7 2.9 1.7 6.5 4 11.3 7.3 6 4.3 14.8 12.2 16 17.2l-56.8 56.9c-5-1.3-12.9-10.1-17.1-16.1-3.3-4.8-5.6-8.4-7.3-11.3-3.5-5.9-7.8-11.3-12.7-16.3l-25-25c-12.4-12.4-9.6-15.2-8.2-16.5l42.2-42.2c1.2-1.1 4.1-4 16.4 8.4zm-27.6-25c1.3-1.3 3.5-1.3 4.9 0l7.6 7.6c1.4 1.4 1.4 3.5 0 4.9l-2.7 2.7-42.2 42.2-2.7 2.7c-1.4 1.4-3.5 1.4-4.9 0l-7.6-7.6c-1.4-1.4-1.4-3.5 0-4.9l47.6-47.6zm-61.5-13.6c2.3-2.3 4.6-3.4 6.8-3.3 2.8.1 5.1 2.1 6.6 3.8.4.6.9 1.2 1.4 1.7 2.9 3.8 6.4 8.2 13.8 6.8 9.3-1.8 15.5.8 19.1 8.1.9 1.6 2.2 2.7 3.8 2.9.2.1.4.1.6 0l-32 32c0-.1-.1-.4-.1-.5-.1-1.6-1.3-3-2.9-3.8-7.1-3.6-9.8-9.6-8.1-19.1 1.3-7.2-2.9-10.5-6.6-13.5-.7-.5-1.4-1.1-2.1-1.6-1.7-1.4-3.8-3.8-3.8-6.6.1-2.3 1.3-4.6 3.5-6.9zm999.2-572l-1-.2c-.2 1.4-.4 2.7-.6 4.1l1 .1c.3-1.3.4-2.6.6-4zm-22.2-26.7c-.4-1.4-.7-2.7-1.1-4.1l-1 .4c.5 1.3.8 2.6 1.1 3.9l1-.2zm362 388.8c-1.3 0-2.7.1-4.1.1-.3 0-.5.2-.5.5s.2.5.5.5c1.4.1 2.8 0 4.2-.1.1 0 .2-.1.3-.1.1-.1.1-.3.1-.4 0-.3-.2-.5-.5-.5zm-32.4-29.3c.1-.1.2-.2.2-.4.1-1.4.1-2.8.3-4.1 0-.3-.1-.6-.4-.6-.3 0-.5.2-.7.5-.2 1.4-.3 2.8-.3 4.3 0 .3.2.5.5.5.2 0 .2 0 .4-.2zm2.6 11.5c-.1-.2-.4-.4-.7-.2-.2.1-.4.4-.2.7.6 1.3 1.3 2.6 2 3.8.2.3.5.4.7.2l.1-.1c.1-.1.1-.4.1-.7-.8-1.2-1.4-2.4-2-3.7zm-2-7.8c0-.3-.3-.4-.6-.4s-.6.3-.4.5c.2 1.4.5 2.7.9 4.1.1.3.4.4.7.4.1.1.2 0 .2-.1.1-.1.1-.3.1-.5-.5-1.4-.8-2.7-.9-4zm6.3-23.7c-.2-.2-.6-.1-.7 0-.8 1.1-1.7 2.3-2.4 3.5-.1.3-.1.6.1.7.2.1.5.1.7-.1l.1-.1c.7-1.3 1.5-2.4 2.4-3.4 0-.1 0-.4-.2-.6zm2.9 41.6l-.9-.9c-.7-.7-1.4-1.4-2-2.1-.1-.2-.4-.3-.7-.1-.2.1-.3.4-.1.7.7.8 1.3 1.5 2.1 2.2l.9.9c.2.2.5.2.7 0 .3-.3.2-.6 0-.7zm6.8 4.6c-1.3-.7-2.4-1.3-3.5-2.1-.3-.1-.5-.1-.7.1-.1.3-.1.5.1.7 1.1.8 2.4 1.5 3.6 2.1.2.1.4 0 .6-.1l.1-.1c.1-.2.1-.5-.2-.6zm-4.5-51.2c-.1-.1-.5-.2-.7-.1-1.2.9-2.2 1.8-3.2 2.8-.2.2-.2.5 0 .7.2.2.5.2.7 0 1-1 2-1.8 3.1-2.7l.1-.1c.2-.1.3-.3 0-.6zm32.4 51.7c1.3-.7 2.5-1.5 3.6-2.3l.1-.1c.1-.1.2-.5.1-.7-.1-.1-.5-.2-.7 0-1.1.8-2.2 1.5-3.5 2.1-.2.1-.4.4-.2.7.1.3.4.5.6.3zm-5.3-55.5c1.3.4 2.6 1 3.8 1.5.2.1.4 0 .6-.1l.1-.1c.1-.2.1-.5-.3-.7-1.2-.6-2.6-1.1-3.9-1.5-.3 0-.6.2-.7.4.1.1.2.4.4.5zm-38.5 20.6c.2.1.4.1.5-.1 0 0 0-.1.1-.2.3-1.3.8-2.6 1.3-3.8.1-.3.1-.5-.2-.7-.2-.1-.6 0-.6.1-.7 1.2-1.1 2.6-1.5 4 0 .4.2.6.4.7zm45.8-17c1.2.7 2.2 1.6 3.2 2.5.2.2.5.2.7 0 .2-.2.2-.5 0-.7-1-.9-2.1-1.8-3.3-2.6-.2-.2-.5-.1-.8.1-.1.2-.1.5.2.7zm-9.8 55c1.5-.3 2.8-.7 4.1-1.2l.1-.1c.1-.1.2-.4.1-.6-.1-.3-.4-.4-.8-.2-1.3.4-2.6.8-3.9 1.1-.2.1-.4.4-.4.7.2.1.5.3.8.3zm-148.9-184.2h-11.3v11.3h11.3v-11.3zm143.4 124.2c1.4.1 2.8.1 4.1.4.1 0 .3 0 .4-.1.1-.1.1-.1.1-.3 0-.3-.2-.6-.4-.6-1.4-.2-2.8-.4-4.3-.4-.3 0-.5.2-.5.5.1.3.3.5.6.5zm28.7 24.5c-.3 0-.4.3-.4.7.2 1.3.4 2.7.4 4 0 .3.2.5.5.5.1.1.2-.1.3-.1.1-.1.2-.3.1-.4-.1-1.4-.1-2.8-.4-4.2.1-.3-.2-.5-.5-.5zm.3 8.3c-.3 0-.5.2-.6.6-.1 1.3-.4 2.6-.7 4-.1.4.2.6.4.7.1 0 .3 0 .4-.2.1-.1.1-.2.1-.3.4-1.4.6-2.8.8-4.2 0-.3-.1-.6-.4-.6zM1920 88.3001c-19.7 15.1999-48.1 13.7999-66.1-4.2-19.6-19.6-19.6-51.4 0-71L1867 .100098h-2.9L1852.5 11.7001c-20.4 20.4-20.4 53.5 0 73.9 18.4 18.3999 47.2 20.1999 67.6 5.4v-2.7h-.1zM416.2 2.6c-.2.2-.2.5 0 .7.2.2.5.2.7 0l2.9-2.9c.1-.1.2-.3.2-.4h-1.2l-2.6 2.6zm983.7 476.5c.1.1.1 0 .2-.1s.1-.3.1-.5c-.4-1.4-.9-2.6-1.5-4-.1-.2-.4-.3-.7-.3-.2.1-.4.4-.2.7.6 1.2 1 2.5 1.5 3.8.1.3.4.5.6.4zm-40.4-20.2c-1.3.4-2.6 1.1-3.8 1.8-.3.1-.4.4-.2.7.1.2.4.4.7.2 1.2-.7 2.4-1.3 3.7-1.8l.1-.1c.1-.1.2-.4.1-.6 0-.3-.3-.4-.6-.2z"/>
    <path d="M1404.8 566.7l18.2 18.2c3.5 3.5 9.4 3.5 12.8 0l32.3-32.3c3.5-3.5 3.5-9.4 0-12.8l-18-18c1.2-3.1.6-6.6-1.8-9.3-9.1-10.1-40.5-45.1-64.4-73.1-15.5-18.2-29.2-34.8-39.6-48.3-.7-.8-1.7-1.4-2.8-1.5-1.1-.1-2.2.3-3 1.1l-64.1 64.1c-.8.8-1.2 1.9-1.2 2.9.1 1.1.7 2.1 1.5 2.9 13.5 10.4 30.1 24.1 48.3 39.6 28.1 23.9 63 55.4 73.1 64.4 2.5 2.3 5.7 3 8.7 2.1zm61.7-25.5c2.7 2.7 2.7 7.2 0 9.9l-32.3 32.3c-2.7 2.7-7.2 2.7-9.9 0l-1.7-1.7 42.2-42.2 1.7 1.7zm-2.4-2.5l-13.8 13.8c-.4-.4-.7-.7-1.2-1-.2-.2-.6-.1-.7.1-.2.2-.1.6.1.7.4.2.7.6 1.1 1l-13.1 13.1c-.4-.4-.8-1-1.2-1.5-.2-.3-.4-.3-.7-.1-.3.2-.3.4-.1.7.4.6.8 1.1 1.3 1.6L1422 581l-15.2-15.2c.7-.4 1.3-.8 1.8-1.4L1448 525c.4-.4.7-.9 1.1-1.3l15 15zm-66.7 24.3c-10.1-9.1-45.1-40.5-73.1-64.4-18.2-15.5-34.8-29.2-48.3-39.6-.4-.3-.7-.8-.7-1.3-.1-.5.1-1 .5-1.4l1-1 6.9 6.9c.2.2.5.2.7 0 .2-.2.2-.5 0-.7l-6.9-6.9 2.9-2.9 6.9 6.9c.2.2.5.2.7 0 .2-.2.2-.5 0-.7l-6.9-6.9 2.9-2.9 6.9 6.9c.2.2.5.2.7 0 .2-.2.2-.5 0-.7l-6.9-6.9 2.9-2.9 6.9 6.9c.2.2.5.2.7 0 .2-.2.2-.5 0-.7l-6.9-6.9 2.9-2.9 6.9 6.9c.2.2.5.2.7 0 .2-.2.2-.5 0-.7l-6.9-6.9 2.9-2.9 6.9 6.9c.2.2.5.2.7 0 .2-.2.2-.5 0-.7l-6.9-6.9 2.9-2.9 6.9 6.9c.2.2.5.2.7 0 .2-.2.2-.5 0-.7l-6.9-6.9 2.9-2.9 6.9 6.9c.2.2.5.2.7 0 .2-.2.2-.5 0-.7l-6.9-6.9 2.9-2.9 6.9 6.9c.2.2.5.2.7 0 .2-.2.2-.5 0-.7l-6.9-6.9 2.9-2.9 6.9 6.9c.2.2.5.2.7 0 .2-.2.2-.5 0-.7l-6.9-6.9 2.9-2.9 6.9 6.9c.2.2.5.2.7 0 .2-.2.2-.5 0-.7l-6.9-6.9 2.9-2.9 6.9 6.9c.2.2.5.2.7 0 .2-.2.2-.5 0-.7l-6.9-6.9 2.9-2.9 6.9 6.9c.2.2.5.2.7 0 .2-.2.2-.5 0-.7l-6.9-6.9 2.9-2.9 6.9 6.9c.2.2.5.2.7 0 .2-.2.2-.5 0-.7l-6.9-6.9 2.9-2.9 6.9 6.9c.2.2.5.2.7 0 .2-.2.2-.5 0-.7l-6.9-6.9 2.9-2.9 6.9 6.9c.2.2.5.2.7 0 .2-.2.2-.5 0-.7l-6.9-6.9 2.9-2.9 6.9 6.9c.2.2.5.2.7 0 .2-.2.2-.5 0-.7l-6.9-6.9 2.9-2.9 6.9 6.9c.2.2.5.2.7 0 .2-.2.2-.5 0-.7l-6.9-6.9 1-1c.4-.4.8-.5 1.4-.5.6.1 1.1.4 1.4.8 10.4 13.5 24.2 30.2 39.6 48.3 23.9 28.1 55.4 63 64.4 73.1 2.5 2.8 2.4 6.9-.3 9.6l-39.4 39.4c-2.4 2.4-6.6 2.4-9.4-.1z"/>
    <path d="M1367.7 456.8c-1.4.2-2.8.4-4.2.7-.2.1-.4.4-.4.7.1.2.4.4.7.4 1.3-.3 2.7-.5 4.1-.7.1 0 .2-.1.3-.1.1-.1.1-.3.1-.4-.1-.4-.3-.6-.6-.6zm-2.8 59.9c-1.3-.3-2.7-.6-3.9-1.1-.3 0-.5.1-.7.4 0 .3.1.6.4.7 1.3.4 2.7.9 4.1 1.1.1 0 .3 0 .4-.2.1-.1.1-.1.1-.3.1-.3-.1-.6-.4-.6zm34-18.1c-.3-.1-.6 0-.7.3-.5 1.3-1 2.5-1.8 3.7-.2.3-.2.6.1.7.3.2.5.1.7-.1l.1-.1c.8-1.3 1.4-2.6 1.9-3.8.1-.3 0-.6-.3-.7zm-24.2 30.1c-.2-.2-.5-.2-.7 0-.2.2-.2.5 0 .7 8.5 7.6 17 15.1 21.9 19.5.2.2.5.2.7 0 .2-.2.2-.5 0-.7-4.9-4.4-13.4-11.9-21.9-19.5zm16.7-19c.2.2.5.2.7 0l.4-.4c.9-.9 1.6-1.8 2.4-2.7.1-.2.1-.5-.1-.7-.1-.1-.4-.1-.7.2-.7.9-1.5 1.8-2.4 2.6l-.4.4c-.2.1-.2.4.1.6zM1361 917c.2.2.5.2.7 0 .2-.2.2-.5 0-.7l-2.9-2.9c-.2-.2-.5-.2-.7 0-.2.2-.2.5 0 .7l2.9 2.9zm518.8-900.9002c-.2.1-.4.4-.4.7 0 .3.4.4.7.4 1.3-.4 2.7-.7 4-.9.1 0 .2-.1.3-.2.1-.1.1-.3.1-.4 0-.3-.3-.4-.6-.4-1.4.2-2.8.5-4.1.8zm8.4-1.2c-.3 0-.5.2-.5.5s.2.5.5.5c1.3-.1 2.7 0 4.1.1.1 0 .3 0 .4-.1.1-.1.1-.1.2-.3 0-.3-.2-.5-.4-.6-1.5-.1-2.9-.2-4.3-.1zm8.4.8c-.2-.1-.6.1-.6.4-.1.2.1.6.4.6 1.3.3 2.7.7 3.9 1.1.1 0 .4-.1.5-.2l.1-.1c.1-.2 0-.6-.4-.7-1.2-.4-2.5-.9-3.9-1.1zM1762 888.3c-1 1-2.1 1.8-3.2 2.6-.3.2-.3.4-.1.7.1.3.4.3.7.1 1.2-.7 2.4-1.6 3.4-2.7.2-.2.2-.5 0-.7-.3-.2-.6-.2-.8 0zm151.7-816.1001c1-1 1.9-2.1 2.7-3.2.2-.2.1-.6-.1-.7-.2-.2-.4-.1-.7.1-.8 1.1-1.7 2.1-2.7 3.1-.2.2-.2.5 0 .7.3.2.6.2.8 0zm0-45.5c.2.2.5.2.7 0 .2-.2.2-.5 0-.7l-1.3-1.3c-.6-.6-1.2-1.2-1.8-1.6-.1-.1-.5-.1-.7.1-.2.2-.1.6 0 .7.6.4 1.2 1 1.7 1.5.6.5 1 .8 1.4 1.3zM1870.9 77.1c.2.1.5.1.7-.1l.1-.1c.2-.3.1-.5-.1-.7-1.1-.7-2.2-1.5-3.2-2.4-.2-.2-.6-.1-.7 0-.2.2-.1.6 0 .7.9 1 2.1 1.9 3.2 2.6zm-6.4-5.4001c.2.2.5.2.8.1.2-.2.2-.5 0-.7-1-1-1.8-2.1-2.6-3.2-.2-.2-.4-.3-.7-.1-.2.2-.3.4-.1.7.8 1.1 1.7 2.2 2.6 3.2zm4.7-48.9c.2-.2.3-.6.1-.7-.2-.2-.5-.2-.7-.2-1.4 1.1-2.8 2.4-4 3.7-.2.2-.2.5 0 .7.2.2.6.3.7 0 1.2-1.3 2.5-2.5 3.9-3.5zm-6.7 6c-.2-.2-.6-.1-.7.1-.8 1.1-1.6 2.4-2.3 3.6-.1.3 0 .6.2.7.3 0 .6 0 .7-.1.7-1.3 1.4-2.4 2.2-3.5.3-.3.2-.6-.1-.8zm41.4-10.0998c-.1.3 0 .6.2.7 1.2.6 2.4 1.3 3.5 2.1.1.2.4.1.6 0 .2-.4.1-.6-.1-.8-1.2-.7-2.4-1.5-3.6-2.1-.2-.3-.5-.2-.6.1zM1920 0h-.7c.2.2.5.3.7.4V0zm-164.8 892.6c-1.3.4-2.7.7-4 .9-.3 0-.4.3-.4.6s.3.4.6.4c1.5-.1 2.8-.4 4.2-1 .1-.1.1 0 .2-.1s.2-.4.1-.6c-.1-.2-.4-.4-.7-.2zm11.8-11.4c-.3-.1-.6 0-.7.2-.4 1.3-1 2.5-1.8 3.7-.1.3-.1.5.1.7.2.1.5.1.7-.1l.1-.1c.7-1.2 1.3-2.5 1.9-3.8.1-.1.1-.5-.3-.6zm92.5-816.2002c.1.3.4.3.7.2l.1-.1c.4-.2.4-.5.3-.7-.7-1.3-1.3-2.4-1.8-3.7-.1-.3-.4-.4-.7-.3-.3.1-.4.4-.3.7.5 1.3 1.1 2.6 1.7 3.9zM1747.3 893.4c-1.5-.1-2.8-.4-4.1-1-.3-.1-.6 0-.7.4-.1.2 0 .6.4.7 1.3.4 2.7.8 4.2 1 .2 0 .3 0 .4-.1.1-.1.1-.1.2-.3.1-.4-.1-.7-.4-.7zm19-23.9c.1.3.4.4.7.4l.1-.1c.1-.1.2-.4.1-.6-.4-1.3-1-2.7-1.8-3.9-.1-.3-.4-.3-.7-.2-.3.2-.3.4-.1.7.7 1.2 1.3 2.4 1.7 3.7zm.8 8c0 .3.2.6.4.6s.3 0 .4-.1c.1-.1.1-.1.1-.3.1-1.5.1-2.8 0-4.3 0-.3-.3-.4-.6-.4-.1 0-.4.2-.4.5.4 1.3.4 2.6.1 4zm-30.5-14.8c1-1 2-1.8 3.2-2.6l.1-.1c.1-.1.1-.4.1-.7-.2-.3-.4-.3-.7-.1-1.2.7-2.4 1.6-3.4 2.7-.1.3-.1.6.1.8.1.3.4.3.6 0zm-5.2 14.6c-.2-1.3-.1-2.7 0-4 0-.3-.1-.6-.4-.6-.3 0-.6.1-.6.4-.2 1.4-.2 2.9 0 4.3 0 .3.3.4.6.4.1 0 .2-.1.3-.2 0 .1.1-.1.1-.3zm17.1-506.6c.7-.1 1.3-.1 2.1-.3.1 0 .2-.1.3-.1.1-.1.2-.3.2-.4 0-.3-.3-.4-.6-.4-.7.1-1.5.1-2.1.3-.3 0-.4.3-.4.6-.1.2.2.3.5.3zm170.2-305.1c.5-.9.9-1.6 1.3-2.4V61c-.1 0-.3.1-.3.3-.5 1.3-1.2 2.5-1.8 3.7-.2.3-.1.5.1.7.3 0 .6 0 .7-.1zm.4-31.9001c.2-.2.3-.4.1-.7-.7-1.3-1.4-2.4-2.1-3.6-.1-.1-.4-.3-.7-.1-.3.2-.3.4-.1.7.8 1.1 1.5 2.3 2.1 3.5.2.2.5.2.7.2zM1732.2 881.3c.1-.2-.2-.4-.6-.3-.2.1-.4.4-.4.7.4 1.3 1 2.7 1.8 3.9.1.3.4.3.7.2l.1-.1c.1-.1.1-.4.1-.7-.7-1.2-1.3-2.4-1.7-3.7zm4.3 6.8c-.2-.2-.5-.2-.7 0-.2.2-.1.6 0 .7 1 1 2.1 1.9 3.2 2.6.2.1.5.1.7-.1l.1-.1c.2-.3.1-.5-.1-.7-1.2-.5-2.2-1.3-3.2-2.4zm139.4-870.3999c-1.3.6-2.6 1.3-3.8 2-.3.2-.3.4-.1.7.1.1.4.2.7.1 1.2-.7 2.4-1.3 3.6-1.8l.1-.1c.1-.1.2-.4.1-.6-.1-.4-.3-.5-.6-.3zM297.6 16.1998c-.2.2-.2.5 0 .7l2.9 2.9c.2.2.5.2.7 0 .2-.2.2-.5 0-.7l-2.9-2.9c-.2-.2-.5-.2-.7 0zm5.9 5.9004c-.2.2-.2.5 0 .7l2.9 2.9c.2.2.5.2.7 0 .2-.2.2-.5 0-.7l-2.9-2.9c-.2-.2-.5-.2-.7 0zm-11.8-11.8003c-.2.2-.2.5 0 .7l2.9 2.9c.2.2.5.2.7 0 .2-.2.2-.5 0-.7l-2.9-2.9c-.2-.2-.5-.2-.7 0zm17.7 17.7002c-.2.2-.2.5 0 .7l2.9 2.9c.2.2.5.2.7 0 .2-.2.2-.5 0-.7l-2.9-2.9c-.2-.2-.5-.2-.7 0zM282.9 2.2c.2.2.5.2.7 0 .2-.2.2-.5 0-.7L282.1 0h-1.5l2.3 2.2zm2.9 2.2c-.2.2-.2.5 0 .7l2.9 2.9c.2.2.5.2.7 0 .2-.2.2-.5 0-.7l-2.9-2.9c-.2-.2-.5-.2-.7 0zm65.9 42.8c.1.2.3.4.7.4.1-.1.2-.1.2-.1.1-.1.1-.3.1-.5L339.8 0h-1l12.9 47.2zm-7 16.1998c-.2.2-.2.5 0 .7l2.9 2.9c.2.2.5.2.7 0 .2-.2.2-.5 0-.7l-2.9-2.9c-.2-.3-.5-.3-.7 0zm-5.9-5.8999c-.2.2-.2.5 0 .7l2.9 2.9c.2.2.5.2.7 0 .2-.2.2-.5 0-.7l-2.9-2.9c-.2-.3-.4-.3-.7 0zm1519.8-21.6001c-.3-.1-.6 0-.7.3-.5 1.3-.9 2.6-1.3 4-.1.2.1.5.4.7.2.2.4.1.6 0 .1-.1.1-.1.2-.3.3-1.3.7-2.7 1.3-3.9-.1-.4-.2-.7-.5-.8zm-1531.5 9.8c-.2.2-.2.5 0 .7l2.9 2.9c.2.2.5.2.7 0 .2-.2.2-.5 0-.7l-2.9-2.9c-.2-.2-.5-.2-.7 0zm-5.9-5.8999c-.2.2-.2.5 0 .7l2.9 2.9c.2.2.5.2.7 0 .2-.2.2-.5 0-.7l-2.9-2.9c-.2-.2-.5-.2-.7 0zM315.3 33.9c-.2.2-.2.5 0 .7l2.9 2.9c.2.2.5.2.7 0 .2-.2.2-.5 0-.7l-2.9-2.9c-.2-.2-.5-.2-.7 0zm17.6 17.7002c-.2.2-.2.5 0 .7l2.9 2.9c.2.2.5.2.7 0 .2-.2.2-.5 0-.7l-2.9-2.9c-.1-.2-.4-.2-.7 0zm1550 29.2997c-.3 0-.6.1-.6.4 0 .3.1.6.4.6 1.4.2 2.8.4 4.2.5.1 0 .3 0 .4-.1.1-.1.1-.1.1-.3 0-.3-.2-.5-.4-.6-1.4-.1-2.7-.2-4.1-.5zm-437-43.3997l-2.9-2.9c-.2-.2-.5-.2-.7 0-.2.2-.2.5 0 .7l2.9 2.9c.2.2.5.2.7 0 .2-.2.2-.5 0-.7zm433 42.2998c-1.3-.4-2.5-.9-3.7-1.5-.3-.1-.6 0-.7.2-.1.3 0 .6.2.7 1.3.7 2.6 1.1 3.9 1.5.2.1.4 0 .5-.1.1-.1.1-.1.1-.2.1-.2 0-.5-.3-.6zm-21.7-22.3c.1-.1.2-.1.3-.1.1-.1.1-.3.1-.4-.4-1.5-.7-2.8-.9-4.1 0-.3-.3-.4-.6-.4s-.4.3-.4.6c.2 1.4.4 2.8.8 4.2.2.1.4.3.7.2zm45.8 20.9999c-1.3.5-2.5 1-3.8 1.5-.2.1-.4.4-.4.7.1.2.4.4.7.4 1.3-.4 2.6-.9 4-1.5l.1-.1c.1-.1.2-.4.1-.6-.1-.4-.5-.5-.7-.4zM1856.4 49c.1-.1.1-.1.1-.3 0-1.3.1-2.7.2-4.1 0-.3-.2-.6-.4-.6-.3 0-.6.1-.6.4-.2 1.4-.3 2.8-.2 4.2 0 .3.2.5.5.5.1.1.2 0 .4-.1z"/>
    <path d="M383.6 77.2l51.8-51.8c6.8-6.8 8.8-16.7 5.9-25.4h-2.2c3 8 1.3 17.4-5.1 23.9l-51.8 51.8c-8.8 8.8-23.3 8.8-32.1 0L274.3 0h-2.9l77.2 77.2c9.6 9.7 25.4 9.7 35 0z"/>
    <path d="M360.3 58.6l-2.9 2.9c-.2.2-.2.5 0 .7.2.2.5.2.7 0l2.9-2.9c.2-.2.2-.5 0-.7-.2-.3-.5-.3-.7 0zm1549.6 15.6c-1 .9-2.2 1.6-3.4 2.4-.3.1-.3.4-.1.7.1.3.4.3.7.1 1.2-.7 2.4-1.6 3.5-2.4l.1-.1c.2-.2.2-.5.1-.7-.3-.1-.6-.1-.9 0zM1892.2 309c-1.6-1.3-3.8-1.5-5.7-.8-3.4-4.3-7.4-6.6-11.9-6.8-7.9-.3-17.4 5.6-27.9 17.7-10.4 11.9-16.7 15.5-25.5 18.4-3.2 1-15 3.1-28.8 5.4l-.1-.8c-.1-.5-.6-1-1.2-.9-.5.1-1 .6-.9 1.2l.1.9c-2.9.4-6 1-9 1.5l-.1-1.2c-.1-.5-.6-1-1.2-.9-.5.1-1 .6-.9 1.2l.1 1.3c-3 .5-6.1 1-9.1 1.4l-.1-1.1c-.1-.5-.6-1-1.2-.9-.5.1-1 .6-.9 1.2l.1 1.2c-3.2.5-6.3 1-9.2 1.4l-.1-1.2c-.1-.5-.6-1-1.2-.9-.5.1-1 .6-.9 1.2l.1 1.2c-1.4.2-2.7.4-4 .6-2.7.4-4.8 2.4-5.3 5-.4 1.7-.7 3.8-1.1 6.1-1.9 11.3-4.8 28.5-14.5 40.3-8.7 10.6-25.6 18.9-36.8 24.2-3.5 1.7-6.5 3.1-8.5 4.3-2.1 1.2-3.2 3.6-2.8 6 2.7 18.1 17.2 28.9 22.1 31.2 3.7 1.8 6.7 2 8.3 1.8l.1 3c.1 3 1.4 5.7 3.7 7.7l16.5 14c2.1 1.6 5.1 1.5 6.9-.3l38.5-38.5c2-2 2-5.2 0-7.2l-5.2-5.2c6.7-6.4 16.6-13.3 28.1-21.1 16.9-11.6 38-26.1 57.7-45.8 26.7-26.7 34.6-48.9 36.8-57.2.5-2-.1-4.1-1.8-5.6l-3.2-3zm-70.4 30.6c9-2.9 15.8-6.8 26.4-19.1 9.9-11.4 19.1-17.3 26.3-17 4.1.1 7.8 2.4 10.9 6.6l.5.7.2-.1c-.1 3.8-2.5 22.5-31.5 51.6-30.3 30.3-53.9 45.1-73 56.9-4 2.5-7.7 4.8-11.3 7.1-4.1 2.6-8.3 5.4-12.4 8.2-1.5-2.8-6.7-15 5.3-32.3 12.9-18.6 39-33.7 39.3-33.9l.4-.2.1-.4c.1-.4 3.5-11.6-3.8-23.9 10.7-1.7 19.7-3.4 22.6-4.2zm-30.3 12.8l.3 1.6c.1.5.6 1 1.2.9.2-.1.4-.1.6-.3.2-.2.4-.5.3-.9l-.2-1.8c.3.1.6.3.8.5.8.8.8 2.1 0 2.9-.8.8-2.1.8-2.9 0-.9-.8-.9-2.1-.1-2.9zm-11.2 1.4l.3 1.5c.1.5.6 1 1.2.9.2-.1.4-.1.6-.3.2-.2.4-.5.3-.9l-.2-1.7c.3.1.6.3.8.5.8.8.8 2.1 0 2.9-.8.8-2.1.8-2.9 0-.9-.8-.9-2.1-.1-2.9zm-11.2 1.1l.2 1.7c.1.5.6 1 1.2.9l.6-.3c.2-.2.4-.5.3-.9l-.2-1.8c.3.1.6.3.8.5.8.8.8 2.1 0 2.9-.8.8-2.1.8-2.9 0-.9-.8-.9-2.1 0-3zm-11.4.9l.1 1.8c.1.5.6 1 1.2.9.2-.1.4-.1.6-.3.2-.2.4-.5.3-.9l-.2-1.8c.3.3.5.4.7.6.8.8.8 2.1 0 2.9-.8.8-2.1.8-2.9 0-.8-.8-.8-2.1 0-2.9.1-.2.2-.2.2-.3zm-50.8 108.7c-4.6-2.3-18.4-12.5-20.9-29.8-.2-1.5.4-3.1 1.8-3.8 2-1.1 4.9-2.6 8.4-4.3 11.3-5.4 28.4-13.8 37.5-24.8 7.4-8.8 10.8-20.5 13-30.7l.1-.1c.1-.1.2-.3.2-.4 0-.1-.1-.2-.2-.3.7-3.5 1.3-6.8 1.7-9.8.4-2.3.7-4.3 1-6 .3-1.8 1.8-3.1 3.7-3.4.7-.1 2.1-.3 3.9-.5l.4 3c-.5.2-1 .4-1.5.9-1.6 1.6-1.6 4.3 0 5.9 1.6 1.6 4.3 1.6 5.9 0 1.6-1.6 1.6-4.3 0-5.9-.7-.7-1.5-1-2.4-1.2l-.4-3.2c2.6-.4 5.7-.8 9.2-1.4l.4 3.8c-.5.2-1 .5-1.3.9-1.6 1.6-1.6 4.3 0 5.9 1.6 1.6 4.3 1.6 5.9 0 1.6-1.6 1.6-4.3 0-5.9-.7-.7-1.5-1.1-2.5-1.2l-.4-3.8c2.8-.4 6-1 9.1-1.5l.5 4.3c-.5.2-.9.4-1.3.9-1.6 1.6-1.6 4.3 0 5.9 1.6 1.6 4.3 1.6 5.9 0 1.6-1.6 1.6-4.3 0-5.9-.7-.7-1.6-1-2.5-1.2l-.5-4.3c2.9-.4 6-1 9-1.5l.6 4.7c-.4.1-.9.4-1.3.8-1.6 1.6-1.6 4.3 0 5.9 1.6 1.6 4.3 1.6 5.9 0 1.6-1.6 1.6-4.3 0-5.9-.7-.7-1.7-1.1-2.5-1.2l-.6-4.7c1.6-.3 3.3-.5 4.9-.8l-.4.3c6.5 10.3 4.5 20.2 4.1 22.3-1.3.7-5.7 3.4-11.4 7.4l-.1-.1c-.3-.1-.6 0-.7.2-.1.2-.1.4.1.5-8.8 6.3-20 15.6-27.3 26.1-12.8 18.6-6.9 31.8-5.3 34.6-15.7 10.5-30.9 21.3-39.9 30l-1.2.3c-.5.5-3.9 1.2-8.6-1zm188.5-147.6c-2.1 8.2-9.9 30-36.2 56.3-19.7 19.7-40.6 34-57.5 45.6-11.9 8.2-22.2 15.3-29 22.1l-.7.7 6.6 6.6c1.2 1.2 1.2 3.1 0 4.3l-38.5 38.5c-1.1 1.1-2.9 1.2-4.1.1l-16.5-14c-1.8-1.5-2.9-3.8-2.9-6l-.2-4c11.6-11.4 34.1-26.6 54.6-39.9 3.6-2.3 7.3-4.6 11.3-7.1 19.1-11.9 42.7-26.7 73.1-57.1 31.2-31.2 31.9-50.3 31.8-52.9 1.2-.6 2.6-.4 3.7.4l3.5 2.9c1 .9 1.3 2.3 1 3.5zm14.3-281.3998l-7.3-7.3c-1.7-1.5-4.3-1.5-5.8.1l-7.3 7.3-7.3-7.3c-1.6-1.6-4.3-1.6-5.9 0l-7.2 7.2c-1.6 1.6-1.6 4.3 0 5.9l7.3 7.3-7.2 7.3c-1.6 1.6-1.6 4.3 0 5.9l7.2 7.2c1.6 1.6 4.3 1.6 5.9 0l7.3-7.3 7.3 7.3c1.6 1.6 4.3 1.6 5.9 0l7.2-7.2c1.6-1.6 1.6-4.3 0-5.9l-7.3-7.3 7.3-7.3c1.6-1.6 1.6-4.3-.1-5.9zm-1.4 4.4l-8.8 8.8 8.8 8.8c.8.8.8 2.1 0 2.9l-7.2 7.2c-.8.8-2.1.8-2.9 0l-8.8-8.8-8.8 8.8c-.8.8-2.1.8-2.9 0l-7.2-7.2c-.8-.8-.8-2.1 0-2.9l8.8-8.8-8.8-8.8c-.8-.8-.8-2.1 0-2.9l7.2-7.2c.8-.8 2.1-.8 2.9 0l8.8 8.8 8.8-8.8c.8-.8 2.1-.7 2.9 0l7.2 7.2c.8.8.8 2.1 0 2.9z"/>
    <path d="M1884.9 44.2002c-2.5 2.5-2.5 6.5 0 9s6.5 2.5 9 0 2.5-6.5 0-9c-2.6-2.5-6.5-2.5-9 0zm8.2 8.2c-2.1 2.1-5.5 2.1-7.5 0-2.1-2.1-2.1-5.5 0-7.5s5.4-2.1 7.5 0c2.1 2.1 2.1 5.5 0 7.5zM1891 81.5c-.3 0-.5.2-.5.5s.2.5.5.5c1.4-.1 2.8-.3 4.2-.5.1 0 .2-.1.3-.2.1-.1.1-.3.1-.4 0-.3-.3-.4-.6-.4-1.2.2-2.6.4-4 .5zM368.6 23.7c.1.2.3.4.7.4.1-.1.2-.1.2-.1.1-.1.1-.3.1-.5L363.1 0h-1l6.5 23.7zM1785.3 373c.6.1 1.3.5 1.8.8.2.1.5.1.7-.1l.1-.1c.1-.3 0-.6-.2-.7-.6-.3-1.3-.7-1.9-.9-.3-.1-.6 0-.7.2-.2.5 0 .7.2.8zm-69.86 460.925l-.7-.707-2.97 2.969.7.707 2.97-2.969z"/>
    <path d="M1720.5 748l-36.9-36.9c-1.7-1.7-4.1-2.2-6.2-1.3l-21.1 8-7.8-7.8c-4.2-4.2-11-4.2-15.2 0l-15.6 15.6-1.5-1.5c-2.1-2.1-5.5-2.1-7.7 0l-9.6 9.6c-2.1 2.1-2.1 5.5 0 7.7l1.5 1.5-16.5 16.5c-4.2 4.2-4.2 11 0 15.2l3.8 3.8-4.4 4.4c-1.9 1.9-1.9 4.9 0 6.8l4.3 4.3c.9.9 2.1 1.4 3.4 1.5h13.6v-.2l38.1 38.1c5 5 11 9 17.7 11.6l34.3 13.8c1.9.7 4 .9 6 .5-1.7 2.9-2.1 6.4-1.1 9.8l13.3 40.7c.5 1.7 1.6 3.4 2.9 4.6l10.5 10.5c2.1 2.3 5.2 3.5 8.2 3.5 3.2.1 6.2-1.2 8.5-3.5l55.8-55.8c4.6-4.6 4.6-12.2 0-16.8l-10.5-10.5c-1.3-1.3-2.9-2.4-4.7-2.9l-40.9-13.3c-3.2-1-6.7-.7-9.6 1 .4-1.9.2-4.1-.5-6l-13.8-34.3c-1.5-3.8-3.4-7.2-5.7-10.4l8.6-21.9c.9-1.9.4-4.4-1.2-5.9zm-120-12.8l9.6-9.6c1.3-1.3 3.5-1.3 4.7 0l1.5 1.5-14.3 14.3-1.5-1.5c-1.3-1.3-1.3-3.5 0-4.7zm-9.4 59c-1 0-2-.4-2.7-1l-4.3-4.3c-1.5-1.5-1.5-3.8 0-5.3l4.4-4.4 15.2 15.2-12.6-.2zm151.1 33.6l40.9 13.3c1.4.5 2.8 1.3 3.9 2.4l10.5 10.5c3.8 3.8 3.8 10 0 13.8l-55.8 55.8c-1.8 1.8-4.3 2.9-7 2.9-2.6-.1-5-1-6.8-2.9l-10.5-10.5c-1-1-1.9-2.5-2.4-3.8l-13.3-40.7c-1.2-3.5-.2-7.4 2.4-10l28.2-28.4c2.6-2.7 6.4-3.6 9.9-2.4zm-25.2-40.6l11.1 27.5c.1 1 .1 2-.1 2.9l1 .1c.1-.2.1-.5.2-.7l1.8 4.4c1.3 3 .5 6.6-1.8 8.8l-24.7 24.7c-2.2 2.2-5.7 2.9-8.8 1.8l-5.2-2.1v-.4c-.4.1-.7 0-1 0l-27.9-11.3c-6.3-2.5-12.2-6.4-16.9-11.2l-56.3-56.3 2.7-2.7c.2-.2.2-.5 0-.7-.2-.2-.5-.2-.7 0l-2.7 2.7-1.7-1.7c-3.4-3.4-3.4-8.8 0-12.2l49.3-49.3c3.4-3.4 8.8-3.4 12.2 0l1.7 1.7-2.9 2.9c-.2.2-.2.5 0 .7.2.2.5.2.7 0l2.9-2.9 56.3 56.3c1.8 1.8 3.6 3.9 5.2 6l-.1.4.6.3c1.7 3.2 3.6 6.6 5.1 10.3zm-51.9-60.6l11.8-4.6c.8-.4 1.9-.1 2.6.5l29.8 29.8c.7.7.9 1.6.5 2.6l-4.6 11.7-40.1-40zm54.8 26.9l-8.1 20.6c-1.4-1.8-2.9-3.6-4.6-5.3l-1.3-1.3 4.8-12.2c.4-1.3.2-2.7-.8-3.8l-29.8-29.8c-1-1-2.5-1.3-3.8-.8l-12.2 4.8-6.3-6.3 20.3-7.7c1.3-.6 2.9-.2 4 .9l36.9 36.9c1.1 1 1.4 2.6.9 4z"/>
    <path d="M1721.37 828.025l-.71-.707-2.97 2.971.71.707 2.97-2.971zM372 46.7999l-2.9 2.9c-.2.2-.2.5 0 .7.2.2.5.2.7 0l2.9-2.9c.2-.2.2-.5 0-.7-.1-.2-.4-.2-.7 0zM1700.07 848.071l.71.707 2.97-2.969-.71-.707-2.97 2.969zM1674 805.3l-16 16c-.2.2-.2.5 0 .7.2.2.5.2.7 0l16-16c.2-.2.2-.5 0-.7-.2-.2-.5-.2-.7 0zm-14.7-15.4c-.2-.2-.5-.2-.7 0l-16 16c-.2.2-.2.5 0 .7.2.2.5.2.7 0l16-16c.2-.2.2-.5 0-.7zm7.8 7.7c-.2-.2-.5-.2-.7 0l-16 16c-.2.2-.2.5 0 .7.2.2.5.2.7 0l16-16c.2-.1.2-.4 0-.7zm29.8 53.6c-.9.9-1.8 1.5-2.8 2.1l.4.9c1.2-.6 2.2-1.3 3.1-2.2l.4-.4-.7-.7-.4.3zm-59-633.8h-11.3v11.3h11.3v-11.3zm68.1 624.717l.71.707 2.97-2.97-.71-.707-2.97 2.97zm19.8-18.417c.5-.5 1-1.2 1.5-1.8l-.9-.6c-.4.6-.8 1.1-1.3 1.6l-1.4 1.4.7.7 1.4-1.3zM1451.8 44c.2-.2.2-.5 0-.7l-2.9-2.9c-.2-.2-.5-.2-.7 0-.2.2-.2.5 0 .7l2.9 2.9c.2.2.5.2.7 0zm47.8-12.9002c-.3-.1-.5-.1-.7.2l-1.8 3.8c-.1.2 0 .6.1.7.2.1.4 0 .6-.2l.1-.1 1.8-3.8c.3-.2.2-.4-.1-.6zM1487.4 126.4c0 .3.3.4.6.4.1 0 .2-.1.3-.2.1-.1.1-.3.1-.4l-.6-4.1c0-.3-.3-.4-.6-.4-.4.1-.5.4-.4.6l.6 4.1zm-38.6 17.5c1.3.6 2.6 1.1 3.9 1.5.2.1.4 0 .6-.2l.1-.1c0-.3-.1-.5-.4-.7-1.3-.4-2.7-1-3.8-1.6-.4-.1-.6 0-.7.3-.1.4 0 .6.3.8zm-7.3-4.4c-.2-.1-.5-.1-.7.2-.1.2-.1.5.2.7 1.3.7 2.4 1.3 3.8 1.8.2.1.4 0 .6-.2l.1-.1c.2-.3.1-.5-.2-.7-1.3-.4-2.5-1.1-3.8-1.7zm4.3-51.8002c.1-.1.2-.4.1-.6-.1-.1-.4-.3-.7-.2l-3.8 1.8c-.2.1-.3.4-.2.7.1.2.4.4.7.2l3.8-1.8.1-.1zm50.3-48.1996l.1-.3c.1-.3 0-.6-.2-.7-.3-.1-.6 0-.7.2l-.1.3c-.5-.2-1.2-.3-1.8-.4-11.3.1-27.8 4.6-36.7 7.2-.5.2-1 .4-1.5.7l-.5-.5c-.2-.2-.5-.2-.7 0-.2.2-.2.5 0 .7l.5.5c-.4.4-.7 1-.9 1.5-4 10.3-4.7 27.5-4.9 34.5 0 .6.1 1.3.3 1.8l-.1.1c-.3.1-.4.4-.2.7.2.3.4.4.7.2l.1-.1c.4.5.8 1 1.3 1.3 12.4 8.8 27.3 13.5998 31.6 14.7998 1.1.4 2.4.2 3.6-.4 3.6-1.9998 7.5-5.2998 11.2-8.9998 7.1-7.1 13.2-15.4 14.2-16.7.5-.5.8-1.3 1-2 .1-.1.1-.1.1-.2.1-.1 0-.2-.1-.2.1-.7 0-1.3-.2-1.8-4.3-14-10.3-24.6-14.7-31-.4-.4-.9-.8-1.4-1.2zm13.7 35.5c-1.5 2-14.6 19.6-24.7 24.9998-.7.4-1.5.4-2 .2-4.2-1.2998-18.9-5.8998-31-14.4998-.7-.6-1.2-1.3-1.1-2.3.2-6.9 1-23.8 4.9-33.9.1-.4.3-.6.6-.9.3-.3.7-.6 1.2-.7 7-2.1 24.5-7 36-7.1.9 0 1.8.4 2.3 1.3 4.3 6.3 10.2 16.7 14.4 30.4.1.8-.1 1.7-.6 2.5zm-8.3-46.9l.1-.1 1.8-3.8c.1-.3.1-.5-.2-.7-.3-.1-.5-.1-.7.2l-1.8 3.8c-.1.3 0 .6.2.7.2.1.4 0 .6-.1zM377.9 40.9l-2.9 2.9c-.2.2-.2.5 0 .7.2.2.5.2.7 0l2.9-2.9c.2-.2.2-.5 0-.7-.1-.2-.4-.2-.7 0zm1108 68.9l-.6-4.1c0-.3-.3-.4-.6-.4s-.4.3-.4.6l.6 4.1c0 .3.3.4.6.4.1 0 .2-.1.3-.1 0-.1.1-.3.1-.5zm19.1-89.2001l.1-.1 1.8-3.8c.1-.3.1-.5-.2-.7-.3-.1-.5-.1-.7.3l-1.8 3.8c-.2.3-.1.5.2.7.2 0 .5-.1.6-.2zM1486.7 118.6c.1 0 .2-.1.3-.1.1-.1.1-.3.1-.4l-.6-4.1c0-.3-.3-.4-.6-.4-.2.1-.5.4-.4.6l.6 4.1c0 .2.3.3.6.3zm130.4 627.7l2.9-2.9c.2-.2.2-.5 0-.7-.2-.2-.5-.2-.7 0l-2.9 2.9c-.2.2-.2.5 0 .7.1.2.4.2.7 0zm156.2-376.4l2.1.3c.1 0 .4-.1.4-.1.1-.1.1-.1.1-.3 0-.3-.1-.6-.4-.6l-2.1-.3c-.3 0-.6.2-.6.4 0 .3.2.6.5.6zm-42.8 486.8c1.4-1.4 1.4-3.8 0-5.2-1.4-1.4-3.8-1.4-5.2 0-1.4 1.4-1.4 3.8 0 5.2 1.5 1.4 3.8 1.4 5.2 0zm-4.4-4.4c1-1 2.7-1 3.7 0s1 2.7 0 3.7-2.6 1-3.7 0c-1-1.1-1-2.7 0-3.7zm41.1-482.8c.7-.1 1.3 0 2.1 0 .1 0 .3 0 .4-.2.1-.1.1-.1.1-.3 0-.3-.2-.5-.5-.5-.7 0-1.4-.1-2.1-.1-.3 0-.5.2-.5.5-.1.4.2.6.5.6zm-35.5 500.2c.1.1.4.1.5-.1l.1-.1c.4-1.3 1-2.5 1.8-3.7.1-.3.1-.5-.1-.7-.3-.1-.5-.1-.7.1-.7 1.2-1.4 2.4-1.9 3.8-.1.2-.1.6.3.7zm-11-3.1c1.4-1.4 1.4-3.8 0-5.2-1.4-1.4-3.8-1.4-5.2 0-1.4 1.4-1.4 3.8 0 5.2 1.4 1.4 3.8 1.4 5.2 0zm-4.5-4.5c1-1 2.7-1 3.7 0s1 2.6 0 3.7c-1 1-2.6 1-3.7 0-1-1-1-2.6 0-3.7zm63-491.1c.9.1 1.5.4 2.1.5.2.1.4 0 .5-.1.1-.1.1-.1.1-.2.1-.2-.1-.5-.4-.7l-2.1-.6c-.2-.1-.5.1-.7.4.1.2.3.6.5.7zm-39.3 513.9c5.2 5.2 13.6 5.2 18.9 0 5.2-5.2 5.2-13.6 0-18.9-5.2-5.2-13.6-5.2-18.9 0-5.2 5.3-5.2 13.7 0 18.9zm7-12.6l-5.2-5.2c4.4-4 11.3-3.9 15.5.4 4.4 4.4 4.4 11.5 0 15.9s-11.5 4.4-15.9 0c-4.3-4.3-4.3-11.1-.4-15.5l5.2 5.2c.2.2.5.2.7 0 .2-.2.3-.6.1-.8zm7.8-502.4c.7.1 1.3 0 2.1-.1.2 0 .2-.1.3-.1.1-.1.1-.3.1-.4 0-.3-.2-.5-.6-.4-.7.1-1.4.1-2.1.1-.3 0-.4.3-.4.6 0 .1.3.3.6.3zm-14.4 477c1.4-1.4 1.4-3.8 0-5.2-1.4-1.4-3.8-1.4-5.2 0-1.4 1.4-1.4 3.8 0 5.2 1.5 1.4 3.8 1.4 5.2 0zm-4.4-4.4c1-1 2.7-1 3.7 0s1 2.7 0 3.7-2.6 1-3.7 0c-1-1.1-1-2.7 0-3.7zm15.4 15.1c1.3.1 2.7.4 4 .9.2.1.4 0 .6-.1l.1-.1c.1-.2 0-.6-.4-.7-1.3-.4-2.7-.8-4.2-1-.3 0-.6.2-.6.4.1.3.2.6.5.6zm-7.9.9c1.3-.4 2.7-.7 4-.9.2 0 .2-.1.3-.1.1-.1.1-.3.1-.4 0-.3-.3-.4-.6-.4-1.5.1-2.8.4-4.2 1-.2.1-.4.4-.4.7.2 0 .5.1.8.1zm17.4-489.1c.8.1 1.5.1 2.2 0 .1 0 .2-.1.3-.1.1-.1.1-.3.1-.4 0-.3-.2-.5-.5-.5-.7 0-1.4.1-2.1.1-.3 0-.5.2-.5.5s.2.4.5.4zm-120.2 353.3l2.9-2.9c.2-.2.2-.5 0-.7-.2-.2-.5-.2-.7 0l-2.9 2.9c-.2.2-.2.5 0 .7.2.3.5.3.7 0zM366.2 52.6998l-2.9 2.9c-.2.2-.2.5 0 .7.2.2.5.2.7 0l2.9-2.9c.2-.2.2-.5 0-.7-.2-.2-.5-.2-.7 0zM1634.7 728.6l2.9-2.9c.2-.2.2-.5 0-.7-.2-.2-.5-.2-.7 0l-2.9 2.9c-.2.2-.2.5 0 .7.2.3.5.3.7 0zm-20.6 19.9c-.2-.2-.5-.2-.7 0l-2.9 2.9c-.2.2-.2.5 0 .7.2.2.5.2.7 0l2.9-2.9c.2-.2.2-.5 0-.7zm-6.6 5.9l-2.9 2.9c-.2.2-.2.5 0 .7.2.2.5.2.7 0l2.9-2.9c.2-.2.2-.5 0-.7-.2-.2-.5-.2-.7 0zm28.6 12.3c-.2-.2-.5-.2-.7 0l-16 16c-.2.2-.2.5 0 .7.2.2.5.2.7 0l16-16c.2-.2.2-.5 0-.7zm-34.5-6.4l-2.9 2.9c-.2.2-.2.5 0 .7.2.2.5.2.7 0l2.9-2.9c.2-.2.2-.5 0-.7-.2-.2-.5-.2-.7 0zm42.3 14.1c-.2-.2-.5-.2-.7 0l-16 16c-.2.2-.2.5 0 .7.2.2.5.2.7 0l16-16c.2-.1.2-.4 0-.7zm-15.4-15.4c-.2-.2-.5-.2-.7 0l-16 16c-.2.2-.2.5 0 .7.2.2.5.2.7 0l16-16c.2-.1.2-.4 0-.7zm.3-24.5l2.9-2.9c.2-.2.2-.5 0-.7-.2-.2-.5-.2-.7 0l-2.9 2.9c-.2.2-.2.5 0 .7.2.2.5.2.7 0zm-5.9 5.9l2.9-2.9c.2-.2.2-.5 0-.7-.2-.2-.5-.2-.7 0l-2.9 2.9c-.2.2-.2.5 0 .7.2.2.5.2.7 0zm-27.2 25.8l-2.9 2.9c-.2.2-.2.5 0 .7.2.2.5.2.7 0l2.9-2.9c.2-.2.2-.5 0-.7-.2-.2-.5-.2-.7 0zm166.4 96.5c.2.2.5.2.7 0 .2-.2.2-.5 0-.7-1-1-2.1-1.8-3.2-2.6-.3-.2-.5-.1-.7.1-.2.3-.1.5.1.7 1.1.7 2.1 1.6 3.1 2.5zm-110.5-80.5c-.2-.2-.5-.2-.7 0l-16 16c-.2.2-.2.5 0 .7.2.2.5.2.7 0l16-16c.2-.2.2-.5 0-.7zM1081.9 117l-.4-.9c-1.3.7-2.5 1.3-3.8 2l.6.9c1.1-.7 2.3-1.3 3.6-2zM553.5 783.5c.1 0 .3-.1.4-.2.1-.1.2-.2.1-.3v-2.1c0-.3-.2-.5-.5-.5s-.5.2-.5.5v2.1c0 .3.2.5.5.5zm0-8.4c.1 0 .3-.1.4-.2.1-.1.1-.1.1-.3v-2.1c0-.3-.2-.5-.5-.5s-.5.2-.5.5v2.1c0 .3.2.5.5.5zm-7.1 11c.2.2.5.2.7 0 .2-.2.2-.5 0-.7l-1.5-1.5c-.2-.2-.5-.2-.7 0-.2.2-.2.5 0 .7l1.5 1.5zm-7.6 6.8c.1-.1.2-.2.1-.3 0-.3-.2-.5-.5-.5h-2.1c-.3 0-.5.2-.5.5s.2.5.5.5h2.1c.2 0 .3-.1.4-.2zm14.7-16.6c-.3 0-.5.2-.5.5v2.1c0 .3.2.5.5.5.1 0 .3-.1.4-.2.1-.1.1-.3.1-.3v-2.1c0-.3-.2-.5-.5-.5zm-19.2 15.8h-2.1c-.3 0-.5.2-.5.5s.2.5.5.5h2.1c.1 0 .3-.1.4-.2.1-.1.2-.2.1-.3 0-.3-.2-.5-.5-.5zm6.2-11.9c.2.2.5.2.7 0 .2-.2.2-.5 0-.7l-1.5-1.5c-.2-.2-.5-.2-.7 0-.2.2-.2.5 0 .7l1.5 1.5zm-.9 25.6l-1.5 1.5c-.2.2-.2.5 0 .7.2.2.5.2.7 0l1.5-1.5c.2-.2.2-.5 0-.7-.2-.2-.5-.2-.7 0zm-361.8 62.9l2.9-2.9c.2-.2.2-.5 0-.7-.2-.2-.5-.2-.7 0l-2.9 2.9c-.2.2-.2.5 0 .7.2.2.5.2.7 0zm382.9-82.6l1.5-1.5c.2-.2.2-.5 0-.7-.2-.2-.5-.2-.7 0l-1.5 1.5c-.2.2-.2.5 0 .7.2.3.5.3.7 0zm-388.8 88.5l2.9-2.9c.2-.2.2-.5 0-.7-.2-.2-.5-.2-.7 0l-2.9 2.9c-.2.2-.2.5 0 .7.2.2.5.2.7 0zm826.4-690.1l.9.4c.7-1.3 1.2-2.5 1.8-3.8l-.9-.4c-.6 1.2-1.2 2.5-1.8 3.8zM563.2 793.1h2.1c.1 0 .3-.1.4-.2.1-.1.2-.2.1-.3 0-.3-.2-.5-.5-.5h-2.1c-.3 0-.5.2-.5.5s.2.5.5.5zm.5-9.9l1.5-1.5c.2-.2.2-.5 0-.7-.2-.2-.5-.2-.7 0l-1.5 1.5c-.2.2-.2.5 0 .7.2.2.5.2.7 0zm-21.1 19.6l-1.5 1.5c-.2.2-.2.5 0 .7.2.2.5.2.7 0l1.5-1.5c.2-.2.2-.5 0-.7-.2-.2-.5-.2-.7 0zm22 0c-.2-.2-.5-.2-.7 0-.2.2-.2.5 0 .7l1.5 1.5c.2.2.5.2.7 0 .2-.2.2-.5 0-.7l-1.5-1.5zm-375 54.1l2.2-2.2c.2-.2.2-.5 0-.7-.2-.2-.5-.2-.7 0l-2.2 2.2c-.2.2-.2.5 0 .7.2.2.5.3.7 0zm369.9-59.2c1.2-1.3 1.8-3 1.9-4.7l.1-.1c.1-.1.1-.2.1-.3 0-.2-.1-.4-.3-.4-.1-1.7-.7-3.5-2-4.8 0-.2 0-.3-.1-.5-.1-.1-.3-.2-.5-.1-1.4-1.2-3.1-1.9-4.8-2-.1-.2-.2-.3-.4-.3s-.4.1-.4.3c-1.7.1-3.3.7-4.6 1.9-.2-.1-.4-.1-.6.1-.2.2-.2.4-.1.6-1.2 1.3-1.8 3-1.9 4.7h-1.1c-.3 0-.5.2-.5.5s.2.5.5.5h1.1c.1 1.6.8 3.2 1.9 4.5l-.8.8c-.2.2-.2.5 0 .7.2.2.5.2.7 0l.8-.8c1.3 1.1 2.9 1.8 4.5 1.9v1.1c0 .3.2.5.5.5.1 0 .3-.1.4-.2.1-.1.1-.1.1-.3v-1.1c1.7-.1 3.4-.7 4.7-1.9l.7.7c.2.2.5.2.7 0 .2-.2.2-.5 0-.7l-.6-.6zm-1.8-1.1c-2.2 2.2-5.9 2.2-8.1 0-2.2-2.2-2.2-5.9 0-8.1 2.2-2.2 5.9-2.2 8.1 0 2.2 2.2 2.2 5.9 0 8.1zm3.9 3.2c-.2-.2-.5-.2-.7 0-.2.2-.2.5 0 .7l1.5 1.5c.2.2.5.2.7 0 .2-.2.2-.5 0-.7l-1.5-1.5zm5.9 5.9c-.2-.2-.5-.2-.7 0-.2.2-.2.5 0 .7l1.5 1.5c.2.2.5.2.7 0 .2-.2.2-.5 0-.7l-1.5-1.5zm.6-26.9c.2-.2.2-.5 0-.7-.2-.2-.5-.2-.7 0l-1.5 1.5c-.2.2-.2.5 0 .7.2.2.5.2.7 0l1.5-1.5zm-23.9 3.6l-1.5-1.5c-.2-.2-.5-.2-.7 0-.2.2-.2.5 0 .7l1.5 1.5c.2.2.5.2.7 0 .2-.2.2-.5 0-.7zm1.3 17.5l-1.5 1.5c-.2.2-.2.5 0 .7.2.2.5.2.7 0l1.5-1.5c.2-.2.2-.5 0-.7-.2-.2-.5-.2-.7 0zm-2.4-7c.1-.1.1-.2.1-.3 0-.3-.2-.5-.5-.5h-2.1c-.3 0-.5.2-.5.5s.2.5.5.5h2.1c.2 0 .3-.1.4-.2zM166 880.5l2.9-2.9c.2-.2.2-.5 0-.7-.2-.2-.5-.2-.7 0l-2.9 2.9c-.2.2-.2.5 0 .7.2.2.5.2.7 0zm387.5-73.3c-.3 0-.5.2-.5.5v2.1c0 .3.2.5.5.5.1 0 .3-.1.4-.2.1-.1.1-.3.1-.3v-2.1c0-.3-.2-.5-.5-.5zm0-4.3c-.3 0-.5.2-.5.5v2.1c0 .3.2.5.5.5.1 0 .3-.1.4-.2.1-.1.1-.1.1-.3v-2.1c0-.3-.2-.5-.5-.5zm.5 8.9c0-.3-.2-.5-.5-.5s-.5.2-.5.5v2.1c0 .3.2.5.5.5.1 0 .3-.1.4-.2.1-.1.2-.2.1-.3v-2.1zm-419.4 48.9c.2.2.5.2.7 0l16-16c.2-.2.2-.5 0-.7-.2-.2-.5-.2-.7 0l-16 16c-.2.2-.2.5 0 .7zM671.8 296c-.2-.1-.4.1-.5.4-.1.7-.3 1.3-.4 1.9-.1.2.1.5.4.7.2.1.4 0 .5-.1.1-.1.1-.1.1-.2.2-.7.4-1.4.4-2.1-.1-.3-.3-.6-.5-.6zm.2-6.4c-.3 0-.5.4-.6.6v2.1c0 .3.2.5.5.5.1 0 .2-.1.4-.2.1-.1.2-.2.2-.4v-2.1c.1-.2-.2-.5-.5-.5zm-2.2 12.3c-.1-.1-.5-.1-.7.2-.3.6-.7 1.2-1.1 1.7-.2.2-.2.6.1.7.1.1.5.1.7-.1l.1-.1c.4-.6.7-1.2 1.1-1.8.2-.3.1-.6-.2-.6zm2.5-15.6c.1-.1.2-.2.2-.4v-2.1c0-.3-.2-.5-.5-.5s-.6.3-.6.6v2.1c0 .3.2.5.5.5.2 0 .3-.1.4-.2zm-.4-12.3c.1 0 .2-.1.4-.2.1-.1.2-.2.2-.4v-2.1c0-.3-.2-.5-.5-.5s-.6.3-.6.6v2.1c0 .3.2.5.5.5zm.1 3.1c-.3 0-.5.4-.6.6v2.1c0 .3.2.5.5.5.1 0 .2-.1.4-.2.1-.1.2-.2.2-.4v-2.1c.1-.3-.2-.5-.5-.5zm-.5-30.5v2.1c0 .3.2.5.5.5.1 0 .2-.1.4-.2.1-.1.2-.2.2-.4v-2.1c0-.3-.2-.5-.5-.5s-.6.2-.6.6zm-6.1 60.1c-.4.4-1 .9-1.5 1.3-.2.2-.3.4-.1.7.1.3.4.3.7.1.6-.4 1.2-.9 1.6-1.3.2-.2.2-.5 0-.7-.1-.2-.5-.2-.7-.1zm-5.1 3.3c-.6.3-1.3.5-1.9.7-.2.1-.4.4-.4.7.1.2.4.4.7.4.7-.2 1.3-.4 2.1-.7l.1-.1c.1-.1.2-.4.1-.6-.1-.4-.4-.6-.7-.4zm11.7-67.3c.2 0 .2-.1.4-.2.1-.1.2-.2.2-.4V240c0-.3-.2-.5-.5-.5s-.5.4-.6.6v2.1c0 .3.2.5.5.5zm0 25.1c.2 0 .2-.1.4-.2.1-.1.2-.2.2-.4v-2.1c0-.3-.2-.5-.5-.5s-.5.4-.6.6v2.1c0 .2.2.5.5.5zm.1-9.3c-.3 0-.7.2-.6.6v2.1c0 .3.2.5.5.5.1 0 .2-.1.4-.2.1-.1.2-.2.2-.4V259c0-.3-.2-.5-.5-.5zm-.1-3.3c.2 0 .2-.1.4-.2.1-.1.2-.2.2-.4v-2.1c0-.3-.2-.5-.5-.5s-.5.4-.6.6v2.1c0 .3.2.5.5.5zM119.2 845.3c.2.2.5.2.7 0l16-16c.2-.2.2-.5 0-.7-.2-.2-.5-.2-.7 0l-16 16c-.2.2-.2.5 0 .7zM105 797.6c-.2-.2-.5-.2-.7 0l-16 16c-.2.2-.2.5 0 .7.2.2.5.2.7 0l16-16c.2-.1.2-.4 0-.7zm-7.7-7.6c-.2-.2-.5-.2-.7 0l-16 16c-.2.2-.2.5 0 .7.2.2.5.2.7 0l16-16c.2-.2.2-.5 0-.7zm605.8 69h-11.3v11.3h11.3V859zm-133.7-66.9h-2.1c-.3 0-.5.2-.5.5s.2.5.5.5h2.1c.1 0 .3-.1.4-.2.1-.1.2-.2.1-.3 0-.3-.2-.5-.5-.5zm-421 106.1l2.9-2.9c.2-.2.2-.5 0-.7-.2-.2-.5-.2-.7 0l-2.9 2.9c-.2.2-.2.5 0 .7.1.2.4.2.7 0zm5.8-5.9l2.9-2.9c.2-.2.2-.5 0-.7-.2-.2-.5-.2-.7 0l-2.9 2.9c-.2.2-.2.5 0 .7.2.2.5.2.7 0zM96 822.1c.2.2.5.2.7 0l16-16c.2-.2.2-.5 0-.7-.2-.2-.5-.2-.7 0l-16 16c-.2.2-.2.5 0 .7zm7.7 7.7c.2.2.5.2.7 0l16-16c.2-.2.2-.5 0-.7-.2-.2-.5-.2-.7 0l-16 16c-.2.2-.2.5 0 .7zm7.8 7.8c.2.2.5.2.7 0l16-16c.2-.2.2-.5 0-.7-.2-.2-.5-.2-.7 0l-16 16c-.3.1-.3.4 0 .7z"/>
    <path d="M783.6 268.1c-1.2-8-6-14.6-13.3-18.3l-70.9-35.7c-6-3-13.1-2.1-18.1 2.4-2.7-4-5.7-7.7-9.1-11-30-30.1-78.7-30.1-108.7-.1s-30 78.7 0 108.7c3.4 3.4 7.1 6.4 11 9.1-4.3 4.9-5.2 12-2.3 18L608 412c3.6 7.1 10.3 12.1 18.3 13.4 8 1.3 15.8-1.3 21.6-7l128.8-128.8c5.7-5.7 8.2-13.5 6.9-21.5zm-101.5-49.7c.7-.7 1.6-1.5 2.5-1.9l-.1 90.4c0 9.7-7.9 17.6-17.6 17.6H576l.7-.7 94.7-94.7v.7c0 .3.2.5.5.5.2 0 .2-.1.4-.2.1-.1.2-.2.2-.4v-1.8l9.6-9.5zm4.4 90.1c1 .6 2.1 1.3 3 2.3 5.4 5.4 5.4 14.2 0 19.6-5.4 5.4-14.2 5.4-19.6 0-1.1-1.1-2-2.4-2.8-3.8 5.4-.1 10.2-2.2 13.7-5.7 3.2-3.3 5.3-7.6 5.7-12.4zm-100.7 3.3c-4-2.4-7.7-5.4-11.2-8.8-23.9-23.9-23.9-62.7 0-86.6 23.9-23.9 62.7-23.9 86.6 0 3.2 3.2 6.2 7.1 8.8 11.2l-84.2 84.2zm-20.8.7c-29.1-29.1-29.2-76.6 0-105.8 29.2-29.2 76.6-29.2 105.8 0 3.4 3.4 6.3 7.1 9.1 11l-8.3 8.3c-2.7-4.1-5.6-8-8.8-11.2-24.7-24.7-64.9-24.7-89.5 0-24.7 24.7-24.7 64.9 0 89.5 3.5 3.5 7.2 6.5 11.1 8.9l-8.2 8.2c-4.2-2.4-7.8-5.5-11.2-8.9zm209.6-23.6c1.9-4.3 2.6-9.1 1.8-13.9-1.3-7.9-6-14.3-13-17.9l-29.2-14.7c-.3-.1-.6 0-.7.2-.2.3 0 .6.2.7l29.1 14.7c6.8 3.4 11.3 9.6 12.5 17.1 1 5.8-.3 11.6-3.5 16.4L650.1 413.2c-4.8 3.2-10.5 4.3-16.4 3.5-7.5-1.2-13.7-5.7-17.1-12.5l-14.7-29.1c-.1-.3-.4-.3-.7-.2-.3.1-.3.4-.2.7l14.7 29.1c3.5 7.1 10.1 11.9 17.9 13 4.9.7 9.6.1 13.9-1.8l-1 1c-5.2 5.2-12.4 7.6-19.8 6.4-7.4-1.2-13.4-5.6-16.8-12.2l-35.7-70.9c-2.2-4.4-1.9-9.6.4-13.7h91.3c.8 1.7 1.8 3.3 3.1 4.6 5.8 5.8 15.2 5.8 21.1 0 5.8-5.8 5.8-15.2 0-21.1-1.2-1.2-2.4-2.1-3.6-2.7v-91.9c3.8-1.5 8.1-1.5 11.9.4l70.9 35.7c6.7 3.6 11.1 9.6 12.3 17 1.2 7.4-1.2 14.6-6.4 19.8l-.6.6z"/>
    <path d="M672.1 233.5c-.3 0-.7.2-.6.6v2.1c0 .3.2.5.5.5.1 0 .2-.1.4-.2.1-.1.2-.2.2-.4V234c0-.3-.2-.5-.5-.5zm-512 652.9l2.9-2.9c.2-.2.2-.5 0-.7-.2-.2-.5-.2-.7 0l-2.9 2.9c-.2.2-.2.5 0 .7.2.2.5.2.7 0zm-33.2-33.5c.2.2.5.2.7 0l16-16c.2-.2.2-.5 0-.7-.2-.2-.5-.2-.7 0l-16 16c-.3.2-.3.5 0 .7zm55.2-489.5c-.7-.3-1.5-.7-2.1-1.4l-.9-.9c-.2-.2-.5-.2-.7 0-.2.2-.2.5 0 .7l.9.9c.7.7 1.7 1.3 2.7 1.6.2.1.4 0 .5-.1.1-.1.1-.1.1-.2-.1-.1-.2-.4-.5-.6zM527 616c.1 0 .4-.1.4-.1.1-.1.1-.2.1-.3.1-.4-.2-.6-.4-.6-1.3-.1-2.7-.2-4.1-.4-.3 0-.6.1-.6.4 0 .3.1.6.4.6 1.5.2 2.9.3 4.2.4zm8.4 0c.1 0 .2-.1.3-.1.1-.1.2-.2.2-.4-.1-.2-.3-.4-.6-.4-1.3.1-2.7.2-4.1.1-.3 0-.5.2-.5.5s.2.5.5.5c1.5 0 2.9 0 4.2-.2zm-38.8 10.1c1-.9 2.1-1.8 3-2.7h.1c.2-.2.2-.5 0-.7-.2-.2-.5-.2-.7 0l-.1.1c-1 1-1.9 1.8-2.9 2.7-.2.1-.3.4-.1.7.1.1.5.1.7-.1zm75.1 1.5c.2.1.4 0 .6-.1.1-.4-.1-.7-.3-.7-1.2-.4-2.4-1-3.8-1.5-.3-.1-.5-.1-.7.2-.1.3-.1.5.2.7 1.4.4 2.7.9 4 1.4zm-181.4-81.4H379v11.3h11.3v-11.3zm99.4 84.6c1.3-.7 2.4-1.4 3.7-2.2.2-.2.2-.5.1-.6-.2-.2-.4-.3-.7-.1-1.2.7-2.4 1.5-3.5 2.1-.2.1-.4.4-.2.7 0 .1.3.3.6.1zm74.4-6.8c.3.1.5.1.7-.1l.1-.1c.1-.2.1-.5-.2-.7-1.2-.7-2.4-1.5-3.5-2.2-.3-.1-.6-.1-.7.1-.1.3-.1.6.1.7 1 .9 2.2 1.7 3.5 2.3zM282.3 450.8l-2.9 2.9c-.2.2-.2.5 0 .7.2.2.5.2.7 0l2.9-2.9c.2-.2.2-.5 0-.7-.2-.2-.5-.2-.7 0zm351.4 286.5c6.3 0 12.5-2.5 17.3-7.2 4.8-4.8 7.2-11 7.2-17.3 0-6.4-2.4-12.7-7.2-17.6-9.6-9.6-25-9.6-34.7-.2-.1 0-.2.1-.3.2-.1.1-.1.2-.2.3-4.6 4.7-6.9 10.8-7 17 0 .1-.1.1-.1.2s0 .2.1.2c.1 6.2 2.5 12.5 7.2 17.2 4.8 4.8 11 7.2 17.2 7.2.1 0 .1.1.2.1.2 0 .2 0 .3-.1zm-.7-1.2v.1c-5.7-.1-11.4-2.3-15.8-6.5l.1-.1c.2-.2.2-.5 0-.7-.2-.2-.5-.2-.7 0l-.1.1c-4.2-4.4-6.4-10.1-6.5-15.8h.1c.1 0 .3-.1.4-.2.1-.1.2-.2.1-.3 0-.3-.2-.5-.5-.5h-.1c.1-5.7 2.3-11.4 6.5-15.8l1 1c.2.2.5.2.7 0 .2-.2.2-.5 0-.7l-1-1c4.4-4.2 10.1-6.4 15.7-6.5v1.5c0 .3.2.5.5.5.2 0 .3-.1.4-.2.1-.1.1-.1.1-.3V689c5.7.1 11.5 2.3 15.9 6.5l-1.1 1.1c-.2.2-.2.5 0 .7.2.2.5.2.7 0l1.1-1.1c4.2 4.4 6.4 10.2 6.5 15.9h-1.5c-.3 0-.5.2-.5.5s.2.5.5.5h1.5c-.1 5.7-2.3 11.3-6.5 15.7l-.2-.2c-.2-.2-.5-.2-.7 0-.2.2-.2.5 0 .7l.2.2c-4.4 4.2-10.1 6.4-15.8 6.5v-.1c0-.3-.2-.5-.5-.5-.3.2-.5.4-.5.7zM288.4 444.6c-.3-.1-.7-.1-.7.1-.3.6-.6 1.2-1.1 1.7l-1.4 1.4c-.2.2-.2.5 0 .7.2.2.5.2.7 0l1.4-1.4c.6-.6 1-1.2 1.3-1.9.2-.2.1-.5-.2-.6z"/>
    <path d="M633.9 734v-2.1c0-.3-.2-.5-.5-.5s-.5.2-.5.5v2.1c0 .3.2.5.5.5.1 0 .3-.1.4-.2.1-.2.2-.2.1-.3zM486.8 117.3h-11.3v11.3h11.3v-11.3zm-210.9 338c-1.3.1-2.5-.3-3.5-1-.2-.2-.6-.1-.7.1-.2.2-.1.6.1.7 1.2.9 2.8 1.3 4.3 1.2.1 0 .2-.1.3-.1.1-.1.1-.3.1-.4 0-.3-.3-.5-.6-.5z"/>
    <path d="M656.6 735.7c12.7-12.7 12.7-33.4 0-46.1-12.7-12.7-33.4-12.7-46.1 0-5.4 5.4-8.4 12.1-9.3 19.1l-15.6.1 1.6-1.6c19.5-19.5 21.4-50.7 4.3-72.4l-.1-.1-.2-.2c-.2-.2-.5-.5-.9-.7.1-.5.2-1 .2-1.5 0-1.5-.5-2.9-1.5-3.9s-2.4-1.5-3.9-1.5c-1.7-.1-3.3.7-4.5 2-.1-.2-.2-.3-.4-.3-1.3-.1-2.7-.4-4.1-.7-.4-.1-.6.1-.7.4-.1.4.1.6.4.7 1.3.3 2.7.6 4.1.7l-45.3 49.9c-.3-.2-.5-.3-.8-.5l20.8-61.6c.5.5 1.4 1.2 2.6 2.2.1.1.5.1.7-.1.3-.3.2-.7-.1-.8-1.4-1.1-2.4-2-2.8-2.4.4-1.4.2-2.9-.5-4.2-.7-1.3-2-2.3-3.5-2.7-1.5-.4-3-.2-4.4.6-1.3.7-2.2 2-2.5 3.4-.1-.2-.4-.3-.7-.2-1.3.5-2.5.9-3.9 1.3-.2.1-.4.4-.4.7.1.2.4.4.7.4 1.4-.4 2.7-.8 4-1.3l.1-.1-14.3 63.8h-1.1l-13.3-63.6c.7.2 1.9.5 3.4.8.1 0 .3 0 .4-.1l.3-.3c0-.3-.1-.6-.4-.6-2.2-.5-3.8-.9-4-.9-.4-1.3-1.2-2.5-2.4-3.2-1.3-.8-2.9-1.1-4.3-.7-1.5.4-2.8 1.5-3.5 2.8-.7 1.3-.9 2.8-.4 4.3v.1c-.7 1.2-1.5 2.3-2.4 3.3-.1.1-.1.4.1.7.1.1.4.1.7-.1.7-.8 1.4-1.8 2.1-2.7l19.5 61.4-.6.3-41-45.7c.7-.2 1.8-.5 3.2-1l.1-.1c.1-.1.2-.4.3-.4-.1-.3-.4-.4-.7-.3-1.8.7-3.1 1-3.6 1.1-1-1.1-2.5-1.7-4-1.8-1.5 0-2.9.6-4.1 1.7-1.1 1.1-1.8 2.5-1.7 4.1.1 1.5.7 3 1.8 4.1l46.4 41.7c-2.4 3.8-2.2 8.8.6 12.3l-45.8 45.8c-.6.6-1.1 1.4-1.5 2.3l-6.1 1c-1.5.3-2.8.3-4.3 0l-4.7-.8c-.3-.9-.8-1.8-1.6-2.5-2.5-2.5-6.5-2.5-9 0s-2.5 6.5 0 9 6.5 2.5 9 0l3.3.6c2.2.4 4.6.5 7.4.1l6.7-1.1c.4.6.8 1.1 1.4 1.5 21.7 17 52.9 15.2 72.4-4.3l1.9-1.9-.1 15.8c-7.1.8-13.9 3.9-19.4 9.3-12.7 12.7-12.7 33.4 0 46.1 12.7 12.7 33.4 12.7 46.1 0 12.2-12.2 12.7-31.6 1.6-44.4l33.9-33.9c12.7 10.5 32.2 10 44.4-2.2zm-201.1 12.4c-1.7 1.7-4.3 1.7-6 0-1.7-1.7-1.7-4.3 0-6 1.7-1.7 4.3-1.7 6 0 1.7 1.6 1.7 4.3 0 6zm12 1.1c-2.7.4-5 .4-7.1-.1l-2.6-.5c.9-1.3 1.3-2.9 1.1-4.5l4.3.7c1.5.3 3.1.3 4.6 0l5.6-1c-.1.6-.2 1.2-.1 1.8 0 .8.2 1.6.6 2.4l-6.4 1.2zm139.7-17.3l-34.3 34.3c-4.7-3.4-10.1-5.5-15.6-6.1V737l21-21h22.9c.5 5.7 2.5 11.1 6 15.9zm-6.2-22.2c-.2 1.8-.2 3.6 0 5.4h-21.8l5.3-5.3 16.5-.1zm-19.7-80.2c1-1 2.4-1.7 3.8-1.7 1.2 0 2.4.4 3.2 1.3.8.8 1.3 2 1.3 3.2 0 .6-.2 1.2-.4 1.8l-.5.9c-.2.4-.5.7-.8 1l-50.5 45.8c-.3-.3-.5-.7-.9-1-.3-.3-.6-.5-.9-.8l45.7-50.5zm-36.4-15.8c.2-1.3 1-2.3 2.1-2.9 1.1-.6 2.4-.9 3.6-.5 1.2.3 2.1 1.1 2.8 2.2.7 1.1.7 2.4.4 3.6l-20.9 62.4c-.7-.3-1.5-.5-2.3-.6l14.3-64.2zm-39.5 2c-.4-1.1-.2-2.4.4-3.5.6-1.2 1.6-1.9 2.9-2.3 1.2-.3 2.4-.1 3.5.6 1 .7 1.8 1.8 2 3l13.4 64.2c-.8.1-1.6.3-2.4.6l-19.8-62.6zm-30.8 24.2c-1-.8-1.4-2-1.5-3.2.1-1.3.5-2.4 1.4-3.3.9-.9 2.1-1.5 3.3-1.4 1.2 0 2.4.6 3.2 1.5l41.6 46.4c-.4.3-.7.6-1.1.9-.3.3-.5.5-.7.8l-46.2-41.7zm48.5 42.3c3.2-3.2 8.5-3.2 11.8 0 3.2 3.2 3.2 8.5 0 11.8-3.2 3.2-8.5 3.2-11.8 0-3.2-3.2-3.2-8.5 0-11.8zm23.5 62.5c-18.8 18.8-48.7 20.5-69.6 4.2-1-.9-1.7-2-1.8-3.4-.1-1.3.4-2.6 1.3-3.5l45.8-45.8c4.1 3.3 10.2 3.1 14-.7 3.5-3.5 4-8.9 1.5-12.9l50.7-45.9.1-.1c.3-.3.6-.6.8-1l.2.2.3.3c16.3 20.9 14.6 50.8-4.2 69.6l-39.1 39zm9.6-6.6V760c-1.7-.1-3.5-.1-5.2 0l.1-16.8 5.1-5.1zm19 76c-11.9 11.9-31.2 11.9-43.2 0-11.9-11.9-11.9-31.2 0-43.2 11.9-11.9 31.2-11.9 43.2 0 11.9 12 11.9 31.3 0 43.2zm2.3-43.7l-.9-.9c-.9-.9-1.9-1.8-3-2.6l34.2-34.2c.8 1 1.7 2 2.6 3l.9.9-33.8 33.8zm34.4-79.3c11.9-11.9 31.2-11.9 43.2 0 11.9 11.9 11.9 31.2 0 43.2-11.9 11.9-31.2 11.9-43.2 0-11.9-12-11.9-31.3 0-43.2zM197 350.7c-.4.1-.6.3-.7.5-.1 1.3-.7 2.4-1.5 3.4l-2.9 2.9c-.2.2-.2.5 0 .7.2.2.5.2.7 0l2.9-2.9c1.1-1.1 1.8-2.5 1.8-4.1.2-.2 0-.4-.3-.5zm64 92.3l-.4-.4c-.1-.1-.5-.2-.7 0-.2.2-.2.5-.1.7l.4.4 2.5 2.5c.2.2.5.2.7 0 .2-.2.2-.5 0-.7L261 443zm5.9-13.3l1.5-1.5c.4-.4 1-.8 1.5-1.1l.1-.1c.1-.1.2-.4.1-.6-.1-.1-.4-.3-.7-.1-.7.3-1.3.7-1.8 1.3l-1.5 1.5c-.2.2-.2.5 0 .7.3.1.6.1.8-.1z"/>
    <path d="M632.9 721.5c0 .3.2.5.5.5.1 0 .3-.1.4-.2.1-.1.1-.1.1-.3v-1.1c1.7-.1 3.4-.7 4.7-1.9l.7.7c.2.2.5.2.7 0 .2-.2.2-.5 0-.7l-.7-.7c1.2-1.4 1.8-3.1 1.9-4.8.1-.1.2-.2.1-.3 0-.2-.1-.3-.2-.4-.1-1.7-.7-3.4-2-4.8 0-.2 0-.3-.1-.5-.1-.1-.3-.2-.5-.1-1.4-1.2-3.1-1.9-4.8-2-.1-.1-.2-.2-.4-.2s-.3.1-.4.2c-1.7.1-3.4.7-4.8 1.9-.2-.1-.4-.1-.6.1-.2.2-.2.4-.1.6-1.2 1.3-1.8 3-1.9 4.7h-1.1c-.3 0-.5.2-.5.5s.2.5.5.5h1.1c.1 1.6.8 3.2 1.9 4.5l-.8.8c-.2.2-.2.5 0 .7.2.2.5.2.7 0l.8-.8c1.3 1.1 2.9 1.8 4.5 1.9v1.2h.3zm-3.4-4.8c-2.2-2.2-2.2-5.9 0-8.1 2.2-2.2 5.9-2.2 8.1 0 2.2 2.2 2.2 5.9 0 8.1-2.3 2.2-5.9 2.2-8.1 0zM268.3 435.5c-.7.7-.7 1.9 0 2.7.7.7 1.9.7 2.7 0 .7-.7.7-1.9 0-2.7-.8-.7-1.9-.7-2.7 0zm386.1-124.4c-.4.2-.6.3-1 .1h-1c-.3 0-.5.2-.5.5s.2.5.5.5h1c.4 0 .7 0 1.1-.1.1 0 .2-.1.3-.1.1-.1.2-.3.1-.4 0-.2-.2-.5-.5-.5zM259 439.6c.1 0 .3 0 .4-.1.1-.1.1-.1.1-.3.1-1.3.6-2.5 1.4-3.5l.1-.1.1-.1 2.9-2.9c.1-.1.1-.4-.1-.7-.2-.2-.5-.2-.7 0l-2.9 2.9-.1.1-.1.1c-1 1.2-1.7 2.6-1.7 4 .1.4.3.6.6.6zm14.7-12.7c.8.2 1.6.7 2.2 1.3l.9.9c.2.2.5.2.7 0 .2-.2.2-.5 0-.7l-.9-.9c-.7-.7-1.7-1.3-2.7-1.6-.4-.1-.7.1-.7.4.1.2.2.5.5.6zm-106.1-81.2c.2.1.4 0 .6-.1l.1-.1c.3-.6.7-1.1 1.1-1.5l1.5-1.5c.2-.2.2-.5 0-.7-.2-.2-.6-.1-.8.1l-1.5 1.5c-.5.5-1 1.2-1.3 1.8-.1.1.1.4.3.5zm6.2-6.2l2.9-2.9c.2-.2.2-.5 0-.7-.2-.2-.5-.2-.7 0l-2.9 2.9c-.2.2-.2.5 0 .7.2.2.5.2.7 0zm6.4-4.5c1.2-.1 2.5.3 3.5 1.1.1.1.5.1.7-.1l.1-.1c.2-.2.1-.6-.1-.7-1.3-1-2.7-1.4-4.2-1.3-.3 0-.5.2-.4.6-.2.4 0 .6.4.5zm-36-24.4c-.2-.2-.5-.2-.7 0-10.9 10.9-10.9 28.6 0 39.5.2.2.5.2.7 0 .2-.2.2-.5 0-.7-10.5-10.5-10.5-27.5 0-38 .2-.2.2-.5 0-.8zm50.7 36.6l.4.4c.2.2.5.2.7.1l.1-.1c.1-.1.2-.5.1-.7l-.6-.6-2.4-2.4c-.2-.2-.5-.2-.7 0-.2.2-.2.5 0 .7l2.4 2.6zm-6 13.4l-1.5 1.5c-.4.4-1 .8-1.5 1.1-.3.1-.4.4-.2.7.1.2.4.4.7.2.7-.3 1.3-.7 1.8-1.3l1.5-1.5c.2-.2.2-.5 0-.7-.2-.2-.5-.2-.8 0zM77.4 233.3H66.1v11.3h11.3v-11.3zm570 492.5c-.2-.2-.5-.2-.7 0-.2.2-.2.5 0 .7l1.5 1.5c.2.2.5.2.7 0 .2-.2.2-.5 0-.7l-1.5-1.5zm-2.9-2.9c-.2-.2-.5-.2-.7 0-.2.2-.2.5 0 .7l1.5 1.5c.2.2.5.2.7 0 .2-.2.2-.5 0-.7l-1.5-1.5zm-.9-19.6l1.5-1.5c.2-.2.2-.5 0-.7-.2-.2-.5-.2-.7 0l-1.5 1.5c-.2.2-.2.5 0 .7.2.2.5.2.7 0zm-2.1 16.6c-.2-.2-.5-.2-.7 0-.2.2-.2.5 0 .7l1.5 1.5c.2.2.5.2.7 0 .2-.2.2-.5 0-.7l-1.5-1.5zm5-19.6l1.5-1.5c.2-.2.2-.5 0-.7-.2-.2-.5-.2-.7 0l-1.5 1.5c-.2.2-.2.5 0 .7.2.3.5.3.7 0zm.3 12.3c0 .3.2.5.5.5h2.1c.1 0 .3-.1.4-.2.1-.1.1-.1.1-.3 0-.3-.2-.5-.5-.5h-2.1c-.3 0-.5.2-.5.5zm-13.3 10.5c-.3 0-.5.2-.5.5v2.1c0 .3.2.5.5.5.1 0 .3-.1.4-.2.1-.1.1-.2.1-.3v-2.1c0-.3-.2-.5-.5-.5zm-97.1 51.8c-.1 0-.2.1-.3.2-.1.1-.1.2-.2.3-4.6 4.7-6.9 10.8-7 16.9-.1.1-.1.2-.1.4 0 .1.1.3.1.4.1 6.1 2.4 12.1 7 16.8 0 .1.1.2.2.3.1.1.2.1.3.2 4.7 4.6 10.7 6.9 16.8 7 .1.1.2.1.4.1.1 0 .2-.1.3-.1 6.2-.1 12.5-2.5 17.3-7.2 4.8-4.8 7.2-11 7.2-17.3 0-6.4-2.4-12.7-7.2-17.6-9.7-9.8-25.1-9.9-34.8-.4zm39.3 18.2h1.5c-.1 5.7-2.3 11.3-6.5 15.8l-.2-.2c-.2-.2-.5-.2-.7 0-.2.2-.2.5 0 .7l.2.2c-4.4 4.3-10.2 6.4-15.9 6.5v-.2c0-.3-.2-.5-.5-.5s-.5.2-.5.5v.2c-5.7-.1-11.3-2.3-15.7-6.5l.1-.1c.2-.2.2-.5 0-.7-.2-.2-.5-.2-.7 0l-.1.1c-4.2-4.4-6.4-10.1-6.5-15.7h.2c.1 0 .3-.1.4-.2.1-.1.1-.2.1-.3 0-.3-.2-.5-.5-.5h-.2c.1-5.7 2.3-11.5 6.5-15.9l1 1c.2.2.5.2.7 0 .2-.2.2-.5 0-.7l-1-1c4.4-4.2 10.1-6.4 15.8-6.5v1.5c0 .3.2.5.5.5.1 0 .3-.1.4-.2.1-.1.1-.1.1-.3v-1.5c5.7.1 11.5 2.3 15.9 6.5l-1.1 1.1c-.2.2-.2.5 0 .7.2.2.5.2.7 0l1.1-1.1c4.2 4.4 6.4 10.1 6.5 15.9h-1.5c-.3 0-.5.2-.5.5-.1.2.1.4.4.4zm57.8-65.9c-.3 0-.5.2-.5.5v2.1c0 .3.2.5.5.5.1 0 .3-.1.4-.2.1-.1.1-.1.1-.3v-2.1c0-.3-.2-.5-.5-.5z"/>
    <path d="M573.6 792.1h-2.1c-.3 0-.5.2-.5.5s.2.5.5.5h2.1c.1 0 .3-.1.4-.2.1-.1.1-.2.1-.3.1-.3-.2-.5-.5-.5zM274.2 955.5h-11.3v11.3h11.3v-11.3zm45.2-468.9c14.2-14.2 14.2-37.3 0-51.6l-8.4-8.4 1.3-1.3c2.2-2.2 2.2-5.7 0-8l-9.6-9.6c-2.2-2.2-5.7-2.2-8 0l-1.3 1.3-79.4-79.4 1.3-1.3c2.2-2.2 2.2-5.7 0-8l-9.6-9.6c-2.2-2.2-5.7-2.2-8 0l-1.3 1.3-7.5-7.5c-14.2-14.2-37.3-14.2-51.5 0-14.2 14.2-14.2 37.3 0 51.5l7.5 7.5-1.3 1.3c-2.2 2.2-2.2 5.7 0 8l9.6 9.6c2.2 2.2 5.7 2.2 8 0l1.3-1.3 79.5 79.5-1.3 1.3c-2.2 2.2-2.2 5.7 0 8l9.6 9.6c2.2 2.2 5.7 2.2 8 0l1.3-1.3 8.4 8.4c14.1 14.3 37.2 14.3 51.4 0zm-23.2-77.4c1.3-1.3 3.7-1.3 5 0l9.6 9.6c1.3 1.3 1.3 3.7 0 5l-4.9 4.9c-1.3 1.3-3.7 1.3-5 0l-9.6-9.6c-1.3-1.3-1.3-3.7 0-5l4.9-4.9zM285.6 438l.1.1-25.7 25.7-3.8-3.8 10.1-10.1 2.3 2.3c.2.2.5.2.7 0 .2-.2.2-.5 0-.7l-2.3-2.3 14.9-14.9.7.7c.2.2.5.2.7 0 .2-.2.2-.5 0-.7l-.7-.7 10.1-10.1 3.8 3.8-10.1 10.1-.1-.1c-.2-.2-.5-.2-.7 0-.2.2-.2.4 0 .7zm-86.4-125.8c1.3-1.3 3.7-1.3 5 0l9.6 9.6c1.3 1.3 1.3 3.7 0 5l-4.9 4.9c-1.3 1.3-3.7 1.3-5 0l-9.6-9.6c-1.3-1.3-1.3-3.7 0-5l4.9-4.9zm-12.6 26.7l2.1 2.1-14.9 14.9-.7-.7c-.2-.2-.5-.2-.7 0-.2.2-.2.5 0 .7l.7.7-10.1 10.2-3.8-3.8 10.1-10.1.1.1c.2.2.5.2.7 0 .2-.2.2-.5 0-.7l-.1-.1 25.7-25.7 3.8 3.8-10.1 10.1-2.1-2.1c-.2-.2-.5-.2-.7 0-.2.1-.2.4 0 .6zm-47.8 15.7c-13.4-13.4-13.4-35.2 0-48.6 13.4-13.4 35.2-13.4 48.6 0l7.5 7.5-2.1 2.1c-2.2 2.2-2.2 5.7 0 8l2.2 2.2-25.7 25.7c-.7-.7-1.1-1.4-1.3-2.2-.1-.2-.4-.4-.7-.4-.2.1-.4.4-.4.7.3 1 .9 1.9 1.6 2.7l-10.1 10.1-2.2-2.2c-2.2-2.2-5.7-2.2-8 0l-2.1 2.1-7.3-7.7zm20.8 26.4c-1.3 1.3-3.7 1.3-5 0l-9.6-9.6c-1.3-1.3-1.3-3.7 0-5l4.9-4.9c1.3-1.3 3.7-1.3 5 0l9.6 9.6c1.3 1.3 1.3 3.7 0 5l-4.9 4.9zm4.3-1.3l2.1-2.1c2.2-2.2 2.2-5.7 0-8l-2.2-2.2 10.1-10.1 1.5 1.5c.2.2.5.2.7 0 .2-.2.2-.5 0-.7l-1.5-1.5 14.9-14.9.1.1c.2.2.5.2.7 0 .2-.2.2-.5 0-.7l-.1-.1 10.1-10.1 2.2 2.2c2.2 2.2 5.7 2.2 8 0l2.1-2.1 79.5 79.5-2.1 2.1c-2.2 2.2-2.2 5.7 0 8l2.2 2.2-10.2 10.1-1.5-1.5c-.2-.2-.5-.2-.7 0-.2.2-.2.5 0 .7l1.5 1.5-14.9 14.9c-.2-.1-.4-.1-.7.1-.2.2-.1.4-.1.7l-10.1 10.1-2.2-2.2c-2.2-2.2-5.7-2.2-8 0l-2.1 2.1-79.3-79.6zm92.8 98.4c-1.3 1.3-3.7 1.3-5 0l-9.6-9.6c-1.3-1.3-1.3-3.7 0-5l4.9-4.9c1.3-1.3 3.7-1.3 5 0l9.6 9.6c1.3 1.3 1.3 3.7 0 5l-4.9 4.9zm12.7 7.1l-8.4-8.4 2.1-2.1c2.2-2.2 2.2-5.7 0-8l-2.2-2.2 25.7-25.7.1.1c.6.6 1 1.3 1.3 2.2.1.2.4.4.7.4.1-.1.2-.1.2-.1.1-.1.2-.4.1-.5-.3-1-.8-1.8-1.5-2.6l-.1-.1 10.1-10.1 2.2 2.2c2.2 2.2 5.7 2.2 8 0l2.1-2.1 8.4 8.2c13.4 13.4 13.4 35.2 0 48.6-13.4 13.4-35.4 13.6-48.8.2zm382.1 228h2.1c.1 0 .3-.1.4-.2.1-.1.1-.2.1-.3 0-.3-.2-.5-.5-.5h-2.1c-.3 0-.5.2-.5.5s.2.5.5.5zm-31.1-12.9c.2.2.5.2.7 0 .2-.2.2-.5 0-.7l-1.5-1.5c-.2-.2-.5-.2-.7 0-.2.2-.2.5 0 .7l1.5 1.5zm22.8 12.9h2.1c.1 0 .3-.1.4-.2.1-.1.1-.2.2-.3 0-.3-.2-.5-.5-.5h-2.1c-.3 0-.5.2-.5.5-.2.2.1.5.4.5zm-28.9-1.1h-2.1c-.3 0-.5.2-.5.5s.2.5.5.5h2.1c.1 0 .3-.1.4-.2.1-.1.1-.2.1-.3 0-.3-.2-.5-.5-.5zm4.5.8c.1-.1.1-.1.1-.3 0-.3-.2-.5-.5-.5h-2.1c-.3 0-.5.2-.5.5s.2.5.5.5h2.1c.2.1.3-.1.4-.2zm4.2.1c.1-.1.1-.2.1-.3 0-.3-.2-.5-.5-.5h-2.1c-.3 0-.5.2-.5.5s.2.5.5.5h2.1c.2 0 .3-.1.4-.2zm1.1-10.5l-1.5-1.5c-.2-.2-.5-.2-.7 0-.2.2-.2.5 0 .7l1.5 1.5c.2.2.5.2.7 0 .2-.2.2-.5 0-.7zm-1.6 20.4l-1.5 1.5c-.2.2-.2.5 0 .7.2.2.5.2.7 0l1.5-1.5c.2-.2.2-.5 0-.7-.2-.2-.5-.2-.7 0zm-3 3l-1.5 1.5c-.2.2-.2.5 0 .7.2.2.5.2.7 0l1.5-1.5c.2-.2.2-.5 0-.7-.2-.2-.5-.2-.7 0zm5.9-5.9l-1.5 1.5c-.2.2-.2.5 0 .7.2.2.5.2.7 0l1.5-1.5c.2-.2.2-.5 0-.7-.2-.2-.5-.2-.7 0zm8.1-24.7c.1 0 .3-.1.4-.2.1-.1.1-.2.1-.3v-2.1c0-.3-.2-.5-.5-.5s-.5.2-.5.5v2.1c0 .2.2.5.5.5zm7.2 10.9l1.5-1.5c.2-.2.2-.5 0-.7-.2-.2-.5-.2-.7 0l-1.5 1.5c-.2.2-.2.5 0 .7.1.3.4.3.7 0zm-7.2-6.8c.1 0 .3-.1.4-.2.1-.1.1-.1.1-.3v-2.1c0-.3-.2-.5-.5-.5s-.5.2-.5.5v2.1c0 .3.2.5.5.5zm-.1 4.2c.2 0 .3-.1.4-.2.1-.1.2-.2.1-.3V701c0-.3-.2-.5-.5-.5s-.5.2-.5.5v2.1c0 .3.2.5.5.5zm-7.1 2.6c.2.2.5.2.7 0 .2-.2.2-.5 0-.7l-1.5-1.5c-.2-.2-.5-.2-.7 0-.2.2-.2.5 0 .7l1.5 1.5zM183.7 862.8l2.9-2.9c.2-.2.2-.5 0-.7-.2-.2-.5-.2-.7 0l-2.9 2.9c-.2.2-.2.5 0 .7.2.2.5.2.7 0zm830.1-285l.6.9c1.1-.8 2.1-1.7 3.2-2.6l-.7-.8c-1 .8-2 1.7-3.1 2.5zM1031 560l.9.6c.7-1.2 1.5-2.4 2.2-3.5l-1-.5c-.7 1.1-1.4 2.3-2.1 3.4zm3.8-31c-.6-1.2-1.2-2.4-2-3.8l-1 .5c.7 1.3 1.3 2.5 2.1 3.7l.9-.4zm-23-26.4c1.1.7 2.2 1.5 3.3 2.4l.7-.8c-1.1-1-2.3-1.8-3.4-2.5l-.6.9zm25.7 46.8l-1-.3c-.4 1.3-.9 2.5-1.4 3.9l1 .4c.5-1.4 1-2.8 1.4-4zm-.2-4.4l1 .1c.2-1.3.2-2.8.1-4.2l-1.1.1c.1 1.4.1 2.8 0 4zm.4-8.2c-.3-1.3-.7-2.7-1.3-4.1l-1 .4c.5 1.3 1 2.6 1.2 4l1.1-.3zm-24.7-14c-.3.1-.4.4-.4.7l7.8 28.7c.1.3.4.4.7.4.1.1.2 0 .2-.1.1-.1.1-.3.1-.5l-7.8-28.7c0-.4-.3-.5-.6-.5zm-63.6 39.5c.4 1.3 1 2.5 1.9 3.8l.9-.6c-.7-1.2-1.4-2.4-1.8-3.5l-1 .3zm50.8-47c-.1-.3-.4-.4-.7-.4-.3 0-.4.3-.3.6l12.9 47.2c.1.3.4.4.7.4.1.1.1 0 .2-.1s.1-.3.1-.5l-12.9-47.2zm112.3 227.6h-11.3v11.3h11.3v-11.3zM967.6 579.4c1.2.7 2.4 1.4 3.7 2.1l.5-1c-1.3-.7-2.5-1.3-3.6-2l-.6.9zm39.3 3l.5 1c1.2-.6 2.4-1.3 3.6-2.1l-.6-.9c-1.2.6-2.3 1.4-3.5 2zm-7.6 3l.2 1c1.3-.3 2.7-.7 4-1.3l-.4-1c-1.2.5-2.6.9-3.8 1.3zm27.2-18.3c1-1 1.8-2.1 2.7-3.2l-.8-.7c-.9 1-1.7 2.1-2.7 3.2l.8.7zm-17.9-67.3c-1.5-.6-2.9-1-4.2-1v1c1.1.1 2.4.4 3.8.9l.4-.9zm-17.4 87.8c1.4.1 2.8 0 4.2-.2l-.1-1c-1.3.1-2.7.2-4.1.2v1zm9.3-87.1l-.3-1c-1.3.4-2.6 1-3.9 1.7l.5 1c1.2-.7 2.6-1.3 3.7-1.7zm-7.3 3.8l-.6-.9c-1.2.7-2.3 1.5-3.5 2.4l.7.8c1.2-.8 2.3-1.6 3.4-2.3zm-10.3 82c1.4.4 2.7.7 4.1.9l.1-1c-1.3-.2-2.6-.5-4-.9l-.2 1zm3.7-77l-.7-.8c-1 .9-2.1 1.8-3.2 2.7l.7.8c1-.9 2.1-1.8 3.2-2.7zm28.8-17.5c2.4-2.4 4.2-5.8 2.8-7.2-1.4-1.4-4.8.4-7.2 2.8-2.4 2.4-4.2 5.8-2.8 7.2 1.4 1.4 4.8-.4 7.2-2.8zm-3.7-3.7c2.7-2.7 5.2-3.4 5.7-2.8.6.6-.1 3.1-2.8 5.7-2.7 2.6-5.2 3.4-5.7 2.8-.6-.6.2-3.1 2.8-5.7zm9 85.2l1.5-1.5 1.5-1.5-.7-.7-3 3 .7.7zm11.1-49.9c-.7-1.2-1.5-2.4-2.2-3.5l-.9.6c.7 1.2 1.5 2.4 2.2 3.5l.9-.6zm98.8-404.5c-35.3-35.3002-92.8-35.3002-128.1 0-35.3 35.3-35.3 92.8 0 128.1s92.8 35.3 128.1 0 35.4-92.7 0-128.1zm-126.9 1.4c.7-.7 1.4-1.4 2.2-2.1.5.8 1 1.7 1.4 2.6l.9-.4c-.5-1-1-1.9-1.5-2.9 13.9-12.7 31.1-20.2002 48.8-22.4002-.4.6-.8 1.1-1.3 1.7l.9.6c.7-.8 1.2-1.6 1.8-2.4 21.9-2.4 44.6 3.5 63 17.5002-.6-.1-1.1-.2-1.6-.3l-.2 1c1.3.2 2.5.4 3.7.7 2.5 2.1 4.9 4.2 7.2 6.5 19.9 19.7 28.4 46.6 25.5 72.5-27.5-25.4-62.3-40.2-98.4-43.4l.3-1.5-1-.3c-.1.6-.2 1.1-.4 1.5-6.9-.5-13.8-.7-20.7-.4.1-.7.3-1.3.4-2l-1-.1c-.1.7-.3 1.5-.4 2.2-7.4.4-15 1.2-22.5 2.6.1-.7.3-1.5.4-2.1l-1-.2c-.1.9-.3 1.6-.4 2.5-9.6 1.8-19.3 4.6-28.7 8.3 3.7-14.6 11.3-28.3 22.6-39.7zm116.6 132.9c-.5-.8-1-1.6-1.6-2.5l-.9.6c.6.9 1.2 1.8 1.6 2.6-19.5 14.7-43.8 20.1-66.9 16.4-.5-.8-1.1-1.7-1.5-2.6l-.9.6c.4.7.7 1.2 1.1 1.8-17.3-3-34-11.1-47.4-24.5-7.2-7.2-13-15.5-17.2-24.2.1-.5 0-1 .1-1.5l-.8-.1c-8.2-18-10-38.3-5.6-57.3 17.4-6.9 35.4-10.7 53.5-11.5 6.9-.3 13.8-.2 20.7.4 0 .1 0 .3-.1.5l1 .1c0-.1.1-.4.1-.5 36.2 3.2 71.1 18.2 98.5 44-2.6 18.3-10.9 36.1-25 50.2-2.7 2.7-5.6 5.2-8.7 7.5zM980.4 514.7l-.7-.7c-1 1-2.1 1.9-3 2.9l.7.7c.8-.9 1.9-1.8 3-2.9zm38.5-6.4c.7.7 1.5 1.5 2.2 2.4l.8-.7c-.7-.9-1.5-1.7-2.3-2.4l-.7-.7-.7.7c.2.3.5.5.7.7zM37 737.8c.2.2.5.2.7 0 .2-.2.1-.6-.1-.8-.9-.7-2-1.8-2-3.3 0-1.2.5-2.4 1.7-3.6.2-.2.2-.5 0-.7-.2-.2-.5-.2-.7 0-1.5 1.5-2.1 2.9-2.1 4.4.2 1.3 1 2.7 2.5 4zm990.2-221.3c-.9-1.2-1.7-2.3-2.6-3.3l-.8.7c.8 1.1 1.7 2.1 2.5 3.2l.9-.6z"/>
    <path d="M1036.9 237.7c.4 1.4.8 2.7 1.2 4l1-.3c-.4-1.3-.8-2.6-1.2-4l-1 .3zm-4.2-24.7l-1 .1c.2 1.4.4 2.8.6 4.1l1-.2c-.3-1.2-.4-2.6-.6-4zm1.2 8.2l-1 .1c.3 1.5.6 2.8.9 4.1l1-.2c-.4-1.3-.6-2.7-.9-4zm12.2 39.8c.6 1.2 1.3 2.4 1.9 3.7l1-.5c-.7-1.3-1.3-2.4-1.9-3.7l-1 .5zm-6.7-15.3c.5 1.3 1 2.6 1.5 3.8l1-.4c-.5-1.3-1-2.6-1.5-3.8l-1 .4zm3.1 7.8c.6 1.3 1.2 2.5 1.8 3.8l.9-.4c-.6-1.2-1.2-2.5-1.7-3.8l-1 .4zm-7.8-23.8c.4 1.3.7 2.6 1 4l1-.3c-.3-1.3-.7-2.7-1-4l-1 .3zm-27.2-68.4l1 .3c.4-1.4.8-2.7 1.1-4l-1-.3c-.5 1.3-.7 2.6-1.1 4zm-2.7 7.9l1 .4c.4-1.3.9-2.7 1.4-3.9l-1-.4c-.5 1.3-.9 2.7-1.4 3.9zm-3.1 7.7l1 .4c.6-1.3 1.1-2.6 1.6-3.8l-1-.4c-.5 1.3-1 2.5-1.6 3.8zm29.3 11.3h-1c.1 1.4 0 2.8.1 4.2h1c-.1-1.4-.1-2.7-.1-4.2zm.3 8.3h-1c0 1.5.1 2.9.1 4.3l1.1-.1c-.1-1.4-.2-2.8-.2-4.2zm.5 8.3l-1 .1c.1 1.4.2 2.7.4 4.1l1-.1c-.1-1.3-.3-2.8-.4-4.1zm23.3-48.7h-1c-.1 1.3-.1 2.7 0 4.1h1v-4.1zm36.6 63c1 1 1.8 2 2.7 3l.8-.7c-.9-1-1.8-2-2.8-3.1l-.7.8zm-11.5-12.4c1 1.1 2 2.1 2.9 3.2l.7-.7c-1-1.1-1.9-2.1-2.8-3.1l-.8.6zm5.8 6.2c1 1.1 1.9 2.1 2.8 3.1l.7-.7c-.9-1-1.8-2-2.8-3.1l-.7.7zm11.2 12.4c1 1.1 1.8 2.1 2.7 3.2l.8-.7c-.9-1-1.8-2.1-2.7-3.2l-.8.7zm10.7 12.6c1 1.1 1.8 2.2 2.6 3.2l.8-.7c-.8-1.1-1.7-2.1-2.7-3.2l-.7.7zm-5.3-6.3c.9 1 1.8 2.1 2.7 3.2l.8-.7c-.9-1-1.8-2.1-2.7-3.2l-.8.7zm-42.2-51.6c.7 1.3 1.4 2.4 2.1 3.6l.9-.6c-.7-1.2-1.4-2.4-2.1-3.5l-.9.5zm52.7 64.5c.9 1 1.7 2.1 2.4 3.3l.9-.6c-.8-1.1-1.6-2.2-2.5-3.4l-.8.7zm-56.4-72.1c.6 1.3 1.1 2.6 1.7 3.9l.9-.4c-.6-1.3-1.1-2.6-1.6-3.8l-1 .3zm-2-8.1c.1 1.3.4 2.8.9 4.1l1-.3c-.4-1.4-.7-2.7-.9-4l-1 .2zm14.9 29.7c.9 1 1.7 2.1 2.6 3.3l.8-.7c-1-1.1-1.8-2.2-2.6-3.3l-.8.7zm-4.8-6.7c.7 1 1.5 2.3 2.4 3.4l.9-.6c-.8-1.1-1.6-2.4-2.4-3.4l-.9.6zm10 13.2c.9 1 1.8 2.1 2.7 3.2l.8-.7c-1-1.1-1.8-2.1-2.7-3.2l-.8.7zM944.6 635.2l1.1.1c.1-1.4.1-2.9 0-4.3l-1.1.1c.1 1.3.1 2.7 0 4.1zm-5.4 15.3l.9.6c.8-1.3 1.5-2.5 2.1-3.7l-.9-.4c-.6 1.2-1.3 2.4-2.1 3.5zm-4.6 6.7l.8.7c1-1.1 1.8-2.2 2.6-3.3l-.9-.6c-.8 1-1.7 2.1-2.5 3.2zM648.2 311.3l-2.1.1c-.3 0-.5.2-.5.5s.2.5.5.5h2.1c.1 0 .2-.1.4-.2.1-.1.2-.2.2-.4-.1-.3-.3-.5-.6-.5zm293.2 307.9l1-.4c-.5-1.3-1.1-2.4-1.8-3.8l-.9.4c.8 1.4 1.3 2.7 1.7 3.8zm3.7 7.7c-.3-1.3-.7-2.7-1.1-4l-1 .3c.4 1.3.8 2.6 1.2 4l.9-.3zm-16 36.3l-.1.1.7.7.1-.1c1-1 1.9-1.9 2.7-2.9l-.7-.7c-.8 1.1-1.7 2-2.7 2.9zm-28.3-66.7c-1.1.7-2.4 1.5-3.5 2.2l.6.9c1.3-.8 2.4-1.5 3.5-2.2l-.6-.9zm15.4 77.4l.6.9c1.2-.7 2.3-1.5 3.5-2.4l-.7-.8c-1.2.8-2.3 1.6-3.4 2.3zm-7.8-81.2c-1.3.5-2.6 1.1-3.8 1.8l.5 1c1.3-.7 2.4-1.3 3.7-1.8l-.4-1zm-7.5 86.3l-.1 1.1c1.5 0 2.9-.2 4.3-.4l-.1-1c-1.4.2-2.8.3-4.1.3zm8-1.5l.4 1c1.3-.4 2.7-1 3.9-1.7l-.5-1c-1.3.7-2.6 1.3-3.8 1.7zm.5-71.4c-.1-.3-.4-.4-.7-.4-.3 0-.4.3-.3.6l12.9 47.2c.1.3.4.4.7.4.1.1.1 0 .2-.1s.1-.3.1-.5l-12.9-47.2zm13.4 62.9l.7.7c1.1-.8 2.1-1.8 3.2-2.7l-.7-.7c-1.1 1-2.1 1.8-3.2 2.7zm17.1-55.9c-.7-1.3-1.3-2.5-2.1-3.7l-1 .5c.6 1.2 1.3 2.4 2.1 3.7l1-.5zm5 26.3l-1-.2c-.3 1.3-.6 2.7-1.1 3.9l1 .4c.5-1.4.9-2.8 1.1-4.1zM623.3 311.3l-2.1.1c-.3 0-.5.2-.5.5s.2.5.5.5h2.1c.1 0 .2-.1.4-.2.1-.1.2-.2.2-.4-.1-.3-.3-.5-.6-.5zm6.2 0l-2.1.1c-.3 0-.5.2-.5.5s.2.5.5.5h2.1c.1 0 .2-.1.4-.2.1-.1.2-.2.2-.4-.1-.3-.3-.5-.6-.5zm-12.5 0l-2.1.1c-.3 0-.5.2-.5.5s.2.5.5.5h2.1c.1 0 .2-.1.4-.2.1-.1.2-.2.2-.4-.1-.3-.3-.5-.6-.5zm-6.2 0l-2.1.1c-.3 0-.5.2-.5.5s.2.5.5.5h2.1c.1 0 .2-.1.4-.2.1-.1.2-.2.2-.4-.1-.3-.3-.5-.6-.5zm31.2 0l-2.1.1c-.3 0-.5.2-.5.5s.2.5.5.5h2.1c.1 0 .2-.1.4-.2.1-.1.2-.2.2-.4-.1-.3-.3-.5-.6-.5zm-6.3-.1l-2.1.1c-.3 0-.5.2-.5.5s.2.5.5.5h2.1c.1 0 .2-.1.4-.2s.2-.2.2-.4c0-.3-.3-.5-.6-.5zm-31.3.1l-2.1.1c-.3 0-.5.2-.5.5s.2.5.5.5h2.1c.1 0 .2-.1.4-.2.1-.1.2-.2.2-.4 0-.3-.3-.5-.6-.5zM915.7 20.7002h-11.3v11.3h11.3v-11.3z"/>
    <path d="M956.7 584.3c3.2 1.6 6.9 3.5 11 5.3l1.6.7c15.5 6.8 31.4 13.8 59.4-14.2 27.8-27.8 18-45.1 13.3-53.3l-.6-1c-1.2-2.1-2.9-4.6-4.6-7.4-5.3-8.1-12.6-19.2-10.1-23.9.9-1.6.5-3.8-.7-5l-8.2-9.1c-1.2-1.8-3.5-2.1-5.5-1-6 3.8-21.8 14.3-39.5 32-12.9 12.9-23.9 26.8-31.2 39.3-2.9 4.9-5.1 9.8-7.1 14-2.1 4.8-3.9 8.6-5.7 10.4-1.8 1.8-5.5 3.5-10.4 5.7-4.3 1.9-9.1 4.2-14 7.1-12.7 7.4-26.6 18.5-39.3 31.2-18.9 18.9-29.3 35.1-32 39.5-1 1.7-.6 4 1 5.5l9.2 8.3c1.5 1.3 3.4 1.6 5 .7 4.6-2.6 15.7 4.8 23.8 10.1 2.7 1.8 5.5 3.5 7.4 4.6.4.2.7.4 1.3.7 8.3 4.6 25.6 14.2 53.2-13.4 27.9-27.9 21-43.8 14.3-59.4l-.7-1.8c-1.8-4.3-3.8-8-5.5-11.3-4.7-9.4-6.9-14.1-3.4-17.7 3.5-3.7 8.3-1.6 18 3.4zm-16.3 14.9c1.7 3.3 3.6 7 5.4 11.3l.7 1.8c6.4 14.8 13 30.1-13.8 57-26.5 26.5-42.2 17.8-50.7 13-.4-.3-.9-.4-1.3-.7-2-1.1-4.6-2.8-7.3-4.6-9-5.9-20.3-13.3-25.9-10.2-.8.4-1.8.2-2.7-.4l-9.1-8.3c-.8-.8-1.1-2.1-.6-2.9 2.6-4.4 12.9-20.4 31.7-39.2 12.5-12.5 26.2-23.4 38.8-30.7 4.9-2.8 9.6-5.1 13.8-6.9 4.9-2.3 8.9-4.1 10.9-6 2-2 3.8-5.9 6-10.9 2-4.2 4.1-9 6.9-13.8 7.1-12.2 18-26.1 30.7-38.8 17.5-17.5 33.1-28 39.2-31.7 1.2-.7 2.4-.4 3.1.4l8.4 9.3c.7.7.9 1.8.4 2.6-3.1 5.7 4.3 16.9 10.2 26.1 1.8 2.7 3.5 5.2 4.6 7.2l.6 1c4.8 8.5 13.7 24.2-13 50.8-27 27-41.6 20.5-57.1 13.8l-1.6-.7c-4.1-1.8-7.7-3.6-10.9-5.3-9.4-4.8-15.6-8-20.4-3.2-4.8 4.6-1.7 10.7 3 20z"/>
    <path d="M932.4 603c.7 1 1.5 2.1 2.4 3.5l.9-.6c-.8-1.3-1.5-2.4-2.4-3.5l-.9.6zM799.6 430.1h-11.3v11.3h11.3v-11.3zM598.3 311.3l-2.1.1c-.3 0-.5.2-.5.5s.2.5.5.5h2.1c.1 0 .2-.1.4-.2.1-.1.2-.2.2-.4-.1-.3-.3-.5-.6-.5zm-6.3-.1l-2.1.1c-.3 0-.5.2-.5.5s.2.5.5.5h2.1c.1 0 .2-.1.4-.2s.2-.2.2-.4c-.1-.3-.3-.5-.6-.5zm337.8 288.5l.8-.7c-.9-1-1.7-2-2.6-2.9l-.2-.2-.7.7.2.2c.9.9 1.7 1.9 2.5 2.9zm-84.2 53.1c-2.4 2.4-4.2 5.8-2.8 7.2 1.4 1.4 4.8-.4 7.2-2.8 2.4-2.4 4.2-5.8 2.8-7.2-1.4-1.4-4.8.3-7.2 2.8zm3.7 3.6c-2.7 2.7-5.2 3.4-5.7 2.8-.6-.6.1-3.1 2.8-5.7 2.7-2.7 5.2-3.4 5.7-2.8.6.6-.2 3.1-2.8 5.7zm15.7-25.3l-.8-.7c-1 1.1-1.8 2.4-2.5 3.4l.9.6c.7-1 1.6-2.1 2.4-3.3zm85.8-77l-1-.3c-.4 1.5-.8 2.9-.9 4.1l1 .1c.2-1.1.5-2.4.9-3.9zm-91.2 83.3c-.7 1.3-1.3 2.7-1.8 3.8l1 .4c.4-1.1 1-2.4 1.8-3.7l-1-.5zm94.5-90.8l-.9-.4c-.7 1.2-1.3 2.5-1.8 3.8l1 .4c.4-1.2 1-2.5 1.7-3.8zm-97.1 99c0 1.3.2 2.7.8 4.2l1-.4c-.4-1.3-.7-2.7-.7-3.8H857zm2.7 8.1c.7 1.1 1.5 2.3 2.4 3.5l.8-.7c-.9-1.2-1.7-2.3-2.4-3.4l-.8.6zm100.7-78.8c1.1.8 2.3 1.5 3.5 2.4l.6-.9c-1.2-.7-2.4-1.5-3.5-2.4l-.6.9zm8.1-48.4l-.7-.7c-1 1.1-1.8 2.1-2.8 3.2l.8.7c.9-1.1 1.8-2.2 2.7-3.2zm5.5-5.6l.4-.4-.7-.7-.4.4-2.6 2.6.7.7c.9-.9 1.7-1.8 2.6-2.6zm-19.4 49.2c.7.7 1.6 1.5 2.6 2.3l.7-.8c-1-.8-1.8-1.6-2.5-2.2l-.5-.5-.7.7c0 .2.2.4.4.5zm8.6-37.3l-.8-.7c-1 1.1-1.8 2.2-2.5 3.4l.9.6c.6-1.1 1.6-2.2 2.4-3.3zm-4.9 6.7l-.9-.6c-.7 1.2-1.5 2.4-2.2 3.5l.9.6c.7-1.2 1.4-2.3 2.2-3.5zM877.7 671c1.2.7 2.4 1.5 3.5 2.2l.6-.9c-1.3-.7-2.4-1.5-3.5-2.2l-.6.9zm38.9-79.5l-.1-1.1c-1.3.1-2.7.3-4.2.8l.3 1c1.5-.4 2.9-.6 4-.7zm8 1.7c-1.3-.8-2.6-1.5-3.8-2l-.4 1c1.2.4 2.4 1 3.5 1.9l.7-.9zm-37.3 13.2c-1 .9-2.1 1.8-3.2 2.7l.7.7c1.1-1 2.1-1.8 3.2-2.7l-.7-.7zm-21.8 53.1l-.7.7 1.1 1.1c.7.7 1.3 1.2 2 1.8l.7-.7c-.7-.7-1.3-1.2-2.1-1.9-.3-.2-.6-.6-1-1zm19.4 15.8c1.4.7 2.6 1.3 3.8 1.8l.4-.9c-1.2-.6-2.4-1.2-3.7-1.9l-.5 1zm37.3-61.7c-.3.1-.4.4-.4.7l7.8 28.7c.1.3.4.4.7.4.1.1.1 0 .2-.1s.1-.3.1-.5l-7.8-28.7c0-.4-.3-.5-.6-.5zm-28.3-12.5c-1.1.8-2.3 1.7-3.4 2.5l.7.8 3.3-2.4-.6-.9zM871 665.9c1 .9 2.2 1.8 3.3 2.6l.7-.8c-1.1-.8-2.3-1.7-3.3-2.6l-.7.8zM979.3 584c-1.3-.5-2.5-1-3.8-1.6l-.4 1c1.3.6 2.6 1.1 3.8 1.6l.4-1zm-106.9 36.9l.7.7c1-1 2-2.1 2.9-3l-.7-.7c-.9.9-1.9 2-2.9 3zm-5.5 6.3l.8.7c1-1.1 1.8-2.1 2.7-3.2l-.8-.7c-.9 1.1-1.8 2.2-2.7 3.2zm25.8 51.5c1.4.5 2.7.8 4.1 1l.1-1c-1.3-.3-2.6-.6-4-1l-.2 1zm-14.4-63.9l-.1.1.7.7.1-.1 2.8-2.8-.7-.7c-.9.8-1.8 1.8-2.8 2.8z"/>
  </g>
  <defs>
    <clipPath id="clip0">
      <path fill="#fff" d="M0 0h1920v1000H0z"/>
    </clipPath>
  </defs>
</svg>